ISO-10303-21;
HEADER;
FILE_DESCRIPTION(('gear archetype generated for catia (valid AP242 fleet regen)'),'2;1');
FILE_NAME('gear_catia.step','2026-05-27T16:21:22.629Z',('PRISM-slot-delta-iter117'),('PRISM'),'PRISM AP242 valid emitter','PRISM','');
FILE_SCHEMA(('AUTOMOTIVE_DESIGN { 1 0 10303 214 3 1 1 }'));
ENDSEC;
DATA;
#1 = CARTESIAN_POINT('bot_0',(40.0000000,0.0000000,0.0000000));
#2 = CARTESIAN_POINT('bot_1',(28.2842712,28.2842712,0.0000000));
#3 = CARTESIAN_POINT('bot_2',(0.0000000,40.0000000,0.0000000));
#4 = CARTESIAN_POINT('bot_3',(-28.2842712,28.2842712,0.0000000));
#5 = CARTESIAN_POINT('bot_4',(-40.0000000,0.0000000,0.0000000));
#6 = CARTESIAN_POINT('bot_5',(-28.2842712,-28.2842712,0.0000000));
#7 = CARTESIAN_POINT('bot_6',(0.0000000,-40.0000000,0.0000000));
#8 = CARTESIAN_POINT('bot_7',(28.2842712,-28.2842712,0.0000000));
#9 = CARTESIAN_POINT('top_0',(40.0000000,0.0000000,25.0000000));
#10 = CARTESIAN_POINT('top_1',(28.2842712,28.2842712,25.0000000));
#11 = CARTESIAN_POINT('top_2',(0.0000000,40.0000000,25.0000000));
#12 = CARTESIAN_POINT('top_3',(-28.2842712,28.2842712,25.0000000));
#13 = CARTESIAN_POINT('top_4',(-40.0000000,0.0000000,25.0000000));
#14 = CARTESIAN_POINT('top_5',(-28.2842712,-28.2842712,25.0000000));
#15 = CARTESIAN_POINT('top_6',(0.0000000,-40.0000000,25.0000000));
#16 = CARTESIAN_POINT('top_7',(28.2842712,-28.2842712,25.0000000));
#17 = VERTEX_POINT('bot_v0',#1);
#18 = VERTEX_POINT('bot_v1',#2);
#19 = VERTEX_POINT('bot_v2',#3);
#20 = VERTEX_POINT('bot_v3',#4);
#21 = VERTEX_POINT('bot_v4',#5);
#22 = VERTEX_POINT('bot_v5',#6);
#23 = VERTEX_POINT('bot_v6',#7);
#24 = VERTEX_POINT('bot_v7',#8);
#25 = VERTEX_POINT('top_v0',#9);
#26 = VERTEX_POINT('top_v1',#10);
#27 = VERTEX_POINT('top_v2',#11);
#28 = VERTEX_POINT('top_v3',#12);
#29 = VERTEX_POINT('top_v4',#13);
#30 = VERTEX_POINT('top_v5',#14);
#31 = VERTEX_POINT('top_v6',#15);
#32 = VERTEX_POINT('top_v7',#16);
#33 = DIRECTION('bot_e0_dir',(-0.3826834,0.9238795,0.0000000));
#34 = VECTOR('bot_e0_vec',#33,30.6146746);
#35 = CARTESIAN_POINT('bot_e0_origin',(40.0000000,0.0000000,0.0000000));
#36 = LINE('bot_e0_line',#35,#34);
#37 = EDGE_CURVE('bot_e0',#17,#18,#36,.T.);
#38 = DIRECTION('top_e0_dir',(-0.3826834,0.9238795,0.0000000));
#39 = VECTOR('top_e0_vec',#38,30.6146746);
#40 = CARTESIAN_POINT('top_e0_origin',(40.0000000,0.0000000,25.0000000));
#41 = LINE('top_e0_line',#40,#39);
#42 = EDGE_CURVE('top_e0',#25,#26,#41,.T.);
#43 = DIRECTION('vert_e0_dir',(0.0000000,0.0000000,1.0000000));
#44 = VECTOR('vert_e0_vec',#43,25.0000000);
#45 = CARTESIAN_POINT('vert_e0_origin',(40.0000000,0.0000000,0.0000000));
#46 = LINE('vert_e0_line',#45,#44);
#47 = EDGE_CURVE('vert_e0',#17,#25,#46,.T.);
#48 = DIRECTION('bot_e1_dir',(-0.9238795,0.3826834,0.0000000));
#49 = VECTOR('bot_e1_vec',#48,30.6146746);
#50 = CARTESIAN_POINT('bot_e1_origin',(28.2842712,28.2842712,0.0000000));
#51 = LINE('bot_e1_line',#50,#49);
#52 = EDGE_CURVE('bot_e1',#18,#19,#51,.T.);
#53 = DIRECTION('top_e1_dir',(-0.9238795,0.3826834,0.0000000));
#54 = VECTOR('top_e1_vec',#53,30.6146746);
#55 = CARTESIAN_POINT('top_e1_origin',(28.2842712,28.2842712,25.0000000));
#56 = LINE('top_e1_line',#55,#54);
#57 = EDGE_CURVE('top_e1',#26,#27,#56,.T.);
#58 = DIRECTION('vert_e1_dir',(0.0000000,0.0000000,1.0000000));
#59 = VECTOR('vert_e1_vec',#58,25.0000000);
#60 = CARTESIAN_POINT('vert_e1_origin',(28.2842712,28.2842712,0.0000000));
#61 = LINE('vert_e1_line',#60,#59);
#62 = EDGE_CURVE('vert_e1',#18,#26,#61,.T.);
#63 = DIRECTION('bot_e2_dir',(-0.9238795,-0.3826834,0.0000000));
#64 = VECTOR('bot_e2_vec',#63,30.6146746);
#65 = CARTESIAN_POINT('bot_e2_origin',(0.0000000,40.0000000,0.0000000));
#66 = LINE('bot_e2_line',#65,#64);
#67 = EDGE_CURVE('bot_e2',#19,#20,#66,.T.);
#68 = DIRECTION('top_e2_dir',(-0.9238795,-0.3826834,0.0000000));
#69 = VECTOR('top_e2_vec',#68,30.6146746);
#70 = CARTESIAN_POINT('top_e2_origin',(0.0000000,40.0000000,25.0000000));
#71 = LINE('top_e2_line',#70,#69);
#72 = EDGE_CURVE('top_e2',#27,#28,#71,.T.);
#73 = DIRECTION('vert_e2_dir',(0.0000000,0.0000000,1.0000000));
#74 = VECTOR('vert_e2_vec',#73,25.0000000);
#75 = CARTESIAN_POINT('vert_e2_origin',(0.0000000,40.0000000,0.0000000));
#76 = LINE('vert_e2_line',#75,#74);
#77 = EDGE_CURVE('vert_e2',#19,#27,#76,.T.);
#78 = DIRECTION('bot_e3_dir',(-0.3826834,-0.9238795,0.0000000));
#79 = VECTOR('bot_e3_vec',#78,30.6146746);
#80 = CARTESIAN_POINT('bot_e3_origin',(-28.2842712,28.2842712,0.0000000));
#81 = LINE('bot_e3_line',#80,#79);
#82 = EDGE_CURVE('bot_e3',#20,#21,#81,.T.);
#83 = DIRECTION('top_e3_dir',(-0.3826834,-0.9238795,0.0000000));
#84 = VECTOR('top_e3_vec',#83,30.6146746);
#85 = CARTESIAN_POINT('top_e3_origin',(-28.2842712,28.2842712,25.0000000));
#86 = LINE('top_e3_line',#85,#84);
#87 = EDGE_CURVE('top_e3',#28,#29,#86,.T.);
#88 = DIRECTION('vert_e3_dir',(0.0000000,0.0000000,1.0000000));
#89 = VECTOR('vert_e3_vec',#88,25.0000000);
#90 = CARTESIAN_POINT('vert_e3_origin',(-28.2842712,28.2842712,0.0000000));
#91 = LINE('vert_e3_line',#90,#89);
#92 = EDGE_CURVE('vert_e3',#20,#28,#91,.T.);
#93 = DIRECTION('bot_e4_dir',(0.3826834,-0.9238795,0.0000000));
#94 = VECTOR('bot_e4_vec',#93,30.6146746);
#95 = CARTESIAN_POINT('bot_e4_origin',(-40.0000000,0.0000000,0.0000000));
#96 = LINE('bot_e4_line',#95,#94);
#97 = EDGE_CURVE('bot_e4',#21,#22,#96,.T.);
#98 = DIRECTION('top_e4_dir',(0.3826834,-0.9238795,0.0000000));
#99 = VECTOR('top_e4_vec',#98,30.6146746);
#100 = CARTESIAN_POINT('top_e4_origin',(-40.0000000,0.0000000,25.0000000));
#101 = LINE('top_e4_line',#100,#99);
#102 = EDGE_CURVE('top_e4',#29,#30,#101,.T.);
#103 = DIRECTION('vert_e4_dir',(0.0000000,0.0000000,1.0000000));
#104 = VECTOR('vert_e4_vec',#103,25.0000000);
#105 = CARTESIAN_POINT('vert_e4_origin',(-40.0000000,0.0000000,0.0000000));
#106 = LINE('vert_e4_line',#105,#104);
#107 = EDGE_CURVE('vert_e4',#21,#29,#106,.T.);
#108 = DIRECTION('bot_e5_dir',(0.9238795,-0.3826834,0.0000000));
#109 = VECTOR('bot_e5_vec',#108,30.6146746);
#110 = CARTESIAN_POINT('bot_e5_origin',(-28.2842712,-28.2842712,0.0000000));
#111 = LINE('bot_e5_line',#110,#109);
#112 = EDGE_CURVE('bot_e5',#22,#23,#111,.T.);
#113 = DIRECTION('top_e5_dir',(0.9238795,-0.3826834,0.0000000));
#114 = VECTOR('top_e5_vec',#113,30.6146746);
#115 = CARTESIAN_POINT('top_e5_origin',(-28.2842712,-28.2842712,25.0000000));
#116 = LINE('top_e5_line',#115,#114);
#117 = EDGE_CURVE('top_e5',#30,#31,#116,.T.);
#118 = DIRECTION('vert_e5_dir',(0.0000000,0.0000000,1.0000000));
#119 = VECTOR('vert_e5_vec',#118,25.0000000);
#120 = CARTESIAN_POINT('vert_e5_origin',(-28.2842712,-28.2842712,0.0000000));
#121 = LINE('vert_e5_line',#120,#119);
#122 = EDGE_CURVE('vert_e5',#22,#30,#121,.T.);
#123 = DIRECTION('bot_e6_dir',(0.9238795,0.3826834,0.0000000));
#124 = VECTOR('bot_e6_vec',#123,30.6146746);
#125 = CARTESIAN_POINT('bot_e6_origin',(0.0000000,-40.0000000,0.0000000));
#126 = LINE('bot_e6_line',#125,#124);
#127 = EDGE_CURVE('bot_e6',#23,#24,#126,.T.);
#128 = DIRECTION('top_e6_dir',(0.9238795,0.3826834,0.0000000));
#129 = VECTOR('top_e6_vec',#128,30.6146746);
#130 = CARTESIAN_POINT('top_e6_origin',(0.0000000,-40.0000000,25.0000000));
#131 = LINE('top_e6_line',#130,#129);
#132 = EDGE_CURVE('top_e6',#31,#32,#131,.T.);
#133 = DIRECTION('vert_e6_dir',(0.0000000,0.0000000,1.0000000));
#134 = VECTOR('vert_e6_vec',#133,25.0000000);
#135 = CARTESIAN_POINT('vert_e6_origin',(0.0000000,-40.0000000,0.0000000));
#136 = LINE('vert_e6_line',#135,#134);
#137 = EDGE_CURVE('vert_e6',#23,#31,#136,.T.);
#138 = DIRECTION('bot_e7_dir',(0.3826834,0.9238795,0.0000000));
#139 = VECTOR('bot_e7_vec',#138,30.6146746);
#140 = CARTESIAN_POINT('bot_e7_origin',(28.2842712,-28.2842712,0.0000000));
#141 = LINE('bot_e7_line',#140,#139);
#142 = EDGE_CURVE('bot_e7',#24,#17,#141,.T.);
#143 = DIRECTION('top_e7_dir',(0.3826834,0.9238795,0.0000000));
#144 = VECTOR('top_e7_vec',#143,30.6146746);
#145 = CARTESIAN_POINT('top_e7_origin',(28.2842712,-28.2842712,25.0000000));
#146 = LINE('top_e7_line',#145,#144);
#147 = EDGE_CURVE('top_e7',#32,#25,#146,.T.);
#148 = DIRECTION('vert_e7_dir',(0.0000000,0.0000000,1.0000000));
#149 = VECTOR('vert_e7_vec',#148,25.0000000);
#150 = CARTESIAN_POINT('vert_e7_origin',(28.2842712,-28.2842712,0.0000000));
#151 = LINE('vert_e7_line',#150,#149);
#152 = EDGE_CURVE('vert_e7',#24,#32,#151,.T.);
#153 = ORIENTED_EDGE('',*,*,#142,.F.);
#154 = ORIENTED_EDGE('',*,*,#127,.F.);
#155 = ORIENTED_EDGE('',*,*,#112,.F.);
#156 = ORIENTED_EDGE('',*,*,#97,.F.);
#157 = ORIENTED_EDGE('',*,*,#82,.F.);
#158 = ORIENTED_EDGE('',*,*,#67,.F.);
#159 = ORIENTED_EDGE('',*,*,#52,.F.);
#160 = ORIENTED_EDGE('',*,*,#37,.F.);
#161 = EDGE_LOOP('bottom_loop',(#153,#154,#155,#156,#157,#158,#159,#160));
#162 = FACE_OUTER_BOUND('',#161,.T.);
#163 = CARTESIAN_POINT('bottom_plane_loc',(0.0000000,0.0000000,0.0000000));
#164 = DIRECTION('bottom_plane_axis',(0.0000000,0.0000000,-1.0000000));
#165 = DIRECTION('bottom_plane_ref',(1.0000000,0.0000000,0.0000000));
#166 = AXIS2_PLACEMENT_3D('bottom_plane_place',#163,#164,#165);
#167 = PLANE('bottom_plane',#166);
#168 = ADVANCED_FACE('bottom_face',(#162),#167,.T.);
#169 = ORIENTED_EDGE('',*,*,#42,.T.);
#170 = ORIENTED_EDGE('',*,*,#57,.T.);
#171 = ORIENTED_EDGE('',*,*,#72,.T.);
#172 = ORIENTED_EDGE('',*,*,#87,.T.);
#173 = ORIENTED_EDGE('',*,*,#102,.T.);
#174 = ORIENTED_EDGE('',*,*,#117,.T.);
#175 = ORIENTED_EDGE('',*,*,#132,.T.);
#176 = ORIENTED_EDGE('',*,*,#147,.T.);
#177 = EDGE_LOOP('top_loop',(#169,#170,#171,#172,#173,#174,#175,#176));
#178 = FACE_OUTER_BOUND('',#177,.T.);
#179 = CARTESIAN_POINT('top_plane_loc',(0.0000000,0.0000000,25.0000000));
#180 = DIRECTION('top_plane_axis',(0.0000000,0.0000000,1.0000000));
#181 = DIRECTION('top_plane_ref',(1.0000000,0.0000000,0.0000000));
#182 = AXIS2_PLACEMENT_3D('top_plane_place',#179,#180,#181);
#183 = PLANE('top_plane',#182);
#184 = ADVANCED_FACE('top_face',(#178),#183,.T.);
#185 = ORIENTED_EDGE('',*,*,#37,.T.);
#186 = ORIENTED_EDGE('',*,*,#62,.T.);
#187 = ORIENTED_EDGE('',*,*,#42,.F.);
#188 = ORIENTED_EDGE('',*,*,#47,.F.);
#189 = EDGE_LOOP('side_loop_0',(#185,#186,#187,#188));
#190 = FACE_OUTER_BOUND('',#189,.T.);
#191 = CARTESIAN_POINT('side_plane_0_loc',(34.1421356,14.1421356,0.0000000));
#192 = DIRECTION('side_plane_0_axis',(0.9238795,0.3826834,0.0000000));
#193 = DIRECTION('side_plane_0_ref',(-0.3826834,0.9238795,0.0000000));
#194 = AXIS2_PLACEMENT_3D('side_plane_0_place',#191,#192,#193);
#195 = PLANE('side_plane_0',#194);
#196 = ADVANCED_FACE('side_face_0',(#190),#195,.T.);
#197 = ORIENTED_EDGE('',*,*,#52,.T.);
#198 = ORIENTED_EDGE('',*,*,#77,.T.);
#199 = ORIENTED_EDGE('',*,*,#57,.F.);
#200 = ORIENTED_EDGE('',*,*,#62,.F.);
#201 = EDGE_LOOP('side_loop_1',(#197,#198,#199,#200));
#202 = FACE_OUTER_BOUND('',#201,.T.);
#203 = CARTESIAN_POINT('side_plane_1_loc',(14.1421356,34.1421356,0.0000000));
#204 = DIRECTION('side_plane_1_axis',(0.3826834,0.9238795,0.0000000));
#205 = DIRECTION('side_plane_1_ref',(-0.9238795,0.3826834,0.0000000));
#206 = AXIS2_PLACEMENT_3D('side_plane_1_place',#203,#204,#205);
#207 = PLANE('side_plane_1',#206);
#208 = ADVANCED_FACE('side_face_1',(#202),#207,.T.);
#209 = ORIENTED_EDGE('',*,*,#67,.T.);
#210 = ORIENTED_EDGE('',*,*,#92,.T.);
#211 = ORIENTED_EDGE('',*,*,#72,.F.);
#212 = ORIENTED_EDGE('',*,*,#77,.F.);
#213 = EDGE_LOOP('side_loop_2',(#209,#210,#211,#212));
#214 = FACE_OUTER_BOUND('',#213,.T.);
#215 = CARTESIAN_POINT('side_plane_2_loc',(-14.1421356,34.1421356,0.0000000));
#216 = DIRECTION('side_plane_2_axis',(-0.3826834,0.9238795,0.0000000));
#217 = DIRECTION('side_plane_2_ref',(-0.9238795,-0.3826834,0.0000000));
#218 = AXIS2_PLACEMENT_3D('side_plane_2_place',#215,#216,#217);
#219 = PLANE('side_plane_2',#218);
#220 = ADVANCED_FACE('side_face_2',(#214),#219,.T.);
#221 = ORIENTED_EDGE('',*,*,#82,.T.);
#222 = ORIENTED_EDGE('',*,*,#107,.T.);
#223 = ORIENTED_EDGE('',*,*,#87,.F.);
#224 = ORIENTED_EDGE('',*,*,#92,.F.);
#225 = EDGE_LOOP('side_loop_3',(#221,#222,#223,#224));
#226 = FACE_OUTER_BOUND('',#225,.T.);
#227 = CARTESIAN_POINT('side_plane_3_loc',(-34.1421356,14.1421356,0.0000000));
#228 = DIRECTION('side_plane_3_axis',(-0.9238795,0.3826834,0.0000000));
#229 = DIRECTION('side_plane_3_ref',(-0.3826834,-0.9238795,0.0000000));
#230 = AXIS2_PLACEMENT_3D('side_plane_3_place',#227,#228,#229);
#231 = PLANE('side_plane_3',#230);
#232 = ADVANCED_FACE('side_face_3',(#226),#231,.T.);
#233 = ORIENTED_EDGE('',*,*,#97,.T.);
#234 = ORIENTED_EDGE('',*,*,#122,.T.);
#235 = ORIENTED_EDGE('',*,*,#102,.F.);
#236 = ORIENTED_EDGE('',*,*,#107,.F.);
#237 = EDGE_LOOP('side_loop_4',(#233,#234,#235,#236));
#238 = FACE_OUTER_BOUND('',#237,.T.);
#239 = CARTESIAN_POINT('side_plane_4_loc',(-34.1421356,-14.1421356,0.0000000));
#240 = DIRECTION('side_plane_4_axis',(-0.9238795,-0.3826834,0.0000000));
#241 = DIRECTION('side_plane_4_ref',(0.3826834,-0.9238795,0.0000000));
#242 = AXIS2_PLACEMENT_3D('side_plane_4_place',#239,#240,#241);
#243 = PLANE('side_plane_4',#242);
#244 = ADVANCED_FACE('side_face_4',(#238),#243,.T.);
#245 = ORIENTED_EDGE('',*,*,#112,.T.);
#246 = ORIENTED_EDGE('',*,*,#137,.T.);
#247 = ORIENTED_EDGE('',*,*,#117,.F.);
#248 = ORIENTED_EDGE('',*,*,#122,.F.);
#249 = EDGE_LOOP('side_loop_5',(#245,#246,#247,#248));
#250 = FACE_OUTER_BOUND('',#249,.T.);
#251 = CARTESIAN_POINT('side_plane_5_loc',(-14.1421356,-34.1421356,0.0000000));
#252 = DIRECTION('side_plane_5_axis',(-0.3826834,-0.9238795,0.0000000));
#253 = DIRECTION('side_plane_5_ref',(0.9238795,-0.3826834,0.0000000));
#254 = AXIS2_PLACEMENT_3D('side_plane_5_place',#251,#252,#253);
#255 = PLANE('side_plane_5',#254);
#256 = ADVANCED_FACE('side_face_5',(#250),#255,.T.);
#257 = ORIENTED_EDGE('',*,*,#127,.T.);
#258 = ORIENTED_EDGE('',*,*,#152,.T.);
#259 = ORIENTED_EDGE('',*,*,#132,.F.);
#260 = ORIENTED_EDGE('',*,*,#137,.F.);
#261 = EDGE_LOOP('side_loop_6',(#257,#258,#259,#260));
#262 = FACE_OUTER_BOUND('',#261,.T.);
#263 = CARTESIAN_POINT('side_plane_6_loc',(14.1421356,-34.1421356,0.0000000));
#264 = DIRECTION('side_plane_6_axis',(0.3826834,-0.9238795,0.0000000));
#265 = DIRECTION('side_plane_6_ref',(0.9238795,0.3826834,0.0000000));
#266 = AXIS2_PLACEMENT_3D('side_plane_6_place',#263,#264,#265);
#267 = PLANE('side_plane_6',#266);
#268 = ADVANCED_FACE('side_face_6',(#262),#267,.T.);
#269 = ORIENTED_EDGE('',*,*,#142,.T.);
#270 = ORIENTED_EDGE('',*,*,#47,.T.);
#271 = ORIENTED_EDGE('',*,*,#147,.F.);
#272 = ORIENTED_EDGE('',*,*,#152,.F.);
#273 = EDGE_LOOP('side_loop_7',(#269,#270,#271,#272));
#274 = FACE_OUTER_BOUND('',#273,.T.);
#275 = CARTESIAN_POINT('side_plane_7_loc',(34.1421356,-14.1421356,0.0000000));
#276 = DIRECTION('side_plane_7_axis',(0.9238795,-0.3826834,0.0000000));
#277 = DIRECTION('side_plane_7_ref',(0.3826834,0.9238795,0.0000000));
#278 = AXIS2_PLACEMENT_3D('side_plane_7_place',#275,#276,#277);
#279 = PLANE('side_plane_7',#278);
#280 = ADVANCED_FACE('side_face_7',(#274),#279,.T.);
#281 = CLOSED_SHELL('gear_catia_shell',(#168,#184,#196,#208,#220,#232,#244,#256,#268,#280));
#282 = MANIFOLD_SOLID_BREP('gear_catia_solid',#281);
#283 = CARTESIAN_POINT('world_origin',(0.0000000,0.0000000,0.0000000));
#284 = DIRECTION('world_z',(0.0000000,0.0000000,1.0000000));
#285 = DIRECTION('world_x',(1.0000000,0.0000000,0.0000000));
#286 = AXIS2_PLACEMENT_3D('world_place',#283,#284,#285);
#287 = ( LENGTH_UNIT() NAMED_UNIT(*) SI_UNIT(.MILLI.,.METRE.) );
#288 = ( NAMED_UNIT(*) PLANE_ANGLE_UNIT() SI_UNIT($,.RADIAN.) );
#289 = ( NAMED_UNIT(*) SI_UNIT($,.STERADIAN.) SOLID_ANGLE_UNIT() );
#290 = UNCERTAINTY_MEASURE_WITH_UNIT(LENGTH_MEASURE(1.E-05),#287,'distance_accuracy_value','confusion accuracy');
#291 = ( GEOMETRIC_REPRESENTATION_CONTEXT(3) GLOBAL_UNCERTAINTY_ASSIGNED_CONTEXT((#290)) GLOBAL_UNIT_ASSIGNED_CONTEXT((#287,#288,#289)) REPRESENTATION_CONTEXT('Context #1','3D Context with UNIT and UNCERTAINTY') );
#292 = APPLICATION_CONTEXT('automotive design');
#293 = APPLICATION_PROTOCOL_DEFINITION('international standard','automotive_design',2009,#292);
#294 = PRODUCT_CONTEXT('',#292,'mechanical');
#295 = PRODUCT('gear_catia','gear_catia','gear archetype generated for catia (valid AP242 fleet regen)',(#294));
#296 = PRODUCT_RELATED_PRODUCT_CATEGORY('part',$,(#295));
#297 = PRODUCT_DEFINITION_CONTEXT('part definition',#292,'design');
#298 = PRODUCT_DEFINITION_FORMATION('','',#295);
#299 = PRODUCT_DEFINITION('design','',#298,#297);
#300 = PRODUCT_DEFINITION_SHAPE('','',#299);
#301 = ADVANCED_BREP_SHAPE_REPRESENTATION('',(#286,#282),#291);
#302 = SHAPE_DEFINITION_REPRESENTATION(#300,#301);
ENDSEC;
END-ISO-10303-21;
