ISO-10303-21;
HEADER;
FILE_DESCRIPTION(('mold-die archetype generated for siemens-nx (valid AP242 fleet regen)'),'2;1');
FILE_NAME('mold_die_siemens_nx.step','2026-05-27T16:21:22.681Z',('PRISM-slot-delta-iter117'),('PRISM'),'PRISM AP242 valid emitter','PRISM','');
FILE_SCHEMA(('AUTOMOTIVE_DESIGN { 1 0 10303 214 3 1 1 }'));
ENDSEC;
DATA;
#1 = CARTESIAN_POINT('bot_0',(0.0000000,0.0000000,0.0000000));
#2 = CARTESIAN_POINT('bot_1',(300.0000000,0.0000000,0.0000000));
#3 = CARTESIAN_POINT('bot_2',(300.0000000,200.0000000,0.0000000));
#4 = CARTESIAN_POINT('bot_3',(0.0000000,200.0000000,0.0000000));
#5 = CARTESIAN_POINT('top_0',(0.0000000,0.0000000,100.0000000));
#6 = CARTESIAN_POINT('top_1',(300.0000000,0.0000000,100.0000000));
#7 = CARTESIAN_POINT('top_2',(300.0000000,200.0000000,100.0000000));
#8 = CARTESIAN_POINT('top_3',(0.0000000,200.0000000,100.0000000));
#9 = VERTEX_POINT('bot_v0',#1);
#10 = VERTEX_POINT('bot_v1',#2);
#11 = VERTEX_POINT('bot_v2',#3);
#12 = VERTEX_POINT('bot_v3',#4);
#13 = VERTEX_POINT('top_v0',#5);
#14 = VERTEX_POINT('top_v1',#6);
#15 = VERTEX_POINT('top_v2',#7);
#16 = VERTEX_POINT('top_v3',#8);
#17 = DIRECTION('bot_e0_dir',(1.0000000,0.0000000,0.0000000));
#18 = VECTOR('bot_e0_vec',#17,300.0000000);
#19 = CARTESIAN_POINT('bot_e0_origin',(0.0000000,0.0000000,0.0000000));
#20 = LINE('bot_e0_line',#19,#18);
#21 = EDGE_CURVE('bot_e0',#9,#10,#20,.T.);
#22 = DIRECTION('top_e0_dir',(1.0000000,0.0000000,0.0000000));
#23 = VECTOR('top_e0_vec',#22,300.0000000);
#24 = CARTESIAN_POINT('top_e0_origin',(0.0000000,0.0000000,100.0000000));
#25 = LINE('top_e0_line',#24,#23);
#26 = EDGE_CURVE('top_e0',#13,#14,#25,.T.);
#27 = DIRECTION('vert_e0_dir',(0.0000000,0.0000000,1.0000000));
#28 = VECTOR('vert_e0_vec',#27,100.0000000);
#29 = CARTESIAN_POINT('vert_e0_origin',(0.0000000,0.0000000,0.0000000));
#30 = LINE('vert_e0_line',#29,#28);
#31 = EDGE_CURVE('vert_e0',#9,#13,#30,.T.);
#32 = DIRECTION('bot_e1_dir',(0.0000000,1.0000000,0.0000000));
#33 = VECTOR('bot_e1_vec',#32,200.0000000);
#34 = CARTESIAN_POINT('bot_e1_origin',(300.0000000,0.0000000,0.0000000));
#35 = LINE('bot_e1_line',#34,#33);
#36 = EDGE_CURVE('bot_e1',#10,#11,#35,.T.);
#37 = DIRECTION('top_e1_dir',(0.0000000,1.0000000,0.0000000));
#38 = VECTOR('top_e1_vec',#37,200.0000000);
#39 = CARTESIAN_POINT('top_e1_origin',(300.0000000,0.0000000,100.0000000));
#40 = LINE('top_e1_line',#39,#38);
#41 = EDGE_CURVE('top_e1',#14,#15,#40,.T.);
#42 = DIRECTION('vert_e1_dir',(0.0000000,0.0000000,1.0000000));
#43 = VECTOR('vert_e1_vec',#42,100.0000000);
#44 = CARTESIAN_POINT('vert_e1_origin',(300.0000000,0.0000000,0.0000000));
#45 = LINE('vert_e1_line',#44,#43);
#46 = EDGE_CURVE('vert_e1',#10,#14,#45,.T.);
#47 = DIRECTION('bot_e2_dir',(-1.0000000,0.0000000,0.0000000));
#48 = VECTOR('bot_e2_vec',#47,300.0000000);
#49 = CARTESIAN_POINT('bot_e2_origin',(300.0000000,200.0000000,0.0000000));
#50 = LINE('bot_e2_line',#49,#48);
#51 = EDGE_CURVE('bot_e2',#11,#12,#50,.T.);
#52 = DIRECTION('top_e2_dir',(-1.0000000,0.0000000,0.0000000));
#53 = VECTOR('top_e2_vec',#52,300.0000000);
#54 = CARTESIAN_POINT('top_e2_origin',(300.0000000,200.0000000,100.0000000));
#55 = LINE('top_e2_line',#54,#53);
#56 = EDGE_CURVE('top_e2',#15,#16,#55,.T.);
#57 = DIRECTION('vert_e2_dir',(0.0000000,0.0000000,1.0000000));
#58 = VECTOR('vert_e2_vec',#57,100.0000000);
#59 = CARTESIAN_POINT('vert_e2_origin',(300.0000000,200.0000000,0.0000000));
#60 = LINE('vert_e2_line',#59,#58);
#61 = EDGE_CURVE('vert_e2',#11,#15,#60,.T.);
#62 = DIRECTION('bot_e3_dir',(0.0000000,-1.0000000,0.0000000));
#63 = VECTOR('bot_e3_vec',#62,200.0000000);
#64 = CARTESIAN_POINT('bot_e3_origin',(0.0000000,200.0000000,0.0000000));
#65 = LINE('bot_e3_line',#64,#63);
#66 = EDGE_CURVE('bot_e3',#12,#9,#65,.T.);
#67 = DIRECTION('top_e3_dir',(0.0000000,-1.0000000,0.0000000));
#68 = VECTOR('top_e3_vec',#67,200.0000000);
#69 = CARTESIAN_POINT('top_e3_origin',(0.0000000,200.0000000,100.0000000));
#70 = LINE('top_e3_line',#69,#68);
#71 = EDGE_CURVE('top_e3',#16,#13,#70,.T.);
#72 = DIRECTION('vert_e3_dir',(0.0000000,0.0000000,1.0000000));
#73 = VECTOR('vert_e3_vec',#72,100.0000000);
#74 = CARTESIAN_POINT('vert_e3_origin',(0.0000000,200.0000000,0.0000000));
#75 = LINE('vert_e3_line',#74,#73);
#76 = EDGE_CURVE('vert_e3',#12,#16,#75,.T.);
#77 = ORIENTED_EDGE('',*,*,#66,.F.);
#78 = ORIENTED_EDGE('',*,*,#51,.F.);
#79 = ORIENTED_EDGE('',*,*,#36,.F.);
#80 = ORIENTED_EDGE('',*,*,#21,.F.);
#81 = EDGE_LOOP('bottom_loop',(#77,#78,#79,#80));
#82 = FACE_OUTER_BOUND('',#81,.T.);
#83 = CARTESIAN_POINT('bottom_plane_loc',(0.0000000,0.0000000,0.0000000));
#84 = DIRECTION('bottom_plane_axis',(0.0000000,0.0000000,-1.0000000));
#85 = DIRECTION('bottom_plane_ref',(1.0000000,0.0000000,0.0000000));
#86 = AXIS2_PLACEMENT_3D('bottom_plane_place',#83,#84,#85);
#87 = PLANE('bottom_plane',#86);
#88 = ADVANCED_FACE('bottom_face',(#82),#87,.T.);
#89 = ORIENTED_EDGE('',*,*,#26,.T.);
#90 = ORIENTED_EDGE('',*,*,#41,.T.);
#91 = ORIENTED_EDGE('',*,*,#56,.T.);
#92 = ORIENTED_EDGE('',*,*,#71,.T.);
#93 = EDGE_LOOP('top_loop',(#89,#90,#91,#92));
#94 = FACE_OUTER_BOUND('',#93,.T.);
#95 = CARTESIAN_POINT('top_plane_loc',(0.0000000,0.0000000,100.0000000));
#96 = DIRECTION('top_plane_axis',(0.0000000,0.0000000,1.0000000));
#97 = DIRECTION('top_plane_ref',(1.0000000,0.0000000,0.0000000));
#98 = AXIS2_PLACEMENT_3D('top_plane_place',#95,#96,#97);
#99 = PLANE('top_plane',#98);
#100 = ADVANCED_FACE('top_face',(#94),#99,.T.);
#101 = ORIENTED_EDGE('',*,*,#21,.T.);
#102 = ORIENTED_EDGE('',*,*,#46,.T.);
#103 = ORIENTED_EDGE('',*,*,#26,.F.);
#104 = ORIENTED_EDGE('',*,*,#31,.F.);
#105 = EDGE_LOOP('side_loop_0',(#101,#102,#103,#104));
#106 = FACE_OUTER_BOUND('',#105,.T.);
#107 = CARTESIAN_POINT('side_plane_0_loc',(150.0000000,0.0000000,0.0000000));
#108 = DIRECTION('side_plane_0_axis',(0.0000000,-1.0000000,0.0000000));
#109 = DIRECTION('side_plane_0_ref',(1.0000000,0.0000000,0.0000000));
#110 = AXIS2_PLACEMENT_3D('side_plane_0_place',#107,#108,#109);
#111 = PLANE('side_plane_0',#110);
#112 = ADVANCED_FACE('side_face_0',(#106),#111,.T.);
#113 = ORIENTED_EDGE('',*,*,#36,.T.);
#114 = ORIENTED_EDGE('',*,*,#61,.T.);
#115 = ORIENTED_EDGE('',*,*,#41,.F.);
#116 = ORIENTED_EDGE('',*,*,#46,.F.);
#117 = EDGE_LOOP('side_loop_1',(#113,#114,#115,#116));
#118 = FACE_OUTER_BOUND('',#117,.T.);
#119 = CARTESIAN_POINT('side_plane_1_loc',(300.0000000,100.0000000,0.0000000));
#120 = DIRECTION('side_plane_1_axis',(1.0000000,0.0000000,0.0000000));
#121 = DIRECTION('side_plane_1_ref',(0.0000000,1.0000000,0.0000000));
#122 = AXIS2_PLACEMENT_3D('side_plane_1_place',#119,#120,#121);
#123 = PLANE('side_plane_1',#122);
#124 = ADVANCED_FACE('side_face_1',(#118),#123,.T.);
#125 = ORIENTED_EDGE('',*,*,#51,.T.);
#126 = ORIENTED_EDGE('',*,*,#76,.T.);
#127 = ORIENTED_EDGE('',*,*,#56,.F.);
#128 = ORIENTED_EDGE('',*,*,#61,.F.);
#129 = EDGE_LOOP('side_loop_2',(#125,#126,#127,#128));
#130 = FACE_OUTER_BOUND('',#129,.T.);
#131 = CARTESIAN_POINT('side_plane_2_loc',(150.0000000,200.0000000,0.0000000));
#132 = DIRECTION('side_plane_2_axis',(0.0000000,1.0000000,0.0000000));
#133 = DIRECTION('side_plane_2_ref',(-1.0000000,0.0000000,0.0000000));
#134 = AXIS2_PLACEMENT_3D('side_plane_2_place',#131,#132,#133);
#135 = PLANE('side_plane_2',#134);
#136 = ADVANCED_FACE('side_face_2',(#130),#135,.T.);
#137 = ORIENTED_EDGE('',*,*,#66,.T.);
#138 = ORIENTED_EDGE('',*,*,#31,.T.);
#139 = ORIENTED_EDGE('',*,*,#71,.F.);
#140 = ORIENTED_EDGE('',*,*,#76,.F.);
#141 = EDGE_LOOP('side_loop_3',(#137,#138,#139,#140));
#142 = FACE_OUTER_BOUND('',#141,.T.);
#143 = CARTESIAN_POINT('side_plane_3_loc',(0.0000000,100.0000000,0.0000000));
#144 = DIRECTION('side_plane_3_axis',(-1.0000000,0.0000000,0.0000000));
#145 = DIRECTION('side_plane_3_ref',(0.0000000,-1.0000000,0.0000000));
#146 = AXIS2_PLACEMENT_3D('side_plane_3_place',#143,#144,#145);
#147 = PLANE('side_plane_3',#146);
#148 = ADVANCED_FACE('side_face_3',(#142),#147,.T.);
#149 = CLOSED_SHELL('mold_die_siemens_nx_shell',(#88,#100,#112,#124,#136,#148));
#150 = MANIFOLD_SOLID_BREP('mold_die_siemens_nx_solid',#149);
#151 = CARTESIAN_POINT('world_origin',(0.0000000,0.0000000,0.0000000));
#152 = DIRECTION('world_z',(0.0000000,0.0000000,1.0000000));
#153 = DIRECTION('world_x',(1.0000000,0.0000000,0.0000000));
#154 = AXIS2_PLACEMENT_3D('world_place',#151,#152,#153);
#155 = ( LENGTH_UNIT() NAMED_UNIT(*) SI_UNIT(.MILLI.,.METRE.) );
#156 = ( NAMED_UNIT(*) PLANE_ANGLE_UNIT() SI_UNIT($,.RADIAN.) );
#157 = ( NAMED_UNIT(*) SI_UNIT($,.STERADIAN.) SOLID_ANGLE_UNIT() );
#158 = UNCERTAINTY_MEASURE_WITH_UNIT(LENGTH_MEASURE(1.E-05),#155,'distance_accuracy_value','confusion accuracy');
#159 = ( GEOMETRIC_REPRESENTATION_CONTEXT(3) GLOBAL_UNCERTAINTY_ASSIGNED_CONTEXT((#158)) GLOBAL_UNIT_ASSIGNED_CONTEXT((#155,#156,#157)) REPRESENTATION_CONTEXT('Context #1','3D Context with UNIT and UNCERTAINTY') );
#160 = APPLICATION_CONTEXT('automotive design');
#161 = APPLICATION_PROTOCOL_DEFINITION('international standard','automotive_design',2009,#160);
#162 = PRODUCT_CONTEXT('',#160,'mechanical');
#163 = PRODUCT('mold_die_siemens_nx','mold_die_siemens_nx','mold-die archetype generated for siemens-nx (valid AP242 fleet regen)',(#162));
#164 = PRODUCT_RELATED_PRODUCT_CATEGORY('part',$,(#163));
#165 = PRODUCT_DEFINITION_CONTEXT('part definition',#160,'design');
#166 = PRODUCT_DEFINITION_FORMATION('','',#163);
#167 = PRODUCT_DEFINITION('design','',#166,#165);
#168 = PRODUCT_DEFINITION_SHAPE('','',#167);
#169 = ADVANCED_BREP_SHAPE_REPRESENTATION('',(#154,#150),#159);
#170 = SHAPE_DEFINITION_REPRESENTATION(#168,#169);
ENDSEC;
END-ISO-10303-21;
