ISO-10303-21;
HEADER;
/* Generated by software containing ST-Developer
 * from STEP Tools, Inc. (www.steptools.com) 
 */

FILE_DESCRIPTION(
/* description */ (''),
/* implementation_level */ '2;1');

FILE_NAME(
/* name */ 'nurbs-proof.step',
/* time_stamp */ '2026-06-10T11:03:42-05:00',
/* author */ (''),
/* organization */ (''),
/* preprocessor_version */ 'ST-DEVELOPER v20.1',
/* originating_system */ 'Autodesk Translation Framework v15.8.0.0',
/* authorisation */ '');

FILE_SCHEMA (('AUTOMOTIVE_DESIGN { 1 0 10303 214 3 1 1 }'));
ENDSEC;

DATA;
#10=MECHANICAL_DESIGN_GEOMETRIC_PRESENTATION_REPRESENTATION('',(#13),#844);
#11=SHAPE_REPRESENTATION_RELATIONSHIP('SRR','None',#854,#12);
#12=ADVANCED_BREP_SHAPE_REPRESENTATION('',(#14),#843);
#13=STYLED_ITEM('',(#863),#14);
#14=MANIFOLD_SOLID_BREP('Body2',#42);
#15=LINE('',#840,#16);
#16=VECTOR('',#64,1.2044928355478);
#17=B_SPLINE_SURFACE_WITH_KNOTS('',3,3,((#560,#561,#562,#563),(#564,#565,
#566,#567),(#568,#569,#570,#571),(#572,#573,#574,#575),(#576,#577,#578,
#579),(#580,#581,#582,#583),(#584,#585,#586,#587),(#588,#589,#590,#591),
(#592,#593,#594,#595),(#596,#597,#598,#599),(#600,#601,#602,#603),(#604,
#605,#606,#607),(#608,#609,#610,#611),(#612,#613,#614,#615),(#616,#617,
#618,#619),(#620,#621,#622,#623),(#624,#625,#626,#627),(#628,#629,#630,
#631),(#632,#633,#634,#635),(#636,#637,#638,#639),(#640,#641,#642,#643),
(#644,#645,#646,#647),(#648,#649,#650,#651),(#652,#653,#654,#655),(#656,
#657,#658,#659),(#660,#661,#662,#663),(#664,#665,#666,#667),(#668,#669,
#670,#671),(#672,#673,#674,#675),(#676,#677,#678,#679),(#680,#681,#682,
#683),(#684,#685,#686,#687),(#688,#689,#690,#691),(#692,#693,#694,#695),
(#696,#697,#698,#699),(#700,#701,#702,#703),(#704,#705,#706,#707),(#708,
#709,#710,#711),(#712,#713,#714,#715),(#716,#717,#718,#719),(#720,#721,
#722,#723),(#724,#725,#726,#727),(#728,#729,#730,#731),(#732,#733,#734,
#735),(#736,#737,#738,#739),(#740,#741,#742,#743),(#744,#745,#746,#747),
(#748,#749,#750,#751),(#752,#753,#754,#755),(#756,#757,#758,#759),(#760,
#761,#762,#763),(#764,#765,#766,#767),(#768,#769,#770,#771),(#772,#773,
#774,#775),(#776,#777,#778,#779),(#780,#781,#782,#783),(#784,#785,#786,
#787),(#788,#789,#790,#791),(#792,#793,#794,#795),(#796,#797,#798,#799),
(#800,#801,#802,#803),(#804,#805,#806,#807),(#808,#809,#810,#811),(#812,
#813,#814,#815),(#816,#817,#818,#819),(#820,#821,#822,#823),(#824,#825,
#826,#827),(#828,#829,#830,#831),(#832,#833,#834,#835),(#836,#837,#838,
#839)),.UNSPECIFIED.,.T.,.F.,.F.,(4,1,1,1,1,1,1,1,1,1,1,1,1,1,1,1,1,1,1,
1,1,1,1,1,1,1,1,1,1,1,1,1,1,1,1,1,1,1,1,1,1,1,1,1,1,1,1,1,1,1,1,1,1,1,1,
1,1,1,1,1,1,1,1,1,1,1,1,4),(4,4),(0.,0.0178571428571429,0.0357142857142857,
0.0535714285714286,0.0714285714285714,0.0803571428571428,0.0892857142857143,
0.0982142857142857,0.107142857142857,0.125,0.142857142857143,0.158730158730159,
0.174603174603175,0.19047619047619,0.202380952380952,0.214285714285714,
0.238095238095238,0.25,0.261904761904762,0.273809523809524,0.285714285714286,
0.297619047619048,0.30952380952381,0.333333333333333,0.357142857142857,
0.369047619047619,0.380952380952381,0.392857142857143,0.404761904761905,
0.416666666666667,0.428571428571429,0.452380952380952,0.464285714285714,
0.476190476190476,0.5,0.523809523809524,0.535714285714286,0.547619047619048,
0.571428571428571,0.583333333333333,0.595238095238095,0.607142857142857,
0.619047619047619,0.630952380952381,0.642857142857143,0.666666666666667,
0.69047619047619,0.702380952380952,0.714285714285714,0.723214285714286,
0.732142857142857,0.75,0.767857142857143,0.785714285714286,0.803571428571428,
0.821428571428571,0.839285714285714,0.857142857142857,0.875,0.892857142857143,
0.901785714285714,0.910714285714286,0.919642857142857,0.928571428571429,
0.946428571428571,0.964285714285714,0.982142857142857,1.),(0.,1.),
 .UNSPECIFIED.);
#18=FACE_OUTER_BOUND('',#21,.T.);
#19=FACE_OUTER_BOUND('',#22,.T.);
#20=FACE_OUTER_BOUND('',#23,.T.);
#21=EDGE_LOOP('',(#31));
#22=EDGE_LOOP('',(#32));
#23=EDGE_LOOP('',(#33,#34,#35,#36));
#24=(
BOUNDED_CURVE()
B_SPLINE_CURVE(5,(#68,#69,#70,#71,#72,#73,#74,#75,#76,#77,#78,#79,#80,#81,
#82,#83,#84,#85,#86,#87,#88,#89,#90,#91,#92,#93,#94,#95,#96,#97,#98,#99,
#100,#101,#102,#103,#104,#105,#106,#107,#108,#109,#110,#111,#112,#113,#114,
#115,#116,#117,#118,#119,#120,#121,#122,#123,#124,#125,#126,#127,#128,#129,
#130,#131,#132,#133,#134,#135,#136,#137,#138,#139,#140,#141,#142,#143,#144,
#145,#146,#147,#148,#149,#150,#151,#152,#153,#154,#155,#156,#157,#158,#159,
#160,#161,#162,#163,#164,#165,#166,#167,#168,#169,#170,#171,#172,#173,#174,
#175,#176,#177,#178,#179,#180,#181,#182,#183,#184,#185,#186,#187,#188,#189,
#190,#191,#192,#193,#194,#195,#196,#197,#198,#199,#200,#201,#202,#203,#204,
#205,#206,#207,#208,#209,#210,#211,#212,#213,#214,#215,#216,#217,#218,#219,
#220,#221,#222,#223,#224,#225,#226,#227,#228,#229,#230,#231,#232,#233,#234,
#235,#236,#237,#238,#239,#240,#241,#242,#243,#244,#245,#246,#247,#248,#249,
#250,#251,#252,#253,#254,#255,#256,#257,#258,#259,#260,#261,#262,#263,#264,
#265,#266,#267,#268,#269,#270,#271,#272,#273,#274,#275,#276,#277,#278,#279,
#280,#281,#282,#283,#284,#285,#286,#287,#288,#289,#290,#291,#292,#293,#294,
#295,#296,#297,#298,#299,#300,#301,#302,#303,#304,#305,#306,#307,#308,#309,
#310,#311,#312),.UNSPECIFIED.,.T.,.F.)
B_SPLINE_CURVE_WITH_KNOTS((6,1,1,1,1,1,1,1,1,1,1,1,1,1,1,1,1,1,1,1,1,1,
1,1,1,1,1,1,1,1,1,1,1,1,1,1,1,1,1,1,1,1,1,1,1,1,1,1,1,1,1,1,1,1,1,1,1,1,
1,1,1,1,1,1,1,1,1,1,1,1,1,1,1,1,1,1,1,1,1,1,1,1,1,1,1,1,1,1,1,1,1,1,1,1,
1,1,1,1,1,1,1,1,1,1,1,1,1,1,1,1,1,1,1,1,1,1,1,1,1,1,1,1,1,1,1,1,1,1,1,1,
1,1,1,1,1,1,1,1,1,1,1,1,1,1,1,1,1,1,1,1,1,1,1,1,1,1,1,1,1,1,1,1,1,1,1,1,
1,1,1,1,1,1,1,1,1,1,1,1,1,1,1,1,1,1,1,1,1,1,1,1,1,1,1,1,1,1,1,1,1,1,1,1,
1,1,1,1,1,1,1,1,1,1,1,1,1,1,1,1,1,1,1,1,1,1,1,1,1,1,1,1,1,1,1,1,1,1,1,1,
1,1,6),(0.,0.00416666666666667,0.00833333333333333,0.0125,0.0166666666666667,
0.0208333333333333,0.025,0.0291666666666667,0.0333333333333333,0.0375,0.0416666666666667,
0.0458333333333333,0.05,0.0541666666666667,0.0583333333333333,0.0625,0.0666666666666667,
0.0708333333333333,0.075,0.0791666666666667,0.0833333333333333,0.0875,0.0916666666666667,
0.0958333333333333,0.1,0.104166666666667,0.108333333333333,0.1125,0.116666666666667,
0.120833333333333,0.125,0.129166666666667,0.133333333333333,0.1375,0.141666666666667,
0.145833333333333,0.15,0.154166666666667,0.158333333333333,0.1625,0.166666666666667,
0.170833333333333,0.175,0.179166666666667,0.183333333333333,0.1875,0.191666666666667,
0.195833333333334,0.2,0.204166666666667,0.208333333333334,0.2125,0.216666666666667,
0.220833333333334,0.225,0.229166666666667,0.233333333333334,0.2375,0.241666666666667,
0.245833333333334,0.25,0.254166666666667,0.258333333333334,0.2625,0.266666666666667,
0.270833333333334,0.275,0.279166666666667,0.283333333333334,0.2875,0.291666666666667,
0.295833333333334,0.3,0.304166666666667,0.308333333333333,0.3125,0.316666666666667,
0.320833333333333,0.325,0.329166666666667,0.333333333333333,0.3375,0.341666666666667,
0.345833333333333,0.35,0.354166666666667,0.358333333333333,0.3625,0.366666666666667,
0.370833333333333,0.375,0.379166666666667,0.383333333333333,0.3875,0.391666666666666,
0.395833333333333,0.4,0.404166666666666,0.408333333333333,0.4125,0.416666666666666,
0.420833333333333,0.425,0.429166666666666,0.433333333333333,0.4375,0.441666666666666,
0.445833333333333,0.45,0.454166666666666,0.458333333333333,0.4625,0.466666666666666,
0.470833333333333,0.475,0.479166666666666,0.483333333333333,0.487499999999999,
0.491666666666666,0.495833333333333,0.499999999999999,0.504166666666666,
0.508333333333333,0.512499999999999,0.516666666666666,0.520833333333333,
0.524999999999999,0.529166666666666,0.533333333333333,0.537499999999999,
0.541666666666666,0.545833333333333,0.549999999999999,0.554166666666666,
0.558333333333333,0.562499999999999,0.566666666666666,0.570833333333333,
0.574999999999999,0.579166666666666,0.583333333333332,0.587499999999999,
0.591666666666666,0.595833333333332,0.599999999999999,0.604166666666666,
0.608333333333332,0.612499999999999,0.616666666666666,0.620833333333332,
0.624999999999999,0.629166666666666,0.633333333333332,0.637499999999999,
0.641666666666666,0.645833333333332,0.649999999999999,0.654166666666666,
0.658333333333332,0.662499999999999,0.666666666666666,0.670833333333332,
0.674999999999999,0.679166666666665,0.683333333333332,0.687499999999999,
0.691666666666665,0.695833333333332,0.699999999999999,0.704166666666665,
0.708333333333332,0.712499999999999,0.716666666666665,0.720833333333332,
0.724999999999999,0.729166666666665,0.733333333333332,0.737499999999999,
0.741666666666665,0.745833333333332,0.749999999999999,0.754166666666665,
0.758333333333332,0.762499999999999,0.766666666666665,0.770833333333332,
0.774999999999998,0.779166666666665,0.783333333333332,0.787499999999998,
0.791666666666665,0.795833333333332,0.799999999999998,0.804166666666665,
0.808333333333332,0.812499999999998,0.816666666666665,0.820833333333332,
0.824999999999998,0.829166666666665,0.833333333333332,0.837499999999998,
0.841666666666665,0.845833333333332,0.849999999999998,0.854166666666665,
0.858333333333332,0.862499999999998,0.866666666666665,0.870833333333331,
0.874999999999998,0.879166666666665,0.883333333333331,0.887499999999998,
0.891666666666665,0.895833333333331,0.899999999999998,0.904166666666665,
0.908333333333331,0.912499999999998,0.916666666666665,0.920833333333331,
0.924999999999998,0.929166666666665,0.933333333333331,0.937499999999998,
0.941666666666665,0.945833333333331,0.949999999999998,0.954166666666664,
0.958333333333331,0.962499999999998,0.966666666666664,0.970833333333331,
0.974999999999998,0.979166666666664,0.983333333333331,0.987499999999998,
0.991666666666664,0.995833333333331,1.),.UNSPECIFIED.)
CURVE()
GEOMETRIC_REPRESENTATION_ITEM()
RATIONAL_B_SPLINE_CURVE((1.,1.,1.,1.,1.,1.,1.,1.,1.,1.,1.,1.,1.,1.,1.,1.,
1.,1.,1.,1.,1.,1.,1.,1.,1.,1.,1.,1.,1.,1.,1.,1.,1.,1.,1.,1.,1.,1.,1.,1.,
1.,1.,1.,1.,1.,1.,1.,1.,1.,1.,1.,1.,1.,1.,1.,1.,1.,1.,1.,1.,1.,1.,1.,1.,
1.,1.,1.,1.,1.,1.,1.,1.,1.,1.,1.,1.,1.,1.,1.,1.,1.,1.,1.,1.,1.,1.,1.,1.,
1.,1.,1.,1.,1.,1.,1.,1.,1.,1.,1.,1.,1.,1.,1.,1.,1.,1.,1.,1.,1.,1.,1.,1.,
1.,1.,1.,1.,1.,1.,1.,1.,1.,1.,1.,1.,1.,1.,1.,1.,1.,1.,1.,1.,1.,1.,1.,1.,
1.,1.,1.,1.,1.,1.,1.,1.,1.,1.,1.,1.,1.,1.,1.,1.,1.,1.,1.,1.,1.,1.,1.,1.,
1.,1.,1.,1.,1.,1.,1.,1.,1.,1.,1.,1.,1.,1.,1.,1.,1.,1.,1.,1.,1.,1.,1.,1.,
1.,1.,1.,1.,1.,1.,1.,1.,1.,1.,1.,1.,1.,1.,1.,1.,1.,1.,1.,1.,1.,1.,1.,1.,
1.,1.,1.,1.,1.,1.,1.,1.,1.,1.,1.,1.,1.,1.,1.,1.,1.,1.,1.,1.,1.,1.,1.,1.,
1.,1.,1.,1.,1.,1.,1.,1.,1.,1.,1.,1.,1.))
REPRESENTATION_ITEM('')
);
#25=(
BOUNDED_CURVE()
B_SPLINE_CURVE(5,(#315,#316,#317,#318,#319,#320,#321,#322,#323,#324,#325,
#326,#327,#328,#329,#330,#331,#332,#333,#334,#335,#336,#337,#338,#339,#340,
#341,#342,#343,#344,#345,#346,#347,#348,#349,#350,#351,#352,#353,#354,#355,
#356,#357,#358,#359,#360,#361,#362,#363,#364,#365,#366,#367,#368,#369,#370,
#371,#372,#373,#374,#375,#376,#377,#378,#379,#380,#381,#382,#383,#384,#385,
#386,#387,#388,#389,#390,#391,#392,#393,#394,#395,#396,#397,#398,#399,#400,
#401,#402,#403,#404,#405,#406,#407,#408,#409,#410,#411,#412,#413,#414,#415,
#416,#417,#418,#419,#420,#421,#422,#423,#424,#425,#426,#427,#428,#429,#430,
#431,#432,#433,#434,#435,#436,#437,#438,#439,#440,#441,#442,#443,#444,#445,
#446,#447,#448,#449,#450,#451,#452,#453,#454,#455,#456,#457,#458,#459,#460,
#461,#462,#463,#464,#465,#466,#467,#468,#469,#470,#471,#472,#473,#474,#475,
#476,#477,#478,#479,#480,#481,#482,#483,#484,#485,#486,#487,#488,#489,#490,
#491,#492,#493,#494,#495,#496,#497,#498,#499,#500,#501,#502,#503,#504,#505,
#506,#507,#508,#509,#510,#511,#512,#513,#514,#515,#516,#517,#518,#519,#520,
#521,#522,#523,#524,#525,#526,#527,#528,#529,#530,#531,#532,#533,#534,#535,
#536,#537,#538,#539,#540,#541,#542,#543,#544,#545,#546,#547,#548,#549,#550,
#551,#552,#553,#554,#555,#556,#557,#558,#559),.UNSPECIFIED.,.T.,.F.)
B_SPLINE_CURVE_WITH_KNOTS((6,1,1,1,1,1,1,1,1,1,1,1,1,1,1,1,1,1,1,1,1,1,
1,1,1,1,1,1,1,1,1,1,1,1,1,1,1,1,1,1,1,1,1,1,1,1,1,1,1,1,1,1,1,1,1,1,1,1,
1,1,1,1,1,1,1,1,1,1,1,1,1,1,1,1,1,1,1,1,1,1,1,1,1,1,1,1,1,1,1,1,1,1,1,1,
1,1,1,1,1,1,1,1,1,1,1,1,1,1,1,1,1,1,1,1,1,1,1,1,1,1,1,1,1,1,1,1,1,1,1,1,
1,1,1,1,1,1,1,1,1,1,1,1,1,1,1,1,1,1,1,1,1,1,1,1,1,1,1,1,1,1,1,1,1,1,1,1,
1,1,1,1,1,1,1,1,1,1,1,1,1,1,1,1,1,1,1,1,1,1,1,1,1,1,1,1,1,1,1,1,1,1,1,1,
1,1,1,1,1,1,1,1,1,1,1,1,1,1,1,1,1,1,1,1,1,1,1,1,1,1,1,1,1,1,1,1,1,1,1,1,
1,1,6),(0.,0.00416666666666667,0.00833333333333333,0.0125,0.0166666666666667,
0.0208333333333333,0.025,0.0291666666666667,0.0333333333333333,0.0375,0.0416666666666667,
0.0458333333333333,0.05,0.0541666666666667,0.0583333333333333,0.0625,0.0666666666666667,
0.0708333333333333,0.075,0.0791666666666667,0.0833333333333333,0.0875,0.0916666666666667,
0.0958333333333333,0.1,0.104166666666667,0.108333333333333,0.1125,0.116666666666667,
0.120833333333333,0.125,0.129166666666667,0.133333333333333,0.1375,0.141666666666667,
0.145833333333333,0.15,0.154166666666667,0.158333333333333,0.1625,0.166666666666667,
0.170833333333333,0.175,0.179166666666667,0.183333333333333,0.1875,0.191666666666667,
0.195833333333334,0.2,0.204166666666667,0.208333333333334,0.2125,0.216666666666667,
0.220833333333334,0.225,0.229166666666667,0.233333333333334,0.2375,0.241666666666667,
0.245833333333334,0.25,0.254166666666667,0.258333333333334,0.2625,0.266666666666667,
0.270833333333334,0.275,0.279166666666667,0.283333333333334,0.2875,0.291666666666667,
0.295833333333334,0.3,0.304166666666667,0.308333333333333,0.3125,0.316666666666667,
0.320833333333333,0.325,0.329166666666667,0.333333333333333,0.3375,0.341666666666667,
0.345833333333333,0.35,0.354166666666667,0.358333333333333,0.3625,0.366666666666667,
0.370833333333333,0.375,0.379166666666667,0.383333333333333,0.3875,0.391666666666666,
0.395833333333333,0.4,0.404166666666666,0.408333333333333,0.4125,0.416666666666666,
0.420833333333333,0.425,0.429166666666666,0.433333333333333,0.4375,0.441666666666666,
0.445833333333333,0.45,0.454166666666666,0.458333333333333,0.4625,0.466666666666666,
0.470833333333333,0.475,0.479166666666666,0.483333333333333,0.487499999999999,
0.491666666666666,0.495833333333333,0.499999999999999,0.504166666666666,
0.508333333333333,0.512499999999999,0.516666666666666,0.520833333333333,
0.524999999999999,0.529166666666666,0.533333333333333,0.537499999999999,
0.541666666666666,0.545833333333333,0.549999999999999,0.554166666666666,
0.558333333333333,0.562499999999999,0.566666666666666,0.570833333333333,
0.574999999999999,0.579166666666666,0.583333333333332,0.587499999999999,
0.591666666666666,0.595833333333332,0.599999999999999,0.604166666666666,
0.608333333333332,0.612499999999999,0.616666666666666,0.620833333333332,
0.624999999999999,0.629166666666666,0.633333333333332,0.637499999999999,
0.641666666666666,0.645833333333332,0.649999999999999,0.654166666666666,
0.658333333333332,0.662499999999999,0.666666666666666,0.670833333333332,
0.674999999999999,0.679166666666665,0.683333333333332,0.687499999999999,
0.691666666666665,0.695833333333332,0.699999999999999,0.704166666666665,
0.708333333333332,0.712499999999999,0.716666666666665,0.720833333333332,
0.724999999999999,0.729166666666665,0.733333333333332,0.737499999999999,
0.741666666666665,0.745833333333332,0.749999999999999,0.754166666666665,
0.758333333333332,0.762499999999999,0.766666666666665,0.770833333333332,
0.774999999999998,0.779166666666665,0.783333333333332,0.787499999999998,
0.791666666666665,0.795833333333332,0.799999999999998,0.804166666666665,
0.808333333333332,0.812499999999998,0.816666666666665,0.820833333333332,
0.824999999999998,0.829166666666665,0.833333333333332,0.837499999999998,
0.841666666666665,0.845833333333332,0.849999999999998,0.854166666666665,
0.858333333333332,0.862499999999998,0.866666666666665,0.870833333333331,
0.874999999999998,0.879166666666665,0.883333333333331,0.887499999999998,
0.891666666666665,0.895833333333331,0.899999999999998,0.904166666666665,
0.908333333333331,0.912499999999998,0.916666666666665,0.920833333333331,
0.924999999999998,0.929166666666665,0.933333333333331,0.937499999999998,
0.941666666666665,0.945833333333331,0.949999999999998,0.954166666666664,
0.958333333333331,0.962499999999998,0.966666666666664,0.970833333333331,
0.974999999999998,0.979166666666664,0.983333333333331,0.987499999999998,
0.991666666666664,0.995833333333331,1.),.UNSPECIFIED.)
CURVE()
GEOMETRIC_REPRESENTATION_ITEM()
RATIONAL_B_SPLINE_CURVE((1.,1.,1.,1.,1.,1.,1.,1.,1.,1.,1.,1.,1.,1.,1.,1.,
1.,1.,1.,1.,1.,1.,1.,1.,1.,1.,1.,1.,1.,1.,1.,1.,1.,1.,1.,1.,1.,1.,1.,1.,
1.,1.,1.,1.,1.,1.,1.,1.,1.,1.,1.,1.,1.,1.,1.,1.,1.,1.,1.,1.,1.,1.,1.,1.,
1.,1.,1.,1.,1.,1.,1.,1.,1.,1.,1.,1.,1.,1.,1.,1.,1.,1.,1.,1.,1.,1.,1.,1.,
1.,1.,1.,1.,1.,1.,1.,1.,1.,1.,1.,1.,1.,1.,1.,1.,1.,1.,1.,1.,1.,1.,1.,1.,
1.,1.,1.,1.,1.,1.,1.,1.,1.,1.,1.,1.,1.,1.,1.,1.,1.,1.,1.,1.,1.,1.,1.,1.,
1.,1.,1.,1.,1.,1.,1.,1.,1.,1.,1.,1.,1.,1.,1.,1.,1.,1.,1.,1.,1.,1.,1.,1.,
1.,1.,1.,1.,1.,1.,1.,1.,1.,1.,1.,1.,1.,1.,1.,1.,1.,1.,1.,1.,1.,1.,1.,1.,
1.,1.,1.,1.,1.,1.,1.,1.,1.,1.,1.,1.,1.,1.,1.,1.,1.,1.,1.,1.,1.,1.,1.,1.,
1.,1.,1.,1.,1.,1.,1.,1.,1.,1.,1.,1.,1.,1.,1.,1.,1.,1.,1.,1.,1.,1.,1.,1.,
1.,1.,1.,1.,1.,1.,1.,1.,1.,1.,1.,1.,1.))
REPRESENTATION_ITEM('')
);
#26=VERTEX_POINT('',#67);
#27=VERTEX_POINT('',#314);
#28=EDGE_CURVE('',#26,#26,#24,.T.);
#29=EDGE_CURVE('',#27,#27,#25,.T.);
#30=EDGE_CURVE('',#27,#26,#15,.T.);
#31=ORIENTED_EDGE('',*,*,#28,.T.);
#32=ORIENTED_EDGE('',*,*,#29,.F.);
#33=ORIENTED_EDGE('',*,*,#29,.T.);
#34=ORIENTED_EDGE('',*,*,#30,.T.);
#35=ORIENTED_EDGE('',*,*,#28,.F.);
#36=ORIENTED_EDGE('',*,*,#30,.F.);
#37=PLANE('',#56);
#38=PLANE('',#57);
#39=ADVANCED_FACE('',(#18),#37,.T.);
#40=ADVANCED_FACE('',(#19),#38,.F.);
#41=ADVANCED_FACE('',(#20),#17,.T.);
#42=CLOSED_SHELL('',(#39,#40,#41));
#43=DERIVED_UNIT_ELEMENT(#45,1.);
#44=DERIVED_UNIT_ELEMENT(#848,-3.);
#45=(
MASS_UNIT()
NAMED_UNIT(*)
SI_UNIT(.KILO.,.GRAM.)
);
#46=DERIVED_UNIT((#43,#44));
#47=MEASURE_REPRESENTATION_ITEM('density measure',
POSITIVE_RATIO_MEASURE(7850.),#46);
#48=PROPERTY_DEFINITION_REPRESENTATION(#53,#50);
#49=PROPERTY_DEFINITION_REPRESENTATION(#54,#51);
#50=REPRESENTATION('material name',(#52),#843);
#51=REPRESENTATION('density',(#47),#843);
#52=DESCRIPTIVE_REPRESENTATION_ITEM('Steel','Steel');
#53=PROPERTY_DEFINITION('material property','material name',#856);
#54=PROPERTY_DEFINITION('material property','density of part',#856);
#55=AXIS2_PLACEMENT_3D('',#65,#58,#59);
#56=AXIS2_PLACEMENT_3D('',#66,#60,#61);
#57=AXIS2_PLACEMENT_3D('',#313,#62,#63);
#58=DIRECTION('axis',(0.,0.,1.));
#59=DIRECTION('refdir',(1.,0.,0.));
#60=DIRECTION('center_axis',(5.96790951176539E-33,-8.94577094727791E-33,
1.));
#61=DIRECTION('ref_axis',(1.,0.,-5.96790951176539E-33));
#62=DIRECTION('center_axis',(0.,0.,1.));
#63=DIRECTION('ref_axis',(1.,0.,0.));
#64=DIRECTION('',(0.196116129103842,0.,0.980580676897788));
#65=CARTESIAN_POINT('',(0.,0.,0.));
#66=CARTESIAN_POINT('Origin',(0.110952325437792,-4.28353765406556E-15,1.1811024));
#67=CARTESIAN_POINT('',(1.22047244094488,0.,1.1811024));
#68=CARTESIAN_POINT('Ctrl Pts',(1.22047244094488,0.,1.1811024));
#69=CARTESIAN_POINT('Ctrl Pts',(1.2204724409449,0.00651740779936336,1.1811024));
#70=CARTESIAN_POINT('Ctrl Pts',(1.2199578197312,0.0195522233980849,1.1811024));
#71=CARTESIAN_POINT('Ctrl Pts',(1.21764202426332,0.0390539469523362,1.1811024));
#72=CARTESIAN_POINT('Ctrl Pts',(1.21152060939792,0.0647532459615583,1.1811024));
#73=CARTESIAN_POINT('Ctrl Pts',(1.19915162304339,0.095895896112273,1.1811024));
#74=CARTESIAN_POINT('Ctrl Pts',(1.18254178106061,0.125637662147693,1.1811024));
#75=CARTESIAN_POINT('Ctrl Pts',(1.16223858358453,0.153644701163371,1.1811024));
#76=CARTESIAN_POINT('Ctrl Pts',(1.13879417832378,0.179697354609099,1.1811024));
#77=CARTESIAN_POINT('Ctrl Pts',(1.11269941574695,0.203718457880117,1.1811024));
#78=CARTESIAN_POINT('Ctrl Pts',(1.08439383779126,0.225737604627515,1.1811024));
#79=CARTESIAN_POINT('Ctrl Pts',(1.05427493401603,0.245856785863475,1.1811024));
#80=CARTESIAN_POINT('Ctrl Pts',(1.02270798651259,0.264213785141397,1.1811024));
#81=CARTESIAN_POINT('Ctrl Pts',(0.990034928347892,0.280950501916527,1.1811024));
#82=CARTESIAN_POINT('Ctrl Pts',(0.956585456300167,0.296169211231368,1.1811024));
#83=CARTESIAN_POINT('Ctrl Pts',(0.922678713912876,0.309940228758217,1.1811024));
#84=CARTESIAN_POINT('Ctrl Pts',(0.888619321805245,0.322341660076768,1.1811024));
#85=CARTESIAN_POINT('Ctrl Pts',(0.854694664766602,0.333490012111578,1.1811024));
#86=CARTESIAN_POINT('Ctrl Pts',(0.821172633424277,0.343573424960948,1.1811024));
#87=CARTESIAN_POINT('Ctrl Pts',(0.788296866282137,0.352886532472559,1.1811024));
#88=CARTESIAN_POINT('Ctrl Pts',(0.756289670748624,0.361856559111996,1.1811024));
#89=CARTESIAN_POINT('Ctrl Pts',(0.725402465260263,0.371002628378564,1.1811024));
#90=CARTESIAN_POINT('Ctrl Pts',(0.695964949326636,0.380902489061952,1.1811024));
#91=CARTESIAN_POINT('Ctrl Pts',(0.668427273894976,0.392155647652367,1.1811024));
#92=CARTESIAN_POINT('Ctrl Pts',(0.643422871172927,0.405349797093994,1.1811024));
#93=CARTESIAN_POINT('Ctrl Pts',(0.621766860321463,0.421020029047264,1.1811024));
#94=CARTESIAN_POINT('Ctrl Pts',(0.604210765676434,0.439577690547414,1.1811024));
#95=CARTESIAN_POINT('Ctrl Pts',(0.59125186534135,0.461250255456077,1.1811024));
#96=CARTESIAN_POINT('Ctrl Pts',(0.582888413323491,0.486003599284271,1.1811024));
#97=CARTESIAN_POINT('Ctrl Pts',(0.578497647229901,0.513512223314138,1.1811024));
#98=CARTESIAN_POINT('Ctrl Pts',(0.57710263673217,0.543287622369273,1.1811024));
#99=CARTESIAN_POINT('Ctrl Pts',(0.577579107189543,0.574782402419974,1.1811024));
#100=CARTESIAN_POINT('Ctrl Pts',(0.578879309068335,0.607500479493004,1.1811024));
#101=CARTESIAN_POINT('Ctrl Pts',(0.580265722576856,0.641113757089579,1.1811024));
#102=CARTESIAN_POINT('Ctrl Pts',(0.581260628068532,0.675427663456039,1.1811024));
#103=CARTESIAN_POINT('Ctrl Pts',(0.581569725481826,0.710333211097473,1.1811024));
#104=CARTESIAN_POINT('Ctrl Pts',(0.58101334684049,0.745762879393187,1.1811024));
#105=CARTESIAN_POINT('Ctrl Pts',(0.579458795350671,0.781647369259663,1.1811024));
#106=CARTESIAN_POINT('Ctrl Pts',(0.576741191329117,0.817865657389688,1.1811024));
#107=CARTESIAN_POINT('Ctrl Pts',(0.572652603615402,0.854234314586715,1.1811024));
#108=CARTESIAN_POINT('Ctrl Pts',(0.566959301178182,0.890512978294151,1.1811024));
#109=CARTESIAN_POINT('Ctrl Pts',(0.559409652930117,0.926404411402559,1.1811024));
#110=CARTESIAN_POINT('Ctrl Pts',(0.549746390843475,0.961557165238548,1.1811024));
#111=CARTESIAN_POINT('Ctrl Pts',(0.537715888943916,0.995566276244797,1.1811024));
#112=CARTESIAN_POINT('Ctrl Pts',(0.523082097155465,1.02797734770076,1.1811024));
#113=CARTESIAN_POINT('Ctrl Pts',(0.505658373066981,1.05830392204357,1.1811024));
#114=CARTESIAN_POINT('Ctrl Pts',(0.485336719499791,1.08604311261235,1.1811024));
#115=CARTESIAN_POINT('Ctrl Pts',(0.46211847386482,1.11069180652963,1.1811024));
#116=CARTESIAN_POINT('Ctrl Pts',(0.43614337369942,1.13176285818853,1.1811024));
#117=CARTESIAN_POINT('Ctrl Pts',(0.407722106850289,1.14880064567855,1.1811024));
#118=CARTESIAN_POINT('Ctrl Pts',(0.37729190126309,1.16141513538894,1.1811024));
#119=CARTESIAN_POINT('Ctrl Pts',(0.345368276105639,1.16931710855411,1.1811024));
#120=CARTESIAN_POINT('Ctrl Pts',(0.312498423352332,1.17235254288406,1.1811024));
#121=CARTESIAN_POINT('Ctrl Pts',(0.279213392278347,1.17053835896657,1.1811024));
#122=CARTESIAN_POINT('Ctrl Pts',(0.245982224307972,1.16409480482834,1.1811024));
#123=CARTESIAN_POINT('Ctrl Pts',(0.213207252996308,1.15339447814702,1.1811024));
#124=CARTESIAN_POINT('Ctrl Pts',(0.181218129990917,1.13891463969841,1.1811024));
#125=CARTESIAN_POINT('Ctrl Pts',(0.150265946500342,1.12118780088568,1.1811024));
#126=CARTESIAN_POINT('Ctrl Pts',(0.120518159440135,1.10075421379147,1.1811024));
#127=CARTESIAN_POINT('Ctrl Pts',(0.092050900234008,1.07811043126762,1.1811024));
#128=CARTESIAN_POINT('Ctrl Pts',(0.0648710447444,1.05370191128295,1.1811024));
#129=CARTESIAN_POINT('Ctrl Pts',(0.0389408715021296,1.0279213009866,1.1811024));
#130=CARTESIAN_POINT('Ctrl Pts',(0.0142033248793339,1.00110334851484,1.1811024));
#131=CARTESIAN_POINT('Ctrl Pts',(-0.00939644262434325,0.973524266060662,
1.1811024));
#132=CARTESIAN_POINT('Ctrl Pts',(-0.0318795216188481,0.945391800684385,
1.1811024));
#133=CARTESIAN_POINT('Ctrl Pts',(-0.0532354702746242,0.916865122050778,
1.1811024));
#134=CARTESIAN_POINT('Ctrl Pts',(-0.0734776706090253,0.888121044562461,
1.1811024));
#135=CARTESIAN_POINT('Ctrl Pts',(-0.0926870199447524,0.859410264849889,
1.1811024));
#136=CARTESIAN_POINT('Ctrl Pts',(-0.111058713788802,0.831115856076072,1.1811024));
#137=CARTESIAN_POINT('Ctrl Pts',(-0.12895150070716,0.803814963202285,1.1811024));
#138=CARTESIAN_POINT('Ctrl Pts',(-0.146925385124911,0.778327513158322,1.1811024));
#139=CARTESIAN_POINT('Ctrl Pts',(-0.165615873734488,0.755575392474647,1.1811024));
#140=CARTESIAN_POINT('Ctrl Pts',(-0.185610407191904,0.736447235338864,1.1811024));
#141=CARTESIAN_POINT('Ctrl Pts',(-0.207338464734697,0.72167164467164,1.1811024));
#142=CARTESIAN_POINT('Ctrl Pts',(-0.230920537501663,0.711661173107574,1.1811024));
#143=CARTESIAN_POINT('Ctrl Pts',(-0.256184770968634,0.706476262791202,1.1811024));
#144=CARTESIAN_POINT('Ctrl Pts',(-0.282829707440956,0.70588689447899,1.1811024));
#145=CARTESIAN_POINT('Ctrl Pts',(-0.310534052338256,0.709409120751311,1.1811024));
#146=CARTESIAN_POINT('Ctrl Pts',(-0.339114967463864,0.716345286359165,1.1811024));
#147=CARTESIAN_POINT('Ctrl Pts',(-0.368536325191429,0.725854279978923,1.1811024));
#148=CARTESIAN_POINT('Ctrl Pts',(-0.398839621618216,0.737042871951545,1.1811024));
#149=CARTESIAN_POINT('Ctrl Pts',(-0.430097592084592,0.749051665426309,1.1811024));
#150=CARTESIAN_POINT('Ctrl Pts',(-0.462360024988731,0.761140241460039,1.1811024));
#151=CARTESIAN_POINT('Ctrl Pts',(-0.495598721426371,0.772780804014694,1.1811024));
#152=CARTESIAN_POINT('Ctrl Pts',(-0.529721325826694,0.783614768434141,1.1811024));
#153=CARTESIAN_POINT('Ctrl Pts',(-0.564591377844762,0.793398255050737,1.1811024));
#154=CARTESIAN_POINT('Ctrl Pts',(-0.6000472351197,0.801949815985747,1.1811024));
#155=CARTESIAN_POINT('Ctrl Pts',(-0.635918825124688,0.80910127780865,1.1811024));
#156=CARTESIAN_POINT('Ctrl Pts',(-0.672051846493854,0.814637272500856,1.1811024));
#157=CARTESIAN_POINT('Ctrl Pts',(-0.70830293840788,0.818279201622028,1.1811024));
#158=CARTESIAN_POINT('Ctrl Pts',(-0.744505954228749,0.819713712648849,1.1811024));
#159=CARTESIAN_POINT('Ctrl Pts',(-0.780445892426042,0.818609030571277,1.1811024));
#160=CARTESIAN_POINT('Ctrl Pts',(-0.815830135764138,0.814636306482414,1.1811024));
#161=CARTESIAN_POINT('Ctrl Pts',(-0.850259792083099,0.807488689834942,1.1811024));
#162=CARTESIAN_POINT('Ctrl Pts',(-0.883203920273604,0.796901745307645,1.1811024));
#163=CARTESIAN_POINT('Ctrl Pts',(-0.914059375095217,0.782684583962918,1.1811024));
#164=CARTESIAN_POINT('Ctrl Pts',(-0.942207281883104,0.764750630638409,1.1811024));
#165=CARTESIAN_POINT('Ctrl Pts',(-0.967070970704071,0.743148785166199,1.1811024));
#166=CARTESIAN_POINT('Ctrl Pts',(-0.988172852477566,0.718093843441562,1.1811024));
#167=CARTESIAN_POINT('Ctrl Pts',(-1.00519297086601,0.689998877166282,1.1811024));
#168=CARTESIAN_POINT('Ctrl Pts',(-1.01795654005402,0.659410560525075,1.1811024));
#169=CARTESIAN_POINT('Ctrl Pts',(-1.02642003081566,0.626942200529736,1.1811024));
#170=CARTESIAN_POINT('Ctrl Pts',(-1.03065777073013,0.593208061381958,1.1811024));
#171=CARTESIAN_POINT('Ctrl Pts',(-1.03084841865376,0.558756129811549,1.1811024));
#172=CARTESIAN_POINT('Ctrl Pts',(-1.02726128358107,0.52400440578349,1.1811024));
#173=CARTESIAN_POINT('Ctrl Pts',(-1.02023456818262,0.489267485496471,1.1811024));
#174=CARTESIAN_POINT('Ctrl Pts',(-1.01015414489761,0.45477956411142,1.1811024));
#175=CARTESIAN_POINT('Ctrl Pts',(-0.997431686962803,0.420719648940712,1.1811024));
#176=CARTESIAN_POINT('Ctrl Pts',(-0.982484108497026,0.387233817427536,1.1811024));
#177=CARTESIAN_POINT('Ctrl Pts',(-0.965709800487529,0.354463874511864,1.1811024));
#178=CARTESIAN_POINT('Ctrl Pts',(-0.947482039245457,0.322543162264287,1.1811024));
#179=CARTESIAN_POINT('Ctrl Pts',(-0.928149467023836,0.291580158457581,1.1811024));
#180=CARTESIAN_POINT('Ctrl Pts',(-0.908033387549874,0.26164556846106,1.1811024));
#181=CARTESIAN_POINT('Ctrl Pts',(-0.887428342608797,0.232759015808069,1.1811024));
#182=CARTESIAN_POINT('Ctrl Pts',(-0.866596623709115,0.204873376088951,1.1811024));
#183=CARTESIAN_POINT('Ctrl Pts',(-0.84577946139367,0.177867810627373,1.1811024));
#184=CARTESIAN_POINT('Ctrl Pts',(-0.825271436958899,0.151577083656904,1.1811024));
#185=CARTESIAN_POINT('Ctrl Pts',(-0.805488487873748,0.125815803157825,1.1811024));
#186=CARTESIAN_POINT('Ctrl Pts',(-0.787032380724575,0.100403952657906,1.1811024));
#187=CARTESIAN_POINT('Ctrl Pts',(-0.770770872468967,0.0751934910279417,
1.1811024));
#188=CARTESIAN_POINT('Ctrl Pts',(-0.757869497298001,0.0500897370564407,
1.1811024));
#189=CARTESIAN_POINT('Ctrl Pts',(-0.749498887697602,0.0250356273587509,
1.1811024));
#190=CARTESIAN_POINT('Ctrl Pts',(-0.746577248071028,3.04908384192853E-15,
1.1811024));
#191=CARTESIAN_POINT('Ctrl Pts',(-0.749498887697599,-0.0250356273587433,
1.1811024));
#192=CARTESIAN_POINT('Ctrl Pts',(-0.757869497297996,-0.0500897370564292,
1.1811024));
#193=CARTESIAN_POINT('Ctrl Pts',(-0.77077087246896,-0.075193491027929,1.1811024));
#194=CARTESIAN_POINT('Ctrl Pts',(-0.787032380724571,-0.100403952657898,
1.1811024));
#195=CARTESIAN_POINT('Ctrl Pts',(-0.805488487873743,-0.125815803157824,
1.1811024));
#196=CARTESIAN_POINT('Ctrl Pts',(-0.825271436958894,-0.151577083656908,
1.1811024));
#197=CARTESIAN_POINT('Ctrl Pts',(-0.845779461393666,-0.177867810627375,
1.1811024));
#198=CARTESIAN_POINT('Ctrl Pts',(-0.866596623709111,-0.204873376088948,
1.1811024));
#199=CARTESIAN_POINT('Ctrl Pts',(-0.887428342608792,-0.232759015808062,
1.1811024));
#200=CARTESIAN_POINT('Ctrl Pts',(-0.908033387549867,-0.261645568461049,
1.1811024));
#201=CARTESIAN_POINT('Ctrl Pts',(-0.928149467023829,-0.291580158457568,
1.1811024));
#202=CARTESIAN_POINT('Ctrl Pts',(-0.94748203924545,-0.322543162264272,1.1811024));
#203=CARTESIAN_POINT('Ctrl Pts',(-0.965709800487521,-0.35446387451185,1.1811024));
#204=CARTESIAN_POINT('Ctrl Pts',(-0.98248410849702,-0.387233817427526,1.1811024));
#205=CARTESIAN_POINT('Ctrl Pts',(-0.9974316869628,-0.420719648940703,1.1811024));
#206=CARTESIAN_POINT('Ctrl Pts',(-1.01015414489761,-0.454779564111411,1.1811024));
#207=CARTESIAN_POINT('Ctrl Pts',(-1.02023456818263,-0.489267485496459,1.1811024));
#208=CARTESIAN_POINT('Ctrl Pts',(-1.02726128358109,-0.524004405783475,1.1811024));
#209=CARTESIAN_POINT('Ctrl Pts',(-1.03084841865377,-0.558756129811534,1.1811024));
#210=CARTESIAN_POINT('Ctrl Pts',(-1.03065777073013,-0.593208061381948,1.1811024));
#211=CARTESIAN_POINT('Ctrl Pts',(-1.02642003081565,-0.626942200529733,1.1811024));
#212=CARTESIAN_POINT('Ctrl Pts',(-1.017956540054,-0.659410560525077,1.1811024));
#213=CARTESIAN_POINT('Ctrl Pts',(-1.00519297086599,-0.689998877166286,1.1811024));
#214=CARTESIAN_POINT('Ctrl Pts',(-0.988172852477555,-0.718093843441563,
1.1811024));
#215=CARTESIAN_POINT('Ctrl Pts',(-0.967070970704079,-0.743148785166194,
1.1811024));
#216=CARTESIAN_POINT('Ctrl Pts',(-0.942207281883126,-0.764750630638392,
1.1811024));
#217=CARTESIAN_POINT('Ctrl Pts',(-0.914059375095247,-0.782684583962896,
1.1811024));
#218=CARTESIAN_POINT('Ctrl Pts',(-0.883203920273631,-0.796901745307629,
1.1811024));
#219=CARTESIAN_POINT('Ctrl Pts',(-0.85025979208312,-0.807488689834936,1.1811024));
#220=CARTESIAN_POINT('Ctrl Pts',(-0.815830135764148,-0.814636306482415,
1.1811024));
#221=CARTESIAN_POINT('Ctrl Pts',(-0.780445892426042,-0.818609030571275,
1.1811024));
#222=CARTESIAN_POINT('Ctrl Pts',(-0.744505954228743,-0.819713712648843,
1.1811024));
#223=CARTESIAN_POINT('Ctrl Pts',(-0.708302938407874,-0.81827920162202,1.1811024));
#224=CARTESIAN_POINT('Ctrl Pts',(-0.672051846493855,-0.81463727250085,1.1811024));
#225=CARTESIAN_POINT('Ctrl Pts',(-0.635918825124695,-0.809101277808651,
1.1811024));
#226=CARTESIAN_POINT('Ctrl Pts',(-0.600047235119714,-0.801949815985752,
1.1811024));
#227=CARTESIAN_POINT('Ctrl Pts',(-0.564591377844781,-0.79339825505074,1.1811024));
#228=CARTESIAN_POINT('Ctrl Pts',(-0.529721325826718,-0.783614768434144,
1.1811024));
#229=CARTESIAN_POINT('Ctrl Pts',(-0.495598721426395,-0.772780804014697,
1.1811024));
#230=CARTESIAN_POINT('Ctrl Pts',(-0.46236002498875,-0.761140241460043,1.1811024));
#231=CARTESIAN_POINT('Ctrl Pts',(-0.4300975920846,-0.749051665426313,1.1811024));
#232=CARTESIAN_POINT('Ctrl Pts',(-0.398839621618216,-0.737042871951548,
1.1811024));
#233=CARTESIAN_POINT('Ctrl Pts',(-0.368536325191425,-0.725854279978929,
1.1811024));
#234=CARTESIAN_POINT('Ctrl Pts',(-0.339114967463864,-0.716345286359173,
1.1811024));
#235=CARTESIAN_POINT('Ctrl Pts',(-0.310534052338261,-0.709409120751317,
1.1811024));
#236=CARTESIAN_POINT('Ctrl Pts',(-0.282829707440966,-0.705886894478989,
1.1811024));
#237=CARTESIAN_POINT('Ctrl Pts',(-0.256184770968647,-0.706476262791195,
1.1811024));
#238=CARTESIAN_POINT('Ctrl Pts',(-0.230920537501677,-0.711661173107561,
1.1811024));
#239=CARTESIAN_POINT('Ctrl Pts',(-0.207338464734707,-0.721671644671628,
1.1811024));
#240=CARTESIAN_POINT('Ctrl Pts',(-0.185610407191908,-0.736447235338864,
1.1811024));
#241=CARTESIAN_POINT('Ctrl Pts',(-0.165615873734485,-0.755575392474669,
1.1811024));
#242=CARTESIAN_POINT('Ctrl Pts',(-0.146925385124907,-0.778327513158362,
1.1811024));
#243=CARTESIAN_POINT('Ctrl Pts',(-0.128951500707157,-0.803814963202319,
1.1811024));
#244=CARTESIAN_POINT('Ctrl Pts',(-0.111058713788806,-0.831115856076072,
1.1811024));
#245=CARTESIAN_POINT('Ctrl Pts',(-0.0926870199447671,-0.859410264849834,
1.1811024));
#246=CARTESIAN_POINT('Ctrl Pts',(-0.0734776706090501,-0.888121044562362,
1.1811024));
#247=CARTESIAN_POINT('Ctrl Pts',(-0.053235470274651,-0.916865122050665,
1.1811024));
#248=CARTESIAN_POINT('Ctrl Pts',(-0.0318795216188701,-0.945391800684297,
1.1811024));
#249=CARTESIAN_POINT('Ctrl Pts',(-0.00939644262435441,-0.973524266060628,
1.1811024));
#250=CARTESIAN_POINT('Ctrl Pts',(0.0142033248793347,-1.00110334851487,1.1811024));
#251=CARTESIAN_POINT('Ctrl Pts',(0.0389408715021389,-1.02792130098668,1.1811024));
#252=CARTESIAN_POINT('Ctrl Pts',(0.0648710447444117,-1.05370191128306,1.1811024));
#253=CARTESIAN_POINT('Ctrl Pts',(0.0920509002340153,-1.07811043126771,1.1811024));
#254=CARTESIAN_POINT('Ctrl Pts',(0.120518159440132,-1.10075421379152,1.1811024));
#255=CARTESIAN_POINT('Ctrl Pts',(0.150265946500331,-1.12118780088566,1.1811024));
#256=CARTESIAN_POINT('Ctrl Pts',(0.181218129990904,-1.13891463969835,1.1811024));
#257=CARTESIAN_POINT('Ctrl Pts',(0.213207252996298,-1.15339447814694,1.1811024));
#258=CARTESIAN_POINT('Ctrl Pts',(0.245982224307964,-1.16409480482827,1.1811024));
#259=CARTESIAN_POINT('Ctrl Pts',(0.279213392278339,-1.17053835896653,1.1811024));
#260=CARTESIAN_POINT('Ctrl Pts',(0.312498423352321,-1.17235254288406,1.1811024));
#261=CARTESIAN_POINT('Ctrl Pts',(0.345368276105624,-1.16931710855415,1.1811024));
#262=CARTESIAN_POINT('Ctrl Pts',(0.377291901263076,-1.161415135389,1.1811024));
#263=CARTESIAN_POINT('Ctrl Pts',(0.40772210685028,-1.14880064567861,1.1811024));
#264=CARTESIAN_POINT('Ctrl Pts',(0.436143373699415,-1.13176285818858,1.1811024));
#265=CARTESIAN_POINT('Ctrl Pts',(0.462118473864812,-1.11069180652963,1.1811024));
#266=CARTESIAN_POINT('Ctrl Pts',(0.485336719499775,-1.08604311261232,1.1811024));
#267=CARTESIAN_POINT('Ctrl Pts',(0.505658373066961,-1.05830392204351,1.1811024));
#268=CARTESIAN_POINT('Ctrl Pts',(0.523082097155449,-1.02797734770071,1.1811024));
#269=CARTESIAN_POINT('Ctrl Pts',(0.537715888943908,-0.995566276244776,1.1811024));
#270=CARTESIAN_POINT('Ctrl Pts',(0.549746390843472,-0.961557165238559,1.1811024));
#271=CARTESIAN_POINT('Ctrl Pts',(0.559409652930114,-0.926404411402592,1.1811024));
#272=CARTESIAN_POINT('Ctrl Pts',(0.566959301178176,-0.890512978294199,1.1811024));
#273=CARTESIAN_POINT('Ctrl Pts',(0.572652603615396,-0.85423431458676,1.1811024));
#274=CARTESIAN_POINT('Ctrl Pts',(0.576741191329112,-0.817865657389726,1.1811024));
#275=CARTESIAN_POINT('Ctrl Pts',(0.579458795350668,-0.781647369259688,1.1811024));
#276=CARTESIAN_POINT('Ctrl Pts',(0.581013346840491,-0.745762879393199,1.1811024));
#277=CARTESIAN_POINT('Ctrl Pts',(0.58156972548183,-0.710333211097474,1.1811024));
#278=CARTESIAN_POINT('Ctrl Pts',(0.581260628068541,-0.675427663456037,1.1811024));
#279=CARTESIAN_POINT('Ctrl Pts',(0.580265722576864,-0.641113757089579,1.1811024));
#280=CARTESIAN_POINT('Ctrl Pts',(0.578879309068338,-0.607500479493011,1.1811024));
#281=CARTESIAN_POINT('Ctrl Pts',(0.577579107189543,-0.57478240241999,1.1811024));
#282=CARTESIAN_POINT('Ctrl Pts',(0.577102636732167,-0.543287622369295,1.1811024));
#283=CARTESIAN_POINT('Ctrl Pts',(0.578497647229894,-0.513512223314159,1.1811024));
#284=CARTESIAN_POINT('Ctrl Pts',(0.582888413323485,-0.486003599284287,1.1811024));
#285=CARTESIAN_POINT('Ctrl Pts',(0.591251865341345,-0.461250255456088,1.1811024));
#286=CARTESIAN_POINT('Ctrl Pts',(0.604210765676429,-0.439577690547421,1.1811024));
#287=CARTESIAN_POINT('Ctrl Pts',(0.621766860321454,-0.421020029047271,1.1811024));
#288=CARTESIAN_POINT('Ctrl Pts',(0.643422871172915,-0.405349797094001,1.1811024));
#289=CARTESIAN_POINT('Ctrl Pts',(0.668427273894963,-0.392155647652374,1.1811024));
#290=CARTESIAN_POINT('Ctrl Pts',(0.695964949326624,-0.380902489061957,1.1811024));
#291=CARTESIAN_POINT('Ctrl Pts',(0.725402465260255,-0.371002628378567,1.1811024));
#292=CARTESIAN_POINT('Ctrl Pts',(0.75628967074862,-0.361856559111998,1.1811024));
#293=CARTESIAN_POINT('Ctrl Pts',(0.788296866282129,-0.35288653247256,1.1811024));
#294=CARTESIAN_POINT('Ctrl Pts',(0.821172633424265,-0.343573424960952,1.1811024));
#295=CARTESIAN_POINT('Ctrl Pts',(0.854694664766575,-0.333490012111586,1.1811024));
#296=CARTESIAN_POINT('Ctrl Pts',(0.888619321805199,-0.322341660076783,1.1811024));
#297=CARTESIAN_POINT('Ctrl Pts',(0.922678713912815,-0.309940228758236,1.1811024));
#298=CARTESIAN_POINT('Ctrl Pts',(0.956585456300105,-0.296169211231389,1.1811024));
#299=CARTESIAN_POINT('Ctrl Pts',(0.990034928347849,-0.280950501916543,1.1811024));
#300=CARTESIAN_POINT('Ctrl Pts',(1.02270798651258,-0.264213785141402,1.1811024));
#301=CARTESIAN_POINT('Ctrl Pts',(1.05427493401608,-0.24585678586347,1.1811024));
#302=CARTESIAN_POINT('Ctrl Pts',(1.08439383779137,-0.225737604627504,1.1811024));
#303=CARTESIAN_POINT('Ctrl Pts',(1.11269941574708,-0.20371845788011,1.1811024));
#304=CARTESIAN_POINT('Ctrl Pts',(1.13879417832388,-0.179697354609101,1.1811024));
#305=CARTESIAN_POINT('Ctrl Pts',(1.16223858358453,-0.153644701163384,1.1811024));
#306=CARTESIAN_POINT('Ctrl Pts',(1.18254178106047,-0.125637662147717,1.1811024));
#307=CARTESIAN_POINT('Ctrl Pts',(1.19915162304313,-0.0958958961122965,1.1811024));
#308=CARTESIAN_POINT('Ctrl Pts',(1.21152060939762,-0.0647532459615862,1.1811024));
#309=CARTESIAN_POINT('Ctrl Pts',(1.21764202426309,-0.0390539469523386,1.1811024));
#310=CARTESIAN_POINT('Ctrl Pts',(1.21995781973108,-0.0195522233981025,1.1811024));
#311=CARTESIAN_POINT('Ctrl Pts',(1.22047244094486,-0.00651740779936699,
1.1811024));
#312=CARTESIAN_POINT('Ctrl Pts',(1.22047244094488,0.,1.1811024));
#313=CARTESIAN_POINT('Origin',(0.0906424278746128,-1.14439595952772E-15,
0.));
#314=CARTESIAN_POINT('',(0.984251968503937,0.,0.));
#315=CARTESIAN_POINT('Ctrl Pts',(0.984251968503937,0.,0.));
#316=CARTESIAN_POINT('Ctrl Pts',(0.984251968503961,0.00489370105679812,
0.));
#317=CARTESIAN_POINT('Ctrl Pts',(0.984081570244734,0.0146811031703913,0.));
#318=CARTESIAN_POINT('Ctrl Pts',(0.983314778073148,0.0293514476978853,0.));
#319=CARTESIAN_POINT('Ctrl Pts',(0.981272940788839,0.0488473552103946,0.));
#320=CARTESIAN_POINT('Ctrl Pts',(0.977042550488275,0.073003722246682,0.));
#321=CARTESIAN_POINT('Ctrl Pts',(0.971167601095089,0.0968439370996667,0.));
#322=CARTESIAN_POINT('Ctrl Pts',(0.963693106390235,0.120270343403625,0.));
#323=CARTESIAN_POINT('Ctrl Pts',(0.954674463862954,0.14319184602093,0.));
#324=CARTESIAN_POINT('Ctrl Pts',(0.944176427755542,0.165525748624548,0.));
#325=CARTESIAN_POINT('Ctrl Pts',(0.932271720997138,0.187198202349689,0.));
#326=CARTESIAN_POINT('Ctrl Pts',(0.919039527773914,0.208144142664634,0.));
#327=CARTESIAN_POINT('Ctrl Pts',(0.904564005978591,0.228307406424399,0.));
#328=CARTESIAN_POINT('Ctrl Pts',(0.888932836814304,0.247640749199418,0.));
#329=CARTESIAN_POINT('Ctrl Pts',(0.872235650482786,0.266105968718049,0.));
#330=CARTESIAN_POINT('Ctrl Pts',(0.85456288917964,0.283673764025298,0.));
#331=CARTESIAN_POINT('Ctrl Pts',(0.836005349902124,0.300323213285794,0.));
#332=CARTESIAN_POINT('Ctrl Pts',(0.816653565780007,0.316041340789782,0.));
#333=CARTESIAN_POINT('Ctrl Pts',(0.796597254089602,0.330822650647666,0.));
#334=CARTESIAN_POINT('Ctrl Pts',(0.775924732233785,0.34466867195318,0.));
#335=CARTESIAN_POINT('Ctrl Pts',(0.754722357064641,0.357587510371442,0.));
#336=CARTESIAN_POINT('Ctrl Pts',(0.73307434559876,0.369593827680677,0.));
#337=CARTESIAN_POINT('Ctrl Pts',(0.711062590154229,0.380708811240673,0.));
#338=CARTESIAN_POINT('Ctrl Pts',(0.688766470141348,0.390960144636377,0.));
#339=CARTESIAN_POINT('Ctrl Pts',(0.666262676582448,0.400381986599265,0.));
#340=CARTESIAN_POINT('Ctrl Pts',(0.6436250014388,0.409014926678406,0.));
#341=CARTESIAN_POINT('Ctrl Pts',(0.620924304654653,0.416906076561844,0.));
#342=CARTESIAN_POINT('Ctrl Pts',(0.59822855015998,0.42410924148478,0.));
#343=CARTESIAN_POINT('Ctrl Pts',(0.575602828668039,0.430685028235374,0.));
#344=CARTESIAN_POINT('Ctrl Pts',(0.553109364868013,0.436701065911779,0.));
#345=CARTESIAN_POINT('Ctrl Pts',(0.530807581974761,0.442231969263401,0.));
#346=CARTESIAN_POINT('Ctrl Pts',(0.508753936875752,0.447360250162525,0.));
#347=CARTESIAN_POINT('Ctrl Pts',(0.487001565901502,0.452177976480477,0.));
#348=CARTESIAN_POINT('Ctrl Pts',(0.465599953293033,0.456788381243134,0.));
#349=CARTESIAN_POINT('Ctrl Pts',(0.444594655269427,0.461307148771499,0.));
#350=CARTESIAN_POINT('Ctrl Pts',(0.424026834524389,0.465864703990474,0.));
#351=CARTESIAN_POINT('Ctrl Pts',(0.40393375477848,0.470603732792553,0.));
#352=CARTESIAN_POINT('Ctrl Pts',(0.384349896438519,0.47567433300401,0.));
#353=CARTESIAN_POINT('Ctrl Pts',(0.365307678528758,0.481229721847437,0.));
#354=CARTESIAN_POINT('Ctrl Pts',(0.346838795981865,0.487422131676883,0.));
#355=CARTESIAN_POINT('Ctrl Pts',(0.328973949652625,0.494397381212062,0.));
#356=CARTESIAN_POINT('Ctrl Pts',(0.311734275322044,0.502281680792415,0.));
#357=CARTESIAN_POINT('Ctrl Pts',(0.295123811204066,0.511169435528807,0.));
#358=CARTESIAN_POINT('Ctrl Pts',(0.279121557760759,0.521110642055441,0.));
#359=CARTESIAN_POINT('Ctrl Pts',(0.263673716867836,0.532098488188523,0.));
#360=CARTESIAN_POINT('Ctrl Pts',(0.248700550408013,0.544082274176758,0.));
#361=CARTESIAN_POINT('Ctrl Pts',(0.234103324911621,0.556980590727147,0.));
#362=CARTESIAN_POINT('Ctrl Pts',(0.219771108090428,0.570693940759668,0.));
#363=CARTESIAN_POINT('Ctrl Pts',(0.205587910324887,0.585118759480447,0.));
#364=CARTESIAN_POINT('Ctrl Pts',(0.191437251120064,0.600150362579627,0.));
#365=CARTESIAN_POINT('Ctrl Pts',(0.177206382148767,0.615683840235842,0.));
#366=CARTESIAN_POINT('Ctrl Pts',(0.16279036566361,0.631615578174191,0.));
#367=CARTESIAN_POINT('Ctrl Pts',(0.14809683171319,0.647844715993775,0.));
#368=CARTESIAN_POINT('Ctrl Pts',(0.133048372846238,0.664273958691056,0.));
#369=CARTESIAN_POINT('Ctrl Pts',(0.117580328760347,0.680808835143275,0.));
#370=CARTESIAN_POINT('Ctrl Pts',(0.101639534505337,0.697357294002682,0.));
#371=CARTESIAN_POINT('Ctrl Pts',(0.0851827611474297,0.713829186234378,0.));
#372=CARTESIAN_POINT('Ctrl Pts',(0.0681751020255746,0.730135742450027,0.));
#373=CARTESIAN_POINT('Ctrl Pts',(0.0505891009673275,0.746189259938991,0.));
#374=CARTESIAN_POINT('Ctrl Pts',(0.0324048163111241,0.76190306509596,0.));
#375=CARTESIAN_POINT('Ctrl Pts',(0.013609633321413,0.777191396813431,0.));
#376=CARTESIAN_POINT('Ctrl Pts',(-0.00580181794833366,0.791969332735541,
0.));
#377=CARTESIAN_POINT('Ctrl Pts',(-0.025827793098108,0.806152672374696,0.));
#378=CARTESIAN_POINT('Ctrl Pts',(-0.0464595289459696,0.819657919991566,
0.));
#379=CARTESIAN_POINT('Ctrl Pts',(-0.0676813104746041,0.832402489207822,
0.));
#380=CARTESIAN_POINT('Ctrl Pts',(-0.0894705403167835,0.844304865515723,
0.));
#381=CARTESIAN_POINT('Ctrl Pts',(-0.11179780743662,0.855284783950361,0.));
#382=CARTESIAN_POINT('Ctrl Pts',(-0.134626953119969,0.865263404451483,0.));
#383=CARTESIAN_POINT('Ctrl Pts',(-0.157915142899414,0.874163477357772,0.));
#384=CARTESIAN_POINT('Ctrl Pts',(-0.181612758556782,0.881910053173575,0.));
#385=CARTESIAN_POINT('Ctrl Pts',(-0.20566329623291,0.888431215763511,0.));
#386=CARTESIAN_POINT('Ctrl Pts',(-0.23000323858825,0.893658793539045,0.));
#387=CARTESIAN_POINT('Ctrl Pts',(-0.254561989153623,0.897529111738705,0.));
#388=CARTESIAN_POINT('Ctrl Pts',(-0.279261648690446,0.899983649466649,0.));
#389=CARTESIAN_POINT('Ctrl Pts',(-0.304017461720955,0.900970094788289,0.));
#390=CARTESIAN_POINT('Ctrl Pts',(-0.328738710588482,0.900443646403103,0.));
#391=CARTESIAN_POINT('Ctrl Pts',(-0.353329455662558,0.898368261060101,0.));
#392=CARTESIAN_POINT('Ctrl Pts',(-0.377689380485718,0.894717883287711,0.));
#393=CARTESIAN_POINT('Ctrl Pts',(-0.401714490816662,0.8894777824304,0.));
#394=CARTESIAN_POINT('Ctrl Pts',(-0.425298197207759,0.882645530424584,0.));
#395=CARTESIAN_POINT('Ctrl Pts',(-0.448333419874222,0.87423097237401,0.));
#396=CARTESIAN_POINT('Ctrl Pts',(-0.470714507147381,0.864256383878492,0.));
#397=CARTESIAN_POINT('Ctrl Pts',(-0.492339227229851,0.852756556121299,0.));
#398=CARTESIAN_POINT('Ctrl Pts',(-0.513110730247926,0.839778913058691,0.));
#399=CARTESIAN_POINT('Ctrl Pts',(-0.532939520913899,0.825383617163544,0.));
#400=CARTESIAN_POINT('Ctrl Pts',(-0.551744353280547,0.809641808177843,0.));
#401=CARTESIAN_POINT('Ctrl Pts',(-0.56945311027821,0.792633845330701,0.));
#402=CARTESIAN_POINT('Ctrl Pts',(-0.586003725904535,0.774447539884083,0.));
#403=CARTESIAN_POINT('Ctrl Pts',(-0.601345008200435,0.755176415039186,0.));
#404=CARTESIAN_POINT('Ctrl Pts',(-0.615437717167166,0.734917897778578,0.));
#405=CARTESIAN_POINT('Ctrl Pts',(-0.62825425927628,0.713771892438617,0.));
#406=CARTESIAN_POINT('Ctrl Pts',(-0.63977787908354,0.691839506802018,0.));
#407=CARTESIAN_POINT('Ctrl Pts',(-0.650002016824994,0.669221705314301,0.));
#408=CARTESIAN_POINT('Ctrl Pts',(-0.658929598226037,0.646018044339628,0.));
#409=CARTESIAN_POINT('Ctrl Pts',(-0.666572354249831,0.622325247045476,0.));
#410=CARTESIAN_POINT('Ctrl Pts',(-0.672950130622799,0.598236289148303,0.));
#411=CARTESIAN_POINT('Ctrl Pts',(-0.678090207002659,0.573840264072012,0.));
#412=CARTESIAN_POINT('Ctrl Pts',(-0.682026612660007,0.549222063661727,0.));
#413=CARTESIAN_POINT('Ctrl Pts',(-0.684799446652988,0.524462133302694,0.));
#414=CARTESIAN_POINT('Ctrl Pts',(-0.686454191917032,0.499636193562516,0.));
#415=CARTESIAN_POINT('Ctrl Pts',(-0.687041046590082,0.474814978836338,0.));
#416=CARTESIAN_POINT('Ctrl Pts',(-0.686614816652834,0.450064092310846,0.));
#417=CARTESIAN_POINT('Ctrl Pts',(-0.685234797056151,0.42544386113399,0.));
#418=CARTESIAN_POINT('Ctrl Pts',(-0.682964652193023,0.401009188099156,0.));
#419=CARTESIAN_POINT('Ctrl Pts',(-0.679872309903848,0.376809410214186,0.));
#420=CARTESIAN_POINT('Ctrl Pts',(-0.676029817749893,0.352888138417595,0.));
#421=CARTESIAN_POINT('Ctrl Pts',(-0.671513405621945,0.329283183377195,0.));
#422=CARTESIAN_POINT('Ctrl Pts',(-0.666403652185532,0.306026500965286,0.));
#423=CARTESIAN_POINT('Ctrl Pts',(-0.660785589815465,0.283144157999018,0.));
#424=CARTESIAN_POINT('Ctrl Pts',(-0.654748899373359,0.260656228090889,0.));
#425=CARTESIAN_POINT('Ctrl Pts',(-0.648387910735127,0.238576865879837,0.));
#426=CARTESIAN_POINT('Ctrl Pts',(-0.641802309722007,0.216913708528485,0.));
#427=CARTESIAN_POINT('Ctrl Pts',(-0.635098397614703,0.195666739513266,0.));
#428=CARTESIAN_POINT('Ctrl Pts',(-0.628390318956646,0.174827196931049,0.));
#429=CARTESIAN_POINT('Ctrl Pts',(-0.621801037418191,0.154376691464362,0.));
#430=CARTESIAN_POINT('Ctrl Pts',(-0.615464085644447,0.134285658589188,0.));
#431=CARTESIAN_POINT('Ctrl Pts',(-0.609521665103367,0.114515026687924,0.));
#432=CARTESIAN_POINT('Ctrl Pts',(-0.60412100452895,0.0950196077556725,0.));
#433=CARTESIAN_POINT('Ctrl Pts',(-0.599411003440382,0.0757508688797076,
0.));
#434=CARTESIAN_POINT('Ctrl Pts',(-0.595539346389873,0.0566601424998642,
0.));
#435=CARTESIAN_POINT('Ctrl Pts',(-0.592647666520451,0.0377011069764487,
0.));
#436=CARTESIAN_POINT('Ctrl Pts',(-0.590855833082797,0.0188289612630178,
0.));
#437=CARTESIAN_POINT('Ctrl Pts',(-0.590247622408132,2.22184612134707E-15,
0.));
#438=CARTESIAN_POINT('Ctrl Pts',(-0.590855833082811,-0.0188289612630129,
0.));
#439=CARTESIAN_POINT('Ctrl Pts',(-0.592647666520471,-0.037701106976442,
0.));
#440=CARTESIAN_POINT('Ctrl Pts',(-0.595539346389887,-0.0566601424998583,
0.));
#441=CARTESIAN_POINT('Ctrl Pts',(-0.599411003440382,-0.0757508688797032,
0.));
#442=CARTESIAN_POINT('Ctrl Pts',(-0.604121004528939,-0.0950196077556678,
0.));
#443=CARTESIAN_POINT('Ctrl Pts',(-0.609521665103348,-0.114515026687916,
0.));
#444=CARTESIAN_POINT('Ctrl Pts',(-0.615464085644433,-0.134285658589179,
0.));
#445=CARTESIAN_POINT('Ctrl Pts',(-0.621801037418184,-0.154376691464355,
0.));
#446=CARTESIAN_POINT('Ctrl Pts',(-0.628390318956648,-0.174827196931045,
0.));
#447=CARTESIAN_POINT('Ctrl Pts',(-0.635098397614709,-0.195666739513262,
0.));
#448=CARTESIAN_POINT('Ctrl Pts',(-0.641802309722013,-0.216913708528478,
0.));
#449=CARTESIAN_POINT('Ctrl Pts',(-0.648387910735127,-0.238576865879829,
0.));
#450=CARTESIAN_POINT('Ctrl Pts',(-0.654748899373358,-0.260656228090881,
0.));
#451=CARTESIAN_POINT('Ctrl Pts',(-0.660785589815463,-0.283144157999013,
0.));
#452=CARTESIAN_POINT('Ctrl Pts',(-0.666403652185531,-0.306026500965284,
0.));
#453=CARTESIAN_POINT('Ctrl Pts',(-0.671513405621946,-0.329283183377196,
0.));
#454=CARTESIAN_POINT('Ctrl Pts',(-0.676029817749893,-0.352888138417594,
0.));
#455=CARTESIAN_POINT('Ctrl Pts',(-0.679872309903847,-0.376809410214182,
0.));
#456=CARTESIAN_POINT('Ctrl Pts',(-0.682964652193022,-0.401009188099148,
0.));
#457=CARTESIAN_POINT('Ctrl Pts',(-0.685234797056152,-0.425443861133978,
0.));
#458=CARTESIAN_POINT('Ctrl Pts',(-0.686614816652838,-0.45006409231083,0.));
#459=CARTESIAN_POINT('Ctrl Pts',(-0.687041046590088,-0.474814978836323,
0.));
#460=CARTESIAN_POINT('Ctrl Pts',(-0.686454191917036,-0.499636193562504,
0.));
#461=CARTESIAN_POINT('Ctrl Pts',(-0.684799446652988,-0.524462133302688,
0.));
#462=CARTESIAN_POINT('Ctrl Pts',(-0.682026612660004,-0.549222063661727,
0.));
#463=CARTESIAN_POINT('Ctrl Pts',(-0.678090207002653,-0.573840264072017,
0.));
#464=CARTESIAN_POINT('Ctrl Pts',(-0.672950130622793,-0.598236289148312,
0.));
#465=CARTESIAN_POINT('Ctrl Pts',(-0.666572354249827,-0.622325247045483,
0.));
#466=CARTESIAN_POINT('Ctrl Pts',(-0.658929598226038,-0.646018044339628,
0.));
#467=CARTESIAN_POINT('Ctrl Pts',(-0.650002016824998,-0.669221705314287,
0.));
#468=CARTESIAN_POINT('Ctrl Pts',(-0.639777879083544,-0.691839506801987,
0.));
#469=CARTESIAN_POINT('Ctrl Pts',(-0.628254259276282,-0.713771892438575,
0.));
#470=CARTESIAN_POINT('Ctrl Pts',(-0.615437717167166,-0.734917897778537,
0.));
#471=CARTESIAN_POINT('Ctrl Pts',(-0.601345008200437,-0.755176415039162,
0.));
#472=CARTESIAN_POINT('Ctrl Pts',(-0.586003725904539,-0.774447539884084,
0.));
#473=CARTESIAN_POINT('Ctrl Pts',(-0.569453110278222,-0.792633845330731,
0.));
#474=CARTESIAN_POINT('Ctrl Pts',(-0.551744353280565,-0.809641808177894,
0.));
#475=CARTESIAN_POINT('Ctrl Pts',(-0.532939520913915,-0.825383617163593,
0.));
#476=CARTESIAN_POINT('Ctrl Pts',(-0.513110730247937,-0.83977891305872,0.));
#477=CARTESIAN_POINT('Ctrl Pts',(-0.492339227229856,-0.852756556121295,
0.));
#478=CARTESIAN_POINT('Ctrl Pts',(-0.470714507147381,-0.864256383878458,
0.));
#479=CARTESIAN_POINT('Ctrl Pts',(-0.448333419874223,-0.874230972373962,
0.));
#480=CARTESIAN_POINT('Ctrl Pts',(-0.425298197207764,-0.882645530424542,
0.));
#481=CARTESIAN_POINT('Ctrl Pts',(-0.401714490816669,-0.889477782430376,
0.));
#482=CARTESIAN_POINT('Ctrl Pts',(-0.377689380485724,-0.894717883287706,
0.));
#483=CARTESIAN_POINT('Ctrl Pts',(-0.353329455662563,-0.898368261060112,
0.));
#484=CARTESIAN_POINT('Ctrl Pts',(-0.328738710588485,-0.900443646403123,
0.));
#485=CARTESIAN_POINT('Ctrl Pts',(-0.304017461720956,-0.90097009478831,0.));
#486=CARTESIAN_POINT('Ctrl Pts',(-0.279261648690447,-0.899983649466664,
0.));
#487=CARTESIAN_POINT('Ctrl Pts',(-0.254561989153626,-0.897529111738711,
0.));
#488=CARTESIAN_POINT('Ctrl Pts',(-0.230003238588256,-0.893658793539041,
0.));
#489=CARTESIAN_POINT('Ctrl Pts',(-0.205663296232921,-0.888431215763501,
0.));
#490=CARTESIAN_POINT('Ctrl Pts',(-0.181612758556795,-0.881910053173567,
0.));
#491=CARTESIAN_POINT('Ctrl Pts',(-0.157915142899428,-0.874163477357772,
0.));
#492=CARTESIAN_POINT('Ctrl Pts',(-0.13462695311998,-0.86526340445149,0.));
#493=CARTESIAN_POINT('Ctrl Pts',(-0.111797807436625,-0.855284783950364,
0.));
#494=CARTESIAN_POINT('Ctrl Pts',(-0.0894705403167803,-0.844304865515719,
0.));
#495=CARTESIAN_POINT('Ctrl Pts',(-0.0676813104745941,-0.832402489207815,
0.));
#496=CARTESIAN_POINT('Ctrl Pts',(-0.0464595289459565,-0.819657919991556,
0.));
#497=CARTESIAN_POINT('Ctrl Pts',(-0.0258277930980978,-0.806152672374685,
0.));
#498=CARTESIAN_POINT('Ctrl Pts',(-0.00580181794833276,-0.791969332735539,
0.));
#499=CARTESIAN_POINT('Ctrl Pts',(0.0136096333213987,-0.777191396813443,
0.));
#500=CARTESIAN_POINT('Ctrl Pts',(0.0324048163110955,-0.761903065095987,
0.));
#501=CARTESIAN_POINT('Ctrl Pts',(0.0505891009672962,-0.746189259939028,
0.));
#502=CARTESIAN_POINT('Ctrl Pts',(0.0681751020255529,-0.73013574245006,0.));
#503=CARTESIAN_POINT('Ctrl Pts',(0.0851827611474213,-0.713829186234395,
0.));
#504=CARTESIAN_POINT('Ctrl Pts',(0.101639534505338,-0.697357294002673,0.));
#505=CARTESIAN_POINT('Ctrl Pts',(0.117580328760353,-0.680808835143244,0.));
#506=CARTESIAN_POINT('Ctrl Pts',(0.133048372846244,-0.664273958691017,0.));
#507=CARTESIAN_POINT('Ctrl Pts',(0.14809683171319,-0.64784471599375,0.));
#508=CARTESIAN_POINT('Ctrl Pts',(0.162790365663607,-0.631615578174189,0.));
#509=CARTESIAN_POINT('Ctrl Pts',(0.177206382148761,-0.615683840235862,0.));
#510=CARTESIAN_POINT('Ctrl Pts',(0.191437251120056,-0.60015036257966,0.));
#511=CARTESIAN_POINT('Ctrl Pts',(0.205587910324879,-0.585118759480478,0.));
#512=CARTESIAN_POINT('Ctrl Pts',(0.219771108090421,-0.570693940759687,0.));
#513=CARTESIAN_POINT('Ctrl Pts',(0.234103324911616,-0.556980590727149,0.));
#514=CARTESIAN_POINT('Ctrl Pts',(0.248700550408012,-0.544082274176746,0.));
#515=CARTESIAN_POINT('Ctrl Pts',(0.263673716867835,-0.53209848818851,0.));
#516=CARTESIAN_POINT('Ctrl Pts',(0.279121557760757,-0.521110642055436,0.));
#517=CARTESIAN_POINT('Ctrl Pts',(0.29512381120406,-0.511169435528812,0.));
#518=CARTESIAN_POINT('Ctrl Pts',(0.311734275322033,-0.502281680792422,0.));
#519=CARTESIAN_POINT('Ctrl Pts',(0.328973949652609,-0.494397381212066,0.));
#520=CARTESIAN_POINT('Ctrl Pts',(0.346838795981849,-0.487422131676885,0.));
#521=CARTESIAN_POINT('Ctrl Pts',(0.36530767852875,-0.481229721847441,0.));
#522=CARTESIAN_POINT('Ctrl Pts',(0.384349896438515,-0.475674333004011,0.));
#523=CARTESIAN_POINT('Ctrl Pts',(0.403933754778476,-0.470603732792548,0.));
#524=CARTESIAN_POINT('Ctrl Pts',(0.424026834524382,-0.465864703990465,0.));
#525=CARTESIAN_POINT('Ctrl Pts',(0.444594655269419,-0.461307148771496,0.));
#526=CARTESIAN_POINT('Ctrl Pts',(0.465599953293023,-0.456788381243139,0.));
#527=CARTESIAN_POINT('Ctrl Pts',(0.487001565901491,-0.452177976480489,0.));
#528=CARTESIAN_POINT('Ctrl Pts',(0.508753936875739,-0.447360250162541,0.));
#529=CARTESIAN_POINT('Ctrl Pts',(0.530807581974751,-0.442231969263415,0.));
#530=CARTESIAN_POINT('Ctrl Pts',(0.553109364868003,-0.436701065911787,0.));
#531=CARTESIAN_POINT('Ctrl Pts',(0.575602828668029,-0.430685028235373,0.));
#532=CARTESIAN_POINT('Ctrl Pts',(0.598228550159965,-0.424109241484769,0.));
#533=CARTESIAN_POINT('Ctrl Pts',(0.620924304654634,-0.416906076561827,0.));
#534=CARTESIAN_POINT('Ctrl Pts',(0.64362500143878,-0.40901492667839,0.));
#535=CARTESIAN_POINT('Ctrl Pts',(0.666262676582431,-0.400381986599256,0.));
#536=CARTESIAN_POINT('Ctrl Pts',(0.688766470141338,-0.390960144636386,0.));
#537=CARTESIAN_POINT('Ctrl Pts',(0.711062590154234,-0.380708811240701,0.));
#538=CARTESIAN_POINT('Ctrl Pts',(0.733074345598782,-0.369593827680719,0.));
#539=CARTESIAN_POINT('Ctrl Pts',(0.754722357064674,-0.357587510371487,0.));
#540=CARTESIAN_POINT('Ctrl Pts',(0.77592473223381,-0.344668671953213,0.));
#541=CARTESIAN_POINT('Ctrl Pts',(0.796597254089598,-0.330822650647675,0.));
#542=CARTESIAN_POINT('Ctrl Pts',(0.816653565779953,-0.316041340789762,0.));
#543=CARTESIAN_POINT('Ctrl Pts',(0.836005349902032,-0.300323213285751,0.));
#544=CARTESIAN_POINT('Ctrl Pts',(0.854562889179529,-0.28367376402525,0.));
#545=CARTESIAN_POINT('Ctrl Pts',(0.872235650482693,-0.266105968718016,0.));
#546=CARTESIAN_POINT('Ctrl Pts',(0.88893283681426,-0.247640749199414,0.));
#547=CARTESIAN_POINT('Ctrl Pts',(0.904564005978629,-0.228307406424431,0.));
#548=CARTESIAN_POINT('Ctrl Pts',(0.919039527774033,-0.208144142664692,0.));
#549=CARTESIAN_POINT('Ctrl Pts',(0.93227172099731,-0.187198202349755,0.));
#550=CARTESIAN_POINT('Ctrl Pts',(0.944176427755711,-0.165525748624606,0.));
#551=CARTESIAN_POINT('Ctrl Pts',(0.954674463863052,-0.143191846020964,0.));
#552=CARTESIAN_POINT('Ctrl Pts',(0.963693106390198,-0.120270343403629,0.));
#553=CARTESIAN_POINT('Ctrl Pts',(0.971167601094892,-0.0968439370996503,
0.));
#554=CARTESIAN_POINT('Ctrl Pts',(0.977042550487954,-0.0730037222466597,
0.));
#555=CARTESIAN_POINT('Ctrl Pts',(0.981272940788493,-0.0488473552103898,
0.));
#556=CARTESIAN_POINT('Ctrl Pts',(0.983314778072887,-0.0293514476978776,
0.));
#557=CARTESIAN_POINT('Ctrl Pts',(0.984081570244595,-0.0146811031704028,
0.));
#558=CARTESIAN_POINT('Ctrl Pts',(0.984251968503914,-0.00489370105680084,
0.));
#559=CARTESIAN_POINT('Ctrl Pts',(0.984251968503937,0.,0.));
#560=CARTESIAN_POINT('Ctrl Pts',(0.984251968503937,0.,0.));
#561=CARTESIAN_POINT('Ctrl Pts',(1.06299212598425,0.,0.3937008));
#562=CARTESIAN_POINT('Ctrl Pts',(1.14173228346457,0.,0.7874016));
#563=CARTESIAN_POINT('Ctrl Pts',(1.22047244094488,0.,1.1811024));
#564=CARTESIAN_POINT('Ctrl Pts',(0.984251968504105,0.034955007548558,0.));
#565=CARTESIAN_POINT('Ctrl Pts',(1.06311972916082,0.0387815771585728,0.3937008));
#566=CARTESIAN_POINT('Ctrl Pts',(1.14160468028832,0.0427263432425806,0.7874016));
#567=CARTESIAN_POINT('Ctrl Pts',(1.22047244094503,0.0465529128525955,1.1811024));
#568=CARTESIAN_POINT('Ctrl Pts',(0.973693702475016,0.104853934044282,0.));
#569=CARTESIAN_POINT('Ctrl Pts',(1.04475220155452,0.11643909244842,0.3937008));
#570=CARTESIAN_POINT('Ctrl Pts',(1.11591646173321,0.127942897681862,0.787401599999998));
#571=CARTESIAN_POINT('Ctrl Pts',(1.18697496081271,0.139528056086,1.1811024));
#572=CARTESIAN_POINT('Ctrl Pts',(0.928481570093933,0.201442245562756,0.));
#573=CARTESIAN_POINT('Ctrl Pts',(0.976218706429346,0.215159836520196,0.393700799999999));
#574=CARTESIAN_POINT('Ctrl Pts',(1.02383537698614,0.22890774853148,0.7874016));
#575=CARTESIAN_POINT('Ctrl Pts',(1.07157251332156,0.24262533948892,1.1811024));
#576=CARTESIAN_POINT('Ctrl Pts',(0.859662433471109,0.283833815170349,0.));
#577=CARTESIAN_POINT('Ctrl Pts',(0.882469483267182,0.2932063737075,0.393700800000001));
#578=CARTESIAN_POINT('Ctrl Pts',(0.905262317985433,0.30262724439112,0.787401599999999));
#579=CARTESIAN_POINT('Ctrl Pts',(0.928069367781505,0.311999802928271,1.1811024));
#580=CARTESIAN_POINT('Ctrl Pts',(0.788588963846272,0.338306090415206,0.));
#581=CARTESIAN_POINT('Ctrl Pts',(0.794221684514813,0.341691098835282,0.393700799999999));
#582=CARTESIAN_POINT('Ctrl Pts',(0.799847766884795,0.34498772957834,0.7874016));
#583=CARTESIAN_POINT('Ctrl Pts',(0.805480487553337,0.348372737998416,1.1811024));
#584=CARTESIAN_POINT('Ctrl Pts',(0.726995435571101,0.373315538010852,0.));
#585=CARTESIAN_POINT('Ctrl Pts',(0.723363729558914,0.373231325635679,0.3937008));
#586=CARTESIAN_POINT('Ctrl Pts',(0.719698842017586,0.373236092922828,0.787401600000001));
#587=CARTESIAN_POINT('Ctrl Pts',(0.7160671360054,0.373151880547654,1.1811024));
#588=CARTESIAN_POINT('Ctrl Pts',(0.679233378330697,0.395524923195062,0.));
#589=CARTESIAN_POINT('Ctrl Pts',(0.671453289291599,0.395857748333965,0.393700799999999));
#590=CARTESIAN_POINT('Ctrl Pts',(0.663675884715088,0.396134219085292,0.787401600000001));
#591=CARTESIAN_POINT('Ctrl Pts',(0.65589579567599,0.396467044224194,1.1811024));
#592=CARTESIAN_POINT('Ctrl Pts',(0.630670409943851,0.413980546436286,0.));
#593=CARTESIAN_POINT('Ctrl Pts',(0.623379905108668,0.419173462112057,0.3937008));
#594=CARTESIAN_POINT('Ctrl Pts',(0.616054941546636,0.424398494634403,0.787401600000003));
#595=CARTESIAN_POINT('Ctrl Pts',(0.608764436711453,0.429591410310174,1.1811024));
#596=CARTESIAN_POINT('Ctrl Pts',(0.565773688680184,0.434250323806383,0.));
#597=CARTESIAN_POINT('Ctrl Pts',(0.568467864717009,0.453845774692656,0.3937008));
#598=CARTESIAN_POINT('Ctrl Pts',(0.571193581329924,0.473427626552024,0.787401599999999));
#599=CARTESIAN_POINT('Ctrl Pts',(0.57388775736675,0.493023077438296,1.1811024));
#600=CARTESIAN_POINT('Ctrl Pts',(0.485997239545683,0.452808414532476,0.));
#601=CARTESIAN_POINT('Ctrl Pts',(0.517109045208417,0.503643618048184,0.3937008));
#602=CARTESIAN_POINT('Ctrl Pts',(0.548114621336827,0.554450194805307,0.787401600000003));
#603=CARTESIAN_POINT('Ctrl Pts',(0.579226426999561,0.605285398321015,1.1811024));
#604=CARTESIAN_POINT('Ctrl Pts',(0.400137666724826,0.470353370399359,0.));
#605=CARTESIAN_POINT('Ctrl Pts',(0.461302349894074,0.563302933477869,0.3937008));
#606=CARTESIAN_POINT('Ctrl Pts',(0.522556896955992,0.656272795295622,0.787401599999999));
#607=CARTESIAN_POINT('Ctrl Pts',(0.58372158012524,0.749222358374131,1.1811024));
#608=CARTESIAN_POINT('Ctrl Pts',(0.325904669873397,0.493012913563749,0.));
#609=CARTESIAN_POINT('Ctrl Pts',(0.407336191982571,0.626897062260597,0.3937008));
#610=CARTESIAN_POINT('Ctrl Pts',(0.488763969195839,0.760761224617453,0.787401599999999));
#611=CARTESIAN_POINT('Ctrl Pts',(0.570195491305013,0.894645373314301,1.1811024));
#612=CARTESIAN_POINT('Ctrl Pts',(0.263984771549863,0.528707128182094,0.));
#613=CARTESIAN_POINT('Ctrl Pts',(0.352998020575331,0.695589432380007,0.3937008));
#614=CARTESIAN_POINT('Ctrl Pts',(0.441997079784289,0.862458812255686,0.7874016));
#615=CARTESIAN_POINT('Ctrl Pts',(0.531010328809756,1.0293411164536,1.1811024));
#616=CARTESIAN_POINT('Ctrl Pts',(0.214042485136044,0.575327642307204,0.));
#617=CARTESIAN_POINT('Ctrl Pts',(0.294807529722963,0.758846120695266,0.3937008));
#618=CARTESIAN_POINT('Ctrl Pts',(0.375692559028526,0.942384727002958,0.7874016));
#619=CARTESIAN_POINT('Ctrl Pts',(0.456457603615446,1.12590320539102,1.1811024));
#620=CARTESIAN_POINT('Ctrl Pts',(0.16924971074892,0.624353543636981,0.));
#621=CARTESIAN_POINT('Ctrl Pts',(0.233046054527217,0.806912534301751,0.3937008));
#622=CARTESIAN_POINT('Ctrl Pts',(0.296867885609808,0.989441089899998,0.787401599999999));
#623=CARTESIAN_POINT('Ctrl Pts',(0.360664229388105,1.17200008056477,1.1811024));
#624=CARTESIAN_POINT('Ctrl Pts',(0.11290940867026,0.686924788446108,0.));
#625=CARTESIAN_POINT('Ctrl Pts',(0.15265169572687,0.849228808123988,0.3937008));
#626=CARTESIAN_POINT('Ctrl Pts',(0.192580248496156,1.01159928471918,0.7874016));
#627=CARTESIAN_POINT('Ctrl Pts',(0.232322535552765,1.17390330439706,1.1811024));
#628=CARTESIAN_POINT('Ctrl Pts',(0.0490220085310228,0.750502837432518,0.));
#629=CARTESIAN_POINT('Ctrl Pts',(0.0695578142297694,0.867467248649168,0.3937008));
#630=CARTESIAN_POINT('Ctrl Pts',(0.0900753804848062,0.984426920988889,0.787401599999999));
#631=CARTESIAN_POINT('Ctrl Pts',(0.110611186183553,1.10139133220554,1.1811024));
#632=CARTESIAN_POINT('Ctrl Pts',(-0.0251558266772509,0.806903206467063,
0.));
#633=CARTESIAN_POINT('Ctrl Pts',(-0.012359250563115,0.871909624950635,0.3937008));
#634=CARTESIAN_POINT('Ctrl Pts',(0.000249626997918715,0.93690402651083,
0.787401599999999));
#635=CARTESIAN_POINT('Ctrl Pts',(0.0130462031120546,1.0019104449944,1.1811024));
#636=CARTESIAN_POINT('Ctrl Pts',(-0.0857013541376614,0.843673444268347,
0.));
#637=CARTESIAN_POINT('Ctrl Pts',(-0.0743588186826336,0.869537795014407,
0.3937008));
#638=CARTESIAN_POINT('Ctrl Pts',(-0.0630385648521539,0.895404408275225,
0.7874016));
#639=CARTESIAN_POINT('Ctrl Pts',(-0.0516960293971261,0.921268759021284,
1.1811024));
#640=CARTESIAN_POINT('Ctrl Pts',(-0.150738041540147,0.872988751140642,0.));
#641=CARTESIAN_POINT('Ctrl Pts',(-0.136029748828509,0.861456850136798,0.3937008));
#642=CARTESIAN_POINT('Ctrl Pts',(-0.121441226086606,0.849946631569033,0.787401599999998));
#643=CARTESIAN_POINT('Ctrl Pts',(-0.106732933374969,0.838414730565189,1.1811024));
#644=CARTESIAN_POINT('Ctrl Pts',(-0.219248250615899,0.893071272958461,0.));
#645=CARTESIAN_POINT('Ctrl Pts',(-0.198242760028346,0.84914321415531,0.393700799999999));
#646=CARTESIAN_POINT('Ctrl Pts',(-0.177234456241372,0.805182908636174,0.7874016));
#647=CARTESIAN_POINT('Ctrl Pts',(-0.156228965653819,0.761254849833023,1.1811024));
#648=CARTESIAN_POINT('Ctrl Pts',(-0.28984146759608,0.902223635601308,0.));
#649=CARTESIAN_POINT('Ctrl Pts',(-0.264858763895745,0.838470216683793,0.393700800000001));
#650=CARTESIAN_POINT('Ctrl Pts',(-0.239958645318556,0.774769884887988,0.7874016));
#651=CARTESIAN_POINT('Ctrl Pts',(-0.214975941618221,0.711016465970472,1.1811024));
#652=CARTESIAN_POINT('Ctrl Pts',(-0.384171709353252,0.898321812431806,0.));
#653=CARTESIAN_POINT('Ctrl Pts',(-0.36103463287785,0.831998435582053,0.393700799999999));
#654=CARTESIAN_POINT('Ctrl Pts',(-0.337885072376225,0.765630549983892,0.7874016));
#655=CARTESIAN_POINT('Ctrl Pts',(-0.314747995900823,0.699307173134139,1.1811024));
#656=CARTESIAN_POINT('Ctrl Pts',(-0.496848824163863,0.86060666869574,0.));
#657=CARTESIAN_POINT('Ctrl Pts',(-0.48361145486796,0.828573386922664,0.393700800000001));
#658=CARTESIAN_POINT('Ctrl Pts',(-0.470438739618809,0.796591577735666,0.787401600000002));
#659=CARTESIAN_POINT('Ctrl Pts',(-0.457201370322906,0.76455829596259,1.1811024));
#660=CARTESIAN_POINT('Ctrl Pts',(-0.585880320634306,0.781865736429917,0.));
#661=CARTESIAN_POINT('Ctrl Pts',(-0.599510513578124,0.79212778232874,0.393700799999999));
#662=CARTESIAN_POINT('Ctrl Pts',(-0.613172792501612,0.802428644001505,0.787401600000001));
#663=CARTESIAN_POINT('Ctrl Pts',(-0.62680298544543,0.812690689900328,1.1811024));
#664=CARTESIAN_POINT('Ctrl Pts',(-0.636440051730817,0.702135561136093,0.));
#665=CARTESIAN_POINT('Ctrl Pts',(-0.679473385786955,0.742265986246519,0.3937008));
#666=CARTESIAN_POINT('Ctrl Pts',(-0.722432770053267,0.782329321006955,0.787401600000001));
#667=CARTESIAN_POINT('Ctrl Pts',(-0.765466104109405,0.82245974611738,1.1811024));
#668=CARTESIAN_POINT('Ctrl Pts',(-0.663803960320576,0.636418994152388,0.));
#669=CARTESIAN_POINT('Ctrl Pts',(-0.731343279604073,0.693387811419105,0.3937008));
#670=CARTESIAN_POINT('Ctrl Pts',(-0.798893374320308,0.750359289153594,0.787401600000001));
#671=CARTESIAN_POINT('Ctrl Pts',(-0.866432693603804,0.807328106420311,1.1811024));
#672=CARTESIAN_POINT('Ctrl Pts',(-0.680663675319497,0.567045300895821,0.));
#673=CARTESIAN_POINT('Ctrl Pts',(-0.771654574720537,0.632418434816787,0.393700799999999));
#674=CARTESIAN_POINT('Ctrl Pts',(-0.862591194793723,0.697740690055578,0.7874016));
#675=CARTESIAN_POINT('Ctrl Pts',(-0.953582094194763,0.763113823976544,1.1811024));
#676=CARTESIAN_POINT('Ctrl Pts',(-0.687792123178856,0.496067009855434,0.));
#677=CARTESIAN_POINT('Ctrl Pts',(-0.795892235133053,0.560198971169702,0.3937008));
#678=CARTESIAN_POINT('Ctrl Pts',(-0.904052484470672,0.624398553410059,0.787401599999999));
#679=CARTESIAN_POINT('Ctrl Pts',(-1.01215259642487,0.688530514724327,1.1811024));
#680=CARTESIAN_POINT('Ctrl Pts',(-0.686216033885688,0.425243450850335,0.));
#681=CARTESIAN_POINT('Ctrl Pts',(-0.802572702143507,0.481487026995139,0.3937008));
#682=CARTESIAN_POINT('Ctrl Pts',(-0.918890025394359,0.537696092532263,0.787401600000001));
#683=CARTESIAN_POINT('Ctrl Pts',(-1.03524669365218,0.593939668677067,1.1811024));
#684=CARTESIAN_POINT('Ctrl Pts',(-0.674468539292065,0.332810361729276,0.));
#685=CARTESIAN_POINT('Ctrl Pts',(-0.790088347106718,0.375360021874205,0.3937008));
#686=CARTESIAN_POINT('Ctrl Pts',(-0.905775681841345,0.418012747318218,0.7874016));
#687=CARTESIAN_POINT('Ctrl Pts',(-1.021395489656,0.460562407463147,1.1811024));
#688=CARTESIAN_POINT('Ctrl Pts',(-0.651298077927436,0.245691865443524,0.));
#689=CARTESIAN_POINT('Ctrl Pts',(-0.75321296354029,0.274363722558346,0.3937008));
#690=CARTESIAN_POINT('Ctrl Pts',(-0.855129797071339,0.303006999222219,0.787401599999999));
#691=CARTESIAN_POINT('Ctrl Pts',(-0.957044682684193,0.331678856337042,1.1811024));
#692=CARTESIAN_POINT('Ctrl Pts',(-0.6253633540452,0.165591544183104,0.));
#693=CARTESIAN_POINT('Ctrl Pts',(-0.709794921252724,0.183532623314466,0.3937008));
#694=CARTESIAN_POINT('Ctrl Pts',(-0.794217733933014,0.201613009327787,0.787401600000001));
#695=CARTESIAN_POINT('Ctrl Pts',(-0.878649301140538,0.219554088459149,1.1811024));
#696=CARTESIAN_POINT('Ctrl Pts',(-0.601120021352873,0.0896558500305029,
0.));
#697=CARTESIAN_POINT('Ctrl Pts',(-0.666992138167359,0.0993616134650269,
0.3937008));
#698=CARTESIAN_POINT('Ctrl Pts',(-0.732831126677061,0.109054163722888,0.7874016));
#699=CARTESIAN_POINT('Ctrl Pts',(-0.798703243491547,0.118759927157412,1.1811024));
#700=CARTESIAN_POINT('Ctrl Pts',(-0.583436331019667,-3.03401877792964E-6,
0.));
#701=CARTESIAN_POINT('Ctrl Pts',(-0.62696916268033,1.85390726738146E-5,
0.3937008));
#702=CARTESIAN_POINT('Ctrl Pts',(-0.670453074019344,-5.46351402359787E-5,
0.787401599999999));
#703=CARTESIAN_POINT('Ctrl Pts',(-0.713985905680008,-3.30620487842345E-5,
1.1811024));
#704=CARTESIAN_POINT('Ctrl Pts',(-0.601183485318277,-0.0896516063546795,
0.));
#705=CARTESIAN_POINT('Ctrl Pts',(-0.667062027367335,-0.099367135287633,
0.3937008));
#706=CARTESIAN_POINT('Ctrl Pts',(-0.732961612680394,-0.108975574532378,
0.7874016));
#707=CARTESIAN_POINT('Ctrl Pts',(-0.798840154729451,-0.118691103465332,
1.1811024));
#708=CARTESIAN_POINT('Ctrl Pts',(-0.625386868511058,-0.165593989682852,
0.));
#709=CARTESIAN_POINT('Ctrl Pts',(-0.709815225232655,-0.183528596701308,
0.3937008));
#710=CARTESIAN_POINT('Ctrl Pts',(-0.794276859458029,-0.201602820683667,
0.787401599999999));
#711=CARTESIAN_POINT('Ctrl Pts',(-0.878705216179626,-0.219537427702122,
1.1811024));
#712=CARTESIAN_POINT('Ctrl Pts',(-0.65133921287799,-0.245679042747008,0.));
#713=CARTESIAN_POINT('Ctrl Pts',(-0.753250408938732,-0.274337789249866,
0.3937008));
#714=CARTESIAN_POINT('Ctrl Pts',(-0.855166902625777,-0.302967792089807,
0.7874016));
#715=CARTESIAN_POINT('Ctrl Pts',(-0.957078098686519,-0.331626538592664,
1.1811024));
#716=CARTESIAN_POINT('Ctrl Pts',(-0.674479343870204,-0.332802390966397,
0.));
#717=CARTESIAN_POINT('Ctrl Pts',(-0.79009458189296,-0.375357898641754,0.3937008));
#718=CARTESIAN_POINT('Ctrl Pts',(-0.905748854948394,-0.417987270466122,
0.787401599999998));
#719=CARTESIAN_POINT('Ctrl Pts',(-1.02136409297115,-0.460542778141479,1.1811024));
#720=CARTESIAN_POINT('Ctrl Pts',(-0.686217471506848,-0.425246989347351,
0.));
#721=CARTESIAN_POINT('Ctrl Pts',(-0.802576460887363,-0.481488549946283,
0.3937008));
#722=CARTESIAN_POINT('Ctrl Pts',(-0.918909544289576,-0.537714298939863,
0.787401600000001));
#723=CARTESIAN_POINT('Ctrl Pts',(-1.03526853367009,-0.593955859538796,1.1811024));
#724=CARTESIAN_POINT('Ctrl Pts',(-0.68779372036945,-0.496066499933933,0.));
#725=CARTESIAN_POINT('Ctrl Pts',(-0.795892310483542,-0.560199376291353,
0.3937008));
#726=CARTESIAN_POINT('Ctrl Pts',(-0.904026353633286,-0.62437327576293,0.787401599999999));
#727=CARTESIAN_POINT('Ctrl Pts',(-1.01212494374738,-0.68850615212035,1.1811024));
#728=CARTESIAN_POINT('Ctrl Pts',(-0.680661559915414,-0.567046718719279,
0.));
#729=CARTESIAN_POINT('Ctrl Pts',(-0.771654001834659,-0.632419977854189,
0.3937008));
#730=CARTESIAN_POINT('Ctrl Pts',(-0.862619884008464,-0.697788129098784,
0.787401599999999));
#731=CARTESIAN_POINT('Ctrl Pts',(-0.953612325927709,-0.763161388233695,
1.1811024));
#732=CARTESIAN_POINT('Ctrl Pts',(-0.663803066776417,-0.636421259952144,
0.));
#733=CARTESIAN_POINT('Ctrl Pts',(-0.731341058309794,-0.693389632636779,
0.3937008));
#734=CARTESIAN_POINT('Ctrl Pts',(-0.798906461867589,-0.750401719462115,
0.7874016));
#735=CARTESIAN_POINT('Ctrl Pts',(-0.866444453400965,-0.807370092146749,
1.1811024));
#736=CARTESIAN_POINT('Ctrl Pts',(-0.636427796246561,-0.702135110370883,
0.));
#737=CARTESIAN_POINT('Ctrl Pts',(-0.679462526941945,-0.742266393000924,
0.393700799999999));
#738=CARTESIAN_POINT('Ctrl Pts',(-0.722455166014311,-0.782383533797904,
0.787401600000002));
#739=CARTESIAN_POINT('Ctrl Pts',(-0.765489896709695,-0.822514816427945,
1.1811024));
#740=CARTESIAN_POINT('Ctrl Pts',(-0.585904005137105,-0.781882916476021,
0.));
#741=CARTESIAN_POINT('Ctrl Pts',(-0.599534886252846,-0.792150545591078,
0.393700800000001));
#742=CARTESIAN_POINT('Ctrl Pts',(-0.613166762931167,-0.802453414695382,
0.787401599999999));
#743=CARTESIAN_POINT('Ctrl Pts',(-0.626797644046909,-0.812721043810439,
1.1811024));
#744=CARTESIAN_POINT('Ctrl Pts',(-0.496860796489874,-0.860614018666144,
0.));
#745=CARTESIAN_POINT('Ctrl Pts',(-0.483615541737588,-0.828562963180458,
0.393700799999999));
#746=CARTESIAN_POINT('Ctrl Pts',(-0.470437751585591,-0.79662298275924,0.787401600000002));
#747=CARTESIAN_POINT('Ctrl Pts',(-0.457192496833305,-0.764571927273554,
1.1811024));
#748=CARTESIAN_POINT('Ctrl Pts',(-0.38417226642714,-0.898312853827218,0.));
#749=CARTESIAN_POINT('Ctrl Pts',(-0.361042939506461,-0.832003135817669,
0.393700800000001));
#750=CARTESIAN_POINT('Ctrl Pts',(-0.337856247952173,-0.765549530416714,
0.787401599999999));
#751=CARTESIAN_POINT('Ctrl Pts',(-0.314726921031494,-0.699239812407165,
1.1811024));
#752=CARTESIAN_POINT('Ctrl Pts',(-0.289847463476086,-0.902218085803705,
0.));
#753=CARTESIAN_POINT('Ctrl Pts',(-0.26486622074208,-0.838457834390885,0.393700799999999));
#754=CARTESIAN_POINT('Ctrl Pts',(-0.239945465714889,-0.774738399286341,
0.787401600000001));
#755=CARTESIAN_POINT('Ctrl Pts',(-0.214964222980882,-0.710978147873522,
1.1811024));
#756=CARTESIAN_POINT('Ctrl Pts',(-0.22513571743849,-0.893831676089937,0.));
#757=CARTESIAN_POINT('Ctrl Pts',(-0.203785261761663,-0.848253986962953,
0.3937008));
#758=CARTESIAN_POINT('Ctrl Pts',(-0.182403457157622,-0.802598943835809,
0.787401600000001));
#759=CARTESIAN_POINT('Ctrl Pts',(-0.161053001480794,-0.757021254708826,
1.1811024));
#760=CARTESIAN_POINT('Ctrl Pts',(-0.167824410823391,-0.878233082464455,
0.));
#761=CARTESIAN_POINT('Ctrl Pts',(-0.151521900633551,-0.858347194690129,
0.3937008));
#762=CARTESIAN_POINT('Ctrl Pts',(-0.135243792046682,-0.838460059905411,
0.787401600000001));
#763=CARTESIAN_POINT('Ctrl Pts',(-0.118941281856842,-0.818574172131085,
1.1811024));
#764=CARTESIAN_POINT('Ctrl Pts',(-0.101404884089163,-0.852281034427831,
0.));
#765=CARTESIAN_POINT('Ctrl Pts',(-0.0897817638874356,-0.86830516458859,
0.3937008));
#766=CARTESIAN_POINT('Ctrl Pts',(-0.078155836395048,-0.884308212705356,
0.787401600000001));
#767=CARTESIAN_POINT('Ctrl Pts',(-0.0665327161933201,-0.900332342866116,
1.1811024));
#768=CARTESIAN_POINT('Ctrl Pts',(-0.0240830983638152,-0.808058560892662,
0.));
#769=CARTESIAN_POINT('Ctrl Pts',(-0.0124047191864026,-0.873098480023559,
0.3937008));
#770=CARTESIAN_POINT('Ctrl Pts',(-0.000701567835461315,-0.937982901311642,
0.787401599999998));
#771=CARTESIAN_POINT('Ctrl Pts',(0.0109768113419513,-1.00302282044254,1.1811024));
#772=CARTESIAN_POINT('Ctrl Pts',(0.0573681165953891,-0.742527893497727,
0.));
#773=CARTESIAN_POINT('Ctrl Pts',(0.0799542293335384,-0.86603085329035,0.3937008));
#774=CARTESIAN_POINT('Ctrl Pts',(0.102483741064232,-0.989587336790124,0.7874016));
#775=CARTESIAN_POINT('Ctrl Pts',(0.125069853802381,-1.11309029658275,1.1811024));
#776=CARTESIAN_POINT('Ctrl Pts',(0.127770591708457,-0.671162086564731,0.));
#777=CARTESIAN_POINT('Ctrl Pts',(0.173100446436431,-0.841330261355289,0.3937008));
#778=CARTESIAN_POINT('Ctrl Pts',(0.218517334108587,-1.01150870094893,0.7874016));
#779=CARTESIAN_POINT('Ctrl Pts',(0.263847188836561,-1.18167687573949,1.1811024));
#780=CARTESIAN_POINT('Ctrl Pts',(0.189741763589009,-0.601014552938848,0.));
#781=CARTESIAN_POINT('Ctrl Pts',(0.262937260337726,-0.788707389274614,0.3937008));
#782=CARTESIAN_POINT('Ctrl Pts',(0.336178050175893,-0.976394897335125,0.787401599999999));
#783=CARTESIAN_POINT('Ctrl Pts',(0.409373546924609,-1.16408773367089,1.1811024));
#784=CARTESIAN_POINT('Ctrl Pts',(0.249624510839718,-0.539591132028686,0.));
#785=CARTESIAN_POINT('Ctrl Pts',(0.338818402091599,-0.713401409156069,0.3937008));
#786=CARTESIAN_POINT('Ctrl Pts',(0.428032804662332,-0.887258782635423,0.7874016));
#787=CARTESIAN_POINT('Ctrl Pts',(0.517226695914213,-1.06106905976281,1.1811024));
#788=CARTESIAN_POINT('Ctrl Pts',(0.317172353367554,-0.495843620248114,0.));
#789=CARTESIAN_POINT('Ctrl Pts',(0.400857190978668,-0.634721735641829,0.3937008));
#790=CARTESIAN_POINT('Ctrl Pts',(0.484478144306719,-0.77358050665351,0.787401600000001));
#791=CARTESIAN_POINT('Ctrl Pts',(0.568162981917833,-0.912458622047224,1.1811024));
#792=CARTESIAN_POINT('Ctrl Pts',(0.396835070888139,-0.471019644844119,0.));
#793=CARTESIAN_POINT('Ctrl Pts',(0.459148120968625,-0.565554314770891,0.3937008));
#794=CARTESIAN_POINT('Ctrl Pts',(0.521532180649827,-0.660151676743674,0.7874016));
#795=CARTESIAN_POINT('Ctrl Pts',(0.583845230730313,-0.754686346670447,1.1811024));
#796=CARTESIAN_POINT('Ctrl Pts',(0.485992221143178,-0.452800959525639,0.));
#797=CARTESIAN_POINT('Ctrl Pts',(0.517107892606447,-0.503655079537587,0.393700799999999));
#798=CARTESIAN_POINT('Ctrl Pts',(0.548106529519613,-0.5544588464432,0.7874016));
#799=CARTESIAN_POINT('Ctrl Pts',(0.579222200982882,-0.605312966455149,1.1811024));
#800=CARTESIAN_POINT('Ctrl Pts',(0.565772732401189,-0.434246590236608,0.));
#801=CARTESIAN_POINT('Ctrl Pts',(0.568464645363691,-0.45383069831805,0.3937008));
#802=CARTESIAN_POINT('Ctrl Pts',(0.571180967418791,-0.473423472054201,0.7874016));
#803=CARTESIAN_POINT('Ctrl Pts',(0.573872880381294,-0.493007580135643,1.1811024));
#804=CARTESIAN_POINT('Ctrl Pts',(0.630669176143078,-0.413977826032939,0.));
#805=CARTESIAN_POINT('Ctrl Pts',(0.623379744899801,-0.419176141297167,0.3937008));
#806=CARTESIAN_POINT('Ctrl Pts',(0.616047431384422,-0.424391894924142,0.787401600000001));
#807=CARTESIAN_POINT('Ctrl Pts',(0.608758000141145,-0.42959021018837,1.1811024));
#808=CARTESIAN_POINT('Ctrl Pts',(0.679232626687692,-0.395522842339507,0.));
#809=CARTESIAN_POINT('Ctrl Pts',(0.671451963524618,-0.395852778108439,0.3937008));
#810=CARTESIAN_POINT('Ctrl Pts',(0.663669960285004,-0.396132581023717,0.7874016));
#811=CARTESIAN_POINT('Ctrl Pts',(0.65588929712193,-0.396462516792649,1.1811024));
#812=CARTESIAN_POINT('Ctrl Pts',(0.726994775515063,-0.37331393633691,0.));
#813=CARTESIAN_POINT('Ctrl Pts',(0.723363312584696,-0.373230947478547,0.3937008));
#814=CARTESIAN_POINT('Ctrl Pts',(0.719694265177812,-0.373232915919457,0.787401600000001));
#815=CARTESIAN_POINT('Ctrl Pts',(0.716062802247445,-0.373149927061094,1.1811024));
#816=CARTESIAN_POINT('Ctrl Pts',(0.78858854610497,-0.338304993565185,0.));
#817=CARTESIAN_POINT('Ctrl Pts',(0.794221134574764,-0.341689336568099,0.3937008));
#818=CARTESIAN_POINT('Ctrl Pts',(0.79984465021539,-0.344986413223235,0.7874016));
#819=CARTESIAN_POINT('Ctrl Pts',(0.805477238685184,-0.348370756226149,1.1811024));
#820=CARTESIAN_POINT('Ctrl Pts',(0.859662155002776,-0.283833130814179,0.));
#821=CARTESIAN_POINT('Ctrl Pts',(0.882469280393098,-0.293206069853705,0.3937008));
#822=CARTESIAN_POINT('Ctrl Pts',(0.90526036150979,-0.30262596236496,0.7874016));
#823=CARTESIAN_POINT('Ctrl Pts',(0.928067486900112,-0.311998901404486,1.1811024));
#824=CARTESIAN_POINT('Ctrl Pts',(0.928481433826149,-0.201441891465068,0.));
#825=CARTESIAN_POINT('Ctrl Pts',(0.976218527747684,-0.215159268932804,0.3937008));
#826=CARTESIAN_POINT('Ctrl Pts',(1.02383438210874,-0.22890734869854,0.7874016));
#827=CARTESIAN_POINT('Ctrl Pts',(1.07157147603027,-0.242624726166275,1.1811024));
#828=CARTESIAN_POINT('Ctrl Pts',(0.973693633394816,-0.104853764071684,0.));
#829=CARTESIAN_POINT('Ctrl Pts',(1.04475216370915,-0.116439079695934,0.3937008));
#830=CARTESIAN_POINT('Ctrl Pts',(1.11591596266897,-0.127942514998857,0.787401600000001));
#831=CARTESIAN_POINT('Ctrl Pts',(1.1869744929833,-0.139527830623108,1.1811024));
#832=CARTESIAN_POINT('Ctrl Pts',(0.984251968503771,-0.0349550075485579,
0.));
#833=CARTESIAN_POINT('Ctrl Pts',(1.06311971354991,-0.0387814985827637,0.3937008));
#834=CARTESIAN_POINT('Ctrl Pts',(1.14160469589861,-0.0427264218183895,0.7874016));
#835=CARTESIAN_POINT('Ctrl Pts',(1.22047244094474,-0.0465529128525953,1.1811024));
#836=CARTESIAN_POINT('Ctrl Pts',(0.984251968503937,0.,0.));
#837=CARTESIAN_POINT('Ctrl Pts',(1.06299212598425,0.,0.3937008));
#838=CARTESIAN_POINT('Ctrl Pts',(1.14173228346457,0.,0.7874016));
#839=CARTESIAN_POINT('Ctrl Pts',(1.22047244094488,0.,1.1811024));
#840=CARTESIAN_POINT('',(0.984251968503937,0.,0.));
#841=UNCERTAINTY_MEASURE_WITH_UNIT(LENGTH_MEASURE(0.000393700787401575),
#846,'DISTANCE_ACCURACY_VALUE',
'Maximum model space distance between geometric entities at asserted c
onnectivities');
#842=UNCERTAINTY_MEASURE_WITH_UNIT(LENGTH_MEASURE(0.000393700787401575),
#846,'DISTANCE_ACCURACY_VALUE',
'Maximum model space distance between geometric entities at asserted c
onnectivities');
#843=(
GEOMETRIC_REPRESENTATION_CONTEXT(3)
GLOBAL_UNCERTAINTY_ASSIGNED_CONTEXT((#841))
GLOBAL_UNIT_ASSIGNED_CONTEXT((#846,#850,#851))
REPRESENTATION_CONTEXT('','3D')
);
#844=(
GEOMETRIC_REPRESENTATION_CONTEXT(3)
GLOBAL_UNCERTAINTY_ASSIGNED_CONTEXT((#842))
GLOBAL_UNIT_ASSIGNED_CONTEXT((#846,#850,#851))
REPRESENTATION_CONTEXT('','3D')
);
#845=DIMENSIONAL_EXPONENTS(1.,0.,0.,0.,0.,0.,0.);
#846=(
CONVERSION_BASED_UNIT('inch',#849)
LENGTH_UNIT()
NAMED_UNIT(#845)
);
#847=(
LENGTH_UNIT()
NAMED_UNIT(*)
SI_UNIT(.MILLI.,.METRE.)
);
#848=(
LENGTH_UNIT()
NAMED_UNIT(*)
SI_UNIT($,.METRE.)
);
#849=LENGTH_MEASURE_WITH_UNIT(LENGTH_MEASURE(25.4),#847);
#850=(
NAMED_UNIT(*)
PLANE_ANGLE_UNIT()
SI_UNIT($,.RADIAN.)
);
#851=(
NAMED_UNIT(*)
SI_UNIT($,.STERADIAN.)
SOLID_ANGLE_UNIT()
);
#852=SHAPE_DEFINITION_REPRESENTATION(#853,#854);
#853=PRODUCT_DEFINITION_SHAPE('',$,#856);
#854=SHAPE_REPRESENTATION('',(#55),#843);
#855=PRODUCT_DEFINITION_CONTEXT('part definition',#860,'design');
#856=PRODUCT_DEFINITION('2026-06-10-10-56-41-575','(Unsaved)',#857,#855);
#857=PRODUCT_DEFINITION_FORMATION('',$,#862);
#858=PRODUCT_RELATED_PRODUCT_CATEGORY('(Unsaved)','(Unsaved)',(#862));
#859=APPLICATION_PROTOCOL_DEFINITION('international standard',
'automotive_design',2009,#860);
#860=APPLICATION_CONTEXT(
'Core Data for Automotive Mechanical Design Process');
#861=PRODUCT_CONTEXT('part definition',#860,'mechanical');
#862=PRODUCT('2026-06-10-10-56-41-575','(Unsaved)',$,(#861));
#863=PRESENTATION_STYLE_ASSIGNMENT((#864));
#864=SURFACE_STYLE_USAGE(.BOTH.,#865);
#865=SURFACE_SIDE_STYLE('',(#866));
#866=SURFACE_STYLE_FILL_AREA(#867);
#867=FILL_AREA_STYLE('Steel - Satin',(#868));
#868=FILL_AREA_STYLE_COLOUR('Steel - Satin',#869);
#869=COLOUR_RGB('Steel - Satin',0.627450980392157,0.627450980392157,0.627450980392157);
ENDSEC;
END-ISO-10303-21;
