ISO-10303-21;
HEADER;
FILE_DESCRIPTION(('pulley archetype generated for catia (valid AP242 fleet regen)'),'2;1');
FILE_NAME('pulley_catia.step','2026-05-27T16:21:22.652Z',('PRISM-slot-delta-iter117'),('PRISM'),'PRISM AP242 valid emitter','PRISM','');
FILE_SCHEMA(('AUTOMOTIVE_DESIGN { 1 0 10303 214 3 1 1 }'));
ENDSEC;
DATA;
#1 = CARTESIAN_POINT('bot_0',(30.0000000,0.0000000,0.0000000));
#2 = CARTESIAN_POINT('bot_1',(15.0000000,25.9807621,0.0000000));
#3 = CARTESIAN_POINT('bot_2',(-15.0000000,25.9807621,0.0000000));
#4 = CARTESIAN_POINT('bot_3',(-30.0000000,0.0000000,0.0000000));
#5 = CARTESIAN_POINT('bot_4',(-15.0000000,-25.9807621,0.0000000));
#6 = CARTESIAN_POINT('bot_5',(15.0000000,-25.9807621,0.0000000));
#7 = CARTESIAN_POINT('top_0',(30.0000000,0.0000000,20.0000000));
#8 = CARTESIAN_POINT('top_1',(15.0000000,25.9807621,20.0000000));
#9 = CARTESIAN_POINT('top_2',(-15.0000000,25.9807621,20.0000000));
#10 = CARTESIAN_POINT('top_3',(-30.0000000,0.0000000,20.0000000));
#11 = CARTESIAN_POINT('top_4',(-15.0000000,-25.9807621,20.0000000));
#12 = CARTESIAN_POINT('top_5',(15.0000000,-25.9807621,20.0000000));
#13 = VERTEX_POINT('bot_v0',#1);
#14 = VERTEX_POINT('bot_v1',#2);
#15 = VERTEX_POINT('bot_v2',#3);
#16 = VERTEX_POINT('bot_v3',#4);
#17 = VERTEX_POINT('bot_v4',#5);
#18 = VERTEX_POINT('bot_v5',#6);
#19 = VERTEX_POINT('top_v0',#7);
#20 = VERTEX_POINT('top_v1',#8);
#21 = VERTEX_POINT('top_v2',#9);
#22 = VERTEX_POINT('top_v3',#10);
#23 = VERTEX_POINT('top_v4',#11);
#24 = VERTEX_POINT('top_v5',#12);
#25 = DIRECTION('bot_e0_dir',(-0.5000000,0.8660254,0.0000000));
#26 = VECTOR('bot_e0_vec',#25,30.0000000);
#27 = CARTESIAN_POINT('bot_e0_origin',(30.0000000,0.0000000,0.0000000));
#28 = LINE('bot_e0_line',#27,#26);
#29 = EDGE_CURVE('bot_e0',#13,#14,#28,.T.);
#30 = DIRECTION('top_e0_dir',(-0.5000000,0.8660254,0.0000000));
#31 = VECTOR('top_e0_vec',#30,30.0000000);
#32 = CARTESIAN_POINT('top_e0_origin',(30.0000000,0.0000000,20.0000000));
#33 = LINE('top_e0_line',#32,#31);
#34 = EDGE_CURVE('top_e0',#19,#20,#33,.T.);
#35 = DIRECTION('vert_e0_dir',(0.0000000,0.0000000,1.0000000));
#36 = VECTOR('vert_e0_vec',#35,20.0000000);
#37 = CARTESIAN_POINT('vert_e0_origin',(30.0000000,0.0000000,0.0000000));
#38 = LINE('vert_e0_line',#37,#36);
#39 = EDGE_CURVE('vert_e0',#13,#19,#38,.T.);
#40 = DIRECTION('bot_e1_dir',(-1.0000000,0.0000000,0.0000000));
#41 = VECTOR('bot_e1_vec',#40,30.0000000);
#42 = CARTESIAN_POINT('bot_e1_origin',(15.0000000,25.9807621,0.0000000));
#43 = LINE('bot_e1_line',#42,#41);
#44 = EDGE_CURVE('bot_e1',#14,#15,#43,.T.);
#45 = DIRECTION('top_e1_dir',(-1.0000000,0.0000000,0.0000000));
#46 = VECTOR('top_e1_vec',#45,30.0000000);
#47 = CARTESIAN_POINT('top_e1_origin',(15.0000000,25.9807621,20.0000000));
#48 = LINE('top_e1_line',#47,#46);
#49 = EDGE_CURVE('top_e1',#20,#21,#48,.T.);
#50 = DIRECTION('vert_e1_dir',(0.0000000,0.0000000,1.0000000));
#51 = VECTOR('vert_e1_vec',#50,20.0000000);
#52 = CARTESIAN_POINT('vert_e1_origin',(15.0000000,25.9807621,0.0000000));
#53 = LINE('vert_e1_line',#52,#51);
#54 = EDGE_CURVE('vert_e1',#14,#20,#53,.T.);
#55 = DIRECTION('bot_e2_dir',(-0.5000000,-0.8660254,0.0000000));
#56 = VECTOR('bot_e2_vec',#55,30.0000000);
#57 = CARTESIAN_POINT('bot_e2_origin',(-15.0000000,25.9807621,0.0000000));
#58 = LINE('bot_e2_line',#57,#56);
#59 = EDGE_CURVE('bot_e2',#15,#16,#58,.T.);
#60 = DIRECTION('top_e2_dir',(-0.5000000,-0.8660254,0.0000000));
#61 = VECTOR('top_e2_vec',#60,30.0000000);
#62 = CARTESIAN_POINT('top_e2_origin',(-15.0000000,25.9807621,20.0000000));
#63 = LINE('top_e2_line',#62,#61);
#64 = EDGE_CURVE('top_e2',#21,#22,#63,.T.);
#65 = DIRECTION('vert_e2_dir',(0.0000000,0.0000000,1.0000000));
#66 = VECTOR('vert_e2_vec',#65,20.0000000);
#67 = CARTESIAN_POINT('vert_e2_origin',(-15.0000000,25.9807621,0.0000000));
#68 = LINE('vert_e2_line',#67,#66);
#69 = EDGE_CURVE('vert_e2',#15,#21,#68,.T.);
#70 = DIRECTION('bot_e3_dir',(0.5000000,-0.8660254,0.0000000));
#71 = VECTOR('bot_e3_vec',#70,30.0000000);
#72 = CARTESIAN_POINT('bot_e3_origin',(-30.0000000,0.0000000,0.0000000));
#73 = LINE('bot_e3_line',#72,#71);
#74 = EDGE_CURVE('bot_e3',#16,#17,#73,.T.);
#75 = DIRECTION('top_e3_dir',(0.5000000,-0.8660254,0.0000000));
#76 = VECTOR('top_e3_vec',#75,30.0000000);
#77 = CARTESIAN_POINT('top_e3_origin',(-30.0000000,0.0000000,20.0000000));
#78 = LINE('top_e3_line',#77,#76);
#79 = EDGE_CURVE('top_e3',#22,#23,#78,.T.);
#80 = DIRECTION('vert_e3_dir',(0.0000000,0.0000000,1.0000000));
#81 = VECTOR('vert_e3_vec',#80,20.0000000);
#82 = CARTESIAN_POINT('vert_e3_origin',(-30.0000000,0.0000000,0.0000000));
#83 = LINE('vert_e3_line',#82,#81);
#84 = EDGE_CURVE('vert_e3',#16,#22,#83,.T.);
#85 = DIRECTION('bot_e4_dir',(1.0000000,0.0000000,0.0000000));
#86 = VECTOR('bot_e4_vec',#85,30.0000000);
#87 = CARTESIAN_POINT('bot_e4_origin',(-15.0000000,-25.9807621,0.0000000));
#88 = LINE('bot_e4_line',#87,#86);
#89 = EDGE_CURVE('bot_e4',#17,#18,#88,.T.);
#90 = DIRECTION('top_e4_dir',(1.0000000,0.0000000,0.0000000));
#91 = VECTOR('top_e4_vec',#90,30.0000000);
#92 = CARTESIAN_POINT('top_e4_origin',(-15.0000000,-25.9807621,20.0000000));
#93 = LINE('top_e4_line',#92,#91);
#94 = EDGE_CURVE('top_e4',#23,#24,#93,.T.);
#95 = DIRECTION('vert_e4_dir',(0.0000000,0.0000000,1.0000000));
#96 = VECTOR('vert_e4_vec',#95,20.0000000);
#97 = CARTESIAN_POINT('vert_e4_origin',(-15.0000000,-25.9807621,0.0000000));
#98 = LINE('vert_e4_line',#97,#96);
#99 = EDGE_CURVE('vert_e4',#17,#23,#98,.T.);
#100 = DIRECTION('bot_e5_dir',(0.5000000,0.8660254,0.0000000));
#101 = VECTOR('bot_e5_vec',#100,30.0000000);
#102 = CARTESIAN_POINT('bot_e5_origin',(15.0000000,-25.9807621,0.0000000));
#103 = LINE('bot_e5_line',#102,#101);
#104 = EDGE_CURVE('bot_e5',#18,#13,#103,.T.);
#105 = DIRECTION('top_e5_dir',(0.5000000,0.8660254,0.0000000));
#106 = VECTOR('top_e5_vec',#105,30.0000000);
#107 = CARTESIAN_POINT('top_e5_origin',(15.0000000,-25.9807621,20.0000000));
#108 = LINE('top_e5_line',#107,#106);
#109 = EDGE_CURVE('top_e5',#24,#19,#108,.T.);
#110 = DIRECTION('vert_e5_dir',(0.0000000,0.0000000,1.0000000));
#111 = VECTOR('vert_e5_vec',#110,20.0000000);
#112 = CARTESIAN_POINT('vert_e5_origin',(15.0000000,-25.9807621,0.0000000));
#113 = LINE('vert_e5_line',#112,#111);
#114 = EDGE_CURVE('vert_e5',#18,#24,#113,.T.);
#115 = ORIENTED_EDGE('',*,*,#104,.F.);
#116 = ORIENTED_EDGE('',*,*,#89,.F.);
#117 = ORIENTED_EDGE('',*,*,#74,.F.);
#118 = ORIENTED_EDGE('',*,*,#59,.F.);
#119 = ORIENTED_EDGE('',*,*,#44,.F.);
#120 = ORIENTED_EDGE('',*,*,#29,.F.);
#121 = EDGE_LOOP('bottom_loop',(#115,#116,#117,#118,#119,#120));
#122 = FACE_OUTER_BOUND('',#121,.T.);
#123 = CARTESIAN_POINT('bottom_plane_loc',(0.0000000,0.0000000,0.0000000));
#124 = DIRECTION('bottom_plane_axis',(0.0000000,0.0000000,-1.0000000));
#125 = DIRECTION('bottom_plane_ref',(1.0000000,0.0000000,0.0000000));
#126 = AXIS2_PLACEMENT_3D('bottom_plane_place',#123,#124,#125);
#127 = PLANE('bottom_plane',#126);
#128 = ADVANCED_FACE('bottom_face',(#122),#127,.T.);
#129 = ORIENTED_EDGE('',*,*,#34,.T.);
#130 = ORIENTED_EDGE('',*,*,#49,.T.);
#131 = ORIENTED_EDGE('',*,*,#64,.T.);
#132 = ORIENTED_EDGE('',*,*,#79,.T.);
#133 = ORIENTED_EDGE('',*,*,#94,.T.);
#134 = ORIENTED_EDGE('',*,*,#109,.T.);
#135 = EDGE_LOOP('top_loop',(#129,#130,#131,#132,#133,#134));
#136 = FACE_OUTER_BOUND('',#135,.T.);
#137 = CARTESIAN_POINT('top_plane_loc',(0.0000000,0.0000000,20.0000000));
#138 = DIRECTION('top_plane_axis',(0.0000000,0.0000000,1.0000000));
#139 = DIRECTION('top_plane_ref',(1.0000000,0.0000000,0.0000000));
#140 = AXIS2_PLACEMENT_3D('top_plane_place',#137,#138,#139);
#141 = PLANE('top_plane',#140);
#142 = ADVANCED_FACE('top_face',(#136),#141,.T.);
#143 = ORIENTED_EDGE('',*,*,#29,.T.);
#144 = ORIENTED_EDGE('',*,*,#54,.T.);
#145 = ORIENTED_EDGE('',*,*,#34,.F.);
#146 = ORIENTED_EDGE('',*,*,#39,.F.);
#147 = EDGE_LOOP('side_loop_0',(#143,#144,#145,#146));
#148 = FACE_OUTER_BOUND('',#147,.T.);
#149 = CARTESIAN_POINT('side_plane_0_loc',(22.5000000,12.9903811,0.0000000));
#150 = DIRECTION('side_plane_0_axis',(0.8660254,0.5000000,0.0000000));
#151 = DIRECTION('side_plane_0_ref',(-0.5000000,0.8660254,0.0000000));
#152 = AXIS2_PLACEMENT_3D('side_plane_0_place',#149,#150,#151);
#153 = PLANE('side_plane_0',#152);
#154 = ADVANCED_FACE('side_face_0',(#148),#153,.T.);
#155 = ORIENTED_EDGE('',*,*,#44,.T.);
#156 = ORIENTED_EDGE('',*,*,#69,.T.);
#157 = ORIENTED_EDGE('',*,*,#49,.F.);
#158 = ORIENTED_EDGE('',*,*,#54,.F.);
#159 = EDGE_LOOP('side_loop_1',(#155,#156,#157,#158));
#160 = FACE_OUTER_BOUND('',#159,.T.);
#161 = CARTESIAN_POINT('side_plane_1_loc',(0.0000000,25.9807621,0.0000000));
#162 = DIRECTION('side_plane_1_axis',(0.0000000,1.0000000,0.0000000));
#163 = DIRECTION('side_plane_1_ref',(-1.0000000,0.0000000,0.0000000));
#164 = AXIS2_PLACEMENT_3D('side_plane_1_place',#161,#162,#163);
#165 = PLANE('side_plane_1',#164);
#166 = ADVANCED_FACE('side_face_1',(#160),#165,.T.);
#167 = ORIENTED_EDGE('',*,*,#59,.T.);
#168 = ORIENTED_EDGE('',*,*,#84,.T.);
#169 = ORIENTED_EDGE('',*,*,#64,.F.);
#170 = ORIENTED_EDGE('',*,*,#69,.F.);
#171 = EDGE_LOOP('side_loop_2',(#167,#168,#169,#170));
#172 = FACE_OUTER_BOUND('',#171,.T.);
#173 = CARTESIAN_POINT('side_plane_2_loc',(-22.5000000,12.9903811,0.0000000));
#174 = DIRECTION('side_plane_2_axis',(-0.8660254,0.5000000,0.0000000));
#175 = DIRECTION('side_plane_2_ref',(-0.5000000,-0.8660254,0.0000000));
#176 = AXIS2_PLACEMENT_3D('side_plane_2_place',#173,#174,#175);
#177 = PLANE('side_plane_2',#176);
#178 = ADVANCED_FACE('side_face_2',(#172),#177,.T.);
#179 = ORIENTED_EDGE('',*,*,#74,.T.);
#180 = ORIENTED_EDGE('',*,*,#99,.T.);
#181 = ORIENTED_EDGE('',*,*,#79,.F.);
#182 = ORIENTED_EDGE('',*,*,#84,.F.);
#183 = EDGE_LOOP('side_loop_3',(#179,#180,#181,#182));
#184 = FACE_OUTER_BOUND('',#183,.T.);
#185 = CARTESIAN_POINT('side_plane_3_loc',(-22.5000000,-12.9903811,0.0000000));
#186 = DIRECTION('side_plane_3_axis',(-0.8660254,-0.5000000,0.0000000));
#187 = DIRECTION('side_plane_3_ref',(0.5000000,-0.8660254,0.0000000));
#188 = AXIS2_PLACEMENT_3D('side_plane_3_place',#185,#186,#187);
#189 = PLANE('side_plane_3',#188);
#190 = ADVANCED_FACE('side_face_3',(#184),#189,.T.);
#191 = ORIENTED_EDGE('',*,*,#89,.T.);
#192 = ORIENTED_EDGE('',*,*,#114,.T.);
#193 = ORIENTED_EDGE('',*,*,#94,.F.);
#194 = ORIENTED_EDGE('',*,*,#99,.F.);
#195 = EDGE_LOOP('side_loop_4',(#191,#192,#193,#194));
#196 = FACE_OUTER_BOUND('',#195,.T.);
#197 = CARTESIAN_POINT('side_plane_4_loc',(0.0000000,-25.9807621,0.0000000));
#198 = DIRECTION('side_plane_4_axis',(0.0000000,-1.0000000,0.0000000));
#199 = DIRECTION('side_plane_4_ref',(1.0000000,0.0000000,0.0000000));
#200 = AXIS2_PLACEMENT_3D('side_plane_4_place',#197,#198,#199);
#201 = PLANE('side_plane_4',#200);
#202 = ADVANCED_FACE('side_face_4',(#196),#201,.T.);
#203 = ORIENTED_EDGE('',*,*,#104,.T.);
#204 = ORIENTED_EDGE('',*,*,#39,.T.);
#205 = ORIENTED_EDGE('',*,*,#109,.F.);
#206 = ORIENTED_EDGE('',*,*,#114,.F.);
#207 = EDGE_LOOP('side_loop_5',(#203,#204,#205,#206));
#208 = FACE_OUTER_BOUND('',#207,.T.);
#209 = CARTESIAN_POINT('side_plane_5_loc',(22.5000000,-12.9903811,0.0000000));
#210 = DIRECTION('side_plane_5_axis',(0.8660254,-0.5000000,0.0000000));
#211 = DIRECTION('side_plane_5_ref',(0.5000000,0.8660254,0.0000000));
#212 = AXIS2_PLACEMENT_3D('side_plane_5_place',#209,#210,#211);
#213 = PLANE('side_plane_5',#212);
#214 = ADVANCED_FACE('side_face_5',(#208),#213,.T.);
#215 = CLOSED_SHELL('pulley_catia_shell',(#128,#142,#154,#166,#178,#190,#202,#214));
#216 = MANIFOLD_SOLID_BREP('pulley_catia_solid',#215);
#217 = CARTESIAN_POINT('world_origin',(0.0000000,0.0000000,0.0000000));
#218 = DIRECTION('world_z',(0.0000000,0.0000000,1.0000000));
#219 = DIRECTION('world_x',(1.0000000,0.0000000,0.0000000));
#220 = AXIS2_PLACEMENT_3D('world_place',#217,#218,#219);
#221 = ( LENGTH_UNIT() NAMED_UNIT(*) SI_UNIT(.MILLI.,.METRE.) );
#222 = ( NAMED_UNIT(*) PLANE_ANGLE_UNIT() SI_UNIT($,.RADIAN.) );
#223 = ( NAMED_UNIT(*) SI_UNIT($,.STERADIAN.) SOLID_ANGLE_UNIT() );
#224 = UNCERTAINTY_MEASURE_WITH_UNIT(LENGTH_MEASURE(1.E-05),#221,'distance_accuracy_value','confusion accuracy');
#225 = ( GEOMETRIC_REPRESENTATION_CONTEXT(3) GLOBAL_UNCERTAINTY_ASSIGNED_CONTEXT((#224)) GLOBAL_UNIT_ASSIGNED_CONTEXT((#221,#222,#223)) REPRESENTATION_CONTEXT('Context #1','3D Context with UNIT and UNCERTAINTY') );
#226 = APPLICATION_CONTEXT('automotive design');
#227 = APPLICATION_PROTOCOL_DEFINITION('international standard','automotive_design',2009,#226);
#228 = PRODUCT_CONTEXT('',#226,'mechanical');
#229 = PRODUCT('pulley_catia','pulley_catia','pulley archetype generated for catia (valid AP242 fleet regen)',(#228));
#230 = PRODUCT_RELATED_PRODUCT_CATEGORY('part',$,(#229));
#231 = PRODUCT_DEFINITION_CONTEXT('part definition',#226,'design');
#232 = PRODUCT_DEFINITION_FORMATION('','',#229);
#233 = PRODUCT_DEFINITION('design','',#232,#231);
#234 = PRODUCT_DEFINITION_SHAPE('','',#233);
#235 = ADVANCED_BREP_SHAPE_REPRESENTATION('',(#220,#216),#225);
#236 = SHAPE_DEFINITION_REPRESENTATION(#234,#235);
ENDSEC;
END-ISO-10303-21;
