ISO-10303-21;
HEADER;
FILE_DESCRIPTION(('sheet-metal-enclosure archetype generated for catia (valid AP242 fleet regen)'),'2;1');
FILE_NAME('sheet_metal_enclosure_catia.step','2026-05-27T16:21:22.671Z',('PRISM-slot-delta-iter117'),('PRISM'),'PRISM AP242 valid emitter','PRISM','');
FILE_SCHEMA(('AUTOMOTIVE_DESIGN { 1 0 10303 214 3 1 1 }'));
ENDSEC;
DATA;
#1 = CARTESIAN_POINT('bot_0',(0.0000000,0.0000000,0.0000000));
#2 = CARTESIAN_POINT('bot_1',(100.0000000,0.0000000,0.0000000));
#3 = CARTESIAN_POINT('bot_2',(100.0000000,50.0000000,0.0000000));
#4 = CARTESIAN_POINT('bot_3',(50.0000000,80.0000000,0.0000000));
#5 = CARTESIAN_POINT('bot_4',(0.0000000,50.0000000,0.0000000));
#6 = CARTESIAN_POINT('top_0',(0.0000000,0.0000000,4.0000000));
#7 = CARTESIAN_POINT('top_1',(100.0000000,0.0000000,4.0000000));
#8 = CARTESIAN_POINT('top_2',(100.0000000,50.0000000,4.0000000));
#9 = CARTESIAN_POINT('top_3',(50.0000000,80.0000000,4.0000000));
#10 = CARTESIAN_POINT('top_4',(0.0000000,50.0000000,4.0000000));
#11 = VERTEX_POINT('bot_v0',#1);
#12 = VERTEX_POINT('bot_v1',#2);
#13 = VERTEX_POINT('bot_v2',#3);
#14 = VERTEX_POINT('bot_v3',#4);
#15 = VERTEX_POINT('bot_v4',#5);
#16 = VERTEX_POINT('top_v0',#6);
#17 = VERTEX_POINT('top_v1',#7);
#18 = VERTEX_POINT('top_v2',#8);
#19 = VERTEX_POINT('top_v3',#9);
#20 = VERTEX_POINT('top_v4',#10);
#21 = DIRECTION('bot_e0_dir',(1.0000000,0.0000000,0.0000000));
#22 = VECTOR('bot_e0_vec',#21,100.0000000);
#23 = CARTESIAN_POINT('bot_e0_origin',(0.0000000,0.0000000,0.0000000));
#24 = LINE('bot_e0_line',#23,#22);
#25 = EDGE_CURVE('bot_e0',#11,#12,#24,.T.);
#26 = DIRECTION('top_e0_dir',(1.0000000,0.0000000,0.0000000));
#27 = VECTOR('top_e0_vec',#26,100.0000000);
#28 = CARTESIAN_POINT('top_e0_origin',(0.0000000,0.0000000,4.0000000));
#29 = LINE('top_e0_line',#28,#27);
#30 = EDGE_CURVE('top_e0',#16,#17,#29,.T.);
#31 = DIRECTION('vert_e0_dir',(0.0000000,0.0000000,1.0000000));
#32 = VECTOR('vert_e0_vec',#31,4.0000000);
#33 = CARTESIAN_POINT('vert_e0_origin',(0.0000000,0.0000000,0.0000000));
#34 = LINE('vert_e0_line',#33,#32);
#35 = EDGE_CURVE('vert_e0',#11,#16,#34,.T.);
#36 = DIRECTION('bot_e1_dir',(0.0000000,1.0000000,0.0000000));
#37 = VECTOR('bot_e1_vec',#36,50.0000000);
#38 = CARTESIAN_POINT('bot_e1_origin',(100.0000000,0.0000000,0.0000000));
#39 = LINE('bot_e1_line',#38,#37);
#40 = EDGE_CURVE('bot_e1',#12,#13,#39,.T.);
#41 = DIRECTION('top_e1_dir',(0.0000000,1.0000000,0.0000000));
#42 = VECTOR('top_e1_vec',#41,50.0000000);
#43 = CARTESIAN_POINT('top_e1_origin',(100.0000000,0.0000000,4.0000000));
#44 = LINE('top_e1_line',#43,#42);
#45 = EDGE_CURVE('top_e1',#17,#18,#44,.T.);
#46 = DIRECTION('vert_e1_dir',(0.0000000,0.0000000,1.0000000));
#47 = VECTOR('vert_e1_vec',#46,4.0000000);
#48 = CARTESIAN_POINT('vert_e1_origin',(100.0000000,0.0000000,0.0000000));
#49 = LINE('vert_e1_line',#48,#47);
#50 = EDGE_CURVE('vert_e1',#12,#17,#49,.T.);
#51 = DIRECTION('bot_e2_dir',(-0.8574929,0.5144958,0.0000000));
#52 = VECTOR('bot_e2_vec',#51,58.3095189);
#53 = CARTESIAN_POINT('bot_e2_origin',(100.0000000,50.0000000,0.0000000));
#54 = LINE('bot_e2_line',#53,#52);
#55 = EDGE_CURVE('bot_e2',#13,#14,#54,.T.);
#56 = DIRECTION('top_e2_dir',(-0.8574929,0.5144958,0.0000000));
#57 = VECTOR('top_e2_vec',#56,58.3095189);
#58 = CARTESIAN_POINT('top_e2_origin',(100.0000000,50.0000000,4.0000000));
#59 = LINE('top_e2_line',#58,#57);
#60 = EDGE_CURVE('top_e2',#18,#19,#59,.T.);
#61 = DIRECTION('vert_e2_dir',(0.0000000,0.0000000,1.0000000));
#62 = VECTOR('vert_e2_vec',#61,4.0000000);
#63 = CARTESIAN_POINT('vert_e2_origin',(100.0000000,50.0000000,0.0000000));
#64 = LINE('vert_e2_line',#63,#62);
#65 = EDGE_CURVE('vert_e2',#13,#18,#64,.T.);
#66 = DIRECTION('bot_e3_dir',(-0.8574929,-0.5144958,0.0000000));
#67 = VECTOR('bot_e3_vec',#66,58.3095189);
#68 = CARTESIAN_POINT('bot_e3_origin',(50.0000000,80.0000000,0.0000000));
#69 = LINE('bot_e3_line',#68,#67);
#70 = EDGE_CURVE('bot_e3',#14,#15,#69,.T.);
#71 = DIRECTION('top_e3_dir',(-0.8574929,-0.5144958,0.0000000));
#72 = VECTOR('top_e3_vec',#71,58.3095189);
#73 = CARTESIAN_POINT('top_e3_origin',(50.0000000,80.0000000,4.0000000));
#74 = LINE('top_e3_line',#73,#72);
#75 = EDGE_CURVE('top_e3',#19,#20,#74,.T.);
#76 = DIRECTION('vert_e3_dir',(0.0000000,0.0000000,1.0000000));
#77 = VECTOR('vert_e3_vec',#76,4.0000000);
#78 = CARTESIAN_POINT('vert_e3_origin',(50.0000000,80.0000000,0.0000000));
#79 = LINE('vert_e3_line',#78,#77);
#80 = EDGE_CURVE('vert_e3',#14,#19,#79,.T.);
#81 = DIRECTION('bot_e4_dir',(0.0000000,-1.0000000,0.0000000));
#82 = VECTOR('bot_e4_vec',#81,50.0000000);
#83 = CARTESIAN_POINT('bot_e4_origin',(0.0000000,50.0000000,0.0000000));
#84 = LINE('bot_e4_line',#83,#82);
#85 = EDGE_CURVE('bot_e4',#15,#11,#84,.T.);
#86 = DIRECTION('top_e4_dir',(0.0000000,-1.0000000,0.0000000));
#87 = VECTOR('top_e4_vec',#86,50.0000000);
#88 = CARTESIAN_POINT('top_e4_origin',(0.0000000,50.0000000,4.0000000));
#89 = LINE('top_e4_line',#88,#87);
#90 = EDGE_CURVE('top_e4',#20,#16,#89,.T.);
#91 = DIRECTION('vert_e4_dir',(0.0000000,0.0000000,1.0000000));
#92 = VECTOR('vert_e4_vec',#91,4.0000000);
#93 = CARTESIAN_POINT('vert_e4_origin',(0.0000000,50.0000000,0.0000000));
#94 = LINE('vert_e4_line',#93,#92);
#95 = EDGE_CURVE('vert_e4',#15,#20,#94,.T.);
#96 = ORIENTED_EDGE('',*,*,#85,.F.);
#97 = ORIENTED_EDGE('',*,*,#70,.F.);
#98 = ORIENTED_EDGE('',*,*,#55,.F.);
#99 = ORIENTED_EDGE('',*,*,#40,.F.);
#100 = ORIENTED_EDGE('',*,*,#25,.F.);
#101 = EDGE_LOOP('bottom_loop',(#96,#97,#98,#99,#100));
#102 = FACE_OUTER_BOUND('',#101,.T.);
#103 = CARTESIAN_POINT('bottom_plane_loc',(0.0000000,0.0000000,0.0000000));
#104 = DIRECTION('bottom_plane_axis',(0.0000000,0.0000000,-1.0000000));
#105 = DIRECTION('bottom_plane_ref',(1.0000000,0.0000000,0.0000000));
#106 = AXIS2_PLACEMENT_3D('bottom_plane_place',#103,#104,#105);
#107 = PLANE('bottom_plane',#106);
#108 = ADVANCED_FACE('bottom_face',(#102),#107,.T.);
#109 = ORIENTED_EDGE('',*,*,#30,.T.);
#110 = ORIENTED_EDGE('',*,*,#45,.T.);
#111 = ORIENTED_EDGE('',*,*,#60,.T.);
#112 = ORIENTED_EDGE('',*,*,#75,.T.);
#113 = ORIENTED_EDGE('',*,*,#90,.T.);
#114 = EDGE_LOOP('top_loop',(#109,#110,#111,#112,#113));
#115 = FACE_OUTER_BOUND('',#114,.T.);
#116 = CARTESIAN_POINT('top_plane_loc',(0.0000000,0.0000000,4.0000000));
#117 = DIRECTION('top_plane_axis',(0.0000000,0.0000000,1.0000000));
#118 = DIRECTION('top_plane_ref',(1.0000000,0.0000000,0.0000000));
#119 = AXIS2_PLACEMENT_3D('top_plane_place',#116,#117,#118);
#120 = PLANE('top_plane',#119);
#121 = ADVANCED_FACE('top_face',(#115),#120,.T.);
#122 = ORIENTED_EDGE('',*,*,#25,.T.);
#123 = ORIENTED_EDGE('',*,*,#50,.T.);
#124 = ORIENTED_EDGE('',*,*,#30,.F.);
#125 = ORIENTED_EDGE('',*,*,#35,.F.);
#126 = EDGE_LOOP('side_loop_0',(#122,#123,#124,#125));
#127 = FACE_OUTER_BOUND('',#126,.T.);
#128 = CARTESIAN_POINT('side_plane_0_loc',(50.0000000,0.0000000,0.0000000));
#129 = DIRECTION('side_plane_0_axis',(0.0000000,-1.0000000,0.0000000));
#130 = DIRECTION('side_plane_0_ref',(1.0000000,0.0000000,0.0000000));
#131 = AXIS2_PLACEMENT_3D('side_plane_0_place',#128,#129,#130);
#132 = PLANE('side_plane_0',#131);
#133 = ADVANCED_FACE('side_face_0',(#127),#132,.T.);
#134 = ORIENTED_EDGE('',*,*,#40,.T.);
#135 = ORIENTED_EDGE('',*,*,#65,.T.);
#136 = ORIENTED_EDGE('',*,*,#45,.F.);
#137 = ORIENTED_EDGE('',*,*,#50,.F.);
#138 = EDGE_LOOP('side_loop_1',(#134,#135,#136,#137));
#139 = FACE_OUTER_BOUND('',#138,.T.);
#140 = CARTESIAN_POINT('side_plane_1_loc',(100.0000000,25.0000000,0.0000000));
#141 = DIRECTION('side_plane_1_axis',(1.0000000,0.0000000,0.0000000));
#142 = DIRECTION('side_plane_1_ref',(0.0000000,1.0000000,0.0000000));
#143 = AXIS2_PLACEMENT_3D('side_plane_1_place',#140,#141,#142);
#144 = PLANE('side_plane_1',#143);
#145 = ADVANCED_FACE('side_face_1',(#139),#144,.T.);
#146 = ORIENTED_EDGE('',*,*,#55,.T.);
#147 = ORIENTED_EDGE('',*,*,#80,.T.);
#148 = ORIENTED_EDGE('',*,*,#60,.F.);
#149 = ORIENTED_EDGE('',*,*,#65,.F.);
#150 = EDGE_LOOP('side_loop_2',(#146,#147,#148,#149));
#151 = FACE_OUTER_BOUND('',#150,.T.);
#152 = CARTESIAN_POINT('side_plane_2_loc',(75.0000000,65.0000000,0.0000000));
#153 = DIRECTION('side_plane_2_axis',(0.5144958,0.8574929,0.0000000));
#154 = DIRECTION('side_plane_2_ref',(-0.8574929,0.5144958,0.0000000));
#155 = AXIS2_PLACEMENT_3D('side_plane_2_place',#152,#153,#154);
#156 = PLANE('side_plane_2',#155);
#157 = ADVANCED_FACE('side_face_2',(#151),#156,.T.);
#158 = ORIENTED_EDGE('',*,*,#70,.T.);
#159 = ORIENTED_EDGE('',*,*,#95,.T.);
#160 = ORIENTED_EDGE('',*,*,#75,.F.);
#161 = ORIENTED_EDGE('',*,*,#80,.F.);
#162 = EDGE_LOOP('side_loop_3',(#158,#159,#160,#161));
#163 = FACE_OUTER_BOUND('',#162,.T.);
#164 = CARTESIAN_POINT('side_plane_3_loc',(25.0000000,65.0000000,0.0000000));
#165 = DIRECTION('side_plane_3_axis',(-0.5144958,0.8574929,0.0000000));
#166 = DIRECTION('side_plane_3_ref',(-0.8574929,-0.5144958,0.0000000));
#167 = AXIS2_PLACEMENT_3D('side_plane_3_place',#164,#165,#166);
#168 = PLANE('side_plane_3',#167);
#169 = ADVANCED_FACE('side_face_3',(#163),#168,.T.);
#170 = ORIENTED_EDGE('',*,*,#85,.T.);
#171 = ORIENTED_EDGE('',*,*,#35,.T.);
#172 = ORIENTED_EDGE('',*,*,#90,.F.);
#173 = ORIENTED_EDGE('',*,*,#95,.F.);
#174 = EDGE_LOOP('side_loop_4',(#170,#171,#172,#173));
#175 = FACE_OUTER_BOUND('',#174,.T.);
#176 = CARTESIAN_POINT('side_plane_4_loc',(0.0000000,25.0000000,0.0000000));
#177 = DIRECTION('side_plane_4_axis',(-1.0000000,0.0000000,0.0000000));
#178 = DIRECTION('side_plane_4_ref',(0.0000000,-1.0000000,0.0000000));
#179 = AXIS2_PLACEMENT_3D('side_plane_4_place',#176,#177,#178);
#180 = PLANE('side_plane_4',#179);
#181 = ADVANCED_FACE('side_face_4',(#175),#180,.T.);
#182 = CLOSED_SHELL('sheet_metal_enclosure_catia_shell',(#108,#121,#133,#145,#157,#169,#181));
#183 = MANIFOLD_SOLID_BREP('sheet_metal_enclosure_catia_solid',#182);
#184 = CARTESIAN_POINT('world_origin',(0.0000000,0.0000000,0.0000000));
#185 = DIRECTION('world_z',(0.0000000,0.0000000,1.0000000));
#186 = DIRECTION('world_x',(1.0000000,0.0000000,0.0000000));
#187 = AXIS2_PLACEMENT_3D('world_place',#184,#185,#186);
#188 = ( LENGTH_UNIT() NAMED_UNIT(*) SI_UNIT(.MILLI.,.METRE.) );
#189 = ( NAMED_UNIT(*) PLANE_ANGLE_UNIT() SI_UNIT($,.RADIAN.) );
#190 = ( NAMED_UNIT(*) SI_UNIT($,.STERADIAN.) SOLID_ANGLE_UNIT() );
#191 = UNCERTAINTY_MEASURE_WITH_UNIT(LENGTH_MEASURE(1.E-05),#188,'distance_accuracy_value','confusion accuracy');
#192 = ( GEOMETRIC_REPRESENTATION_CONTEXT(3) GLOBAL_UNCERTAINTY_ASSIGNED_CONTEXT((#191)) GLOBAL_UNIT_ASSIGNED_CONTEXT((#188,#189,#190)) REPRESENTATION_CONTEXT('Context #1','3D Context with UNIT and UNCERTAINTY') );
#193 = APPLICATION_CONTEXT('automotive design');
#194 = APPLICATION_PROTOCOL_DEFINITION('international standard','automotive_design',2009,#193);
#195 = PRODUCT_CONTEXT('',#193,'mechanical');
#196 = PRODUCT('sheet_metal_enclosure_catia','sheet_metal_enclosure_catia','sheet-metal-enclosure archetype generated for catia (valid AP242 fleet regen)',(#195));
#197 = PRODUCT_RELATED_PRODUCT_CATEGORY('part',$,(#196));
#198 = PRODUCT_DEFINITION_CONTEXT('part definition',#193,'design');
#199 = PRODUCT_DEFINITION_FORMATION('','',#196);
#200 = PRODUCT_DEFINITION('design','',#199,#198);
#201 = PRODUCT_DEFINITION_SHAPE('','',#200);
#202 = ADVANCED_BREP_SHAPE_REPRESENTATION('',(#187,#183),#192);
#203 = SHAPE_DEFINITION_REPRESENTATION(#201,#202);
ENDSEC;
END-ISO-10303-21;
