ISO-10303-21;
HEADER;
/* Generated by software containing ST-Developer
 * from STEP Tools, Inc. (www.steptools.com) 
 */

FILE_DESCRIPTION(
/* description */ (''),
/* implementation_level */ '2;1');

FILE_NAME(
/* name */ '02-TH-0037 DIE HEX TRIM - MACHINE 5.step',
/* time_stamp */ '2026-01-07T10:42:36-06:00',
/* author */ (''),
/* organization */ (''),
/* preprocessor_version */ 'ST-DEVELOPER v20.1',
/* originating_system */ 'Autodesk Translation Framework v14.24.0.0',
/* authorisation */ '');

FILE_SCHEMA (('AUTOMOTIVE_DESIGN { 1 0 10303 214 3 1 1 }'));
ENDSEC;

DATA;
#10=MECHANICAL_DESIGN_GEOMETRIC_PRESENTATION_REPRESENTATION('',(#13),#160);
#11=SHAPE_REPRESENTATION_RELATIONSHIP('SRR','None',#170,#12);
#12=ADVANCED_BREP_SHAPE_REPRESENTATION('',(#14),#159);
#13=STYLED_ITEM('',(#179),#14);
#14=MANIFOLD_SOLID_BREP('Body1',#84);
#15=FACE_BOUND('',#30,.T.);
#16=FACE_BOUND('',#32,.T.);
#17=PLANE('',#107);
#18=PLANE('',#108);
#19=CYLINDRICAL_SURFACE('',#102,0.0625);
#20=CYLINDRICAL_SURFACE('',#105,0.6275);
#21=FACE_OUTER_BOUND('',#26,.T.);
#22=FACE_OUTER_BOUND('',#27,.T.);
#23=FACE_OUTER_BOUND('',#28,.T.);
#24=FACE_OUTER_BOUND('',#29,.T.);
#25=FACE_OUTER_BOUND('',#31,.T.);
#26=EDGE_LOOP('',(#60,#61,#62,#63,#64));
#27=EDGE_LOOP('',(#65,#66,#67,#68));
#28=EDGE_LOOP('',(#69,#70,#71,#72,#73));
#29=EDGE_LOOP('',(#74));
#30=EDGE_LOOP('',(#75));
#31=EDGE_LOOP('',(#76));
#32=EDGE_LOOP('',(#77));
#33=LINE('',#141,#36);
#34=LINE('',#149,#37);
#35=LINE('',#153,#38);
#36=VECTOR('',#115,0.46375);
#37=VECTOR('',#124,0.0625);
#38=VECTOR('',#129,0.6275);
#39=CIRCLE('',#99,0.3);
#40=CIRCLE('',#100,0.6275);
#41=CIRCLE('',#101,0.6275);
#42=CIRCLE('',#103,0.0625);
#43=CIRCLE('',#104,0.0625);
#44=CIRCLE('',#106,0.6275);
#45=VERTEX_POINT('',#138);
#46=VERTEX_POINT('',#140);
#47=VERTEX_POINT('',#142);
#48=VERTEX_POINT('',#146);
#49=VERTEX_POINT('',#148);
#50=VERTEX_POINT('',#152);
#51=EDGE_CURVE('',#45,#45,#39,.T.);
#52=EDGE_CURVE('',#45,#46,#33,.T.);
#53=EDGE_CURVE('',#47,#46,#40,.T.);
#54=EDGE_CURVE('',#46,#47,#41,.T.);
#55=EDGE_CURVE('',#48,#48,#42,.T.);
#56=EDGE_CURVE('',#48,#49,#34,.T.);
#57=EDGE_CURVE('',#49,#49,#43,.T.);
#58=EDGE_CURVE('',#47,#50,#35,.T.);
#59=EDGE_CURVE('',#50,#50,#44,.T.);
#60=ORIENTED_EDGE('',*,*,#51,.F.);
#61=ORIENTED_EDGE('',*,*,#52,.T.);
#62=ORIENTED_EDGE('',*,*,#53,.F.);
#63=ORIENTED_EDGE('',*,*,#54,.F.);
#64=ORIENTED_EDGE('',*,*,#52,.F.);
#65=ORIENTED_EDGE('',*,*,#55,.F.);
#66=ORIENTED_EDGE('',*,*,#56,.T.);
#67=ORIENTED_EDGE('',*,*,#57,.T.);
#68=ORIENTED_EDGE('',*,*,#56,.F.);
#69=ORIENTED_EDGE('',*,*,#53,.T.);
#70=ORIENTED_EDGE('',*,*,#54,.T.);
#71=ORIENTED_EDGE('',*,*,#58,.T.);
#72=ORIENTED_EDGE('',*,*,#59,.T.);
#73=ORIENTED_EDGE('',*,*,#58,.F.);
#74=ORIENTED_EDGE('',*,*,#51,.T.);
#75=ORIENTED_EDGE('',*,*,#55,.T.);
#76=ORIENTED_EDGE('',*,*,#59,.F.);
#77=ORIENTED_EDGE('',*,*,#57,.F.);
#78=CONICAL_SURFACE('',#98,0.46375,1.30899693899575);
#79=ADVANCED_FACE('',(#21),#78,.T.);
#80=ADVANCED_FACE('',(#22),#19,.F.);
#81=ADVANCED_FACE('',(#23),#20,.T.);
#82=ADVANCED_FACE('',(#24,#15),#17,.T.);
#83=ADVANCED_FACE('',(#25,#16),#18,.F.);
#84=CLOSED_SHELL('',(#79,#80,#81,#82,#83));
#85=DERIVED_UNIT_ELEMENT(#87,1.);
#86=DERIVED_UNIT_ELEMENT(#164,-3.);
#87=(
MASS_UNIT()
NAMED_UNIT(*)
SI_UNIT(.KILO.,.GRAM.)
);
#88=DERIVED_UNIT((#85,#86));
#89=MEASURE_REPRESENTATION_ITEM('density measure',
POSITIVE_RATIO_MEASURE(7850.),#88);
#90=PROPERTY_DEFINITION_REPRESENTATION(#95,#92);
#91=PROPERTY_DEFINITION_REPRESENTATION(#96,#93);
#92=REPRESENTATION('material name',(#94),#159);
#93=REPRESENTATION('density',(#89),#159);
#94=DESCRIPTIVE_REPRESENTATION_ITEM('Steel','Steel');
#95=PROPERTY_DEFINITION('material property','material name',#172);
#96=PROPERTY_DEFINITION('material property','density of part',#172);
#97=AXIS2_PLACEMENT_3D('',#136,#109,#110);
#98=AXIS2_PLACEMENT_3D('',#137,#111,#112);
#99=AXIS2_PLACEMENT_3D('',#139,#113,#114);
#100=AXIS2_PLACEMENT_3D('',#143,#116,#117);
#101=AXIS2_PLACEMENT_3D('',#144,#118,#119);
#102=AXIS2_PLACEMENT_3D('',#145,#120,#121);
#103=AXIS2_PLACEMENT_3D('',#147,#122,#123);
#104=AXIS2_PLACEMENT_3D('',#150,#125,#126);
#105=AXIS2_PLACEMENT_3D('',#151,#127,#128);
#106=AXIS2_PLACEMENT_3D('',#154,#130,#131);
#107=AXIS2_PLACEMENT_3D('',#155,#132,#133);
#108=AXIS2_PLACEMENT_3D('',#156,#134,#135);
#109=DIRECTION('axis',(0.,0.,1.));
#110=DIRECTION('refdir',(1.,0.,0.));
#111=DIRECTION('center_axis',(0.,0.,-1.));
#112=DIRECTION('ref_axis',(0.,1.,0.));
#113=DIRECTION('center_axis',(0.,0.,1.));
#114=DIRECTION('ref_axis',(0.,1.,0.));
#115=DIRECTION('',(-1.18291797137867E-16,-0.965925826289068,-0.258819045102522));
#116=DIRECTION('center_axis',(0.,0.,-1.));
#117=DIRECTION('ref_axis',(1.,0.,0.));
#118=DIRECTION('center_axis',(0.,0.,-1.));
#119=DIRECTION('ref_axis',(1.,0.,0.));
#120=DIRECTION('center_axis',(0.,0.,1.));
#121=DIRECTION('ref_axis',(1.,0.,0.));
#122=DIRECTION('center_axis',(0.,0.,-1.));
#123=DIRECTION('ref_axis',(1.,0.,0.));
#124=DIRECTION('',(0.,0.,-1.));
#125=DIRECTION('center_axis',(0.,0.,-1.));
#126=DIRECTION('ref_axis',(1.,0.,0.));
#127=DIRECTION('center_axis',(0.,0.,1.));
#128=DIRECTION('ref_axis',(1.,0.,0.));
#129=DIRECTION('',(0.,0.,-1.));
#130=DIRECTION('center_axis',(0.,0.,1.));
#131=DIRECTION('ref_axis',(1.,0.,0.));
#132=DIRECTION('center_axis',(0.,0.,1.));
#133=DIRECTION('ref_axis',(1.,0.,0.));
#134=DIRECTION('center_axis',(0.,0.,1.));
#135=DIRECTION('ref_axis',(1.,0.,0.));
#136=CARTESIAN_POINT('',(0.,0.,0.));
#137=CARTESIAN_POINT('Origin',(0.,0.,0.729123319739403));
#138=CARTESIAN_POINT('',(-3.67394039744206E-17,-0.3,0.773));
#139=CARTESIAN_POINT('Origin',(0.,0.,0.773));
#140=CARTESIAN_POINT('',(-7.68465866464964E-17,-0.6275,0.685246639478807));
#141=CARTESIAN_POINT('',(-5.67929953104585E-17,-0.46375,0.729123319739403));
#142=CARTESIAN_POINT('',(-0.6275,-7.68465866464964E-17,0.685246639478807));
#143=CARTESIAN_POINT('Origin',(0.,0.,0.685246639478807));
#144=CARTESIAN_POINT('Origin',(0.,0.,0.685246639478807));
#145=CARTESIAN_POINT('Origin',(0.,0.,0.));
#146=CARTESIAN_POINT('',(-0.0625,-7.65404249467096E-18,0.773));
#147=CARTESIAN_POINT('Origin',(0.,0.,0.773));
#148=CARTESIAN_POINT('',(-0.0625,-7.65404249467096E-18,0.));
#149=CARTESIAN_POINT('',(-0.0625,-7.65404249467096E-18,0.));
#150=CARTESIAN_POINT('Origin',(0.,0.,0.));
#151=CARTESIAN_POINT('Origin',(0.,0.,0.));
#152=CARTESIAN_POINT('',(-0.6275,-7.68465866464964E-17,0.));
#153=CARTESIAN_POINT('',(-0.6275,-7.68465866464964E-17,0.));
#154=CARTESIAN_POINT('Origin',(0.,0.,0.));
#155=CARTESIAN_POINT('Origin',(0.,0.,0.773));
#156=CARTESIAN_POINT('Origin',(0.,0.,0.));
#157=UNCERTAINTY_MEASURE_WITH_UNIT(LENGTH_MEASURE(0.000393700787401575),
#162,'DISTANCE_ACCURACY_VALUE',
'Maximum model space distance between geometric entities at asserted c
onnectivities');
#158=UNCERTAINTY_MEASURE_WITH_UNIT(LENGTH_MEASURE(0.000393700787401575),
#162,'DISTANCE_ACCURACY_VALUE',
'Maximum model space distance between geometric entities at asserted c
onnectivities');
#159=(
GEOMETRIC_REPRESENTATION_CONTEXT(3)
GLOBAL_UNCERTAINTY_ASSIGNED_CONTEXT((#157))
GLOBAL_UNIT_ASSIGNED_CONTEXT((#162,#166,#167))
REPRESENTATION_CONTEXT('','3D')
);
#160=(
GEOMETRIC_REPRESENTATION_CONTEXT(3)
GLOBAL_UNCERTAINTY_ASSIGNED_CONTEXT((#158))
GLOBAL_UNIT_ASSIGNED_CONTEXT((#162,#166,#167))
REPRESENTATION_CONTEXT('','3D')
);
#161=DIMENSIONAL_EXPONENTS(1.,0.,0.,0.,0.,0.,0.);
#162=(
CONVERSION_BASED_UNIT('inch',#165)
LENGTH_UNIT()
NAMED_UNIT(#161)
);
#163=(
LENGTH_UNIT()
NAMED_UNIT(*)
SI_UNIT(.MILLI.,.METRE.)
);
#164=(
LENGTH_UNIT()
NAMED_UNIT(*)
SI_UNIT($,.METRE.)
);
#165=LENGTH_MEASURE_WITH_UNIT(LENGTH_MEASURE(25.4),#163);
#166=(
NAMED_UNIT(*)
PLANE_ANGLE_UNIT()
SI_UNIT($,.RADIAN.)
);
#167=(
NAMED_UNIT(*)
SI_UNIT($,.STERADIAN.)
SOLID_ANGLE_UNIT()
);
#168=SHAPE_DEFINITION_REPRESENTATION(#169,#170);
#169=PRODUCT_DEFINITION_SHAPE('',$,#172);
#170=SHAPE_REPRESENTATION('',(#97),#159);
#171=PRODUCT_DEFINITION_CONTEXT('part definition',#176,'design');
#172=PRODUCT_DEFINITION('02-TH-0037 DIE HEX TRIM - MACHINE 5',
'02-TH-0037 DIE HEX TRIM - MACHINE 5 v4',#173,#171);
#173=PRODUCT_DEFINITION_FORMATION('',$,#178);
#174=PRODUCT_RELATED_PRODUCT_CATEGORY(
'02-TH-0037 DIE HEX TRIM - MACHINE 5 v4',
'02-TH-0037 DIE HEX TRIM - MACHINE 5 v4',(#178));
#175=APPLICATION_PROTOCOL_DEFINITION('international standard',
'automotive_design',2009,#176);
#176=APPLICATION_CONTEXT(
'Core Data for Automotive Mechanical Design Process');
#177=PRODUCT_CONTEXT('part definition',#176,'mechanical');
#178=PRODUCT('02-TH-0037 DIE HEX TRIM - MACHINE 5',
'02-TH-0037 DIE HEX TRIM - MACHINE 5 v4',$,(#177));
#179=PRESENTATION_STYLE_ASSIGNMENT((#180));
#180=SURFACE_STYLE_USAGE(.BOTH.,#181);
#181=SURFACE_SIDE_STYLE('',(#182));
#182=SURFACE_STYLE_FILL_AREA(#183);
#183=FILL_AREA_STYLE('Steel - Satin',(#184));
#184=FILL_AREA_STYLE_COLOUR('Steel - Satin',#185);
#185=COLOUR_RGB('Steel - Satin',0.627450980392157,0.627450980392157,0.627450980392157);
ENDSEC;
END-ISO-10303-21;
