ISO-10303-21;
HEADER;
/* Generated by software containing ST-Developer
 * from STEP Tools, Inc. (www.steptools.com) 
 */

FILE_DESCRIPTION(
/* description */ (''),
/* implementation_level */ '2;1');

FILE_NAME(
/* name */ '09-FDP-AFR100-9 - MACHINE 1.step',
/* time_stamp */ '2026-01-07T10:45:33-06:00',
/* author */ (''),
/* organization */ (''),
/* preprocessor_version */ 'ST-DEVELOPER v20.1',
/* originating_system */ 'Autodesk Translation Framework v14.24.0.0',
/* authorisation */ '');

FILE_SCHEMA (('AUTOMOTIVE_DESIGN { 1 0 10303 214 3 1 1 }'));
ENDSEC;

DATA;
#10=MECHANICAL_DESIGN_GEOMETRIC_PRESENTATION_REPRESENTATION('',(#13),#226);
#11=SHAPE_REPRESENTATION_RELATIONSHIP('SRR','None',#236,#12);
#12=ADVANCED_BREP_SHAPE_REPRESENTATION('',(#14),#225);
#13=STYLED_ITEM('',(#245),#14);
#14=MANIFOLD_SOLID_BREP('Body1',#120);
#15=TOROIDAL_SURFACE('',#145,1.2015,0.064);
#16=CONICAL_SURFACE('',#143,0.910628396111657,1.1693705988362);
#17=CONICAL_SURFACE('',#148,1.2073508788953,0.471238898038469);
#18=CONICAL_SURFACE('',#150,1.06217734024254,0.785398163397449);
#19=FACE_BOUND('',#33,.T.);
#20=FACE_BOUND('',#36,.T.);
#21=PLANE('',#137);
#22=PLANE('',#141);
#23=FACE_OUTER_BOUND('',#31,.T.);
#24=FACE_OUTER_BOUND('',#32,.T.);
#25=FACE_OUTER_BOUND('',#34,.T.);
#26=FACE_OUTER_BOUND('',#35,.T.);
#27=FACE_OUTER_BOUND('',#37,.T.);
#28=FACE_OUTER_BOUND('',#38,.T.);
#29=FACE_OUTER_BOUND('',#39,.T.);
#30=FACE_OUTER_BOUND('',#40,.T.);
#31=EDGE_LOOP('',(#82,#83,#84,#85));
#32=EDGE_LOOP('',(#86));
#33=EDGE_LOOP('',(#87));
#34=EDGE_LOOP('',(#88,#89,#90,#91));
#35=EDGE_LOOP('',(#92));
#36=EDGE_LOOP('',(#93));
#37=EDGE_LOOP('',(#94,#95,#96,#97));
#38=EDGE_LOOP('',(#98,#99,#100,#101));
#39=EDGE_LOOP('',(#102,#103,#104,#105));
#40=EDGE_LOOP('',(#106,#107,#108,#109));
#41=LINE('',#197,#46);
#42=LINE('',#204,#47);
#43=LINE('',#212,#48);
#44=LINE('',#220,#49);
#45=LINE('',#222,#50);
#46=VECTOR('',#157,0.95317734024254);
#47=VECTOR('',#166,0.4965);
#48=VECTOR('',#177,0.910628396111657);
#49=VECTOR('',#188,1.2073508788953);
#50=VECTOR('',#191,1.06217734024254);
#51=CIRCLE('',#135,0.95317734024254);
#52=CIRCLE('',#136,0.95317734024254);
#53=CIRCLE('',#138,0.4965);
#54=CIRCLE('',#140,0.4965);
#55=CIRCLE('',#142,0.59475);
#56=CIRCLE('',#144,1.22650679222331);
#57=CIRCLE('',#146,1.25852441754806);
#58=CIRCLE('',#147,0.064);
#59=CIRCLE('',#149,1.15617734024254);
#60=VERTEX_POINT('',#194);
#61=VERTEX_POINT('',#196);
#62=VERTEX_POINT('',#200);
#63=VERTEX_POINT('',#203);
#64=VERTEX_POINT('',#207);
#65=VERTEX_POINT('',#210);
#66=VERTEX_POINT('',#214);
#67=VERTEX_POINT('',#218);
#68=EDGE_CURVE('',#60,#60,#51,.T.);
#69=EDGE_CURVE('',#60,#61,#41,.T.);
#70=EDGE_CURVE('',#61,#61,#52,.T.);
#71=EDGE_CURVE('',#62,#62,#53,.T.);
#72=EDGE_CURVE('',#62,#63,#42,.T.);
#73=EDGE_CURVE('',#63,#63,#54,.T.);
#74=EDGE_CURVE('',#64,#64,#55,.T.);
#75=EDGE_CURVE('',#65,#65,#56,.T.);
#76=EDGE_CURVE('',#65,#64,#43,.T.);
#77=EDGE_CURVE('',#66,#66,#57,.T.);
#78=EDGE_CURVE('',#66,#65,#58,.T.);
#79=EDGE_CURVE('',#67,#67,#59,.T.);
#80=EDGE_CURVE('',#67,#66,#44,.T.);
#81=EDGE_CURVE('',#61,#67,#45,.T.);
#82=ORIENTED_EDGE('',*,*,#68,.F.);
#83=ORIENTED_EDGE('',*,*,#69,.T.);
#84=ORIENTED_EDGE('',*,*,#70,.T.);
#85=ORIENTED_EDGE('',*,*,#69,.F.);
#86=ORIENTED_EDGE('',*,*,#68,.T.);
#87=ORIENTED_EDGE('',*,*,#71,.T.);
#88=ORIENTED_EDGE('',*,*,#71,.F.);
#89=ORIENTED_EDGE('',*,*,#72,.T.);
#90=ORIENTED_EDGE('',*,*,#73,.F.);
#91=ORIENTED_EDGE('',*,*,#72,.F.);
#92=ORIENTED_EDGE('',*,*,#74,.F.);
#93=ORIENTED_EDGE('',*,*,#73,.T.);
#94=ORIENTED_EDGE('',*,*,#75,.F.);
#95=ORIENTED_EDGE('',*,*,#76,.T.);
#96=ORIENTED_EDGE('',*,*,#74,.T.);
#97=ORIENTED_EDGE('',*,*,#76,.F.);
#98=ORIENTED_EDGE('',*,*,#77,.F.);
#99=ORIENTED_EDGE('',*,*,#78,.T.);
#100=ORIENTED_EDGE('',*,*,#75,.T.);
#101=ORIENTED_EDGE('',*,*,#78,.F.);
#102=ORIENTED_EDGE('',*,*,#79,.F.);
#103=ORIENTED_EDGE('',*,*,#80,.T.);
#104=ORIENTED_EDGE('',*,*,#77,.T.);
#105=ORIENTED_EDGE('',*,*,#80,.F.);
#106=ORIENTED_EDGE('',*,*,#70,.F.);
#107=ORIENTED_EDGE('',*,*,#81,.T.);
#108=ORIENTED_EDGE('',*,*,#79,.T.);
#109=ORIENTED_EDGE('',*,*,#81,.F.);
#110=CYLINDRICAL_SURFACE('',#134,0.95317734024254);
#111=CYLINDRICAL_SURFACE('',#139,0.4965);
#112=ADVANCED_FACE('',(#23),#110,.T.);
#113=ADVANCED_FACE('',(#24,#19),#21,.T.);
#114=ADVANCED_FACE('',(#25),#111,.F.);
#115=ADVANCED_FACE('',(#26,#20),#22,.T.);
#116=ADVANCED_FACE('',(#27),#16,.T.);
#117=ADVANCED_FACE('',(#28),#15,.T.);
#118=ADVANCED_FACE('',(#29),#17,.T.);
#119=ADVANCED_FACE('',(#30),#18,.T.);
#120=CLOSED_SHELL('',(#112,#113,#114,#115,#116,#117,#118,#119));
#121=DERIVED_UNIT_ELEMENT(#123,1.);
#122=DERIVED_UNIT_ELEMENT(#230,-3.);
#123=(
MASS_UNIT()
NAMED_UNIT(*)
SI_UNIT(.KILO.,.GRAM.)
);
#124=DERIVED_UNIT((#121,#122));
#125=MEASURE_REPRESENTATION_ITEM('density measure',
POSITIVE_RATIO_MEASURE(7850.),#124);
#126=PROPERTY_DEFINITION_REPRESENTATION(#131,#128);
#127=PROPERTY_DEFINITION_REPRESENTATION(#132,#129);
#128=REPRESENTATION('material name',(#130),#225);
#129=REPRESENTATION('density',(#125),#225);
#130=DESCRIPTIVE_REPRESENTATION_ITEM('Steel','Steel');
#131=PROPERTY_DEFINITION('material property','material name',#238);
#132=PROPERTY_DEFINITION('material property','density of part',#238);
#133=AXIS2_PLACEMENT_3D('',#192,#151,#152);
#134=AXIS2_PLACEMENT_3D('',#193,#153,#154);
#135=AXIS2_PLACEMENT_3D('',#195,#155,#156);
#136=AXIS2_PLACEMENT_3D('',#198,#158,#159);
#137=AXIS2_PLACEMENT_3D('',#199,#160,#161);
#138=AXIS2_PLACEMENT_3D('',#201,#162,#163);
#139=AXIS2_PLACEMENT_3D('',#202,#164,#165);
#140=AXIS2_PLACEMENT_3D('',#205,#167,#168);
#141=AXIS2_PLACEMENT_3D('',#206,#169,#170);
#142=AXIS2_PLACEMENT_3D('',#208,#171,#172);
#143=AXIS2_PLACEMENT_3D('',#209,#173,#174);
#144=AXIS2_PLACEMENT_3D('',#211,#175,#176);
#145=AXIS2_PLACEMENT_3D('',#213,#178,#179);
#146=AXIS2_PLACEMENT_3D('',#215,#180,#181);
#147=AXIS2_PLACEMENT_3D('',#216,#182,#183);
#148=AXIS2_PLACEMENT_3D('',#217,#184,#185);
#149=AXIS2_PLACEMENT_3D('',#219,#186,#187);
#150=AXIS2_PLACEMENT_3D('',#221,#189,#190);
#151=DIRECTION('axis',(0.,0.,1.));
#152=DIRECTION('refdir',(1.,0.,0.));
#153=DIRECTION('center_axis',(0.,0.,1.));
#154=DIRECTION('ref_axis',(1.,0.,0.));
#155=DIRECTION('center_axis',(0.,0.,1.));
#156=DIRECTION('ref_axis',(1.,0.,0.));
#157=DIRECTION('',(0.,0.,-1.));
#158=DIRECTION('center_axis',(0.,0.,1.));
#159=DIRECTION('ref_axis',(1.,0.,0.));
#160=DIRECTION('center_axis',(0.,0.,1.));
#161=DIRECTION('ref_axis',(1.,0.,0.));
#162=DIRECTION('center_axis',(0.,0.,-1.));
#163=DIRECTION('ref_axis',(1.,0.,0.));
#164=DIRECTION('center_axis',(0.,0.,1.));
#165=DIRECTION('ref_axis',(1.,0.,0.));
#166=DIRECTION('',(0.,0.,-1.));
#167=DIRECTION('center_axis',(0.,0.,1.));
#168=DIRECTION('ref_axis',(1.,0.,0.));
#169=DIRECTION('center_axis',(0.,0.,-1.));
#170=DIRECTION('ref_axis',(-1.,0.,0.));
#171=DIRECTION('center_axis',(0.,0.,1.));
#172=DIRECTION('ref_axis',(1.,0.,0.));
#173=DIRECTION('center_axis',(0.,0.,1.));
#174=DIRECTION('ref_axis',(1.,0.,0.));
#175=DIRECTION('center_axis',(0.,0.,1.));
#176=DIRECTION('ref_axis',(1.,0.,0.));
#177=DIRECTION('',(0.92050485345244,1.12729332238013E-16,-0.390731128489274));
#178=DIRECTION('center_axis',(0.,0.,1.));
#179=DIRECTION('ref_axis',(1.,0.,0.));
#180=DIRECTION('center_axis',(0.,0.,1.));
#181=DIRECTION('ref_axis',(1.,0.,0.));
#182=DIRECTION('center_axis',(1.22464679914735E-16,-1.,0.));
#183=DIRECTION('ref_axis',(-1.,-1.22464679914735E-16,0.));
#184=DIRECTION('center_axis',(0.,0.,-1.));
#185=DIRECTION('ref_axis',(1.,0.,0.));
#186=DIRECTION('center_axis',(0.,0.,1.));
#187=DIRECTION('ref_axis',(1.,0.,0.));
#188=DIRECTION('',(-0.453990499739547,-5.55978012349343E-17,-0.891006524188368));
#189=DIRECTION('center_axis',(0.,0.,-1.));
#190=DIRECTION('ref_axis',(1.,0.,0.));
#191=DIRECTION('',(-0.707106781186548,-8.65956056235494E-17,-0.707106781186547));
#192=CARTESIAN_POINT('',(0.,0.,0.));
#193=CARTESIAN_POINT('Origin',(0.,0.,0.015));
#194=CARTESIAN_POINT('',(-0.95317734024254,-1.16730557874781E-16,0.14));
#195=CARTESIAN_POINT('Origin',(0.,0.,0.14));
#196=CARTESIAN_POINT('',(-0.95317734024254,-1.16730557874781E-16,0.015));
#197=CARTESIAN_POINT('',(-0.95317734024254,-1.16730557874781E-16,0.015));
#198=CARTESIAN_POINT('Origin',(0.,0.,0.015));
#199=CARTESIAN_POINT('Origin',(0.4965,0.,0.14));
#200=CARTESIAN_POINT('',(-0.4965,6.08037135776661E-17,0.14));
#201=CARTESIAN_POINT('Origin',(0.,0.,0.14));
#202=CARTESIAN_POINT('Origin',(0.,0.,-0.3725));
#203=CARTESIAN_POINT('',(-0.4965,-6.08037135776661E-17,-0.745));
#204=CARTESIAN_POINT('',(-0.4965,-6.08037135776661E-17,-0.3725));
#205=CARTESIAN_POINT('Origin',(0.,0.,-0.745));
#206=CARTESIAN_POINT('Origin',(0.59475,0.,-0.745));
#207=CARTESIAN_POINT('',(-0.59475,-7.28358683792888E-17,-0.745));
#208=CARTESIAN_POINT('Origin',(0.,0.,-0.745));
#209=CARTESIAN_POINT('Origin',(0.,0.,-0.61091757586592));
#210=CARTESIAN_POINT('',(-1.22650679222331,-1.50203761722877E-16,-0.476835151731839));
#211=CARTESIAN_POINT('Origin',(0.,0.,-0.476835151731839));
#212=CARTESIAN_POINT('',(-0.910628396111657,-1.11519815051083E-16,-0.61091757586592));
#213=CARTESIAN_POINT('Origin',(0.,0.,-0.417922841110883));
#214=CARTESIAN_POINT('',(-1.25852441754806,-1.54124789959901E-16,-0.388867449127552));
#215=CARTESIAN_POINT('Origin',(0.,0.,-0.388867449127552));
#216=CARTESIAN_POINT('Origin',(-1.2015,-1.47141312917555E-16,-0.417922841110883));
#217=CARTESIAN_POINT('Origin',(0.,0.,-0.288433724563776));
#218=CARTESIAN_POINT('',(-1.15617734024254,-1.41590887897473E-16,-0.188));
#219=CARTESIAN_POINT('Origin',(0.,0.,-0.188));
#220=CARTESIAN_POINT('',(-1.2073508788953,-1.47857838928687E-16,-0.288433724563776));
#221=CARTESIAN_POINT('Origin',(0.,0.,-0.094));
#222=CARTESIAN_POINT('',(-1.06217734024254,-1.30079207985488E-16,-0.094));
#223=UNCERTAINTY_MEASURE_WITH_UNIT(LENGTH_MEASURE(0.000393700787401575),
#228,'DISTANCE_ACCURACY_VALUE',
'Maximum model space distance between geometric entities at asserted c
onnectivities');
#224=UNCERTAINTY_MEASURE_WITH_UNIT(LENGTH_MEASURE(0.000393700787401575),
#228,'DISTANCE_ACCURACY_VALUE',
'Maximum model space distance between geometric entities at asserted c
onnectivities');
#225=(
GEOMETRIC_REPRESENTATION_CONTEXT(3)
GLOBAL_UNCERTAINTY_ASSIGNED_CONTEXT((#223))
GLOBAL_UNIT_ASSIGNED_CONTEXT((#228,#232,#233))
REPRESENTATION_CONTEXT('','3D')
);
#226=(
GEOMETRIC_REPRESENTATION_CONTEXT(3)
GLOBAL_UNCERTAINTY_ASSIGNED_CONTEXT((#224))
GLOBAL_UNIT_ASSIGNED_CONTEXT((#228,#232,#233))
REPRESENTATION_CONTEXT('','3D')
);
#227=DIMENSIONAL_EXPONENTS(1.,0.,0.,0.,0.,0.,0.);
#228=(
CONVERSION_BASED_UNIT('inch',#231)
LENGTH_UNIT()
NAMED_UNIT(#227)
);
#229=(
LENGTH_UNIT()
NAMED_UNIT(*)
SI_UNIT(.MILLI.,.METRE.)
);
#230=(
LENGTH_UNIT()
NAMED_UNIT(*)
SI_UNIT($,.METRE.)
);
#231=LENGTH_MEASURE_WITH_UNIT(LENGTH_MEASURE(25.4),#229);
#232=(
NAMED_UNIT(*)
PLANE_ANGLE_UNIT()
SI_UNIT($,.RADIAN.)
);
#233=(
NAMED_UNIT(*)
SI_UNIT($,.STERADIAN.)
SOLID_ANGLE_UNIT()
);
#234=SHAPE_DEFINITION_REPRESENTATION(#235,#236);
#235=PRODUCT_DEFINITION_SHAPE('',$,#238);
#236=SHAPE_REPRESENTATION('',(#133),#225);
#237=PRODUCT_DEFINITION_CONTEXT('part definition',#242,'design');
#238=PRODUCT_DEFINITION('09-FDP-AFR100-9 - MACHINE 1',
'09-FDP-AFR100-9 - MACHINE 1 v5',#239,#237);
#239=PRODUCT_DEFINITION_FORMATION('',$,#244);
#240=PRODUCT_RELATED_PRODUCT_CATEGORY('09-FDP-AFR100-9 - MACHINE 1 v5',
'09-FDP-AFR100-9 - MACHINE 1 v5',(#244));
#241=APPLICATION_PROTOCOL_DEFINITION('international standard',
'automotive_design',2009,#242);
#242=APPLICATION_CONTEXT(
'Core Data for Automotive Mechanical Design Process');
#243=PRODUCT_CONTEXT('part definition',#242,'mechanical');
#244=PRODUCT('09-FDP-AFR100-9 - MACHINE 1',
'09-FDP-AFR100-9 - MACHINE 1 v5',$,(#243));
#245=PRESENTATION_STYLE_ASSIGNMENT((#246));
#246=SURFACE_STYLE_USAGE(.BOTH.,#247);
#247=SURFACE_SIDE_STYLE('',(#248));
#248=SURFACE_STYLE_FILL_AREA(#249);
#249=FILL_AREA_STYLE('Steel - Satin',(#250));
#250=FILL_AREA_STYLE_COLOUR('Steel - Satin',#251);
#251=COLOUR_RGB('Steel - Satin',0.627450980392157,0.627450980392157,0.627450980392157);
ENDSEC;
END-ISO-10303-21;
