ISO-10303-21;
HEADER;
/* Generated by software containing ST-Developer
 * from STEP Tools, Inc. (www.steptools.com) 
 */

FILE_DESCRIPTION(
/* description */ (''),
/* implementation_level */ '2;1');

FILE_NAME(
/* name */ '10-011-125  - MACHINE 4.step',
/* time_stamp */ '2026-01-07T10:43:57-06:00',
/* author */ (''),
/* organization */ (''),
/* preprocessor_version */ 'ST-DEVELOPER v20.1',
/* originating_system */ 'Autodesk Translation Framework v14.24.0.0',
/* authorisation */ '');

FILE_SCHEMA (('AUTOMOTIVE_DESIGN { 1 0 10303 214 3 1 1 }'));
ENDSEC;

DATA;
#10=MECHANICAL_DESIGN_GEOMETRIC_PRESENTATION_REPRESENTATION('',(#13),#232);
#11=SHAPE_REPRESENTATION_RELATIONSHIP('SRR','None',#242,#12);
#12=ADVANCED_BREP_SHAPE_REPRESENTATION('',(#14),#231);
#13=STYLED_ITEM('',(#251),#14);
#14=MANIFOLD_SOLID_BREP('Body1',#122);
#15=CYLINDRICAL_SURFACE('',#147,0.2565);
#16=CYLINDRICAL_SURFACE('',#152,0.691499999999999);
#17=CYLINDRICAL_SURFACE('',#153,0.2465);
#18=FACE_BOUND('',#46,.T.);
#19=PLANE('',#142);
#20=PLANE('',#149);
#21=PLANE('',#150);
#22=LINE('',#206,#27);
#23=LINE('',#215,#28);
#24=LINE('',#219,#29);
#25=LINE('',#226,#30);
#26=LINE('',#228,#31);
#27=VECTOR('',#166,0.53325);
#28=VECTOR('',#177,0.2515);
#29=VECTOR('',#182,0.2565);
#30=VECTOR('',#193,0.691499999999999);
#31=VECTOR('',#196,0.2465);
#32=CONICAL_SURFACE('',#140,0.53325,0.436332312998583);
#33=CONICAL_SURFACE('',#144,0.2515,0.0698131700797355);
#34=FACE_OUTER_BOUND('',#43,.T.);
#35=FACE_OUTER_BOUND('',#44,.T.);
#36=FACE_OUTER_BOUND('',#45,.T.);
#37=FACE_OUTER_BOUND('',#47,.T.);
#38=FACE_OUTER_BOUND('',#48,.T.);
#39=FACE_OUTER_BOUND('',#49,.T.);
#40=FACE_OUTER_BOUND('',#50,.T.);
#41=FACE_OUTER_BOUND('',#51,.T.);
#42=FACE_OUTER_BOUND('',#52,.T.);
#43=EDGE_LOOP('',(#84,#85,#86,#87));
#44=EDGE_LOOP('',(#88,#89,#90,#91));
#45=EDGE_LOOP('',(#92));
#46=EDGE_LOOP('',(#93));
#47=EDGE_LOOP('',(#94,#95,#96,#97));
#48=EDGE_LOOP('',(#98,#99,#100,#101));
#49=EDGE_LOOP('',(#102));
#50=EDGE_LOOP('',(#103));
#51=EDGE_LOOP('',(#104,#105,#106,#107));
#52=EDGE_LOOP('',(#108,#109,#110,#111));
#53=CIRCLE('',#137,0.371814648695962);
#54=CIRCLE('',#138,0.005);
#55=CIRCLE('',#139,0.376346187631146);
#56=CIRCLE('',#141,0.691499999999999);
#57=CIRCLE('',#143,0.2465);
#58=CIRCLE('',#145,0.2465);
#59=CIRCLE('',#146,0.2565);
#60=CIRCLE('',#148,0.2565);
#61=CIRCLE('',#151,0.691499999999999);
#62=VERTEX_POINT('',#199);
#63=VERTEX_POINT('',#201);
#64=VERTEX_POINT('',#205);
#65=VERTEX_POINT('',#209);
#66=VERTEX_POINT('',#212);
#67=VERTEX_POINT('',#214);
#68=VERTEX_POINT('',#218);
#69=VERTEX_POINT('',#223);
#70=EDGE_CURVE('',#62,#62,#53,.T.);
#71=EDGE_CURVE('',#62,#63,#54,.T.);
#72=EDGE_CURVE('',#63,#63,#55,.T.);
#73=EDGE_CURVE('',#63,#64,#22,.T.);
#74=EDGE_CURVE('',#64,#64,#56,.T.);
#75=EDGE_CURVE('',#65,#65,#57,.T.);
#76=EDGE_CURVE('',#66,#66,#58,.T.);
#77=EDGE_CURVE('',#66,#67,#23,.T.);
#78=EDGE_CURVE('',#67,#67,#59,.T.);
#79=EDGE_CURVE('',#67,#68,#24,.T.);
#80=EDGE_CURVE('',#68,#68,#60,.T.);
#81=EDGE_CURVE('',#69,#69,#61,.F.);
#82=EDGE_CURVE('',#64,#69,#25,.T.);
#83=EDGE_CURVE('',#65,#66,#26,.T.);
#84=ORIENTED_EDGE('',*,*,#70,.T.);
#85=ORIENTED_EDGE('',*,*,#71,.T.);
#86=ORIENTED_EDGE('',*,*,#72,.T.);
#87=ORIENTED_EDGE('',*,*,#71,.F.);
#88=ORIENTED_EDGE('',*,*,#72,.F.);
#89=ORIENTED_EDGE('',*,*,#73,.T.);
#90=ORIENTED_EDGE('',*,*,#74,.T.);
#91=ORIENTED_EDGE('',*,*,#73,.F.);
#92=ORIENTED_EDGE('',*,*,#70,.F.);
#93=ORIENTED_EDGE('',*,*,#75,.F.);
#94=ORIENTED_EDGE('',*,*,#76,.T.);
#95=ORIENTED_EDGE('',*,*,#77,.T.);
#96=ORIENTED_EDGE('',*,*,#78,.F.);
#97=ORIENTED_EDGE('',*,*,#77,.F.);
#98=ORIENTED_EDGE('',*,*,#78,.T.);
#99=ORIENTED_EDGE('',*,*,#79,.T.);
#100=ORIENTED_EDGE('',*,*,#80,.F.);
#101=ORIENTED_EDGE('',*,*,#79,.F.);
#102=ORIENTED_EDGE('',*,*,#80,.T.);
#103=ORIENTED_EDGE('',*,*,#81,.F.);
#104=ORIENTED_EDGE('',*,*,#74,.F.);
#105=ORIENTED_EDGE('',*,*,#82,.T.);
#106=ORIENTED_EDGE('',*,*,#81,.T.);
#107=ORIENTED_EDGE('',*,*,#82,.F.);
#108=ORIENTED_EDGE('',*,*,#75,.T.);
#109=ORIENTED_EDGE('',*,*,#83,.T.);
#110=ORIENTED_EDGE('',*,*,#76,.F.);
#111=ORIENTED_EDGE('',*,*,#83,.F.);
#112=TOROIDAL_SURFACE('',#136,0.371814648695962,0.005);
#113=ADVANCED_FACE('',(#34),#112,.T.);
#114=ADVANCED_FACE('',(#35),#32,.T.);
#115=ADVANCED_FACE('',(#36,#18),#19,.T.);
#116=ADVANCED_FACE('',(#37),#33,.F.);
#117=ADVANCED_FACE('',(#38),#15,.F.);
#118=ADVANCED_FACE('',(#39),#20,.T.);
#119=ADVANCED_FACE('',(#40),#21,.T.);
#120=ADVANCED_FACE('',(#41),#16,.T.);
#121=ADVANCED_FACE('',(#42),#17,.F.);
#122=CLOSED_SHELL('',(#113,#114,#115,#116,#117,#118,#119,#120,#121));
#123=DERIVED_UNIT_ELEMENT(#125,1.);
#124=DERIVED_UNIT_ELEMENT(#236,-3.);
#125=(
MASS_UNIT()
NAMED_UNIT(*)
SI_UNIT(.KILO.,.GRAM.)
);
#126=DERIVED_UNIT((#123,#124));
#127=MEASURE_REPRESENTATION_ITEM('density measure',
POSITIVE_RATIO_MEASURE(7850.),#126);
#128=PROPERTY_DEFINITION_REPRESENTATION(#133,#130);
#129=PROPERTY_DEFINITION_REPRESENTATION(#134,#131);
#130=REPRESENTATION('material name',(#132),#231);
#131=REPRESENTATION('density',(#127),#231);
#132=DESCRIPTIVE_REPRESENTATION_ITEM('Steel','Steel');
#133=PROPERTY_DEFINITION('material property','material name',#244);
#134=PROPERTY_DEFINITION('material property','density of part',#244);
#135=AXIS2_PLACEMENT_3D('',#197,#154,#155);
#136=AXIS2_PLACEMENT_3D('',#198,#156,#157);
#137=AXIS2_PLACEMENT_3D('',#200,#158,#159);
#138=AXIS2_PLACEMENT_3D('',#202,#160,#161);
#139=AXIS2_PLACEMENT_3D('',#203,#162,#163);
#140=AXIS2_PLACEMENT_3D('',#204,#164,#165);
#141=AXIS2_PLACEMENT_3D('',#207,#167,#168);
#142=AXIS2_PLACEMENT_3D('',#208,#169,#170);
#143=AXIS2_PLACEMENT_3D('',#210,#171,#172);
#144=AXIS2_PLACEMENT_3D('',#211,#173,#174);
#145=AXIS2_PLACEMENT_3D('',#213,#175,#176);
#146=AXIS2_PLACEMENT_3D('',#216,#178,#179);
#147=AXIS2_PLACEMENT_3D('',#217,#180,#181);
#148=AXIS2_PLACEMENT_3D('',#220,#183,#184);
#149=AXIS2_PLACEMENT_3D('',#221,#185,#186);
#150=AXIS2_PLACEMENT_3D('',#222,#187,#188);
#151=AXIS2_PLACEMENT_3D('',#224,#189,#190);
#152=AXIS2_PLACEMENT_3D('',#225,#191,#192);
#153=AXIS2_PLACEMENT_3D('',#227,#194,#195);
#154=DIRECTION('axis',(0.,0.,1.));
#155=DIRECTION('refdir',(1.,0.,0.));
#156=DIRECTION('center_axis',(-1.,0.,0.));
#157=DIRECTION('ref_axis',(0.,0.,1.));
#158=DIRECTION('center_axis',(1.,0.,0.));
#159=DIRECTION('ref_axis',(0.,1.22464679914735E-16,-1.));
#160=DIRECTION('center_axis',(0.,-1.,1.22464679914735E-16));
#161=DIRECTION('ref_axis',(0.,-1.22464679914735E-16,-1.));
#162=DIRECTION('center_axis',(-1.,0.,0.));
#163=DIRECTION('ref_axis',(0.,0.,-1.));
#164=DIRECTION('center_axis',(1.,0.,0.));
#165=DIRECTION('ref_axis',(0.,0.,1.));
#166=DIRECTION('',(0.90630778703665,-5.17558101501966E-17,-0.4226182617407));
#167=DIRECTION('center_axis',(-1.,0.,0.));
#168=DIRECTION('ref_axis',(0.,0.,1.));
#169=DIRECTION('center_axis',(-1.,0.,0.));
#170=DIRECTION('ref_axis',(0.,0.,1.));
#171=DIRECTION('center_axis',(-1.,0.,0.));
#172=DIRECTION('ref_axis',(0.,0.,1.));
#173=DIRECTION('center_axis',(1.,0.,0.));
#174=DIRECTION('ref_axis',(0.,0.,1.));
#175=DIRECTION('center_axis',(-1.,0.,0.));
#176=DIRECTION('ref_axis',(0.,0.,1.));
#177=DIRECTION('',(0.997564050259827,-8.54270422905034E-18,-0.0697564737440877));
#178=DIRECTION('center_axis',(-1.,0.,0.));
#179=DIRECTION('ref_axis',(0.,0.,1.));
#180=DIRECTION('center_axis',(-1.,0.,0.));
#181=DIRECTION('ref_axis',(0.,0.,1.));
#182=DIRECTION('',(1.,0.,0.));
#183=DIRECTION('center_axis',(-1.,0.,0.));
#184=DIRECTION('ref_axis',(0.,0.,1.));
#185=DIRECTION('center_axis',(-1.,0.,0.));
#186=DIRECTION('ref_axis',(0.,0.,1.));
#187=DIRECTION('center_axis',(1.,0.,0.));
#188=DIRECTION('ref_axis',(0.,0.,-1.));
#189=DIRECTION('center_axis',(1.,0.,0.));
#190=DIRECTION('ref_axis',(0.,0.,1.));
#191=DIRECTION('center_axis',(-1.,0.,0.));
#192=DIRECTION('ref_axis',(0.,0.,1.));
#193=DIRECTION('',(1.,0.,0.));
#194=DIRECTION('center_axis',(-1.,0.,0.));
#195=DIRECTION('ref_axis',(0.,0.,1.));
#196=DIRECTION('',(1.,0.,0.));
#197=CARTESIAN_POINT('',(0.,0.,0.));
#198=CARTESIAN_POINT('Origin',(0.00500000000000002,0.,0.));
#199=CARTESIAN_POINT('',(0.,-4.55341619401608E-17,-0.371814648695962));
#200=CARTESIAN_POINT('Origin',(0.,0.,0.));
#201=CARTESIAN_POINT('',(0.00288690869129659,-4.60891154053792E-17,-0.376346187631146));
#202=CARTESIAN_POINT('Origin',(0.00500000000000002,-4.55341619401608E-17,
-0.371814648695962));
#203=CARTESIAN_POINT('Origin',(0.00288690869129659,-4.60891154053792E-17,
0.));
#204=CARTESIAN_POINT('Origin',(0.339368220170637,0.,0.));
#205=CARTESIAN_POINT('',(0.678736440341273,-8.46843261610394E-17,-0.691499999999999));
#206=CARTESIAN_POINT('',(0.339368220170637,-6.53042905645326E-17,-0.53325));
#207=CARTESIAN_POINT('Origin',(0.678736440341273,0.,0.));
#208=CARTESIAN_POINT('Origin',(0.,0.,0.2465));
#209=CARTESIAN_POINT('',(0.,-3.01875435989823E-17,-0.2465));
#210=CARTESIAN_POINT('Origin',(0.,0.,0.));
#211=CARTESIAN_POINT('Origin',(0.868496668716401,0.,0.));
#212=CARTESIAN_POINT('',(0.796993337432803,-3.01875435989823E-17,-0.2465));
#213=CARTESIAN_POINT('Origin',(0.796993337432803,0.,0.));
#214=CARTESIAN_POINT('',(0.94,-3.14121903981296E-17,-0.2565));
#215=CARTESIAN_POINT('',(0.868496668716401,-3.07998669985559E-17,-0.2515));
#216=CARTESIAN_POINT('Origin',(0.94,0.,0.));
#217=CARTESIAN_POINT('Origin',(0.97,0.,0.));
#218=CARTESIAN_POINT('',(1.,-3.14121903981296E-17,-0.2565));
#219=CARTESIAN_POINT('',(0.97,-3.14121903981296E-17,-0.2565));
#220=CARTESIAN_POINT('Origin',(1.,0.,0.));
#221=CARTESIAN_POINT('Origin',(1.,0.,-6.30248593732672E-16));
#222=CARTESIAN_POINT('Origin',(3.515,0.,0.6915));
#223=CARTESIAN_POINT('',(3.515,8.46843261610394E-17,-0.691499999999999));
#224=CARTESIAN_POINT('Origin',(3.515,0.,0.));
#225=CARTESIAN_POINT('Origin',(2.08936822017064,0.,0.));
#226=CARTESIAN_POINT('',(2.08936822017064,-8.46843261610394E-17,-0.691499999999999));
#227=CARTESIAN_POINT('Origin',(0.398496668716401,0.,0.));
#228=CARTESIAN_POINT('',(0.398496668716401,-3.01875435989823E-17,-0.2465));
#229=UNCERTAINTY_MEASURE_WITH_UNIT(LENGTH_MEASURE(0.000393700787401575),
#234,'DISTANCE_ACCURACY_VALUE',
'Maximum model space distance between geometric entities at asserted c
onnectivities');
#230=UNCERTAINTY_MEASURE_WITH_UNIT(LENGTH_MEASURE(0.000393700787401575),
#234,'DISTANCE_ACCURACY_VALUE',
'Maximum model space distance between geometric entities at asserted c
onnectivities');
#231=(
GEOMETRIC_REPRESENTATION_CONTEXT(3)
GLOBAL_UNCERTAINTY_ASSIGNED_CONTEXT((#229))
GLOBAL_UNIT_ASSIGNED_CONTEXT((#234,#238,#239))
REPRESENTATION_CONTEXT('','3D')
);
#232=(
GEOMETRIC_REPRESENTATION_CONTEXT(3)
GLOBAL_UNCERTAINTY_ASSIGNED_CONTEXT((#230))
GLOBAL_UNIT_ASSIGNED_CONTEXT((#234,#238,#239))
REPRESENTATION_CONTEXT('','3D')
);
#233=DIMENSIONAL_EXPONENTS(1.,0.,0.,0.,0.,0.,0.);
#234=(
CONVERSION_BASED_UNIT('inch',#237)
LENGTH_UNIT()
NAMED_UNIT(#233)
);
#235=(
LENGTH_UNIT()
NAMED_UNIT(*)
SI_UNIT(.MILLI.,.METRE.)
);
#236=(
LENGTH_UNIT()
NAMED_UNIT(*)
SI_UNIT($,.METRE.)
);
#237=LENGTH_MEASURE_WITH_UNIT(LENGTH_MEASURE(25.4),#235);
#238=(
NAMED_UNIT(*)
PLANE_ANGLE_UNIT()
SI_UNIT($,.RADIAN.)
);
#239=(
NAMED_UNIT(*)
SI_UNIT($,.STERADIAN.)
SOLID_ANGLE_UNIT()
);
#240=SHAPE_DEFINITION_REPRESENTATION(#241,#242);
#241=PRODUCT_DEFINITION_SHAPE('',$,#244);
#242=SHAPE_REPRESENTATION('',(#135),#231);
#243=PRODUCT_DEFINITION_CONTEXT('part definition',#248,'design');
#244=PRODUCT_DEFINITION('10-011-125  - MACHINE 4',
'10-011-125  - MACHINE 4 v3',#245,#243);
#245=PRODUCT_DEFINITION_FORMATION('',$,#250);
#246=PRODUCT_RELATED_PRODUCT_CATEGORY('10-011-125  - MACHINE 4 v3',
'10-011-125  - MACHINE 4 v3',(#250));
#247=APPLICATION_PROTOCOL_DEFINITION('international standard',
'automotive_design',2009,#248);
#248=APPLICATION_CONTEXT(
'Core Data for Automotive Mechanical Design Process');
#249=PRODUCT_CONTEXT('part definition',#248,'mechanical');
#250=PRODUCT('10-011-125  - MACHINE 4','10-011-125  - MACHINE 4 v3',$,(#249));
#251=PRESENTATION_STYLE_ASSIGNMENT((#252));
#252=SURFACE_STYLE_USAGE(.BOTH.,#253);
#253=SURFACE_SIDE_STYLE('',(#254));
#254=SURFACE_STYLE_FILL_AREA(#255);
#255=FILL_AREA_STYLE('Steel - Satin',(#256));
#256=FILL_AREA_STYLE_COLOUR('Steel - Satin',#257);
#257=COLOUR_RGB('Steel - Satin',0.627450980392157,0.627450980392157,0.627450980392157);
ENDSEC;
END-ISO-10303-21;
