ISO-10303-21;
HEADER;
/* Generated by software containing ST-Developer
 * from STEP Tools, Inc. (www.steptools.com) 
 */

FILE_DESCRIPTION(
/* description */ (''),
/* implementation_level */ '2;1');

FILE_NAME(
/* name */ '10-010-092 - MULTUS.step',
/* time_stamp */ '2026-01-07T10:41:45-06:00',
/* author */ (''),
/* organization */ (''),
/* preprocessor_version */ 'ST-DEVELOPER v20.1',
/* originating_system */ 'Autodesk Translation Framework v14.24.0.0',
/* authorisation */ '');

FILE_SCHEMA (('AUTOMOTIVE_DESIGN { 1 0 10303 214 3 1 1 }'));
ENDSEC;

DATA;
#10=MECHANICAL_DESIGN_GEOMETRIC_PRESENTATION_REPRESENTATION('',(#13),#553);
#11=SHAPE_REPRESENTATION_RELATIONSHIP('SRR','None',#563,#12);
#12=ADVANCED_BREP_SHAPE_REPRESENTATION('',(#14),#552);
#13=STYLED_ITEM('',(#572),#14);
#14=MANIFOLD_SOLID_BREP('Body1',#271);
#15=(
BOUNDED_CURVE()
B_SPLINE_CURVE(2,(#522,#523,#524),.UNSPECIFIED.,.F.,.F.)
B_SPLINE_CURVE_WITH_KNOTS((3,3),(0.,0.302507192080705),.UNSPECIFIED.)
CURVE()
GEOMETRIC_REPRESENTATION_ITEM()
RATIONAL_B_SPLINE_CURVE((1.,1.00116964872079,1.))
REPRESENTATION_ITEM('')
);
#16=(
BOUNDED_CURVE()
B_SPLINE_CURVE(2,(#527,#528,#529),.UNSPECIFIED.,.F.,.F.)
B_SPLINE_CURVE_WITH_KNOTS((3,3),(0.,0.302507192080705),.UNSPECIFIED.)
CURVE()
GEOMETRIC_REPRESENTATION_ITEM()
RATIONAL_B_SPLINE_CURVE((1.,1.00116964872079,1.))
REPRESENTATION_ITEM('')
);
#17=ELLIPSE('',#301,1.13334932768684,1.06499999999999);
#18=ELLIPSE('',#302,3.11385168617366,1.06499999999999);
#19=CONICAL_SURFACE('',#294,1.03375,0.785398163397406);
#20=CONICAL_SURFACE('',#311,0.3755,0.0698131700795429);
#21=CONICAL_SURFACE('',#317,1.03249999999997,0.785398163397744);
#22=B_SPLINE_CURVE_WITH_KNOTS('',3,(#419,#420,#421,#422,#423,#424,#425,
#426,#427,#428),.UNSPECIFIED.,.F.,.F.,(4,2,2,2,4),(0.,0.122223450420999,
0.244446900841998,0.3663341005891,0.488221300336202),.UNSPECIFIED.);
#23=B_SPLINE_CURVE_WITH_KNOTS('',3,(#429,#430,#431,#432,#433,#434,#435,
#436,#437,#438,#439,#440,#441,#442,#443,#444,#445,#446,#447,#448,#449,#450,
#451,#452,#453,#454),.UNSPECIFIED.,.F.,.F.,(4,2,2,2,2,2,2,2,2,2,2,2,4),
(0.488221300336202,0.610108500083304,0.731995699830406,0.854219150251405,
0.976442600672404,1.0986660510934,1.2208895015144,1.3427767012615,1.46466390100861,
1.58655110075571,1.70843830050281,1.83066175092381,1.95288520134481),
 .UNSPECIFIED.);
#24=B_SPLINE_CURVE_WITH_KNOTS('',3,(#479,#480,#481,#482,#483,#484,#485,
#486,#487,#488,#489,#490,#491,#492,#493,#494,#495,#496,#497,#498,#499,#500,
#501,#502,#503,#504),.UNSPECIFIED.,.F.,.F.,(4,2,2,2,2,2,2,2,2,2,2,2,4),
(0.,0.1197169367211,0.2394338734422,0.359150034096845,0.478866194751491,
0.598582355406136,0.718298516060782,0.838015452781882,0.957732389502982,
1.07744932622408,1.19716626294518,1.31688242359983,1.43659858425447),
 .UNSPECIFIED.);
#25=B_SPLINE_CURVE_WITH_KNOTS('',3,(#505,#506,#507,#508,#509,#510,#511,
#512,#513,#514),.UNSPECIFIED.,.F.,.F.,(4,2,2,2,4),(1.43659858425447,1.55631474490912,
1.67603090556376,1.79574784228486,1.91546477900596),.UNSPECIFIED.);
#26=LINE('',#415,#38);
#27=LINE('',#457,#39);
#28=LINE('',#463,#40);
#29=LINE('',#467,#41);
#30=LINE('',#471,#42);
#31=LINE('',#516,#43);
#32=LINE('',#518,#44);
#33=LINE('',#525,#45);
#34=LINE('',#530,#46);
#35=LINE('',#536,#47);
#36=LINE('',#540,#48);
#37=LINE('',#544,#49);
#38=VECTOR('',#337,0.2495);
#39=VECTOR('',#342,1.03375);
#40=VECTOR('',#349,1.06499999999999);
#41=VECTOR('',#352,0.393700787401575);
#42=VECTOR('',#355,0.393700787401575);
#43=VECTOR('',#364,0.125);
#44=VECTOR('',#367,0.393700787401575);
#45=VECTOR('',#372,0.393700787401575);
#46=VECTOR('',#373,0.393700787401575);
#47=VECTOR('',#380,0.3805);
#48=VECTOR('',#385,0.3755);
#49=VECTOR('',#390,0.3705);
#50=CYLINDRICAL_SURFACE('',#292,0.2495);
#51=CYLINDRICAL_SURFACE('',#297,1.06499999999999);
#52=CYLINDRICAL_SURFACE('',#303,0.125);
#53=CYLINDRICAL_SURFACE('',#308,0.3805);
#54=CYLINDRICAL_SURFACE('',#313,0.3705);
#55=FACE_BOUND('',#86,.T.);
#56=FACE_BOUND('',#88,.T.);
#57=FACE_BOUND('',#91,.T.);
#58=FACE_BOUND('',#92,.T.);
#59=FACE_BOUND('',#102,.T.);
#60=FACE_BOUND('',#105,.T.);
#61=PLANE('',#290);
#62=PLANE('',#304);
#63=PLANE('',#305);
#64=PLANE('',#306);
#65=PLANE('',#307);
#66=PLANE('',#315);
#67=PLANE('',#318);
#68=FACE_OUTER_BOUND('',#84,.T.);
#69=FACE_OUTER_BOUND('',#85,.T.);
#70=FACE_OUTER_BOUND('',#87,.T.);
#71=FACE_OUTER_BOUND('',#89,.T.);
#72=FACE_OUTER_BOUND('',#90,.T.);
#73=FACE_OUTER_BOUND('',#93,.T.);
#74=FACE_OUTER_BOUND('',#94,.T.);
#75=FACE_OUTER_BOUND('',#95,.T.);
#76=FACE_OUTER_BOUND('',#96,.T.);
#77=FACE_OUTER_BOUND('',#97,.T.);
#78=FACE_OUTER_BOUND('',#98,.T.);
#79=FACE_OUTER_BOUND('',#99,.T.);
#80=FACE_OUTER_BOUND('',#100,.T.);
#81=FACE_OUTER_BOUND('',#101,.T.);
#82=FACE_OUTER_BOUND('',#103,.T.);
#83=FACE_OUTER_BOUND('',#104,.T.);
#84=EDGE_LOOP('',(#182,#183,#184,#185,#186));
#85=EDGE_LOOP('',(#187));
#86=EDGE_LOOP('',(#188));
#87=EDGE_LOOP('',(#189,#190,#191,#192,#193));
#88=EDGE_LOOP('',(#194,#195));
#89=EDGE_LOOP('',(#196,#197,#198,#199,#200));
#90=EDGE_LOOP('',(#201,#202,#203,#204,#205,#206,#207,#208,#209));
#91=EDGE_LOOP('',(#210,#211));
#92=EDGE_LOOP('',(#212,#213));
#93=EDGE_LOOP('',(#214,#215,#216,#217,#218,#219));
#94=EDGE_LOOP('',(#220,#221));
#95=EDGE_LOOP('',(#222,#223));
#96=EDGE_LOOP('',(#224,#225,#226,#227,#228,#229));
#97=EDGE_LOOP('',(#230,#231));
#98=EDGE_LOOP('',(#232,#233,#234,#235));
#99=EDGE_LOOP('',(#236,#237,#238,#239));
#100=EDGE_LOOP('',(#240,#241,#242,#243));
#101=EDGE_LOOP('',(#244,#245));
#102=EDGE_LOOP('',(#246));
#103=EDGE_LOOP('',(#247,#248,#249,#250,#251));
#104=EDGE_LOOP('',(#252));
#105=EDGE_LOOP('',(#253));
#106=CIRCLE('',#286,0.2495);
#107=CIRCLE('',#287,0.2495);
#108=CIRCLE('',#288,0.032);
#109=CIRCLE('',#289,0.2815);
#110=CIRCLE('',#291,1.0025);
#111=CIRCLE('',#293,0.2495);
#112=CIRCLE('',#295,1.06499999999999);
#113=CIRCLE('',#296,1.06499999999999);
#114=CIRCLE('',#298,1.06499999999999);
#115=CIRCLE('',#299,1.06499999999999);
#116=CIRCLE('',#300,1.06499999999999);
#117=CIRCLE('',#309,0.3805);
#118=CIRCLE('',#310,0.3805);
#119=CIRCLE('',#312,0.3705);
#120=CIRCLE('',#314,0.3705);
#121=CIRCLE('',#316,0.999999999999951);
#122=VERTEX_POINT('',#403);
#123=VERTEX_POINT('',#404);
#124=VERTEX_POINT('',#407);
#125=VERTEX_POINT('',#411);
#126=VERTEX_POINT('',#414);
#127=VERTEX_POINT('',#417);
#128=VERTEX_POINT('',#418);
#129=VERTEX_POINT('',#456);
#130=VERTEX_POINT('',#458);
#131=VERTEX_POINT('',#462);
#132=VERTEX_POINT('',#464);
#133=VERTEX_POINT('',#466);
#134=VERTEX_POINT('',#468);
#135=VERTEX_POINT('',#470);
#136=VERTEX_POINT('',#473);
#137=VERTEX_POINT('',#474);
#138=VERTEX_POINT('',#477);
#139=VERTEX_POINT('',#478);
#140=VERTEX_POINT('',#521);
#141=VERTEX_POINT('',#526);
#142=VERTEX_POINT('',#533);
#143=VERTEX_POINT('',#535);
#144=VERTEX_POINT('',#539);
#145=VERTEX_POINT('',#543);
#146=EDGE_CURVE('',#122,#123,#106,.T.);
#147=EDGE_CURVE('',#123,#122,#107,.T.);
#148=EDGE_CURVE('',#122,#124,#108,.T.);
#149=EDGE_CURVE('',#124,#124,#109,.T.);
#150=EDGE_CURVE('',#125,#125,#110,.T.);
#151=EDGE_CURVE('',#123,#126,#26,.T.);
#152=EDGE_CURVE('',#126,#126,#111,.T.);
#153=EDGE_CURVE('',#127,#128,#22,.T.);
#154=EDGE_CURVE('',#128,#127,#23,.T.);
#155=EDGE_CURVE('',#125,#129,#27,.T.);
#156=EDGE_CURVE('',#129,#130,#112,.T.);
#157=EDGE_CURVE('',#130,#129,#113,.T.);
#158=EDGE_CURVE('',#130,#131,#28,.T.);
#159=EDGE_CURVE('',#131,#132,#114,.T.);
#160=EDGE_CURVE('',#132,#133,#29,.T.);
#161=EDGE_CURVE('',#133,#134,#115,.T.);
#162=EDGE_CURVE('',#134,#135,#30,.T.);
#163=EDGE_CURVE('',#135,#131,#116,.T.);
#164=EDGE_CURVE('',#136,#137,#17,.T.);
#165=EDGE_CURVE('',#137,#136,#18,.T.);
#166=EDGE_CURVE('',#138,#139,#24,.T.);
#167=EDGE_CURVE('',#139,#138,#25,.T.);
#168=EDGE_CURVE('',#128,#139,#31,.T.);
#169=EDGE_CURVE('',#136,#137,#32,.T.);
#170=EDGE_CURVE('',#135,#140,#15,.T.);
#171=EDGE_CURVE('',#134,#133,#33,.T.);
#172=EDGE_CURVE('',#141,#132,#16,.T.);
#173=EDGE_CURVE('',#140,#141,#34,.T.);
#174=EDGE_CURVE('',#142,#142,#117,.T.);
#175=EDGE_CURVE('',#142,#143,#35,.T.);
#176=EDGE_CURVE('',#143,#143,#118,.T.);
#177=EDGE_CURVE('',#143,#144,#36,.T.);
#178=EDGE_CURVE('',#144,#144,#119,.T.);
#179=EDGE_CURVE('',#144,#145,#37,.T.);
#180=EDGE_CURVE('',#145,#145,#120,.T.);
#181=EDGE_CURVE('',#140,#141,#121,.T.);
#182=ORIENTED_EDGE('',*,*,#146,.T.);
#183=ORIENTED_EDGE('',*,*,#147,.T.);
#184=ORIENTED_EDGE('',*,*,#148,.T.);
#185=ORIENTED_EDGE('',*,*,#149,.T.);
#186=ORIENTED_EDGE('',*,*,#148,.F.);
#187=ORIENTED_EDGE('',*,*,#150,.F.);
#188=ORIENTED_EDGE('',*,*,#149,.F.);
#189=ORIENTED_EDGE('',*,*,#146,.F.);
#190=ORIENTED_EDGE('',*,*,#147,.F.);
#191=ORIENTED_EDGE('',*,*,#151,.T.);
#192=ORIENTED_EDGE('',*,*,#152,.F.);
#193=ORIENTED_EDGE('',*,*,#151,.F.);
#194=ORIENTED_EDGE('',*,*,#153,.T.);
#195=ORIENTED_EDGE('',*,*,#154,.T.);
#196=ORIENTED_EDGE('',*,*,#150,.T.);
#197=ORIENTED_EDGE('',*,*,#155,.T.);
#198=ORIENTED_EDGE('',*,*,#156,.T.);
#199=ORIENTED_EDGE('',*,*,#157,.T.);
#200=ORIENTED_EDGE('',*,*,#155,.F.);
#201=ORIENTED_EDGE('',*,*,#156,.F.);
#202=ORIENTED_EDGE('',*,*,#157,.F.);
#203=ORIENTED_EDGE('',*,*,#158,.T.);
#204=ORIENTED_EDGE('',*,*,#159,.T.);
#205=ORIENTED_EDGE('',*,*,#160,.T.);
#206=ORIENTED_EDGE('',*,*,#161,.T.);
#207=ORIENTED_EDGE('',*,*,#162,.T.);
#208=ORIENTED_EDGE('',*,*,#163,.T.);
#209=ORIENTED_EDGE('',*,*,#158,.F.);
#210=ORIENTED_EDGE('',*,*,#164,.T.);
#211=ORIENTED_EDGE('',*,*,#165,.T.);
#212=ORIENTED_EDGE('',*,*,#166,.T.);
#213=ORIENTED_EDGE('',*,*,#167,.T.);
#214=ORIENTED_EDGE('',*,*,#153,.F.);
#215=ORIENTED_EDGE('',*,*,#154,.F.);
#216=ORIENTED_EDGE('',*,*,#168,.T.);
#217=ORIENTED_EDGE('',*,*,#166,.F.);
#218=ORIENTED_EDGE('',*,*,#167,.F.);
#219=ORIENTED_EDGE('',*,*,#168,.F.);
#220=ORIENTED_EDGE('',*,*,#164,.F.);
#221=ORIENTED_EDGE('',*,*,#169,.T.);
#222=ORIENTED_EDGE('',*,*,#165,.F.);
#223=ORIENTED_EDGE('',*,*,#169,.F.);
#224=ORIENTED_EDGE('',*,*,#170,.F.);
#225=ORIENTED_EDGE('',*,*,#162,.F.);
#226=ORIENTED_EDGE('',*,*,#171,.T.);
#227=ORIENTED_EDGE('',*,*,#160,.F.);
#228=ORIENTED_EDGE('',*,*,#172,.F.);
#229=ORIENTED_EDGE('',*,*,#173,.F.);
#230=ORIENTED_EDGE('',*,*,#161,.F.);
#231=ORIENTED_EDGE('',*,*,#171,.F.);
#232=ORIENTED_EDGE('',*,*,#174,.T.);
#233=ORIENTED_EDGE('',*,*,#175,.T.);
#234=ORIENTED_EDGE('',*,*,#176,.F.);
#235=ORIENTED_EDGE('',*,*,#175,.F.);
#236=ORIENTED_EDGE('',*,*,#176,.T.);
#237=ORIENTED_EDGE('',*,*,#177,.T.);
#238=ORIENTED_EDGE('',*,*,#178,.F.);
#239=ORIENTED_EDGE('',*,*,#177,.F.);
#240=ORIENTED_EDGE('',*,*,#178,.T.);
#241=ORIENTED_EDGE('',*,*,#179,.T.);
#242=ORIENTED_EDGE('',*,*,#180,.F.);
#243=ORIENTED_EDGE('',*,*,#179,.F.);
#244=ORIENTED_EDGE('',*,*,#173,.T.);
#245=ORIENTED_EDGE('',*,*,#181,.F.);
#246=ORIENTED_EDGE('',*,*,#180,.T.);
#247=ORIENTED_EDGE('',*,*,#172,.T.);
#248=ORIENTED_EDGE('',*,*,#159,.F.);
#249=ORIENTED_EDGE('',*,*,#163,.F.);
#250=ORIENTED_EDGE('',*,*,#170,.T.);
#251=ORIENTED_EDGE('',*,*,#181,.T.);
#252=ORIENTED_EDGE('',*,*,#174,.F.);
#253=ORIENTED_EDGE('',*,*,#152,.T.);
#254=TOROIDAL_SURFACE('',#285,0.2815,0.032);
#255=ADVANCED_FACE('',(#68),#254,.T.);
#256=ADVANCED_FACE('',(#69,#55),#61,.T.);
#257=ADVANCED_FACE('',(#70,#56),#50,.F.);
#258=ADVANCED_FACE('',(#71),#19,.T.);
#259=ADVANCED_FACE('',(#72,#57,#58),#51,.T.);
#260=ADVANCED_FACE('',(#73),#52,.F.);
#261=ADVANCED_FACE('',(#74),#62,.F.);
#262=ADVANCED_FACE('',(#75),#63,.F.);
#263=ADVANCED_FACE('',(#76),#64,.F.);
#264=ADVANCED_FACE('',(#77),#65,.F.);
#265=ADVANCED_FACE('',(#78),#53,.F.);
#266=ADVANCED_FACE('',(#79),#20,.F.);
#267=ADVANCED_FACE('',(#80),#54,.F.);
#268=ADVANCED_FACE('',(#81,#59),#66,.T.);
#269=ADVANCED_FACE('',(#82),#21,.T.);
#270=ADVANCED_FACE('',(#83,#60),#67,.T.);
#271=CLOSED_SHELL('',(#255,#256,#257,#258,#259,#260,#261,#262,#263,#264,
#265,#266,#267,#268,#269,#270));
#272=DERIVED_UNIT_ELEMENT(#274,1.);
#273=DERIVED_UNIT_ELEMENT(#557,-3.);
#274=(
MASS_UNIT()
NAMED_UNIT(*)
SI_UNIT(.KILO.,.GRAM.)
);
#275=DERIVED_UNIT((#272,#273));
#276=MEASURE_REPRESENTATION_ITEM('density measure',
POSITIVE_RATIO_MEASURE(7850.),#275);
#277=PROPERTY_DEFINITION_REPRESENTATION(#282,#279);
#278=PROPERTY_DEFINITION_REPRESENTATION(#283,#280);
#279=REPRESENTATION('material name',(#281),#552);
#280=REPRESENTATION('density',(#276),#552);
#281=DESCRIPTIVE_REPRESENTATION_ITEM('Steel','Steel');
#282=PROPERTY_DEFINITION('material property','material name',#565);
#283=PROPERTY_DEFINITION('material property','density of part',#565);
#284=AXIS2_PLACEMENT_3D('',#401,#319,#320);
#285=AXIS2_PLACEMENT_3D('',#402,#321,#322);
#286=AXIS2_PLACEMENT_3D('',#405,#323,#324);
#287=AXIS2_PLACEMENT_3D('',#406,#325,#326);
#288=AXIS2_PLACEMENT_3D('',#408,#327,#328);
#289=AXIS2_PLACEMENT_3D('',#409,#329,#330);
#290=AXIS2_PLACEMENT_3D('',#410,#331,#332);
#291=AXIS2_PLACEMENT_3D('',#412,#333,#334);
#292=AXIS2_PLACEMENT_3D('',#413,#335,#336);
#293=AXIS2_PLACEMENT_3D('',#416,#338,#339);
#294=AXIS2_PLACEMENT_3D('',#455,#340,#341);
#295=AXIS2_PLACEMENT_3D('',#459,#343,#344);
#296=AXIS2_PLACEMENT_3D('',#460,#345,#346);
#297=AXIS2_PLACEMENT_3D('',#461,#347,#348);
#298=AXIS2_PLACEMENT_3D('',#465,#350,#351);
#299=AXIS2_PLACEMENT_3D('',#469,#353,#354);
#300=AXIS2_PLACEMENT_3D('',#472,#356,#357);
#301=AXIS2_PLACEMENT_3D('',#475,#358,#359);
#302=AXIS2_PLACEMENT_3D('',#476,#360,#361);
#303=AXIS2_PLACEMENT_3D('',#515,#362,#363);
#304=AXIS2_PLACEMENT_3D('',#517,#365,#366);
#305=AXIS2_PLACEMENT_3D('',#519,#368,#369);
#306=AXIS2_PLACEMENT_3D('',#520,#370,#371);
#307=AXIS2_PLACEMENT_3D('',#531,#374,#375);
#308=AXIS2_PLACEMENT_3D('',#532,#376,#377);
#309=AXIS2_PLACEMENT_3D('',#534,#378,#379);
#310=AXIS2_PLACEMENT_3D('',#537,#381,#382);
#311=AXIS2_PLACEMENT_3D('',#538,#383,#384);
#312=AXIS2_PLACEMENT_3D('',#541,#386,#387);
#313=AXIS2_PLACEMENT_3D('',#542,#388,#389);
#314=AXIS2_PLACEMENT_3D('',#545,#391,#392);
#315=AXIS2_PLACEMENT_3D('',#546,#393,#394);
#316=AXIS2_PLACEMENT_3D('',#547,#395,#396);
#317=AXIS2_PLACEMENT_3D('',#548,#397,#398);
#318=AXIS2_PLACEMENT_3D('',#549,#399,#400);
#319=DIRECTION('axis',(0.,0.,1.));
#320=DIRECTION('refdir',(1.,0.,0.));
#321=DIRECTION('center_axis',(0.,0.,-1.));
#322=DIRECTION('ref_axis',(-1.,0.,0.));
#323=DIRECTION('center_axis',(0.,0.,1.));
#324=DIRECTION('ref_axis',(6.12323399573677E-17,-1.,0.));
#325=DIRECTION('center_axis',(0.,0.,1.));
#326=DIRECTION('ref_axis',(6.12323399573677E-17,-1.,0.));
#327=DIRECTION('center_axis',(-1.22464679914735E-16,-1.,0.));
#328=DIRECTION('ref_axis',(1.,-1.22464679914735E-16,0.));
#329=DIRECTION('center_axis',(0.,0.,-1.));
#330=DIRECTION('ref_axis',(6.12323399573677E-17,-1.,0.));
#331=DIRECTION('center_axis',(0.,0.,-1.));
#332=DIRECTION('ref_axis',(-1.,0.,0.));
#333=DIRECTION('center_axis',(0.,0.,1.));
#334=DIRECTION('ref_axis',(0.,-1.,0.));
#335=DIRECTION('center_axis',(0.,0.,-1.));
#336=DIRECTION('ref_axis',(0.,1.,0.));
#337=DIRECTION('',(0.,0.,1.));
#338=DIRECTION('center_axis',(0.,0.,-1.));
#339=DIRECTION('ref_axis',(1.,0.,0.));
#340=DIRECTION('center_axis',(0.,0.,1.));
#341=DIRECTION('ref_axis',(0.,-1.,0.));
#342=DIRECTION('',(8.65956056235457E-17,0.707106781186518,0.707106781186577));
#343=DIRECTION('center_axis',(0.,0.,-1.));
#344=DIRECTION('ref_axis',(0.,-1.,0.));
#345=DIRECTION('center_axis',(0.,0.,-1.));
#346=DIRECTION('ref_axis',(0.,-1.,0.));
#347=DIRECTION('center_axis',(0.,0.,-1.));
#348=DIRECTION('ref_axis',(0.,1.,0.));
#349=DIRECTION('',(0.,0.,1.));
#350=DIRECTION('center_axis',(0.,0.,-1.));
#351=DIRECTION('ref_axis',(1.,0.,0.));
#352=DIRECTION('',(0.,0.,-1.));
#353=DIRECTION('center_axis',(0.,0.,-1.));
#354=DIRECTION('ref_axis',(0.,1.,0.));
#355=DIRECTION('',(0.,0.,1.));
#356=DIRECTION('center_axis',(0.,0.,-1.));
#357=DIRECTION('ref_axis',(1.,0.,0.));
#358=DIRECTION('center_axis',(-0.342020143325669,0.,0.939692620785908));
#359=DIRECTION('ref_axis',(0.939692620785908,0.,0.342020143325669));
#360=DIRECTION('center_axis',(-0.939692620785908,0.,-0.34202014332567));
#361=DIRECTION('ref_axis',(0.34202014332567,0.,-0.939692620785908));
#362=DIRECTION('center_axis',(-1.,0.,0.));
#363=DIRECTION('ref_axis',(0.,0.,1.));
#364=DIRECTION('',(-1.,0.,0.));
#365=DIRECTION('center_axis',(-0.342020143325669,0.,0.939692620785908));
#366=DIRECTION('ref_axis',(0.939692620785908,0.,0.342020143325669));
#367=DIRECTION('',(0.,1.,0.));
#368=DIRECTION('center_axis',(-0.939692620785908,0.,-0.34202014332567));
#369=DIRECTION('ref_axis',(-0.34202014332567,0.,0.939692620785908));
#370=DIRECTION('center_axis',(1.,0.,0.));
#371=DIRECTION('ref_axis',(0.,0.,-1.));
#372=DIRECTION('',(0.,-1.,0.));
#373=DIRECTION('',(0.,-1.,0.));
#374=DIRECTION('center_axis',(0.,0.,-1.));
#375=DIRECTION('ref_axis',(-1.,0.,0.));
#376=DIRECTION('center_axis',(0.,0.,-1.));
#377=DIRECTION('ref_axis',(0.,1.,0.));
#378=DIRECTION('center_axis',(0.,0.,-1.));
#379=DIRECTION('ref_axis',(1.,0.,0.));
#380=DIRECTION('',(0.,0.,1.));
#381=DIRECTION('center_axis',(0.,0.,-1.));
#382=DIRECTION('ref_axis',(1.,0.,0.));
#383=DIRECTION('center_axis',(0.,0.,-1.));
#384=DIRECTION('ref_axis',(0.,1.,0.));
#385=DIRECTION('',(8.54270422902681E-18,0.0697564737438956,0.99756405025984));
#386=DIRECTION('center_axis',(0.,0.,-1.));
#387=DIRECTION('ref_axis',(1.,0.,0.));
#388=DIRECTION('center_axis',(0.,0.,-1.));
#389=DIRECTION('ref_axis',(0.,1.,0.));
#390=DIRECTION('',(0.,0.,1.));
#391=DIRECTION('center_axis',(0.,0.,-1.));
#392=DIRECTION('ref_axis',(1.,0.,0.));
#393=DIRECTION('center_axis',(0.,0.,1.));
#394=DIRECTION('ref_axis',(1.,0.,0.));
#395=DIRECTION('center_axis',(0.,0.,-1.));
#396=DIRECTION('ref_axis',(1.,0.,0.));
#397=DIRECTION('center_axis',(0.,0.,-1.));
#398=DIRECTION('ref_axis',(1.,-1.83697019872103E-16,0.));
#399=DIRECTION('center_axis',(0.,0.,1.));
#400=DIRECTION('ref_axis',(1.,0.,0.));
#401=CARTESIAN_POINT('',(0.,0.,0.));
#402=CARTESIAN_POINT('Origin',(0.,0.,-1.468));
#403=CARTESIAN_POINT('',(0.2495,-3.05549376387265E-17,-1.468));
#404=CARTESIAN_POINT('',(-3.05549376387265E-17,-0.2495,-1.468));
#405=CARTESIAN_POINT('Origin',(0.,0.,-1.468));
#406=CARTESIAN_POINT('Origin',(0.,0.,-1.468));
#407=CARTESIAN_POINT('',(0.2815,-3.4473807395998E-17,-1.5));
#408=CARTESIAN_POINT('Origin',(0.2815,-3.4473807395998E-17,-1.468));
#409=CARTESIAN_POINT('Origin',(0.,0.,-1.5));
#410=CARTESIAN_POINT('Origin',(0.,0.249500000000001,-1.5));
#411=CARTESIAN_POINT('',(-1.22770841614522E-16,1.0025,-1.5));
#412=CARTESIAN_POINT('Origin',(0.,0.,-1.5));
#413=CARTESIAN_POINT('Origin',(0.,0.,-0.5));
#414=CARTESIAN_POINT('',(-3.05549376387265E-17,-0.2495,0.5));
#415=CARTESIAN_POINT('',(-3.05549376387265E-17,-0.2495,-0.5));
#416=CARTESIAN_POINT('Origin',(0.,0.,0.5));
#417=CARTESIAN_POINT('',(-0.215928807712172,0.125,-0.5));
#418=CARTESIAN_POINT('',(-0.2495,-1.58495864756637E-17,-0.624999999999999));
#419=CARTESIAN_POINT('Ctrl Pts',(-0.215928807712172,0.125,-0.5));
#420=CARTESIAN_POINT('Ctrl Pts',(-0.215928807712172,0.125,-0.516039822889894));
#421=CARTESIAN_POINT('Ctrl Pts',(-0.217906329288236,0.121735103639246,-0.532894392452608));
#422=CARTESIAN_POINT('Ctrl Pts',(-0.224594729183808,0.108902736385461,-0.56357418662254));
#423=CARTESIAN_POINT('Ctrl Pts',(-0.22916866858679,0.0993439573980662,-0.57743273789857));
#424=CARTESIAN_POINT('Ctrl Pts',(-0.237457888719841,0.0774628780324697,
-0.599313817264167));
#425=CARTESIAN_POINT('Ctrl Pts',(-0.241766799579472,0.0635941827176044,
-0.608894700782293));
#426=CARTESIAN_POINT('Ctrl Pts',(-0.247820436724082,0.0328699974149639,
-0.621744979132832));
#427=CARTESIAN_POINT('Ctrl Pts',(-0.2495,0.015995695504869,-0.625));
#428=CARTESIAN_POINT('Ctrl Pts',(-0.2495,-2.18547839493141E-17,-0.625));
#429=CARTESIAN_POINT('Ctrl Pts',(-0.2495,-1.63910879619856E-17,-0.624999999999999));
#430=CARTESIAN_POINT('Ctrl Pts',(-0.2495,-0.0159956955048691,-0.624999999999999));
#431=CARTESIAN_POINT('Ctrl Pts',(-0.247820436724082,-0.032869997414964,
-0.621744979132832));
#432=CARTESIAN_POINT('Ctrl Pts',(-0.241766799579472,-0.0635941827176045,
-0.608894700782293));
#433=CARTESIAN_POINT('Ctrl Pts',(-0.237457888719841,-0.0774628780324697,
-0.599313817264167));
#434=CARTESIAN_POINT('Ctrl Pts',(-0.22916866858679,-0.0993439573980662,
-0.57743273789857));
#435=CARTESIAN_POINT('Ctrl Pts',(-0.224594729183808,-0.108902736385461,
-0.56357418662254));
#436=CARTESIAN_POINT('Ctrl Pts',(-0.217906329288236,-0.121735103639246,
-0.532894392452608));
#437=CARTESIAN_POINT('Ctrl Pts',(-0.215928807712172,-0.125,-0.516039822889894));
#438=CARTESIAN_POINT('Ctrl Pts',(-0.215928807712172,-0.125,-0.483960177110105));
#439=CARTESIAN_POINT('Ctrl Pts',(-0.217906329288236,-0.121735103639246,
-0.467105607547391));
#440=CARTESIAN_POINT('Ctrl Pts',(-0.224594729183808,-0.108902736385461,
-0.43642581337746));
#441=CARTESIAN_POINT('Ctrl Pts',(-0.22916866858679,-0.0993439573980662,
-0.422567262101429));
#442=CARTESIAN_POINT('Ctrl Pts',(-0.237457888719841,-0.0774628780324697,
-0.400686182735833));
#443=CARTESIAN_POINT('Ctrl Pts',(-0.241766799579472,-0.0635941827176045,
-0.391105299217706));
#444=CARTESIAN_POINT('Ctrl Pts',(-0.247820436724082,-0.032869997414964,
-0.378255020867167));
#445=CARTESIAN_POINT('Ctrl Pts',(-0.2495,-0.015995695504869,-0.375));
#446=CARTESIAN_POINT('Ctrl Pts',(-0.2495,0.015995695504869,-0.375));
#447=CARTESIAN_POINT('Ctrl Pts',(-0.247820436724082,0.032869997414964,-0.378255020867167));
#448=CARTESIAN_POINT('Ctrl Pts',(-0.241766799579472,0.0635941827176045,
-0.391105299217706));
#449=CARTESIAN_POINT('Ctrl Pts',(-0.237457888719841,0.0774628780324697,
-0.400686182735833));
#450=CARTESIAN_POINT('Ctrl Pts',(-0.22916866858679,0.0993439573980662,-0.422567262101429));
#451=CARTESIAN_POINT('Ctrl Pts',(-0.224594729183808,0.108902736385461,-0.43642581337746));
#452=CARTESIAN_POINT('Ctrl Pts',(-0.217906329288236,0.121735103639246,-0.467105607547391));
#453=CARTESIAN_POINT('Ctrl Pts',(-0.215928807712172,0.125,-0.483960177110105));
#454=CARTESIAN_POINT('Ctrl Pts',(-0.215928807712172,0.125,-0.5));
#455=CARTESIAN_POINT('Origin',(0.,0.,-1.46875));
#456=CARTESIAN_POINT('',(1.30424884109192E-16,1.06499999999999,-1.4375));
#457=CARTESIAN_POINT('',(1.26597862861857E-16,1.03375,-1.46875));
#458=CARTESIAN_POINT('',(-1.30424884109192E-16,-1.06499999999999,-1.4375));
#459=CARTESIAN_POINT('Origin',(0.,0.,-1.4375));
#460=CARTESIAN_POINT('Origin',(0.,0.,-1.4375));
#461=CARTESIAN_POINT('Origin',(0.,0.,-0.0324999999999998));
#462=CARTESIAN_POINT('',(-1.30424884109192E-16,-1.06499999999999,1.435));
#463=CARTESIAN_POINT('',(-1.30424884109192E-16,-1.06499999999999,-0.0324999999999998));
#464=CARTESIAN_POINT('',(-0.7825,-0.722439443829016,1.435));
#465=CARTESIAN_POINT('Origin',(0.,0.,1.435));
#466=CARTESIAN_POINT('',(-0.7825,-0.722439443829024,0.820000047871447));
#467=CARTESIAN_POINT('',(-0.7825,-0.722439443829024,-0.0324999999999998));
#468=CARTESIAN_POINT('',(-0.7825,0.722439443829024,0.820000047871447));
#469=CARTESIAN_POINT('Origin',(0.,0.,0.820000047871447));
#470=CARTESIAN_POINT('',(-0.7825,0.722439443829016,1.435));
#471=CARTESIAN_POINT('',(-0.7825,0.722439443829024,-0.0324999999999998));
#472=CARTESIAN_POINT('Origin',(0.,0.,1.435));
#473=CARTESIAN_POINT('',(0.847487544559851,-0.644972760522414,0.849741866223298));
#474=CARTESIAN_POINT('',(0.847487544559851,0.644972760522414,0.849741866223298));
#475=CARTESIAN_POINT('Origin',(0.,0.,0.541281626092161));
#476=CARTESIAN_POINT('Origin',(0.,0.,3.17819475817052));
#477=CARTESIAN_POINT('',(-1.05763887976946,0.125,-0.5));
#478=CARTESIAN_POINT('',(-1.06499999999999,-1.53080849893419E-17,-0.625));
#479=CARTESIAN_POINT('Ctrl Pts',(-1.05763887976946,0.125,-0.5));
#480=CARTESIAN_POINT('Ctrl Pts',(-1.05763887976946,0.125,-0.484289115915866));
#481=CARTESIAN_POINT('Ctrl Pts',(-1.05802505512856,0.121857208122289,-0.467541008916292));
#482=CARTESIAN_POINT('Ctrl Pts',(-1.0594169410563,0.109096018295165,-0.436747930033438));
#483=CARTESIAN_POINT('Ctrl Pts',(-1.06040222976249,0.0994784075325179,-0.422701712235881));
#484=CARTESIAN_POINT('Ctrl Pts',(-1.06224940783199,0.0772983596555629,-0.400521664358926));
#485=CARTESIAN_POINT('Ctrl Pts',(-1.06323172694667,0.0632521105286245,-0.390903997320311));
#486=CARTESIAN_POINT('Ctrl Pts',(-1.06461681031099,0.03245892587985,-0.378142766050244));
#487=CARTESIAN_POINT('Ctrl Pts',(-1.06499999999999,0.0157107822381424,-0.375));
#488=CARTESIAN_POINT('Ctrl Pts',(-1.06499999999999,-0.0157107822381424,
-0.375));
#489=CARTESIAN_POINT('Ctrl Pts',(-1.06461681031099,-0.03245892587985,-0.378142766050244));
#490=CARTESIAN_POINT('Ctrl Pts',(-1.06323172694667,-0.0632521105286245,
-0.390903997320311));
#491=CARTESIAN_POINT('Ctrl Pts',(-1.06224940783199,-0.0772983596555629,
-0.400521664358926));
#492=CARTESIAN_POINT('Ctrl Pts',(-1.06040222976249,-0.0994784075325179,
-0.422701712235881));
#493=CARTESIAN_POINT('Ctrl Pts',(-1.0594169410563,-0.109096018295165,-0.436747930033438));
#494=CARTESIAN_POINT('Ctrl Pts',(-1.05802505512856,-0.121857208122289,-0.467541008916292));
#495=CARTESIAN_POINT('Ctrl Pts',(-1.05763887976946,-0.125,-0.484289115915866));
#496=CARTESIAN_POINT('Ctrl Pts',(-1.05763887976946,-0.125,-0.515710884084133));
#497=CARTESIAN_POINT('Ctrl Pts',(-1.05802505512856,-0.121857208122289,-0.532458991083707));
#498=CARTESIAN_POINT('Ctrl Pts',(-1.0594169410563,-0.109096018295165,-0.563252069966561));
#499=CARTESIAN_POINT('Ctrl Pts',(-1.06040222976249,-0.0994784075325179,
-0.577298287764118));
#500=CARTESIAN_POINT('Ctrl Pts',(-1.06224940783199,-0.0772983596555629,
-0.599478335641074));
#501=CARTESIAN_POINT('Ctrl Pts',(-1.06323172694667,-0.0632521105286245,
-0.609096002679688));
#502=CARTESIAN_POINT('Ctrl Pts',(-1.06461681031099,-0.03245892587985,-0.621857233949755));
#503=CARTESIAN_POINT('Ctrl Pts',(-1.06499999999999,-0.0157107822381424,
-0.625));
#504=CARTESIAN_POINT('Ctrl Pts',(-1.06499999999999,-1.91229359556498E-17,
-0.625));
#505=CARTESIAN_POINT('Ctrl Pts',(-1.06499999999999,-2.45866319429784E-17,
-0.625));
#506=CARTESIAN_POINT('Ctrl Pts',(-1.06499999999999,0.0157107822381424,-0.625));
#507=CARTESIAN_POINT('Ctrl Pts',(-1.06461681031099,0.03245892587985,-0.621857233949755));
#508=CARTESIAN_POINT('Ctrl Pts',(-1.06323172694667,0.0632521105286245,-0.609096002679688));
#509=CARTESIAN_POINT('Ctrl Pts',(-1.06224940783199,0.0772983596555629,-0.599478335641074));
#510=CARTESIAN_POINT('Ctrl Pts',(-1.06040222976249,0.0994784075325179,-0.577298287764118));
#511=CARTESIAN_POINT('Ctrl Pts',(-1.0594169410563,0.109096018295165,-0.563252069966561));
#512=CARTESIAN_POINT('Ctrl Pts',(-1.05802505512856,0.121857208122289,-0.532458991083707));
#513=CARTESIAN_POINT('Ctrl Pts',(-1.05763887976946,0.125,-0.515710884084134));
#514=CARTESIAN_POINT('Ctrl Pts',(-1.05763887976946,0.125,-0.5));
#515=CARTESIAN_POINT('Origin',(-0.562634097925398,0.,-0.5));
#516=CARTESIAN_POINT('',(-0.562634097925398,-1.53080849893419E-17,-0.625));
#517=CARTESIAN_POINT('Origin',(0.847487544559851,0.,0.849741866223298));
#518=CARTESIAN_POINT('',(0.847487544559851,0.,0.849741866223298));
#519=CARTESIAN_POINT('Origin',(1.06499999999999,0.,0.25213130645138));
#520=CARTESIAN_POINT('Origin',(-0.7825,0.,1.5));
#521=CARTESIAN_POINT('',(-0.7825,0.622650584196227,1.5));
#522=CARTESIAN_POINT('Ctrl Pts',(-0.7825,0.722439443829016,1.435));
#523=CARTESIAN_POINT('Ctrl Pts',(-0.7825,0.670974487166095,1.46991109358519));
#524=CARTESIAN_POINT('Ctrl Pts',(-0.7825,0.622650584196227,1.5));
#525=CARTESIAN_POINT('',(-0.7825,0.,0.820000047871447));
#526=CARTESIAN_POINT('',(-0.7825,-0.622650584196227,1.5));
#527=CARTESIAN_POINT('Ctrl Pts',(-0.7825,-0.622650584196227,1.5));
#528=CARTESIAN_POINT('Ctrl Pts',(-0.7825,-0.670974487166095,1.46991109358519));
#529=CARTESIAN_POINT('Ctrl Pts',(-0.7825,-0.722439443829016,1.435));
#530=CARTESIAN_POINT('',(-0.7825,0.499999999999976,1.5));
#531=CARTESIAN_POINT('Origin',(-0.7825,0.,0.820000047871447));
#532=CARTESIAN_POINT('Origin',(0.,0.,0.53));
#533=CARTESIAN_POINT('',(-4.65978107075568E-17,-0.3805,0.5));
#534=CARTESIAN_POINT('Origin',(0.,0.,0.5));
#535=CARTESIAN_POINT('',(-4.65978107075568E-17,-0.3805,0.56));
#536=CARTESIAN_POINT('',(-4.65978107075568E-17,-0.3805,0.53));
#537=CARTESIAN_POINT('Origin',(0.,0.,0.56));
#538=CARTESIAN_POINT('Origin',(0.,0.,0.631503331283796));
#539=CARTESIAN_POINT('',(-4.53731639084094E-17,-0.3705,0.703006662567593));
#540=CARTESIAN_POINT('',(-4.59854873079831E-17,-0.3755,0.631503331283796));
#541=CARTESIAN_POINT('Origin',(0.,0.,0.703006662567593));
#542=CARTESIAN_POINT('Origin',(0.,0.,1.1015033312838));
#543=CARTESIAN_POINT('',(-4.53731639084094E-17,-0.3705,1.5));
#544=CARTESIAN_POINT('',(-4.53731639084094E-17,-0.3705,1.1015033312838));
#545=CARTESIAN_POINT('Origin',(0.,0.,1.5));
#546=CARTESIAN_POINT('Origin',(0.,0.999999999999951,1.5));
#547=CARTESIAN_POINT('Origin',(0.,0.,1.5));
#548=CARTESIAN_POINT('Origin',(0.,0.,1.4675));
#549=CARTESIAN_POINT('Origin',(0.,0.3805,0.5));
#550=UNCERTAINTY_MEASURE_WITH_UNIT(LENGTH_MEASURE(0.000393700787401575),
#555,'DISTANCE_ACCURACY_VALUE',
'Maximum model space distance between geometric entities at asserted c
onnectivities');
#551=UNCERTAINTY_MEASURE_WITH_UNIT(LENGTH_MEASURE(0.000393700787401575),
#555,'DISTANCE_ACCURACY_VALUE',
'Maximum model space distance between geometric entities at asserted c
onnectivities');
#552=(
GEOMETRIC_REPRESENTATION_CONTEXT(3)
GLOBAL_UNCERTAINTY_ASSIGNED_CONTEXT((#550))
GLOBAL_UNIT_ASSIGNED_CONTEXT((#555,#559,#560))
REPRESENTATION_CONTEXT('','3D')
);
#553=(
GEOMETRIC_REPRESENTATION_CONTEXT(3)
GLOBAL_UNCERTAINTY_ASSIGNED_CONTEXT((#551))
GLOBAL_UNIT_ASSIGNED_CONTEXT((#555,#559,#560))
REPRESENTATION_CONTEXT('','3D')
);
#554=DIMENSIONAL_EXPONENTS(1.,0.,0.,0.,0.,0.,0.);
#555=(
CONVERSION_BASED_UNIT('inch',#558)
LENGTH_UNIT()
NAMED_UNIT(#554)
);
#556=(
LENGTH_UNIT()
NAMED_UNIT(*)
SI_UNIT(.MILLI.,.METRE.)
);
#557=(
LENGTH_UNIT()
NAMED_UNIT(*)
SI_UNIT($,.METRE.)
);
#558=LENGTH_MEASURE_WITH_UNIT(LENGTH_MEASURE(25.4),#556);
#559=(
NAMED_UNIT(*)
PLANE_ANGLE_UNIT()
SI_UNIT($,.RADIAN.)
);
#560=(
NAMED_UNIT(*)
SI_UNIT($,.STERADIAN.)
SOLID_ANGLE_UNIT()
);
#561=SHAPE_DEFINITION_REPRESENTATION(#562,#563);
#562=PRODUCT_DEFINITION_SHAPE('',$,#565);
#563=SHAPE_REPRESENTATION('',(#284),#552);
#564=PRODUCT_DEFINITION_CONTEXT('part definition',#569,'design');
#565=PRODUCT_DEFINITION('10-010-092 - MULTUS','10-010-092 - MULTUS v18',
#566,#564);
#566=PRODUCT_DEFINITION_FORMATION('',$,#571);
#567=PRODUCT_RELATED_PRODUCT_CATEGORY('10-010-092 - MULTUS v18',
'10-010-092 - MULTUS v18',(#571));
#568=APPLICATION_PROTOCOL_DEFINITION('international standard',
'automotive_design',2009,#569);
#569=APPLICATION_CONTEXT(
'Core Data for Automotive Mechanical Design Process');
#570=PRODUCT_CONTEXT('part definition',#569,'mechanical');
#571=PRODUCT('10-010-092 - MULTUS','10-010-092 - MULTUS v18',$,(#570));
#572=PRESENTATION_STYLE_ASSIGNMENT((#573));
#573=SURFACE_STYLE_USAGE(.BOTH.,#574);
#574=SURFACE_SIDE_STYLE('',(#575));
#575=SURFACE_STYLE_FILL_AREA(#576);
#576=FILL_AREA_STYLE('Steel - Satin',(#577));
#577=FILL_AREA_STYLE_COLOUR('Steel - Satin',#578);
#578=COLOUR_RGB('Steel - Satin',0.627450980392157,0.627450980392157,0.627450980392157);
ENDSEC;
END-ISO-10303-21;
