ISO-10303-21;
HEADER;
/* Generated by software containing ST-Developer
 * from STEP Tools, Inc. (www.steptools.com) 
 */

FILE_DESCRIPTION(
/* description */ (''),
/* implementation_level */ '2;1');

FILE_NAME(
/* name */ '10-017-075-02.step',
/* time_stamp */ '2026-01-07T10:36:21-06:00',
/* author */ (''),
/* organization */ (''),
/* preprocessor_version */ 'ST-DEVELOPER v20.1',
/* originating_system */ 'Autodesk Translation Framework v14.24.0.0',
/* authorisation */ '');

FILE_SCHEMA (('AUTOMOTIVE_DESIGN { 1 0 10303 214 3 1 1 }'));
ENDSEC;

DATA;
#10=MECHANICAL_DESIGN_GEOMETRIC_PRESENTATION_REPRESENTATION('',(#13),#1786);
#11=SHAPE_REPRESENTATION_RELATIONSHIP('SRR','None',#1796,#12);
#12=ADVANCED_BREP_SHAPE_REPRESENTATION('',(#14),#1785);
#13=STYLED_ITEM('',(#1805),#14);
#14=MANIFOLD_SOLID_BREP('Body1',#1045);
#15=B_SPLINE_CURVE_WITH_KNOTS('',3,(#1598,#1599,#1600,#1601,#1602,#1603,
#1604,#1605,#1606,#1607),.UNSPECIFIED.,.F.,.F.,(4,2,2,2,4),(0.263348329221304,
0.327305649656629,0.399342374985293,0.471379100313957,0.565674806249105),
 .UNSPECIFIED.);
#16=B_SPLINE_CURVE_WITH_KNOTS('',3,(#1699,#1700,#1701,#1702,#1703,#1704,
#1705,#1706,#1707,#1708),.UNSPECIFIED.,.F.,.F.,(4,2,2,2,4),(0.,0.103558040857764,
0.207116081715528,0.310286395751654,0.413456709787779),.UNSPECIFIED.);
#17=B_SPLINE_CURVE_WITH_KNOTS('',3,(#1709,#1710,#1711,#1712,#1713,#1714,
#1715,#1716,#1717,#1718,#1719,#1720,#1721,#1722,#1723,#1724,#1725,#1726,
#1727,#1728,#1729,#1730,#1731,#1732,#1733,#1734),.UNSPECIFIED.,.F.,.F.,
(4,2,2,2,2,2,2,2,2,2,2,2,4),(0.413456709787779,0.516627023823904,0.61979733786003,
0.723355378717794,0.826913419575558,0.930471460433323,1.03402950129109,
1.13719981532721,1.24037012936334,1.34354044339946,1.44671075743559,1.55026879829335,
1.65382683915112),.UNSPECIFIED.);
#18=ELLIPSE('',#1100,0.176776695296637,0.125);
#19=ELLIPSE('',#1137,0.2786000717875,0.197);
#20=ELLIPSE('',#1140,0.2786000717875,0.197);
#21=FACE_BOUND('',#112,.T.);
#22=FACE_BOUND('',#124,.T.);
#23=FACE_BOUND('',#160,.T.);
#24=FACE_BOUND('',#163,.T.);
#25=FACE_BOUND('',#165,.T.);
#26=PLANE('',#1062);
#27=PLANE('',#1069);
#28=PLANE('',#1080);
#29=PLANE('',#1084);
#30=PLANE('',#1088);
#31=PLANE('',#1091);
#32=PLANE('',#1096);
#33=PLANE('',#1101);
#34=PLANE('',#1103);
#35=PLANE('',#1104);
#36=PLANE('',#1107);
#37=PLANE('',#1108);
#38=PLANE('',#1111);
#39=PLANE('',#1112);
#40=PLANE('',#1115);
#41=PLANE('',#1116);
#42=PLANE('',#1119);
#43=PLANE('',#1120);
#44=PLANE('',#1123);
#45=PLANE('',#1124);
#46=PLANE('',#1125);
#47=PLANE('',#1126);
#48=PLANE('',#1127);
#49=PLANE('',#1128);
#50=PLANE('',#1129);
#51=PLANE('',#1130);
#52=PLANE('',#1131);
#53=PLANE('',#1132);
#54=PLANE('',#1133);
#55=PLANE('',#1134);
#56=PLANE('',#1138);
#57=PLANE('',#1145);
#58=PLANE('',#1146);
#59=FACE_OUTER_BOUND('',#110,.T.);
#60=FACE_OUTER_BOUND('',#111,.T.);
#61=FACE_OUTER_BOUND('',#113,.T.);
#62=FACE_OUTER_BOUND('',#114,.T.);
#63=FACE_OUTER_BOUND('',#115,.T.);
#64=FACE_OUTER_BOUND('',#116,.T.);
#65=FACE_OUTER_BOUND('',#117,.T.);
#66=FACE_OUTER_BOUND('',#118,.T.);
#67=FACE_OUTER_BOUND('',#119,.T.);
#68=FACE_OUTER_BOUND('',#120,.T.);
#69=FACE_OUTER_BOUND('',#121,.T.);
#70=FACE_OUTER_BOUND('',#122,.T.);
#71=FACE_OUTER_BOUND('',#123,.T.);
#72=FACE_OUTER_BOUND('',#125,.T.);
#73=FACE_OUTER_BOUND('',#126,.T.);
#74=FACE_OUTER_BOUND('',#127,.T.);
#75=FACE_OUTER_BOUND('',#128,.T.);
#76=FACE_OUTER_BOUND('',#129,.T.);
#77=FACE_OUTER_BOUND('',#130,.T.);
#78=FACE_OUTER_BOUND('',#131,.T.);
#79=FACE_OUTER_BOUND('',#132,.T.);
#80=FACE_OUTER_BOUND('',#133,.T.);
#81=FACE_OUTER_BOUND('',#134,.T.);
#82=FACE_OUTER_BOUND('',#135,.T.);
#83=FACE_OUTER_BOUND('',#136,.T.);
#84=FACE_OUTER_BOUND('',#137,.T.);
#85=FACE_OUTER_BOUND('',#138,.T.);
#86=FACE_OUTER_BOUND('',#139,.T.);
#87=FACE_OUTER_BOUND('',#140,.T.);
#88=FACE_OUTER_BOUND('',#141,.T.);
#89=FACE_OUTER_BOUND('',#142,.T.);
#90=FACE_OUTER_BOUND('',#143,.T.);
#91=FACE_OUTER_BOUND('',#144,.T.);
#92=FACE_OUTER_BOUND('',#145,.T.);
#93=FACE_OUTER_BOUND('',#146,.T.);
#94=FACE_OUTER_BOUND('',#147,.T.);
#95=FACE_OUTER_BOUND('',#148,.T.);
#96=FACE_OUTER_BOUND('',#149,.T.);
#97=FACE_OUTER_BOUND('',#150,.T.);
#98=FACE_OUTER_BOUND('',#151,.T.);
#99=FACE_OUTER_BOUND('',#152,.T.);
#100=FACE_OUTER_BOUND('',#153,.T.);
#101=FACE_OUTER_BOUND('',#154,.T.);
#102=FACE_OUTER_BOUND('',#155,.T.);
#103=FACE_OUTER_BOUND('',#156,.T.);
#104=FACE_OUTER_BOUND('',#157,.T.);
#105=FACE_OUTER_BOUND('',#158,.T.);
#106=FACE_OUTER_BOUND('',#159,.T.);
#107=FACE_OUTER_BOUND('',#161,.T.);
#108=FACE_OUTER_BOUND('',#162,.T.);
#109=FACE_OUTER_BOUND('',#164,.T.);
#110=EDGE_LOOP('',(#674,#675,#676,#677));
#111=EDGE_LOOP('',(#678,#679,#680,#681,#682,#683,#684,#685,#686,#687,#688,
#689));
#112=EDGE_LOOP('',(#690));
#113=EDGE_LOOP('',(#691,#692,#693,#694,#695,#696,#697,#698,#699,#700,#701,
#702,#703,#704,#705,#706,#707,#708,#709,#710));
#114=EDGE_LOOP('',(#711,#712,#713,#714));
#115=EDGE_LOOP('',(#715,#716,#717,#718));
#116=EDGE_LOOP('',(#719,#720,#721,#722,#723,#724,#725));
#117=EDGE_LOOP('',(#726,#727,#728,#729));
#118=EDGE_LOOP('',(#730,#731,#732,#733,#734,#735,#736,#737,#738,#739,#740));
#119=EDGE_LOOP('',(#741,#742,#743,#744,#745,#746,#747,#748));
#120=EDGE_LOOP('',(#749,#750,#751,#752));
#121=EDGE_LOOP('',(#753,#754,#755,#756,#757,#758,#759,#760,#761,#762,#763));
#122=EDGE_LOOP('',(#764,#765,#766,#767));
#123=EDGE_LOOP('',(#768,#769,#770,#771,#772,#773));
#124=EDGE_LOOP('',(#774));
#125=EDGE_LOOP('',(#775,#776,#777,#778,#779,#780));
#126=EDGE_LOOP('',(#781,#782,#783,#784,#785,#786,#787,#788));
#127=EDGE_LOOP('',(#789,#790,#791,#792));
#128=EDGE_LOOP('',(#793,#794,#795,#796,#797));
#129=EDGE_LOOP('',(#798,#799,#800,#801,#802,#803,#804,#805));
#130=EDGE_LOOP('',(#806,#807,#808,#809));
#131=EDGE_LOOP('',(#810,#811,#812,#813,#814,#815,#816,#817));
#132=EDGE_LOOP('',(#818,#819,#820,#821,#822));
#133=EDGE_LOOP('',(#823,#824,#825,#826));
#134=EDGE_LOOP('',(#827,#828,#829,#830));
#135=EDGE_LOOP('',(#831,#832,#833,#834,#835));
#136=EDGE_LOOP('',(#836,#837,#838,#839));
#137=EDGE_LOOP('',(#840,#841,#842,#843));
#138=EDGE_LOOP('',(#844,#845,#846,#847,#848));
#139=EDGE_LOOP('',(#849,#850,#851,#852));
#140=EDGE_LOOP('',(#853,#854,#855,#856,#857,#858,#859,#860));
#141=EDGE_LOOP('',(#861,#862,#863,#864,#865));
#142=EDGE_LOOP('',(#866,#867,#868,#869,#870));
#143=EDGE_LOOP('',(#871,#872,#873,#874));
#144=EDGE_LOOP('',(#875,#876,#877,#878));
#145=EDGE_LOOP('',(#879,#880,#881,#882));
#146=EDGE_LOOP('',(#883,#884,#885,#886));
#147=EDGE_LOOP('',(#887,#888,#889,#890,#891));
#148=EDGE_LOOP('',(#892,#893,#894,#895));
#149=EDGE_LOOP('',(#896,#897,#898,#899,#900));
#150=EDGE_LOOP('',(#901,#902,#903,#904));
#151=EDGE_LOOP('',(#905,#906,#907,#908,#909,#910,#911,#912));
#152=EDGE_LOOP('',(#913,#914,#915,#916));
#153=EDGE_LOOP('',(#917,#918,#919,#920));
#154=EDGE_LOOP('',(#921));
#155=EDGE_LOOP('',(#922,#923,#924,#925));
#156=EDGE_LOOP('',(#926,#927,#928,#929,#930,#931,#932,#933));
#157=EDGE_LOOP('',(#934,#935,#936,#937));
#158=EDGE_LOOP('',(#938,#939,#940,#941,#942,#943,#944,#945));
#159=EDGE_LOOP('',(#946,#947,#948,#949,#950,#951,#952,#953));
#160=EDGE_LOOP('',(#954,#955));
#161=EDGE_LOOP('',(#956,#957,#958,#959));
#162=EDGE_LOOP('',(#960,#961,#962,#963,#964,#965,#966,#967));
#163=EDGE_LOOP('',(#968));
#164=EDGE_LOOP('',(#969,#970,#971,#972,#973,#974));
#165=EDGE_LOOP('',(#975));
#166=LINE('',#1442,#277);
#167=LINE('',#1445,#278);
#168=LINE('',#1448,#279);
#169=LINE('',#1452,#280);
#170=LINE('',#1456,#281);
#171=LINE('',#1460,#282);
#172=LINE('',#1464,#283);
#173=LINE('',#1467,#284);
#174=LINE('',#1472,#285);
#175=LINE('',#1474,#286);
#176=LINE('',#1480,#287);
#177=LINE('',#1482,#288);
#178=LINE('',#1484,#289);
#179=LINE('',#1488,#290);
#180=LINE('',#1492,#291);
#181=LINE('',#1494,#292);
#182=LINE('',#1496,#293);
#183=LINE('',#1502,#294);
#184=LINE('',#1504,#295);
#185=LINE('',#1505,#296);
#186=LINE('',#1509,#297);
#187=LINE('',#1514,#298);
#188=LINE('',#1515,#299);
#189=LINE('',#1518,#300);
#190=LINE('',#1522,#301);
#191=LINE('',#1524,#302);
#192=LINE('',#1525,#303);
#193=LINE('',#1528,#304);
#194=LINE('',#1531,#305);
#195=LINE('',#1534,#306);
#196=LINE('',#1536,#307);
#197=LINE('',#1540,#308);
#198=LINE('',#1544,#309);
#199=LINE('',#1548,#310);
#200=LINE('',#1550,#311);
#201=LINE('',#1551,#312);
#202=LINE('',#1554,#313);
#203=LINE('',#1556,#314);
#204=LINE('',#1558,#315);
#205=LINE('',#1559,#316);
#206=LINE('',#1563,#317);
#207=LINE('',#1566,#318);
#208=LINE('',#1568,#319);
#209=LINE('',#1572,#320);
#210=LINE('',#1576,#321);
#211=LINE('',#1580,#322);
#212=LINE('',#1581,#323);
#213=LINE('',#1583,#324);
#214=LINE('',#1584,#325);
#215=LINE('',#1587,#326);
#216=LINE('',#1588,#327);
#217=LINE('',#1595,#328);
#218=LINE('',#1609,#329);
#219=LINE('',#1611,#330);
#220=LINE('',#1613,#331);
#221=LINE('',#1615,#332);
#222=LINE('',#1616,#333);
#223=LINE('',#1618,#334);
#224=LINE('',#1619,#335);
#225=LINE('',#1623,#336);
#226=LINE('',#1625,#337);
#227=LINE('',#1627,#338);
#228=LINE('',#1628,#339);
#229=LINE('',#1631,#340);
#230=LINE('',#1634,#341);
#231=LINE('',#1637,#342);
#232=LINE('',#1639,#343);
#233=LINE('',#1640,#344);
#234=LINE('',#1642,#345);
#235=LINE('',#1643,#346);
#236=LINE('',#1645,#347);
#237=LINE('',#1646,#348);
#238=LINE('',#1649,#349);
#239=LINE('',#1652,#350);
#240=LINE('',#1654,#351);
#241=LINE('',#1657,#352);
#242=LINE('',#1658,#353);
#243=LINE('',#1661,#354);
#244=LINE('',#1664,#355);
#245=LINE('',#1667,#356);
#246=LINE('',#1668,#357);
#247=LINE('',#1671,#358);
#248=LINE('',#1673,#359);
#249=LINE('',#1674,#360);
#250=LINE('',#1677,#361);
#251=LINE('',#1680,#362);
#252=LINE('',#1683,#363);
#253=LINE('',#1685,#364);
#254=LINE('',#1686,#365);
#255=LINE('',#1688,#366);
#256=LINE('',#1689,#367);
#257=LINE('',#1691,#368);
#258=LINE('',#1692,#369);
#259=LINE('',#1697,#370);
#260=LINE('',#1737,#371);
#261=LINE('',#1738,#372);
#262=LINE('',#1740,#373);
#263=LINE('',#1743,#374);
#264=LINE('',#1745,#375);
#265=LINE('',#1746,#376);
#266=LINE('',#1749,#377);
#267=LINE('',#1750,#378);
#268=LINE('',#1752,#379);
#269=LINE('',#1754,#380);
#270=LINE('',#1758,#381);
#271=LINE('',#1759,#382);
#272=LINE('',#1768,#383);
#273=LINE('',#1770,#384);
#274=LINE('',#1776,#385);
#275=LINE('',#1778,#386);
#276=LINE('',#1780,#387);
#277=VECTOR('',#1153,0.393700787401575);
#278=VECTOR('',#1156,0.393700787401575);
#279=VECTOR('',#1159,0.393700787401575);
#280=VECTOR('',#1162,0.393700787401575);
#281=VECTOR('',#1165,0.393700787401575);
#282=VECTOR('',#1168,0.393700787401575);
#283=VECTOR('',#1171,0.393700787401575);
#284=VECTOR('',#1174,0.393700787401575);
#285=VECTOR('',#1179,0.393700787401575);
#286=VECTOR('',#1180,0.393700787401575);
#287=VECTOR('',#1185,0.393700787401575);
#288=VECTOR('',#1186,0.393700787401575);
#289=VECTOR('',#1187,0.393700787401575);
#290=VECTOR('',#1190,0.393700787401575);
#291=VECTOR('',#1193,0.393700787401575);
#292=VECTOR('',#1194,0.393700787401575);
#293=VECTOR('',#1195,0.393700787401575);
#294=VECTOR('',#1200,0.393700787401575);
#295=VECTOR('',#1201,0.393700787401575);
#296=VECTOR('',#1202,0.393700787401575);
#297=VECTOR('',#1207,0.393700787401575);
#298=VECTOR('',#1212,0.393700787401575);
#299=VECTOR('',#1213,0.393700787401575);
#300=VECTOR('',#1216,0.393700787401575);
#301=VECTOR('',#1219,0.393700787401575);
#302=VECTOR('',#1220,0.393700787401575);
#303=VECTOR('',#1221,0.393700787401575);
#304=VECTOR('',#1224,0.393700787401575);
#305=VECTOR('',#1227,0.393700787401575);
#306=VECTOR('',#1230,0.393700787401575);
#307=VECTOR('',#1231,0.393700787401575);
#308=VECTOR('',#1234,0.393700787401575);
#309=VECTOR('',#1237,0.393700787401575);
#310=VECTOR('',#1240,0.393700787401575);
#311=VECTOR('',#1241,0.393700787401575);
#312=VECTOR('',#1242,0.393700787401575);
#313=VECTOR('',#1245,0.393700787401575);
#314=VECTOR('',#1246,0.393700787401575);
#315=VECTOR('',#1247,0.393700787401575);
#316=VECTOR('',#1248,0.393700787401575);
#317=VECTOR('',#1253,0.393700787401575);
#318=VECTOR('',#1256,0.393700787401575);
#319=VECTOR('',#1257,0.393700787401575);
#320=VECTOR('',#1260,0.393700787401575);
#321=VECTOR('',#1263,0.393700787401575);
#322=VECTOR('',#1266,0.393700787401575);
#323=VECTOR('',#1267,0.393700787401575);
#324=VECTOR('',#1270,0.393700787401575);
#325=VECTOR('',#1271,0.393700787401575);
#326=VECTOR('',#1274,0.393700787401575);
#327=VECTOR('',#1275,0.393700787401575);
#328=VECTOR('',#1282,0.393700787401575);
#329=VECTOR('',#1287,0.393700787401575);
#330=VECTOR('',#1288,0.393700787401575);
#331=VECTOR('',#1289,0.393700787401575);
#332=VECTOR('',#1290,0.393700787401575);
#333=VECTOR('',#1291,0.393700787401575);
#334=VECTOR('',#1294,0.393700787401575);
#335=VECTOR('',#1295,0.393700787401575);
#336=VECTOR('',#1300,0.393700787401575);
#337=VECTOR('',#1301,0.393700787401575);
#338=VECTOR('',#1302,0.393700787401575);
#339=VECTOR('',#1303,0.393700787401575);
#340=VECTOR('',#1306,0.393700787401575);
#341=VECTOR('',#1309,0.393700787401575);
#342=VECTOR('',#1312,0.393700787401575);
#343=VECTOR('',#1313,0.393700787401575);
#344=VECTOR('',#1314,0.393700787401575);
#345=VECTOR('',#1315,0.393700787401575);
#346=VECTOR('',#1316,0.393700787401575);
#347=VECTOR('',#1319,0.393700787401575);
#348=VECTOR('',#1320,0.393700787401575);
#349=VECTOR('',#1323,0.393700787401575);
#350=VECTOR('',#1326,0.393700787401575);
#351=VECTOR('',#1329,0.393700787401575);
#352=VECTOR('',#1332,0.393700787401575);
#353=VECTOR('',#1333,0.393700787401575);
#354=VECTOR('',#1336,0.393700787401575);
#355=VECTOR('',#1339,0.393700787401575);
#356=VECTOR('',#1342,0.393700787401575);
#357=VECTOR('',#1343,0.393700787401575);
#358=VECTOR('',#1346,0.393700787401575);
#359=VECTOR('',#1347,0.393700787401575);
#360=VECTOR('',#1348,0.393700787401575);
#361=VECTOR('',#1351,0.393700787401575);
#362=VECTOR('',#1354,0.393700787401575);
#363=VECTOR('',#1357,0.393700787401575);
#364=VECTOR('',#1358,0.393700787401575);
#365=VECTOR('',#1359,0.393700787401575);
#366=VECTOR('',#1360,0.393700787401575);
#367=VECTOR('',#1361,0.393700787401575);
#368=VECTOR('',#1364,0.393700787401575);
#369=VECTOR('',#1365,0.393700787401575);
#370=VECTOR('',#1370,0.1055);
#371=VECTOR('',#1373,0.393700787401575);
#372=VECTOR('',#1374,0.393700787401575);
#373=VECTOR('',#1377,0.393700787401575);
#374=VECTOR('',#1380,0.393700787401575);
#375=VECTOR('',#1381,0.393700787401575);
#376=VECTOR('',#1382,0.393700787401575);
#377=VECTOR('',#1387,0.393700787401575);
#378=VECTOR('',#1388,0.393700787401575);
#379=VECTOR('',#1391,0.393700787401575);
#380=VECTOR('',#1394,0.393700787401575);
#381=VECTOR('',#1399,0.393700787401575);
#382=VECTOR('',#1400,0.393700787401575);
#383=VECTOR('',#1413,0.393700787401575);
#384=VECTOR('',#1416,0.393700787401575);
#385=VECTOR('',#1425,0.197);
#386=VECTOR('',#1428,0.197);
#387=VECTOR('',#1431,0.248);
#388=CIRCLE('',#1060,0.005);
#389=CIRCLE('',#1061,0.005);
#390=CIRCLE('',#1063,0.005);
#391=CIRCLE('',#1064,0.005);
#392=CIRCLE('',#1065,0.135);
#393=CIRCLE('',#1066,0.005);
#394=CIRCLE('',#1067,0.005);
#395=CIRCLE('',#1068,0.248);
#396=CIRCLE('',#1070,0.197);
#397=CIRCLE('',#1071,0.197);
#398=CIRCLE('',#1072,0.125);
#399=CIRCLE('',#1073,0.125);
#400=CIRCLE('',#1074,0.197);
#401=CIRCLE('',#1075,0.197);
#402=CIRCLE('',#1077,0.005);
#403=CIRCLE('',#1079,0.005);
#404=CIRCLE('',#1081,0.125);
#405=CIRCLE('',#1083,0.005);
#406=CIRCLE('',#1085,0.005);
#407=CIRCLE('',#1086,0.197);
#408=CIRCLE('',#1087,0.005);
#409=CIRCLE('',#1090,0.005);
#410=CIRCLE('',#1092,0.005);
#411=CIRCLE('',#1093,0.197);
#412=CIRCLE('',#1094,0.005);
#413=CIRCLE('',#1097,0.248);
#414=CIRCLE('',#1099,0.125);
#415=CIRCLE('',#1106,0.005);
#416=CIRCLE('',#1110,0.005);
#417=CIRCLE('',#1114,0.005);
#418=CIRCLE('',#1118,0.005);
#419=CIRCLE('',#1122,0.1055);
#420=CIRCLE('',#1135,0.197);
#421=CIRCLE('',#1142,0.197);
#422=VERTEX_POINT('',#1438);
#423=VERTEX_POINT('',#1439);
#424=VERTEX_POINT('',#1441);
#425=VERTEX_POINT('',#1443);
#426=VERTEX_POINT('',#1447);
#427=VERTEX_POINT('',#1449);
#428=VERTEX_POINT('',#1451);
#429=VERTEX_POINT('',#1453);
#430=VERTEX_POINT('',#1455);
#431=VERTEX_POINT('',#1457);
#432=VERTEX_POINT('',#1459);
#433=VERTEX_POINT('',#1461);
#434=VERTEX_POINT('',#1463);
#435=VERTEX_POINT('',#1465);
#436=VERTEX_POINT('',#1468);
#437=VERTEX_POINT('',#1471);
#438=VERTEX_POINT('',#1473);
#439=VERTEX_POINT('',#1475);
#440=VERTEX_POINT('',#1477);
#441=VERTEX_POINT('',#1479);
#442=VERTEX_POINT('',#1481);
#443=VERTEX_POINT('',#1483);
#444=VERTEX_POINT('',#1485);
#445=VERTEX_POINT('',#1487);
#446=VERTEX_POINT('',#1489);
#447=VERTEX_POINT('',#1491);
#448=VERTEX_POINT('',#1493);
#449=VERTEX_POINT('',#1495);
#450=VERTEX_POINT('',#1497);
#451=VERTEX_POINT('',#1499);
#452=VERTEX_POINT('',#1501);
#453=VERTEX_POINT('',#1503);
#454=VERTEX_POINT('',#1507);
#455=VERTEX_POINT('',#1511);
#456=VERTEX_POINT('',#1512);
#457=VERTEX_POINT('',#1517);
#458=VERTEX_POINT('',#1519);
#459=VERTEX_POINT('',#1521);
#460=VERTEX_POINT('',#1523);
#461=VERTEX_POINT('',#1527);
#462=VERTEX_POINT('',#1529);
#463=VERTEX_POINT('',#1533);
#464=VERTEX_POINT('',#1535);
#465=VERTEX_POINT('',#1537);
#466=VERTEX_POINT('',#1539);
#467=VERTEX_POINT('',#1541);
#468=VERTEX_POINT('',#1543);
#469=VERTEX_POINT('',#1545);
#470=VERTEX_POINT('',#1547);
#471=VERTEX_POINT('',#1549);
#472=VERTEX_POINT('',#1553);
#473=VERTEX_POINT('',#1555);
#474=VERTEX_POINT('',#1557);
#475=VERTEX_POINT('',#1561);
#476=VERTEX_POINT('',#1565);
#477=VERTEX_POINT('',#1567);
#478=VERTEX_POINT('',#1569);
#479=VERTEX_POINT('',#1571);
#480=VERTEX_POINT('',#1573);
#481=VERTEX_POINT('',#1575);
#482=VERTEX_POINT('',#1577);
#483=VERTEX_POINT('',#1579);
#484=VERTEX_POINT('',#1586);
#485=VERTEX_POINT('',#1589);
#486=VERTEX_POINT('',#1592);
#487=VERTEX_POINT('',#1593);
#488=VERTEX_POINT('',#1596);
#489=VERTEX_POINT('',#1610);
#490=VERTEX_POINT('',#1612);
#491=VERTEX_POINT('',#1614);
#492=VERTEX_POINT('',#1622);
#493=VERTEX_POINT('',#1624);
#494=VERTEX_POINT('',#1626);
#495=VERTEX_POINT('',#1630);
#496=VERTEX_POINT('',#1632);
#497=VERTEX_POINT('',#1636);
#498=VERTEX_POINT('',#1638);
#499=VERTEX_POINT('',#1641);
#500=VERTEX_POINT('',#1648);
#501=VERTEX_POINT('',#1650);
#502=VERTEX_POINT('',#1656);
#503=VERTEX_POINT('',#1660);
#504=VERTEX_POINT('',#1662);
#505=VERTEX_POINT('',#1666);
#506=VERTEX_POINT('',#1670);
#507=VERTEX_POINT('',#1672);
#508=VERTEX_POINT('',#1676);
#509=VERTEX_POINT('',#1678);
#510=VERTEX_POINT('',#1682);
#511=VERTEX_POINT('',#1684);
#512=VERTEX_POINT('',#1687);
#513=VERTEX_POINT('',#1694);
#514=VERTEX_POINT('',#1696);
#515=VERTEX_POINT('',#1698);
#516=VERTEX_POINT('',#1736);
#517=VERTEX_POINT('',#1742);
#518=VERTEX_POINT('',#1744);
#519=VERTEX_POINT('',#1757);
#520=VERTEX_POINT('',#1763);
#521=VERTEX_POINT('',#1766);
#522=VERTEX_POINT('',#1774);
#523=EDGE_CURVE('',#422,#423,#388,.T.);
#524=EDGE_CURVE('',#423,#424,#166,.T.);
#525=EDGE_CURVE('',#424,#425,#389,.T.);
#526=EDGE_CURVE('',#425,#422,#167,.T.);
#527=EDGE_CURVE('',#426,#422,#168,.T.);
#528=EDGE_CURVE('',#427,#426,#390,.T.);
#529=EDGE_CURVE('',#428,#427,#169,.T.);
#530=EDGE_CURVE('',#429,#428,#391,.T.);
#531=EDGE_CURVE('',#429,#430,#170,.T.);
#532=EDGE_CURVE('',#431,#430,#392,.T.);
#533=EDGE_CURVE('',#431,#432,#171,.T.);
#534=EDGE_CURVE('',#433,#432,#393,.T.);
#535=EDGE_CURVE('',#434,#433,#172,.T.);
#536=EDGE_CURVE('',#435,#434,#394,.T.);
#537=EDGE_CURVE('',#423,#435,#173,.T.);
#538=EDGE_CURVE('',#436,#436,#395,.T.);
#539=EDGE_CURVE('',#425,#437,#174,.T.);
#540=EDGE_CURVE('',#437,#438,#175,.T.);
#541=EDGE_CURVE('',#438,#439,#396,.T.);
#542=EDGE_CURVE('',#439,#440,#397,.T.);
#543=EDGE_CURVE('',#440,#441,#176,.T.);
#544=EDGE_CURVE('',#441,#442,#177,.T.);
#545=EDGE_CURVE('',#442,#443,#178,.T.);
#546=EDGE_CURVE('',#444,#443,#398,.T.);
#547=EDGE_CURVE('',#444,#445,#179,.T.);
#548=EDGE_CURVE('',#446,#445,#399,.T.);
#549=EDGE_CURVE('',#446,#447,#180,.T.);
#550=EDGE_CURVE('',#447,#448,#181,.T.);
#551=EDGE_CURVE('',#448,#449,#182,.T.);
#552=EDGE_CURVE('',#449,#450,#400,.T.);
#553=EDGE_CURVE('',#450,#451,#401,.T.);
#554=EDGE_CURVE('',#451,#452,#183,.T.);
#555=EDGE_CURVE('',#452,#453,#184,.T.);
#556=EDGE_CURVE('',#426,#453,#185,.T.);
#557=EDGE_CURVE('',#453,#454,#402,.T.);
#558=EDGE_CURVE('',#454,#427,#186,.T.);
#559=EDGE_CURVE('',#455,#456,#403,.T.);
#560=EDGE_CURVE('',#456,#433,#187,.T.);
#561=EDGE_CURVE('',#432,#455,#188,.T.);
#562=EDGE_CURVE('',#456,#457,#189,.T.);
#563=EDGE_CURVE('',#458,#457,#404,.T.);
#564=EDGE_CURVE('',#458,#459,#190,.T.);
#565=EDGE_CURVE('',#459,#460,#191,.T.);
#566=EDGE_CURVE('',#434,#460,#192,.T.);
#567=EDGE_CURVE('',#428,#461,#193,.T.);
#568=EDGE_CURVE('',#461,#462,#405,.T.);
#569=EDGE_CURVE('',#462,#429,#194,.T.);
#570=EDGE_CURVE('',#461,#463,#195,.T.);
#571=EDGE_CURVE('',#464,#463,#196,.T.);
#572=EDGE_CURVE('',#465,#464,#406,.T.);
#573=EDGE_CURVE('',#466,#465,#197,.T.);
#574=EDGE_CURVE('',#466,#467,#407,.T.);
#575=EDGE_CURVE('',#467,#468,#198,.T.);
#576=EDGE_CURVE('',#469,#468,#408,.T.);
#577=EDGE_CURVE('',#470,#469,#199,.T.);
#578=EDGE_CURVE('',#471,#470,#200,.T.);
#579=EDGE_CURVE('',#471,#462,#201,.T.);
#580=EDGE_CURVE('',#454,#472,#202,.T.);
#581=EDGE_CURVE('',#472,#473,#203,.T.);
#582=EDGE_CURVE('',#473,#474,#204,.T.);
#583=EDGE_CURVE('',#463,#474,#205,.T.);
#584=EDGE_CURVE('',#460,#475,#409,.T.);
#585=EDGE_CURVE('',#475,#435,#206,.T.);
#586=EDGE_CURVE('',#476,#459,#207,.T.);
#587=EDGE_CURVE('',#477,#476,#208,.T.);
#588=EDGE_CURVE('',#478,#477,#410,.T.);
#589=EDGE_CURVE('',#479,#478,#209,.T.);
#590=EDGE_CURVE('',#479,#480,#411,.T.);
#591=EDGE_CURVE('',#480,#481,#210,.T.);
#592=EDGE_CURVE('',#482,#481,#412,.T.);
#593=EDGE_CURVE('',#483,#482,#211,.T.);
#594=EDGE_CURVE('',#475,#483,#212,.T.);
#595=EDGE_CURVE('',#457,#444,#213,.T.);
#596=EDGE_CURVE('',#443,#458,#214,.T.);
#597=EDGE_CURVE('',#455,#484,#215,.F.);
#598=EDGE_CURVE('',#445,#484,#216,.T.);
#599=EDGE_CURVE('',#485,#485,#413,.T.);
#600=EDGE_CURVE('',#486,#487,#414,.T.);
#601=EDGE_CURVE('',#487,#446,#217,.T.);
#602=EDGE_CURVE('',#484,#488,#18,.T.);
#603=EDGE_CURVE('',#486,#488,#15,.F.);
#604=EDGE_CURVE('',#471,#487,#218,.T.);
#605=EDGE_CURVE('',#489,#470,#219,.T.);
#606=EDGE_CURVE('',#489,#490,#220,.T.);
#607=EDGE_CURVE('',#490,#491,#221,.T.);
#608=EDGE_CURVE('',#447,#491,#222,.T.);
#609=EDGE_CURVE('',#488,#431,#223,.T.);
#610=EDGE_CURVE('',#430,#486,#224,.T.);
#611=EDGE_CURVE('',#492,#442,#225,.T.);
#612=EDGE_CURVE('',#492,#493,#226,.T.);
#613=EDGE_CURVE('',#493,#494,#227,.T.);
#614=EDGE_CURVE('',#476,#494,#228,.T.);
#615=EDGE_CURVE('',#464,#495,#229,.T.);
#616=EDGE_CURVE('',#495,#496,#415,.T.);
#617=EDGE_CURVE('',#496,#465,#230,.T.);
#618=EDGE_CURVE('',#496,#497,#231,.T.);
#619=EDGE_CURVE('',#497,#498,#232,.T.);
#620=EDGE_CURVE('',#498,#452,#233,.T.);
#621=EDGE_CURVE('',#451,#499,#234,.T.);
#622=EDGE_CURVE('',#466,#499,#235,.T.);
#623=EDGE_CURVE('',#474,#495,#236,.T.);
#624=EDGE_CURVE('',#497,#473,#237,.T.);
#625=EDGE_CURVE('',#468,#500,#238,.T.);
#626=EDGE_CURVE('',#500,#501,#416,.T.);
#627=EDGE_CURVE('',#501,#469,#239,.T.);
#628=EDGE_CURVE('',#501,#489,#240,.T.);
#629=EDGE_CURVE('',#502,#500,#241,.T.);
#630=EDGE_CURVE('',#490,#502,#242,.T.);
#631=EDGE_CURVE('',#481,#503,#243,.T.);
#632=EDGE_CURVE('',#503,#504,#417,.T.);
#633=EDGE_CURVE('',#504,#482,#244,.T.);
#634=EDGE_CURVE('',#504,#505,#245,.T.);
#635=EDGE_CURVE('',#505,#483,#246,.T.);
#636=EDGE_CURVE('',#506,#503,#247,.T.);
#637=EDGE_CURVE('',#507,#506,#248,.T.);
#638=EDGE_CURVE('',#505,#507,#249,.T.);
#639=EDGE_CURVE('',#477,#508,#250,.T.);
#640=EDGE_CURVE('',#508,#509,#418,.T.);
#641=EDGE_CURVE('',#509,#478,#251,.T.);
#642=EDGE_CURVE('',#509,#510,#252,.T.);
#643=EDGE_CURVE('',#510,#511,#253,.T.);
#644=EDGE_CURVE('',#511,#441,#254,.T.);
#645=EDGE_CURVE('',#440,#512,#255,.T.);
#646=EDGE_CURVE('',#479,#512,#256,.T.);
#647=EDGE_CURVE('',#494,#508,#257,.T.);
#648=EDGE_CURVE('',#510,#493,#258,.T.);
#649=EDGE_CURVE('',#513,#513,#419,.T.);
#650=EDGE_CURVE('',#513,#514,#259,.T.);
#651=EDGE_CURVE('',#515,#514,#16,.T.);
#652=EDGE_CURVE('',#514,#515,#17,.T.);
#653=EDGE_CURVE('',#516,#502,#260,.T.);
#654=EDGE_CURVE('',#491,#516,#261,.T.);
#655=EDGE_CURVE('',#511,#492,#262,.T.);
#656=EDGE_CURVE('',#517,#506,#263,.T.);
#657=EDGE_CURVE('',#518,#517,#264,.T.);
#658=EDGE_CURVE('',#507,#518,#265,.T.);
#659=EDGE_CURVE('',#518,#424,#266,.T.);
#660=EDGE_CURVE('',#437,#517,#267,.T.);
#661=EDGE_CURVE('',#448,#516,#268,.T.);
#662=EDGE_CURVE('',#498,#472,#269,.T.);
#663=EDGE_CURVE('',#519,#480,#270,.T.);
#664=EDGE_CURVE('',#438,#519,#271,.T.);
#665=EDGE_CURVE('',#520,#520,#420,.T.);
#666=EDGE_CURVE('',#521,#499,#19,.T.);
#667=EDGE_CURVE('',#521,#467,#272,.T.);
#668=EDGE_CURVE('',#449,#521,#273,.T.);
#669=EDGE_CURVE('',#519,#512,#20,.T.);
#670=EDGE_CURVE('',#522,#522,#421,.T.);
#671=EDGE_CURVE('',#522,#450,#274,.T.);
#672=EDGE_CURVE('',#520,#439,#275,.T.);
#673=EDGE_CURVE('',#436,#485,#276,.T.);
#674=ORIENTED_EDGE('',*,*,#523,.T.);
#675=ORIENTED_EDGE('',*,*,#524,.T.);
#676=ORIENTED_EDGE('',*,*,#525,.T.);
#677=ORIENTED_EDGE('',*,*,#526,.T.);
#678=ORIENTED_EDGE('',*,*,#523,.F.);
#679=ORIENTED_EDGE('',*,*,#527,.F.);
#680=ORIENTED_EDGE('',*,*,#528,.F.);
#681=ORIENTED_EDGE('',*,*,#529,.F.);
#682=ORIENTED_EDGE('',*,*,#530,.F.);
#683=ORIENTED_EDGE('',*,*,#531,.T.);
#684=ORIENTED_EDGE('',*,*,#532,.F.);
#685=ORIENTED_EDGE('',*,*,#533,.T.);
#686=ORIENTED_EDGE('',*,*,#534,.F.);
#687=ORIENTED_EDGE('',*,*,#535,.F.);
#688=ORIENTED_EDGE('',*,*,#536,.F.);
#689=ORIENTED_EDGE('',*,*,#537,.F.);
#690=ORIENTED_EDGE('',*,*,#538,.T.);
#691=ORIENTED_EDGE('',*,*,#526,.F.);
#692=ORIENTED_EDGE('',*,*,#539,.T.);
#693=ORIENTED_EDGE('',*,*,#540,.T.);
#694=ORIENTED_EDGE('',*,*,#541,.T.);
#695=ORIENTED_EDGE('',*,*,#542,.T.);
#696=ORIENTED_EDGE('',*,*,#543,.T.);
#697=ORIENTED_EDGE('',*,*,#544,.T.);
#698=ORIENTED_EDGE('',*,*,#545,.T.);
#699=ORIENTED_EDGE('',*,*,#546,.F.);
#700=ORIENTED_EDGE('',*,*,#547,.T.);
#701=ORIENTED_EDGE('',*,*,#548,.F.);
#702=ORIENTED_EDGE('',*,*,#549,.T.);
#703=ORIENTED_EDGE('',*,*,#550,.T.);
#704=ORIENTED_EDGE('',*,*,#551,.T.);
#705=ORIENTED_EDGE('',*,*,#552,.T.);
#706=ORIENTED_EDGE('',*,*,#553,.T.);
#707=ORIENTED_EDGE('',*,*,#554,.T.);
#708=ORIENTED_EDGE('',*,*,#555,.T.);
#709=ORIENTED_EDGE('',*,*,#556,.F.);
#710=ORIENTED_EDGE('',*,*,#527,.T.);
#711=ORIENTED_EDGE('',*,*,#528,.T.);
#712=ORIENTED_EDGE('',*,*,#556,.T.);
#713=ORIENTED_EDGE('',*,*,#557,.T.);
#714=ORIENTED_EDGE('',*,*,#558,.T.);
#715=ORIENTED_EDGE('',*,*,#559,.T.);
#716=ORIENTED_EDGE('',*,*,#560,.T.);
#717=ORIENTED_EDGE('',*,*,#534,.T.);
#718=ORIENTED_EDGE('',*,*,#561,.T.);
#719=ORIENTED_EDGE('',*,*,#560,.F.);
#720=ORIENTED_EDGE('',*,*,#562,.T.);
#721=ORIENTED_EDGE('',*,*,#563,.F.);
#722=ORIENTED_EDGE('',*,*,#564,.T.);
#723=ORIENTED_EDGE('',*,*,#565,.T.);
#724=ORIENTED_EDGE('',*,*,#566,.F.);
#725=ORIENTED_EDGE('',*,*,#535,.T.);
#726=ORIENTED_EDGE('',*,*,#530,.T.);
#727=ORIENTED_EDGE('',*,*,#567,.T.);
#728=ORIENTED_EDGE('',*,*,#568,.T.);
#729=ORIENTED_EDGE('',*,*,#569,.T.);
#730=ORIENTED_EDGE('',*,*,#568,.F.);
#731=ORIENTED_EDGE('',*,*,#570,.T.);
#732=ORIENTED_EDGE('',*,*,#571,.F.);
#733=ORIENTED_EDGE('',*,*,#572,.F.);
#734=ORIENTED_EDGE('',*,*,#573,.F.);
#735=ORIENTED_EDGE('',*,*,#574,.T.);
#736=ORIENTED_EDGE('',*,*,#575,.T.);
#737=ORIENTED_EDGE('',*,*,#576,.F.);
#738=ORIENTED_EDGE('',*,*,#577,.F.);
#739=ORIENTED_EDGE('',*,*,#578,.F.);
#740=ORIENTED_EDGE('',*,*,#579,.T.);
#741=ORIENTED_EDGE('',*,*,#558,.F.);
#742=ORIENTED_EDGE('',*,*,#580,.T.);
#743=ORIENTED_EDGE('',*,*,#581,.T.);
#744=ORIENTED_EDGE('',*,*,#582,.T.);
#745=ORIENTED_EDGE('',*,*,#583,.F.);
#746=ORIENTED_EDGE('',*,*,#570,.F.);
#747=ORIENTED_EDGE('',*,*,#567,.F.);
#748=ORIENTED_EDGE('',*,*,#529,.T.);
#749=ORIENTED_EDGE('',*,*,#536,.T.);
#750=ORIENTED_EDGE('',*,*,#566,.T.);
#751=ORIENTED_EDGE('',*,*,#584,.T.);
#752=ORIENTED_EDGE('',*,*,#585,.T.);
#753=ORIENTED_EDGE('',*,*,#584,.F.);
#754=ORIENTED_EDGE('',*,*,#565,.F.);
#755=ORIENTED_EDGE('',*,*,#586,.F.);
#756=ORIENTED_EDGE('',*,*,#587,.F.);
#757=ORIENTED_EDGE('',*,*,#588,.F.);
#758=ORIENTED_EDGE('',*,*,#589,.F.);
#759=ORIENTED_EDGE('',*,*,#590,.T.);
#760=ORIENTED_EDGE('',*,*,#591,.T.);
#761=ORIENTED_EDGE('',*,*,#592,.F.);
#762=ORIENTED_EDGE('',*,*,#593,.F.);
#763=ORIENTED_EDGE('',*,*,#594,.F.);
#764=ORIENTED_EDGE('',*,*,#563,.T.);
#765=ORIENTED_EDGE('',*,*,#595,.T.);
#766=ORIENTED_EDGE('',*,*,#546,.T.);
#767=ORIENTED_EDGE('',*,*,#596,.T.);
#768=ORIENTED_EDGE('',*,*,#559,.F.);
#769=ORIENTED_EDGE('',*,*,#597,.T.);
#770=ORIENTED_EDGE('',*,*,#598,.F.);
#771=ORIENTED_EDGE('',*,*,#547,.F.);
#772=ORIENTED_EDGE('',*,*,#595,.F.);
#773=ORIENTED_EDGE('',*,*,#562,.F.);
#774=ORIENTED_EDGE('',*,*,#599,.F.);
#775=ORIENTED_EDGE('',*,*,#600,.T.);
#776=ORIENTED_EDGE('',*,*,#601,.T.);
#777=ORIENTED_EDGE('',*,*,#548,.T.);
#778=ORIENTED_EDGE('',*,*,#598,.T.);
#779=ORIENTED_EDGE('',*,*,#602,.T.);
#780=ORIENTED_EDGE('',*,*,#603,.F.);
#781=ORIENTED_EDGE('',*,*,#601,.F.);
#782=ORIENTED_EDGE('',*,*,#604,.F.);
#783=ORIENTED_EDGE('',*,*,#578,.T.);
#784=ORIENTED_EDGE('',*,*,#605,.F.);
#785=ORIENTED_EDGE('',*,*,#606,.T.);
#786=ORIENTED_EDGE('',*,*,#607,.T.);
#787=ORIENTED_EDGE('',*,*,#608,.F.);
#788=ORIENTED_EDGE('',*,*,#549,.F.);
#789=ORIENTED_EDGE('',*,*,#609,.T.);
#790=ORIENTED_EDGE('',*,*,#532,.T.);
#791=ORIENTED_EDGE('',*,*,#610,.T.);
#792=ORIENTED_EDGE('',*,*,#603,.T.);
#793=ORIENTED_EDGE('',*,*,#561,.F.);
#794=ORIENTED_EDGE('',*,*,#533,.F.);
#795=ORIENTED_EDGE('',*,*,#609,.F.);
#796=ORIENTED_EDGE('',*,*,#602,.F.);
#797=ORIENTED_EDGE('',*,*,#597,.F.);
#798=ORIENTED_EDGE('',*,*,#596,.F.);
#799=ORIENTED_EDGE('',*,*,#545,.F.);
#800=ORIENTED_EDGE('',*,*,#611,.F.);
#801=ORIENTED_EDGE('',*,*,#612,.T.);
#802=ORIENTED_EDGE('',*,*,#613,.T.);
#803=ORIENTED_EDGE('',*,*,#614,.F.);
#804=ORIENTED_EDGE('',*,*,#586,.T.);
#805=ORIENTED_EDGE('',*,*,#564,.F.);
#806=ORIENTED_EDGE('',*,*,#572,.T.);
#807=ORIENTED_EDGE('',*,*,#615,.T.);
#808=ORIENTED_EDGE('',*,*,#616,.T.);
#809=ORIENTED_EDGE('',*,*,#617,.T.);
#810=ORIENTED_EDGE('',*,*,#617,.F.);
#811=ORIENTED_EDGE('',*,*,#618,.T.);
#812=ORIENTED_EDGE('',*,*,#619,.T.);
#813=ORIENTED_EDGE('',*,*,#620,.T.);
#814=ORIENTED_EDGE('',*,*,#554,.F.);
#815=ORIENTED_EDGE('',*,*,#621,.T.);
#816=ORIENTED_EDGE('',*,*,#622,.F.);
#817=ORIENTED_EDGE('',*,*,#573,.T.);
#818=ORIENTED_EDGE('',*,*,#616,.F.);
#819=ORIENTED_EDGE('',*,*,#623,.F.);
#820=ORIENTED_EDGE('',*,*,#582,.F.);
#821=ORIENTED_EDGE('',*,*,#624,.F.);
#822=ORIENTED_EDGE('',*,*,#618,.F.);
#823=ORIENTED_EDGE('',*,*,#576,.T.);
#824=ORIENTED_EDGE('',*,*,#625,.T.);
#825=ORIENTED_EDGE('',*,*,#626,.T.);
#826=ORIENTED_EDGE('',*,*,#627,.T.);
#827=ORIENTED_EDGE('',*,*,#627,.F.);
#828=ORIENTED_EDGE('',*,*,#628,.T.);
#829=ORIENTED_EDGE('',*,*,#605,.T.);
#830=ORIENTED_EDGE('',*,*,#577,.T.);
#831=ORIENTED_EDGE('',*,*,#626,.F.);
#832=ORIENTED_EDGE('',*,*,#629,.F.);
#833=ORIENTED_EDGE('',*,*,#630,.F.);
#834=ORIENTED_EDGE('',*,*,#606,.F.);
#835=ORIENTED_EDGE('',*,*,#628,.F.);
#836=ORIENTED_EDGE('',*,*,#592,.T.);
#837=ORIENTED_EDGE('',*,*,#631,.T.);
#838=ORIENTED_EDGE('',*,*,#632,.T.);
#839=ORIENTED_EDGE('',*,*,#633,.T.);
#840=ORIENTED_EDGE('',*,*,#633,.F.);
#841=ORIENTED_EDGE('',*,*,#634,.T.);
#842=ORIENTED_EDGE('',*,*,#635,.T.);
#843=ORIENTED_EDGE('',*,*,#593,.T.);
#844=ORIENTED_EDGE('',*,*,#632,.F.);
#845=ORIENTED_EDGE('',*,*,#636,.F.);
#846=ORIENTED_EDGE('',*,*,#637,.F.);
#847=ORIENTED_EDGE('',*,*,#638,.F.);
#848=ORIENTED_EDGE('',*,*,#634,.F.);
#849=ORIENTED_EDGE('',*,*,#588,.T.);
#850=ORIENTED_EDGE('',*,*,#639,.T.);
#851=ORIENTED_EDGE('',*,*,#640,.T.);
#852=ORIENTED_EDGE('',*,*,#641,.T.);
#853=ORIENTED_EDGE('',*,*,#641,.F.);
#854=ORIENTED_EDGE('',*,*,#642,.T.);
#855=ORIENTED_EDGE('',*,*,#643,.T.);
#856=ORIENTED_EDGE('',*,*,#644,.T.);
#857=ORIENTED_EDGE('',*,*,#543,.F.);
#858=ORIENTED_EDGE('',*,*,#645,.T.);
#859=ORIENTED_EDGE('',*,*,#646,.F.);
#860=ORIENTED_EDGE('',*,*,#589,.T.);
#861=ORIENTED_EDGE('',*,*,#640,.F.);
#862=ORIENTED_EDGE('',*,*,#647,.F.);
#863=ORIENTED_EDGE('',*,*,#613,.F.);
#864=ORIENTED_EDGE('',*,*,#648,.F.);
#865=ORIENTED_EDGE('',*,*,#642,.F.);
#866=ORIENTED_EDGE('',*,*,#649,.F.);
#867=ORIENTED_EDGE('',*,*,#650,.T.);
#868=ORIENTED_EDGE('',*,*,#651,.F.);
#869=ORIENTED_EDGE('',*,*,#652,.F.);
#870=ORIENTED_EDGE('',*,*,#650,.F.);
#871=ORIENTED_EDGE('',*,*,#607,.F.);
#872=ORIENTED_EDGE('',*,*,#630,.T.);
#873=ORIENTED_EDGE('',*,*,#653,.F.);
#874=ORIENTED_EDGE('',*,*,#654,.F.);
#875=ORIENTED_EDGE('',*,*,#612,.F.);
#876=ORIENTED_EDGE('',*,*,#655,.F.);
#877=ORIENTED_EDGE('',*,*,#643,.F.);
#878=ORIENTED_EDGE('',*,*,#648,.T.);
#879=ORIENTED_EDGE('',*,*,#656,.F.);
#880=ORIENTED_EDGE('',*,*,#657,.F.);
#881=ORIENTED_EDGE('',*,*,#658,.F.);
#882=ORIENTED_EDGE('',*,*,#637,.T.);
#883=ORIENTED_EDGE('',*,*,#611,.T.);
#884=ORIENTED_EDGE('',*,*,#544,.F.);
#885=ORIENTED_EDGE('',*,*,#644,.F.);
#886=ORIENTED_EDGE('',*,*,#655,.T.);
#887=ORIENTED_EDGE('',*,*,#525,.F.);
#888=ORIENTED_EDGE('',*,*,#659,.F.);
#889=ORIENTED_EDGE('',*,*,#657,.T.);
#890=ORIENTED_EDGE('',*,*,#660,.F.);
#891=ORIENTED_EDGE('',*,*,#539,.F.);
#892=ORIENTED_EDGE('',*,*,#608,.T.);
#893=ORIENTED_EDGE('',*,*,#654,.T.);
#894=ORIENTED_EDGE('',*,*,#661,.F.);
#895=ORIENTED_EDGE('',*,*,#550,.F.);
#896=ORIENTED_EDGE('',*,*,#557,.F.);
#897=ORIENTED_EDGE('',*,*,#555,.F.);
#898=ORIENTED_EDGE('',*,*,#620,.F.);
#899=ORIENTED_EDGE('',*,*,#662,.T.);
#900=ORIENTED_EDGE('',*,*,#580,.F.);
#901=ORIENTED_EDGE('',*,*,#619,.F.);
#902=ORIENTED_EDGE('',*,*,#624,.T.);
#903=ORIENTED_EDGE('',*,*,#581,.F.);
#904=ORIENTED_EDGE('',*,*,#662,.F.);
#905=ORIENTED_EDGE('',*,*,#631,.F.);
#906=ORIENTED_EDGE('',*,*,#591,.F.);
#907=ORIENTED_EDGE('',*,*,#663,.F.);
#908=ORIENTED_EDGE('',*,*,#664,.F.);
#909=ORIENTED_EDGE('',*,*,#540,.F.);
#910=ORIENTED_EDGE('',*,*,#660,.T.);
#911=ORIENTED_EDGE('',*,*,#656,.T.);
#912=ORIENTED_EDGE('',*,*,#636,.T.);
#913=ORIENTED_EDGE('',*,*,#639,.F.);
#914=ORIENTED_EDGE('',*,*,#587,.T.);
#915=ORIENTED_EDGE('',*,*,#614,.T.);
#916=ORIENTED_EDGE('',*,*,#647,.T.);
#917=ORIENTED_EDGE('',*,*,#615,.F.);
#918=ORIENTED_EDGE('',*,*,#571,.T.);
#919=ORIENTED_EDGE('',*,*,#583,.T.);
#920=ORIENTED_EDGE('',*,*,#623,.T.);
#921=ORIENTED_EDGE('',*,*,#665,.T.);
#922=ORIENTED_EDGE('',*,*,#666,.F.);
#923=ORIENTED_EDGE('',*,*,#667,.T.);
#924=ORIENTED_EDGE('',*,*,#574,.F.);
#925=ORIENTED_EDGE('',*,*,#622,.T.);
#926=ORIENTED_EDGE('',*,*,#625,.F.);
#927=ORIENTED_EDGE('',*,*,#575,.F.);
#928=ORIENTED_EDGE('',*,*,#667,.F.);
#929=ORIENTED_EDGE('',*,*,#668,.F.);
#930=ORIENTED_EDGE('',*,*,#551,.F.);
#931=ORIENTED_EDGE('',*,*,#661,.T.);
#932=ORIENTED_EDGE('',*,*,#653,.T.);
#933=ORIENTED_EDGE('',*,*,#629,.T.);
#934=ORIENTED_EDGE('',*,*,#669,.F.);
#935=ORIENTED_EDGE('',*,*,#663,.T.);
#936=ORIENTED_EDGE('',*,*,#590,.F.);
#937=ORIENTED_EDGE('',*,*,#646,.T.);
#938=ORIENTED_EDGE('',*,*,#670,.F.);
#939=ORIENTED_EDGE('',*,*,#671,.T.);
#940=ORIENTED_EDGE('',*,*,#552,.F.);
#941=ORIENTED_EDGE('',*,*,#668,.T.);
#942=ORIENTED_EDGE('',*,*,#666,.T.);
#943=ORIENTED_EDGE('',*,*,#621,.F.);
#944=ORIENTED_EDGE('',*,*,#553,.F.);
#945=ORIENTED_EDGE('',*,*,#671,.F.);
#946=ORIENTED_EDGE('',*,*,#665,.F.);
#947=ORIENTED_EDGE('',*,*,#672,.T.);
#948=ORIENTED_EDGE('',*,*,#541,.F.);
#949=ORIENTED_EDGE('',*,*,#664,.T.);
#950=ORIENTED_EDGE('',*,*,#669,.T.);
#951=ORIENTED_EDGE('',*,*,#645,.F.);
#952=ORIENTED_EDGE('',*,*,#542,.F.);
#953=ORIENTED_EDGE('',*,*,#672,.F.);
#954=ORIENTED_EDGE('',*,*,#651,.T.);
#955=ORIENTED_EDGE('',*,*,#652,.T.);
#956=ORIENTED_EDGE('',*,*,#538,.F.);
#957=ORIENTED_EDGE('',*,*,#673,.T.);
#958=ORIENTED_EDGE('',*,*,#599,.T.);
#959=ORIENTED_EDGE('',*,*,#673,.F.);
#960=ORIENTED_EDGE('',*,*,#524,.F.);
#961=ORIENTED_EDGE('',*,*,#537,.T.);
#962=ORIENTED_EDGE('',*,*,#585,.F.);
#963=ORIENTED_EDGE('',*,*,#594,.T.);
#964=ORIENTED_EDGE('',*,*,#635,.F.);
#965=ORIENTED_EDGE('',*,*,#638,.T.);
#966=ORIENTED_EDGE('',*,*,#658,.T.);
#967=ORIENTED_EDGE('',*,*,#659,.T.);
#968=ORIENTED_EDGE('',*,*,#649,.T.);
#969=ORIENTED_EDGE('',*,*,#569,.F.);
#970=ORIENTED_EDGE('',*,*,#579,.F.);
#971=ORIENTED_EDGE('',*,*,#604,.T.);
#972=ORIENTED_EDGE('',*,*,#600,.F.);
#973=ORIENTED_EDGE('',*,*,#610,.F.);
#974=ORIENTED_EDGE('',*,*,#531,.F.);
#975=ORIENTED_EDGE('',*,*,#670,.T.);
#976=CYLINDRICAL_SURFACE('',#1059,0.005);
#977=CYLINDRICAL_SURFACE('',#1076,0.005);
#978=CYLINDRICAL_SURFACE('',#1078,0.005);
#979=CYLINDRICAL_SURFACE('',#1082,0.005);
#980=CYLINDRICAL_SURFACE('',#1089,0.005);
#981=CYLINDRICAL_SURFACE('',#1095,0.125);
#982=CYLINDRICAL_SURFACE('',#1098,0.125);
#983=CYLINDRICAL_SURFACE('',#1102,0.135);
#984=CYLINDRICAL_SURFACE('',#1105,0.005);
#985=CYLINDRICAL_SURFACE('',#1109,0.005);
#986=CYLINDRICAL_SURFACE('',#1113,0.005);
#987=CYLINDRICAL_SURFACE('',#1117,0.005);
#988=CYLINDRICAL_SURFACE('',#1121,0.1055);
#989=CYLINDRICAL_SURFACE('',#1136,0.197);
#990=CYLINDRICAL_SURFACE('',#1139,0.197);
#991=CYLINDRICAL_SURFACE('',#1141,0.197);
#992=CYLINDRICAL_SURFACE('',#1143,0.197);
#993=CYLINDRICAL_SURFACE('',#1144,0.248);
#994=ADVANCED_FACE('',(#59),#976,.T.);
#995=ADVANCED_FACE('',(#60,#21),#26,.T.);
#996=ADVANCED_FACE('',(#61),#27,.T.);
#997=ADVANCED_FACE('',(#62),#977,.T.);
#998=ADVANCED_FACE('',(#63),#978,.T.);
#999=ADVANCED_FACE('',(#64),#28,.T.);
#1000=ADVANCED_FACE('',(#65),#979,.T.);
#1001=ADVANCED_FACE('',(#66),#29,.T.);
#1002=ADVANCED_FACE('',(#67),#30,.T.);
#1003=ADVANCED_FACE('',(#68),#980,.T.);
#1004=ADVANCED_FACE('',(#69),#31,.T.);
#1005=ADVANCED_FACE('',(#70),#981,.F.);
#1006=ADVANCED_FACE('',(#71,#22),#32,.F.);
#1007=ADVANCED_FACE('',(#72),#982,.F.);
#1008=ADVANCED_FACE('',(#73),#33,.F.);
#1009=ADVANCED_FACE('',(#74),#983,.F.);
#1010=ADVANCED_FACE('',(#75),#34,.T.);
#1011=ADVANCED_FACE('',(#76),#35,.F.);
#1012=ADVANCED_FACE('',(#77),#984,.T.);
#1013=ADVANCED_FACE('',(#78),#36,.F.);
#1014=ADVANCED_FACE('',(#79),#37,.F.);
#1015=ADVANCED_FACE('',(#80),#985,.T.);
#1016=ADVANCED_FACE('',(#81),#38,.T.);
#1017=ADVANCED_FACE('',(#82),#39,.F.);
#1018=ADVANCED_FACE('',(#83),#986,.T.);
#1019=ADVANCED_FACE('',(#84),#40,.T.);
#1020=ADVANCED_FACE('',(#85),#41,.F.);
#1021=ADVANCED_FACE('',(#86),#987,.T.);
#1022=ADVANCED_FACE('',(#87),#42,.F.);
#1023=ADVANCED_FACE('',(#88),#43,.F.);
#1024=ADVANCED_FACE('',(#89),#988,.F.);
#1025=ADVANCED_FACE('',(#90),#44,.F.);
#1026=ADVANCED_FACE('',(#91),#45,.F.);
#1027=ADVANCED_FACE('',(#92),#46,.F.);
#1028=ADVANCED_FACE('',(#93),#47,.F.);
#1029=ADVANCED_FACE('',(#94),#48,.F.);
#1030=ADVANCED_FACE('',(#95),#49,.F.);
#1031=ADVANCED_FACE('',(#96),#50,.F.);
#1032=ADVANCED_FACE('',(#97),#51,.F.);
#1033=ADVANCED_FACE('',(#98),#52,.F.);
#1034=ADVANCED_FACE('',(#99),#53,.T.);
#1035=ADVANCED_FACE('',(#100),#54,.T.);
#1036=ADVANCED_FACE('',(#101),#55,.F.);
#1037=ADVANCED_FACE('',(#102),#989,.F.);
#1038=ADVANCED_FACE('',(#103),#56,.F.);
#1039=ADVANCED_FACE('',(#104),#990,.F.);
#1040=ADVANCED_FACE('',(#105),#991,.F.);
#1041=ADVANCED_FACE('',(#106,#23),#992,.F.);
#1042=ADVANCED_FACE('',(#107),#993,.F.);
#1043=ADVANCED_FACE('',(#108,#24),#57,.T.);
#1044=ADVANCED_FACE('',(#109,#25),#58,.T.);
#1045=CLOSED_SHELL('',(#994,#995,#996,#997,#998,#999,#1000,#1001,#1002,
#1003,#1004,#1005,#1006,#1007,#1008,#1009,#1010,#1011,#1012,#1013,#1014,
#1015,#1016,#1017,#1018,#1019,#1020,#1021,#1022,#1023,#1024,#1025,#1026,
#1027,#1028,#1029,#1030,#1031,#1032,#1033,#1034,#1035,#1036,#1037,#1038,
#1039,#1040,#1041,#1042,#1043,#1044));
#1046=DERIVED_UNIT_ELEMENT(#1048,1.);
#1047=DERIVED_UNIT_ELEMENT(#1790,-3.);
#1048=(
MASS_UNIT()
NAMED_UNIT(*)
SI_UNIT(.KILO.,.GRAM.)
);
#1049=DERIVED_UNIT((#1046,#1047));
#1050=MEASURE_REPRESENTATION_ITEM('density measure',
POSITIVE_RATIO_MEASURE(1000.),#1049);
#1051=PROPERTY_DEFINITION_REPRESENTATION(#1056,#1053);
#1052=PROPERTY_DEFINITION_REPRESENTATION(#1057,#1054);
#1053=REPRESENTATION('material name',(#1055),#1785);
#1054=REPRESENTATION('density',(#1050),#1785);
#1055=DESCRIPTIVE_REPRESENTATION_ITEM('Generic','Generic');
#1056=PROPERTY_DEFINITION('material property','material name',#1798);
#1057=PROPERTY_DEFINITION('material property','density of part',#1798);
#1058=AXIS2_PLACEMENT_3D('',#1436,#1147,#1148);
#1059=AXIS2_PLACEMENT_3D('',#1437,#1149,#1150);
#1060=AXIS2_PLACEMENT_3D('',#1440,#1151,#1152);
#1061=AXIS2_PLACEMENT_3D('',#1444,#1154,#1155);
#1062=AXIS2_PLACEMENT_3D('',#1446,#1157,#1158);
#1063=AXIS2_PLACEMENT_3D('',#1450,#1160,#1161);
#1064=AXIS2_PLACEMENT_3D('',#1454,#1163,#1164);
#1065=AXIS2_PLACEMENT_3D('',#1458,#1166,#1167);
#1066=AXIS2_PLACEMENT_3D('',#1462,#1169,#1170);
#1067=AXIS2_PLACEMENT_3D('',#1466,#1172,#1173);
#1068=AXIS2_PLACEMENT_3D('',#1469,#1175,#1176);
#1069=AXIS2_PLACEMENT_3D('',#1470,#1177,#1178);
#1070=AXIS2_PLACEMENT_3D('',#1476,#1181,#1182);
#1071=AXIS2_PLACEMENT_3D('',#1478,#1183,#1184);
#1072=AXIS2_PLACEMENT_3D('',#1486,#1188,#1189);
#1073=AXIS2_PLACEMENT_3D('',#1490,#1191,#1192);
#1074=AXIS2_PLACEMENT_3D('',#1498,#1196,#1197);
#1075=AXIS2_PLACEMENT_3D('',#1500,#1198,#1199);
#1076=AXIS2_PLACEMENT_3D('',#1506,#1203,#1204);
#1077=AXIS2_PLACEMENT_3D('',#1508,#1205,#1206);
#1078=AXIS2_PLACEMENT_3D('',#1510,#1208,#1209);
#1079=AXIS2_PLACEMENT_3D('',#1513,#1210,#1211);
#1080=AXIS2_PLACEMENT_3D('',#1516,#1214,#1215);
#1081=AXIS2_PLACEMENT_3D('',#1520,#1217,#1218);
#1082=AXIS2_PLACEMENT_3D('',#1526,#1222,#1223);
#1083=AXIS2_PLACEMENT_3D('',#1530,#1225,#1226);
#1084=AXIS2_PLACEMENT_3D('',#1532,#1228,#1229);
#1085=AXIS2_PLACEMENT_3D('',#1538,#1232,#1233);
#1086=AXIS2_PLACEMENT_3D('',#1542,#1235,#1236);
#1087=AXIS2_PLACEMENT_3D('',#1546,#1238,#1239);
#1088=AXIS2_PLACEMENT_3D('',#1552,#1243,#1244);
#1089=AXIS2_PLACEMENT_3D('',#1560,#1249,#1250);
#1090=AXIS2_PLACEMENT_3D('',#1562,#1251,#1252);
#1091=AXIS2_PLACEMENT_3D('',#1564,#1254,#1255);
#1092=AXIS2_PLACEMENT_3D('',#1570,#1258,#1259);
#1093=AXIS2_PLACEMENT_3D('',#1574,#1261,#1262);
#1094=AXIS2_PLACEMENT_3D('',#1578,#1264,#1265);
#1095=AXIS2_PLACEMENT_3D('',#1582,#1268,#1269);
#1096=AXIS2_PLACEMENT_3D('',#1585,#1272,#1273);
#1097=AXIS2_PLACEMENT_3D('',#1590,#1276,#1277);
#1098=AXIS2_PLACEMENT_3D('',#1591,#1278,#1279);
#1099=AXIS2_PLACEMENT_3D('',#1594,#1280,#1281);
#1100=AXIS2_PLACEMENT_3D('',#1597,#1283,#1284);
#1101=AXIS2_PLACEMENT_3D('',#1608,#1285,#1286);
#1102=AXIS2_PLACEMENT_3D('',#1617,#1292,#1293);
#1103=AXIS2_PLACEMENT_3D('',#1620,#1296,#1297);
#1104=AXIS2_PLACEMENT_3D('',#1621,#1298,#1299);
#1105=AXIS2_PLACEMENT_3D('',#1629,#1304,#1305);
#1106=AXIS2_PLACEMENT_3D('',#1633,#1307,#1308);
#1107=AXIS2_PLACEMENT_3D('',#1635,#1310,#1311);
#1108=AXIS2_PLACEMENT_3D('',#1644,#1317,#1318);
#1109=AXIS2_PLACEMENT_3D('',#1647,#1321,#1322);
#1110=AXIS2_PLACEMENT_3D('',#1651,#1324,#1325);
#1111=AXIS2_PLACEMENT_3D('',#1653,#1327,#1328);
#1112=AXIS2_PLACEMENT_3D('',#1655,#1330,#1331);
#1113=AXIS2_PLACEMENT_3D('',#1659,#1334,#1335);
#1114=AXIS2_PLACEMENT_3D('',#1663,#1337,#1338);
#1115=AXIS2_PLACEMENT_3D('',#1665,#1340,#1341);
#1116=AXIS2_PLACEMENT_3D('',#1669,#1344,#1345);
#1117=AXIS2_PLACEMENT_3D('',#1675,#1349,#1350);
#1118=AXIS2_PLACEMENT_3D('',#1679,#1352,#1353);
#1119=AXIS2_PLACEMENT_3D('',#1681,#1355,#1356);
#1120=AXIS2_PLACEMENT_3D('',#1690,#1362,#1363);
#1121=AXIS2_PLACEMENT_3D('',#1693,#1366,#1367);
#1122=AXIS2_PLACEMENT_3D('',#1695,#1368,#1369);
#1123=AXIS2_PLACEMENT_3D('',#1735,#1371,#1372);
#1124=AXIS2_PLACEMENT_3D('',#1739,#1375,#1376);
#1125=AXIS2_PLACEMENT_3D('',#1741,#1378,#1379);
#1126=AXIS2_PLACEMENT_3D('',#1747,#1383,#1384);
#1127=AXIS2_PLACEMENT_3D('',#1748,#1385,#1386);
#1128=AXIS2_PLACEMENT_3D('',#1751,#1389,#1390);
#1129=AXIS2_PLACEMENT_3D('',#1753,#1392,#1393);
#1130=AXIS2_PLACEMENT_3D('',#1755,#1395,#1396);
#1131=AXIS2_PLACEMENT_3D('',#1756,#1397,#1398);
#1132=AXIS2_PLACEMENT_3D('',#1760,#1401,#1402);
#1133=AXIS2_PLACEMENT_3D('',#1761,#1403,#1404);
#1134=AXIS2_PLACEMENT_3D('',#1762,#1405,#1406);
#1135=AXIS2_PLACEMENT_3D('',#1764,#1407,#1408);
#1136=AXIS2_PLACEMENT_3D('',#1765,#1409,#1410);
#1137=AXIS2_PLACEMENT_3D('',#1767,#1411,#1412);
#1138=AXIS2_PLACEMENT_3D('',#1769,#1414,#1415);
#1139=AXIS2_PLACEMENT_3D('',#1771,#1417,#1418);
#1140=AXIS2_PLACEMENT_3D('',#1772,#1419,#1420);
#1141=AXIS2_PLACEMENT_3D('',#1773,#1421,#1422);
#1142=AXIS2_PLACEMENT_3D('',#1775,#1423,#1424);
#1143=AXIS2_PLACEMENT_3D('',#1777,#1426,#1427);
#1144=AXIS2_PLACEMENT_3D('',#1779,#1429,#1430);
#1145=AXIS2_PLACEMENT_3D('',#1781,#1432,#1433);
#1146=AXIS2_PLACEMENT_3D('',#1782,#1434,#1435);
#1147=DIRECTION('axis',(0.,0.,1.));
#1148=DIRECTION('refdir',(1.,0.,0.));
#1149=DIRECTION('center_axis',(0.,0.,-1.));
#1150=DIRECTION('ref_axis',(-0.707106781186547,0.707106781186547,0.));
#1151=DIRECTION('center_axis',(0.,0.,-1.));
#1152=DIRECTION('ref_axis',(-0.707106781186547,0.707106781186547,0.));
#1153=DIRECTION('',(0.,0.,-1.));
#1154=DIRECTION('center_axis',(0.,0.,1.));
#1155=DIRECTION('ref_axis',(-0.707106781186547,0.707106781186547,0.));
#1156=DIRECTION('',(0.,0.,1.));
#1157=DIRECTION('center_axis',(0.,0.,1.));
#1158=DIRECTION('ref_axis',(1.,0.,0.));
#1159=DIRECTION('',(0.,1.,3.24597277047584E-18));
#1160=DIRECTION('center_axis',(0.,0.,-1.));
#1161=DIRECTION('ref_axis',(-0.707106781186547,-0.707106781186547,0.));
#1162=DIRECTION('',(-1.,0.,0.));
#1163=DIRECTION('center_axis',(0.,0.,-1.));
#1164=DIRECTION('ref_axis',(0.707106781186523,-0.707106781186572,0.));
#1165=DIRECTION('',(-2.01891768584888E-16,1.,0.));
#1166=DIRECTION('center_axis',(0.,0.,1.));
#1167=DIRECTION('ref_axis',(-0.923879532511287,0.38268343236509,0.));
#1168=DIRECTION('',(0.707106781186548,0.707106781186547,0.));
#1169=DIRECTION('center_axis',(0.,0.,-1.));
#1170=DIRECTION('ref_axis',(0.923879532511286,-0.382683432365092,0.));
#1171=DIRECTION('',(9.26540919949723E-17,-1.,-1.18178703711398E-17));
#1172=DIRECTION('center_axis',(0.,0.,-1.));
#1173=DIRECTION('ref_axis',(0.707106781186572,0.707106781186523,0.));
#1174=DIRECTION('',(1.,0.,0.));
#1175=DIRECTION('center_axis',(0.,0.,-1.));
#1176=DIRECTION('ref_axis',(-1.,0.,0.));
#1177=DIRECTION('center_axis',(-1.,0.,0.));
#1178=DIRECTION('ref_axis',(0.,0.,1.));
#1179=DIRECTION('',(0.,-1.,0.));
#1180=DIRECTION('',(0.,3.39768228793068E-16,1.));
#1181=DIRECTION('center_axis',(1.,0.,0.));
#1182=DIRECTION('ref_axis',(0.,1.,3.7747525111355E-18));
#1183=DIRECTION('center_axis',(1.,0.,0.));
#1184=DIRECTION('ref_axis',(0.,1.,3.7747525111355E-18));
#1185=DIRECTION('',(0.,-3.39768228793068E-16,-1.));
#1186=DIRECTION('',(0.,-1.,0.));
#1187=DIRECTION('',(0.,0.,1.));
#1188=DIRECTION('center_axis',(-1.,0.,0.));
#1189=DIRECTION('ref_axis',(0.,0.707106781186548,0.707106781186548));
#1190=DIRECTION('',(0.,-1.,-3.37005149565368E-16));
#1191=DIRECTION('center_axis',(-1.,0.,0.));
#1192=DIRECTION('ref_axis',(0.,-0.707106781186548,0.707106781186548));
#1193=DIRECTION('',(0.,5.46369598732852E-16,-1.));
#1194=DIRECTION('',(0.,-1.,0.));
#1195=DIRECTION('',(0.,1.58975375532603E-18,1.));
#1196=DIRECTION('center_axis',(1.,0.,0.));
#1197=DIRECTION('ref_axis',(0.,1.,3.7747525111358E-18));
#1198=DIRECTION('center_axis',(1.,0.,0.));
#1199=DIRECTION('ref_axis',(0.,1.,3.7747525111358E-18));
#1200=DIRECTION('',(0.,-1.58975375532603E-18,-1.));
#1201=DIRECTION('',(0.,-1.,0.));
#1202=DIRECTION('',(0.,0.,-1.));
#1203=DIRECTION('center_axis',(0.,0.,1.));
#1204=DIRECTION('ref_axis',(-0.707106781186547,-0.707106781186547,0.));
#1205=DIRECTION('center_axis',(0.,0.,1.));
#1206=DIRECTION('ref_axis',(-0.707106781186547,-0.707106781186547,0.));
#1207=DIRECTION('',(0.,0.,1.));
#1208=DIRECTION('center_axis',(0.,0.,-1.));
#1209=DIRECTION('ref_axis',(0.923879532511286,-0.382683432365092,0.));
#1210=DIRECTION('center_axis',(3.65177551090543E-32,-3.37005149565368E-16,
1.));
#1211=DIRECTION('ref_axis',(0.923879532511286,-0.382683432365092,0.));
#1212=DIRECTION('',(0.,0.,1.));
#1213=DIRECTION('',(0.,0.,-1.));
#1214=DIRECTION('center_axis',(1.,9.26540919949724E-17,0.));
#1215=DIRECTION('ref_axis',(0.,0.,-1.));
#1216=DIRECTION('',(-9.26540919949723E-17,1.,3.37005149565368E-16));
#1217=DIRECTION('center_axis',(1.,9.26540919949724E-17,0.));
#1218=DIRECTION('ref_axis',(0.,0.707106781186548,0.707106781186548));
#1219=DIRECTION('',(1.3856852447725E-32,-1.4955467318677E-16,-1.));
#1220=DIRECTION('',(-9.26540919949724E-17,1.,7.15465877967134E-18));
#1221=DIRECTION('',(0.,0.,-1.));
#1222=DIRECTION('center_axis',(0.,0.,1.));
#1223=DIRECTION('ref_axis',(0.707106781186523,-0.707106781186572,0.));
#1224=DIRECTION('',(0.,0.,-1.));
#1225=DIRECTION('center_axis',(0.,0.,1.));
#1226=DIRECTION('ref_axis',(0.707106781186523,-0.707106781186572,0.));
#1227=DIRECTION('',(0.,0.,1.));
#1228=DIRECTION('center_axis',(0.,0.,-1.));
#1229=DIRECTION('ref_axis',(-1.,0.,0.));
#1230=DIRECTION('',(-1.,0.,0.));
#1231=DIRECTION('',(0.,-1.,1.07163237079292E-16));
#1232=DIRECTION('center_axis',(0.,0.,1.));
#1233=DIRECTION('ref_axis',(-0.707106781186547,0.707106781186547,0.));
#1234=DIRECTION('',(-1.,0.,0.));
#1235=DIRECTION('center_axis',(0.,0.,1.));
#1236=DIRECTION('ref_axis',(0.,-1.,0.));
#1237=DIRECTION('',(-1.,2.6134270791407E-16,0.));
#1238=DIRECTION('center_axis',(0.,0.,1.));
#1239=DIRECTION('ref_axis',(-0.707106781186523,-0.707106781186572,0.));
#1240=DIRECTION('',(0.,-1.,1.09427277683177E-16));
#1241=DIRECTION('',(-1.,0.,0.));
#1242=DIRECTION('',(2.22157905456814E-16,-1.,0.));
#1243=DIRECTION('center_axis',(0.,-1.,0.));
#1244=DIRECTION('ref_axis',(1.,0.,0.));
#1245=DIRECTION('',(1.,0.,0.));
#1246=DIRECTION('',(0.,0.,-1.));
#1247=DIRECTION('',(-1.,0.,0.));
#1248=DIRECTION('',(0.,2.95647270830555E-17,1.));
#1249=DIRECTION('center_axis',(0.,0.,1.));
#1250=DIRECTION('ref_axis',(0.707106781186572,0.707106781186523,0.));
#1251=DIRECTION('center_axis',(0.,0.,1.));
#1252=DIRECTION('ref_axis',(0.707106781186572,0.707106781186523,0.));
#1253=DIRECTION('',(0.,0.,1.));
#1254=DIRECTION('center_axis',(0.,0.,-1.));
#1255=DIRECTION('ref_axis',(-1.,0.,0.));
#1256=DIRECTION('',(1.,0.,0.));
#1257=DIRECTION('',(0.,-1.,-2.21313982707024E-17));
#1258=DIRECTION('center_axis',(0.,0.,1.));
#1259=DIRECTION('ref_axis',(-0.707106781186535,0.70710678118656,0.));
#1260=DIRECTION('',(-1.,0.,0.));
#1261=DIRECTION('center_axis',(0.,0.,1.));
#1262=DIRECTION('ref_axis',(9.98441906313842E-16,-1.,0.));
#1263=DIRECTION('',(-1.,-3.55362340639254E-16,0.));
#1264=DIRECTION('center_axis',(0.,0.,1.));
#1265=DIRECTION('ref_axis',(-0.707106781186523,-0.707106781186572,0.));
#1266=DIRECTION('',(0.,-1.,-1.13010368859766E-16));
#1267=DIRECTION('',(-1.,0.,0.));
#1268=DIRECTION('center_axis',(-1.,-1.08359635323528E-16,0.));
#1269=DIRECTION('ref_axis',(0.,0.707106781186548,0.707106781186548));
#1270=DIRECTION('',(-1.,-1.08359635323528E-16,0.));
#1271=DIRECTION('',(1.,1.08359635323528E-16,0.));
#1272=DIRECTION('center_axis',(3.65177551090543E-32,-3.37005149565368E-16,
1.));
#1273=DIRECTION('ref_axis',(-9.26540919949723E-17,1.,3.37005149565368E-16));
#1274=DIRECTION('',(0.707106781186548,0.707106781186548,2.38298626552458E-16));
#1275=DIRECTION('',(1.,1.08359635323528E-16,0.));
#1276=DIRECTION('center_axis',(-3.65177551090543E-32,3.37005149565368E-16,
-1.));
#1277=DIRECTION('ref_axis',(-1.,0.,0.));
#1278=DIRECTION('center_axis',(1.,1.08359635323528E-16,0.));
#1279=DIRECTION('ref_axis',(0.,-0.707106781186548,0.707106781186548));
#1280=DIRECTION('center_axis',(1.,2.01891768584888E-16,0.));
#1281=DIRECTION('ref_axis',(0.,-0.707106781186548,0.707106781186548));
#1282=DIRECTION('',(-1.,-1.08359635323528E-16,0.));
#1283=DIRECTION('center_axis',(0.707106781186548,-0.707106781186548,0.));
#1284=DIRECTION('ref_axis',(-0.707106781186548,-0.707106781186547,0.));
#1285=DIRECTION('center_axis',(1.08359635323528E-16,-1.,-5.46369598732852E-16));
#1286=DIRECTION('ref_axis',(5.06233790642498E-32,-5.46369598732852E-16,
1.));
#1287=DIRECTION('',(1.10307524589191E-31,-5.46369598732852E-16,1.));
#1288=DIRECTION('',(0.,8.2225058682273E-16,-1.));
#1289=DIRECTION('',(1.,1.08359635323528E-16,0.));
#1290=DIRECTION('',(0.,-5.46369598732852E-16,1.));
#1291=DIRECTION('',(1.,1.08359635323528E-16,0.));
#1292=DIRECTION('center_axis',(0.,0.,1.));
#1293=DIRECTION('ref_axis',(-0.923879532511287,0.38268343236509,0.));
#1294=DIRECTION('',(0.,0.,1.));
#1295=DIRECTION('',(0.,0.,-1.));
#1296=DIRECTION('center_axis',(0.707106781186548,-0.707106781186548,0.));
#1297=DIRECTION('ref_axis',(0.707106781186548,0.707106781186548,0.));
#1298=DIRECTION('center_axis',(-1.08359635323528E-16,1.,0.));
#1299=DIRECTION('ref_axis',(0.,0.,-1.));
#1300=DIRECTION('',(-1.,-1.08359635323528E-16,0.));
#1301=DIRECTION('',(0.,0.,-1.));
#1302=DIRECTION('',(-1.,-1.08359635323528E-16,0.));
#1303=DIRECTION('',(0.,-3.36588721282416E-16,1.));
#1304=DIRECTION('center_axis',(0.,0.,-1.));
#1305=DIRECTION('ref_axis',(-0.707106781186547,0.707106781186547,0.));
#1306=DIRECTION('',(0.,0.,1.));
#1307=DIRECTION('center_axis',(0.,0.,-1.));
#1308=DIRECTION('ref_axis',(-0.707106781186547,0.707106781186547,0.));
#1309=DIRECTION('',(0.,0.,-1.));
#1310=DIRECTION('center_axis',(1.43368816395665E-16,-1.,0.));
#1311=DIRECTION('ref_axis',(1.,1.43368816395665E-16,0.));
#1312=DIRECTION('',(1.,1.43368816395665E-16,0.));
#1313=DIRECTION('',(0.,0.,1.));
#1314=DIRECTION('',(-1.,-1.43368816395665E-16,0.));
#1315=DIRECTION('',(1.,7.22397568823522E-17,0.));
#1316=DIRECTION('',(0.,0.,1.));
#1317=DIRECTION('center_axis',(0.,0.,-1.));
#1318=DIRECTION('ref_axis',(1.,0.,0.));
#1319=DIRECTION('',(0.,1.,0.));
#1320=DIRECTION('',(0.,-1.,0.));
#1321=DIRECTION('center_axis',(0.,0.,1.));
#1322=DIRECTION('ref_axis',(-0.707106781186523,-0.707106781186572,0.));
#1323=DIRECTION('',(0.,0.,1.));
#1324=DIRECTION('center_axis',(0.,0.,-1.));
#1325=DIRECTION('ref_axis',(-0.707106781186523,-0.707106781186572,0.));
#1326=DIRECTION('',(0.,0.,-1.));
#1327=DIRECTION('center_axis',(-1.,0.,0.));
#1328=DIRECTION('ref_axis',(0.,0.,1.));
#1329=DIRECTION('',(0.,1.,0.));
#1330=DIRECTION('center_axis',(0.,0.,-1.));
#1331=DIRECTION('ref_axis',(1.,0.,0.));
#1332=DIRECTION('',(-1.,-1.43368816395665E-16,0.));
#1333=DIRECTION('',(0.,-1.,0.));
#1334=DIRECTION('center_axis',(0.,0.,1.));
#1335=DIRECTION('ref_axis',(-0.707106781186523,-0.707106781186572,0.));
#1336=DIRECTION('',(0.,0.,1.));
#1337=DIRECTION('center_axis',(0.,0.,-1.));
#1338=DIRECTION('ref_axis',(-0.707106781186523,-0.707106781186572,0.));
#1339=DIRECTION('',(0.,0.,-1.));
#1340=DIRECTION('center_axis',(-1.,0.,0.));
#1341=DIRECTION('ref_axis',(0.,0.,1.));
#1342=DIRECTION('',(0.,1.,0.));
#1343=DIRECTION('',(0.,-2.95647270830555E-17,-1.));
#1344=DIRECTION('center_axis',(0.,0.,-1.));
#1345=DIRECTION('ref_axis',(1.,0.,0.));
#1346=DIRECTION('',(-1.,-1.08359635323528E-16,0.));
#1347=DIRECTION('',(0.,-1.,0.));
#1348=DIRECTION('',(1.,0.,0.));
#1349=DIRECTION('center_axis',(0.,0.,-1.));
#1350=DIRECTION('ref_axis',(-0.707106781186535,0.70710678118656,0.));
#1351=DIRECTION('',(0.,0.,1.));
#1352=DIRECTION('center_axis',(0.,0.,-1.));
#1353=DIRECTION('ref_axis',(-0.707106781186535,0.70710678118656,0.));
#1354=DIRECTION('',(0.,0.,-1.));
#1355=DIRECTION('center_axis',(1.08359635323528E-16,-1.,0.));
#1356=DIRECTION('ref_axis',(1.,1.08359635323528E-16,0.));
#1357=DIRECTION('',(1.,1.08359635323528E-16,0.));
#1358=DIRECTION('',(0.,0.,1.));
#1359=DIRECTION('',(-1.,-1.08359635323528E-16,0.));
#1360=DIRECTION('',(1.,7.22397568823522E-17,0.));
#1361=DIRECTION('',(0.,0.,1.));
#1362=DIRECTION('center_axis',(0.,0.,-1.));
#1363=DIRECTION('ref_axis',(1.,0.,0.));
#1364=DIRECTION('',(0.,1.,0.));
#1365=DIRECTION('',(0.,-1.,0.));
#1366=DIRECTION('center_axis',(0.,1.,0.));
#1367=DIRECTION('ref_axis',(1.,0.,0.));
#1368=DIRECTION('center_axis',(0.,-1.,0.));
#1369=DIRECTION('ref_axis',(1.,0.,0.));
#1370=DIRECTION('',(0.,-1.,0.));
#1371=DIRECTION('center_axis',(1.,0.,0.));
#1372=DIRECTION('ref_axis',(0.,0.,1.));
#1373=DIRECTION('',(0.,0.,-1.));
#1374=DIRECTION('',(0.,-1.,0.));
#1375=DIRECTION('center_axis',(1.,0.,0.));
#1376=DIRECTION('ref_axis',(0.,0.,1.));
#1377=DIRECTION('',(0.,-1.,0.));
#1378=DIRECTION('center_axis',(1.,0.,0.));
#1379=DIRECTION('ref_axis',(0.,0.,1.));
#1380=DIRECTION('',(0.,0.,-1.));
#1381=DIRECTION('',(0.,-1.,0.));
#1382=DIRECTION('',(0.,0.,1.));
#1383=DIRECTION('center_axis',(0.,0.,1.));
#1384=DIRECTION('ref_axis',(-1.,0.,0.));
#1385=DIRECTION('center_axis',(0.,0.,1.));
#1386=DIRECTION('ref_axis',(-1.,0.,0.));
#1387=DIRECTION('',(-1.,0.,0.));
#1388=DIRECTION('',(1.,1.08359635323528E-16,0.));
#1389=DIRECTION('center_axis',(0.,0.,1.));
#1390=DIRECTION('ref_axis',(-1.,0.,0.));
#1391=DIRECTION('',(1.,1.43368816395665E-16,0.));
#1392=DIRECTION('center_axis',(0.,0.,1.));
#1393=DIRECTION('ref_axis',(-1.,0.,0.));
#1394=DIRECTION('',(0.,-1.,0.));
#1395=DIRECTION('center_axis',(1.,0.,0.));
#1396=DIRECTION('ref_axis',(0.,0.,1.));
#1397=DIRECTION('center_axis',(-1.08359635323528E-16,1.,0.));
#1398=DIRECTION('ref_axis',(-1.,-1.08359635323528E-16,0.));
#1399=DIRECTION('',(0.,0.,-1.));
#1400=DIRECTION('',(1.,7.22397568823522E-17,0.));
#1401=DIRECTION('center_axis',(-1.,0.,0.));
#1402=DIRECTION('ref_axis',(0.,0.,1.));
#1403=DIRECTION('center_axis',(-1.,0.,0.));
#1404=DIRECTION('ref_axis',(0.,0.,1.));
#1405=DIRECTION('center_axis',(1.,9.26540919949724E-17,0.));
#1406=DIRECTION('ref_axis',(0.,0.,-1.));
#1407=DIRECTION('center_axis',(-1.,-9.26540919949724E-17,0.));
#1408=DIRECTION('ref_axis',(0.,0.,-1.));
#1409=DIRECTION('center_axis',(0.,0.,1.));
#1410=DIRECTION('ref_axis',(1.10937989590427E-16,1.,0.));
#1411=DIRECTION('center_axis',(-0.707106781186548,-7.84450047305935E-17,
-0.707106781186548));
#1412=DIRECTION('ref_axis',(-0.707106781186548,7.84450047305935E-17,0.707106781186548));
#1413=DIRECTION('',(0.,0.,-1.));
#1414=DIRECTION('center_axis',(-1.43368816395665E-16,1.,0.));
#1415=DIRECTION('ref_axis',(-1.,-1.43368816395665E-16,0.));
#1416=DIRECTION('',(1.,7.22397568823522E-17,0.));
#1417=DIRECTION('center_axis',(0.,0.,1.));
#1418=DIRECTION('ref_axis',(-9.98441906313842E-16,1.,0.));
#1419=DIRECTION('center_axis',(-0.707106781186547,-7.84450047305934E-17,
-0.707106781186548));
#1420=DIRECTION('ref_axis',(-0.707106781186548,-7.06005042575341E-16,0.707106781186547));
#1421=DIRECTION('center_axis',(-1.,-7.22397568823522E-17,0.));
#1422=DIRECTION('ref_axis',(0.,0.,-1.));
#1423=DIRECTION('center_axis',(-1.,-2.01891768584888E-16,0.));
#1424=DIRECTION('ref_axis',(0.,0.,-1.));
#1425=DIRECTION('',(-1.,-7.22397568823522E-17,0.));
#1426=DIRECTION('center_axis',(-1.,-7.22397568823522E-17,0.));
#1427=DIRECTION('ref_axis',(0.,0.,-1.));
#1428=DIRECTION('',(-1.,-7.22397568823522E-17,0.));
#1429=DIRECTION('center_axis',(0.,0.,1.));
#1430=DIRECTION('ref_axis',(-1.,0.,0.));
#1431=DIRECTION('',(0.,0.,-1.));
#1432=DIRECTION('center_axis',(0.,1.,0.));
#1433=DIRECTION('ref_axis',(-1.,0.,0.));
#1434=DIRECTION('center_axis',(1.,2.01891768584888E-16,0.));
#1435=DIRECTION('ref_axis',(-2.01891768584888E-16,1.,0.));
#1436=CARTESIAN_POINT('',(0.,0.,0.));
#1437=CARTESIAN_POINT('Origin',(-0.80675,1.5685,-2.18547839493141E-17));
#1438=CARTESIAN_POINT('',(-0.81175,1.5685,0.4775));
#1439=CARTESIAN_POINT('',(-0.80675,1.5735,0.4775));
#1440=CARTESIAN_POINT('Origin',(-0.80675,1.5685,0.4775));
#1441=CARTESIAN_POINT('',(-0.80675,1.5735,-0.1165));
#1442=CARTESIAN_POINT('',(-0.80675,1.5735,-2.18547839493141E-17));
#1443=CARTESIAN_POINT('',(-0.81175,1.5685,-0.1165));
#1444=CARTESIAN_POINT('Origin',(-0.80675,1.5685,-0.1165));
#1445=CARTESIAN_POINT('',(-0.81175,1.5685,-2.18547839493141E-17));
#1446=CARTESIAN_POINT('Origin',(2.62257407391769E-16,0.,0.4775));
#1447=CARTESIAN_POINT('',(-0.81175,-1.5685,0.4775));
#1448=CARTESIAN_POINT('',(-0.81175,-1.5735,0.4775));
#1449=CARTESIAN_POINT('',(-0.80675,-1.5735,0.4775));
#1450=CARTESIAN_POINT('Origin',(-0.80675,-1.5685,0.4775));
#1451=CARTESIAN_POINT('',(0.40775,-1.5735,0.4775));
#1452=CARTESIAN_POINT('',(-0.80675,-1.5735,0.4775));
#1453=CARTESIAN_POINT('',(0.41275,-1.5685,0.4775));
#1454=CARTESIAN_POINT('Origin',(0.40775,-1.5685,0.4775));
#1455=CARTESIAN_POINT('',(0.41275,-0.763418830920368,0.4775));
#1456=CARTESIAN_POINT('',(0.41275,-1.5735,0.4775));
#1457=CARTESIAN_POINT('',(0.452290584539816,-0.667959415460184,0.4775));
#1458=CARTESIAN_POINT('Origin',(0.54775,-0.763418830920368,0.4775));
#1459=CARTESIAN_POINT('',(0.810285533905933,-0.309964466094067,0.4775));
#1460=CARTESIAN_POINT('',(0.41275,-0.7075,0.4775));
#1461=CARTESIAN_POINT('',(0.81175,-0.306428932188134,0.4775));
#1462=CARTESIAN_POINT('Origin',(0.80675,-0.306428932188134,0.4775));
#1463=CARTESIAN_POINT('',(0.81175,1.5685,0.4775));
#1464=CARTESIAN_POINT('',(0.81175,1.5735,0.4775));
#1465=CARTESIAN_POINT('',(0.80675,1.5735,0.4775));
#1466=CARTESIAN_POINT('Origin',(0.80675,1.5685,0.4775));
#1467=CARTESIAN_POINT('',(0.80675,1.5735,0.4775));
#1468=CARTESIAN_POINT('',(0.58325,-0.1935,0.4775));
#1469=CARTESIAN_POINT('Origin',(0.33525,-0.1935,0.4775));
#1470=CARTESIAN_POINT('Origin',(-0.81175,1.74838271594513E-16,-4.37095678986282E-17));
#1471=CARTESIAN_POINT('',(-0.81175,1.1825,-0.1165));
#1472=CARTESIAN_POINT('',(-0.81175,0.78675,-0.1165));
#1473=CARTESIAN_POINT('',(-0.81175,1.1825,0.0395));
#1474=CARTESIAN_POINT('',(-0.81175,1.1825,-0.4775));
#1475=CARTESIAN_POINT('',(-0.81175,0.9855,0.2365));
#1476=CARTESIAN_POINT('Origin',(-0.81175,0.9855,0.0395));
#1477=CARTESIAN_POINT('',(-0.81175,0.7885,0.0395));
#1478=CARTESIAN_POINT('Origin',(-0.81175,0.9855,0.0395));
#1479=CARTESIAN_POINT('',(-0.81175,0.7885,-0.1165));
#1480=CARTESIAN_POINT('',(-0.81175,0.7885,0.0395));
#1481=CARTESIAN_POINT('',(-0.81175,0.5105,-0.1165));
#1482=CARTESIAN_POINT('',(-0.81175,0.78675,-0.1165));
#1483=CARTESIAN_POINT('',(-0.81175,0.5105,0.1975));
#1484=CARTESIAN_POINT('',(-0.81175,0.5105,0.00375000000000007));
#1485=CARTESIAN_POINT('',(-0.81175,0.3855,0.3225));
#1486=CARTESIAN_POINT('Origin',(-0.81175,0.3855,0.1975));
#1487=CARTESIAN_POINT('',(-0.81175,-0.6615,0.3225));
#1488=CARTESIAN_POINT('',(-0.81175,-0.39325,0.3225));
#1489=CARTESIAN_POINT('',(-0.81175,-0.7865,0.1975));
#1490=CARTESIAN_POINT('Origin',(-0.81175,-0.6615,0.1975));
#1491=CARTESIAN_POINT('',(-0.81175,-0.7865,-0.1165));
#1492=CARTESIAN_POINT('',(-0.81175,-0.7865,-0.23625));
#1493=CARTESIAN_POINT('',(-0.81175,-0.9825,-0.1165));
#1494=CARTESIAN_POINT('',(-0.81175,0.78675,-0.1165));
#1495=CARTESIAN_POINT('',(-0.81175,-0.9825,0.0395));
#1496=CARTESIAN_POINT('',(-0.81175,-0.9825,-0.4775));
#1497=CARTESIAN_POINT('',(-0.811750000000001,-1.1795,0.2365));
#1498=CARTESIAN_POINT('Origin',(-0.81175,-1.1795,0.0395));
#1499=CARTESIAN_POINT('',(-0.81175,-1.3765,0.0395));
#1500=CARTESIAN_POINT('Origin',(-0.81175,-1.1795,0.0395));
#1501=CARTESIAN_POINT('',(-0.81175,-1.3765,-0.1165));
#1502=CARTESIAN_POINT('',(-0.81175,-1.3765,0.0395));
#1503=CARTESIAN_POINT('',(-0.81175,-1.5685,-0.1165));
#1504=CARTESIAN_POINT('',(-0.81175,0.78675,-0.1165));
#1505=CARTESIAN_POINT('',(-0.81175,-1.5685,-2.18547839493141E-17));
#1506=CARTESIAN_POINT('Origin',(-0.80675,-1.5685,-2.18547839493141E-17));
#1507=CARTESIAN_POINT('',(-0.80675,-1.5735,-0.1165));
#1508=CARTESIAN_POINT('Origin',(-0.80675,-1.5685,-0.1165));
#1509=CARTESIAN_POINT('',(-0.80675,-1.5735,-2.18547839493141E-17));
#1510=CARTESIAN_POINT('Origin',(0.80675,-0.306428932188134,0.));
#1511=CARTESIAN_POINT('',(0.810285533905933,-0.309964466094067,0.3225));
#1512=CARTESIAN_POINT('',(0.81175,-0.306428932188134,0.3225));
#1513=CARTESIAN_POINT('Origin',(0.80675,-0.306428932188134,0.3225));
#1514=CARTESIAN_POINT('',(0.81175,-0.306428932188134,0.));
#1515=CARTESIAN_POINT('',(0.810285533905933,-0.309964466094067,0.));
#1516=CARTESIAN_POINT('Origin',(0.81175,0.63,0.));
#1517=CARTESIAN_POINT('',(0.81175,0.3855,0.3225));
#1518=CARTESIAN_POINT('',(0.81175,-0.07825,0.3225));
#1519=CARTESIAN_POINT('',(0.81175,0.5105,0.1975));
#1520=CARTESIAN_POINT('Origin',(0.81175,0.3855,0.1975));
#1521=CARTESIAN_POINT('',(0.81175,0.5105,-0.4775));
#1522=CARTESIAN_POINT('',(0.81175,0.5105,-0.1175));
#1523=CARTESIAN_POINT('',(0.81175,1.5685,-0.4775));
#1524=CARTESIAN_POINT('',(0.81175,0.5105,-0.4775));
#1525=CARTESIAN_POINT('',(0.81175,1.5685,0.));
#1526=CARTESIAN_POINT('Origin',(0.40775,-1.5685,0.));
#1527=CARTESIAN_POINT('',(0.40775,-1.5735,-0.4775));
#1528=CARTESIAN_POINT('',(0.40775,-1.5735,0.));
#1529=CARTESIAN_POINT('',(0.41275,-1.5685,-0.4775));
#1530=CARTESIAN_POINT('Origin',(0.40775,-1.5685,-0.4775));
#1531=CARTESIAN_POINT('',(0.41275,-1.5685,0.));
#1532=CARTESIAN_POINT('Origin',(-0.197,-1.18,-0.4775));
#1533=CARTESIAN_POINT('',(-0.81175,-1.5735,-0.4775));
#1534=CARTESIAN_POINT('',(0.41275,-1.5735,-0.4775));
#1535=CARTESIAN_POINT('',(-0.81175,-1.3815,-0.4775));
#1536=CARTESIAN_POINT('',(-0.81175,-1.3765,-0.4775));
#1537=CARTESIAN_POINT('',(-0.80675,-1.3765,-0.4775));
#1538=CARTESIAN_POINT('Origin',(-0.80675,-1.3815,-0.4775));
#1539=CARTESIAN_POINT('',(-0.137750000000001,-1.3765,-0.4775));
#1540=CARTESIAN_POINT('',(-0.80675,-1.3765,-0.4775));
#1541=CARTESIAN_POINT('',(-0.137750000000001,-0.9825,-0.4775));
#1542=CARTESIAN_POINT('Origin',(-0.137750000000001,-1.1795,-0.4775));
#1543=CARTESIAN_POINT('',(-0.80675,-0.9825,-0.4775));
#1544=CARTESIAN_POINT('',(-0.137750000000001,-0.9825,-0.4775));
#1545=CARTESIAN_POINT('',(-0.81175,-0.9775,-0.4775));
#1546=CARTESIAN_POINT('Origin',(-0.80675,-0.9775,-0.4775));
#1547=CARTESIAN_POINT('',(-0.81175,-0.7865,-0.4775));
#1548=CARTESIAN_POINT('',(-0.81175,-0.7865,-0.4775));
#1549=CARTESIAN_POINT('',(0.41275,-0.7865,-0.4775));
#1550=CARTESIAN_POINT('',(-0.80675,-0.7865,-0.4775));
#1551=CARTESIAN_POINT('',(0.41275,-0.7865,-0.4775));
#1552=CARTESIAN_POINT('Origin',(-0.80675,-1.5735,0.));
#1553=CARTESIAN_POINT('',(-0.66775,-1.5735,-0.1165));
#1554=CARTESIAN_POINT('',(-0.73725,-1.5735,-0.1165));
#1555=CARTESIAN_POINT('',(-0.66775,-1.5735,-0.3555));
#1556=CARTESIAN_POINT('',(-0.66775,-1.5735,-0.17775));
#1557=CARTESIAN_POINT('',(-0.81175,-1.5735,-0.3555));
#1558=CARTESIAN_POINT('',(-0.80925,-1.5735,-0.3555));
#1559=CARTESIAN_POINT('',(-0.81175,-1.5735,-0.4775));
#1560=CARTESIAN_POINT('Origin',(0.80675,1.5685,0.));
#1561=CARTESIAN_POINT('',(0.80675,1.5735,-0.4775));
#1562=CARTESIAN_POINT('Origin',(0.80675,1.5685,-0.4775));
#1563=CARTESIAN_POINT('',(0.80675,1.5735,0.));
#1564=CARTESIAN_POINT('Origin',(0.,1.042,-0.4775));
#1565=CARTESIAN_POINT('',(-0.81175,0.5105,-0.4775));
#1566=CARTESIAN_POINT('',(0.80675,0.5105,-0.4775));
#1567=CARTESIAN_POINT('',(-0.81175,0.7835,-0.4775));
#1568=CARTESIAN_POINT('',(-0.81175,0.7885,-0.4775));
#1569=CARTESIAN_POINT('',(-0.80675,0.7885,-0.4775));
#1570=CARTESIAN_POINT('Origin',(-0.80675,0.7835,-0.4775));
#1571=CARTESIAN_POINT('',(0.17725,0.7885,-0.4775));
#1572=CARTESIAN_POINT('',(-0.80675,0.7885,-0.4775));
#1573=CARTESIAN_POINT('',(0.17725,1.1825,-0.4775));
#1574=CARTESIAN_POINT('Origin',(0.17725,0.9855,-0.4775));
#1575=CARTESIAN_POINT('',(-0.80675,1.1825,-0.4775));
#1576=CARTESIAN_POINT('',(0.17725,1.1825,-0.4775));
#1577=CARTESIAN_POINT('',(-0.81175,1.1875,-0.4775));
#1578=CARTESIAN_POINT('Origin',(-0.80675,1.1875,-0.4775));
#1579=CARTESIAN_POINT('',(-0.81175,1.5735,-0.4775));
#1580=CARTESIAN_POINT('',(-0.81175,1.5735,-0.4775));
#1581=CARTESIAN_POINT('',(-0.80675,1.5735,-0.4775));
#1582=CARTESIAN_POINT('Origin',(0.80675,0.3855,0.1975));
#1583=CARTESIAN_POINT('',(0.80675,0.3855,0.3225));
#1584=CARTESIAN_POINT('',(0.80675,0.5105,0.1975));
#1585=CARTESIAN_POINT('Origin',(0.80675,-0.7865,0.3225));
#1586=CARTESIAN_POINT('',(0.45875,-0.6615,0.3225));
#1587=CARTESIAN_POINT('',(0.4915,-0.62875,0.3225));
#1588=CARTESIAN_POINT('',(0.80675,-0.6615,0.3225));
#1589=CARTESIAN_POINT('',(0.58325,-0.1935,0.3225));
#1590=CARTESIAN_POINT('Origin',(0.33525,-0.1935,0.3225));
#1591=CARTESIAN_POINT('Origin',(0.80675,-0.6615,0.1975));
#1592=CARTESIAN_POINT('',(0.41275,-0.763418830920368,0.269870932727342));
#1593=CARTESIAN_POINT('',(0.41275,-0.7865,0.1975));
#1594=CARTESIAN_POINT('Origin',(0.41275,-0.6615,0.1975));
#1595=CARTESIAN_POINT('',(0.80675,-0.7865,0.1975));
#1596=CARTESIAN_POINT('',(0.452290585197096,-0.667959414802904,0.322332992275295));
#1597=CARTESIAN_POINT('Origin',(0.45875,-0.6615,0.1975));
#1598=CARTESIAN_POINT('Ctrl Pts',(0.452290585197096,-0.667959414802904,
0.322332992275295));
#1599=CARTESIAN_POINT('Ctrl Pts',(0.446276699518,-0.673973300399184,0.322021807059468));
#1600=CARTESIAN_POINT('Ctrl Pts',(0.440895104244711,-0.680500807422504,
0.321244494646994));
#1601=CARTESIAN_POINT('Ctrl Pts',(0.430985957387743,-0.695023730700444,
0.3181771707963));
#1602=CARTESIAN_POINT('Ctrl Pts',(0.426257800270195,-0.70380997995416,0.315508649973634));
#1603=CARTESIAN_POINT('Ctrl Pts',(0.419162217133275,-0.721243585365951,
0.307712886708281));
#1604=CARTESIAN_POINT('Ctrl Pts',(0.416766464492985,-0.729868659710771,
0.302561658173693));
#1605=CARTESIAN_POINT('Ctrl Pts',(0.413384254367728,-0.747016725573526,
0.289485585686926));
#1606=CARTESIAN_POINT('Ctrl Pts',(0.41275,-0.756000776403597,0.280317660654714));
#1607=CARTESIAN_POINT('Ctrl Pts',(0.41275,-0.763418830920359,0.269870932727354));
#1608=CARTESIAN_POINT('Origin',(0.80675,-0.7865,-0.4725));
#1609=CARTESIAN_POINT('',(0.41275,-0.7865,-0.23625));
#1610=CARTESIAN_POINT('',(-0.81175,-0.7865,-0.3555));
#1611=CARTESIAN_POINT('',(-0.81175,-0.7865,-0.1175));
#1612=CARTESIAN_POINT('',(-0.66775,-0.7865,-0.3555));
#1613=CARTESIAN_POINT('',(-0.00249999999999973,-0.7865,-0.3555));
#1614=CARTESIAN_POINT('',(-0.66775,-0.7865,-0.1165));
#1615=CARTESIAN_POINT('',(-0.66775,-0.7865,-0.414000000000001));
#1616=CARTESIAN_POINT('',(0.0695000000000002,-0.7865,-0.1165));
#1617=CARTESIAN_POINT('Origin',(0.54775,-0.763418830920368,0.));
#1618=CARTESIAN_POINT('',(0.452290584539816,-0.667959415460184,0.));
#1619=CARTESIAN_POINT('',(0.41275,-0.763418830920368,0.));
#1620=CARTESIAN_POINT('Origin',(0.41275,-0.7075,0.));
#1621=CARTESIAN_POINT('Origin',(0.80675,0.5105,0.00750000000000018));
#1622=CARTESIAN_POINT('',(-0.66775,0.5105,-0.1165));
#1623=CARTESIAN_POINT('',(0.0695000000000002,0.5105,-0.1165));
#1624=CARTESIAN_POINT('',(-0.66775,0.5105,-0.3555));
#1625=CARTESIAN_POINT('',(-0.66775,0.5105,-0.174));
#1626=CARTESIAN_POINT('',(-0.81175,0.5105,-0.3555));
#1627=CARTESIAN_POINT('',(-0.0024999999999998,0.5105,-0.3555));
#1628=CARTESIAN_POINT('',(-0.81175,0.5105,-0.4775));
#1629=CARTESIAN_POINT('Origin',(-0.80675,-1.3815,-0.23625));
#1630=CARTESIAN_POINT('',(-0.81175,-1.3815,-0.3555));
#1631=CARTESIAN_POINT('',(-0.81175,-1.3815,-0.23625));
#1632=CARTESIAN_POINT('',(-0.80675,-1.3765,-0.3555));
#1633=CARTESIAN_POINT('Origin',(-0.80675,-1.3815,-0.3555));
#1634=CARTESIAN_POINT('',(-0.80675,-1.3765,-0.23625));
#1635=CARTESIAN_POINT('Origin',(-0.80675,-1.3765,-0.4725));
#1636=CARTESIAN_POINT('',(-0.66775,-1.3765,-0.3555));
#1637=CARTESIAN_POINT('',(-0.80925,-1.3765,-0.3555));
#1638=CARTESIAN_POINT('',(-0.66775,-1.3765,-0.1165));
#1639=CARTESIAN_POINT('',(-0.66775,-1.3765,-0.414));
#1640=CARTESIAN_POINT('',(-0.73725,-1.3765,-0.1165));
#1641=CARTESIAN_POINT('',(-0.137750000000001,-1.3765,0.0395));
#1642=CARTESIAN_POINT('',(0.80675,-1.3765,0.0395));
#1643=CARTESIAN_POINT('',(-0.137750000000001,-1.3765,-0.4725));
#1644=CARTESIAN_POINT('Origin',(-0.81175,1.5735,-0.3555));
#1645=CARTESIAN_POINT('',(-0.81175,0.78675,-0.3555));
#1646=CARTESIAN_POINT('',(-0.66775,1.5735,-0.3555));
#1647=CARTESIAN_POINT('Origin',(-0.80675,-0.9775,-0.23625));
#1648=CARTESIAN_POINT('',(-0.80675,-0.9825,-0.3555));
#1649=CARTESIAN_POINT('',(-0.80675,-0.9825,-0.23625));
#1650=CARTESIAN_POINT('',(-0.81175,-0.9775,-0.3555));
#1651=CARTESIAN_POINT('Origin',(-0.80675,-0.9775,-0.3555));
#1652=CARTESIAN_POINT('',(-0.81175,-0.9775,-0.23625));
#1653=CARTESIAN_POINT('Origin',(-0.81175,1.74838271594513E-16,-4.37095678986282E-17));
#1654=CARTESIAN_POINT('',(-0.81175,0.78675,-0.3555));
#1655=CARTESIAN_POINT('Origin',(-0.81175,1.5735,-0.3555));
#1656=CARTESIAN_POINT('',(-0.66775,-0.9825,-0.3555));
#1657=CARTESIAN_POINT('',(-0.47475,-0.9825,-0.3555));
#1658=CARTESIAN_POINT('',(-0.66775,1.5735,-0.3555));
#1659=CARTESIAN_POINT('Origin',(-0.80675,1.1875,-0.23625));
#1660=CARTESIAN_POINT('',(-0.80675,1.1825,-0.3555));
#1661=CARTESIAN_POINT('',(-0.80675,1.1825,-0.23625));
#1662=CARTESIAN_POINT('',(-0.81175,1.1875,-0.3555));
#1663=CARTESIAN_POINT('Origin',(-0.80675,1.1875,-0.3555));
#1664=CARTESIAN_POINT('',(-0.81175,1.1875,-0.23625));
#1665=CARTESIAN_POINT('Origin',(-0.81175,1.74838271594513E-16,-4.37095678986282E-17));
#1666=CARTESIAN_POINT('',(-0.81175,1.5735,-0.3555));
#1667=CARTESIAN_POINT('',(-0.81175,0.78675,-0.3555));
#1668=CARTESIAN_POINT('',(-0.81175,1.5735,0.4775));
#1669=CARTESIAN_POINT('Origin',(-0.81175,1.5735,-0.3555));
#1670=CARTESIAN_POINT('',(-0.66775,1.1825,-0.3555));
#1671=CARTESIAN_POINT('',(-0.31725,1.1825,-0.3555));
#1672=CARTESIAN_POINT('',(-0.66775,1.5735,-0.3555));
#1673=CARTESIAN_POINT('',(-0.66775,1.5735,-0.3555));
#1674=CARTESIAN_POINT('',(-0.00249999999999994,1.5735,-0.3555));
#1675=CARTESIAN_POINT('Origin',(-0.80675,0.7835,-0.23625));
#1676=CARTESIAN_POINT('',(-0.81175,0.7835,-0.3555));
#1677=CARTESIAN_POINT('',(-0.81175,0.7835,-0.23625));
#1678=CARTESIAN_POINT('',(-0.80675,0.7885,-0.3555));
#1679=CARTESIAN_POINT('Origin',(-0.80675,0.7835,-0.3555));
#1680=CARTESIAN_POINT('',(-0.80675,0.7885,-0.23625));
#1681=CARTESIAN_POINT('Origin',(-0.80675,0.7885,-0.4725));
#1682=CARTESIAN_POINT('',(-0.66775,0.7885,-0.3555));
#1683=CARTESIAN_POINT('',(-0.80925,0.7885,-0.3555));
#1684=CARTESIAN_POINT('',(-0.66775,0.7885,-0.1165));
#1685=CARTESIAN_POINT('',(-0.66775,0.7885,-0.414));
#1686=CARTESIAN_POINT('',(-0.73725,0.7885,-0.1165));
#1687=CARTESIAN_POINT('',(0.17725,0.7885,0.0395));
#1688=CARTESIAN_POINT('',(0.80675,0.7885,0.0395));
#1689=CARTESIAN_POINT('',(0.17725,0.7885,-0.4725));
#1690=CARTESIAN_POINT('Origin',(-0.81175,1.5735,-0.3555));
#1691=CARTESIAN_POINT('',(-0.81175,0.78675,-0.3555));
#1692=CARTESIAN_POINT('',(-0.66775,1.5735,-0.3555));
#1693=CARTESIAN_POINT('Origin',(0.33525,1.234,0.0395));
#1694=CARTESIAN_POINT('',(0.22975,1.5735,0.0395));
#1695=CARTESIAN_POINT('Origin',(0.33525,1.5735,0.0395));
#1696=CARTESIAN_POINT('',(0.22975,1.1825,0.0395));
#1697=CARTESIAN_POINT('',(0.22975,1.234,0.0395));
#1698=CARTESIAN_POINT('',(0.33525,1.1518693180848,-0.066));
#1699=CARTESIAN_POINT('Ctrl Pts',(0.33525,1.1518693180848,-0.066));
#1700=CARTESIAN_POINT('Ctrl Pts',(0.321659705924178,1.1518693180848,-0.066));
#1701=CARTESIAN_POINT('Ctrl Pts',(0.307423718677971,1.15371174433253,-0.0632261078885049));
#1702=CARTESIAN_POINT('Ctrl Pts',(0.281551522465179,1.15986859121923,-0.0523881610985614));
#1703=CARTESIAN_POINT('Ctrl Pts',(0.269881452804641,1.16405208451887,-0.0443309836350024));
#1704=CARTESIAN_POINT('Ctrl Pts',(0.251453578537772,1.17159183340661,-0.0259031093681327));
#1705=CARTESIAN_POINT('Ctrl Pts',(0.243371441818993,1.17549593601004,-0.0142220506416484));
#1706=CARTESIAN_POINT('Ctrl Pts',(0.23251275070395,1.18097820387479,0.0117009645347191));
#1707=CARTESIAN_POINT('Ctrl Pts',(0.22975,1.1825,0.0259605887091699));
#1708=CARTESIAN_POINT('Ctrl Pts',(0.22975,1.1825,0.0395));
#1709=CARTESIAN_POINT('Ctrl Pts',(0.22975,1.1825,0.0395));
#1710=CARTESIAN_POINT('Ctrl Pts',(0.22975,1.1825,0.0530394112908301));
#1711=CARTESIAN_POINT('Ctrl Pts',(0.23251275070395,1.18097820387479,0.0672990354652809));
#1712=CARTESIAN_POINT('Ctrl Pts',(0.243371441818993,1.17549593601004,0.0932220506416484));
#1713=CARTESIAN_POINT('Ctrl Pts',(0.251453578537772,1.17159183340661,0.104903109368133));
#1714=CARTESIAN_POINT('Ctrl Pts',(0.269881452804641,1.16405208451887,0.123330983635002));
#1715=CARTESIAN_POINT('Ctrl Pts',(0.281551522465179,1.15986859121923,0.131388161098561));
#1716=CARTESIAN_POINT('Ctrl Pts',(0.307423718677971,1.15371174433253,0.142226107888505));
#1717=CARTESIAN_POINT('Ctrl Pts',(0.321659705924178,1.1518693180848,0.145));
#1718=CARTESIAN_POINT('Ctrl Pts',(0.348840294075822,1.1518693180848,0.145));
#1719=CARTESIAN_POINT('Ctrl Pts',(0.36307628132203,1.15371174433253,0.142226107888505));
#1720=CARTESIAN_POINT('Ctrl Pts',(0.388948477534822,1.15986859121923,0.131388161098561));
#1721=CARTESIAN_POINT('Ctrl Pts',(0.400618547195359,1.16405208451887,0.123330983635002));
#1722=CARTESIAN_POINT('Ctrl Pts',(0.419046421462229,1.17159183340661,0.104903109368133));
#1723=CARTESIAN_POINT('Ctrl Pts',(0.427128558181007,1.17549593601004,0.0932220506416484));
#1724=CARTESIAN_POINT('Ctrl Pts',(0.437987249296051,1.18097820387479,0.0672990354652809));
#1725=CARTESIAN_POINT('Ctrl Pts',(0.44075,1.1825,0.0530394112908301));
#1726=CARTESIAN_POINT('Ctrl Pts',(0.44075,1.1825,0.0259605887091699));
#1727=CARTESIAN_POINT('Ctrl Pts',(0.437987249296051,1.18097820387479,0.0117009645347191));
#1728=CARTESIAN_POINT('Ctrl Pts',(0.427128558181007,1.17549593601004,-0.0142220506416484));
#1729=CARTESIAN_POINT('Ctrl Pts',(0.419046421462229,1.17159183340661,-0.0259031093681327));
#1730=CARTESIAN_POINT('Ctrl Pts',(0.400618547195359,1.16405208451887,-0.0443309836350024));
#1731=CARTESIAN_POINT('Ctrl Pts',(0.388948477534822,1.15986859121923,-0.0523881610985615));
#1732=CARTESIAN_POINT('Ctrl Pts',(0.36307628132203,1.15371174433253,-0.0632261078885049));
#1733=CARTESIAN_POINT('Ctrl Pts',(0.348840294075822,1.1518693180848,-0.066));
#1734=CARTESIAN_POINT('Ctrl Pts',(0.33525,1.1518693180848,-0.066));
#1735=CARTESIAN_POINT('Origin',(-0.66775,1.5735,-0.3555));
#1736=CARTESIAN_POINT('',(-0.66775,-0.9825,-0.1165));
#1737=CARTESIAN_POINT('',(-0.66775,-0.9825,-0.414));
#1738=CARTESIAN_POINT('',(-0.66775,1.5735,-0.1165));
#1739=CARTESIAN_POINT('Origin',(-0.66775,1.5735,-0.3555));
#1740=CARTESIAN_POINT('',(-0.66775,1.5735,-0.1165));
#1741=CARTESIAN_POINT('Origin',(-0.66775,1.5735,-0.3555));
#1742=CARTESIAN_POINT('',(-0.66775,1.1825,-0.1165));
#1743=CARTESIAN_POINT('',(-0.66775,1.1825,-0.414));
#1744=CARTESIAN_POINT('',(-0.66775,1.5735,-0.1165));
#1745=CARTESIAN_POINT('',(-0.66775,1.5735,-0.1165));
#1746=CARTESIAN_POINT('',(-0.66775,1.5735,-0.17775));
#1747=CARTESIAN_POINT('Origin',(-0.66775,1.5735,-0.1165));
#1748=CARTESIAN_POINT('Origin',(-0.66775,1.5735,-0.1165));
#1749=CARTESIAN_POINT('',(0.0695,1.5735,-0.1165));
#1750=CARTESIAN_POINT('',(-0.24525,1.1825,-0.1165));
#1751=CARTESIAN_POINT('Origin',(-0.66775,1.5735,-0.1165));
#1752=CARTESIAN_POINT('',(-0.40275,-0.9825,-0.1165));
#1753=CARTESIAN_POINT('Origin',(-0.66775,1.5735,-0.1165));
#1754=CARTESIAN_POINT('',(-0.66775,1.5735,-0.1165));
#1755=CARTESIAN_POINT('Origin',(-0.66775,1.5735,-0.3555));
#1756=CARTESIAN_POINT('Origin',(0.17725,1.1825,-0.4725));
#1757=CARTESIAN_POINT('',(0.17725,1.1825,0.0395));
#1758=CARTESIAN_POINT('',(0.17725,1.1825,-0.4725));
#1759=CARTESIAN_POINT('',(0.80675,1.1825,0.0395));
#1760=CARTESIAN_POINT('Origin',(-0.81175,1.74838271594513E-16,-4.37095678986282E-17));
#1761=CARTESIAN_POINT('Origin',(-0.81175,1.74838271594513E-16,-4.37095678986282E-17));
#1762=CARTESIAN_POINT('Origin',(0.80675,0.63,0.));
#1763=CARTESIAN_POINT('',(0.80675,0.9855,0.2365));
#1764=CARTESIAN_POINT('Origin',(0.80675,0.9855,0.0395));
#1765=CARTESIAN_POINT('Origin',(-0.137750000000001,-1.1795,-0.4725));
#1766=CARTESIAN_POINT('',(-0.137750000000001,-0.9825,0.0395));
#1767=CARTESIAN_POINT('Origin',(-0.137750000000001,-1.1795,0.0395));
#1768=CARTESIAN_POINT('',(-0.137750000000001,-0.9825,-0.4725));
#1769=CARTESIAN_POINT('Origin',(-0.137750000000001,-0.9825,-0.4725));
#1770=CARTESIAN_POINT('',(0.80675,-0.9825,0.0395));
#1771=CARTESIAN_POINT('Origin',(0.17725,0.9855,-0.4725));
#1772=CARTESIAN_POINT('Origin',(0.17725,0.9855,0.0395));
#1773=CARTESIAN_POINT('Origin',(0.80675,-1.1795,0.0395));
#1774=CARTESIAN_POINT('',(0.41275,-1.1795,0.2365));
#1775=CARTESIAN_POINT('Origin',(0.41275,-1.1795,0.0395));
#1776=CARTESIAN_POINT('',(0.80675,-1.1795,0.2365));
#1777=CARTESIAN_POINT('Origin',(0.80675,0.9855,0.0395));
#1778=CARTESIAN_POINT('',(0.80675,0.9855,0.2365));
#1779=CARTESIAN_POINT('Origin',(0.33525,-0.1935,0.));
#1780=CARTESIAN_POINT('',(0.58325,-0.1935,0.));
#1781=CARTESIAN_POINT('Origin',(0.80675,1.5735,0.));
#1782=CARTESIAN_POINT('Origin',(0.41275,-1.5735,0.));
#1783=UNCERTAINTY_MEASURE_WITH_UNIT(LENGTH_MEASURE(0.000393700787401575),
#1788,'DISTANCE_ACCURACY_VALUE',
'Maximum model space distance between geometric entities at asserted c
onnectivities');
#1784=UNCERTAINTY_MEASURE_WITH_UNIT(LENGTH_MEASURE(0.000393700787401575),
#1788,'DISTANCE_ACCURACY_VALUE',
'Maximum model space distance between geometric entities at asserted c
onnectivities');
#1785=(
GEOMETRIC_REPRESENTATION_CONTEXT(3)
GLOBAL_UNCERTAINTY_ASSIGNED_CONTEXT((#1783))
GLOBAL_UNIT_ASSIGNED_CONTEXT((#1788,#1792,#1793))
REPRESENTATION_CONTEXT('','3D')
);
#1786=(
GEOMETRIC_REPRESENTATION_CONTEXT(3)
GLOBAL_UNCERTAINTY_ASSIGNED_CONTEXT((#1784))
GLOBAL_UNIT_ASSIGNED_CONTEXT((#1788,#1792,#1793))
REPRESENTATION_CONTEXT('','3D')
);
#1787=DIMENSIONAL_EXPONENTS(1.,0.,0.,0.,0.,0.,0.);
#1788=(
CONVERSION_BASED_UNIT('inch',#1791)
LENGTH_UNIT()
NAMED_UNIT(#1787)
);
#1789=(
LENGTH_UNIT()
NAMED_UNIT(*)
SI_UNIT(.MILLI.,.METRE.)
);
#1790=(
LENGTH_UNIT()
NAMED_UNIT(*)
SI_UNIT($,.METRE.)
);
#1791=LENGTH_MEASURE_WITH_UNIT(LENGTH_MEASURE(25.4),#1789);
#1792=(
NAMED_UNIT(*)
PLANE_ANGLE_UNIT()
SI_UNIT($,.RADIAN.)
);
#1793=(
NAMED_UNIT(*)
SI_UNIT($,.STERADIAN.)
SOLID_ANGLE_UNIT()
);
#1794=SHAPE_DEFINITION_REPRESENTATION(#1795,#1796);
#1795=PRODUCT_DEFINITION_SHAPE('',$,#1798);
#1796=SHAPE_REPRESENTATION('',(#1058),#1785);
#1797=PRODUCT_DEFINITION_CONTEXT('part definition',#1802,'design');
#1798=PRODUCT_DEFINITION('10-017-075-01','10-017-075-02 v6',#1799,#1797);
#1799=PRODUCT_DEFINITION_FORMATION('',$,#1804);
#1800=PRODUCT_RELATED_PRODUCT_CATEGORY('10-017-075-02 v6',
'10-017-075-02 v6',(#1804));
#1801=APPLICATION_PROTOCOL_DEFINITION('international standard',
'automotive_design',2009,#1802);
#1802=APPLICATION_CONTEXT(
'Core Data for Automotive Mechanical Design Process');
#1803=PRODUCT_CONTEXT('part definition',#1802,'mechanical');
#1804=PRODUCT('10-017-075-01','10-017-075-02 v6',$,(#1803));
#1805=PRESENTATION_STYLE_ASSIGNMENT((#1806));
#1806=SURFACE_STYLE_USAGE(.BOTH.,#1807);
#1807=SURFACE_SIDE_STYLE('',(#1808));
#1808=SURFACE_STYLE_FILL_AREA(#1809);
#1809=FILL_AREA_STYLE('Default',(#1810));
#1810=FILL_AREA_STYLE_COLOUR('Default',#1811);
#1811=COLOUR_RGB('Default',0.749019607843137,0.749019607843137,0.749019607843137);
ENDSEC;
END-ISO-10303-21;
