ISO-10303-21;
HEADER;
/* Generated by software containing ST-Developer
 * from STEP Tools, Inc. (www.steptools.com) 
 */

FILE_DESCRIPTION(
/* description */ (''),
/* implementation_level */ '2;1');

FILE_NAME(
/* name */ '1010-2 - MACHINE 5.step',
/* time_stamp */ '2026-01-07T10:38:43-06:00',
/* author */ (''),
/* organization */ (''),
/* preprocessor_version */ 'ST-DEVELOPER v20.1',
/* originating_system */ 'Autodesk Translation Framework v14.24.0.0',
/* authorisation */ '');

FILE_SCHEMA (('AUTOMOTIVE_DESIGN { 1 0 10303 214 3 1 1 }'));
ENDSEC;

DATA;
#10=MECHANICAL_DESIGN_GEOMETRIC_PRESENTATION_REPRESENTATION('',(#13),#491);
#11=SHAPE_REPRESENTATION_RELATIONSHIP('SRR','None',#501,#12);
#12=ADVANCED_BREP_SHAPE_REPRESENTATION('',(#14),#490);
#13=STYLED_ITEM('',(#510),#14);
#14=MANIFOLD_SOLID_BREP('Body1',#266);
#15=TOROIDAL_SURFACE('',#297,0.655,0.03);
#16=FACE_BOUND('',#54,.T.);
#17=FACE_BOUND('',#57,.T.);
#18=FACE_BOUND('',#62,.T.);
#19=FACE_BOUND('',#70,.T.);
#20=FACE_BOUND('',#73,.T.);
#21=PLANE('',#286);
#22=PLANE('',#292);
#23=PLANE('',#301);
#24=PLANE('',#315);
#25=PLANE('',#319);
#26=CYLINDRICAL_SURFACE('',#284,0.625);
#27=CYLINDRICAL_SURFACE('',#294,0.83);
#28=CYLINDRICAL_SURFACE('',#303,0.3765);
#29=CYLINDRICAL_SURFACE('',#308,0.366499999999999);
#30=CYLINDRICAL_SURFACE('',#309,0.4535);
#31=CYLINDRICAL_SURFACE('',#313,0.4635);
#32=CYLINDRICAL_SURFACE('',#317,0.256);
#33=FACE_OUTER_BOUND('',#51,.T.);
#34=FACE_OUTER_BOUND('',#52,.T.);
#35=FACE_OUTER_BOUND('',#53,.T.);
#36=FACE_OUTER_BOUND('',#55,.T.);
#37=FACE_OUTER_BOUND('',#56,.T.);
#38=FACE_OUTER_BOUND('',#58,.T.);
#39=FACE_OUTER_BOUND('',#59,.T.);
#40=FACE_OUTER_BOUND('',#60,.T.);
#41=FACE_OUTER_BOUND('',#61,.T.);
#42=FACE_OUTER_BOUND('',#63,.T.);
#43=FACE_OUTER_BOUND('',#64,.T.);
#44=FACE_OUTER_BOUND('',#65,.T.);
#45=FACE_OUTER_BOUND('',#66,.T.);
#46=FACE_OUTER_BOUND('',#67,.T.);
#47=FACE_OUTER_BOUND('',#68,.T.);
#48=FACE_OUTER_BOUND('',#69,.T.);
#49=FACE_OUTER_BOUND('',#71,.T.);
#50=FACE_OUTER_BOUND('',#72,.T.);
#51=EDGE_LOOP('',(#175,#176,#177,#178,#179));
#52=EDGE_LOOP('',(#180,#181,#182,#183,#184));
#53=EDGE_LOOP('',(#185));
#54=EDGE_LOOP('',(#186));
#55=EDGE_LOOP('',(#187,#188,#189,#190,#191));
#56=EDGE_LOOP('',(#192));
#57=EDGE_LOOP('',(#193));
#58=EDGE_LOOP('',(#194,#195,#196,#197,#198,#199));
#59=EDGE_LOOP('',(#200,#201,#202,#203));
#60=EDGE_LOOP('',(#204,#205,#206,#207,#208));
#61=EDGE_LOOP('',(#209));
#62=EDGE_LOOP('',(#210));
#63=EDGE_LOOP('',(#211,#212,#213,#214));
#64=EDGE_LOOP('',(#215,#216,#217,#218));
#65=EDGE_LOOP('',(#219,#220,#221,#222));
#66=EDGE_LOOP('',(#223,#224,#225,#226));
#67=EDGE_LOOP('',(#227,#228,#229,#230));
#68=EDGE_LOOP('',(#231,#232,#233,#234));
#69=EDGE_LOOP('',(#235));
#70=EDGE_LOOP('',(#236));
#71=EDGE_LOOP('',(#237,#238,#239,#240));
#72=EDGE_LOOP('',(#241));
#73=EDGE_LOOP('',(#242));
#74=LINE('',#419,#86);
#75=LINE('',#425,#87);
#76=LINE('',#434,#88);
#77=LINE('',#443,#89);
#78=LINE('',#451,#90);
#79=LINE('',#460,#91);
#80=LINE('',#464,#92);
#81=LINE('',#467,#93);
#82=LINE('',#470,#94);
#83=LINE('',#474,#95);
#84=LINE('',#478,#96);
#85=LINE('',#485,#97);
#86=VECTOR('',#326,0.609);
#87=VECTOR('',#333,0.624999999999999);
#88=VECTOR('',#344,0.814);
#89=VECTOR('',#355,0.83);
#90=VECTOR('',#366,0.814);
#91=VECTOR('',#377,0.3765);
#92=VECTOR('',#382,0.371499999999999);
#93=VECTOR('',#387,0.3665);
#94=VECTOR('',#390,0.4535);
#95=VECTOR('',#395,0.4585);
#96=VECTOR('',#400,0.4635);
#97=VECTOR('',#409,0.256);
#98=CIRCLE('',#281,0.593);
#99=CIRCLE('',#282,0.625);
#100=CIRCLE('',#283,0.625);
#101=CIRCLE('',#285,0.625);
#102=CIRCLE('',#287,0.4535);
#103=CIRCLE('',#289,0.798);
#104=CIRCLE('',#290,0.83);
#105=CIRCLE('',#291,0.83);
#106=CIRCLE('',#293,0.655);
#107=CIRCLE('',#295,0.83);
#108=CIRCLE('',#296,0.83);
#109=CIRCLE('',#298,0.03);
#110=CIRCLE('',#300,0.798);
#111=CIRCLE('',#302,0.3665);
#112=CIRCLE('',#304,0.3765);
#113=CIRCLE('',#305,0.3765);
#114=CIRCLE('',#307,0.366499999999999);
#115=CIRCLE('',#310,0.4535);
#116=CIRCLE('',#312,0.4635);
#117=CIRCLE('',#314,0.4635);
#118=CIRCLE('',#316,0.256);
#119=CIRCLE('',#318,0.256);
#120=VERTEX_POINT('',#416);
#121=VERTEX_POINT('',#418);
#122=VERTEX_POINT('',#420);
#123=VERTEX_POINT('',#424);
#124=VERTEX_POINT('',#428);
#125=VERTEX_POINT('',#431);
#126=VERTEX_POINT('',#433);
#127=VERTEX_POINT('',#435);
#128=VERTEX_POINT('',#439);
#129=VERTEX_POINT('',#442);
#130=VERTEX_POINT('',#444);
#131=VERTEX_POINT('',#450);
#132=VERTEX_POINT('',#454);
#133=VERTEX_POINT('',#457);
#134=VERTEX_POINT('',#459);
#135=VERTEX_POINT('',#463);
#136=VERTEX_POINT('',#469);
#137=VERTEX_POINT('',#473);
#138=VERTEX_POINT('',#477);
#139=VERTEX_POINT('',#481);
#140=VERTEX_POINT('',#484);
#141=EDGE_CURVE('',#120,#120,#98,.T.);
#142=EDGE_CURVE('',#120,#121,#74,.T.);
#143=EDGE_CURVE('',#121,#122,#99,.T.);
#144=EDGE_CURVE('',#122,#121,#100,.T.);
#145=EDGE_CURVE('',#122,#123,#75,.T.);
#146=EDGE_CURVE('',#123,#123,#101,.T.);
#147=EDGE_CURVE('',#124,#124,#102,.T.);
#148=EDGE_CURVE('',#125,#125,#103,.T.);
#149=EDGE_CURVE('',#125,#126,#76,.T.);
#150=EDGE_CURVE('',#126,#127,#104,.T.);
#151=EDGE_CURVE('',#127,#126,#105,.T.);
#152=EDGE_CURVE('',#128,#128,#106,.T.);
#153=EDGE_CURVE('',#127,#129,#77,.T.);
#154=EDGE_CURVE('',#130,#129,#107,.T.);
#155=EDGE_CURVE('',#129,#130,#108,.T.);
#156=EDGE_CURVE('',#128,#123,#109,.T.);
#157=EDGE_CURVE('',#130,#131,#78,.T.);
#158=EDGE_CURVE('',#131,#131,#110,.T.);
#159=EDGE_CURVE('',#132,#132,#111,.T.);
#160=EDGE_CURVE('',#133,#133,#112,.T.);
#161=EDGE_CURVE('',#133,#134,#79,.T.);
#162=EDGE_CURVE('',#134,#134,#113,.T.);
#163=EDGE_CURVE('',#134,#135,#80,.T.);
#164=EDGE_CURVE('',#135,#135,#114,.T.);
#165=EDGE_CURVE('',#135,#132,#81,.T.);
#166=EDGE_CURVE('',#124,#136,#82,.T.);
#167=EDGE_CURVE('',#136,#136,#115,.T.);
#168=EDGE_CURVE('',#136,#137,#83,.T.);
#169=EDGE_CURVE('',#137,#137,#116,.T.);
#170=EDGE_CURVE('',#137,#138,#84,.T.);
#171=EDGE_CURVE('',#138,#138,#117,.T.);
#172=EDGE_CURVE('',#139,#139,#118,.T.);
#173=EDGE_CURVE('',#139,#140,#85,.T.);
#174=EDGE_CURVE('',#140,#140,#119,.T.);
#175=ORIENTED_EDGE('',*,*,#141,.T.);
#176=ORIENTED_EDGE('',*,*,#142,.T.);
#177=ORIENTED_EDGE('',*,*,#143,.T.);
#178=ORIENTED_EDGE('',*,*,#144,.T.);
#179=ORIENTED_EDGE('',*,*,#142,.F.);
#180=ORIENTED_EDGE('',*,*,#143,.F.);
#181=ORIENTED_EDGE('',*,*,#144,.F.);
#182=ORIENTED_EDGE('',*,*,#145,.T.);
#183=ORIENTED_EDGE('',*,*,#146,.F.);
#184=ORIENTED_EDGE('',*,*,#145,.F.);
#185=ORIENTED_EDGE('',*,*,#141,.F.);
#186=ORIENTED_EDGE('',*,*,#147,.F.);
#187=ORIENTED_EDGE('',*,*,#148,.T.);
#188=ORIENTED_EDGE('',*,*,#149,.T.);
#189=ORIENTED_EDGE('',*,*,#150,.T.);
#190=ORIENTED_EDGE('',*,*,#151,.T.);
#191=ORIENTED_EDGE('',*,*,#149,.F.);
#192=ORIENTED_EDGE('',*,*,#148,.F.);
#193=ORIENTED_EDGE('',*,*,#152,.F.);
#194=ORIENTED_EDGE('',*,*,#150,.F.);
#195=ORIENTED_EDGE('',*,*,#151,.F.);
#196=ORIENTED_EDGE('',*,*,#153,.T.);
#197=ORIENTED_EDGE('',*,*,#154,.F.);
#198=ORIENTED_EDGE('',*,*,#155,.F.);
#199=ORIENTED_EDGE('',*,*,#153,.F.);
#200=ORIENTED_EDGE('',*,*,#152,.T.);
#201=ORIENTED_EDGE('',*,*,#156,.T.);
#202=ORIENTED_EDGE('',*,*,#146,.T.);
#203=ORIENTED_EDGE('',*,*,#156,.F.);
#204=ORIENTED_EDGE('',*,*,#154,.T.);
#205=ORIENTED_EDGE('',*,*,#155,.T.);
#206=ORIENTED_EDGE('',*,*,#157,.T.);
#207=ORIENTED_EDGE('',*,*,#158,.T.);
#208=ORIENTED_EDGE('',*,*,#157,.F.);
#209=ORIENTED_EDGE('',*,*,#158,.F.);
#210=ORIENTED_EDGE('',*,*,#159,.T.);
#211=ORIENTED_EDGE('',*,*,#160,.T.);
#212=ORIENTED_EDGE('',*,*,#161,.T.);
#213=ORIENTED_EDGE('',*,*,#162,.F.);
#214=ORIENTED_EDGE('',*,*,#161,.F.);
#215=ORIENTED_EDGE('',*,*,#162,.T.);
#216=ORIENTED_EDGE('',*,*,#163,.T.);
#217=ORIENTED_EDGE('',*,*,#164,.F.);
#218=ORIENTED_EDGE('',*,*,#163,.F.);
#219=ORIENTED_EDGE('',*,*,#164,.T.);
#220=ORIENTED_EDGE('',*,*,#165,.T.);
#221=ORIENTED_EDGE('',*,*,#159,.F.);
#222=ORIENTED_EDGE('',*,*,#165,.F.);
#223=ORIENTED_EDGE('',*,*,#147,.T.);
#224=ORIENTED_EDGE('',*,*,#166,.T.);
#225=ORIENTED_EDGE('',*,*,#167,.F.);
#226=ORIENTED_EDGE('',*,*,#166,.F.);
#227=ORIENTED_EDGE('',*,*,#167,.T.);
#228=ORIENTED_EDGE('',*,*,#168,.T.);
#229=ORIENTED_EDGE('',*,*,#169,.F.);
#230=ORIENTED_EDGE('',*,*,#168,.F.);
#231=ORIENTED_EDGE('',*,*,#169,.T.);
#232=ORIENTED_EDGE('',*,*,#170,.T.);
#233=ORIENTED_EDGE('',*,*,#171,.F.);
#234=ORIENTED_EDGE('',*,*,#170,.F.);
#235=ORIENTED_EDGE('',*,*,#171,.T.);
#236=ORIENTED_EDGE('',*,*,#172,.F.);
#237=ORIENTED_EDGE('',*,*,#172,.T.);
#238=ORIENTED_EDGE('',*,*,#173,.T.);
#239=ORIENTED_EDGE('',*,*,#174,.F.);
#240=ORIENTED_EDGE('',*,*,#173,.F.);
#241=ORIENTED_EDGE('',*,*,#160,.F.);
#242=ORIENTED_EDGE('',*,*,#174,.T.);
#243=CONICAL_SURFACE('',#280,0.609,0.785398163397436);
#244=CONICAL_SURFACE('',#288,0.814,0.785398163397437);
#245=CONICAL_SURFACE('',#299,0.814,0.785398163397451);
#246=CONICAL_SURFACE('',#306,0.371499999999999,0.069813170079281);
#247=CONICAL_SURFACE('',#311,0.4585,0.0698131700799029);
#248=ADVANCED_FACE('',(#33),#243,.T.);
#249=ADVANCED_FACE('',(#34),#26,.T.);
#250=ADVANCED_FACE('',(#35,#16),#21,.T.);
#251=ADVANCED_FACE('',(#36),#244,.T.);
#252=ADVANCED_FACE('',(#37,#17),#22,.T.);
#253=ADVANCED_FACE('',(#38),#27,.T.);
#254=ADVANCED_FACE('',(#39),#15,.F.);
#255=ADVANCED_FACE('',(#40),#245,.T.);
#256=ADVANCED_FACE('',(#41,#18),#23,.T.);
#257=ADVANCED_FACE('',(#42),#28,.F.);
#258=ADVANCED_FACE('',(#43),#246,.F.);
#259=ADVANCED_FACE('',(#44),#29,.F.);
#260=ADVANCED_FACE('',(#45),#30,.F.);
#261=ADVANCED_FACE('',(#46),#247,.F.);
#262=ADVANCED_FACE('',(#47),#31,.F.);
#263=ADVANCED_FACE('',(#48,#19),#24,.T.);
#264=ADVANCED_FACE('',(#49),#32,.F.);
#265=ADVANCED_FACE('',(#50,#20),#25,.T.);
#266=CLOSED_SHELL('',(#248,#249,#250,#251,#252,#253,#254,#255,#256,#257,
#258,#259,#260,#261,#262,#263,#264,#265));
#267=DERIVED_UNIT_ELEMENT(#269,1.);
#268=DERIVED_UNIT_ELEMENT(#495,-3.);
#269=(
MASS_UNIT()
NAMED_UNIT(*)
SI_UNIT(.KILO.,.GRAM.)
);
#270=DERIVED_UNIT((#267,#268));
#271=MEASURE_REPRESENTATION_ITEM('density measure',
POSITIVE_RATIO_MEASURE(7850.),#270);
#272=PROPERTY_DEFINITION_REPRESENTATION(#277,#274);
#273=PROPERTY_DEFINITION_REPRESENTATION(#278,#275);
#274=REPRESENTATION('material name',(#276),#490);
#275=REPRESENTATION('density',(#271),#490);
#276=DESCRIPTIVE_REPRESENTATION_ITEM('Steel','Steel');
#277=PROPERTY_DEFINITION('material property','material name',#503);
#278=PROPERTY_DEFINITION('material property','density of part',#503);
#279=AXIS2_PLACEMENT_3D('',#414,#320,#321);
#280=AXIS2_PLACEMENT_3D('',#415,#322,#323);
#281=AXIS2_PLACEMENT_3D('',#417,#324,#325);
#282=AXIS2_PLACEMENT_3D('',#421,#327,#328);
#283=AXIS2_PLACEMENT_3D('',#422,#329,#330);
#284=AXIS2_PLACEMENT_3D('',#423,#331,#332);
#285=AXIS2_PLACEMENT_3D('',#426,#334,#335);
#286=AXIS2_PLACEMENT_3D('',#427,#336,#337);
#287=AXIS2_PLACEMENT_3D('',#429,#338,#339);
#288=AXIS2_PLACEMENT_3D('',#430,#340,#341);
#289=AXIS2_PLACEMENT_3D('',#432,#342,#343);
#290=AXIS2_PLACEMENT_3D('',#436,#345,#346);
#291=AXIS2_PLACEMENT_3D('',#437,#347,#348);
#292=AXIS2_PLACEMENT_3D('',#438,#349,#350);
#293=AXIS2_PLACEMENT_3D('',#440,#351,#352);
#294=AXIS2_PLACEMENT_3D('',#441,#353,#354);
#295=AXIS2_PLACEMENT_3D('',#445,#356,#357);
#296=AXIS2_PLACEMENT_3D('',#446,#358,#359);
#297=AXIS2_PLACEMENT_3D('',#447,#360,#361);
#298=AXIS2_PLACEMENT_3D('',#448,#362,#363);
#299=AXIS2_PLACEMENT_3D('',#449,#364,#365);
#300=AXIS2_PLACEMENT_3D('',#452,#367,#368);
#301=AXIS2_PLACEMENT_3D('',#453,#369,#370);
#302=AXIS2_PLACEMENT_3D('',#455,#371,#372);
#303=AXIS2_PLACEMENT_3D('',#456,#373,#374);
#304=AXIS2_PLACEMENT_3D('',#458,#375,#376);
#305=AXIS2_PLACEMENT_3D('',#461,#378,#379);
#306=AXIS2_PLACEMENT_3D('',#462,#380,#381);
#307=AXIS2_PLACEMENT_3D('',#465,#383,#384);
#308=AXIS2_PLACEMENT_3D('',#466,#385,#386);
#309=AXIS2_PLACEMENT_3D('',#468,#388,#389);
#310=AXIS2_PLACEMENT_3D('',#471,#391,#392);
#311=AXIS2_PLACEMENT_3D('',#472,#393,#394);
#312=AXIS2_PLACEMENT_3D('',#475,#396,#397);
#313=AXIS2_PLACEMENT_3D('',#476,#398,#399);
#314=AXIS2_PLACEMENT_3D('',#479,#401,#402);
#315=AXIS2_PLACEMENT_3D('',#480,#403,#404);
#316=AXIS2_PLACEMENT_3D('',#482,#405,#406);
#317=AXIS2_PLACEMENT_3D('',#483,#407,#408);
#318=AXIS2_PLACEMENT_3D('',#486,#410,#411);
#319=AXIS2_PLACEMENT_3D('',#487,#412,#413);
#320=DIRECTION('axis',(0.,0.,1.));
#321=DIRECTION('refdir',(1.,0.,0.));
#322=DIRECTION('center_axis',(0.,0.,-1.));
#323=DIRECTION('ref_axis',(-1.,0.,0.));
#324=DIRECTION('center_axis',(0.,0.,-1.));
#325=DIRECTION('ref_axis',(-1.,0.,0.));
#326=DIRECTION('',(0.707106781186539,8.65956056235483E-17,-0.707106781186556));
#327=DIRECTION('center_axis',(0.,0.,1.));
#328=DIRECTION('ref_axis',(-1.,0.,0.));
#329=DIRECTION('center_axis',(0.,0.,1.));
#330=DIRECTION('ref_axis',(-1.,0.,0.));
#331=DIRECTION('center_axis',(0.,0.,1.));
#332=DIRECTION('ref_axis',(1.,0.,0.));
#333=DIRECTION('',(0.,0.,-1.));
#334=DIRECTION('center_axis',(0.,0.,-1.));
#335=DIRECTION('ref_axis',(-1.,1.22464679914735E-16,0.));
#336=DIRECTION('center_axis',(0.,0.,1.));
#337=DIRECTION('ref_axis',(1.,0.,0.));
#338=DIRECTION('center_axis',(0.,0.,1.));
#339=DIRECTION('ref_axis',(1.,0.,0.));
#340=DIRECTION('center_axis',(0.,0.,-1.));
#341=DIRECTION('ref_axis',(-1.,0.,0.));
#342=DIRECTION('center_axis',(0.,0.,-1.));
#343=DIRECTION('ref_axis',(-1.,0.,0.));
#344=DIRECTION('',(0.70710678118654,8.65956056235484E-17,-0.707106781186555));
#345=DIRECTION('center_axis',(0.,0.,1.));
#346=DIRECTION('ref_axis',(-1.,0.,0.));
#347=DIRECTION('center_axis',(0.,0.,1.));
#348=DIRECTION('ref_axis',(-1.,0.,0.));
#349=DIRECTION('center_axis',(0.,0.,1.));
#350=DIRECTION('ref_axis',(1.,0.,0.));
#351=DIRECTION('center_axis',(0.,0.,1.));
#352=DIRECTION('ref_axis',(-1.,1.22464679914735E-16,0.));
#353=DIRECTION('center_axis',(0.,0.,1.));
#354=DIRECTION('ref_axis',(1.,0.,0.));
#355=DIRECTION('',(0.,0.,-1.));
#356=DIRECTION('center_axis',(0.,0.,-1.));
#357=DIRECTION('ref_axis',(-1.,0.,0.));
#358=DIRECTION('center_axis',(0.,0.,-1.));
#359=DIRECTION('ref_axis',(-1.,0.,0.));
#360=DIRECTION('center_axis',(0.,0.,1.));
#361=DIRECTION('ref_axis',(1.,0.,0.));
#362=DIRECTION('center_axis',(1.22464679914735E-16,-1.,0.));
#363=DIRECTION('ref_axis',(-1.,-1.22464679914735E-16,0.));
#364=DIRECTION('center_axis',(0.,0.,1.));
#365=DIRECTION('ref_axis',(-1.,0.,0.));
#366=DIRECTION('',(-0.707106781186549,-8.65956056235496E-17,-0.707106781186546));
#367=DIRECTION('center_axis',(0.,0.,1.));
#368=DIRECTION('ref_axis',(-1.,0.,0.));
#369=DIRECTION('center_axis',(0.,0.,-1.));
#370=DIRECTION('ref_axis',(-1.,0.,0.));
#371=DIRECTION('center_axis',(0.,0.,1.));
#372=DIRECTION('ref_axis',(1.,0.,0.));
#373=DIRECTION('center_axis',(0.,0.,1.));
#374=DIRECTION('ref_axis',(1.,0.,0.));
#375=DIRECTION('center_axis',(0.,0.,1.));
#376=DIRECTION('ref_axis',(1.,0.,0.));
#377=DIRECTION('',(0.,0.,-1.));
#378=DIRECTION('center_axis',(0.,0.,1.));
#379=DIRECTION('ref_axis',(1.,0.,0.));
#380=DIRECTION('center_axis',(0.,0.,1.));
#381=DIRECTION('ref_axis',(1.,0.,0.));
#382=DIRECTION('',(0.0697564737436343,8.54270422899481E-18,-0.997564050259859));
#383=DIRECTION('center_axis',(0.,0.,1.));
#384=DIRECTION('ref_axis',(1.,0.,0.));
#385=DIRECTION('center_axis',(0.,0.,1.));
#386=DIRECTION('ref_axis',(1.,0.,0.));
#387=DIRECTION('',(0.,0.,-1.));
#388=DIRECTION('center_axis',(0.,0.,1.));
#389=DIRECTION('ref_axis',(1.,0.,0.));
#390=DIRECTION('',(0.,0.,-1.));
#391=DIRECTION('center_axis',(0.,0.,1.));
#392=DIRECTION('ref_axis',(1.,0.,0.));
#393=DIRECTION('center_axis',(0.,0.,-1.));
#394=DIRECTION('ref_axis',(1.,0.,0.));
#395=DIRECTION('',(-0.0697564737442547,-8.54270422907079E-18,-0.997564050259815));
#396=DIRECTION('center_axis',(0.,0.,1.));
#397=DIRECTION('ref_axis',(1.,0.,0.));
#398=DIRECTION('center_axis',(0.,0.,1.));
#399=DIRECTION('ref_axis',(1.,0.,0.));
#400=DIRECTION('',(0.,0.,-1.));
#401=DIRECTION('center_axis',(0.,0.,1.));
#402=DIRECTION('ref_axis',(1.,0.,0.));
#403=DIRECTION('center_axis',(0.,0.,1.));
#404=DIRECTION('ref_axis',(1.,0.,0.));
#405=DIRECTION('center_axis',(0.,0.,1.));
#406=DIRECTION('ref_axis',(1.,0.,0.));
#407=DIRECTION('center_axis',(0.,0.,1.));
#408=DIRECTION('ref_axis',(1.,0.,0.));
#409=DIRECTION('',(0.,0.,-1.));
#410=DIRECTION('center_axis',(0.,0.,1.));
#411=DIRECTION('ref_axis',(1.,0.,0.));
#412=DIRECTION('center_axis',(0.,0.,-1.));
#413=DIRECTION('ref_axis',(-1.,0.,0.));
#414=CARTESIAN_POINT('',(0.,0.,0.));
#415=CARTESIAN_POINT('Origin',(0.,0.,-0.0160000000000002));
#416=CARTESIAN_POINT('',(0.593,-7.2621555189438E-17,0.));
#417=CARTESIAN_POINT('Origin',(0.,0.,0.));
#418=CARTESIAN_POINT('',(0.625,7.65404249467095E-17,-0.0320000000000004));
#419=CARTESIAN_POINT('',(0.609,7.45809900680738E-17,-0.0160000000000002));
#420=CARTESIAN_POINT('',(-0.625,-7.65404249467095E-17,-0.0320000000000004));
#421=CARTESIAN_POINT('Origin',(0.,0.,-0.0320000000000004));
#422=CARTESIAN_POINT('Origin',(0.,0.,-0.0320000000000004));
#423=CARTESIAN_POINT('Origin',(0.,0.,-1.0375));
#424=CARTESIAN_POINT('',(-0.625,-7.65404249467095E-17,-2.045));
#425=CARTESIAN_POINT('',(-0.625,-7.65404249467095E-17,-1.0375));
#426=CARTESIAN_POINT('Origin',(0.,0.,-2.045));
#427=CARTESIAN_POINT('Origin',(0.4535,0.,0.));
#428=CARTESIAN_POINT('',(-0.4535,-5.55377323413325E-17,-4.37095678986282E-17));
#429=CARTESIAN_POINT('Origin',(0.,0.,0.));
#430=CARTESIAN_POINT('Origin',(0.,0.,-2.091));
#431=CARTESIAN_POINT('',(0.798,-9.77268145719588E-17,-2.075));
#432=CARTESIAN_POINT('Origin',(0.,0.,-2.075));
#433=CARTESIAN_POINT('',(0.83,1.0164568432923E-16,-2.107));
#434=CARTESIAN_POINT('',(0.814,9.96862494505946E-17,-2.091));
#435=CARTESIAN_POINT('',(-0.83,-1.0164568432923E-16,-2.107));
#436=CARTESIAN_POINT('Origin',(0.,0.,-2.107));
#437=CARTESIAN_POINT('Origin',(0.,0.,-2.107));
#438=CARTESIAN_POINT('Origin',(0.624999999999999,0.,-2.075));
#439=CARTESIAN_POINT('',(-0.655,-8.02143653441516E-17,-2.075));
#440=CARTESIAN_POINT('Origin',(0.,0.,-2.075));
#441=CARTESIAN_POINT('Origin',(0.,0.,-2.29));
#442=CARTESIAN_POINT('',(-0.83,-1.0164568432923E-16,-2.473));
#443=CARTESIAN_POINT('',(-0.83,-1.0164568432923E-16,-2.29));
#444=CARTESIAN_POINT('',(0.83,-1.0164568432923E-16,-2.473));
#445=CARTESIAN_POINT('Origin',(0.,0.,-2.473));
#446=CARTESIAN_POINT('Origin',(0.,0.,-2.473));
#447=CARTESIAN_POINT('Origin',(0.,0.,-2.045));
#448=CARTESIAN_POINT('Origin',(-0.655,-8.02143653441516E-17,-2.045));
#449=CARTESIAN_POINT('Origin',(0.,0.,-2.489));
#450=CARTESIAN_POINT('',(0.798,9.77268145719588E-17,-2.505));
#451=CARTESIAN_POINT('',(0.814,9.96862494505946E-17,-2.489));
#452=CARTESIAN_POINT('Origin',(0.,0.,-2.505));
#453=CARTESIAN_POINT('Origin',(0.83,0.,-2.505));
#454=CARTESIAN_POINT('',(-0.366499999999999,-4.48833051887504E-17,-2.505));
#455=CARTESIAN_POINT('Origin',(0.,0.,-2.505));
#456=CARTESIAN_POINT('Origin',(0.,0.,-1.805));
#457=CARTESIAN_POINT('',(-0.3765,-4.61079519878979E-17,-1.755));
#458=CARTESIAN_POINT('Origin',(0.,0.,-1.755));
#459=CARTESIAN_POINT('',(-0.3765,-4.61079519878979E-17,-1.855));
#460=CARTESIAN_POINT('',(-0.3765,-4.61079519878979E-17,-1.805));
#461=CARTESIAN_POINT('Origin',(0.,0.,-1.855));
#462=CARTESIAN_POINT('Origin',(0.,0.,-1.92650333128407));
#463=CARTESIAN_POINT('',(-0.366499999999999,-4.48833051887504E-17,-1.99800666256815));
#464=CARTESIAN_POINT('',(-0.371499999999999,-4.54956285883241E-17,-1.92650333128407));
#465=CARTESIAN_POINT('Origin',(0.,0.,-1.99800666256815));
#466=CARTESIAN_POINT('Origin',(0.,0.,-2.25150333128407));
#467=CARTESIAN_POINT('',(-0.366499999999999,-4.48833051887504E-17,-2.25150333128407));
#468=CARTESIAN_POINT('Origin',(0.,0.,-0.378496668716572));
#469=CARTESIAN_POINT('',(-0.4535,-5.55377323413325E-17,-0.756993337433144));
#470=CARTESIAN_POINT('',(-0.4535,-5.55377323413325E-17,-0.378496668716572));
#471=CARTESIAN_POINT('Origin',(0.,0.,-0.756993337433144));
#472=CARTESIAN_POINT('Origin',(0.,0.,-0.828496668716572));
#473=CARTESIAN_POINT('',(-0.4635,-5.67623791404799E-17,-0.9));
#474=CARTESIAN_POINT('',(-0.4585,-5.61500557409062E-17,-0.828496668716572));
#475=CARTESIAN_POINT('Origin',(0.,0.,-0.9));
#476=CARTESIAN_POINT('Origin',(0.,0.,-0.95));
#477=CARTESIAN_POINT('',(-0.4635,-5.67623791404799E-17,-1.));
#478=CARTESIAN_POINT('',(-0.4635,-5.67623791404799E-17,-0.95));
#479=CARTESIAN_POINT('Origin',(0.,0.,-1.));
#480=CARTESIAN_POINT('Origin',(0.256,0.,-1.));
#481=CARTESIAN_POINT('',(-0.256,-3.13509580581722E-17,-1.));
#482=CARTESIAN_POINT('Origin',(0.,0.,-1.));
#483=CARTESIAN_POINT('Origin',(0.,0.,-1.3775));
#484=CARTESIAN_POINT('',(-0.256,-3.13509580581722E-17,-1.755));
#485=CARTESIAN_POINT('',(-0.256,-3.13509580581722E-17,-1.3775));
#486=CARTESIAN_POINT('Origin',(0.,0.,-1.755));
#487=CARTESIAN_POINT('Origin',(0.3765,0.,-1.755));
#488=UNCERTAINTY_MEASURE_WITH_UNIT(LENGTH_MEASURE(0.000393700787401575),
#493,'DISTANCE_ACCURACY_VALUE',
'Maximum model space distance between geometric entities at asserted c
onnectivities');
#489=UNCERTAINTY_MEASURE_WITH_UNIT(LENGTH_MEASURE(0.000393700787401575),
#493,'DISTANCE_ACCURACY_VALUE',
'Maximum model space distance between geometric entities at asserted c
onnectivities');
#490=(
GEOMETRIC_REPRESENTATION_CONTEXT(3)
GLOBAL_UNCERTAINTY_ASSIGNED_CONTEXT((#488))
GLOBAL_UNIT_ASSIGNED_CONTEXT((#493,#497,#498))
REPRESENTATION_CONTEXT('','3D')
);
#491=(
GEOMETRIC_REPRESENTATION_CONTEXT(3)
GLOBAL_UNCERTAINTY_ASSIGNED_CONTEXT((#489))
GLOBAL_UNIT_ASSIGNED_CONTEXT((#493,#497,#498))
REPRESENTATION_CONTEXT('','3D')
);
#492=DIMENSIONAL_EXPONENTS(1.,0.,0.,0.,0.,0.,0.);
#493=(
CONVERSION_BASED_UNIT('inch',#496)
LENGTH_UNIT()
NAMED_UNIT(#492)
);
#494=(
LENGTH_UNIT()
NAMED_UNIT(*)
SI_UNIT(.MILLI.,.METRE.)
);
#495=(
LENGTH_UNIT()
NAMED_UNIT(*)
SI_UNIT($,.METRE.)
);
#496=LENGTH_MEASURE_WITH_UNIT(LENGTH_MEASURE(25.4),#494);
#497=(
NAMED_UNIT(*)
PLANE_ANGLE_UNIT()
SI_UNIT($,.RADIAN.)
);
#498=(
NAMED_UNIT(*)
SI_UNIT($,.STERADIAN.)
SOLID_ANGLE_UNIT()
);
#499=SHAPE_DEFINITION_REPRESENTATION(#500,#501);
#500=PRODUCT_DEFINITION_SHAPE('',$,#503);
#501=SHAPE_REPRESENTATION('',(#279),#490);
#502=PRODUCT_DEFINITION_CONTEXT('part definition',#507,'design');
#503=PRODUCT_DEFINITION('1010-2 - MACHINE 5','1010-2 - MACHINE 5 v5',#504,
#502);
#504=PRODUCT_DEFINITION_FORMATION('',$,#509);
#505=PRODUCT_RELATED_PRODUCT_CATEGORY('1010-2 - MACHINE 5 v5',
'1010-2 - MACHINE 5 v5',(#509));
#506=APPLICATION_PROTOCOL_DEFINITION('international standard',
'automotive_design',2009,#507);
#507=APPLICATION_CONTEXT(
'Core Data for Automotive Mechanical Design Process');
#508=PRODUCT_CONTEXT('part definition',#507,'mechanical');
#509=PRODUCT('1010-2 - MACHINE 5','1010-2 - MACHINE 5 v5',$,(#508));
#510=PRESENTATION_STYLE_ASSIGNMENT((#511));
#511=SURFACE_STYLE_USAGE(.BOTH.,#512);
#512=SURFACE_SIDE_STYLE('',(#513));
#513=SURFACE_STYLE_FILL_AREA(#514);
#514=FILL_AREA_STYLE('Steel - Satin',(#515));
#515=FILL_AREA_STYLE_COLOUR('Steel - Satin',#516);
#516=COLOUR_RGB('Steel - Satin',0.627450980392157,0.627450980392157,0.627450980392157);
ENDSEC;
END-ISO-10303-21;
