ISO-10303-21;
HEADER;
/* Generated by software containing ST-Developer
 * from STEP Tools, Inc. (www.steptools.com) 
 */

FILE_DESCRIPTION(
/* description */ (''),
/* implementation_level */ '2;1');

FILE_NAME(
/* name */ '121L029853 JAWS - HURCO.step',
/* time_stamp */ '2026-01-07T10:36:34-06:00',
/* author */ (''),
/* organization */ (''),
/* preprocessor_version */ 'ST-DEVELOPER v20.1',
/* originating_system */ 'Autodesk Translation Framework v14.24.0.0',
/* authorisation */ '');

FILE_SCHEMA (('AUTOMOTIVE_DESIGN { 1 0 10303 214 3 1 1 }'));
ENDSEC;

DATA;
#10=MECHANICAL_DESIGN_GEOMETRIC_PRESENTATION_REPRESENTATION('',(#13),#702);
#11=SHAPE_REPRESENTATION_RELATIONSHIP('SRR','None',#712,#12);
#12=ADVANCED_BREP_SHAPE_REPRESENTATION('',(#14),#701);
#13=STYLED_ITEM('',(#721),#14);
#14=MANIFOLD_SOLID_BREP('Body1',#399);
#15=FACE_BOUND('',#65,.T.);
#16=TOROIDAL_SURFACE('',#433,0.255905511811024,0.0196850393700787);
#17=TOROIDAL_SURFACE('',#453,0.315590551181102,0.04);
#18=PLANE('',#422);
#19=PLANE('',#426);
#20=PLANE('',#440);
#21=PLANE('',#441);
#22=PLANE('',#445);
#23=PLANE('',#448);
#24=PLANE('',#449);
#25=PLANE('',#452);
#26=PLANE('',#455);
#27=PLANE('',#456);
#28=PLANE('',#457);
#29=FACE_OUTER_BOUND('',#51,.T.);
#30=FACE_OUTER_BOUND('',#52,.T.);
#31=FACE_OUTER_BOUND('',#53,.T.);
#32=FACE_OUTER_BOUND('',#54,.T.);
#33=FACE_OUTER_BOUND('',#55,.T.);
#34=FACE_OUTER_BOUND('',#56,.T.);
#35=FACE_OUTER_BOUND('',#57,.T.);
#36=FACE_OUTER_BOUND('',#58,.T.);
#37=FACE_OUTER_BOUND('',#59,.T.);
#38=FACE_OUTER_BOUND('',#60,.T.);
#39=FACE_OUTER_BOUND('',#61,.T.);
#40=FACE_OUTER_BOUND('',#62,.T.);
#41=FACE_OUTER_BOUND('',#63,.T.);
#42=FACE_OUTER_BOUND('',#64,.T.);
#43=FACE_OUTER_BOUND('',#66,.T.);
#44=FACE_OUTER_BOUND('',#67,.T.);
#45=FACE_OUTER_BOUND('',#68,.T.);
#46=FACE_OUTER_BOUND('',#69,.T.);
#47=FACE_OUTER_BOUND('',#70,.T.);
#48=FACE_OUTER_BOUND('',#71,.T.);
#49=FACE_OUTER_BOUND('',#72,.T.);
#50=FACE_OUTER_BOUND('',#73,.T.);
#51=EDGE_LOOP('',(#256,#257,#258,#259));
#52=EDGE_LOOP('',(#260,#261,#262,#263));
#53=EDGE_LOOP('',(#264,#265,#266,#267));
#54=EDGE_LOOP('',(#268,#269,#270,#271));
#55=EDGE_LOOP('',(#272,#273,#274,#275));
#56=EDGE_LOOP('',(#276,#277,#278,#279));
#57=EDGE_LOOP('',(#280,#281,#282,#283));
#58=EDGE_LOOP('',(#284,#285,#286,#287));
#59=EDGE_LOOP('',(#288,#289,#290,#291,#292));
#60=EDGE_LOOP('',(#293,#294,#295,#296,#297));
#61=EDGE_LOOP('',(#298));
#62=EDGE_LOOP('',(#299,#300,#301,#302));
#63=EDGE_LOOP('',(#303,#304,#305,#306));
#64=EDGE_LOOP('',(#307,#308,#309,#310,#311,#312,#313,#314,#315,#316,#317,
#318,#319,#320,#321,#322));
#65=EDGE_LOOP('',(#323));
#66=EDGE_LOOP('',(#324,#325,#326,#327));
#67=EDGE_LOOP('',(#328,#329,#330,#331));
#68=EDGE_LOOP('',(#332,#333,#334,#335));
#69=EDGE_LOOP('',(#336,#337,#338,#339));
#70=EDGE_LOOP('',(#340,#341,#342,#343));
#71=EDGE_LOOP('',(#344,#345,#346,#347));
#72=EDGE_LOOP('',(#348,#349,#350,#351));
#73=EDGE_LOOP('',(#352,#353,#354,#355,#356,#357,#358,#359,#360,#361,#362,
#363,#364,#365,#366,#367));
#74=LINE('',#589,#107);
#75=LINE('',#592,#108);
#76=LINE('',#597,#109);
#77=LINE('',#603,#110);
#78=LINE('',#607,#111);
#79=LINE('',#609,#112);
#80=LINE('',#610,#113);
#81=LINE('',#616,#114);
#82=LINE('',#619,#115);
#83=LINE('',#622,#116);
#84=LINE('',#624,#117);
#85=LINE('',#625,#118);
#86=LINE('',#631,#119);
#87=LINE('',#634,#120);
#88=LINE('',#648,#121);
#89=LINE('',#654,#122);
#90=LINE('',#656,#123);
#91=LINE('',#658,#124);
#92=LINE('',#659,#125);
#93=LINE('',#664,#126);
#94=LINE('',#667,#127);
#95=LINE('',#669,#128);
#96=LINE('',#673,#129);
#97=LINE('',#674,#130);
#98=LINE('',#675,#131);
#99=LINE('',#679,#132);
#100=LINE('',#682,#133);
#101=LINE('',#683,#134);
#102=LINE('',#687,#135);
#103=LINE('',#690,#136);
#104=LINE('',#691,#137);
#105=LINE('',#695,#138);
#106=LINE('',#697,#139);
#107=VECTOR('',#464,0.393700787401575);
#108=VECTOR('',#467,0.393700787401575);
#109=VECTOR('',#472,0.393700787401575);
#110=VECTOR('',#479,0.393700787401575);
#111=VECTOR('',#484,0.393700787401575);
#112=VECTOR('',#485,0.393700787401575);
#113=VECTOR('',#486,0.393700787401575);
#114=VECTOR('',#491,0.393700787401575);
#115=VECTOR('',#494,0.393700787401575);
#116=VECTOR('',#497,0.393700787401575);
#117=VECTOR('',#498,0.393700787401575);
#118=VECTOR('',#499,0.393700787401575);
#119=VECTOR('',#504,0.393700787401575);
#120=VECTOR('',#507,0.393700787401575);
#121=VECTOR('',#526,0.275590551181102);
#122=VECTOR('',#533,0.393700787401575);
#123=VECTOR('',#534,0.393700787401575);
#124=VECTOR('',#535,0.393700787401575);
#125=VECTOR('',#536,0.393700787401575);
#126=VECTOR('',#541,0.393700787401575);
#127=VECTOR('',#546,0.393700787401575);
#128=VECTOR('',#547,0.393700787401575);
#129=VECTOR('',#550,0.393700787401575);
#130=VECTOR('',#551,0.393700787401575);
#131=VECTOR('',#552,0.393700787401575);
#132=VECTOR('',#557,0.393700787401575);
#133=VECTOR('',#560,0.393700787401575);
#134=VECTOR('',#561,0.393700787401575);
#135=VECTOR('',#566,0.393700787401575);
#136=VECTOR('',#569,0.393700787401575);
#137=VECTOR('',#570,0.393700787401575);
#138=VECTOR('',#577,0.393700787401575);
#139=VECTOR('',#580,0.393700787401575);
#140=CIRCLE('',#414,0.13);
#141=CIRCLE('',#415,0.13);
#142=CIRCLE('',#417,0.449409448818898);
#143=CIRCLE('',#418,0.449409448818898);
#144=CIRCLE('',#420,0.13);
#145=CIRCLE('',#421,0.13);
#146=CIRCLE('',#424,0.13);
#147=CIRCLE('',#425,0.13);
#148=CIRCLE('',#428,0.13);
#149=CIRCLE('',#429,0.13);
#150=CIRCLE('',#431,0.449409448818898);
#151=CIRCLE('',#432,0.449409448818898);
#152=CIRCLE('',#434,0.255905511811024);
#153=CIRCLE('',#435,0.0196850393700787);
#154=CIRCLE('',#436,0.275590551181102);
#155=CIRCLE('',#437,0.275590551181102);
#156=CIRCLE('',#439,0.275590551181102);
#157=CIRCLE('',#443,1.49606299212598);
#158=CIRCLE('',#444,1.49606299212598);
#159=CIRCLE('',#446,1.49606299212598);
#160=CIRCLE('',#447,0.315590551181102);
#161=CIRCLE('',#451,1.49606299212598);
#162=CIRCLE('',#454,0.04);
#163=VERTEX_POINT('',#585);
#164=VERTEX_POINT('',#586);
#165=VERTEX_POINT('',#588);
#166=VERTEX_POINT('',#590);
#167=VERTEX_POINT('',#594);
#168=VERTEX_POINT('',#596);
#169=VERTEX_POINT('',#600);
#170=VERTEX_POINT('',#602);
#171=VERTEX_POINT('',#606);
#172=VERTEX_POINT('',#608);
#173=VERTEX_POINT('',#612);
#174=VERTEX_POINT('',#613);
#175=VERTEX_POINT('',#615);
#176=VERTEX_POINT('',#617);
#177=VERTEX_POINT('',#621);
#178=VERTEX_POINT('',#623);
#179=VERTEX_POINT('',#627);
#180=VERTEX_POINT('',#628);
#181=VERTEX_POINT('',#630);
#182=VERTEX_POINT('',#632);
#183=VERTEX_POINT('',#639);
#184=VERTEX_POINT('',#641);
#185=VERTEX_POINT('',#643);
#186=VERTEX_POINT('',#647);
#187=VERTEX_POINT('',#652);
#188=VERTEX_POINT('',#653);
#189=VERTEX_POINT('',#655);
#190=VERTEX_POINT('',#657);
#191=VERTEX_POINT('',#661);
#192=VERTEX_POINT('',#663);
#193=VERTEX_POINT('',#668);
#194=VERTEX_POINT('',#670);
#195=VERTEX_POINT('',#672);
#196=VERTEX_POINT('',#676);
#197=VERTEX_POINT('',#681);
#198=VERTEX_POINT('',#685);
#199=VERTEX_POINT('',#689);
#200=EDGE_CURVE('',#163,#164,#140,.T.);
#201=EDGE_CURVE('',#164,#165,#74,.T.);
#202=EDGE_CURVE('',#165,#166,#141,.T.);
#203=EDGE_CURVE('',#166,#163,#75,.T.);
#204=EDGE_CURVE('',#164,#167,#142,.T.);
#205=EDGE_CURVE('',#168,#167,#76,.T.);
#206=EDGE_CURVE('',#168,#165,#143,.T.);
#207=EDGE_CURVE('',#167,#169,#144,.T.);
#208=EDGE_CURVE('',#169,#170,#77,.T.);
#209=EDGE_CURVE('',#170,#168,#145,.T.);
#210=EDGE_CURVE('',#171,#169,#78,.T.);
#211=EDGE_CURVE('',#172,#171,#79,.T.);
#212=EDGE_CURVE('',#172,#170,#80,.T.);
#213=EDGE_CURVE('',#173,#174,#146,.T.);
#214=EDGE_CURVE('',#174,#175,#81,.T.);
#215=EDGE_CURVE('',#175,#176,#147,.T.);
#216=EDGE_CURVE('',#176,#173,#82,.T.);
#217=EDGE_CURVE('',#177,#174,#83,.T.);
#218=EDGE_CURVE('',#178,#177,#84,.T.);
#219=EDGE_CURVE('',#178,#175,#85,.T.);
#220=EDGE_CURVE('',#179,#180,#148,.T.);
#221=EDGE_CURVE('',#180,#181,#86,.T.);
#222=EDGE_CURVE('',#181,#182,#149,.T.);
#223=EDGE_CURVE('',#182,#179,#87,.T.);
#224=EDGE_CURVE('',#176,#181,#150,.T.);
#225=EDGE_CURVE('',#180,#173,#151,.T.);
#226=EDGE_CURVE('',#183,#183,#152,.T.);
#227=EDGE_CURVE('',#183,#184,#153,.T.);
#228=EDGE_CURVE('',#184,#185,#154,.T.);
#229=EDGE_CURVE('',#185,#184,#155,.T.);
#230=EDGE_CURVE('',#185,#186,#88,.T.);
#231=EDGE_CURVE('',#186,#186,#156,.T.);
#232=EDGE_CURVE('',#187,#188,#89,.T.);
#233=EDGE_CURVE('',#188,#189,#90,.T.);
#234=EDGE_CURVE('',#189,#190,#91,.T.);
#235=EDGE_CURVE('',#190,#187,#92,.T.);
#236=EDGE_CURVE('',#188,#191,#157,.T.);
#237=EDGE_CURVE('',#192,#191,#93,.T.);
#238=EDGE_CURVE('',#192,#189,#158,.T.);
#239=EDGE_CURVE('',#166,#187,#94,.T.);
#240=EDGE_CURVE('',#193,#172,#95,.T.);
#241=EDGE_CURVE('',#194,#193,#159,.T.);
#242=EDGE_CURVE('',#195,#194,#96,.T.);
#243=EDGE_CURVE('',#182,#195,#97,.T.);
#244=EDGE_CURVE('',#191,#178,#98,.T.);
#245=EDGE_CURVE('',#196,#196,#160,.T.);
#246=EDGE_CURVE('',#177,#192,#99,.T.);
#247=EDGE_CURVE('',#171,#197,#100,.T.);
#248=EDGE_CURVE('',#197,#193,#101,.T.);
#249=EDGE_CURVE('',#197,#198,#161,.T.);
#250=EDGE_CURVE('',#194,#198,#102,.T.);
#251=EDGE_CURVE('',#198,#199,#103,.T.);
#252=EDGE_CURVE('',#199,#195,#104,.T.);
#253=EDGE_CURVE('',#196,#186,#162,.T.);
#254=EDGE_CURVE('',#179,#199,#105,.T.);
#255=EDGE_CURVE('',#163,#190,#106,.T.);
#256=ORIENTED_EDGE('',*,*,#200,.T.);
#257=ORIENTED_EDGE('',*,*,#201,.T.);
#258=ORIENTED_EDGE('',*,*,#202,.T.);
#259=ORIENTED_EDGE('',*,*,#203,.T.);
#260=ORIENTED_EDGE('',*,*,#201,.F.);
#261=ORIENTED_EDGE('',*,*,#204,.T.);
#262=ORIENTED_EDGE('',*,*,#205,.F.);
#263=ORIENTED_EDGE('',*,*,#206,.T.);
#264=ORIENTED_EDGE('',*,*,#207,.T.);
#265=ORIENTED_EDGE('',*,*,#208,.T.);
#266=ORIENTED_EDGE('',*,*,#209,.T.);
#267=ORIENTED_EDGE('',*,*,#205,.T.);
#268=ORIENTED_EDGE('',*,*,#208,.F.);
#269=ORIENTED_EDGE('',*,*,#210,.F.);
#270=ORIENTED_EDGE('',*,*,#211,.F.);
#271=ORIENTED_EDGE('',*,*,#212,.T.);
#272=ORIENTED_EDGE('',*,*,#213,.T.);
#273=ORIENTED_EDGE('',*,*,#214,.T.);
#274=ORIENTED_EDGE('',*,*,#215,.T.);
#275=ORIENTED_EDGE('',*,*,#216,.T.);
#276=ORIENTED_EDGE('',*,*,#214,.F.);
#277=ORIENTED_EDGE('',*,*,#217,.F.);
#278=ORIENTED_EDGE('',*,*,#218,.F.);
#279=ORIENTED_EDGE('',*,*,#219,.T.);
#280=ORIENTED_EDGE('',*,*,#220,.T.);
#281=ORIENTED_EDGE('',*,*,#221,.T.);
#282=ORIENTED_EDGE('',*,*,#222,.T.);
#283=ORIENTED_EDGE('',*,*,#223,.T.);
#284=ORIENTED_EDGE('',*,*,#216,.F.);
#285=ORIENTED_EDGE('',*,*,#224,.T.);
#286=ORIENTED_EDGE('',*,*,#221,.F.);
#287=ORIENTED_EDGE('',*,*,#225,.T.);
#288=ORIENTED_EDGE('',*,*,#226,.T.);
#289=ORIENTED_EDGE('',*,*,#227,.T.);
#290=ORIENTED_EDGE('',*,*,#228,.T.);
#291=ORIENTED_EDGE('',*,*,#229,.T.);
#292=ORIENTED_EDGE('',*,*,#227,.F.);
#293=ORIENTED_EDGE('',*,*,#228,.F.);
#294=ORIENTED_EDGE('',*,*,#229,.F.);
#295=ORIENTED_EDGE('',*,*,#230,.T.);
#296=ORIENTED_EDGE('',*,*,#231,.F.);
#297=ORIENTED_EDGE('',*,*,#230,.F.);
#298=ORIENTED_EDGE('',*,*,#226,.F.);
#299=ORIENTED_EDGE('',*,*,#232,.T.);
#300=ORIENTED_EDGE('',*,*,#233,.T.);
#301=ORIENTED_EDGE('',*,*,#234,.T.);
#302=ORIENTED_EDGE('',*,*,#235,.T.);
#303=ORIENTED_EDGE('',*,*,#233,.F.);
#304=ORIENTED_EDGE('',*,*,#236,.T.);
#305=ORIENTED_EDGE('',*,*,#237,.F.);
#306=ORIENTED_EDGE('',*,*,#238,.T.);
#307=ORIENTED_EDGE('',*,*,#232,.F.);
#308=ORIENTED_EDGE('',*,*,#239,.F.);
#309=ORIENTED_EDGE('',*,*,#202,.F.);
#310=ORIENTED_EDGE('',*,*,#206,.F.);
#311=ORIENTED_EDGE('',*,*,#209,.F.);
#312=ORIENTED_EDGE('',*,*,#212,.F.);
#313=ORIENTED_EDGE('',*,*,#240,.F.);
#314=ORIENTED_EDGE('',*,*,#241,.F.);
#315=ORIENTED_EDGE('',*,*,#242,.F.);
#316=ORIENTED_EDGE('',*,*,#243,.F.);
#317=ORIENTED_EDGE('',*,*,#222,.F.);
#318=ORIENTED_EDGE('',*,*,#224,.F.);
#319=ORIENTED_EDGE('',*,*,#215,.F.);
#320=ORIENTED_EDGE('',*,*,#219,.F.);
#321=ORIENTED_EDGE('',*,*,#244,.F.);
#322=ORIENTED_EDGE('',*,*,#236,.F.);
#323=ORIENTED_EDGE('',*,*,#245,.T.);
#324=ORIENTED_EDGE('',*,*,#244,.T.);
#325=ORIENTED_EDGE('',*,*,#218,.T.);
#326=ORIENTED_EDGE('',*,*,#246,.T.);
#327=ORIENTED_EDGE('',*,*,#237,.T.);
#328=ORIENTED_EDGE('',*,*,#240,.T.);
#329=ORIENTED_EDGE('',*,*,#211,.T.);
#330=ORIENTED_EDGE('',*,*,#247,.T.);
#331=ORIENTED_EDGE('',*,*,#248,.T.);
#332=ORIENTED_EDGE('',*,*,#248,.F.);
#333=ORIENTED_EDGE('',*,*,#249,.T.);
#334=ORIENTED_EDGE('',*,*,#250,.F.);
#335=ORIENTED_EDGE('',*,*,#241,.T.);
#336=ORIENTED_EDGE('',*,*,#242,.T.);
#337=ORIENTED_EDGE('',*,*,#250,.T.);
#338=ORIENTED_EDGE('',*,*,#251,.T.);
#339=ORIENTED_EDGE('',*,*,#252,.T.);
#340=ORIENTED_EDGE('',*,*,#245,.F.);
#341=ORIENTED_EDGE('',*,*,#253,.T.);
#342=ORIENTED_EDGE('',*,*,#231,.T.);
#343=ORIENTED_EDGE('',*,*,#253,.F.);
#344=ORIENTED_EDGE('',*,*,#223,.F.);
#345=ORIENTED_EDGE('',*,*,#243,.T.);
#346=ORIENTED_EDGE('',*,*,#252,.F.);
#347=ORIENTED_EDGE('',*,*,#254,.F.);
#348=ORIENTED_EDGE('',*,*,#203,.F.);
#349=ORIENTED_EDGE('',*,*,#239,.T.);
#350=ORIENTED_EDGE('',*,*,#235,.F.);
#351=ORIENTED_EDGE('',*,*,#255,.F.);
#352=ORIENTED_EDGE('',*,*,#234,.F.);
#353=ORIENTED_EDGE('',*,*,#238,.F.);
#354=ORIENTED_EDGE('',*,*,#246,.F.);
#355=ORIENTED_EDGE('',*,*,#217,.T.);
#356=ORIENTED_EDGE('',*,*,#213,.F.);
#357=ORIENTED_EDGE('',*,*,#225,.F.);
#358=ORIENTED_EDGE('',*,*,#220,.F.);
#359=ORIENTED_EDGE('',*,*,#254,.T.);
#360=ORIENTED_EDGE('',*,*,#251,.F.);
#361=ORIENTED_EDGE('',*,*,#249,.F.);
#362=ORIENTED_EDGE('',*,*,#247,.F.);
#363=ORIENTED_EDGE('',*,*,#210,.T.);
#364=ORIENTED_EDGE('',*,*,#207,.F.);
#365=ORIENTED_EDGE('',*,*,#204,.F.);
#366=ORIENTED_EDGE('',*,*,#200,.F.);
#367=ORIENTED_EDGE('',*,*,#255,.T.);
#368=CYLINDRICAL_SURFACE('',#413,0.13);
#369=CYLINDRICAL_SURFACE('',#416,0.449409448818898);
#370=CYLINDRICAL_SURFACE('',#419,0.13);
#371=CYLINDRICAL_SURFACE('',#423,0.13);
#372=CYLINDRICAL_SURFACE('',#427,0.13);
#373=CYLINDRICAL_SURFACE('',#430,0.449409448818898);
#374=CYLINDRICAL_SURFACE('',#438,0.275590551181102);
#375=CYLINDRICAL_SURFACE('',#442,1.49606299212598);
#376=CYLINDRICAL_SURFACE('',#450,1.49606299212598);
#377=ADVANCED_FACE('',(#29),#368,.F.);
#378=ADVANCED_FACE('',(#30),#369,.T.);
#379=ADVANCED_FACE('',(#31),#370,.F.);
#380=ADVANCED_FACE('',(#32),#18,.T.);
#381=ADVANCED_FACE('',(#33),#371,.F.);
#382=ADVANCED_FACE('',(#34),#19,.T.);
#383=ADVANCED_FACE('',(#35),#372,.F.);
#384=ADVANCED_FACE('',(#36),#373,.T.);
#385=ADVANCED_FACE('',(#37),#16,.T.);
#386=ADVANCED_FACE('',(#38),#374,.T.);
#387=ADVANCED_FACE('',(#39),#20,.T.);
#388=ADVANCED_FACE('',(#40),#21,.T.);
#389=ADVANCED_FACE('',(#41),#375,.T.);
#390=ADVANCED_FACE('',(#42,#15),#22,.F.);
#391=ADVANCED_FACE('',(#43),#23,.T.);
#392=ADVANCED_FACE('',(#44),#24,.T.);
#393=ADVANCED_FACE('',(#45),#376,.T.);
#394=ADVANCED_FACE('',(#46),#25,.T.);
#395=ADVANCED_FACE('',(#47),#17,.F.);
#396=ADVANCED_FACE('',(#48),#26,.T.);
#397=ADVANCED_FACE('',(#49),#27,.T.);
#398=ADVANCED_FACE('',(#50),#28,.F.);
#399=CLOSED_SHELL('',(#377,#378,#379,#380,#381,#382,#383,#384,#385,#386,
#387,#388,#389,#390,#391,#392,#393,#394,#395,#396,#397,#398));
#400=DERIVED_UNIT_ELEMENT(#402,1.);
#401=DERIVED_UNIT_ELEMENT(#706,-3.);
#402=(
MASS_UNIT()
NAMED_UNIT(*)
SI_UNIT(.KILO.,.GRAM.)
);
#403=DERIVED_UNIT((#400,#401));
#404=MEASURE_REPRESENTATION_ITEM('density measure',
POSITIVE_RATIO_MEASURE(7850.),#403);
#405=PROPERTY_DEFINITION_REPRESENTATION(#410,#407);
#406=PROPERTY_DEFINITION_REPRESENTATION(#411,#408);
#407=REPRESENTATION('material name',(#409),#701);
#408=REPRESENTATION('density',(#404),#701);
#409=DESCRIPTIVE_REPRESENTATION_ITEM('Steel','Steel');
#410=PROPERTY_DEFINITION('material property','material name',#714);
#411=PROPERTY_DEFINITION('material property','density of part',#714);
#412=AXIS2_PLACEMENT_3D('',#583,#458,#459);
#413=AXIS2_PLACEMENT_3D('',#584,#460,#461);
#414=AXIS2_PLACEMENT_3D('',#587,#462,#463);
#415=AXIS2_PLACEMENT_3D('',#591,#465,#466);
#416=AXIS2_PLACEMENT_3D('',#593,#468,#469);
#417=AXIS2_PLACEMENT_3D('',#595,#470,#471);
#418=AXIS2_PLACEMENT_3D('',#598,#473,#474);
#419=AXIS2_PLACEMENT_3D('',#599,#475,#476);
#420=AXIS2_PLACEMENT_3D('',#601,#477,#478);
#421=AXIS2_PLACEMENT_3D('',#604,#480,#481);
#422=AXIS2_PLACEMENT_3D('',#605,#482,#483);
#423=AXIS2_PLACEMENT_3D('',#611,#487,#488);
#424=AXIS2_PLACEMENT_3D('',#614,#489,#490);
#425=AXIS2_PLACEMENT_3D('',#618,#492,#493);
#426=AXIS2_PLACEMENT_3D('',#620,#495,#496);
#427=AXIS2_PLACEMENT_3D('',#626,#500,#501);
#428=AXIS2_PLACEMENT_3D('',#629,#502,#503);
#429=AXIS2_PLACEMENT_3D('',#633,#505,#506);
#430=AXIS2_PLACEMENT_3D('',#635,#508,#509);
#431=AXIS2_PLACEMENT_3D('',#636,#510,#511);
#432=AXIS2_PLACEMENT_3D('',#637,#512,#513);
#433=AXIS2_PLACEMENT_3D('',#638,#514,#515);
#434=AXIS2_PLACEMENT_3D('',#640,#516,#517);
#435=AXIS2_PLACEMENT_3D('',#642,#518,#519);
#436=AXIS2_PLACEMENT_3D('',#644,#520,#521);
#437=AXIS2_PLACEMENT_3D('',#645,#522,#523);
#438=AXIS2_PLACEMENT_3D('',#646,#524,#525);
#439=AXIS2_PLACEMENT_3D('',#649,#527,#528);
#440=AXIS2_PLACEMENT_3D('',#650,#529,#530);
#441=AXIS2_PLACEMENT_3D('',#651,#531,#532);
#442=AXIS2_PLACEMENT_3D('',#660,#537,#538);
#443=AXIS2_PLACEMENT_3D('',#662,#539,#540);
#444=AXIS2_PLACEMENT_3D('',#665,#542,#543);
#445=AXIS2_PLACEMENT_3D('',#666,#544,#545);
#446=AXIS2_PLACEMENT_3D('',#671,#548,#549);
#447=AXIS2_PLACEMENT_3D('',#677,#553,#554);
#448=AXIS2_PLACEMENT_3D('',#678,#555,#556);
#449=AXIS2_PLACEMENT_3D('',#680,#558,#559);
#450=AXIS2_PLACEMENT_3D('',#684,#562,#563);
#451=AXIS2_PLACEMENT_3D('',#686,#564,#565);
#452=AXIS2_PLACEMENT_3D('',#688,#567,#568);
#453=AXIS2_PLACEMENT_3D('',#692,#571,#572);
#454=AXIS2_PLACEMENT_3D('',#693,#573,#574);
#455=AXIS2_PLACEMENT_3D('',#694,#575,#576);
#456=AXIS2_PLACEMENT_3D('',#696,#578,#579);
#457=AXIS2_PLACEMENT_3D('',#698,#581,#582);
#458=DIRECTION('axis',(0.,0.,1.));
#459=DIRECTION('refdir',(1.,0.,0.));
#460=DIRECTION('center_axis',(0.,0.,1.));
#461=DIRECTION('ref_axis',(-0.368181366334585,-0.929753989765033,0.));
#462=DIRECTION('center_axis',(0.,0.,-1.));
#463=DIRECTION('ref_axis',(-0.368181366334585,-0.929753989765033,0.));
#464=DIRECTION('',(0.,0.,1.));
#465=DIRECTION('center_axis',(0.,0.,1.));
#466=DIRECTION('ref_axis',(-0.368181366334585,-0.929753989765033,0.));
#467=DIRECTION('',(0.,0.,-1.));
#468=DIRECTION('center_axis',(0.,0.,1.));
#469=DIRECTION('ref_axis',(1.,0.,0.));
#470=DIRECTION('center_axis',(0.,0.,1.));
#471=DIRECTION('ref_axis',(1.,0.,0.));
#472=DIRECTION('',(0.,0.,-1.));
#473=DIRECTION('center_axis',(0.,0.,-1.));
#474=DIRECTION('ref_axis',(1.,0.,0.));
#475=DIRECTION('center_axis',(0.,0.,1.));
#476=DIRECTION('ref_axis',(0.368181366334586,-0.929753989765033,0.));
#477=DIRECTION('center_axis',(0.,0.,-1.));
#478=DIRECTION('ref_axis',(0.368181366334586,-0.929753989765033,0.));
#479=DIRECTION('',(0.,0.,1.));
#480=DIRECTION('center_axis',(0.,0.,1.));
#481=DIRECTION('ref_axis',(0.368181366334586,-0.929753989765033,0.));
#482=DIRECTION('center_axis',(0.,1.,0.));
#483=DIRECTION('ref_axis',(-1.,0.,0.));
#484=DIRECTION('',(1.,0.,0.));
#485=DIRECTION('',(0.,0.,-1.));
#486=DIRECTION('',(1.,0.,0.));
#487=DIRECTION('center_axis',(0.,0.,1.));
#488=DIRECTION('ref_axis',(-0.368181366334585,0.929753989765033,0.));
#489=DIRECTION('center_axis',(0.,0.,-1.));
#490=DIRECTION('ref_axis',(-0.368181366334585,0.929753989765033,0.));
#491=DIRECTION('',(0.,0.,1.));
#492=DIRECTION('center_axis',(0.,0.,1.));
#493=DIRECTION('ref_axis',(-0.368181366334585,0.929753989765033,0.));
#494=DIRECTION('',(0.,0.,-1.));
#495=DIRECTION('center_axis',(0.,-1.,0.));
#496=DIRECTION('ref_axis',(1.,0.,0.));
#497=DIRECTION('',(-1.,0.,0.));
#498=DIRECTION('',(0.,0.,-1.));
#499=DIRECTION('',(-1.,0.,0.));
#500=DIRECTION('center_axis',(0.,0.,1.));
#501=DIRECTION('ref_axis',(0.368181366334586,0.929753989765033,0.));
#502=DIRECTION('center_axis',(0.,0.,-1.));
#503=DIRECTION('ref_axis',(0.368181366334586,0.929753989765033,0.));
#504=DIRECTION('',(0.,0.,1.));
#505=DIRECTION('center_axis',(0.,0.,1.));
#506=DIRECTION('ref_axis',(0.368181366334586,0.929753989765033,0.));
#507=DIRECTION('',(0.,0.,-1.));
#508=DIRECTION('center_axis',(0.,0.,1.));
#509=DIRECTION('ref_axis',(1.,0.,0.));
#510=DIRECTION('center_axis',(0.,0.,-1.));
#511=DIRECTION('ref_axis',(1.,0.,0.));
#512=DIRECTION('center_axis',(0.,0.,1.));
#513=DIRECTION('ref_axis',(1.,0.,0.));
#514=DIRECTION('center_axis',(0.,0.,1.));
#515=DIRECTION('ref_axis',(1.,0.,0.));
#516=DIRECTION('center_axis',(0.,0.,-1.));
#517=DIRECTION('ref_axis',(1.,-1.22464679914735E-16,0.));
#518=DIRECTION('center_axis',(1.22464679914735E-16,-1.,0.));
#519=DIRECTION('ref_axis',(-1.,-1.22464679914735E-16,0.));
#520=DIRECTION('center_axis',(0.,0.,1.));
#521=DIRECTION('ref_axis',(1.,-1.22464679914735E-16,0.));
#522=DIRECTION('center_axis',(0.,0.,1.));
#523=DIRECTION('ref_axis',(1.,-1.22464679914735E-16,0.));
#524=DIRECTION('center_axis',(0.,0.,-1.));
#525=DIRECTION('ref_axis',(-1.,0.,0.));
#526=DIRECTION('',(0.,0.,-1.));
#527=DIRECTION('center_axis',(0.,0.,-1.));
#528=DIRECTION('ref_axis',(1.,0.,0.));
#529=DIRECTION('center_axis',(0.,0.,1.));
#530=DIRECTION('ref_axis',(1.,0.,0.));
#531=DIRECTION('center_axis',(0.635564331724513,0.772047913176102,0.));
#532=DIRECTION('ref_axis',(0.,0.,-1.));
#533=DIRECTION('',(0.772047913176101,-0.635564331724513,0.));
#534=DIRECTION('',(0.,0.,-1.));
#535=DIRECTION('',(-0.772047913176101,0.635564331724513,0.));
#536=DIRECTION('',(0.,0.,1.));
#537=DIRECTION('center_axis',(0.,0.,1.));
#538=DIRECTION('ref_axis',(1.,0.,0.));
#539=DIRECTION('center_axis',(0.,0.,-1.));
#540=DIRECTION('ref_axis',(1.,0.,0.));
#541=DIRECTION('',(0.,0.,1.));
#542=DIRECTION('center_axis',(0.,0.,1.));
#543=DIRECTION('ref_axis',(1.,0.,0.));
#544=DIRECTION('center_axis',(0.,0.,-1.));
#545=DIRECTION('ref_axis',(-1.,0.,0.));
#546=DIRECTION('',(1.,0.,0.));
#547=DIRECTION('',(0.77204791317609,0.635564331724528,0.));
#548=DIRECTION('center_axis',(0.,0.,-1.));
#549=DIRECTION('ref_axis',(-0.980724679415382,0.195394736842105,0.));
#550=DIRECTION('',(-0.772047913176092,0.635564331724524,0.));
#551=DIRECTION('',(-1.,0.,0.));
#552=DIRECTION('',(-0.772047913176103,-0.635564331724511,0.));
#553=DIRECTION('center_axis',(0.,0.,-1.));
#554=DIRECTION('ref_axis',(1.,0.,0.));
#555=DIRECTION('center_axis',(0.635564331724511,-0.772047913176103,0.));
#556=DIRECTION('ref_axis',(0.,0.,-1.));
#557=DIRECTION('',(0.772047913176103,0.635564331724511,0.));
#558=DIRECTION('center_axis',(-0.635564331724528,0.77204791317609,0.));
#559=DIRECTION('ref_axis',(0.,0.,1.));
#560=DIRECTION('',(-0.77204791317609,-0.635564331724528,0.));
#561=DIRECTION('',(0.,0.,1.));
#562=DIRECTION('center_axis',(0.,0.,1.));
#563=DIRECTION('ref_axis',(-0.980724679415382,0.195394736842105,0.));
#564=DIRECTION('center_axis',(0.,0.,1.));
#565=DIRECTION('ref_axis',(-0.980724679415382,0.195394736842105,0.));
#566=DIRECTION('',(0.,0.,-1.));
#567=DIRECTION('center_axis',(-0.635564331724524,-0.772047913176092,0.));
#568=DIRECTION('ref_axis',(0.,0.,1.));
#569=DIRECTION('',(0.772047913176092,-0.635564331724524,0.));
#570=DIRECTION('',(0.,0.,1.));
#571=DIRECTION('center_axis',(0.,0.,-1.));
#572=DIRECTION('ref_axis',(-1.,0.,0.));
#573=DIRECTION('center_axis',(1.22464679914735E-16,1.,0.));
#574=DIRECTION('ref_axis',(1.,-1.22464679914735E-16,0.));
#575=DIRECTION('center_axis',(0.,-1.,0.));
#576=DIRECTION('ref_axis',(1.,0.,0.));
#577=DIRECTION('',(-1.,0.,0.));
#578=DIRECTION('center_axis',(0.,1.,0.));
#579=DIRECTION('ref_axis',(-1.,0.,0.));
#580=DIRECTION('',(1.,0.,0.));
#581=DIRECTION('center_axis',(0.,0.,1.));
#582=DIRECTION('ref_axis',(1.,0.,0.));
#583=CARTESIAN_POINT('',(0.,0.,0.));
#584=CARTESIAN_POINT('Origin',(0.396684676685986,0.422322834645669,0.));
#585=CARTESIAN_POINT('',(0.396684676685986,0.292322834645669,0.));
#586=CARTESIAN_POINT('',(0.307681972166239,0.32756778945983,0.));
#587=CARTESIAN_POINT('Origin',(0.396684676685986,0.422322834645669,0.));
#588=CARTESIAN_POINT('',(0.307681972166239,0.32756778945983,0.472440944881908));
#589=CARTESIAN_POINT('',(0.307681972166239,0.32756778945983,0.));
#590=CARTESIAN_POINT('',(0.396684676685986,0.292322834645669,0.472440944881908));
#591=CARTESIAN_POINT('Origin',(0.396684676685986,0.422322834645669,0.472440944881908));
#592=CARTESIAN_POINT('',(0.396684676685986,0.292322834645669,0.));
#593=CARTESIAN_POINT('Origin',(0.,0.,0.));
#594=CARTESIAN_POINT('',(-0.307681972166239,0.32756778945983,0.));
#595=CARTESIAN_POINT('Origin',(0.,0.,0.));
#596=CARTESIAN_POINT('',(-0.307681972166239,0.32756778945983,0.472440944881908));
#597=CARTESIAN_POINT('',(-0.307681972166239,0.32756778945983,0.));
#598=CARTESIAN_POINT('Origin',(0.,0.,0.472440944881908));
#599=CARTESIAN_POINT('Origin',(-0.396684676685986,0.422322834645669,0.));
#600=CARTESIAN_POINT('',(-0.396684676685986,0.292322834645669,0.));
#601=CARTESIAN_POINT('Origin',(-0.396684676685986,0.422322834645669,0.));
#602=CARTESIAN_POINT('',(-0.396684676685986,0.292322834645669,0.472440944881908));
#603=CARTESIAN_POINT('',(-0.396684676685986,0.292322834645669,0.));
#604=CARTESIAN_POINT('Origin',(-0.396684676685986,0.422322834645669,0.472440944881908));
#605=CARTESIAN_POINT('Origin',(-0.341344712911195,0.292322834645669,0.));
#606=CARTESIAN_POINT('',(-1.45427314243246,0.292322834645669,0.));
#607=CARTESIAN_POINT('',(-1.49311023622047,0.292322834645669,0.));
#608=CARTESIAN_POINT('',(-1.45427314243246,0.292322834645669,0.472440944881908));
#609=CARTESIAN_POINT('',(-1.45427314243246,0.292322834645669,0.));
#610=CARTESIAN_POINT('',(-0.328467632046149,0.292322834645669,0.472440944881908));
#611=CARTESIAN_POINT('Origin',(0.396684676685986,-0.422322834645669,0.));
#612=CARTESIAN_POINT('',(0.307681972166239,-0.32756778945983,0.));
#613=CARTESIAN_POINT('',(0.396684676685986,-0.292322834645669,0.));
#614=CARTESIAN_POINT('Origin',(0.396684676685986,-0.422322834645669,0.));
#615=CARTESIAN_POINT('',(0.396684676685986,-0.292322834645669,0.472440944881908));
#616=CARTESIAN_POINT('',(0.396684676685986,-0.292322834645669,0.));
#617=CARTESIAN_POINT('',(0.307681972166239,-0.32756778945983,0.472440944881908));
#618=CARTESIAN_POINT('Origin',(0.396684676685986,-0.422322834645669,0.472440944881908));
#619=CARTESIAN_POINT('',(0.307681972166239,-0.32756778945983,0.));
#620=CARTESIAN_POINT('Origin',(0.341344712911195,-0.292322834645669,0.));
#621=CARTESIAN_POINT('',(1.45427314243246,-0.292322834645669,0.));
#622=CARTESIAN_POINT('',(1.49311023622047,-0.292322834645669,0.));
#623=CARTESIAN_POINT('',(1.45427314243246,-0.292322834645669,0.472440944881908));
#624=CARTESIAN_POINT('',(1.45427314243246,-0.292322834645669,0.));
#625=CARTESIAN_POINT('',(0.0128770808650463,-0.292322834645669,0.472440944881908));
#626=CARTESIAN_POINT('Origin',(-0.396684676685986,-0.422322834645669,0.));
#627=CARTESIAN_POINT('',(-0.396684676685986,-0.292322834645669,0.));
#628=CARTESIAN_POINT('',(-0.307681972166239,-0.32756778945983,0.));
#629=CARTESIAN_POINT('Origin',(-0.396684676685986,-0.422322834645669,0.));
#630=CARTESIAN_POINT('',(-0.307681972166239,-0.32756778945983,0.472440944881908));
#631=CARTESIAN_POINT('',(-0.307681972166239,-0.32756778945983,0.));
#632=CARTESIAN_POINT('',(-0.396684676685986,-0.292322834645669,0.472440944881908));
#633=CARTESIAN_POINT('Origin',(-0.396684676685986,-0.422322834645669,0.472440944881908));
#634=CARTESIAN_POINT('',(-0.396684676685986,-0.292322834645669,0.));
#635=CARTESIAN_POINT('Origin',(0.,0.,0.));
#636=CARTESIAN_POINT('Origin',(0.,0.,0.472440944881908));
#637=CARTESIAN_POINT('Origin',(0.,0.,0.));
#638=CARTESIAN_POINT('Origin',(0.,0.,0.531496062992126));
#639=CARTESIAN_POINT('',(-0.255905511811024,6.26787731847071E-17,0.551181102362205));
#640=CARTESIAN_POINT('Origin',(0.,0.,0.551181102362205));
#641=CARTESIAN_POINT('',(-0.275590551181102,0.,0.531496062992126));
#642=CARTESIAN_POINT('Origin',(-0.255905511811024,-3.13393865923535E-17,
0.531496062992126));
#643=CARTESIAN_POINT('',(0.275590551181102,-3.37501086379192E-17,0.531496062992126));
#644=CARTESIAN_POINT('Origin',(0.,0.,0.531496062992126));
#645=CARTESIAN_POINT('Origin',(0.,0.,0.531496062992126));
#646=CARTESIAN_POINT('Origin',(0.,0.,0.531811023622056));
#647=CARTESIAN_POINT('',(0.275590551181102,-3.37501086379192E-17,0.512440944881908));
#648=CARTESIAN_POINT('',(0.275590551181102,-3.37501086379192E-17,0.531811023622056));
#649=CARTESIAN_POINT('Origin',(0.,0.,0.512440944881908));
#650=CARTESIAN_POINT('Origin',(0.,0.,0.551181102362205));
#651=CARTESIAN_POINT('Origin',(1.46023372223486,0.287415973485699,0.));
#652=CARTESIAN_POINT('',(1.45427314243246,0.292322834645669,0.472440944881908));
#653=CARTESIAN_POINT('',(1.46619430203725,0.282509112325728,0.472440944881908));
#654=CARTESIAN_POINT('',(1.0015021212511,0.665052436772989,0.472440944881908));
#655=CARTESIAN_POINT('',(1.46619430203725,0.282509112325728,0.));
#656=CARTESIAN_POINT('',(1.46619430203725,0.282509112325728,0.));
#657=CARTESIAN_POINT('',(1.45427314243246,0.292322834645669,0.));
#658=CARTESIAN_POINT('',(1.09555725451095,0.587624485870773,0.));
#659=CARTESIAN_POINT('',(1.45427314243246,0.292322834645669,0.));
#660=CARTESIAN_POINT('Origin',(-0.00295275590551175,0.,0.));
#661=CARTESIAN_POINT('',(1.46619430203725,-0.282509112325728,0.472440944881908));
#662=CARTESIAN_POINT('Origin',(-0.00295275590551175,0.,0.472440944881908));
#663=CARTESIAN_POINT('',(1.46619430203725,-0.282509112325728,0.));
#664=CARTESIAN_POINT('',(1.46619430203725,-0.282509112325728,0.));
#665=CARTESIAN_POINT('Origin',(-0.00295275590551175,0.,0.));
#666=CARTESIAN_POINT('Origin',(-0.315590551181102,0.,0.472440944881908));
#667=CARTESIAN_POINT('',(0.57434129562568,0.292322834645669,0.472440944881908));
#668=CARTESIAN_POINT('',(-1.46619430203725,0.282509112325728,0.472440944881908));
#669=CARTESIAN_POINT('',(-1.18961238777082,0.510196534968558,0.472440944881908));
#670=CARTESIAN_POINT('',(-1.46619430203725,-0.282509112325728,0.472440944881908));
#671=CARTESIAN_POINT('Origin',(0.00295275590551175,0.,0.472440944881908));
#672=CARTESIAN_POINT('',(-1.45427314243246,-0.292322834645669,0.472440944881908));
#673=CARTESIAN_POINT('',(-1.18961238777081,-0.510196534968558,0.472440944881908));
#674=CARTESIAN_POINT('',(-0.889931846806782,-0.292322834645669,0.472440944881908));
#675=CARTESIAN_POINT('',(1.0015021212511,-0.665052436772989,0.472440944881908));
#676=CARTESIAN_POINT('',(0.315590551181102,-3.86486958345086E-17,0.472440944881908));
#677=CARTESIAN_POINT('Origin',(0.,0.,0.472440944881908));
#678=CARTESIAN_POINT('Origin',(1.46023372223486,-0.287415973485699,0.));
#679=CARTESIAN_POINT('',(1.09555725451095,-0.587624485870773,0.));
#680=CARTESIAN_POINT('Origin',(-1.46023372223486,0.287415973485699,0.));
#681=CARTESIAN_POINT('',(-1.46619430203725,0.282509112325728,0.));
#682=CARTESIAN_POINT('',(-1.09555725451097,0.587624485870774,0.));
#683=CARTESIAN_POINT('',(-1.46619430203725,0.282509112325728,0.));
#684=CARTESIAN_POINT('Origin',(0.00295275590551175,0.,0.));
#685=CARTESIAN_POINT('',(-1.46619430203725,-0.282509112325728,0.));
#686=CARTESIAN_POINT('Origin',(0.00295275590551175,0.,0.));
#687=CARTESIAN_POINT('',(-1.46619430203725,-0.282509112325728,0.));
#688=CARTESIAN_POINT('Origin',(-1.46023372223486,-0.287415973485699,0.));
#689=CARTESIAN_POINT('',(-1.45427314243246,-0.292322834645669,0.));
#690=CARTESIAN_POINT('',(-1.09555725451096,-0.587624485870773,0.));
#691=CARTESIAN_POINT('',(-1.45427314243246,-0.292322834645669,0.));
#692=CARTESIAN_POINT('Origin',(0.,0.,0.512440944881908));
#693=CARTESIAN_POINT('Origin',(0.315590551181102,-3.86486958345086E-17,
0.512440944881908));
#694=CARTESIAN_POINT('Origin',(-1.46427314243246,-0.292322834645669,0.));
#695=CARTESIAN_POINT('',(1.49311023622047,-0.292322834645669,0.));
#696=CARTESIAN_POINT('Origin',(1.46427314243246,0.292322834645669,0.));
#697=CARTESIAN_POINT('',(-1.49311023622047,0.292322834645669,0.));
#698=CARTESIAN_POINT('Origin',(0.,0.,0.));
#699=UNCERTAINTY_MEASURE_WITH_UNIT(LENGTH_MEASURE(0.000393700787401575),
#704,'DISTANCE_ACCURACY_VALUE',
'Maximum model space distance between geometric entities at asserted c
onnectivities');
#700=UNCERTAINTY_MEASURE_WITH_UNIT(LENGTH_MEASURE(0.000393700787401575),
#704,'DISTANCE_ACCURACY_VALUE',
'Maximum model space distance between geometric entities at asserted c
onnectivities');
#701=(
GEOMETRIC_REPRESENTATION_CONTEXT(3)
GLOBAL_UNCERTAINTY_ASSIGNED_CONTEXT((#699))
GLOBAL_UNIT_ASSIGNED_CONTEXT((#704,#708,#709))
REPRESENTATION_CONTEXT('','3D')
);
#702=(
GEOMETRIC_REPRESENTATION_CONTEXT(3)
GLOBAL_UNCERTAINTY_ASSIGNED_CONTEXT((#700))
GLOBAL_UNIT_ASSIGNED_CONTEXT((#704,#708,#709))
REPRESENTATION_CONTEXT('','3D')
);
#703=DIMENSIONAL_EXPONENTS(1.,0.,0.,0.,0.,0.,0.);
#704=(
CONVERSION_BASED_UNIT('inch',#707)
LENGTH_UNIT()
NAMED_UNIT(#703)
);
#705=(
LENGTH_UNIT()
NAMED_UNIT(*)
SI_UNIT(.MILLI.,.METRE.)
);
#706=(
LENGTH_UNIT()
NAMED_UNIT(*)
SI_UNIT($,.METRE.)
);
#707=LENGTH_MEASURE_WITH_UNIT(LENGTH_MEASURE(25.4),#705);
#708=(
NAMED_UNIT(*)
PLANE_ANGLE_UNIT()
SI_UNIT($,.RADIAN.)
);
#709=(
NAMED_UNIT(*)
SI_UNIT($,.STERADIAN.)
SOLID_ANGLE_UNIT()
);
#710=SHAPE_DEFINITION_REPRESENTATION(#711,#712);
#711=PRODUCT_DEFINITION_SHAPE('',$,#714);
#712=SHAPE_REPRESENTATION('',(#412),#701);
#713=PRODUCT_DEFINITION_CONTEXT('part definition',#718,'design');
#714=PRODUCT_DEFINITION('121L029853 JAWS - HURCO',
'121L029853 JAWS - HURCO v3',#715,#713);
#715=PRODUCT_DEFINITION_FORMATION('',$,#720);
#716=PRODUCT_RELATED_PRODUCT_CATEGORY('121L029853 JAWS - HURCO v3',
'121L029853 JAWS - HURCO v3',(#720));
#717=APPLICATION_PROTOCOL_DEFINITION('international standard',
'automotive_design',2009,#718);
#718=APPLICATION_CONTEXT(
'Core Data for Automotive Mechanical Design Process');
#719=PRODUCT_CONTEXT('part definition',#718,'mechanical');
#720=PRODUCT('121L029853 JAWS - HURCO','121L029853 JAWS - HURCO v3',$,(#719));
#721=PRESENTATION_STYLE_ASSIGNMENT((#722));
#722=SURFACE_STYLE_USAGE(.BOTH.,#723);
#723=SURFACE_SIDE_STYLE('',(#724));
#724=SURFACE_STYLE_FILL_AREA(#725);
#725=FILL_AREA_STYLE('Steel - Satin',(#726));
#726=FILL_AREA_STYLE_COLOUR('Steel - Satin',#727);
#727=COLOUR_RGB('Steel - Satin',0.627450980392157,0.627450980392157,0.627450980392157);
ENDSEC;
END-ISO-10303-21;
