ISO-10303-21;
HEADER;
/* Generated by software containing ST-Developer
 * from STEP Tools, Inc. (www.steptools.com) 
 */

FILE_DESCRIPTION(
/* description */ (''),
/* implementation_level */ '2;1');

FILE_NAME(
/* name */ '121L030803 - HURCO.step',
/* time_stamp */ '2026-01-07T10:41:07-06:00',
/* author */ (''),
/* organization */ (''),
/* preprocessor_version */ 'ST-DEVELOPER v20.1',
/* originating_system */ 'Autodesk Translation Framework v14.24.0.0',
/* authorisation */ '');

FILE_SCHEMA (('AUTOMOTIVE_DESIGN { 1 0 10303 214 3 1 1 }'));
ENDSEC;

DATA;
#10=MECHANICAL_DESIGN_GEOMETRIC_PRESENTATION_REPRESENTATION('',(#13),#891);
#11=SHAPE_REPRESENTATION_RELATIONSHIP('SRR','None',#901,#12);
#12=ADVANCED_BREP_SHAPE_REPRESENTATION('',(#14),#890);
#13=STYLED_ITEM('',(#910),#14);
#14=MANIFOLD_SOLID_BREP('Body1',#534);
#15=CYLINDRICAL_SURFACE('',#557,0.005);
#16=CYLINDRICAL_SURFACE('',#562,0.005);
#17=CYLINDRICAL_SURFACE('',#567,0.005);
#18=CYLINDRICAL_SURFACE('',#576,0.167322834645669);
#19=CYLINDRICAL_SURFACE('',#579,0.167322834645669);
#20=CYLINDRICAL_SURFACE('',#582,0.167322834645669);
#21=CYLINDRICAL_SURFACE('',#585,0.167322834645669);
#22=CYLINDRICAL_SURFACE('',#587,0.128);
#23=FACE_BOUND('',#70,.T.);
#24=FACE_BOUND('',#71,.T.);
#25=FACE_BOUND('',#96,.T.);
#26=FACE_BOUND('',#97,.T.);
#27=CIRCLE('',#552,0.128);
#28=CIRCLE('',#553,0.167322834645669);
#29=CIRCLE('',#554,0.167322834645669);
#30=CIRCLE('',#555,0.167322834645669);
#31=CIRCLE('',#556,0.167322834645669);
#32=CIRCLE('',#558,0.005);
#33=CIRCLE('',#563,0.005);
#34=CIRCLE('',#568,0.005);
#35=CIRCLE('',#577,0.167322834645669);
#36=CIRCLE('',#580,0.167322834645669);
#37=CIRCLE('',#583,0.167322834645669);
#38=CIRCLE('',#586,0.167322834645669);
#39=CIRCLE('',#588,0.128);
#40=FACE_OUTER_BOUND('',#67,.T.);
#41=FACE_OUTER_BOUND('',#68,.T.);
#42=FACE_OUTER_BOUND('',#69,.T.);
#43=FACE_OUTER_BOUND('',#72,.T.);
#44=FACE_OUTER_BOUND('',#73,.T.);
#45=FACE_OUTER_BOUND('',#74,.T.);
#46=FACE_OUTER_BOUND('',#75,.T.);
#47=FACE_OUTER_BOUND('',#76,.T.);
#48=FACE_OUTER_BOUND('',#77,.T.);
#49=FACE_OUTER_BOUND('',#78,.T.);
#50=FACE_OUTER_BOUND('',#79,.T.);
#51=FACE_OUTER_BOUND('',#80,.T.);
#52=FACE_OUTER_BOUND('',#81,.T.);
#53=FACE_OUTER_BOUND('',#82,.T.);
#54=FACE_OUTER_BOUND('',#83,.T.);
#55=FACE_OUTER_BOUND('',#84,.T.);
#56=FACE_OUTER_BOUND('',#85,.T.);
#57=FACE_OUTER_BOUND('',#86,.T.);
#58=FACE_OUTER_BOUND('',#87,.T.);
#59=FACE_OUTER_BOUND('',#88,.T.);
#60=FACE_OUTER_BOUND('',#89,.T.);
#61=FACE_OUTER_BOUND('',#90,.T.);
#62=FACE_OUTER_BOUND('',#91,.T.);
#63=FACE_OUTER_BOUND('',#92,.T.);
#64=FACE_OUTER_BOUND('',#93,.T.);
#65=FACE_OUTER_BOUND('',#94,.T.);
#66=FACE_OUTER_BOUND('',#95,.T.);
#67=EDGE_LOOP('',(#340,#341,#342,#343,#344));
#68=EDGE_LOOP('',(#345,#346,#347,#348,#349));
#69=EDGE_LOOP('',(#350,#351,#352,#353,#354,#355,#356,#357,#358));
#70=EDGE_LOOP('',(#359,#360,#361,#362));
#71=EDGE_LOOP('',(#363,#364,#365,#366));
#72=EDGE_LOOP('',(#367,#368,#369,#370));
#73=EDGE_LOOP('',(#371,#372,#373,#374,#375,#376,#377,#378));
#74=EDGE_LOOP('',(#379,#380,#381,#382,#383,#384));
#75=EDGE_LOOP('',(#385,#386,#387,#388));
#76=EDGE_LOOP('',(#389,#390,#391,#392,#393,#394,#395));
#77=EDGE_LOOP('',(#396,#397,#398,#399,#400));
#78=EDGE_LOOP('',(#401,#402,#403,#404));
#79=EDGE_LOOP('',(#405,#406,#407,#408));
#80=EDGE_LOOP('',(#409,#410,#411,#412));
#81=EDGE_LOOP('',(#413,#414,#415,#416));
#82=EDGE_LOOP('',(#417,#418,#419,#420));
#83=EDGE_LOOP('',(#421,#422,#423,#424));
#84=EDGE_LOOP('',(#425,#426,#427,#428));
#85=EDGE_LOOP('',(#429,#430,#431,#432));
#86=EDGE_LOOP('',(#433,#434,#435,#436));
#87=EDGE_LOOP('',(#437,#438,#439,#440));
#88=EDGE_LOOP('',(#441,#442,#443,#444));
#89=EDGE_LOOP('',(#445,#446,#447,#448));
#90=EDGE_LOOP('',(#449,#450,#451,#452));
#91=EDGE_LOOP('',(#453,#454,#455,#456));
#92=EDGE_LOOP('',(#457,#458,#459,#460));
#93=EDGE_LOOP('',(#461,#462,#463,#464,#465));
#94=EDGE_LOOP('',(#466,#467,#468,#469));
#95=EDGE_LOOP('',(#470,#471,#472,#473,#474,#475,#476,#477,#478,#479));
#96=EDGE_LOOP('',(#480,#481,#482,#483));
#97=EDGE_LOOP('',(#484,#485,#486,#487));
#98=ELLIPSE('',#549,0.00517638090205042,0.005);
#99=ELLIPSE('',#559,0.00707106781186546,0.005);
#100=ELLIPSE('',#564,0.00707106781186548,0.005);
#101=LINE('',#741,#159);
#102=LINE('',#743,#160);
#103=LINE('',#747,#161);
#104=LINE('',#748,#162);
#105=LINE('',#751,#163);
#106=LINE('',#753,#164);
#107=LINE('',#755,#165);
#108=LINE('',#756,#166);
#109=LINE('',#759,#167);
#110=LINE('',#761,#168);
#111=LINE('',#763,#169);
#112=LINE('',#765,#170);
#113=LINE('',#767,#171);
#114=LINE('',#769,#172);
#115=LINE('',#775,#173);
#116=LINE('',#778,#174);
#117=LINE('',#783,#175);
#118=LINE('',#786,#176);
#119=LINE('',#792,#177);
#120=LINE('',#795,#178);
#121=LINE('',#798,#179);
#122=LINE('',#799,#180);
#123=LINE('',#801,#181);
#124=LINE('',#803,#182);
#125=LINE('',#805,#183);
#126=LINE('',#806,#184);
#127=LINE('',#809,#185);
#128=LINE('',#811,#186);
#129=LINE('',#813,#187);
#130=LINE('',#814,#188);
#131=LINE('',#820,#189);
#132=LINE('',#823,#190);
#133=LINE('',#824,#191);
#134=LINE('',#826,#192);
#135=LINE('',#827,#193);
#136=LINE('',#830,#194);
#137=LINE('',#831,#195);
#138=LINE('',#834,#196);
#139=LINE('',#837,#197);
#140=LINE('',#839,#198);
#141=LINE('',#841,#199);
#142=LINE('',#844,#200);
#143=LINE('',#847,#201);
#144=LINE('',#849,#202);
#145=LINE('',#850,#203);
#146=LINE('',#853,#204);
#147=LINE('',#855,#205);
#148=LINE('',#856,#206);
#149=LINE('',#860,#207);
#150=LINE('',#863,#208);
#151=LINE('',#864,#209);
#152=LINE('',#869,#210);
#153=LINE('',#871,#211);
#154=LINE('',#872,#212);
#155=LINE('',#876,#213);
#156=LINE('',#879,#214);
#157=LINE('',#880,#215);
#158=LINE('',#886,#216);
#159=VECTOR('',#595,0.393700787401575);
#160=VECTOR('',#596,0.393700787401575);
#161=VECTOR('',#599,0.393700787401575);
#162=VECTOR('',#600,0.393700787401575);
#163=VECTOR('',#603,0.393700787401575);
#164=VECTOR('',#604,0.393700787401575);
#165=VECTOR('',#605,0.393700787401575);
#166=VECTOR('',#606,0.393700787401575);
#167=VECTOR('',#609,0.393700787401575);
#168=VECTOR('',#610,0.393700787401575);
#169=VECTOR('',#611,0.393700787401575);
#170=VECTOR('',#612,0.393700787401575);
#171=VECTOR('',#613,0.393700787401575);
#172=VECTOR('',#614,0.393700787401575);
#173=VECTOR('',#619,0.393700787401575);
#174=VECTOR('',#622,0.393700787401575);
#175=VECTOR('',#625,0.393700787401575);
#176=VECTOR('',#628,0.393700787401575);
#177=VECTOR('',#633,0.393700787401575);
#178=VECTOR('',#636,0.393700787401575);
#179=VECTOR('',#639,0.393700787401575);
#180=VECTOR('',#640,0.393700787401575);
#181=VECTOR('',#641,0.393700787401575);
#182=VECTOR('',#642,0.393700787401575);
#183=VECTOR('',#643,0.393700787401575);
#184=VECTOR('',#644,0.393700787401575);
#185=VECTOR('',#647,0.393700787401575);
#186=VECTOR('',#648,0.393700787401575);
#187=VECTOR('',#649,0.393700787401575);
#188=VECTOR('',#650,0.393700787401575);
#189=VECTOR('',#657,0.393700787401575);
#190=VECTOR('',#660,0.393700787401575);
#191=VECTOR('',#661,0.393700787401575);
#192=VECTOR('',#662,0.393700787401575);
#193=VECTOR('',#663,0.393700787401575);
#194=VECTOR('',#666,0.393700787401575);
#195=VECTOR('',#667,0.393700787401575);
#196=VECTOR('',#670,0.393700787401575);
#197=VECTOR('',#675,0.393700787401575);
#198=VECTOR('',#678,0.393700787401575);
#199=VECTOR('',#681,0.393700787401575);
#200=VECTOR('',#686,0.393700787401575);
#201=VECTOR('',#689,0.393700787401575);
#202=VECTOR('',#690,0.393700787401575);
#203=VECTOR('',#691,0.393700787401575);
#204=VECTOR('',#694,0.393700787401575);
#205=VECTOR('',#695,0.393700787401575);
#206=VECTOR('',#696,0.393700787401575);
#207=VECTOR('',#701,0.393700787401575);
#208=VECTOR('',#704,0.393700787401575);
#209=VECTOR('',#705,0.393700787401575);
#210=VECTOR('',#712,0.393700787401575);
#211=VECTOR('',#713,0.393700787401575);
#212=VECTOR('',#714,0.393700787401575);
#213=VECTOR('',#719,0.393700787401575);
#214=VECTOR('',#722,0.393700787401575);
#215=VECTOR('',#723,0.393700787401575);
#216=VECTOR('',#734,0.393700787401575);
#217=VERTEX_POINT('',#739);
#218=VERTEX_POINT('',#740);
#219=VERTEX_POINT('',#742);
#220=VERTEX_POINT('',#744);
#221=VERTEX_POINT('',#746);
#222=VERTEX_POINT('',#750);
#223=VERTEX_POINT('',#752);
#224=VERTEX_POINT('',#754);
#225=VERTEX_POINT('',#758);
#226=VERTEX_POINT('',#760);
#227=VERTEX_POINT('',#762);
#228=VERTEX_POINT('',#764);
#229=VERTEX_POINT('',#766);
#230=VERTEX_POINT('',#768);
#231=VERTEX_POINT('',#771);
#232=VERTEX_POINT('',#772);
#233=VERTEX_POINT('',#774);
#234=VERTEX_POINT('',#776);
#235=VERTEX_POINT('',#779);
#236=VERTEX_POINT('',#780);
#237=VERTEX_POINT('',#782);
#238=VERTEX_POINT('',#784);
#239=VERTEX_POINT('',#788);
#240=VERTEX_POINT('',#789);
#241=VERTEX_POINT('',#791);
#242=VERTEX_POINT('',#793);
#243=VERTEX_POINT('',#797);
#244=VERTEX_POINT('',#800);
#245=VERTEX_POINT('',#802);
#246=VERTEX_POINT('',#804);
#247=VERTEX_POINT('',#808);
#248=VERTEX_POINT('',#810);
#249=VERTEX_POINT('',#812);
#250=VERTEX_POINT('',#816);
#251=VERTEX_POINT('',#818);
#252=VERTEX_POINT('',#822);
#253=VERTEX_POINT('',#825);
#254=VERTEX_POINT('',#829);
#255=VERTEX_POINT('',#833);
#256=VERTEX_POINT('',#846);
#257=VERTEX_POINT('',#848);
#258=VERTEX_POINT('',#852);
#259=VERTEX_POINT('',#854);
#260=VERTEX_POINT('',#858);
#261=VERTEX_POINT('',#862);
#262=VERTEX_POINT('',#868);
#263=VERTEX_POINT('',#870);
#264=VERTEX_POINT('',#874);
#265=VERTEX_POINT('',#878);
#266=EDGE_CURVE('',#217,#218,#101,.T.);
#267=EDGE_CURVE('',#219,#217,#102,.T.);
#268=EDGE_CURVE('',#220,#219,#98,.T.);
#269=EDGE_CURVE('',#221,#220,#103,.T.);
#270=EDGE_CURVE('',#218,#221,#104,.T.);
#271=EDGE_CURVE('',#222,#218,#105,.T.);
#272=EDGE_CURVE('',#222,#223,#106,.T.);
#273=EDGE_CURVE('',#224,#223,#107,.T.);
#274=EDGE_CURVE('',#217,#224,#108,.T.);
#275=EDGE_CURVE('',#221,#225,#109,.T.);
#276=EDGE_CURVE('',#225,#226,#110,.T.);
#277=EDGE_CURVE('',#226,#227,#111,.T.);
#278=EDGE_CURVE('',#227,#228,#112,.T.);
#279=EDGE_CURVE('',#228,#229,#113,.T.);
#280=EDGE_CURVE('',#229,#230,#114,.T.);
#281=EDGE_CURVE('',#230,#222,#27,.T.);
#282=EDGE_CURVE('',#231,#232,#28,.T.);
#283=EDGE_CURVE('',#232,#233,#115,.T.);
#284=EDGE_CURVE('',#233,#234,#29,.T.);
#285=EDGE_CURVE('',#234,#231,#116,.T.);
#286=EDGE_CURVE('',#235,#236,#30,.T.);
#287=EDGE_CURVE('',#236,#237,#117,.T.);
#288=EDGE_CURVE('',#237,#238,#31,.T.);
#289=EDGE_CURVE('',#238,#235,#118,.T.);
#290=EDGE_CURVE('',#239,#240,#32,.T.);
#291=EDGE_CURVE('',#240,#241,#119,.T.);
#292=EDGE_CURVE('',#241,#242,#99,.T.);
#293=EDGE_CURVE('',#242,#239,#120,.T.);
#294=EDGE_CURVE('',#242,#243,#121,.F.);
#295=EDGE_CURVE('',#243,#228,#122,.T.);
#296=EDGE_CURVE('',#244,#227,#123,.T.);
#297=EDGE_CURVE('',#244,#245,#124,.F.);
#298=EDGE_CURVE('',#246,#245,#125,.T.);
#299=EDGE_CURVE('',#239,#246,#126,.F.);
#300=EDGE_CURVE('',#247,#241,#127,.F.);
#301=EDGE_CURVE('',#248,#247,#128,.T.);
#302=EDGE_CURVE('',#248,#249,#129,.T.);
#303=EDGE_CURVE('',#243,#249,#130,.T.);
#304=EDGE_CURVE('',#250,#246,#33,.T.);
#305=EDGE_CURVE('',#245,#251,#100,.T.);
#306=EDGE_CURVE('',#251,#250,#131,.T.);
#307=EDGE_CURVE('',#252,#220,#132,.T.);
#308=EDGE_CURVE('',#250,#252,#133,.F.);
#309=EDGE_CURVE('',#251,#253,#134,.F.);
#310=EDGE_CURVE('',#253,#225,#135,.F.);
#311=EDGE_CURVE('',#254,#244,#136,.T.);
#312=EDGE_CURVE('',#254,#253,#137,.T.);
#313=EDGE_CURVE('',#219,#255,#138,.T.);
#314=EDGE_CURVE('',#255,#252,#34,.T.);
#315=EDGE_CURVE('',#255,#224,#139,.F.);
#316=EDGE_CURVE('',#249,#229,#140,.T.);
#317=EDGE_CURVE('',#254,#226,#141,.T.);
#318=EDGE_CURVE('',#248,#230,#142,.T.);
#319=EDGE_CURVE('',#247,#256,#143,.F.);
#320=EDGE_CURVE('',#257,#256,#144,.T.);
#321=EDGE_CURVE('',#257,#248,#145,.T.);
#322=EDGE_CURVE('',#258,#236,#146,.T.);
#323=EDGE_CURVE('',#259,#258,#147,.T.);
#324=EDGE_CURVE('',#237,#259,#148,.T.);
#325=EDGE_CURVE('',#260,#259,#35,.T.);
#326=EDGE_CURVE('',#238,#260,#149,.T.);
#327=EDGE_CURVE('',#261,#260,#150,.T.);
#328=EDGE_CURVE('',#235,#261,#151,.T.);
#329=EDGE_CURVE('',#258,#261,#36,.T.);
#330=EDGE_CURVE('',#262,#232,#152,.T.);
#331=EDGE_CURVE('',#263,#262,#153,.T.);
#332=EDGE_CURVE('',#233,#263,#154,.T.);
#333=EDGE_CURVE('',#264,#263,#37,.T.);
#334=EDGE_CURVE('',#234,#264,#155,.T.);
#335=EDGE_CURVE('',#265,#264,#156,.T.);
#336=EDGE_CURVE('',#231,#265,#157,.T.);
#337=EDGE_CURVE('',#262,#265,#38,.T.);
#338=EDGE_CURVE('',#223,#257,#39,.T.);
#339=EDGE_CURVE('',#256,#240,#158,.F.);
#340=ORIENTED_EDGE('',*,*,#266,.F.);
#341=ORIENTED_EDGE('',*,*,#267,.F.);
#342=ORIENTED_EDGE('',*,*,#268,.F.);
#343=ORIENTED_EDGE('',*,*,#269,.F.);
#344=ORIENTED_EDGE('',*,*,#270,.F.);
#345=ORIENTED_EDGE('',*,*,#266,.T.);
#346=ORIENTED_EDGE('',*,*,#271,.F.);
#347=ORIENTED_EDGE('',*,*,#272,.T.);
#348=ORIENTED_EDGE('',*,*,#273,.F.);
#349=ORIENTED_EDGE('',*,*,#274,.F.);
#350=ORIENTED_EDGE('',*,*,#270,.T.);
#351=ORIENTED_EDGE('',*,*,#275,.T.);
#352=ORIENTED_EDGE('',*,*,#276,.T.);
#353=ORIENTED_EDGE('',*,*,#277,.T.);
#354=ORIENTED_EDGE('',*,*,#278,.T.);
#355=ORIENTED_EDGE('',*,*,#279,.T.);
#356=ORIENTED_EDGE('',*,*,#280,.T.);
#357=ORIENTED_EDGE('',*,*,#281,.T.);
#358=ORIENTED_EDGE('',*,*,#271,.T.);
#359=ORIENTED_EDGE('',*,*,#282,.T.);
#360=ORIENTED_EDGE('',*,*,#283,.T.);
#361=ORIENTED_EDGE('',*,*,#284,.T.);
#362=ORIENTED_EDGE('',*,*,#285,.T.);
#363=ORIENTED_EDGE('',*,*,#286,.T.);
#364=ORIENTED_EDGE('',*,*,#287,.T.);
#365=ORIENTED_EDGE('',*,*,#288,.T.);
#366=ORIENTED_EDGE('',*,*,#289,.T.);
#367=ORIENTED_EDGE('',*,*,#290,.T.);
#368=ORIENTED_EDGE('',*,*,#291,.T.);
#369=ORIENTED_EDGE('',*,*,#292,.T.);
#370=ORIENTED_EDGE('',*,*,#293,.T.);
#371=ORIENTED_EDGE('',*,*,#293,.F.);
#372=ORIENTED_EDGE('',*,*,#294,.T.);
#373=ORIENTED_EDGE('',*,*,#295,.T.);
#374=ORIENTED_EDGE('',*,*,#278,.F.);
#375=ORIENTED_EDGE('',*,*,#296,.F.);
#376=ORIENTED_EDGE('',*,*,#297,.T.);
#377=ORIENTED_EDGE('',*,*,#298,.F.);
#378=ORIENTED_EDGE('',*,*,#299,.F.);
#379=ORIENTED_EDGE('',*,*,#292,.F.);
#380=ORIENTED_EDGE('',*,*,#300,.F.);
#381=ORIENTED_EDGE('',*,*,#301,.F.);
#382=ORIENTED_EDGE('',*,*,#302,.T.);
#383=ORIENTED_EDGE('',*,*,#303,.F.);
#384=ORIENTED_EDGE('',*,*,#294,.F.);
#385=ORIENTED_EDGE('',*,*,#304,.T.);
#386=ORIENTED_EDGE('',*,*,#298,.T.);
#387=ORIENTED_EDGE('',*,*,#305,.T.);
#388=ORIENTED_EDGE('',*,*,#306,.T.);
#389=ORIENTED_EDGE('',*,*,#269,.T.);
#390=ORIENTED_EDGE('',*,*,#307,.F.);
#391=ORIENTED_EDGE('',*,*,#308,.F.);
#392=ORIENTED_EDGE('',*,*,#306,.F.);
#393=ORIENTED_EDGE('',*,*,#309,.T.);
#394=ORIENTED_EDGE('',*,*,#310,.T.);
#395=ORIENTED_EDGE('',*,*,#275,.F.);
#396=ORIENTED_EDGE('',*,*,#305,.F.);
#397=ORIENTED_EDGE('',*,*,#297,.F.);
#398=ORIENTED_EDGE('',*,*,#311,.F.);
#399=ORIENTED_EDGE('',*,*,#312,.T.);
#400=ORIENTED_EDGE('',*,*,#309,.F.);
#401=ORIENTED_EDGE('',*,*,#268,.T.);
#402=ORIENTED_EDGE('',*,*,#313,.T.);
#403=ORIENTED_EDGE('',*,*,#314,.T.);
#404=ORIENTED_EDGE('',*,*,#307,.T.);
#405=ORIENTED_EDGE('',*,*,#267,.T.);
#406=ORIENTED_EDGE('',*,*,#274,.T.);
#407=ORIENTED_EDGE('',*,*,#315,.F.);
#408=ORIENTED_EDGE('',*,*,#313,.F.);
#409=ORIENTED_EDGE('',*,*,#303,.T.);
#410=ORIENTED_EDGE('',*,*,#316,.T.);
#411=ORIENTED_EDGE('',*,*,#279,.F.);
#412=ORIENTED_EDGE('',*,*,#295,.F.);
#413=ORIENTED_EDGE('',*,*,#311,.T.);
#414=ORIENTED_EDGE('',*,*,#296,.T.);
#415=ORIENTED_EDGE('',*,*,#277,.F.);
#416=ORIENTED_EDGE('',*,*,#317,.F.);
#417=ORIENTED_EDGE('',*,*,#310,.F.);
#418=ORIENTED_EDGE('',*,*,#312,.F.);
#419=ORIENTED_EDGE('',*,*,#317,.T.);
#420=ORIENTED_EDGE('',*,*,#276,.F.);
#421=ORIENTED_EDGE('',*,*,#318,.T.);
#422=ORIENTED_EDGE('',*,*,#280,.F.);
#423=ORIENTED_EDGE('',*,*,#316,.F.);
#424=ORIENTED_EDGE('',*,*,#302,.F.);
#425=ORIENTED_EDGE('',*,*,#301,.T.);
#426=ORIENTED_EDGE('',*,*,#319,.T.);
#427=ORIENTED_EDGE('',*,*,#320,.F.);
#428=ORIENTED_EDGE('',*,*,#321,.T.);
#429=ORIENTED_EDGE('',*,*,#322,.F.);
#430=ORIENTED_EDGE('',*,*,#323,.F.);
#431=ORIENTED_EDGE('',*,*,#324,.F.);
#432=ORIENTED_EDGE('',*,*,#287,.F.);
#433=ORIENTED_EDGE('',*,*,#324,.T.);
#434=ORIENTED_EDGE('',*,*,#325,.F.);
#435=ORIENTED_EDGE('',*,*,#326,.F.);
#436=ORIENTED_EDGE('',*,*,#288,.F.);
#437=ORIENTED_EDGE('',*,*,#326,.T.);
#438=ORIENTED_EDGE('',*,*,#327,.F.);
#439=ORIENTED_EDGE('',*,*,#328,.F.);
#440=ORIENTED_EDGE('',*,*,#289,.F.);
#441=ORIENTED_EDGE('',*,*,#328,.T.);
#442=ORIENTED_EDGE('',*,*,#329,.F.);
#443=ORIENTED_EDGE('',*,*,#322,.T.);
#444=ORIENTED_EDGE('',*,*,#286,.F.);
#445=ORIENTED_EDGE('',*,*,#330,.F.);
#446=ORIENTED_EDGE('',*,*,#331,.F.);
#447=ORIENTED_EDGE('',*,*,#332,.F.);
#448=ORIENTED_EDGE('',*,*,#283,.F.);
#449=ORIENTED_EDGE('',*,*,#332,.T.);
#450=ORIENTED_EDGE('',*,*,#333,.F.);
#451=ORIENTED_EDGE('',*,*,#334,.F.);
#452=ORIENTED_EDGE('',*,*,#284,.F.);
#453=ORIENTED_EDGE('',*,*,#334,.T.);
#454=ORIENTED_EDGE('',*,*,#335,.F.);
#455=ORIENTED_EDGE('',*,*,#336,.F.);
#456=ORIENTED_EDGE('',*,*,#285,.F.);
#457=ORIENTED_EDGE('',*,*,#336,.T.);
#458=ORIENTED_EDGE('',*,*,#337,.F.);
#459=ORIENTED_EDGE('',*,*,#330,.T.);
#460=ORIENTED_EDGE('',*,*,#282,.F.);
#461=ORIENTED_EDGE('',*,*,#321,.F.);
#462=ORIENTED_EDGE('',*,*,#338,.F.);
#463=ORIENTED_EDGE('',*,*,#272,.F.);
#464=ORIENTED_EDGE('',*,*,#281,.F.);
#465=ORIENTED_EDGE('',*,*,#318,.F.);
#466=ORIENTED_EDGE('',*,*,#291,.F.);
#467=ORIENTED_EDGE('',*,*,#339,.F.);
#468=ORIENTED_EDGE('',*,*,#319,.F.);
#469=ORIENTED_EDGE('',*,*,#300,.T.);
#470=ORIENTED_EDGE('',*,*,#290,.F.);
#471=ORIENTED_EDGE('',*,*,#299,.T.);
#472=ORIENTED_EDGE('',*,*,#304,.F.);
#473=ORIENTED_EDGE('',*,*,#308,.T.);
#474=ORIENTED_EDGE('',*,*,#314,.F.);
#475=ORIENTED_EDGE('',*,*,#315,.T.);
#476=ORIENTED_EDGE('',*,*,#273,.T.);
#477=ORIENTED_EDGE('',*,*,#338,.T.);
#478=ORIENTED_EDGE('',*,*,#320,.T.);
#479=ORIENTED_EDGE('',*,*,#339,.T.);
#480=ORIENTED_EDGE('',*,*,#337,.T.);
#481=ORIENTED_EDGE('',*,*,#335,.T.);
#482=ORIENTED_EDGE('',*,*,#333,.T.);
#483=ORIENTED_EDGE('',*,*,#331,.T.);
#484=ORIENTED_EDGE('',*,*,#329,.T.);
#485=ORIENTED_EDGE('',*,*,#327,.T.);
#486=ORIENTED_EDGE('',*,*,#325,.T.);
#487=ORIENTED_EDGE('',*,*,#323,.T.);
#488=PLANE('',#548);
#489=PLANE('',#550);
#490=PLANE('',#551);
#491=PLANE('',#560);
#492=PLANE('',#561);
#493=PLANE('',#565);
#494=PLANE('',#566);
#495=PLANE('',#569);
#496=PLANE('',#570);
#497=PLANE('',#571);
#498=PLANE('',#572);
#499=PLANE('',#573);
#500=PLANE('',#574);
#501=PLANE('',#575);
#502=PLANE('',#578);
#503=PLANE('',#581);
#504=PLANE('',#584);
#505=PLANE('',#589);
#506=PLANE('',#590);
#507=ADVANCED_FACE('',(#40),#488,.F.);
#508=ADVANCED_FACE('',(#41),#489,.T.);
#509=ADVANCED_FACE('',(#42,#23,#24),#490,.F.);
#510=ADVANCED_FACE('',(#43),#15,.T.);
#511=ADVANCED_FACE('',(#44),#491,.T.);
#512=ADVANCED_FACE('',(#45),#492,.F.);
#513=ADVANCED_FACE('',(#46),#16,.T.);
#514=ADVANCED_FACE('',(#47),#493,.T.);
#515=ADVANCED_FACE('',(#48),#494,.F.);
#516=ADVANCED_FACE('',(#49),#17,.T.);
#517=ADVANCED_FACE('',(#50),#495,.T.);
#518=ADVANCED_FACE('',(#51),#496,.T.);
#519=ADVANCED_FACE('',(#52),#497,.T.);
#520=ADVANCED_FACE('',(#53),#498,.F.);
#521=ADVANCED_FACE('',(#54),#499,.F.);
#522=ADVANCED_FACE('',(#55),#500,.T.);
#523=ADVANCED_FACE('',(#56),#501,.T.);
#524=ADVANCED_FACE('',(#57),#18,.F.);
#525=ADVANCED_FACE('',(#58),#502,.T.);
#526=ADVANCED_FACE('',(#59),#19,.F.);
#527=ADVANCED_FACE('',(#60),#503,.T.);
#528=ADVANCED_FACE('',(#61),#20,.F.);
#529=ADVANCED_FACE('',(#62),#504,.T.);
#530=ADVANCED_FACE('',(#63),#21,.F.);
#531=ADVANCED_FACE('',(#64),#22,.F.);
#532=ADVANCED_FACE('',(#65),#505,.T.);
#533=ADVANCED_FACE('',(#66,#25,#26),#506,.T.);
#534=CLOSED_SHELL('',(#507,#508,#509,#510,#511,#512,#513,#514,#515,#516,
#517,#518,#519,#520,#521,#522,#523,#524,#525,#526,#527,#528,#529,#530,#531,
#532,#533));
#535=DERIVED_UNIT_ELEMENT(#537,1.);
#536=DERIVED_UNIT_ELEMENT(#895,-3.);
#537=(
MASS_UNIT()
NAMED_UNIT(*)
SI_UNIT(.KILO.,.GRAM.)
);
#538=DERIVED_UNIT((#535,#536));
#539=MEASURE_REPRESENTATION_ITEM('density measure',
POSITIVE_RATIO_MEASURE(7850.),#538);
#540=PROPERTY_DEFINITION_REPRESENTATION(#545,#542);
#541=PROPERTY_DEFINITION_REPRESENTATION(#546,#543);
#542=REPRESENTATION('material name',(#544),#890);
#543=REPRESENTATION('density',(#539),#890);
#544=DESCRIPTIVE_REPRESENTATION_ITEM('Steel','Steel');
#545=PROPERTY_DEFINITION('material property','material name',#903);
#546=PROPERTY_DEFINITION('material property','density of part',#903);
#547=AXIS2_PLACEMENT_3D('',#737,#591,#592);
#548=AXIS2_PLACEMENT_3D('',#738,#593,#594);
#549=AXIS2_PLACEMENT_3D('',#745,#597,#598);
#550=AXIS2_PLACEMENT_3D('',#749,#601,#602);
#551=AXIS2_PLACEMENT_3D('',#757,#607,#608);
#552=AXIS2_PLACEMENT_3D('',#770,#615,#616);
#553=AXIS2_PLACEMENT_3D('',#773,#617,#618);
#554=AXIS2_PLACEMENT_3D('',#777,#620,#621);
#555=AXIS2_PLACEMENT_3D('',#781,#623,#624);
#556=AXIS2_PLACEMENT_3D('',#785,#626,#627);
#557=AXIS2_PLACEMENT_3D('',#787,#629,#630);
#558=AXIS2_PLACEMENT_3D('',#790,#631,#632);
#559=AXIS2_PLACEMENT_3D('',#794,#634,#635);
#560=AXIS2_PLACEMENT_3D('',#796,#637,#638);
#561=AXIS2_PLACEMENT_3D('',#807,#645,#646);
#562=AXIS2_PLACEMENT_3D('',#815,#651,#652);
#563=AXIS2_PLACEMENT_3D('',#817,#653,#654);
#564=AXIS2_PLACEMENT_3D('',#819,#655,#656);
#565=AXIS2_PLACEMENT_3D('',#821,#658,#659);
#566=AXIS2_PLACEMENT_3D('',#828,#664,#665);
#567=AXIS2_PLACEMENT_3D('',#832,#668,#669);
#568=AXIS2_PLACEMENT_3D('',#835,#671,#672);
#569=AXIS2_PLACEMENT_3D('',#836,#673,#674);
#570=AXIS2_PLACEMENT_3D('',#838,#676,#677);
#571=AXIS2_PLACEMENT_3D('',#840,#679,#680);
#572=AXIS2_PLACEMENT_3D('',#842,#682,#683);
#573=AXIS2_PLACEMENT_3D('',#843,#684,#685);
#574=AXIS2_PLACEMENT_3D('',#845,#687,#688);
#575=AXIS2_PLACEMENT_3D('',#851,#692,#693);
#576=AXIS2_PLACEMENT_3D('',#857,#697,#698);
#577=AXIS2_PLACEMENT_3D('',#859,#699,#700);
#578=AXIS2_PLACEMENT_3D('',#861,#702,#703);
#579=AXIS2_PLACEMENT_3D('',#865,#706,#707);
#580=AXIS2_PLACEMENT_3D('',#866,#708,#709);
#581=AXIS2_PLACEMENT_3D('',#867,#710,#711);
#582=AXIS2_PLACEMENT_3D('',#873,#715,#716);
#583=AXIS2_PLACEMENT_3D('',#875,#717,#718);
#584=AXIS2_PLACEMENT_3D('',#877,#720,#721);
#585=AXIS2_PLACEMENT_3D('',#881,#724,#725);
#586=AXIS2_PLACEMENT_3D('',#882,#726,#727);
#587=AXIS2_PLACEMENT_3D('',#883,#728,#729);
#588=AXIS2_PLACEMENT_3D('',#884,#730,#731);
#589=AXIS2_PLACEMENT_3D('',#885,#732,#733);
#590=AXIS2_PLACEMENT_3D('',#887,#735,#736);
#591=DIRECTION('axis',(0.,0.,1.));
#592=DIRECTION('refdir',(1.,0.,0.));
#593=DIRECTION('center_axis',(-0.258819045102521,0.,0.965925826289068));
#594=DIRECTION('ref_axis',(-0.965925826289068,6.31527328936449E-18,-0.258819045102521));
#595=DIRECTION('',(-0.965925826289068,2.36329137918951E-17,-0.258819045102521));
#596=DIRECTION('',(0.,1.,0.));
#597=DIRECTION('center_axis',(-0.258819045102521,0.,0.965925826289068));
#598=DIRECTION('ref_axis',(0.965925826289068,-1.31938126528814E-16,0.258819045102521));
#599=DIRECTION('',(0.965925826289068,0.,0.258819045102521));
#600=DIRECTION('',(0.,-1.,0.));
#601=DIRECTION('center_axis',(2.44665927224339E-17,1.,0.));
#602=DIRECTION('ref_axis',(-1.,2.44665927224339E-17,0.));
#603=DIRECTION('',(1.,-2.44665927224339E-17,0.));
#604=DIRECTION('',(0.,0.,1.));
#605=DIRECTION('',(-1.,2.44665927224339E-17,0.));
#606=DIRECTION('',(0.,0.,1.));
#607=DIRECTION('center_axis',(0.,0.,1.));
#608=DIRECTION('ref_axis',(1.,0.,0.));
#609=DIRECTION('',(-1.,0.,0.));
#610=DIRECTION('',(0.,1.,0.));
#611=DIRECTION('',(-1.,0.,0.));
#612=DIRECTION('',(0.,1.,0.));
#613=DIRECTION('',(1.,0.,0.));
#614=DIRECTION('',(0.,1.,0.));
#615=DIRECTION('center_axis',(0.,0.,1.));
#616=DIRECTION('ref_axis',(-1.,1.70740499604016E-15,0.));
#617=DIRECTION('center_axis',(0.,0.,1.));
#618=DIRECTION('ref_axis',(0.,-1.,0.));
#619=DIRECTION('',(-1.,0.,0.));
#620=DIRECTION('center_axis',(0.,0.,1.));
#621=DIRECTION('ref_axis',(0.,1.,0.));
#622=DIRECTION('',(1.,-1.17072615216926E-16,0.));
#623=DIRECTION('center_axis',(0.,0.,1.));
#624=DIRECTION('ref_axis',(-1.0449157878825E-15,-1.,0.));
#625=DIRECTION('',(-1.,0.,0.));
#626=DIRECTION('center_axis',(0.,0.,1.));
#627=DIRECTION('ref_axis',(2.089831575765E-15,1.,0.));
#628=DIRECTION('',(1.,-7.02435691301559E-16,0.));
#629=DIRECTION('center_axis',(0.,0.,1.));
#630=DIRECTION('ref_axis',(-0.707106781186572,0.707106781186523,0.));
#631=DIRECTION('center_axis',(0.,0.,-1.));
#632=DIRECTION('ref_axis',(-0.707106781186572,0.707106781186523,0.));
#633=DIRECTION('',(0.,0.,-1.));
#634=DIRECTION('center_axis',(0.,-0.707106781186546,0.707106781186549));
#635=DIRECTION('ref_axis',(9.65854120745434E-17,0.707106781186549,0.707106781186546));
#636=DIRECTION('',(0.,0.,1.));
#637=DIRECTION('center_axis',(-1.,0.,0.));
#638=DIRECTION('ref_axis',(0.,-1.,0.));
#639=DIRECTION('',(0.,0.707106781186549,0.707106781186546));
#640=DIRECTION('',(0.,0.,-1.));
#641=DIRECTION('',(0.,0.,-1.));
#642=DIRECTION('',(0.,0.707106781186548,-0.707106781186548));
#643=DIRECTION('',(0.,0.,-1.));
#644=DIRECTION('',(0.,1.,0.));
#645=DIRECTION('center_axis',(0.,-0.707106781186546,0.707106781186549));
#646=DIRECTION('ref_axis',(0.,-0.707106781186549,-0.707106781186546));
#647=DIRECTION('',(1.,0.,0.));
#648=DIRECTION('',(2.13154012854168E-15,0.707106781186549,0.707106781186546));
#649=DIRECTION('',(0.,-0.707106781186549,-0.707106781186546));
#650=DIRECTION('',(1.,0.,0.));
#651=DIRECTION('center_axis',(0.,0.,1.));
#652=DIRECTION('ref_axis',(-0.707106781186572,-0.707106781186523,0.));
#653=DIRECTION('center_axis',(0.,0.,-1.));
#654=DIRECTION('ref_axis',(-0.707106781186572,-0.707106781186523,0.));
#655=DIRECTION('center_axis',(0.,0.707106781186548,0.707106781186548));
#656=DIRECTION('ref_axis',(9.65854120745432E-17,-0.707106781186547,0.707106781186547));
#657=DIRECTION('',(0.,0.,1.));
#658=DIRECTION('center_axis',(0.,-1.,0.));
#659=DIRECTION('ref_axis',(1.,0.,0.));
#660=DIRECTION('',(0.,0.,-1.));
#661=DIRECTION('',(-1.,0.,0.));
#662=DIRECTION('',(-1.,0.,0.));
#663=DIRECTION('',(0.,0.,1.));
#664=DIRECTION('center_axis',(0.,0.707106781186548,0.707106781186548));
#665=DIRECTION('ref_axis',(0.,-0.707106781186548,0.707106781186548));
#666=DIRECTION('',(-1.,0.,0.));
#667=DIRECTION('',(0.,-0.707106781186548,0.707106781186548));
#668=DIRECTION('center_axis',(0.,0.,1.));
#669=DIRECTION('ref_axis',(0.707106781186572,-0.707106781186523,0.));
#670=DIRECTION('',(0.,0.,1.));
#671=DIRECTION('center_axis',(0.,0.,-1.));
#672=DIRECTION('ref_axis',(0.707106781186572,-0.707106781186523,0.));
#673=DIRECTION('center_axis',(1.,0.,0.));
#674=DIRECTION('ref_axis',(0.,1.,0.));
#675=DIRECTION('',(0.,-1.,0.));
#676=DIRECTION('center_axis',(0.,1.,0.));
#677=DIRECTION('ref_axis',(1.,0.,0.));
#678=DIRECTION('',(0.,0.,-1.));
#679=DIRECTION('center_axis',(0.,-1.,0.));
#680=DIRECTION('ref_axis',(-1.,0.,0.));
#681=DIRECTION('',(0.,0.,-1.));
#682=DIRECTION('center_axis',(1.,0.,0.));
#683=DIRECTION('ref_axis',(0.,0.,-1.));
#684=DIRECTION('center_axis',(1.,0.,0.));
#685=DIRECTION('ref_axis',(0.,0.,-1.));
#686=DIRECTION('',(0.,0.,-1.));
#687=DIRECTION('center_axis',(1.,-3.01445295852613E-15,0.));
#688=DIRECTION('ref_axis',(3.01445295852613E-15,1.,0.));
#689=DIRECTION('',(0.,0.,-1.));
#690=DIRECTION('',(3.01445295852613E-15,1.,0.));
#691=DIRECTION('',(0.,0.,-1.));
#692=DIRECTION('center_axis',(0.,-1.,0.));
#693=DIRECTION('ref_axis',(1.,0.,0.));
#694=DIRECTION('',(0.,0.,-1.));
#695=DIRECTION('',(1.,0.,0.));
#696=DIRECTION('',(0.,0.,1.));
#697=DIRECTION('center_axis',(0.,0.,1.));
#698=DIRECTION('ref_axis',(2.089831575765E-15,1.,0.));
#699=DIRECTION('center_axis',(0.,0.,-1.));
#700=DIRECTION('ref_axis',(2.089831575765E-15,1.,0.));
#701=DIRECTION('',(0.,0.,1.));
#702=DIRECTION('center_axis',(7.02435691301559E-16,1.,0.));
#703=DIRECTION('ref_axis',(-1.,7.02435691301559E-16,0.));
#704=DIRECTION('',(-1.,7.02435691301559E-16,0.));
#705=DIRECTION('',(0.,0.,1.));
#706=DIRECTION('center_axis',(0.,0.,1.));
#707=DIRECTION('ref_axis',(-1.0449157878825E-15,-1.,0.));
#708=DIRECTION('center_axis',(0.,0.,-1.));
#709=DIRECTION('ref_axis',(-1.0449157878825E-15,-1.,0.));
#710=DIRECTION('center_axis',(0.,-1.,0.));
#711=DIRECTION('ref_axis',(1.,0.,0.));
#712=DIRECTION('',(0.,0.,-1.));
#713=DIRECTION('',(1.,0.,0.));
#714=DIRECTION('',(0.,0.,1.));
#715=DIRECTION('center_axis',(0.,0.,1.));
#716=DIRECTION('ref_axis',(0.,1.,0.));
#717=DIRECTION('center_axis',(0.,0.,-1.));
#718=DIRECTION('ref_axis',(0.,1.,0.));
#719=DIRECTION('',(0.,0.,1.));
#720=DIRECTION('center_axis',(1.17072615216926E-16,1.,0.));
#721=DIRECTION('ref_axis',(-1.,1.17072615216926E-16,0.));
#722=DIRECTION('',(-1.,1.17072615216926E-16,0.));
#723=DIRECTION('',(0.,0.,1.));
#724=DIRECTION('center_axis',(0.,0.,1.));
#725=DIRECTION('ref_axis',(0.,-1.,0.));
#726=DIRECTION('center_axis',(0.,0.,-1.));
#727=DIRECTION('ref_axis',(0.,-1.,0.));
#728=DIRECTION('center_axis',(0.,0.,1.));
#729=DIRECTION('ref_axis',(-1.,1.70740499604016E-15,0.));
#730=DIRECTION('center_axis',(0.,0.,-1.));
#731=DIRECTION('ref_axis',(-1.,1.70740499604016E-15,0.));
#732=DIRECTION('center_axis',(0.,1.,0.));
#733=DIRECTION('ref_axis',(-1.,0.,0.));
#734=DIRECTION('',(1.,0.,0.));
#735=DIRECTION('center_axis',(0.,0.,1.));
#736=DIRECTION('ref_axis',(1.,0.,0.));
#737=CARTESIAN_POINT('',(0.,0.,0.));
#738=CARTESIAN_POINT('Origin',(3.0365,0.418,-0.160010217028217));
#739=CARTESIAN_POINT('',(3.0365,0.256,-0.160010217028217));
#740=CARTESIAN_POINT('',(2.9535,0.256,-0.18225));
#741=CARTESIAN_POINT('',(3.0541687453738,0.256,-0.155275890974037));
#742=CARTESIAN_POINT('',(3.0365,-0.413,-0.160010217028217));
#743=CARTESIAN_POINT('',(3.0365,0.00249999999999994,-0.160010217028217));
#744=CARTESIAN_POINT('',(3.0315,-0.418,-0.161349962990372));
#745=CARTESIAN_POINT('Origin',(3.0315,-0.413,-0.161349962990372));
#746=CARTESIAN_POINT('',(2.9535,-0.418,-0.18225));
#747=CARTESIAN_POINT('',(0.225740739587534,-0.418,-0.913150890974038));
#748=CARTESIAN_POINT('',(2.9535,0.209,-0.18225));
#749=CARTESIAN_POINT('Origin',(3.0315,0.256,0.));
#750=CARTESIAN_POINT('',(-0.5415,0.256,-0.18225));
#751=CARTESIAN_POINT('',(-0.5415,0.256,-0.18225));
#752=CARTESIAN_POINT('',(-0.5415,0.256,0.17225));
#753=CARTESIAN_POINT('',(-0.5415,0.256,0.));
#754=CARTESIAN_POINT('',(3.0365,0.256,0.17225));
#755=CARTESIAN_POINT('',(-0.5415,0.256,0.17225));
#756=CARTESIAN_POINT('',(3.0365,0.256,0.));
#757=CARTESIAN_POINT('Origin',(0.,0.,-0.18225));
#758=CARTESIAN_POINT('',(-0.6695,-0.418,-0.18225));
#759=CARTESIAN_POINT('',(-1.51575,-0.418,-0.18225));
#760=CARTESIAN_POINT('',(-0.6695,-0.373,-0.18225));
#761=CARTESIAN_POINT('',(-0.6695,-0.1965,-0.18225));
#762=CARTESIAN_POINT('',(-3.0365,-0.373,-0.18225));
#763=CARTESIAN_POINT('',(-1.51575,-0.373,-0.18225));
#764=CARTESIAN_POINT('',(-3.0365,0.373,-0.18225));
#765=CARTESIAN_POINT('',(-3.0365,0.2065,-0.18225));
#766=CARTESIAN_POINT('',(-0.6695,0.373,-0.18225));
#767=CARTESIAN_POINT('',(-1.51575,0.373,-0.18225));
#768=CARTESIAN_POINT('',(-0.6695,0.384,-0.18225));
#769=CARTESIAN_POINT('',(-0.6695,0.1965,-0.18225));
#770=CARTESIAN_POINT('Origin',(-0.5415,0.384,-0.18225));
#771=CARTESIAN_POINT('',(-2.25482283464567,-0.167322834645669,-0.18225));
#772=CARTESIAN_POINT('',(-2.25482283464567,0.167322834645669,-0.18225));
#773=CARTESIAN_POINT('Origin',(-2.25482283464567,1.27957889778822E-16,-0.18225));
#774=CARTESIAN_POINT('',(-2.62817716535433,0.167322834645669,-0.18225));
#775=CARTESIAN_POINT('',(-2.25482283464567,0.167322834645669,-0.18225));
#776=CARTESIAN_POINT('',(-2.62817716535433,-0.167322834645669,-0.18225));
#777=CARTESIAN_POINT('Origin',(-2.62817716535433,1.59831147528025E-16,-0.18225));
#778=CARTESIAN_POINT('',(-2.62817716535433,-0.167322834645669,-0.18225));
#779=CARTESIAN_POINT('',(-1.07482283464567,-0.167322834645669,-0.18225));
#780=CARTESIAN_POINT('',(-1.07482283464567,0.167322834645669,-0.18225));
#781=CARTESIAN_POINT('Origin',(-1.07482283464567,0.,-0.18225));
#782=CARTESIAN_POINT('',(-1.44817716535433,0.167322834645669,-0.18225));
#783=CARTESIAN_POINT('',(-1.07482283464567,0.167322834645669,-0.18225));
#784=CARTESIAN_POINT('',(-1.44817716535433,-0.167322834645669,-0.18225));
#785=CARTESIAN_POINT('Origin',(-1.44817716535433,1.27957889778822E-16,-0.18225));
#786=CARTESIAN_POINT('',(-1.44817716535433,-0.167322834645669,-0.18225));
#787=CARTESIAN_POINT('Origin',(-3.0315,0.413,0.));
#788=CARTESIAN_POINT('',(-3.0365,0.413,0.17225));
#789=CARTESIAN_POINT('',(-3.0315,0.418,0.17225));
#790=CARTESIAN_POINT('Origin',(-3.0315,0.413,0.17225));
#791=CARTESIAN_POINT('',(-3.0315,0.418,-0.12725));
#792=CARTESIAN_POINT('',(-3.0315,0.418,0.));
#793=CARTESIAN_POINT('',(-3.0365,0.413,-0.13225));
#794=CARTESIAN_POINT('Origin',(-3.0315,0.413,-0.13225));
#795=CARTESIAN_POINT('',(-3.0365,0.413,0.));
#796=CARTESIAN_POINT('Origin',(-3.0365,0.413,0.));
#797=CARTESIAN_POINT('',(-3.0365,0.373,-0.17225));
#798=CARTESIAN_POINT('',(-3.0365,0.4460625,-0.0991875000000001));
#799=CARTESIAN_POINT('',(-3.0365,0.373,-0.17225));
#800=CARTESIAN_POINT('',(-3.0365,-0.373,-0.17225));
#801=CARTESIAN_POINT('',(-3.0365,-0.373,-0.17225));
#802=CARTESIAN_POINT('',(-3.0365,-0.413,-0.13225));
#803=CARTESIAN_POINT('',(-3.0365,-0.2195625,-0.3256875));
#804=CARTESIAN_POINT('',(-3.0365,-0.413,0.17225));
#805=CARTESIAN_POINT('',(-3.0365,-0.413,0.));
#806=CARTESIAN_POINT('',(-3.0365,0.2065,0.17225));
#807=CARTESIAN_POINT('Origin',(-3.0315,0.413,-0.13225));
#808=CARTESIAN_POINT('',(-0.6695,0.418,-0.12725));
#809=CARTESIAN_POINT('',(-1.8505,0.418,-0.12725));
#810=CARTESIAN_POINT('',(-0.6695,0.384,-0.16125));
#811=CARTESIAN_POINT('',(-0.6695,0.438812499999998,-0.106437500000002));
#812=CARTESIAN_POINT('',(-0.6695,0.373,-0.17225));
#813=CARTESIAN_POINT('',(-0.6695,0.413,-0.13225));
#814=CARTESIAN_POINT('',(-1.51575,0.373,-0.17225));
#815=CARTESIAN_POINT('Origin',(-3.0315,-0.413,0.));
#816=CARTESIAN_POINT('',(-3.0315,-0.418,0.17225));
#817=CARTESIAN_POINT('Origin',(-3.0315,-0.413,0.17225));
#818=CARTESIAN_POINT('',(-3.0315,-0.418,-0.12725));
#819=CARTESIAN_POINT('Origin',(-3.0315,-0.413,-0.13225));
#820=CARTESIAN_POINT('',(-3.0315,-0.418,0.));
#821=CARTESIAN_POINT('Origin',(-3.0315,-0.418,0.));
#822=CARTESIAN_POINT('',(3.0315,-0.418,0.17225));
#823=CARTESIAN_POINT('',(3.0315,-0.418,0.));
#824=CARTESIAN_POINT('',(-1.51575,-0.418,0.17225));
#825=CARTESIAN_POINT('',(-0.6695,-0.418,-0.12725));
#826=CARTESIAN_POINT('',(-3.0315,-0.418,-0.12725));
#827=CARTESIAN_POINT('',(-0.6695,-0.418,-0.076125));
#828=CARTESIAN_POINT('Origin',(-3.0315,-0.373,-0.17225));
#829=CARTESIAN_POINT('',(-0.6695,-0.373,-0.17225));
#830=CARTESIAN_POINT('',(-1.51575,-0.373,-0.17225));
#831=CARTESIAN_POINT('',(-0.6695,-0.373,-0.17225));
#832=CARTESIAN_POINT('Origin',(3.0315,-0.413,0.));
#833=CARTESIAN_POINT('',(3.0365,-0.413,0.17225));
#834=CARTESIAN_POINT('',(3.0365,-0.413,0.));
#835=CARTESIAN_POINT('Origin',(3.0315,-0.413,0.17225));
#836=CARTESIAN_POINT('Origin',(3.0365,-0.413,0.));
#837=CARTESIAN_POINT('',(3.0365,-0.2065,0.17225));
#838=CARTESIAN_POINT('Origin',(-3.0365,0.373,-0.17225));
#839=CARTESIAN_POINT('',(-0.6695,0.373,-0.17225));
#840=CARTESIAN_POINT('Origin',(-0.6695,-0.373,-0.17225));
#841=CARTESIAN_POINT('',(-0.6695,-0.373,-0.17225));
#842=CARTESIAN_POINT('Origin',(-0.6695,-0.393,-0.15225));
#843=CARTESIAN_POINT('Origin',(-0.6695,0.393,-0.15225));
#844=CARTESIAN_POINT('',(-0.6695,0.384,0.));
#845=CARTESIAN_POINT('Origin',(-0.6695,0.384,0.));
#846=CARTESIAN_POINT('',(-0.6695,0.418,0.17225));
#847=CARTESIAN_POINT('',(-0.6695,0.418,0.));
#848=CARTESIAN_POINT('',(-0.6695,0.384000000000001,0.17225));
#849=CARTESIAN_POINT('',(-0.6695,0.413,0.17225));
#850=CARTESIAN_POINT('',(-0.6695,0.384,0.));
#851=CARTESIAN_POINT('Origin',(-1.44817716535433,0.167322834645669,0.));
#852=CARTESIAN_POINT('',(-1.07482283464567,0.167322834645669,0.17225));
#853=CARTESIAN_POINT('',(-1.07482283464567,0.167322834645669,0.));
#854=CARTESIAN_POINT('',(-1.44817716535433,0.167322834645669,0.17225));
#855=CARTESIAN_POINT('',(-1.07482283464567,0.167322834645669,0.17225));
#856=CARTESIAN_POINT('',(-1.44817716535433,0.167322834645669,0.));
#857=CARTESIAN_POINT('Origin',(-1.44817716535433,1.27957889778822E-16,0.));
#858=CARTESIAN_POINT('',(-1.44817716535433,-0.167322834645669,0.17225));
#859=CARTESIAN_POINT('Origin',(-1.44817716535433,1.27957889778822E-16,0.17225));
#860=CARTESIAN_POINT('',(-1.44817716535433,-0.167322834645669,0.));
#861=CARTESIAN_POINT('Origin',(-1.07482283464567,-0.167322834645669,0.));
#862=CARTESIAN_POINT('',(-1.07482283464567,-0.167322834645669,0.17225));
#863=CARTESIAN_POINT('',(-1.44817716535433,-0.167322834645669,0.17225));
#864=CARTESIAN_POINT('',(-1.07482283464567,-0.167322834645669,0.));
#865=CARTESIAN_POINT('Origin',(-1.07482283464567,0.,0.));
#866=CARTESIAN_POINT('Origin',(-1.07482283464567,0.,0.17225));
#867=CARTESIAN_POINT('Origin',(-2.62817716535433,0.167322834645669,0.));
#868=CARTESIAN_POINT('',(-2.25482283464567,0.167322834645669,0.17225));
#869=CARTESIAN_POINT('',(-2.25482283464567,0.167322834645669,0.));
#870=CARTESIAN_POINT('',(-2.62817716535433,0.167322834645669,0.17225));
#871=CARTESIAN_POINT('',(-2.25482283464567,0.167322834645669,0.17225));
#872=CARTESIAN_POINT('',(-2.62817716535433,0.167322834645669,0.));
#873=CARTESIAN_POINT('Origin',(-2.62817716535433,1.59831147528025E-16,0.));
#874=CARTESIAN_POINT('',(-2.62817716535433,-0.167322834645669,0.17225));
#875=CARTESIAN_POINT('Origin',(-2.62817716535433,1.59831147528025E-16,0.17225));
#876=CARTESIAN_POINT('',(-2.62817716535433,-0.167322834645669,0.));
#877=CARTESIAN_POINT('Origin',(-2.25482283464567,-0.167322834645669,0.));
#878=CARTESIAN_POINT('',(-2.25482283464567,-0.167322834645669,0.17225));
#879=CARTESIAN_POINT('',(-2.62817716535433,-0.167322834645669,0.17225));
#880=CARTESIAN_POINT('',(-2.25482283464567,-0.167322834645669,0.));
#881=CARTESIAN_POINT('Origin',(-2.25482283464567,1.27957889778822E-16,0.));
#882=CARTESIAN_POINT('Origin',(-2.25482283464567,1.27957889778822E-16,0.17225));
#883=CARTESIAN_POINT('Origin',(-0.5415,0.384,0.));
#884=CARTESIAN_POINT('Origin',(-0.5415,0.384,0.17225));
#885=CARTESIAN_POINT('Origin',(-0.6695,0.418,0.));
#886=CARTESIAN_POINT('',(-0.33475,0.418,0.17225));
#887=CARTESIAN_POINT('Origin',(0.,0.,0.17225));
#888=UNCERTAINTY_MEASURE_WITH_UNIT(LENGTH_MEASURE(0.000393700787401575),
#893,'DISTANCE_ACCURACY_VALUE',
'Maximum model space distance between geometric entities at asserted c
onnectivities');
#889=UNCERTAINTY_MEASURE_WITH_UNIT(LENGTH_MEASURE(0.000393700787401575),
#893,'DISTANCE_ACCURACY_VALUE',
'Maximum model space distance between geometric entities at asserted c
onnectivities');
#890=(
GEOMETRIC_REPRESENTATION_CONTEXT(3)
GLOBAL_UNCERTAINTY_ASSIGNED_CONTEXT((#888))
GLOBAL_UNIT_ASSIGNED_CONTEXT((#893,#897,#898))
REPRESENTATION_CONTEXT('','3D')
);
#891=(
GEOMETRIC_REPRESENTATION_CONTEXT(3)
GLOBAL_UNCERTAINTY_ASSIGNED_CONTEXT((#889))
GLOBAL_UNIT_ASSIGNED_CONTEXT((#893,#897,#898))
REPRESENTATION_CONTEXT('','3D')
);
#892=DIMENSIONAL_EXPONENTS(1.,0.,0.,0.,0.,0.,0.);
#893=(
CONVERSION_BASED_UNIT('inch',#896)
LENGTH_UNIT()
NAMED_UNIT(#892)
);
#894=(
LENGTH_UNIT()
NAMED_UNIT(*)
SI_UNIT(.MILLI.,.METRE.)
);
#895=(
LENGTH_UNIT()
NAMED_UNIT(*)
SI_UNIT($,.METRE.)
);
#896=LENGTH_MEASURE_WITH_UNIT(LENGTH_MEASURE(25.4),#894);
#897=(
NAMED_UNIT(*)
PLANE_ANGLE_UNIT()
SI_UNIT($,.RADIAN.)
);
#898=(
NAMED_UNIT(*)
SI_UNIT($,.STERADIAN.)
SOLID_ANGLE_UNIT()
);
#899=SHAPE_DEFINITION_REPRESENTATION(#900,#901);
#900=PRODUCT_DEFINITION_SHAPE('',$,#903);
#901=SHAPE_REPRESENTATION('',(#547),#890);
#902=PRODUCT_DEFINITION_CONTEXT('part definition',#907,'design');
#903=PRODUCT_DEFINITION('121L030803 - HURCO','121L030803 - HURCO v8',#904,
#902);
#904=PRODUCT_DEFINITION_FORMATION('',$,#909);
#905=PRODUCT_RELATED_PRODUCT_CATEGORY('121L030803 - HURCO v8',
'121L030803 - HURCO v8',(#909));
#906=APPLICATION_PROTOCOL_DEFINITION('international standard',
'automotive_design',2009,#907);
#907=APPLICATION_CONTEXT(
'Core Data for Automotive Mechanical Design Process');
#908=PRODUCT_CONTEXT('part definition',#907,'mechanical');
#909=PRODUCT('121L030803 - HURCO','121L030803 - HURCO v8',$,(#908));
#910=PRESENTATION_STYLE_ASSIGNMENT((#911));
#911=SURFACE_STYLE_USAGE(.BOTH.,#912);
#912=SURFACE_SIDE_STYLE('',(#913));
#913=SURFACE_STYLE_FILL_AREA(#914);
#914=FILL_AREA_STYLE('Steel - Satin',(#915));
#915=FILL_AREA_STYLE_COLOUR('Steel - Satin',#916);
#916=COLOUR_RGB('Steel - Satin',0.627450980392157,0.627450980392157,0.627450980392157);
ENDSEC;
END-ISO-10303-21;
