ISO-10303-21;
HEADER;
/* Generated by software containing ST-Developer
 * from STEP Tools, Inc. (www.steptools.com) 
 */

FILE_DESCRIPTION(
/* description */ (''),
/* implementation_level */ '2;1');

FILE_NAME(
/* name */ '12PT PIN.step',
/* time_stamp */ '2026-01-07T10:38:59-06:00',
/* author */ (''),
/* organization */ (''),
/* preprocessor_version */ 'ST-DEVELOPER v20.1',
/* originating_system */ 'Autodesk Translation Framework v14.24.0.0',
/* authorisation */ '');

FILE_SCHEMA (('AUTOMOTIVE_DESIGN { 1 0 10303 214 3 1 1 }'));
ENDSEC;

DATA;
#10=MECHANICAL_DESIGN_GEOMETRIC_PRESENTATION_REPRESENTATION('',(#13),#933);
#11=SHAPE_REPRESENTATION_RELATIONSHIP('SRR','None',#943,#12);
#12=ADVANCED_BREP_SHAPE_REPRESENTATION('',(#14),#932);
#13=STYLED_ITEM('',(#952),#14);
#14=MANIFOLD_SOLID_BREP('Body2',#577);
#15=CYLINDRICAL_SURFACE('',#597,0.25);
#16=FACE_BOUND('',#79,.T.);
#17=FACE_BOUND('',#106,.T.);
#18=PLANE('',#594);
#19=PLANE('',#595);
#20=PLANE('',#599);
#21=PLANE('',#600);
#22=PLANE('',#601);
#23=PLANE('',#602);
#24=PLANE('',#603);
#25=PLANE('',#604);
#26=PLANE('',#605);
#27=PLANE('',#606);
#28=PLANE('',#607);
#29=PLANE('',#608);
#30=PLANE('',#609);
#31=PLANE('',#610);
#32=PLANE('',#611);
#33=PLANE('',#612);
#34=PLANE('',#613);
#35=PLANE('',#614);
#36=PLANE('',#615);
#37=PLANE('',#616);
#38=PLANE('',#617);
#39=PLANE('',#618);
#40=PLANE('',#619);
#41=PLANE('',#620);
#42=PLANE('',#621);
#43=PLANE('',#622);
#44=PLANE('',#623);
#45=PLANE('',#624);
#46=FACE_OUTER_BOUND('',#76,.T.);
#47=FACE_OUTER_BOUND('',#77,.T.);
#48=FACE_OUTER_BOUND('',#78,.T.);
#49=FACE_OUTER_BOUND('',#80,.T.);
#50=FACE_OUTER_BOUND('',#81,.T.);
#51=FACE_OUTER_BOUND('',#82,.T.);
#52=FACE_OUTER_BOUND('',#83,.T.);
#53=FACE_OUTER_BOUND('',#84,.T.);
#54=FACE_OUTER_BOUND('',#85,.T.);
#55=FACE_OUTER_BOUND('',#86,.T.);
#56=FACE_OUTER_BOUND('',#87,.T.);
#57=FACE_OUTER_BOUND('',#88,.T.);
#58=FACE_OUTER_BOUND('',#89,.T.);
#59=FACE_OUTER_BOUND('',#90,.T.);
#60=FACE_OUTER_BOUND('',#91,.T.);
#61=FACE_OUTER_BOUND('',#92,.T.);
#62=FACE_OUTER_BOUND('',#93,.T.);
#63=FACE_OUTER_BOUND('',#94,.T.);
#64=FACE_OUTER_BOUND('',#95,.T.);
#65=FACE_OUTER_BOUND('',#96,.T.);
#66=FACE_OUTER_BOUND('',#97,.T.);
#67=FACE_OUTER_BOUND('',#98,.T.);
#68=FACE_OUTER_BOUND('',#99,.T.);
#69=FACE_OUTER_BOUND('',#100,.T.);
#70=FACE_OUTER_BOUND('',#101,.T.);
#71=FACE_OUTER_BOUND('',#102,.T.);
#72=FACE_OUTER_BOUND('',#103,.T.);
#73=FACE_OUTER_BOUND('',#104,.T.);
#74=FACE_OUTER_BOUND('',#105,.T.);
#75=FACE_OUTER_BOUND('',#107,.T.);
#76=EDGE_LOOP('',(#390,#391,#392,#393));
#77=EDGE_LOOP('',(#394));
#78=EDGE_LOOP('',(#395));
#79=EDGE_LOOP('',(#396,#397,#398,#399,#400,#401,#402,#403,#404,#405,#406,
#407,#408,#409,#410,#411,#412,#413,#414,#415,#416,#417,#418,#419));
#80=EDGE_LOOP('',(#420,#421,#422,#423));
#81=EDGE_LOOP('',(#424,#425,#426,#427));
#82=EDGE_LOOP('',(#428,#429,#430,#431));
#83=EDGE_LOOP('',(#432,#433,#434,#435));
#84=EDGE_LOOP('',(#436,#437,#438,#439));
#85=EDGE_LOOP('',(#440,#441,#442,#443));
#86=EDGE_LOOP('',(#444,#445,#446,#447));
#87=EDGE_LOOP('',(#448,#449,#450,#451));
#88=EDGE_LOOP('',(#452,#453,#454,#455));
#89=EDGE_LOOP('',(#456,#457,#458,#459));
#90=EDGE_LOOP('',(#460,#461,#462,#463));
#91=EDGE_LOOP('',(#464,#465,#466,#467));
#92=EDGE_LOOP('',(#468,#469,#470,#471));
#93=EDGE_LOOP('',(#472,#473,#474,#475));
#94=EDGE_LOOP('',(#476,#477,#478,#479));
#95=EDGE_LOOP('',(#480,#481,#482,#483));
#96=EDGE_LOOP('',(#484,#485,#486,#487));
#97=EDGE_LOOP('',(#488,#489,#490,#491));
#98=EDGE_LOOP('',(#492,#493,#494,#495));
#99=EDGE_LOOP('',(#496,#497,#498,#499));
#100=EDGE_LOOP('',(#500,#501,#502,#503));
#101=EDGE_LOOP('',(#504,#505,#506,#507));
#102=EDGE_LOOP('',(#508,#509,#510,#511));
#103=EDGE_LOOP('',(#512,#513,#514,#515));
#104=EDGE_LOOP('',(#516,#517,#518,#519));
#105=EDGE_LOOP('',(#520,#521,#522,#523,#524,#525,#526,#527,#528,#529,#530,
#531,#532,#533,#534,#535,#536,#537,#538,#539,#540,#541,#542,#543));
#106=EDGE_LOOP('',(#544));
#107=EDGE_LOOP('',(#545));
#108=LINE('',#774,#182);
#109=LINE('',#782,#183);
#110=LINE('',#784,#184);
#111=LINE('',#786,#185);
#112=LINE('',#788,#186);
#113=LINE('',#790,#187);
#114=LINE('',#792,#188);
#115=LINE('',#794,#189);
#116=LINE('',#796,#190);
#117=LINE('',#798,#191);
#118=LINE('',#800,#192);
#119=LINE('',#802,#193);
#120=LINE('',#804,#194);
#121=LINE('',#806,#195);
#122=LINE('',#808,#196);
#123=LINE('',#810,#197);
#124=LINE('',#812,#198);
#125=LINE('',#814,#199);
#126=LINE('',#816,#200);
#127=LINE('',#818,#201);
#128=LINE('',#820,#202);
#129=LINE('',#822,#203);
#130=LINE('',#824,#204);
#131=LINE('',#826,#205);
#132=LINE('',#827,#206);
#133=LINE('',#831,#207);
#134=LINE('',#834,#208);
#135=LINE('',#836,#209);
#136=LINE('',#837,#210);
#137=LINE('',#840,#211);
#138=LINE('',#841,#212);
#139=LINE('',#844,#213);
#140=LINE('',#845,#214);
#141=LINE('',#848,#215);
#142=LINE('',#849,#216);
#143=LINE('',#852,#217);
#144=LINE('',#853,#218);
#145=LINE('',#856,#219);
#146=LINE('',#857,#220);
#147=LINE('',#860,#221);
#148=LINE('',#861,#222);
#149=LINE('',#864,#223);
#150=LINE('',#865,#224);
#151=LINE('',#868,#225);
#152=LINE('',#869,#226);
#153=LINE('',#872,#227);
#154=LINE('',#873,#228);
#155=LINE('',#876,#229);
#156=LINE('',#877,#230);
#157=LINE('',#880,#231);
#158=LINE('',#881,#232);
#159=LINE('',#884,#233);
#160=LINE('',#885,#234);
#161=LINE('',#888,#235);
#162=LINE('',#889,#236);
#163=LINE('',#892,#237);
#164=LINE('',#893,#238);
#165=LINE('',#896,#239);
#166=LINE('',#897,#240);
#167=LINE('',#900,#241);
#168=LINE('',#901,#242);
#169=LINE('',#904,#243);
#170=LINE('',#905,#244);
#171=LINE('',#908,#245);
#172=LINE('',#909,#246);
#173=LINE('',#912,#247);
#174=LINE('',#913,#248);
#175=LINE('',#916,#249);
#176=LINE('',#917,#250);
#177=LINE('',#920,#251);
#178=LINE('',#921,#252);
#179=LINE('',#924,#253);
#180=LINE('',#925,#254);
#181=LINE('',#927,#255);
#182=VECTOR('',#631,0.156968494929333);
#183=VECTOR('',#640,0.393700787401575);
#184=VECTOR('',#641,0.393700787401575);
#185=VECTOR('',#642,0.393700787401575);
#186=VECTOR('',#643,0.393700787401575);
#187=VECTOR('',#644,0.393700787401575);
#188=VECTOR('',#645,0.393700787401575);
#189=VECTOR('',#646,0.393700787401575);
#190=VECTOR('',#647,0.393700787401575);
#191=VECTOR('',#648,0.393700787401575);
#192=VECTOR('',#649,0.393700787401575);
#193=VECTOR('',#650,0.393700787401575);
#194=VECTOR('',#651,0.393700787401575);
#195=VECTOR('',#652,0.393700787401575);
#196=VECTOR('',#653,0.393700787401575);
#197=VECTOR('',#654,0.393700787401575);
#198=VECTOR('',#655,0.393700787401575);
#199=VECTOR('',#656,0.393700787401575);
#200=VECTOR('',#657,0.393700787401575);
#201=VECTOR('',#658,0.393700787401575);
#202=VECTOR('',#659,0.393700787401575);
#203=VECTOR('',#660,0.393700787401575);
#204=VECTOR('',#661,0.393700787401575);
#205=VECTOR('',#662,0.393700787401575);
#206=VECTOR('',#663,0.393700787401575);
#207=VECTOR('',#668,0.25);
#208=VECTOR('',#671,0.393700787401575);
#209=VECTOR('',#672,0.393700787401575);
#210=VECTOR('',#673,0.393700787401575);
#211=VECTOR('',#676,0.393700787401575);
#212=VECTOR('',#677,0.393700787401575);
#213=VECTOR('',#680,0.393700787401575);
#214=VECTOR('',#681,0.393700787401575);
#215=VECTOR('',#684,0.393700787401575);
#216=VECTOR('',#685,0.393700787401575);
#217=VECTOR('',#688,0.393700787401575);
#218=VECTOR('',#689,0.393700787401575);
#219=VECTOR('',#692,0.393700787401575);
#220=VECTOR('',#693,0.393700787401575);
#221=VECTOR('',#696,0.393700787401575);
#222=VECTOR('',#697,0.393700787401575);
#223=VECTOR('',#700,0.393700787401575);
#224=VECTOR('',#701,0.393700787401575);
#225=VECTOR('',#704,0.393700787401575);
#226=VECTOR('',#705,0.393700787401575);
#227=VECTOR('',#708,0.393700787401575);
#228=VECTOR('',#709,0.393700787401575);
#229=VECTOR('',#712,0.393700787401575);
#230=VECTOR('',#713,0.393700787401575);
#231=VECTOR('',#716,0.393700787401575);
#232=VECTOR('',#717,0.393700787401575);
#233=VECTOR('',#720,0.393700787401575);
#234=VECTOR('',#721,0.393700787401575);
#235=VECTOR('',#724,0.393700787401575);
#236=VECTOR('',#725,0.393700787401575);
#237=VECTOR('',#728,0.393700787401575);
#238=VECTOR('',#729,0.393700787401575);
#239=VECTOR('',#732,0.393700787401575);
#240=VECTOR('',#733,0.393700787401575);
#241=VECTOR('',#736,0.393700787401575);
#242=VECTOR('',#737,0.393700787401575);
#243=VECTOR('',#740,0.393700787401575);
#244=VECTOR('',#741,0.393700787401575);
#245=VECTOR('',#744,0.393700787401575);
#246=VECTOR('',#745,0.393700787401575);
#247=VECTOR('',#748,0.393700787401575);
#248=VECTOR('',#749,0.393700787401575);
#249=VECTOR('',#752,0.393700787401575);
#250=VECTOR('',#753,0.393700787401575);
#251=VECTOR('',#756,0.393700787401575);
#252=VECTOR('',#757,0.393700787401575);
#253=VECTOR('',#760,0.393700787401575);
#254=VECTOR('',#761,0.393700787401575);
#255=VECTOR('',#764,0.393700787401575);
#256=CIRCLE('',#592,0.155);
#257=CIRCLE('',#593,0.158936989858667);
#258=CIRCLE('',#596,0.25);
#259=CIRCLE('',#598,0.25);
#260=VERTEX_POINT('',#771);
#261=VERTEX_POINT('',#773);
#262=VERTEX_POINT('',#778);
#263=VERTEX_POINT('',#780);
#264=VERTEX_POINT('',#781);
#265=VERTEX_POINT('',#783);
#266=VERTEX_POINT('',#785);
#267=VERTEX_POINT('',#787);
#268=VERTEX_POINT('',#789);
#269=VERTEX_POINT('',#791);
#270=VERTEX_POINT('',#793);
#271=VERTEX_POINT('',#795);
#272=VERTEX_POINT('',#797);
#273=VERTEX_POINT('',#799);
#274=VERTEX_POINT('',#801);
#275=VERTEX_POINT('',#803);
#276=VERTEX_POINT('',#805);
#277=VERTEX_POINT('',#807);
#278=VERTEX_POINT('',#809);
#279=VERTEX_POINT('',#811);
#280=VERTEX_POINT('',#813);
#281=VERTEX_POINT('',#815);
#282=VERTEX_POINT('',#817);
#283=VERTEX_POINT('',#819);
#284=VERTEX_POINT('',#821);
#285=VERTEX_POINT('',#823);
#286=VERTEX_POINT('',#825);
#287=VERTEX_POINT('',#829);
#288=VERTEX_POINT('',#833);
#289=VERTEX_POINT('',#835);
#290=VERTEX_POINT('',#839);
#291=VERTEX_POINT('',#843);
#292=VERTEX_POINT('',#847);
#293=VERTEX_POINT('',#851);
#294=VERTEX_POINT('',#855);
#295=VERTEX_POINT('',#859);
#296=VERTEX_POINT('',#863);
#297=VERTEX_POINT('',#867);
#298=VERTEX_POINT('',#871);
#299=VERTEX_POINT('',#875);
#300=VERTEX_POINT('',#879);
#301=VERTEX_POINT('',#883);
#302=VERTEX_POINT('',#887);
#303=VERTEX_POINT('',#891);
#304=VERTEX_POINT('',#895);
#305=VERTEX_POINT('',#899);
#306=VERTEX_POINT('',#903);
#307=VERTEX_POINT('',#907);
#308=VERTEX_POINT('',#911);
#309=VERTEX_POINT('',#915);
#310=VERTEX_POINT('',#919);
#311=VERTEX_POINT('',#923);
#312=EDGE_CURVE('',#260,#260,#256,.T.);
#313=EDGE_CURVE('',#260,#261,#108,.T.);
#314=EDGE_CURVE('',#261,#261,#257,.T.);
#315=EDGE_CURVE('',#262,#262,#258,.T.);
#316=EDGE_CURVE('',#263,#264,#109,.T.);
#317=EDGE_CURVE('',#265,#263,#110,.T.);
#318=EDGE_CURVE('',#266,#265,#111,.T.);
#319=EDGE_CURVE('',#267,#266,#112,.T.);
#320=EDGE_CURVE('',#268,#267,#113,.T.);
#321=EDGE_CURVE('',#269,#268,#114,.T.);
#322=EDGE_CURVE('',#270,#269,#115,.T.);
#323=EDGE_CURVE('',#271,#270,#116,.T.);
#324=EDGE_CURVE('',#272,#271,#117,.T.);
#325=EDGE_CURVE('',#273,#272,#118,.T.);
#326=EDGE_CURVE('',#274,#273,#119,.T.);
#327=EDGE_CURVE('',#275,#274,#120,.T.);
#328=EDGE_CURVE('',#276,#275,#121,.T.);
#329=EDGE_CURVE('',#277,#276,#122,.T.);
#330=EDGE_CURVE('',#278,#277,#123,.T.);
#331=EDGE_CURVE('',#279,#278,#124,.T.);
#332=EDGE_CURVE('',#280,#279,#125,.T.);
#333=EDGE_CURVE('',#281,#280,#126,.T.);
#334=EDGE_CURVE('',#282,#281,#127,.T.);
#335=EDGE_CURVE('',#283,#282,#128,.T.);
#336=EDGE_CURVE('',#284,#283,#129,.T.);
#337=EDGE_CURVE('',#285,#284,#130,.T.);
#338=EDGE_CURVE('',#286,#285,#131,.T.);
#339=EDGE_CURVE('',#264,#286,#132,.T.);
#340=EDGE_CURVE('',#287,#287,#259,.T.);
#341=EDGE_CURVE('',#287,#262,#133,.T.);
#342=EDGE_CURVE('',#288,#275,#134,.T.);
#343=EDGE_CURVE('',#288,#289,#135,.T.);
#344=EDGE_CURVE('',#289,#276,#136,.T.);
#345=EDGE_CURVE('',#290,#274,#137,.T.);
#346=EDGE_CURVE('',#288,#290,#138,.T.);
#347=EDGE_CURVE('',#291,#273,#139,.T.);
#348=EDGE_CURVE('',#291,#290,#140,.T.);
#349=EDGE_CURVE('',#292,#272,#141,.T.);
#350=EDGE_CURVE('',#291,#292,#142,.T.);
#351=EDGE_CURVE('',#293,#271,#143,.T.);
#352=EDGE_CURVE('',#293,#292,#144,.T.);
#353=EDGE_CURVE('',#294,#270,#145,.T.);
#354=EDGE_CURVE('',#293,#294,#146,.T.);
#355=EDGE_CURVE('',#295,#269,#147,.T.);
#356=EDGE_CURVE('',#295,#294,#148,.T.);
#357=EDGE_CURVE('',#296,#268,#149,.T.);
#358=EDGE_CURVE('',#295,#296,#150,.T.);
#359=EDGE_CURVE('',#297,#267,#151,.T.);
#360=EDGE_CURVE('',#297,#296,#152,.T.);
#361=EDGE_CURVE('',#298,#266,#153,.T.);
#362=EDGE_CURVE('',#297,#298,#154,.T.);
#363=EDGE_CURVE('',#299,#265,#155,.T.);
#364=EDGE_CURVE('',#299,#298,#156,.T.);
#365=EDGE_CURVE('',#300,#263,#157,.T.);
#366=EDGE_CURVE('',#299,#300,#158,.T.);
#367=EDGE_CURVE('',#301,#264,#159,.T.);
#368=EDGE_CURVE('',#301,#300,#160,.T.);
#369=EDGE_CURVE('',#302,#286,#161,.T.);
#370=EDGE_CURVE('',#301,#302,#162,.T.);
#371=EDGE_CURVE('',#303,#285,#163,.T.);
#372=EDGE_CURVE('',#303,#302,#164,.T.);
#373=EDGE_CURVE('',#304,#284,#165,.T.);
#374=EDGE_CURVE('',#303,#304,#166,.T.);
#375=EDGE_CURVE('',#305,#283,#167,.T.);
#376=EDGE_CURVE('',#305,#304,#168,.T.);
#377=EDGE_CURVE('',#306,#282,#169,.T.);
#378=EDGE_CURVE('',#305,#306,#170,.T.);
#379=EDGE_CURVE('',#307,#281,#171,.T.);
#380=EDGE_CURVE('',#307,#306,#172,.T.);
#381=EDGE_CURVE('',#308,#280,#173,.T.);
#382=EDGE_CURVE('',#307,#308,#174,.T.);
#383=EDGE_CURVE('',#309,#279,#175,.T.);
#384=EDGE_CURVE('',#309,#308,#176,.T.);
#385=EDGE_CURVE('',#310,#278,#177,.T.);
#386=EDGE_CURVE('',#309,#310,#178,.T.);
#387=EDGE_CURVE('',#311,#277,#179,.T.);
#388=EDGE_CURVE('',#311,#310,#180,.T.);
#389=EDGE_CURVE('',#311,#289,#181,.T.);
#390=ORIENTED_EDGE('',*,*,#312,.F.);
#391=ORIENTED_EDGE('',*,*,#313,.T.);
#392=ORIENTED_EDGE('',*,*,#314,.F.);
#393=ORIENTED_EDGE('',*,*,#313,.F.);
#394=ORIENTED_EDGE('',*,*,#312,.T.);
#395=ORIENTED_EDGE('',*,*,#315,.F.);
#396=ORIENTED_EDGE('',*,*,#316,.F.);
#397=ORIENTED_EDGE('',*,*,#317,.F.);
#398=ORIENTED_EDGE('',*,*,#318,.F.);
#399=ORIENTED_EDGE('',*,*,#319,.F.);
#400=ORIENTED_EDGE('',*,*,#320,.F.);
#401=ORIENTED_EDGE('',*,*,#321,.F.);
#402=ORIENTED_EDGE('',*,*,#322,.F.);
#403=ORIENTED_EDGE('',*,*,#323,.F.);
#404=ORIENTED_EDGE('',*,*,#324,.F.);
#405=ORIENTED_EDGE('',*,*,#325,.F.);
#406=ORIENTED_EDGE('',*,*,#326,.F.);
#407=ORIENTED_EDGE('',*,*,#327,.F.);
#408=ORIENTED_EDGE('',*,*,#328,.F.);
#409=ORIENTED_EDGE('',*,*,#329,.F.);
#410=ORIENTED_EDGE('',*,*,#330,.F.);
#411=ORIENTED_EDGE('',*,*,#331,.F.);
#412=ORIENTED_EDGE('',*,*,#332,.F.);
#413=ORIENTED_EDGE('',*,*,#333,.F.);
#414=ORIENTED_EDGE('',*,*,#334,.F.);
#415=ORIENTED_EDGE('',*,*,#335,.F.);
#416=ORIENTED_EDGE('',*,*,#336,.F.);
#417=ORIENTED_EDGE('',*,*,#337,.F.);
#418=ORIENTED_EDGE('',*,*,#338,.F.);
#419=ORIENTED_EDGE('',*,*,#339,.F.);
#420=ORIENTED_EDGE('',*,*,#340,.F.);
#421=ORIENTED_EDGE('',*,*,#341,.T.);
#422=ORIENTED_EDGE('',*,*,#315,.T.);
#423=ORIENTED_EDGE('',*,*,#341,.F.);
#424=ORIENTED_EDGE('',*,*,#328,.T.);
#425=ORIENTED_EDGE('',*,*,#342,.F.);
#426=ORIENTED_EDGE('',*,*,#343,.T.);
#427=ORIENTED_EDGE('',*,*,#344,.T.);
#428=ORIENTED_EDGE('',*,*,#327,.T.);
#429=ORIENTED_EDGE('',*,*,#345,.F.);
#430=ORIENTED_EDGE('',*,*,#346,.F.);
#431=ORIENTED_EDGE('',*,*,#342,.T.);
#432=ORIENTED_EDGE('',*,*,#326,.T.);
#433=ORIENTED_EDGE('',*,*,#347,.F.);
#434=ORIENTED_EDGE('',*,*,#348,.T.);
#435=ORIENTED_EDGE('',*,*,#345,.T.);
#436=ORIENTED_EDGE('',*,*,#325,.T.);
#437=ORIENTED_EDGE('',*,*,#349,.F.);
#438=ORIENTED_EDGE('',*,*,#350,.F.);
#439=ORIENTED_EDGE('',*,*,#347,.T.);
#440=ORIENTED_EDGE('',*,*,#324,.T.);
#441=ORIENTED_EDGE('',*,*,#351,.F.);
#442=ORIENTED_EDGE('',*,*,#352,.T.);
#443=ORIENTED_EDGE('',*,*,#349,.T.);
#444=ORIENTED_EDGE('',*,*,#323,.T.);
#445=ORIENTED_EDGE('',*,*,#353,.F.);
#446=ORIENTED_EDGE('',*,*,#354,.F.);
#447=ORIENTED_EDGE('',*,*,#351,.T.);
#448=ORIENTED_EDGE('',*,*,#322,.T.);
#449=ORIENTED_EDGE('',*,*,#355,.F.);
#450=ORIENTED_EDGE('',*,*,#356,.T.);
#451=ORIENTED_EDGE('',*,*,#353,.T.);
#452=ORIENTED_EDGE('',*,*,#321,.T.);
#453=ORIENTED_EDGE('',*,*,#357,.F.);
#454=ORIENTED_EDGE('',*,*,#358,.F.);
#455=ORIENTED_EDGE('',*,*,#355,.T.);
#456=ORIENTED_EDGE('',*,*,#320,.T.);
#457=ORIENTED_EDGE('',*,*,#359,.F.);
#458=ORIENTED_EDGE('',*,*,#360,.T.);
#459=ORIENTED_EDGE('',*,*,#357,.T.);
#460=ORIENTED_EDGE('',*,*,#319,.T.);
#461=ORIENTED_EDGE('',*,*,#361,.F.);
#462=ORIENTED_EDGE('',*,*,#362,.F.);
#463=ORIENTED_EDGE('',*,*,#359,.T.);
#464=ORIENTED_EDGE('',*,*,#318,.T.);
#465=ORIENTED_EDGE('',*,*,#363,.F.);
#466=ORIENTED_EDGE('',*,*,#364,.T.);
#467=ORIENTED_EDGE('',*,*,#361,.T.);
#468=ORIENTED_EDGE('',*,*,#317,.T.);
#469=ORIENTED_EDGE('',*,*,#365,.F.);
#470=ORIENTED_EDGE('',*,*,#366,.F.);
#471=ORIENTED_EDGE('',*,*,#363,.T.);
#472=ORIENTED_EDGE('',*,*,#316,.T.);
#473=ORIENTED_EDGE('',*,*,#367,.F.);
#474=ORIENTED_EDGE('',*,*,#368,.T.);
#475=ORIENTED_EDGE('',*,*,#365,.T.);
#476=ORIENTED_EDGE('',*,*,#339,.T.);
#477=ORIENTED_EDGE('',*,*,#369,.F.);
#478=ORIENTED_EDGE('',*,*,#370,.F.);
#479=ORIENTED_EDGE('',*,*,#367,.T.);
#480=ORIENTED_EDGE('',*,*,#338,.T.);
#481=ORIENTED_EDGE('',*,*,#371,.F.);
#482=ORIENTED_EDGE('',*,*,#372,.T.);
#483=ORIENTED_EDGE('',*,*,#369,.T.);
#484=ORIENTED_EDGE('',*,*,#337,.T.);
#485=ORIENTED_EDGE('',*,*,#373,.F.);
#486=ORIENTED_EDGE('',*,*,#374,.F.);
#487=ORIENTED_EDGE('',*,*,#371,.T.);
#488=ORIENTED_EDGE('',*,*,#336,.T.);
#489=ORIENTED_EDGE('',*,*,#375,.F.);
#490=ORIENTED_EDGE('',*,*,#376,.T.);
#491=ORIENTED_EDGE('',*,*,#373,.T.);
#492=ORIENTED_EDGE('',*,*,#335,.T.);
#493=ORIENTED_EDGE('',*,*,#377,.F.);
#494=ORIENTED_EDGE('',*,*,#378,.F.);
#495=ORIENTED_EDGE('',*,*,#375,.T.);
#496=ORIENTED_EDGE('',*,*,#334,.T.);
#497=ORIENTED_EDGE('',*,*,#379,.F.);
#498=ORIENTED_EDGE('',*,*,#380,.T.);
#499=ORIENTED_EDGE('',*,*,#377,.T.);
#500=ORIENTED_EDGE('',*,*,#333,.T.);
#501=ORIENTED_EDGE('',*,*,#381,.F.);
#502=ORIENTED_EDGE('',*,*,#382,.F.);
#503=ORIENTED_EDGE('',*,*,#379,.T.);
#504=ORIENTED_EDGE('',*,*,#332,.T.);
#505=ORIENTED_EDGE('',*,*,#383,.F.);
#506=ORIENTED_EDGE('',*,*,#384,.T.);
#507=ORIENTED_EDGE('',*,*,#381,.T.);
#508=ORIENTED_EDGE('',*,*,#331,.T.);
#509=ORIENTED_EDGE('',*,*,#385,.F.);
#510=ORIENTED_EDGE('',*,*,#386,.F.);
#511=ORIENTED_EDGE('',*,*,#383,.T.);
#512=ORIENTED_EDGE('',*,*,#330,.T.);
#513=ORIENTED_EDGE('',*,*,#387,.F.);
#514=ORIENTED_EDGE('',*,*,#388,.T.);
#515=ORIENTED_EDGE('',*,*,#385,.T.);
#516=ORIENTED_EDGE('',*,*,#329,.T.);
#517=ORIENTED_EDGE('',*,*,#344,.F.);
#518=ORIENTED_EDGE('',*,*,#389,.F.);
#519=ORIENTED_EDGE('',*,*,#387,.T.);
#520=ORIENTED_EDGE('',*,*,#366,.T.);
#521=ORIENTED_EDGE('',*,*,#368,.F.);
#522=ORIENTED_EDGE('',*,*,#370,.T.);
#523=ORIENTED_EDGE('',*,*,#372,.F.);
#524=ORIENTED_EDGE('',*,*,#374,.T.);
#525=ORIENTED_EDGE('',*,*,#376,.F.);
#526=ORIENTED_EDGE('',*,*,#378,.T.);
#527=ORIENTED_EDGE('',*,*,#380,.F.);
#528=ORIENTED_EDGE('',*,*,#382,.T.);
#529=ORIENTED_EDGE('',*,*,#384,.F.);
#530=ORIENTED_EDGE('',*,*,#386,.T.);
#531=ORIENTED_EDGE('',*,*,#388,.F.);
#532=ORIENTED_EDGE('',*,*,#389,.T.);
#533=ORIENTED_EDGE('',*,*,#343,.F.);
#534=ORIENTED_EDGE('',*,*,#346,.T.);
#535=ORIENTED_EDGE('',*,*,#348,.F.);
#536=ORIENTED_EDGE('',*,*,#350,.T.);
#537=ORIENTED_EDGE('',*,*,#352,.F.);
#538=ORIENTED_EDGE('',*,*,#354,.T.);
#539=ORIENTED_EDGE('',*,*,#356,.F.);
#540=ORIENTED_EDGE('',*,*,#358,.T.);
#541=ORIENTED_EDGE('',*,*,#360,.F.);
#542=ORIENTED_EDGE('',*,*,#362,.T.);
#543=ORIENTED_EDGE('',*,*,#364,.F.);
#544=ORIENTED_EDGE('',*,*,#314,.T.);
#545=ORIENTED_EDGE('',*,*,#340,.T.);
#546=CONICAL_SURFACE('',#591,0.156968494929333,0.0872664625997173);
#547=ADVANCED_FACE('',(#46),#546,.T.);
#548=ADVANCED_FACE('',(#47),#18,.T.);
#549=ADVANCED_FACE('',(#48,#16),#19,.T.);
#550=ADVANCED_FACE('',(#49),#15,.T.);
#551=ADVANCED_FACE('',(#50),#20,.T.);
#552=ADVANCED_FACE('',(#51),#21,.T.);
#553=ADVANCED_FACE('',(#52),#22,.T.);
#554=ADVANCED_FACE('',(#53),#23,.T.);
#555=ADVANCED_FACE('',(#54),#24,.T.);
#556=ADVANCED_FACE('',(#55),#25,.T.);
#557=ADVANCED_FACE('',(#56),#26,.T.);
#558=ADVANCED_FACE('',(#57),#27,.T.);
#559=ADVANCED_FACE('',(#58),#28,.T.);
#560=ADVANCED_FACE('',(#59),#29,.T.);
#561=ADVANCED_FACE('',(#60),#30,.T.);
#562=ADVANCED_FACE('',(#61),#31,.T.);
#563=ADVANCED_FACE('',(#62),#32,.T.);
#564=ADVANCED_FACE('',(#63),#33,.T.);
#565=ADVANCED_FACE('',(#64),#34,.T.);
#566=ADVANCED_FACE('',(#65),#35,.T.);
#567=ADVANCED_FACE('',(#66),#36,.T.);
#568=ADVANCED_FACE('',(#67),#37,.T.);
#569=ADVANCED_FACE('',(#68),#38,.T.);
#570=ADVANCED_FACE('',(#69),#39,.T.);
#571=ADVANCED_FACE('',(#70),#40,.T.);
#572=ADVANCED_FACE('',(#71),#41,.T.);
#573=ADVANCED_FACE('',(#72),#42,.T.);
#574=ADVANCED_FACE('',(#73),#43,.T.);
#575=ADVANCED_FACE('',(#74,#17),#44,.T.);
#576=ADVANCED_FACE('',(#75),#45,.T.);
#577=CLOSED_SHELL('',(#547,#548,#549,#550,#551,#552,#553,#554,#555,#556,
#557,#558,#559,#560,#561,#562,#563,#564,#565,#566,#567,#568,#569,#570,#571,
#572,#573,#574,#575,#576));
#578=DERIVED_UNIT_ELEMENT(#580,1.);
#579=DERIVED_UNIT_ELEMENT(#937,-3.);
#580=(
MASS_UNIT()
NAMED_UNIT(*)
SI_UNIT(.KILO.,.GRAM.)
);
#581=DERIVED_UNIT((#578,#579));
#582=MEASURE_REPRESENTATION_ITEM('density measure',
POSITIVE_RATIO_MEASURE(7850.),#581);
#583=PROPERTY_DEFINITION_REPRESENTATION(#588,#585);
#584=PROPERTY_DEFINITION_REPRESENTATION(#589,#586);
#585=REPRESENTATION('material name',(#587),#932);
#586=REPRESENTATION('density',(#582),#932);
#587=DESCRIPTIVE_REPRESENTATION_ITEM('Steel','Steel');
#588=PROPERTY_DEFINITION('material property','material name',#945);
#589=PROPERTY_DEFINITION('material property','density of part',#945);
#590=AXIS2_PLACEMENT_3D('',#769,#625,#626);
#591=AXIS2_PLACEMENT_3D('',#770,#627,#628);
#592=AXIS2_PLACEMENT_3D('',#772,#629,#630);
#593=AXIS2_PLACEMENT_3D('',#775,#632,#633);
#594=AXIS2_PLACEMENT_3D('',#776,#634,#635);
#595=AXIS2_PLACEMENT_3D('',#777,#636,#637);
#596=AXIS2_PLACEMENT_3D('',#779,#638,#639);
#597=AXIS2_PLACEMENT_3D('',#828,#664,#665);
#598=AXIS2_PLACEMENT_3D('',#830,#666,#667);
#599=AXIS2_PLACEMENT_3D('',#832,#669,#670);
#600=AXIS2_PLACEMENT_3D('',#838,#674,#675);
#601=AXIS2_PLACEMENT_3D('',#842,#678,#679);
#602=AXIS2_PLACEMENT_3D('',#846,#682,#683);
#603=AXIS2_PLACEMENT_3D('',#850,#686,#687);
#604=AXIS2_PLACEMENT_3D('',#854,#690,#691);
#605=AXIS2_PLACEMENT_3D('',#858,#694,#695);
#606=AXIS2_PLACEMENT_3D('',#862,#698,#699);
#607=AXIS2_PLACEMENT_3D('',#866,#702,#703);
#608=AXIS2_PLACEMENT_3D('',#870,#706,#707);
#609=AXIS2_PLACEMENT_3D('',#874,#710,#711);
#610=AXIS2_PLACEMENT_3D('',#878,#714,#715);
#611=AXIS2_PLACEMENT_3D('',#882,#718,#719);
#612=AXIS2_PLACEMENT_3D('',#886,#722,#723);
#613=AXIS2_PLACEMENT_3D('',#890,#726,#727);
#614=AXIS2_PLACEMENT_3D('',#894,#730,#731);
#615=AXIS2_PLACEMENT_3D('',#898,#734,#735);
#616=AXIS2_PLACEMENT_3D('',#902,#738,#739);
#617=AXIS2_PLACEMENT_3D('',#906,#742,#743);
#618=AXIS2_PLACEMENT_3D('',#910,#746,#747);
#619=AXIS2_PLACEMENT_3D('',#914,#750,#751);
#620=AXIS2_PLACEMENT_3D('',#918,#754,#755);
#621=AXIS2_PLACEMENT_3D('',#922,#758,#759);
#622=AXIS2_PLACEMENT_3D('',#926,#762,#763);
#623=AXIS2_PLACEMENT_3D('',#928,#765,#766);
#624=AXIS2_PLACEMENT_3D('',#929,#767,#768);
#625=DIRECTION('axis',(0.,0.,1.));
#626=DIRECTION('refdir',(1.,0.,0.));
#627=DIRECTION('center_axis',(0.,1.22464679914735E-16,-1.));
#628=DIRECTION('ref_axis',(0.,-1.,0.));
#629=DIRECTION('center_axis',(0.,-1.22464679914735E-16,1.));
#630=DIRECTION('ref_axis',(1.,0.,0.));
#631=DIRECTION('',(-1.06735001383231E-17,0.0871557427476591,-0.996194698091746));
#632=DIRECTION('center_axis',(0.,0.,-1.));
#633=DIRECTION('ref_axis',(0.,-1.,0.));
#634=DIRECTION('center_axis',(0.,-1.22464679914735E-16,1.));
#635=DIRECTION('ref_axis',(1.,0.,0.));
#636=DIRECTION('center_axis',(0.,0.,1.));
#637=DIRECTION('ref_axis',(1.,0.,0.));
#638=DIRECTION('center_axis',(0.,0.,-1.));
#639=DIRECTION('ref_axis',(1.,0.,0.));
#640=DIRECTION('',(-0.499999999999885,0.866025403784505,0.));
#641=DIRECTION('',(-0.866025403784362,0.500000000000133,0.));
#642=DIRECTION('',(-4.29687277646795E-14,1.,0.));
#643=DIRECTION('',(-0.499999999998971,0.866025403785033,0.));
#644=DIRECTION('',(0.499999999999166,0.86602540378492,0.));
#645=DIRECTION('',(2.60183055017985E-12,1.,0.));
#646=DIRECTION('',(0.866025403783665,0.500000000001341,0.));
#647=DIRECTION('',(0.500000000003477,0.866025403782431,0.));
#648=DIRECTION('',(1.,2.28623265313403E-12,0.));
#649=DIRECTION('',(0.866025403786964,0.499999999995626,0.));
#650=DIRECTION('',(0.866025403786067,-0.499999999997179,0.));
#651=DIRECTION('',(1.,-5.42924692111022E-12,0.));
#652=DIRECTION('',(0.500000000002859,-0.866025403782788,0.));
#653=DIRECTION('',(0.866025403779571,-0.500000000008432,0.));
#654=DIRECTION('',(2.91113130606325E-12,-1.,0.));
#655=DIRECTION('',(0.499999999993553,-0.866025403788161,0.));
#656=DIRECTION('',(-0.499999999998103,-0.866025403785534,0.));
#657=DIRECTION('',(-1.00739441403482E-11,-1.,0.));
#658=DIRECTION('',(-0.866025403783772,-0.500000000001155,0.));
#659=DIRECTION('',(-0.500000000006015,-0.866025403780966,0.));
#660=DIRECTION('',(-1.,-5.69335642883289E-13,0.));
#661=DIRECTION('',(-0.866025403786166,-0.499999999997008,0.));
#662=DIRECTION('',(-0.86602540378449,0.499999999999912,0.));
#663=DIRECTION('',(-1.,-2.2558582076524E-13,0.));
#664=DIRECTION('center_axis',(0.,0.,-1.));
#665=DIRECTION('ref_axis',(0.,1.,0.));
#666=DIRECTION('center_axis',(0.,0.,-1.));
#667=DIRECTION('ref_axis',(1.,0.,0.));
#668=DIRECTION('',(0.,0.,1.));
#669=DIRECTION('center_axis',(-0.866025403782788,-0.500000000002859,0.));
#670=DIRECTION('ref_axis',(-0.500000000002859,0.866025403782788,0.));
#671=DIRECTION('',(0.,0.,-1.));
#672=DIRECTION('',(-0.500000000002859,0.866025403782788,0.));
#673=DIRECTION('',(0.,0.,-1.));
#674=DIRECTION('center_axis',(-5.42924692111022E-12,-1.,0.));
#675=DIRECTION('ref_axis',(-1.,5.42924692111022E-12,0.));
#676=DIRECTION('',(0.,0.,-1.));
#677=DIRECTION('',(1.,-5.42924692111022E-12,0.));
#678=DIRECTION('center_axis',(-0.49999999999718,-0.866025403786067,0.));
#679=DIRECTION('ref_axis',(-0.866025403786067,0.499999999997179,0.));
#680=DIRECTION('',(0.,0.,-1.));
#681=DIRECTION('',(-0.866025403786067,0.499999999997179,0.));
#682=DIRECTION('center_axis',(0.499999999995626,-0.866025403786964,0.));
#683=DIRECTION('ref_axis',(-0.866025403786964,-0.499999999995626,0.));
#684=DIRECTION('',(0.,0.,-1.));
#685=DIRECTION('',(0.866025403786964,0.499999999995626,0.));
#686=DIRECTION('center_axis',(2.28623265313403E-12,-1.,0.));
#687=DIRECTION('ref_axis',(-1.,-2.28623265313403E-12,0.));
#688=DIRECTION('',(0.,0.,-1.));
#689=DIRECTION('',(-1.,-2.28623265313403E-12,0.));
#690=DIRECTION('center_axis',(0.866025403782431,-0.500000000003477,0.));
#691=DIRECTION('ref_axis',(-0.500000000003477,-0.866025403782431,0.));
#692=DIRECTION('',(0.,0.,-1.));
#693=DIRECTION('',(0.500000000003477,0.866025403782431,0.));
#694=DIRECTION('center_axis',(0.500000000001341,-0.866025403783665,0.));
#695=DIRECTION('ref_axis',(-0.866025403783665,-0.500000000001341,0.));
#696=DIRECTION('',(0.,0.,-1.));
#697=DIRECTION('',(-0.866025403783665,-0.500000000001341,0.));
#698=DIRECTION('center_axis',(1.,-2.60183055017985E-12,0.));
#699=DIRECTION('ref_axis',(-2.60183055017985E-12,-1.,0.));
#700=DIRECTION('',(0.,0.,-1.));
#701=DIRECTION('',(2.60183055017985E-12,1.,0.));
#702=DIRECTION('center_axis',(0.86602540378492,-0.499999999999166,0.));
#703=DIRECTION('ref_axis',(-0.499999999999166,-0.86602540378492,0.));
#704=DIRECTION('',(0.,0.,-1.));
#705=DIRECTION('',(-0.499999999999166,-0.86602540378492,0.));
#706=DIRECTION('center_axis',(0.866025403785033,0.499999999998971,0.));
#707=DIRECTION('ref_axis',(0.499999999998971,-0.866025403785033,0.));
#708=DIRECTION('',(0.,0.,-1.));
#709=DIRECTION('',(-0.499999999998971,0.866025403785033,0.));
#710=DIRECTION('center_axis',(1.,4.29687277646795E-14,0.));
#711=DIRECTION('ref_axis',(4.29687277646795E-14,-1.,0.));
#712=DIRECTION('',(0.,0.,-1.));
#713=DIRECTION('',(4.29687277646795E-14,-1.,0.));
#714=DIRECTION('center_axis',(0.500000000000133,0.866025403784362,0.));
#715=DIRECTION('ref_axis',(0.866025403784362,-0.500000000000133,0.));
#716=DIRECTION('',(0.,0.,-1.));
#717=DIRECTION('',(-0.866025403784362,0.500000000000133,0.));
#718=DIRECTION('center_axis',(0.866025403784505,0.499999999999885,0.));
#719=DIRECTION('ref_axis',(0.499999999999885,-0.866025403784505,0.));
#720=DIRECTION('',(0.,0.,-1.));
#721=DIRECTION('',(0.499999999999885,-0.866025403784505,0.));
#722=DIRECTION('center_axis',(-2.2558582076524E-13,1.,0.));
#723=DIRECTION('ref_axis',(1.,2.2558582076524E-13,0.));
#724=DIRECTION('',(0.,0.,-1.));
#725=DIRECTION('',(-1.,-2.2558582076524E-13,0.));
#726=DIRECTION('center_axis',(0.499999999999912,0.86602540378449,0.));
#727=DIRECTION('ref_axis',(0.86602540378449,-0.499999999999912,0.));
#728=DIRECTION('',(0.,0.,-1.));
#729=DIRECTION('',(0.86602540378449,-0.499999999999912,0.));
#730=DIRECTION('center_axis',(-0.499999999997008,0.866025403786166,0.));
#731=DIRECTION('ref_axis',(0.866025403786166,0.499999999997008,0.));
#732=DIRECTION('',(0.,0.,-1.));
#733=DIRECTION('',(-0.866025403786166,-0.499999999997008,0.));
#734=DIRECTION('center_axis',(-5.69335642883289E-13,1.,0.));
#735=DIRECTION('ref_axis',(1.,5.69335642883289E-13,0.));
#736=DIRECTION('',(0.,0.,-1.));
#737=DIRECTION('',(1.,5.69335642883289E-13,0.));
#738=DIRECTION('center_axis',(-0.866025403780966,0.500000000006015,0.));
#739=DIRECTION('ref_axis',(0.500000000006015,0.866025403780966,0.));
#740=DIRECTION('',(0.,0.,-1.));
#741=DIRECTION('',(-0.500000000006015,-0.866025403780966,0.));
#742=DIRECTION('center_axis',(-0.500000000001155,0.866025403783772,0.));
#743=DIRECTION('ref_axis',(0.866025403783772,0.500000000001155,0.));
#744=DIRECTION('',(0.,0.,-1.));
#745=DIRECTION('',(0.866025403783772,0.500000000001155,0.));
#746=DIRECTION('center_axis',(-1.,1.00739441403482E-11,0.));
#747=DIRECTION('ref_axis',(1.00739441403482E-11,1.,0.));
#748=DIRECTION('',(0.,0.,-1.));
#749=DIRECTION('',(-1.00739441403482E-11,-1.,0.));
#750=DIRECTION('center_axis',(-0.866025403785534,0.499999999998103,0.));
#751=DIRECTION('ref_axis',(0.499999999998103,0.866025403785534,0.));
#752=DIRECTION('',(0.,0.,-1.));
#753=DIRECTION('',(0.499999999998103,0.866025403785534,0.));
#754=DIRECTION('center_axis',(-0.866025403788161,-0.499999999993553,0.));
#755=DIRECTION('ref_axis',(-0.499999999993553,0.866025403788161,0.));
#756=DIRECTION('',(0.,0.,-1.));
#757=DIRECTION('',(0.499999999993553,-0.866025403788161,0.));
#758=DIRECTION('center_axis',(-1.,-2.91113130606325E-12,0.));
#759=DIRECTION('ref_axis',(-2.91113130606325E-12,1.,0.));
#760=DIRECTION('',(0.,0.,-1.));
#761=DIRECTION('',(-2.91113130606325E-12,1.,0.));
#762=DIRECTION('center_axis',(-0.500000000008432,-0.866025403779571,0.));
#763=DIRECTION('ref_axis',(-0.866025403779571,0.500000000008432,0.));
#764=DIRECTION('',(0.866025403779571,-0.500000000008432,0.));
#765=DIRECTION('center_axis',(0.,0.,1.));
#766=DIRECTION('ref_axis',(1.,0.,0.));
#767=DIRECTION('center_axis',(0.,0.,-1.));
#768=DIRECTION('ref_axis',(-1.,0.,0.));
#769=CARTESIAN_POINT('',(0.,0.,0.));
#770=CARTESIAN_POINT('Origin',(0.,-2.75545529808155E-18,0.0225));
#771=CARTESIAN_POINT('',(-1.8982025386784E-17,0.155,0.045));
#772=CARTESIAN_POINT('Origin',(0.,-5.51091059616309E-18,0.045));
#773=CARTESIAN_POINT('',(-1.94641675896531E-17,0.158936989858667,0.));
#774=CARTESIAN_POINT('',(-1.92230964882186E-17,0.156968494929333,0.0225));
#775=CARTESIAN_POINT('Origin',(0.,1.21318421693684E-33,0.));
#776=CARTESIAN_POINT('Origin',(0.,0.,0.045));
#777=CARTESIAN_POINT('Origin',(0.,0.25,-1.));
#778=CARTESIAN_POINT('',(-3.06161699786838E-17,-0.25,-1.));
#779=CARTESIAN_POINT('Origin',(0.,0.,-1.));
#780=CARTESIAN_POINT('',(0.13408562709957,0.134085627099614,-1.));
#781=CARTESIAN_POINT('',(0.10575,0.183164372900409,-1.));
#782=CARTESIAN_POINT('',(0.078060912263481,0.231123279675307,-1.));
#783=CARTESIAN_POINT('',(0.183164372900409,0.10575,-1.));
#784=CARTESIAN_POINT('',(0.0587073190383662,0.177605313549823,-1.));
#785=CARTESIAN_POINT('',(0.183164372900411,0.0490787458009478,-1.));
#786=CARTESIAN_POINT('',(0.183164372900406,0.177875000000004,-1.));
#787=CARTESIAN_POINT('',(0.2115,-4.69624339416441E-17,-1.));
#788=CARTESIAN_POINT('',(0.116768098713861,0.164080466125642,-1.));
#789=CARTESIAN_POINT('',(0.183164372900556,-0.0490787458006714,-1.));
#790=CARTESIAN_POINT('',(0.239189087736555,0.0479589067750529,-1.));
#791=CARTESIAN_POINT('',(0.183164372900409,-0.10575,-1.));
#792=CARTESIAN_POINT('',(0.183164372900945,0.100460627099426,-1.));
#793=CARTESIAN_POINT('',(0.134085627099898,-0.134085627099516,-1.));
#794=CARTESIAN_POINT('',(0.191499867412094,-0.100937499999832,-1.));
#795=CARTESIAN_POINT('',(0.10575,-0.183164372900409,-1.));
#796=CARTESIAN_POINT('',(0.200481901286727,-0.0190839067757193,-1.));
#797=CARTESIAN_POINT('',(0.0490787458011655,-0.183164372900538,-1.));
#798=CARTESIAN_POINT('',(0.0528750000004951,-0.18316437290053,-1.));
#799=CARTESIAN_POINT('',(-2.59012798019665E-17,-0.2115,-1.));
#800=CARTESIAN_POINT('',(0.12445705386163,-0.139644686451278,-1.));
#801=CARTESIAN_POINT('',(-0.0490787458006539,-0.183164372900716,-1.));
#802=CARTESIAN_POINT('',(-0.0999176809612539,-0.153812500000651,-1.));
#803=CARTESIAN_POINT('',(-0.10575,-0.183164372900409,-1.));
#804=CARTESIAN_POINT('',(-0.0245393729015028,-0.18316437290085,-1.));
#805=CARTESIAN_POINT('',(-0.134085627099364,-0.13408562710036,-1.));
#806=CARTESIAN_POINT('',(-0.186314087736734,-0.043623279676013,-1.));
#807=CARTESIAN_POINT('',(-0.183164372900409,-0.10575,-1.));
#808=CARTESIAN_POINT('',(-0.166960494512949,-0.115105313549126,-1.));
#809=CARTESIAN_POINT('',(-0.183164372900574,-0.0490787458013757,-1.));
#810=CARTESIAN_POINT('',(-0.183164372900927,0.0721249999997334,-1.));
#811=CARTESIAN_POINT('',(-0.2115,-4.69624339416441E-17,-1.));
#812=CARTESIAN_POINT('',(-0.225021274187031,0.0234195338754095,-1.));
#813=CARTESIAN_POINT('',(-0.18316437290098,0.0490787458000771,-1.));
#814=CARTESIAN_POINT('',(-0.13093591226381,0.139541093225223,-1.));
#815=CARTESIAN_POINT('',(-0.183164372900409,0.10575,-1.));
#816=CARTESIAN_POINT('',(-0.183164372899968,0.149539372900961,-1.));
#817=CARTESIAN_POINT('',(-0.134085627100197,0.134085627099329,-1.));
#818=CARTESIAN_POINT('',(-0.0832466919388368,0.163437500000144,-1.));
#819=CARTESIAN_POINT('',(-0.10575,0.183164372900409,-1.));
#820=CARTESIAN_POINT('',(-0.0922287258131371,0.206583906774749,-1.));
#821=CARTESIAN_POINT('',(-0.0490787458011533,0.183164372900441,-1.));
#822=CARTESIAN_POINT('',(-0.052874999999981,0.183164372900439,-1.));
#823=CARTESIAN_POINT('',(0.,0.2115,-1.));
#824=CARTESIAN_POINT('',(-0.0162038783891847,0.202144686450163,-1.));
#825=CARTESIAN_POINT('',(0.0490787458008513,0.183164372900396,-1.));
#826=CARTESIAN_POINT('',(-0.00833549451142425,0.216312499999998,-1.));
#827=CARTESIAN_POINT('',(0.0245393729004332,0.18316437290039,-1.));
#828=CARTESIAN_POINT('Origin',(0.,0.,-1.625));
#829=CARTESIAN_POINT('',(-3.06161699786838E-17,-0.25,-2.25));
#830=CARTESIAN_POINT('Origin',(0.,0.,-2.25));
#831=CARTESIAN_POINT('',(-3.06161699786838E-17,-0.25,-1.625));
#832=CARTESIAN_POINT('Origin',(-0.10575,-0.183164372900409,0.));
#833=CARTESIAN_POINT('',(-0.10575,-0.183164372900409,0.));
#834=CARTESIAN_POINT('',(-0.10575,-0.183164372900409,0.));
#835=CARTESIAN_POINT('',(-0.134085627099364,-0.13408562710036,0.));
#836=CARTESIAN_POINT('',(-0.10575,-0.183164372900409,0.));
#837=CARTESIAN_POINT('',(-0.134085627099364,-0.13408562710036,0.));
#838=CARTESIAN_POINT('Origin',(-0.0490787458006539,-0.183164372900716,0.));
#839=CARTESIAN_POINT('',(-0.0490787458006539,-0.183164372900716,0.));
#840=CARTESIAN_POINT('',(-0.0490787458006539,-0.183164372900716,0.));
#841=CARTESIAN_POINT('',(-0.10575,-0.183164372900409,0.));
#842=CARTESIAN_POINT('Origin',(-2.59012798019665E-17,-0.2115,0.));
#843=CARTESIAN_POINT('',(-2.59012798019665E-17,-0.2115,0.));
#844=CARTESIAN_POINT('',(-2.59012798019665E-17,-0.2115,0.));
#845=CARTESIAN_POINT('',(-2.59012798019665E-17,-0.2115,0.));
#846=CARTESIAN_POINT('Origin',(0.0490787458011655,-0.183164372900538,0.));
#847=CARTESIAN_POINT('',(0.0490787458011655,-0.183164372900538,0.));
#848=CARTESIAN_POINT('',(0.0490787458011655,-0.183164372900538,0.));
#849=CARTESIAN_POINT('',(-2.59012798019665E-17,-0.2115,0.));
#850=CARTESIAN_POINT('Origin',(0.10575,-0.183164372900409,0.));
#851=CARTESIAN_POINT('',(0.10575,-0.183164372900409,0.));
#852=CARTESIAN_POINT('',(0.10575,-0.183164372900409,0.));
#853=CARTESIAN_POINT('',(0.10575,-0.183164372900409,0.));
#854=CARTESIAN_POINT('Origin',(0.134085627099898,-0.134085627099516,0.));
#855=CARTESIAN_POINT('',(0.134085627099898,-0.134085627099516,0.));
#856=CARTESIAN_POINT('',(0.134085627099898,-0.134085627099516,0.));
#857=CARTESIAN_POINT('',(0.10575,-0.183164372900409,0.));
#858=CARTESIAN_POINT('Origin',(0.183164372900409,-0.10575,0.));
#859=CARTESIAN_POINT('',(0.183164372900409,-0.10575,0.));
#860=CARTESIAN_POINT('',(0.183164372900409,-0.10575,0.));
#861=CARTESIAN_POINT('',(0.183164372900409,-0.10575,0.));
#862=CARTESIAN_POINT('Origin',(0.183164372900556,-0.0490787458006714,0.));
#863=CARTESIAN_POINT('',(0.183164372900556,-0.0490787458006714,0.));
#864=CARTESIAN_POINT('',(0.183164372900556,-0.0490787458006714,0.));
#865=CARTESIAN_POINT('',(0.183164372900409,-0.10575,0.));
#866=CARTESIAN_POINT('Origin',(0.2115,-4.69624339416441E-17,0.));
#867=CARTESIAN_POINT('',(0.2115,-4.69624339416441E-17,0.));
#868=CARTESIAN_POINT('',(0.2115,-4.69624339416441E-17,0.));
#869=CARTESIAN_POINT('',(0.2115,-4.69624339416441E-17,0.));
#870=CARTESIAN_POINT('Origin',(0.183164372900411,0.0490787458009478,0.));
#871=CARTESIAN_POINT('',(0.183164372900411,0.0490787458009478,0.));
#872=CARTESIAN_POINT('',(0.183164372900411,0.0490787458009478,0.));
#873=CARTESIAN_POINT('',(0.2115,-4.69624339416441E-17,0.));
#874=CARTESIAN_POINT('Origin',(0.183164372900409,0.10575,0.));
#875=CARTESIAN_POINT('',(0.183164372900409,0.10575,0.));
#876=CARTESIAN_POINT('',(0.183164372900409,0.10575,0.));
#877=CARTESIAN_POINT('',(0.183164372900409,0.10575,0.));
#878=CARTESIAN_POINT('Origin',(0.13408562709957,0.134085627099614,0.));
#879=CARTESIAN_POINT('',(0.13408562709957,0.134085627099614,0.));
#880=CARTESIAN_POINT('',(0.13408562709957,0.134085627099614,0.));
#881=CARTESIAN_POINT('',(0.183164372900409,0.10575,0.));
#882=CARTESIAN_POINT('Origin',(0.10575,0.183164372900409,0.));
#883=CARTESIAN_POINT('',(0.10575,0.183164372900409,0.));
#884=CARTESIAN_POINT('',(0.10575,0.183164372900409,0.));
#885=CARTESIAN_POINT('',(0.10575,0.183164372900409,0.));
#886=CARTESIAN_POINT('Origin',(0.0490787458008513,0.183164372900396,0.));
#887=CARTESIAN_POINT('',(0.0490787458008513,0.183164372900396,0.));
#888=CARTESIAN_POINT('',(0.0490787458008513,0.183164372900396,0.));
#889=CARTESIAN_POINT('',(0.10575,0.183164372900409,0.));
#890=CARTESIAN_POINT('Origin',(0.,0.2115,0.));
#891=CARTESIAN_POINT('',(0.,0.2115,0.));
#892=CARTESIAN_POINT('',(0.,0.2115,0.));
#893=CARTESIAN_POINT('',(0.,0.2115,0.));
#894=CARTESIAN_POINT('Origin',(-0.0490787458011532,0.183164372900441,0.));
#895=CARTESIAN_POINT('',(-0.0490787458011533,0.183164372900441,0.));
#896=CARTESIAN_POINT('',(-0.0490787458011533,0.183164372900441,0.));
#897=CARTESIAN_POINT('',(0.,0.2115,0.));
#898=CARTESIAN_POINT('Origin',(-0.10575,0.183164372900409,0.));
#899=CARTESIAN_POINT('',(-0.10575,0.183164372900409,0.));
#900=CARTESIAN_POINT('',(-0.10575,0.183164372900409,0.));
#901=CARTESIAN_POINT('',(-0.10575,0.183164372900409,0.));
#902=CARTESIAN_POINT('Origin',(-0.134085627100197,0.134085627099329,0.));
#903=CARTESIAN_POINT('',(-0.134085627100197,0.134085627099329,0.));
#904=CARTESIAN_POINT('',(-0.134085627100197,0.134085627099329,0.));
#905=CARTESIAN_POINT('',(-0.10575,0.183164372900409,0.));
#906=CARTESIAN_POINT('Origin',(-0.183164372900409,0.10575,0.));
#907=CARTESIAN_POINT('',(-0.183164372900409,0.10575,0.));
#908=CARTESIAN_POINT('',(-0.183164372900409,0.10575,0.));
#909=CARTESIAN_POINT('',(-0.183164372900409,0.10575,0.));
#910=CARTESIAN_POINT('Origin',(-0.18316437290098,0.0490787458000771,0.));
#911=CARTESIAN_POINT('',(-0.18316437290098,0.0490787458000771,0.));
#912=CARTESIAN_POINT('',(-0.18316437290098,0.0490787458000771,0.));
#913=CARTESIAN_POINT('',(-0.183164372900409,0.10575,0.));
#914=CARTESIAN_POINT('Origin',(-0.2115,-4.69624339416441E-17,0.));
#915=CARTESIAN_POINT('',(-0.2115,-4.69624339416441E-17,0.));
#916=CARTESIAN_POINT('',(-0.2115,-4.69624339416441E-17,0.));
#917=CARTESIAN_POINT('',(-0.2115,-4.69624339416441E-17,0.));
#918=CARTESIAN_POINT('Origin',(-0.183164372900574,-0.0490787458013757,0.));
#919=CARTESIAN_POINT('',(-0.183164372900574,-0.0490787458013757,0.));
#920=CARTESIAN_POINT('',(-0.183164372900574,-0.0490787458013757,0.));
#921=CARTESIAN_POINT('',(-0.2115,-4.69624339416441E-17,0.));
#922=CARTESIAN_POINT('Origin',(-0.183164372900409,-0.10575,0.));
#923=CARTESIAN_POINT('',(-0.183164372900409,-0.10575,0.));
#924=CARTESIAN_POINT('',(-0.183164372900409,-0.10575,0.));
#925=CARTESIAN_POINT('',(-0.183164372900409,-0.10575,0.));
#926=CARTESIAN_POINT('Origin',(-0.134085627099364,-0.13408562710036,0.));
#927=CARTESIAN_POINT('',(-0.183164372900409,-0.10575,0.));
#928=CARTESIAN_POINT('Origin',(-4.37095678986282E-17,0.,0.));
#929=CARTESIAN_POINT('Origin',(-4.37095678986282E-17,0.,-2.25));
#930=UNCERTAINTY_MEASURE_WITH_UNIT(LENGTH_MEASURE(0.000393700787401575),
#935,'DISTANCE_ACCURACY_VALUE',
'Maximum model space distance between geometric entities at asserted c
onnectivities');
#931=UNCERTAINTY_MEASURE_WITH_UNIT(LENGTH_MEASURE(0.000393700787401575),
#935,'DISTANCE_ACCURACY_VALUE',
'Maximum model space distance between geometric entities at asserted c
onnectivities');
#932=(
GEOMETRIC_REPRESENTATION_CONTEXT(3)
GLOBAL_UNCERTAINTY_ASSIGNED_CONTEXT((#930))
GLOBAL_UNIT_ASSIGNED_CONTEXT((#935,#939,#940))
REPRESENTATION_CONTEXT('','3D')
);
#933=(
GEOMETRIC_REPRESENTATION_CONTEXT(3)
GLOBAL_UNCERTAINTY_ASSIGNED_CONTEXT((#931))
GLOBAL_UNIT_ASSIGNED_CONTEXT((#935,#939,#940))
REPRESENTATION_CONTEXT('','3D')
);
#934=DIMENSIONAL_EXPONENTS(1.,0.,0.,0.,0.,0.,0.);
#935=(
CONVERSION_BASED_UNIT('inch',#938)
LENGTH_UNIT()
NAMED_UNIT(#934)
);
#936=(
LENGTH_UNIT()
NAMED_UNIT(*)
SI_UNIT(.MILLI.,.METRE.)
);
#937=(
LENGTH_UNIT()
NAMED_UNIT(*)
SI_UNIT($,.METRE.)
);
#938=LENGTH_MEASURE_WITH_UNIT(LENGTH_MEASURE(25.4),#936);
#939=(
NAMED_UNIT(*)
PLANE_ANGLE_UNIT()
SI_UNIT($,.RADIAN.)
);
#940=(
NAMED_UNIT(*)
SI_UNIT($,.STERADIAN.)
SOLID_ANGLE_UNIT()
);
#941=SHAPE_DEFINITION_REPRESENTATION(#942,#943);
#942=PRODUCT_DEFINITION_SHAPE('',$,#945);
#943=SHAPE_REPRESENTATION('',(#590),#932);
#944=PRODUCT_DEFINITION_CONTEXT('part definition',#949,'design');
#945=PRODUCT_DEFINITION('12PT PIN','12PT PIN v9',#946,#944);
#946=PRODUCT_DEFINITION_FORMATION('',$,#951);
#947=PRODUCT_RELATED_PRODUCT_CATEGORY('12PT PIN v9','12PT PIN v9',(#951));
#948=APPLICATION_PROTOCOL_DEFINITION('international standard',
'automotive_design',2009,#949);
#949=APPLICATION_CONTEXT(
'Core Data for Automotive Mechanical Design Process');
#950=PRODUCT_CONTEXT('part definition',#949,'mechanical');
#951=PRODUCT('12PT PIN','12PT PIN v9',$,(#950));
#952=PRESENTATION_STYLE_ASSIGNMENT((#953));
#953=SURFACE_STYLE_USAGE(.BOTH.,#954);
#954=SURFACE_SIDE_STYLE('',(#955));
#955=SURFACE_STYLE_FILL_AREA(#956);
#956=FILL_AREA_STYLE('Steel - Satin',(#957));
#957=FILL_AREA_STYLE_COLOUR('Steel - Satin',#958);
#958=COLOUR_RGB('Steel - Satin',0.627450980392157,0.627450980392157,0.627450980392157);
ENDSEC;
END-ISO-10303-21;
