ISO-10303-21;
HEADER;
/* Generated by software containing ST-Developer
 * from STEP Tools, Inc. (www.steptools.com) 
 */

FILE_DESCRIPTION(
/* description */ (''),
/* implementation_level */ '2;1');

FILE_NAME(
/* name */ '136L024368.step',
/* time_stamp */ '2026-01-07T10:36:51-06:00',
/* author */ (''),
/* organization */ (''),
/* preprocessor_version */ 'ST-DEVELOPER v20.1',
/* originating_system */ 'Autodesk Translation Framework v14.24.0.0',
/* authorisation */ '');

FILE_SCHEMA (('AUTOMOTIVE_DESIGN { 1 0 10303 214 3 1 1 }'));
ENDSEC;

DATA;
#10=MECHANICAL_DESIGN_GEOMETRIC_PRESENTATION_REPRESENTATION('',(#13),#812);
#11=SHAPE_REPRESENTATION_RELATIONSHIP('SRR','None',#822,#12);
#12=ADVANCED_BREP_SHAPE_REPRESENTATION('',(#14),#811);
#13=STYLED_ITEM('',(#831),#14);
#14=MANIFOLD_SOLID_BREP('Body1',#473);
#15=CYLINDRICAL_SURFACE('',#499,0.197);
#16=CYLINDRICAL_SURFACE('',#502,0.197);
#17=CYLINDRICAL_SURFACE('',#505,0.197);
#18=CYLINDRICAL_SURFACE('',#508,0.197);
#19=CYLINDRICAL_SURFACE('',#511,0.394);
#20=CYLINDRICAL_SURFACE('',#514,0.394);
#21=CYLINDRICAL_SURFACE('',#517,0.394);
#22=CYLINDRICAL_SURFACE('',#520,0.394);
#23=CYLINDRICAL_SURFACE('',#523,0.787);
#24=CYLINDRICAL_SURFACE('',#527,0.787);
#25=CYLINDRICAL_SURFACE('',#530,0.590500000000854);
#26=FACE_BOUND('',#53,.T.);
#27=FACE_BOUND('',#77,.T.);
#28=FACE_OUTER_BOUND('',#52,.T.);
#29=FACE_OUTER_BOUND('',#54,.T.);
#30=FACE_OUTER_BOUND('',#55,.T.);
#31=FACE_OUTER_BOUND('',#56,.T.);
#32=FACE_OUTER_BOUND('',#57,.T.);
#33=FACE_OUTER_BOUND('',#58,.T.);
#34=FACE_OUTER_BOUND('',#59,.T.);
#35=FACE_OUTER_BOUND('',#60,.T.);
#36=FACE_OUTER_BOUND('',#61,.T.);
#37=FACE_OUTER_BOUND('',#62,.T.);
#38=FACE_OUTER_BOUND('',#63,.T.);
#39=FACE_OUTER_BOUND('',#64,.T.);
#40=FACE_OUTER_BOUND('',#65,.T.);
#41=FACE_OUTER_BOUND('',#66,.T.);
#42=FACE_OUTER_BOUND('',#67,.T.);
#43=FACE_OUTER_BOUND('',#68,.T.);
#44=FACE_OUTER_BOUND('',#69,.T.);
#45=FACE_OUTER_BOUND('',#70,.T.);
#46=FACE_OUTER_BOUND('',#71,.T.);
#47=FACE_OUTER_BOUND('',#72,.T.);
#48=FACE_OUTER_BOUND('',#73,.T.);
#49=FACE_OUTER_BOUND('',#74,.T.);
#50=FACE_OUTER_BOUND('',#75,.T.);
#51=FACE_OUTER_BOUND('',#76,.T.);
#52=EDGE_LOOP('',(#302,#303,#304,#305,#306,#307,#308,#309,#310,#311,#312,
#313,#314,#315));
#53=EDGE_LOOP('',(#316,#317,#318,#319,#320,#321,#322,#323));
#54=EDGE_LOOP('',(#324,#325,#326,#327));
#55=EDGE_LOOP('',(#328,#329,#330,#331));
#56=EDGE_LOOP('',(#332,#333,#334,#335));
#57=EDGE_LOOP('',(#336,#337,#338,#339));
#58=EDGE_LOOP('',(#340,#341,#342,#343));
#59=EDGE_LOOP('',(#344,#345,#346,#347));
#60=EDGE_LOOP('',(#348,#349,#350,#351));
#61=EDGE_LOOP('',(#352,#353,#354,#355));
#62=EDGE_LOOP('',(#356,#357,#358,#359));
#63=EDGE_LOOP('',(#360,#361,#362,#363));
#64=EDGE_LOOP('',(#364,#365,#366,#367));
#65=EDGE_LOOP('',(#368,#369,#370,#371));
#66=EDGE_LOOP('',(#372,#373,#374,#375));
#67=EDGE_LOOP('',(#376,#377,#378,#379));
#68=EDGE_LOOP('',(#380,#381,#382,#383));
#69=EDGE_LOOP('',(#384,#385,#386,#387,#388));
#70=EDGE_LOOP('',(#389,#390,#391,#392,#393));
#71=EDGE_LOOP('',(#394,#395,#396,#397));
#72=EDGE_LOOP('',(#398,#399,#400,#401));
#73=EDGE_LOOP('',(#402,#403,#404,#405));
#74=EDGE_LOOP('',(#406,#407,#408,#409));
#75=EDGE_LOOP('',(#410,#411,#412,#413));
#76=EDGE_LOOP('',(#414,#415,#416,#417,#418,#419,#420,#421,#422,#423,#424,
#425,#426,#427));
#77=EDGE_LOOP('',(#428,#429,#430,#431,#432,#433,#434,#435));
#78=LINE('',#678,#123);
#79=LINE('',#682,#124);
#80=LINE('',#686,#125);
#81=LINE('',#690,#126);
#82=LINE('',#694,#127);
#83=LINE('',#698,#128);
#84=LINE('',#701,#129);
#85=LINE('',#704,#130);
#86=LINE('',#708,#131);
#87=LINE('',#712,#132);
#88=LINE('',#716,#133);
#89=LINE('',#720,#134);
#90=LINE('',#723,#135);
#91=LINE('',#726,#136);
#92=LINE('',#727,#137);
#93=LINE('',#730,#138);
#94=LINE('',#734,#139);
#95=LINE('',#735,#140);
#96=LINE('',#738,#141);
#97=LINE('',#742,#142);
#98=LINE('',#743,#143);
#99=LINE('',#746,#144);
#100=LINE('',#749,#145);
#101=LINE('',#754,#146);
#102=LINE('',#755,#147);
#103=LINE('',#758,#148);
#104=LINE('',#759,#149);
#105=LINE('',#763,#150);
#106=LINE('',#766,#151);
#107=LINE('',#767,#152);
#108=LINE('',#771,#153);
#109=LINE('',#774,#154);
#110=LINE('',#775,#155);
#111=LINE('',#779,#156);
#112=LINE('',#782,#157);
#113=LINE('',#784,#158);
#114=LINE('',#786,#159);
#115=LINE('',#787,#160);
#116=LINE('',#791,#161);
#117=LINE('',#793,#162);
#118=LINE('',#796,#163);
#119=LINE('',#797,#164);
#120=LINE('',#801,#165);
#121=LINE('',#804,#166);
#122=LINE('',#805,#167);
#123=VECTOR('',#539,0.393700787401575);
#124=VECTOR('',#542,0.393700787401575);
#125=VECTOR('',#545,0.393700787401575);
#126=VECTOR('',#548,0.393700787401575);
#127=VECTOR('',#551,0.393700787401575);
#128=VECTOR('',#554,0.393700787401575);
#129=VECTOR('',#557,0.393700787401575);
#130=VECTOR('',#558,0.393700787401575);
#131=VECTOR('',#561,0.393700787401575);
#132=VECTOR('',#564,0.393700787401575);
#133=VECTOR('',#567,0.393700787401575);
#134=VECTOR('',#572,0.393700787401575);
#135=VECTOR('',#575,0.393700787401575);
#136=VECTOR('',#578,0.393700787401575);
#137=VECTOR('',#579,0.393700787401575);
#138=VECTOR('',#582,0.393700787401575);
#139=VECTOR('',#587,0.393700787401575);
#140=VECTOR('',#588,0.393700787401575);
#141=VECTOR('',#591,0.393700787401575);
#142=VECTOR('',#596,0.393700787401575);
#143=VECTOR('',#597,0.393700787401575);
#144=VECTOR('',#600,0.393700787401575);
#145=VECTOR('',#605,0.393700787401575);
#146=VECTOR('',#610,0.393700787401575);
#147=VECTOR('',#611,0.393700787401575);
#148=VECTOR('',#614,0.393700787401575);
#149=VECTOR('',#615,0.393700787401575);
#150=VECTOR('',#620,0.393700787401575);
#151=VECTOR('',#623,0.393700787401575);
#152=VECTOR('',#624,0.393700787401575);
#153=VECTOR('',#629,0.393700787401575);
#154=VECTOR('',#632,0.393700787401575);
#155=VECTOR('',#633,0.393700787401575);
#156=VECTOR('',#638,0.393700787401575);
#157=VECTOR('',#641,0.393700787401575);
#158=VECTOR('',#642,0.393700787401575);
#159=VECTOR('',#643,0.393700787401575);
#160=VECTOR('',#644,0.393700787401575);
#161=VECTOR('',#649,0.393700787401575);
#162=VECTOR('',#652,0.393700787401575);
#163=VECTOR('',#655,0.393700787401575);
#164=VECTOR('',#656,0.393700787401575);
#165=VECTOR('',#661,0.393700787401575);
#166=VECTOR('',#664,0.393700787401575);
#167=VECTOR('',#665,0.393700787401575);
#168=CIRCLE('',#488,0.394);
#169=CIRCLE('',#489,0.787);
#170=CIRCLE('',#490,0.590500000000854);
#171=CIRCLE('',#491,0.787);
#172=CIRCLE('',#492,0.394);
#173=CIRCLE('',#493,0.394);
#174=CIRCLE('',#494,0.394);
#175=CIRCLE('',#495,0.197);
#176=CIRCLE('',#496,0.197);
#177=CIRCLE('',#497,0.197);
#178=CIRCLE('',#498,0.197);
#179=CIRCLE('',#500,0.197);
#180=CIRCLE('',#503,0.197);
#181=CIRCLE('',#506,0.197);
#182=CIRCLE('',#509,0.197);
#183=CIRCLE('',#512,0.394);
#184=CIRCLE('',#515,0.394);
#185=CIRCLE('',#518,0.394);
#186=CIRCLE('',#521,0.394);
#187=CIRCLE('',#524,0.787);
#188=CIRCLE('',#528,0.787);
#189=CIRCLE('',#531,0.590500000000854);
#190=VERTEX_POINT('',#674);
#191=VERTEX_POINT('',#675);
#192=VERTEX_POINT('',#677);
#193=VERTEX_POINT('',#679);
#194=VERTEX_POINT('',#681);
#195=VERTEX_POINT('',#683);
#196=VERTEX_POINT('',#685);
#197=VERTEX_POINT('',#687);
#198=VERTEX_POINT('',#689);
#199=VERTEX_POINT('',#691);
#200=VERTEX_POINT('',#693);
#201=VERTEX_POINT('',#695);
#202=VERTEX_POINT('',#697);
#203=VERTEX_POINT('',#699);
#204=VERTEX_POINT('',#702);
#205=VERTEX_POINT('',#703);
#206=VERTEX_POINT('',#705);
#207=VERTEX_POINT('',#707);
#208=VERTEX_POINT('',#709);
#209=VERTEX_POINT('',#711);
#210=VERTEX_POINT('',#713);
#211=VERTEX_POINT('',#715);
#212=VERTEX_POINT('',#719);
#213=VERTEX_POINT('',#721);
#214=VERTEX_POINT('',#725);
#215=VERTEX_POINT('',#729);
#216=VERTEX_POINT('',#733);
#217=VERTEX_POINT('',#737);
#218=VERTEX_POINT('',#741);
#219=VERTEX_POINT('',#745);
#220=VERTEX_POINT('',#751);
#221=VERTEX_POINT('',#752);
#222=VERTEX_POINT('',#757);
#223=VERTEX_POINT('',#761);
#224=VERTEX_POINT('',#765);
#225=VERTEX_POINT('',#769);
#226=VERTEX_POINT('',#773);
#227=VERTEX_POINT('',#777);
#228=VERTEX_POINT('',#781);
#229=VERTEX_POINT('',#783);
#230=VERTEX_POINT('',#785);
#231=VERTEX_POINT('',#789);
#232=VERTEX_POINT('',#795);
#233=VERTEX_POINT('',#799);
#234=VERTEX_POINT('',#803);
#235=EDGE_CURVE('',#190,#191,#168,.T.);
#236=EDGE_CURVE('',#191,#192,#78,.T.);
#237=EDGE_CURVE('',#192,#193,#169,.T.);
#238=EDGE_CURVE('',#193,#194,#79,.T.);
#239=EDGE_CURVE('',#194,#195,#170,.T.);
#240=EDGE_CURVE('',#195,#196,#80,.T.);
#241=EDGE_CURVE('',#196,#197,#171,.T.);
#242=EDGE_CURVE('',#197,#198,#81,.T.);
#243=EDGE_CURVE('',#198,#199,#172,.T.);
#244=EDGE_CURVE('',#199,#200,#82,.T.);
#245=EDGE_CURVE('',#200,#201,#173,.T.);
#246=EDGE_CURVE('',#201,#202,#83,.T.);
#247=EDGE_CURVE('',#202,#203,#174,.T.);
#248=EDGE_CURVE('',#203,#190,#84,.T.);
#249=EDGE_CURVE('',#204,#205,#85,.T.);
#250=EDGE_CURVE('',#205,#206,#175,.T.);
#251=EDGE_CURVE('',#206,#207,#86,.T.);
#252=EDGE_CURVE('',#207,#208,#176,.T.);
#253=EDGE_CURVE('',#208,#209,#87,.T.);
#254=EDGE_CURVE('',#209,#210,#177,.T.);
#255=EDGE_CURVE('',#210,#211,#88,.T.);
#256=EDGE_CURVE('',#211,#204,#178,.T.);
#257=EDGE_CURVE('',#211,#212,#89,.T.);
#258=EDGE_CURVE('',#212,#213,#179,.T.);
#259=EDGE_CURVE('',#213,#204,#90,.T.);
#260=EDGE_CURVE('',#214,#210,#91,.T.);
#261=EDGE_CURVE('',#212,#214,#92,.T.);
#262=EDGE_CURVE('',#209,#215,#93,.T.);
#263=EDGE_CURVE('',#215,#214,#180,.T.);
#264=EDGE_CURVE('',#216,#208,#94,.T.);
#265=EDGE_CURVE('',#215,#216,#95,.T.);
#266=EDGE_CURVE('',#207,#217,#96,.T.);
#267=EDGE_CURVE('',#217,#216,#181,.T.);
#268=EDGE_CURVE('',#218,#206,#97,.T.);
#269=EDGE_CURVE('',#217,#218,#98,.T.);
#270=EDGE_CURVE('',#205,#219,#99,.T.);
#271=EDGE_CURVE('',#219,#218,#182,.T.);
#272=EDGE_CURVE('',#219,#213,#100,.T.);
#273=EDGE_CURVE('',#220,#221,#183,.T.);
#274=EDGE_CURVE('',#221,#191,#101,.T.);
#275=EDGE_CURVE('',#190,#220,#102,.T.);
#276=EDGE_CURVE('',#222,#203,#103,.T.);
#277=EDGE_CURVE('',#220,#222,#104,.T.);
#278=EDGE_CURVE('',#223,#222,#184,.T.);
#279=EDGE_CURVE('',#202,#223,#105,.T.);
#280=EDGE_CURVE('',#224,#201,#106,.T.);
#281=EDGE_CURVE('',#223,#224,#107,.T.);
#282=EDGE_CURVE('',#225,#224,#185,.T.);
#283=EDGE_CURVE('',#200,#225,#108,.T.);
#284=EDGE_CURVE('',#226,#199,#109,.T.);
#285=EDGE_CURVE('',#225,#226,#110,.T.);
#286=EDGE_CURVE('',#227,#226,#186,.T.);
#287=EDGE_CURVE('',#227,#198,#111,.T.);
#288=EDGE_CURVE('',#228,#195,#112,.T.);
#289=EDGE_CURVE('',#229,#228,#113,.T.);
#290=EDGE_CURVE('',#230,#229,#114,.T.);
#291=EDGE_CURVE('',#230,#196,#115,.T.);
#292=EDGE_CURVE('',#231,#229,#187,.T.);
#293=EDGE_CURVE('',#197,#231,#116,.T.);
#294=EDGE_CURVE('',#227,#231,#117,.T.);
#295=EDGE_CURVE('',#232,#221,#118,.T.);
#296=EDGE_CURVE('',#232,#192,#119,.T.);
#297=EDGE_CURVE('',#233,#232,#188,.T.);
#298=EDGE_CURVE('',#233,#193,#120,.T.);
#299=EDGE_CURVE('',#234,#233,#121,.T.);
#300=EDGE_CURVE('',#234,#194,#122,.T.);
#301=EDGE_CURVE('',#228,#234,#189,.T.);
#302=ORIENTED_EDGE('',*,*,#235,.T.);
#303=ORIENTED_EDGE('',*,*,#236,.T.);
#304=ORIENTED_EDGE('',*,*,#237,.T.);
#305=ORIENTED_EDGE('',*,*,#238,.T.);
#306=ORIENTED_EDGE('',*,*,#239,.T.);
#307=ORIENTED_EDGE('',*,*,#240,.T.);
#308=ORIENTED_EDGE('',*,*,#241,.T.);
#309=ORIENTED_EDGE('',*,*,#242,.T.);
#310=ORIENTED_EDGE('',*,*,#243,.T.);
#311=ORIENTED_EDGE('',*,*,#244,.T.);
#312=ORIENTED_EDGE('',*,*,#245,.T.);
#313=ORIENTED_EDGE('',*,*,#246,.T.);
#314=ORIENTED_EDGE('',*,*,#247,.T.);
#315=ORIENTED_EDGE('',*,*,#248,.T.);
#316=ORIENTED_EDGE('',*,*,#249,.T.);
#317=ORIENTED_EDGE('',*,*,#250,.T.);
#318=ORIENTED_EDGE('',*,*,#251,.T.);
#319=ORIENTED_EDGE('',*,*,#252,.T.);
#320=ORIENTED_EDGE('',*,*,#253,.T.);
#321=ORIENTED_EDGE('',*,*,#254,.T.);
#322=ORIENTED_EDGE('',*,*,#255,.T.);
#323=ORIENTED_EDGE('',*,*,#256,.T.);
#324=ORIENTED_EDGE('',*,*,#257,.T.);
#325=ORIENTED_EDGE('',*,*,#258,.T.);
#326=ORIENTED_EDGE('',*,*,#259,.T.);
#327=ORIENTED_EDGE('',*,*,#256,.F.);
#328=ORIENTED_EDGE('',*,*,#257,.F.);
#329=ORIENTED_EDGE('',*,*,#255,.F.);
#330=ORIENTED_EDGE('',*,*,#260,.F.);
#331=ORIENTED_EDGE('',*,*,#261,.F.);
#332=ORIENTED_EDGE('',*,*,#262,.T.);
#333=ORIENTED_EDGE('',*,*,#263,.T.);
#334=ORIENTED_EDGE('',*,*,#260,.T.);
#335=ORIENTED_EDGE('',*,*,#254,.F.);
#336=ORIENTED_EDGE('',*,*,#262,.F.);
#337=ORIENTED_EDGE('',*,*,#253,.F.);
#338=ORIENTED_EDGE('',*,*,#264,.F.);
#339=ORIENTED_EDGE('',*,*,#265,.F.);
#340=ORIENTED_EDGE('',*,*,#266,.T.);
#341=ORIENTED_EDGE('',*,*,#267,.T.);
#342=ORIENTED_EDGE('',*,*,#264,.T.);
#343=ORIENTED_EDGE('',*,*,#252,.F.);
#344=ORIENTED_EDGE('',*,*,#266,.F.);
#345=ORIENTED_EDGE('',*,*,#251,.F.);
#346=ORIENTED_EDGE('',*,*,#268,.F.);
#347=ORIENTED_EDGE('',*,*,#269,.F.);
#348=ORIENTED_EDGE('',*,*,#270,.T.);
#349=ORIENTED_EDGE('',*,*,#271,.T.);
#350=ORIENTED_EDGE('',*,*,#268,.T.);
#351=ORIENTED_EDGE('',*,*,#250,.F.);
#352=ORIENTED_EDGE('',*,*,#259,.F.);
#353=ORIENTED_EDGE('',*,*,#272,.F.);
#354=ORIENTED_EDGE('',*,*,#270,.F.);
#355=ORIENTED_EDGE('',*,*,#249,.F.);
#356=ORIENTED_EDGE('',*,*,#273,.T.);
#357=ORIENTED_EDGE('',*,*,#274,.T.);
#358=ORIENTED_EDGE('',*,*,#235,.F.);
#359=ORIENTED_EDGE('',*,*,#275,.T.);
#360=ORIENTED_EDGE('',*,*,#275,.F.);
#361=ORIENTED_EDGE('',*,*,#248,.F.);
#362=ORIENTED_EDGE('',*,*,#276,.F.);
#363=ORIENTED_EDGE('',*,*,#277,.F.);
#364=ORIENTED_EDGE('',*,*,#278,.T.);
#365=ORIENTED_EDGE('',*,*,#276,.T.);
#366=ORIENTED_EDGE('',*,*,#247,.F.);
#367=ORIENTED_EDGE('',*,*,#279,.T.);
#368=ORIENTED_EDGE('',*,*,#279,.F.);
#369=ORIENTED_EDGE('',*,*,#246,.F.);
#370=ORIENTED_EDGE('',*,*,#280,.F.);
#371=ORIENTED_EDGE('',*,*,#281,.F.);
#372=ORIENTED_EDGE('',*,*,#282,.T.);
#373=ORIENTED_EDGE('',*,*,#280,.T.);
#374=ORIENTED_EDGE('',*,*,#245,.F.);
#375=ORIENTED_EDGE('',*,*,#283,.T.);
#376=ORIENTED_EDGE('',*,*,#283,.F.);
#377=ORIENTED_EDGE('',*,*,#244,.F.);
#378=ORIENTED_EDGE('',*,*,#284,.F.);
#379=ORIENTED_EDGE('',*,*,#285,.F.);
#380=ORIENTED_EDGE('',*,*,#286,.T.);
#381=ORIENTED_EDGE('',*,*,#284,.T.);
#382=ORIENTED_EDGE('',*,*,#243,.F.);
#383=ORIENTED_EDGE('',*,*,#287,.F.);
#384=ORIENTED_EDGE('',*,*,#288,.F.);
#385=ORIENTED_EDGE('',*,*,#289,.F.);
#386=ORIENTED_EDGE('',*,*,#290,.F.);
#387=ORIENTED_EDGE('',*,*,#291,.T.);
#388=ORIENTED_EDGE('',*,*,#240,.F.);
#389=ORIENTED_EDGE('',*,*,#290,.T.);
#390=ORIENTED_EDGE('',*,*,#292,.F.);
#391=ORIENTED_EDGE('',*,*,#293,.F.);
#392=ORIENTED_EDGE('',*,*,#241,.F.);
#393=ORIENTED_EDGE('',*,*,#291,.F.);
#394=ORIENTED_EDGE('',*,*,#287,.T.);
#395=ORIENTED_EDGE('',*,*,#242,.F.);
#396=ORIENTED_EDGE('',*,*,#293,.T.);
#397=ORIENTED_EDGE('',*,*,#294,.F.);
#398=ORIENTED_EDGE('',*,*,#274,.F.);
#399=ORIENTED_EDGE('',*,*,#295,.F.);
#400=ORIENTED_EDGE('',*,*,#296,.T.);
#401=ORIENTED_EDGE('',*,*,#236,.F.);
#402=ORIENTED_EDGE('',*,*,#296,.F.);
#403=ORIENTED_EDGE('',*,*,#297,.F.);
#404=ORIENTED_EDGE('',*,*,#298,.T.);
#405=ORIENTED_EDGE('',*,*,#237,.F.);
#406=ORIENTED_EDGE('',*,*,#298,.F.);
#407=ORIENTED_EDGE('',*,*,#299,.F.);
#408=ORIENTED_EDGE('',*,*,#300,.T.);
#409=ORIENTED_EDGE('',*,*,#238,.F.);
#410=ORIENTED_EDGE('',*,*,#300,.F.);
#411=ORIENTED_EDGE('',*,*,#301,.F.);
#412=ORIENTED_EDGE('',*,*,#288,.T.);
#413=ORIENTED_EDGE('',*,*,#239,.F.);
#414=ORIENTED_EDGE('',*,*,#273,.F.);
#415=ORIENTED_EDGE('',*,*,#277,.T.);
#416=ORIENTED_EDGE('',*,*,#278,.F.);
#417=ORIENTED_EDGE('',*,*,#281,.T.);
#418=ORIENTED_EDGE('',*,*,#282,.F.);
#419=ORIENTED_EDGE('',*,*,#285,.T.);
#420=ORIENTED_EDGE('',*,*,#286,.F.);
#421=ORIENTED_EDGE('',*,*,#294,.T.);
#422=ORIENTED_EDGE('',*,*,#292,.T.);
#423=ORIENTED_EDGE('',*,*,#289,.T.);
#424=ORIENTED_EDGE('',*,*,#301,.T.);
#425=ORIENTED_EDGE('',*,*,#299,.T.);
#426=ORIENTED_EDGE('',*,*,#297,.T.);
#427=ORIENTED_EDGE('',*,*,#295,.T.);
#428=ORIENTED_EDGE('',*,*,#272,.T.);
#429=ORIENTED_EDGE('',*,*,#258,.F.);
#430=ORIENTED_EDGE('',*,*,#261,.T.);
#431=ORIENTED_EDGE('',*,*,#263,.F.);
#432=ORIENTED_EDGE('',*,*,#265,.T.);
#433=ORIENTED_EDGE('',*,*,#267,.F.);
#434=ORIENTED_EDGE('',*,*,#269,.T.);
#435=ORIENTED_EDGE('',*,*,#271,.F.);
#436=PLANE('',#487);
#437=PLANE('',#501);
#438=PLANE('',#504);
#439=PLANE('',#507);
#440=PLANE('',#510);
#441=PLANE('',#513);
#442=PLANE('',#516);
#443=PLANE('',#519);
#444=PLANE('',#522);
#445=PLANE('',#525);
#446=PLANE('',#526);
#447=PLANE('',#529);
#448=PLANE('',#532);
#449=ADVANCED_FACE('',(#28,#26),#436,.F.);
#450=ADVANCED_FACE('',(#29),#15,.F.);
#451=ADVANCED_FACE('',(#30),#437,.T.);
#452=ADVANCED_FACE('',(#31),#16,.F.);
#453=ADVANCED_FACE('',(#32),#438,.T.);
#454=ADVANCED_FACE('',(#33),#17,.F.);
#455=ADVANCED_FACE('',(#34),#439,.T.);
#456=ADVANCED_FACE('',(#35),#18,.F.);
#457=ADVANCED_FACE('',(#36),#440,.T.);
#458=ADVANCED_FACE('',(#37),#19,.T.);
#459=ADVANCED_FACE('',(#38),#441,.T.);
#460=ADVANCED_FACE('',(#39),#20,.T.);
#461=ADVANCED_FACE('',(#40),#442,.T.);
#462=ADVANCED_FACE('',(#41),#21,.T.);
#463=ADVANCED_FACE('',(#42),#443,.T.);
#464=ADVANCED_FACE('',(#43),#22,.T.);
#465=ADVANCED_FACE('',(#44),#444,.T.);
#466=ADVANCED_FACE('',(#45),#23,.F.);
#467=ADVANCED_FACE('',(#46),#445,.T.);
#468=ADVANCED_FACE('',(#47),#446,.T.);
#469=ADVANCED_FACE('',(#48),#24,.F.);
#470=ADVANCED_FACE('',(#49),#447,.T.);
#471=ADVANCED_FACE('',(#50),#25,.T.);
#472=ADVANCED_FACE('',(#51,#27),#448,.T.);
#473=CLOSED_SHELL('',(#449,#450,#451,#452,#453,#454,#455,#456,#457,#458,
#459,#460,#461,#462,#463,#464,#465,#466,#467,#468,#469,#470,#471,#472));
#474=DERIVED_UNIT_ELEMENT(#476,1.);
#475=DERIVED_UNIT_ELEMENT(#816,-3.);
#476=(
MASS_UNIT()
NAMED_UNIT(*)
SI_UNIT(.KILO.,.GRAM.)
);
#477=DERIVED_UNIT((#474,#475));
#478=MEASURE_REPRESENTATION_ITEM('density measure',
POSITIVE_RATIO_MEASURE(1420.),#477);
#479=PROPERTY_DEFINITION_REPRESENTATION(#484,#481);
#480=PROPERTY_DEFINITION_REPRESENTATION(#485,#482);
#481=REPRESENTATION('material name',(#483),#811);
#482=REPRESENTATION('density',(#478),#811);
#483=DESCRIPTIVE_REPRESENTATION_ITEM('Polymide (Kapton)',
'Polymide (Kapton)');
#484=PROPERTY_DEFINITION('material property','material name',#824);
#485=PROPERTY_DEFINITION('material property','density of part',#824);
#486=AXIS2_PLACEMENT_3D('',#672,#533,#534);
#487=AXIS2_PLACEMENT_3D('',#673,#535,#536);
#488=AXIS2_PLACEMENT_3D('',#676,#537,#538);
#489=AXIS2_PLACEMENT_3D('',#680,#540,#541);
#490=AXIS2_PLACEMENT_3D('',#684,#543,#544);
#491=AXIS2_PLACEMENT_3D('',#688,#546,#547);
#492=AXIS2_PLACEMENT_3D('',#692,#549,#550);
#493=AXIS2_PLACEMENT_3D('',#696,#552,#553);
#494=AXIS2_PLACEMENT_3D('',#700,#555,#556);
#495=AXIS2_PLACEMENT_3D('',#706,#559,#560);
#496=AXIS2_PLACEMENT_3D('',#710,#562,#563);
#497=AXIS2_PLACEMENT_3D('',#714,#565,#566);
#498=AXIS2_PLACEMENT_3D('',#717,#568,#569);
#499=AXIS2_PLACEMENT_3D('',#718,#570,#571);
#500=AXIS2_PLACEMENT_3D('',#722,#573,#574);
#501=AXIS2_PLACEMENT_3D('',#724,#576,#577);
#502=AXIS2_PLACEMENT_3D('',#728,#580,#581);
#503=AXIS2_PLACEMENT_3D('',#731,#583,#584);
#504=AXIS2_PLACEMENT_3D('',#732,#585,#586);
#505=AXIS2_PLACEMENT_3D('',#736,#589,#590);
#506=AXIS2_PLACEMENT_3D('',#739,#592,#593);
#507=AXIS2_PLACEMENT_3D('',#740,#594,#595);
#508=AXIS2_PLACEMENT_3D('',#744,#598,#599);
#509=AXIS2_PLACEMENT_3D('',#747,#601,#602);
#510=AXIS2_PLACEMENT_3D('',#748,#603,#604);
#511=AXIS2_PLACEMENT_3D('',#750,#606,#607);
#512=AXIS2_PLACEMENT_3D('',#753,#608,#609);
#513=AXIS2_PLACEMENT_3D('',#756,#612,#613);
#514=AXIS2_PLACEMENT_3D('',#760,#616,#617);
#515=AXIS2_PLACEMENT_3D('',#762,#618,#619);
#516=AXIS2_PLACEMENT_3D('',#764,#621,#622);
#517=AXIS2_PLACEMENT_3D('',#768,#625,#626);
#518=AXIS2_PLACEMENT_3D('',#770,#627,#628);
#519=AXIS2_PLACEMENT_3D('',#772,#630,#631);
#520=AXIS2_PLACEMENT_3D('',#776,#634,#635);
#521=AXIS2_PLACEMENT_3D('',#778,#636,#637);
#522=AXIS2_PLACEMENT_3D('',#780,#639,#640);
#523=AXIS2_PLACEMENT_3D('',#788,#645,#646);
#524=AXIS2_PLACEMENT_3D('',#790,#647,#648);
#525=AXIS2_PLACEMENT_3D('',#792,#650,#651);
#526=AXIS2_PLACEMENT_3D('',#794,#653,#654);
#527=AXIS2_PLACEMENT_3D('',#798,#657,#658);
#528=AXIS2_PLACEMENT_3D('',#800,#659,#660);
#529=AXIS2_PLACEMENT_3D('',#802,#662,#663);
#530=AXIS2_PLACEMENT_3D('',#806,#666,#667);
#531=AXIS2_PLACEMENT_3D('',#807,#668,#669);
#532=AXIS2_PLACEMENT_3D('',#808,#670,#671);
#533=DIRECTION('axis',(0.,0.,1.));
#534=DIRECTION('refdir',(1.,0.,0.));
#535=DIRECTION('center_axis',(0.,0.,1.));
#536=DIRECTION('ref_axis',(1.,0.,0.));
#537=DIRECTION('center_axis',(0.,0.,-1.));
#538=DIRECTION('ref_axis',(0.383578806335065,0.923508147950286,0.));
#539=DIRECTION('',(0.705734598661134,-0.708476306062953,0.));
#540=DIRECTION('center_axis',(0.,0.,1.));
#541=DIRECTION('ref_axis',(1.,0.,0.));
#542=DIRECTION('',(1.,4.23405565695462E-16,0.));
#543=DIRECTION('center_axis',(0.,0.,-1.));
#544=DIRECTION('ref_axis',(1.,0.,0.));
#545=DIRECTION('',(-1.,-1.00805670518046E-13,0.));
#546=DIRECTION('center_axis',(0.,0.,1.));
#547=DIRECTION('ref_axis',(1.,0.,0.));
#548=DIRECTION('',(-0.705734598663028,-0.708476306061067,0.));
#549=DIRECTION('center_axis',(0.,0.,-1.));
#550=DIRECTION('ref_axis',(0.383578806333829,-0.923508147950799,0.));
#551=DIRECTION('',(-1.,1.31581013429549E-16,0.));
#552=DIRECTION('center_axis',(0.,0.,-1.));
#553=DIRECTION('ref_axis',(-0.707106781186547,-0.707106781186547,0.));
#554=DIRECTION('',(5.07513125092926E-16,1.,0.));
#555=DIRECTION('center_axis',(0.,0.,-1.));
#556=DIRECTION('ref_axis',(-0.707106781186547,0.707106781186548,0.));
#557=DIRECTION('',(1.,3.28952533573872E-16,0.));
#558=DIRECTION('',(0.,1.,0.));
#559=DIRECTION('center_axis',(0.,0.,1.));
#560=DIRECTION('ref_axis',(0.707106781186554,0.707106781186541,0.));
#561=DIRECTION('',(-1.,2.11275669702651E-14,0.));
#562=DIRECTION('center_axis',(0.,0.,1.));
#563=DIRECTION('ref_axis',(-0.707106781186544,0.707106781186551,0.));
#564=DIRECTION('',(2.83425769555441E-15,-1.,0.));
#565=DIRECTION('center_axis',(0.,0.,1.));
#566=DIRECTION('ref_axis',(-0.707106781186551,-0.707106781186544,0.));
#567=DIRECTION('',(1.,-2.10510178145758E-14,0.));
#568=DIRECTION('center_axis',(0.,0.,1.));
#569=DIRECTION('ref_axis',(0.70710678118654,-0.707106781186555,0.));
#570=DIRECTION('center_axis',(0.,0.,1.));
#571=DIRECTION('ref_axis',(0.70710678118654,-0.707106781186555,0.));
#572=DIRECTION('',(0.,0.,1.));
#573=DIRECTION('center_axis',(0.,0.,1.));
#574=DIRECTION('ref_axis',(0.70710678118654,-0.707106781186555,0.));
#575=DIRECTION('',(0.,0.,-1.));
#576=DIRECTION('center_axis',(2.10510178145758E-14,1.,0.));
#577=DIRECTION('ref_axis',(-1.,2.10510178145758E-14,0.));
#578=DIRECTION('',(0.,0.,-1.));
#579=DIRECTION('',(-1.,2.10510178145758E-14,0.));
#580=DIRECTION('center_axis',(0.,0.,1.));
#581=DIRECTION('ref_axis',(-0.707106781186551,-0.707106781186544,0.));
#582=DIRECTION('',(0.,0.,1.));
#583=DIRECTION('center_axis',(0.,0.,1.));
#584=DIRECTION('ref_axis',(-0.707106781186551,-0.707106781186544,0.));
#585=DIRECTION('center_axis',(1.,2.83425769555441E-15,0.));
#586=DIRECTION('ref_axis',(-2.83425769555441E-15,1.,0.));
#587=DIRECTION('',(0.,0.,-1.));
#588=DIRECTION('',(-2.83425769555441E-15,1.,0.));
#589=DIRECTION('center_axis',(0.,0.,1.));
#590=DIRECTION('ref_axis',(-0.707106781186544,0.707106781186551,0.));
#591=DIRECTION('',(0.,0.,1.));
#592=DIRECTION('center_axis',(0.,0.,1.));
#593=DIRECTION('ref_axis',(-0.707106781186544,0.707106781186551,0.));
#594=DIRECTION('center_axis',(-2.11275669702651E-14,-1.,0.));
#595=DIRECTION('ref_axis',(1.,-2.11275669702651E-14,0.));
#596=DIRECTION('',(0.,0.,-1.));
#597=DIRECTION('',(1.,-2.11275669702651E-14,0.));
#598=DIRECTION('center_axis',(0.,0.,1.));
#599=DIRECTION('ref_axis',(0.707106781186554,0.707106781186541,0.));
#600=DIRECTION('',(0.,0.,1.));
#601=DIRECTION('center_axis',(0.,0.,1.));
#602=DIRECTION('ref_axis',(0.707106781186554,0.707106781186541,0.));
#603=DIRECTION('center_axis',(-1.,0.,0.));
#604=DIRECTION('ref_axis',(0.,-1.,0.));
#605=DIRECTION('',(0.,-1.,0.));
#606=DIRECTION('center_axis',(0.,0.,1.));
#607=DIRECTION('ref_axis',(0.383578806335065,0.923508147950286,0.));
#608=DIRECTION('center_axis',(0.,0.,-1.));
#609=DIRECTION('ref_axis',(0.383578806335065,0.923508147950286,0.));
#610=DIRECTION('',(0.,0.,-1.));
#611=DIRECTION('',(0.,0.,1.));
#612=DIRECTION('center_axis',(-3.28952533573872E-16,1.,0.));
#613=DIRECTION('ref_axis',(-1.,-3.28952533573872E-16,0.));
#614=DIRECTION('',(0.,0.,-1.));
#615=DIRECTION('',(-1.,-3.28952533573872E-16,0.));
#616=DIRECTION('center_axis',(0.,0.,1.));
#617=DIRECTION('ref_axis',(-0.707106781186547,0.707106781186548,0.));
#618=DIRECTION('center_axis',(0.,0.,-1.));
#619=DIRECTION('ref_axis',(-0.707106781186547,0.707106781186548,0.));
#620=DIRECTION('',(0.,0.,1.));
#621=DIRECTION('center_axis',(-1.,5.07513125092926E-16,0.));
#622=DIRECTION('ref_axis',(-5.07513125092926E-16,-1.,0.));
#623=DIRECTION('',(0.,0.,-1.));
#624=DIRECTION('',(-5.07513125092926E-16,-1.,0.));
#625=DIRECTION('center_axis',(0.,0.,1.));
#626=DIRECTION('ref_axis',(-0.707106781186547,-0.707106781186547,0.));
#627=DIRECTION('center_axis',(0.,0.,-1.));
#628=DIRECTION('ref_axis',(-0.707106781186547,-0.707106781186547,0.));
#629=DIRECTION('',(0.,0.,1.));
#630=DIRECTION('center_axis',(-1.31581013429549E-16,-1.,0.));
#631=DIRECTION('ref_axis',(1.,-1.31581013429549E-16,0.));
#632=DIRECTION('',(0.,0.,-1.));
#633=DIRECTION('',(1.,-1.31581013429549E-16,0.));
#634=DIRECTION('center_axis',(0.,0.,1.));
#635=DIRECTION('ref_axis',(0.383578806333829,-0.923508147950799,0.));
#636=DIRECTION('center_axis',(0.,0.,-1.));
#637=DIRECTION('ref_axis',(0.383578806333829,-0.923508147950799,0.));
#638=DIRECTION('',(0.,0.,-1.));
#639=DIRECTION('center_axis',(1.00805670518046E-13,-1.,0.));
#640=DIRECTION('ref_axis',(1.,1.00805670518046E-13,0.));
#641=DIRECTION('',(0.,0.,-1.));
#642=DIRECTION('',(1.,1.00805670518046E-13,0.));
#643=DIRECTION('',(0.,0.,1.));
#644=DIRECTION('',(0.,0.,-1.));
#645=DIRECTION('center_axis',(0.,0.,1.));
#646=DIRECTION('ref_axis',(1.,0.,0.));
#647=DIRECTION('center_axis',(0.,0.,-1.));
#648=DIRECTION('ref_axis',(1.,0.,0.));
#649=DIRECTION('',(0.,0.,1.));
#650=DIRECTION('center_axis',(0.708476306061067,-0.705734598663028,0.));
#651=DIRECTION('ref_axis',(0.705734598663028,0.708476306061067,0.));
#652=DIRECTION('',(0.705734598663028,0.708476306061067,0.));
#653=DIRECTION('center_axis',(0.708476306062953,0.705734598661134,0.));
#654=DIRECTION('ref_axis',(-0.705734598661134,0.708476306062953,0.));
#655=DIRECTION('',(-0.705734598661134,0.708476306062953,0.));
#656=DIRECTION('',(0.,0.,-1.));
#657=DIRECTION('center_axis',(0.,0.,1.));
#658=DIRECTION('ref_axis',(1.,0.,0.));
#659=DIRECTION('center_axis',(0.,0.,-1.));
#660=DIRECTION('ref_axis',(1.,0.,0.));
#661=DIRECTION('',(0.,0.,-1.));
#662=DIRECTION('center_axis',(-4.23405565695462E-16,1.,0.));
#663=DIRECTION('ref_axis',(-1.,-4.23405565695462E-16,0.));
#664=DIRECTION('',(-1.,-4.23405565695462E-16,0.));
#665=DIRECTION('',(0.,0.,-1.));
#666=DIRECTION('center_axis',(0.,0.,1.));
#667=DIRECTION('ref_axis',(1.,0.,0.));
#668=DIRECTION('center_axis',(0.,0.,1.));
#669=DIRECTION('ref_axis',(1.,0.,0.));
#670=DIRECTION('center_axis',(0.,0.,1.));
#671=DIRECTION('ref_axis',(1.,0.,0.));
#672=CARTESIAN_POINT('',(0.,0.,0.));
#673=CARTESIAN_POINT('Origin',(7.954500000005,0.,-0.01));
#674=CARTESIAN_POINT('',(-3.39364777075983,2.75600000000189,-0.01));
#675=CARTESIAN_POINT('',(-3.11450810617103,2.64005943187438,-0.01));
#676=CARTESIAN_POINT('Origin',(-3.39364777075983,2.36200000000189,-0.01));
#677=CARTESIAN_POINT('',(-1.30357499928727,0.822091033377089,-0.01));
#678=CARTESIAN_POINT('',(-3.22999999999414,2.75600000000189,-0.01));
#679=CARTESIAN_POINT('',(-0.745999999994145,0.590500000000849,-0.01));
#680=CARTESIAN_POINT('Origin',(-0.745999999994145,1.37750000000085,-0.01));
#681=CARTESIAN_POINT('',(7.95450015390795,0.590500000000834,-0.01));
#682=CARTESIAN_POINT('',(8.54500000000585,0.590500000000853,-0.01));
#683=CARTESIAN_POINT('',(7.954499194669,-0.590500000000305,-0.01));
#684=CARTESIAN_POINT('Origin',(7.954500000005,0.,-0.01));
#685=CARTESIAN_POINT('',(-0.745999999994145,-0.590499999999147,-0.01));
#686=CARTESIAN_POINT('',(-8.54500000002516,-0.590500000000869,-0.01));
#687=CARTESIAN_POINT('',(-1.30357046764932,-0.822086484140745,-0.01));
#688=CARTESIAN_POINT('Origin',(-0.745999999994145,-1.37749999999915,-0.01));
#689=CARTESIAN_POINT('',(-3.11450810617115,-2.64005943187134,-0.01));
#690=CARTESIAN_POINT('',(-3.22999999999414,-2.75599999999811,-0.01));
#691=CARTESIAN_POINT('',(-3.39364777075921,-2.75599999999811,-0.01));
#692=CARTESIAN_POINT('Origin',(-3.39364777075921,-2.36199999999811,-0.01));
#693=CARTESIAN_POINT('',(-8.15099999999414,-2.75599999999811,-0.01));
#694=CARTESIAN_POINT('',(-3.22999999999414,-2.75599999999811,-0.01));
#695=CARTESIAN_POINT('',(-8.54499999999414,-2.36199999999811,-0.01));
#696=CARTESIAN_POINT('Origin',(-8.15099999999414,-2.36199999999811,-0.01));
#697=CARTESIAN_POINT('',(-8.54499999999414,2.36200000000189,-0.01));
#698=CARTESIAN_POINT('',(-8.54499999999414,-2.75599999999811,-0.01));
#699=CARTESIAN_POINT('',(-8.15099999999414,2.75600000000189,-0.01));
#700=CARTESIAN_POINT('Origin',(-8.15099999999414,2.36200000000189,-0.01));
#701=CARTESIAN_POINT('',(-8.54499999999414,2.75600000000189,-0.01));
#702=CARTESIAN_POINT('',(-3.18999999999414,-1.77700000000004,-0.01));
#703=CARTESIAN_POINT('',(-3.18999999999414,1.77699999999996,-0.01));
#704=CARTESIAN_POINT('',(-3.18999999999414,-1.97400000000005,-0.01));
#705=CARTESIAN_POINT('',(-3.38699999999414,1.97399999999996,-0.01));
#706=CARTESIAN_POINT('Origin',(-3.38699999999414,1.77699999999996,-0.01));
#707=CARTESIAN_POINT('',(-7.56099999999414,1.97400000000005,-0.01));
#708=CARTESIAN_POINT('',(-3.18999999999414,1.97399999999995,-0.01));
#709=CARTESIAN_POINT('',(-7.75799999999414,1.77700000000005,-0.01));
#710=CARTESIAN_POINT('Origin',(-7.56099999999414,1.77700000000005,-0.01));
#711=CARTESIAN_POINT('',(-7.75799999999413,-1.77699999999995,-0.01));
#712=CARTESIAN_POINT('',(-7.75799999999414,1.97400000000005,-0.01));
#713=CARTESIAN_POINT('',(-7.56099999999413,-1.97399999999995,-0.01));
#714=CARTESIAN_POINT('Origin',(-7.56099999999413,-1.77699999999995,-0.01));
#715=CARTESIAN_POINT('',(-3.38699999999415,-1.97400000000004,-0.01));
#716=CARTESIAN_POINT('',(-7.75799999999413,-1.97399999999995,-0.01));
#717=CARTESIAN_POINT('Origin',(-3.38699999999414,-1.77700000000004,-0.01));
#718=CARTESIAN_POINT('Origin',(-3.38699999999414,-1.77700000000004,0.));
#719=CARTESIAN_POINT('',(-3.38699999999415,-1.97400000000004,0.315));
#720=CARTESIAN_POINT('',(-3.38699999999415,-1.97400000000004,0.));
#721=CARTESIAN_POINT('',(-3.18999999999414,-1.77700000000004,0.315));
#722=CARTESIAN_POINT('Origin',(-3.38699999999414,-1.77700000000004,0.315));
#723=CARTESIAN_POINT('',(-3.18999999999414,-1.77700000000004,0.));
#724=CARTESIAN_POINT('Origin',(-3.18999999999414,-1.97400000000005,0.));
#725=CARTESIAN_POINT('',(-7.56099999999413,-1.97399999999995,0.315));
#726=CARTESIAN_POINT('',(-7.56099999999413,-1.97399999999995,0.));
#727=CARTESIAN_POINT('',(-7.75799999999413,-1.97399999999995,0.315));
#728=CARTESIAN_POINT('Origin',(-7.56099999999413,-1.77699999999995,0.));
#729=CARTESIAN_POINT('',(-7.75799999999413,-1.77699999999995,0.315));
#730=CARTESIAN_POINT('',(-7.75799999999413,-1.77699999999995,0.));
#731=CARTESIAN_POINT('Origin',(-7.56099999999413,-1.77699999999995,0.315));
#732=CARTESIAN_POINT('Origin',(-7.75799999999413,-1.97399999999995,0.));
#733=CARTESIAN_POINT('',(-7.75799999999414,1.77700000000005,0.315));
#734=CARTESIAN_POINT('',(-7.75799999999414,1.77700000000005,0.));
#735=CARTESIAN_POINT('',(-7.75799999999414,1.97400000000005,0.315));
#736=CARTESIAN_POINT('Origin',(-7.56099999999414,1.77700000000005,0.));
#737=CARTESIAN_POINT('',(-7.56099999999414,1.97400000000005,0.315));
#738=CARTESIAN_POINT('',(-7.56099999999414,1.97400000000005,0.));
#739=CARTESIAN_POINT('Origin',(-7.56099999999414,1.77700000000005,0.315));
#740=CARTESIAN_POINT('Origin',(-7.75799999999414,1.97400000000005,0.));
#741=CARTESIAN_POINT('',(-3.38699999999414,1.97399999999996,0.315));
#742=CARTESIAN_POINT('',(-3.38699999999414,1.97399999999996,0.));
#743=CARTESIAN_POINT('',(-3.18999999999414,1.97399999999995,0.315));
#744=CARTESIAN_POINT('Origin',(-3.38699999999414,1.77699999999996,0.));
#745=CARTESIAN_POINT('',(-3.18999999999414,1.77699999999996,0.315));
#746=CARTESIAN_POINT('',(-3.18999999999414,1.77699999999996,0.));
#747=CARTESIAN_POINT('Origin',(-3.38699999999414,1.77699999999996,0.315));
#748=CARTESIAN_POINT('Origin',(-3.18999999999414,1.97399999999996,0.));
#749=CARTESIAN_POINT('',(-3.18999999999414,-1.97400000000005,0.315));
#750=CARTESIAN_POINT('Origin',(-3.39364777075983,2.36200000000189,0.));
#751=CARTESIAN_POINT('',(-3.39364777075983,2.75600000000189,0.315));
#752=CARTESIAN_POINT('',(-3.11450810617103,2.64005943187438,0.315));
#753=CARTESIAN_POINT('Origin',(-3.39364777075983,2.36200000000189,0.315));
#754=CARTESIAN_POINT('',(-3.11450810617103,2.64005943187438,0.));
#755=CARTESIAN_POINT('',(-3.39364777075983,2.75600000000189,0.));
#756=CARTESIAN_POINT('Origin',(-3.22999999999414,2.75600000000189,0.));
#757=CARTESIAN_POINT('',(-8.15099999999414,2.75600000000189,0.315));
#758=CARTESIAN_POINT('',(-8.15099999999414,2.75600000000189,0.));
#759=CARTESIAN_POINT('',(-8.54499999999414,2.75600000000189,0.315));
#760=CARTESIAN_POINT('Origin',(-8.15099999999414,2.36200000000189,0.));
#761=CARTESIAN_POINT('',(-8.54499999999414,2.36200000000189,0.315));
#762=CARTESIAN_POINT('Origin',(-8.15099999999414,2.36200000000189,0.315));
#763=CARTESIAN_POINT('',(-8.54499999999414,2.36200000000189,0.));
#764=CARTESIAN_POINT('Origin',(-8.54499999999414,2.75600000000189,0.));
#765=CARTESIAN_POINT('',(-8.54499999999414,-2.36199999999811,0.315));
#766=CARTESIAN_POINT('',(-8.54499999999414,-2.36199999999811,0.));
#767=CARTESIAN_POINT('',(-8.54499999999414,-2.75599999999811,0.315));
#768=CARTESIAN_POINT('Origin',(-8.15099999999414,-2.36199999999811,0.));
#769=CARTESIAN_POINT('',(-8.15099999999414,-2.75599999999811,0.315));
#770=CARTESIAN_POINT('Origin',(-8.15099999999414,-2.36199999999811,0.315));
#771=CARTESIAN_POINT('',(-8.15099999999414,-2.75599999999811,0.));
#772=CARTESIAN_POINT('Origin',(-8.54499999999414,-2.75599999999811,0.));
#773=CARTESIAN_POINT('',(-3.39364777075921,-2.75599999999811,0.315));
#774=CARTESIAN_POINT('',(-3.39364777075921,-2.75599999999811,0.));
#775=CARTESIAN_POINT('',(-3.22999999999414,-2.75599999999811,0.315));
#776=CARTESIAN_POINT('Origin',(-3.39364777075921,-2.36199999999811,0.));
#777=CARTESIAN_POINT('',(-3.11450810617115,-2.64005943187134,0.315));
#778=CARTESIAN_POINT('Origin',(-3.39364777075921,-2.36199999999811,0.315));
#779=CARTESIAN_POINT('',(-3.11450810617115,-2.64005943187134,0.));
#780=CARTESIAN_POINT('Origin',(-0.745999298973088,-0.590500000000083,0.));
#781=CARTESIAN_POINT('',(7.954499194669,-0.590500000000305,0.315));
#782=CARTESIAN_POINT('',(7.954499194669,-0.590500000000305,0.));
#783=CARTESIAN_POINT('',(-0.745999999994145,-0.590499999999147,0.315));
#784=CARTESIAN_POINT('',(-8.54500000002516,-0.590500000000869,0.315));
#785=CARTESIAN_POINT('',(-0.745999999994145,-0.590499999999147,0.));
#786=CARTESIAN_POINT('',(-0.745999999994145,-0.590499999999147,0.));
#787=CARTESIAN_POINT('',(-0.745999999994145,-0.590499999999147,0.));
#788=CARTESIAN_POINT('Origin',(-0.745999999994145,-1.37749999999915,0.));
#789=CARTESIAN_POINT('',(-1.30357046764932,-0.822086484140745,0.315));
#790=CARTESIAN_POINT('Origin',(-0.745999999994145,-1.37749999999915,0.315));
#791=CARTESIAN_POINT('',(-1.30357046764932,-0.822086484140745,0.));
#792=CARTESIAN_POINT('Origin',(-3.22999999999414,-2.75599999999811,0.));
#793=CARTESIAN_POINT('',(-3.22999999999414,-2.75599999999811,0.315));
#794=CARTESIAN_POINT('Origin',(-1.30357499928727,0.822091033377089,0.));
#795=CARTESIAN_POINT('',(-1.30357499928727,0.822091033377089,0.315));
#796=CARTESIAN_POINT('',(-3.22999999999414,2.75600000000189,0.315));
#797=CARTESIAN_POINT('',(-1.30357499928727,0.822091033377089,0.));
#798=CARTESIAN_POINT('Origin',(-0.745999999994145,1.37750000000085,0.));
#799=CARTESIAN_POINT('',(-0.745999999994145,0.590500000000849,0.315));
#800=CARTESIAN_POINT('Origin',(-0.745999999994145,1.37750000000085,0.315));
#801=CARTESIAN_POINT('',(-0.745999999994145,0.590500000000849,0.));
#802=CARTESIAN_POINT('Origin',(7.95450015390794,0.590500000000853,0.));
#803=CARTESIAN_POINT('',(7.95450015390795,0.590500000000834,0.315));
#804=CARTESIAN_POINT('',(8.54500000000585,0.590500000000853,0.315));
#805=CARTESIAN_POINT('',(7.95450015390794,0.590500000000834,0.));
#806=CARTESIAN_POINT('Origin',(7.954500000005,0.,0.));
#807=CARTESIAN_POINT('Origin',(7.954500000005,0.,0.315));
#808=CARTESIAN_POINT('Origin',(7.954500000005,0.,0.315));
#809=UNCERTAINTY_MEASURE_WITH_UNIT(LENGTH_MEASURE(0.000393700787401575),
#814,'DISTANCE_ACCURACY_VALUE',
'Maximum model space distance between geometric entities at asserted c
onnectivities');
#810=UNCERTAINTY_MEASURE_WITH_UNIT(LENGTH_MEASURE(0.000393700787401575),
#814,'DISTANCE_ACCURACY_VALUE',
'Maximum model space distance between geometric entities at asserted c
onnectivities');
#811=(
GEOMETRIC_REPRESENTATION_CONTEXT(3)
GLOBAL_UNCERTAINTY_ASSIGNED_CONTEXT((#809))
GLOBAL_UNIT_ASSIGNED_CONTEXT((#814,#818,#819))
REPRESENTATION_CONTEXT('','3D')
);
#812=(
GEOMETRIC_REPRESENTATION_CONTEXT(3)
GLOBAL_UNCERTAINTY_ASSIGNED_CONTEXT((#810))
GLOBAL_UNIT_ASSIGNED_CONTEXT((#814,#818,#819))
REPRESENTATION_CONTEXT('','3D')
);
#813=DIMENSIONAL_EXPONENTS(1.,0.,0.,0.,0.,0.,0.);
#814=(
CONVERSION_BASED_UNIT('inch',#817)
LENGTH_UNIT()
NAMED_UNIT(#813)
);
#815=(
LENGTH_UNIT()
NAMED_UNIT(*)
SI_UNIT(.MILLI.,.METRE.)
);
#816=(
LENGTH_UNIT()
NAMED_UNIT(*)
SI_UNIT($,.METRE.)
);
#817=LENGTH_MEASURE_WITH_UNIT(LENGTH_MEASURE(25.4),#815);
#818=(
NAMED_UNIT(*)
PLANE_ANGLE_UNIT()
SI_UNIT($,.RADIAN.)
);
#819=(
NAMED_UNIT(*)
SI_UNIT($,.STERADIAN.)
SOLID_ANGLE_UNIT()
);
#820=SHAPE_DEFINITION_REPRESENTATION(#821,#822);
#821=PRODUCT_DEFINITION_SHAPE('',$,#824);
#822=SHAPE_REPRESENTATION('',(#486),#811);
#823=PRODUCT_DEFINITION_CONTEXT('part definition',#828,'design');
#824=PRODUCT_DEFINITION('136L024368','136L024368 v13',#825,#823);
#825=PRODUCT_DEFINITION_FORMATION('',$,#830);
#826=PRODUCT_RELATED_PRODUCT_CATEGORY('136L024368 v13','136L024368 v13',
(#830));
#827=APPLICATION_PROTOCOL_DEFINITION('international standard',
'automotive_design',2009,#828);
#828=APPLICATION_CONTEXT(
'Core Data for Automotive Mechanical Design Process');
#829=PRODUCT_CONTEXT('part definition',#828,'mechanical');
#830=PRODUCT('136L024368','136L024368 v13',$,(#829));
#831=PRESENTATION_STYLE_ASSIGNMENT((#832));
#832=SURFACE_STYLE_USAGE(.BOTH.,#833);
#833=SURFACE_SIDE_STYLE('',(#834));
#834=SURFACE_STYLE_FILL_AREA(#835);
#835=FILL_AREA_STYLE('Polymide (Kapton)',(#836));
#836=FILL_AREA_STYLE_COLOUR('Polymide (Kapton)',#837);
#837=COLOUR_RGB('Polymide (Kapton)',0.784313725490196,0.556862745098039,
0.0274509803921569);
ENDSEC;
END-ISO-10303-21;
