ISO-10303-21;
HEADER;
/* Generated by software containing ST-Developer
 * from STEP Tools, Inc. (www.steptools.com) 
 */

FILE_DESCRIPTION(
/* description */ ('STEP AP214'),
/* implementation_level */ '2;1');

FILE_NAME(
/* name */ '1816-01.step',
/* time_stamp */ '2026-01-07T10:38:30-06:00',
/* author */ (''),
/* organization */ (''),
/* preprocessor_version */ 'ST-DEVELOPER v20.1',
/* originating_system */ 'Autodesk Translation Framework v14.24.0.0',
/* authorisation */ '');

FILE_SCHEMA (('AUTOMOTIVE_DESIGN { 1 0 10303 214 3 1 1 }'));
ENDSEC;

DATA;
#10=MECHANICAL_DESIGN_GEOMETRIC_PRESENTATION_REPRESENTATION('',(#13),#609);
#11=SHAPE_REPRESENTATION_RELATIONSHIP('SRR','None',#619,#12);
#12=ADVANCED_BREP_SHAPE_REPRESENTATION('',(#14),#608);
#13=STYLED_ITEM('',(#629),#14);
#14=MANIFOLD_SOLID_BREP('Body1',#351);
#15=PLANE('',#386);
#16=PLANE('',#387);
#17=PLANE('',#388);
#18=PLANE('',#389);
#19=PLANE('',#390);
#20=PLANE('',#391);
#21=PLANE('',#392);
#22=PLANE('',#393);
#23=PLANE('',#394);
#24=PLANE('',#395);
#25=PLANE('',#396);
#26=PLANE('',#397);
#27=PLANE('',#398);
#28=PLANE('',#399);
#29=FACE_BOUND('',#61,.T.);
#30=FACE_BOUND('',#64,.T.);
#31=FACE_BOUND('',#68,.T.);
#32=ELLIPSE('',#384,1.93859918945992,1.21999999999991);
#33=ELLIPSE('',#385,1.93859918946115,1.22000000000028);
#34=CYLINDRICAL_SURFACE('',#373,0.5);
#35=CYLINDRICAL_SURFACE('',#376,0.425);
#36=CYLINDRICAL_SURFACE('',#379,1.22);
#37=FACE_OUTER_BOUND('',#56,.T.);
#38=FACE_OUTER_BOUND('',#57,.T.);
#39=FACE_OUTER_BOUND('',#58,.T.);
#40=FACE_OUTER_BOUND('',#59,.T.);
#41=FACE_OUTER_BOUND('',#60,.T.);
#42=FACE_OUTER_BOUND('',#62,.T.);
#43=FACE_OUTER_BOUND('',#63,.T.);
#44=FACE_OUTER_BOUND('',#65,.T.);
#45=FACE_OUTER_BOUND('',#66,.T.);
#46=FACE_OUTER_BOUND('',#67,.T.);
#47=FACE_OUTER_BOUND('',#69,.T.);
#48=FACE_OUTER_BOUND('',#70,.T.);
#49=FACE_OUTER_BOUND('',#71,.T.);
#50=FACE_OUTER_BOUND('',#72,.T.);
#51=FACE_OUTER_BOUND('',#73,.T.);
#52=FACE_OUTER_BOUND('',#74,.T.);
#53=FACE_OUTER_BOUND('',#75,.T.);
#54=FACE_OUTER_BOUND('',#76,.T.);
#55=FACE_OUTER_BOUND('',#77,.T.);
#56=EDGE_LOOP('',(#234,#235,#236,#237,#238,#239));
#57=EDGE_LOOP('',(#240,#241,#242,#243,#244,#245));
#58=EDGE_LOOP('',(#246,#247,#248,#249));
#59=EDGE_LOOP('',(#250,#251,#252,#253));
#60=EDGE_LOOP('',(#254,#255,#256,#257,#258,#259,#260,#261,#262,#263,#264,
#265,#266,#267));
#61=EDGE_LOOP('',(#268,#269,#270,#271));
#62=EDGE_LOOP('',(#272,#273,#274,#275));
#63=EDGE_LOOP('',(#276));
#64=EDGE_LOOP('',(#277));
#65=EDGE_LOOP('',(#278));
#66=EDGE_LOOP('',(#279));
#67=EDGE_LOOP('',(#280));
#68=EDGE_LOOP('',(#281));
#69=EDGE_LOOP('',(#282,#283,#284,#285));
#70=EDGE_LOOP('',(#286,#287,#288,#289));
#71=EDGE_LOOP('',(#290,#291,#292,#293));
#72=EDGE_LOOP('',(#294,#295,#296,#297,#298,#299,#300,#301));
#73=EDGE_LOOP('',(#302,#303,#304,#305,#306,#307,#308,#309));
#74=EDGE_LOOP('',(#310,#311,#312,#313,#314,#315));
#75=EDGE_LOOP('',(#316,#317,#318,#319,#320,#321));
#76=EDGE_LOOP('',(#322,#323,#324,#325));
#77=EDGE_LOOP('',(#326,#327,#328,#329));
#78=LINE('',#513,#108);
#79=LINE('',#525,#109);
#80=LINE('',#531,#110);
#81=LINE('',#537,#111);
#82=LINE('',#541,#112);
#83=LINE('',#545,#113);
#84=LINE('',#548,#114);
#85=LINE('',#550,#115);
#86=LINE('',#554,#116);
#87=LINE('',#557,#117);
#88=LINE('',#560,#118);
#89=LINE('',#564,#119);
#90=LINE('',#567,#120);
#91=LINE('',#573,#121);
#92=LINE('',#576,#122);
#93=LINE('',#578,#123);
#94=LINE('',#579,#124);
#95=LINE('',#582,#125);
#96=LINE('',#584,#126);
#97=LINE('',#585,#127);
#98=LINE('',#588,#128);
#99=LINE('',#589,#129);
#100=LINE('',#591,#130);
#101=LINE('',#592,#131);
#102=LINE('',#595,#132);
#103=LINE('',#596,#133);
#104=LINE('',#598,#134);
#105=LINE('',#599,#135);
#106=LINE('',#601,#136);
#107=LINE('',#603,#137);
#108=VECTOR('',#408,1.1575);
#109=VECTOR('',#417,1.22);
#110=VECTOR('',#424,0.5);
#111=VECTOR('',#431,0.425);
#112=VECTOR('',#436,39.3700787401575);
#113=VECTOR('',#439,39.3700787401575);
#114=VECTOR('',#442,39.3700787401575);
#115=VECTOR('',#443,39.3700787401575);
#116=VECTOR('',#446,39.3700787401575);
#117=VECTOR('',#449,39.3700787401575);
#118=VECTOR('',#450,39.3700787401575);
#119=VECTOR('',#453,39.3700787401575);
#120=VECTOR('',#458,39.3700787401575);
#121=VECTOR('',#469,39.3700787401575);
#122=VECTOR('',#472,39.3700787401575);
#123=VECTOR('',#473,39.3700787401575);
#124=VECTOR('',#474,39.3700787401575);
#125=VECTOR('',#477,39.3700787401575);
#126=VECTOR('',#478,39.3700787401575);
#127=VECTOR('',#479,39.3700787401575);
#128=VECTOR('',#482,39.3700787401575);
#129=VECTOR('',#483,39.3700787401575);
#130=VECTOR('',#484,39.3700787401575);
#131=VECTOR('',#485,39.3700787401575);
#132=VECTOR('',#488,39.3700787401575);
#133=VECTOR('',#489,39.3700787401575);
#134=VECTOR('',#490,39.3700787401575);
#135=VECTOR('',#491,39.3700787401575);
#136=VECTOR('',#494,39.3700787401575);
#137=VECTOR('',#497,39.3700787401575);
#138=(
BOUNDED_CURVE()
B_SPLINE_CURVE(2,(#508,#509,#510),.UNSPECIFIED.,.F.,.F.)
B_SPLINE_CURVE_WITH_KNOTS((3,3),(9.14690627078837,13.4106321813567),
 .UNSPECIFIED.)
CURVE()
GEOMETRIC_REPRESENTATION_ITEM()
RATIONAL_B_SPLINE_CURVE((2.06967435438005,2.14893847859032,2.06967435438005))
REPRESENTATION_ITEM('')
);
#139=(
BOUNDED_CURVE()
B_SPLINE_CURVE(2,(#520,#521,#522),.UNSPECIFIED.,.F.,.F.)
B_SPLINE_CURVE_WITH_KNOTS((3,3),(5.91260588470003,9.16480962260757),
 .UNSPECIFIED.)
CURVE()
GEOMETRIC_REPRESENTATION_ITEM()
RATIONAL_B_SPLINE_CURVE((1.64587477191656,1.70890827381974,1.64587477191656))
REPRESENTATION_ITEM('')
);
#140=CIRCLE('',#366,1.22);
#141=CIRCLE('',#367,1.22);
#142=CIRCLE('',#368,1.1575);
#143=CIRCLE('',#370,1.22);
#144=CIRCLE('',#371,1.22);
#145=CIRCLE('',#372,1.1575);
#146=CIRCLE('',#374,0.5);
#147=CIRCLE('',#375,0.5);
#148=CIRCLE('',#377,0.425);
#149=CIRCLE('',#378,0.425);
#150=CIRCLE('',#380,1.22);
#151=CIRCLE('',#381,1.22);
#152=CIRCLE('',#382,1.22);
#153=CIRCLE('',#383,1.22);
#154=VERTEX_POINT('',#504);
#155=VERTEX_POINT('',#505);
#156=VERTEX_POINT('',#507);
#157=VERTEX_POINT('',#512);
#158=VERTEX_POINT('',#516);
#159=VERTEX_POINT('',#517);
#160=VERTEX_POINT('',#519);
#161=VERTEX_POINT('',#524);
#162=VERTEX_POINT('',#528);
#163=VERTEX_POINT('',#530);
#164=VERTEX_POINT('',#534);
#165=VERTEX_POINT('',#536);
#166=VERTEX_POINT('',#540);
#167=VERTEX_POINT('',#542);
#168=VERTEX_POINT('',#544);
#169=VERTEX_POINT('',#546);
#170=VERTEX_POINT('',#549);
#171=VERTEX_POINT('',#551);
#172=VERTEX_POINT('',#553);
#173=VERTEX_POINT('',#555);
#174=VERTEX_POINT('',#558);
#175=VERTEX_POINT('',#559);
#176=VERTEX_POINT('',#561);
#177=VERTEX_POINT('',#563);
#178=VERTEX_POINT('',#575);
#179=VERTEX_POINT('',#577);
#180=VERTEX_POINT('',#581);
#181=VERTEX_POINT('',#583);
#182=VERTEX_POINT('',#587);
#183=VERTEX_POINT('',#590);
#184=VERTEX_POINT('',#594);
#185=VERTEX_POINT('',#597);
#186=EDGE_CURVE('',#154,#155,#140,.T.);
#187=EDGE_CURVE('',#156,#154,#138,.T.);
#188=EDGE_CURVE('',#155,#156,#141,.T.);
#189=EDGE_CURVE('',#155,#157,#78,.T.);
#190=EDGE_CURVE('',#157,#157,#142,.T.);
#191=EDGE_CURVE('',#158,#159,#143,.T.);
#192=EDGE_CURVE('',#160,#158,#139,.T.);
#193=EDGE_CURVE('',#159,#160,#144,.T.);
#194=EDGE_CURVE('',#159,#161,#79,.T.);
#195=EDGE_CURVE('',#161,#161,#145,.T.);
#196=EDGE_CURVE('',#162,#162,#146,.T.);
#197=EDGE_CURVE('',#162,#163,#80,.T.);
#198=EDGE_CURVE('',#163,#163,#147,.T.);
#199=EDGE_CURVE('',#164,#164,#148,.T.);
#200=EDGE_CURVE('',#164,#165,#81,.T.);
#201=EDGE_CURVE('',#165,#165,#149,.T.);
#202=EDGE_CURVE('',#156,#166,#82,.T.);
#203=EDGE_CURVE('',#166,#167,#150,.T.);
#204=EDGE_CURVE('',#167,#168,#83,.T.);
#205=EDGE_CURVE('',#168,#169,#151,.T.);
#206=EDGE_CURVE('',#169,#158,#84,.T.);
#207=EDGE_CURVE('',#160,#170,#85,.T.);
#208=EDGE_CURVE('',#170,#171,#152,.T.);
#209=EDGE_CURVE('',#172,#171,#86,.T.);
#210=EDGE_CURVE('',#172,#173,#153,.T.);
#211=EDGE_CURVE('',#173,#154,#87,.T.);
#212=EDGE_CURVE('',#174,#175,#88,.T.);
#213=EDGE_CURVE('',#174,#176,#32,.T.);
#214=EDGE_CURVE('',#176,#177,#89,.T.);
#215=EDGE_CURVE('',#177,#175,#33,.T.);
#216=EDGE_CURVE('',#173,#166,#90,.T.);
#217=EDGE_CURVE('',#169,#170,#91,.T.);
#218=EDGE_CURVE('',#177,#178,#92,.T.);
#219=EDGE_CURVE('',#179,#178,#93,.T.);
#220=EDGE_CURVE('',#175,#179,#94,.T.);
#221=EDGE_CURVE('',#180,#174,#95,.T.);
#222=EDGE_CURVE('',#180,#181,#96,.T.);
#223=EDGE_CURVE('',#181,#176,#97,.T.);
#224=EDGE_CURVE('',#171,#182,#98,.T.);
#225=EDGE_CURVE('',#182,#180,#99,.T.);
#226=EDGE_CURVE('',#179,#183,#100,.T.);
#227=EDGE_CURVE('',#183,#172,#101,.T.);
#228=EDGE_CURVE('',#184,#167,#102,.T.);
#229=EDGE_CURVE('',#178,#184,#103,.T.);
#230=EDGE_CURVE('',#185,#181,#104,.T.);
#231=EDGE_CURVE('',#168,#185,#105,.T.);
#232=EDGE_CURVE('',#183,#184,#106,.T.);
#233=EDGE_CURVE('',#182,#185,#107,.T.);
#234=ORIENTED_EDGE('',*,*,#186,.F.);
#235=ORIENTED_EDGE('',*,*,#187,.F.);
#236=ORIENTED_EDGE('',*,*,#188,.F.);
#237=ORIENTED_EDGE('',*,*,#189,.T.);
#238=ORIENTED_EDGE('',*,*,#190,.F.);
#239=ORIENTED_EDGE('',*,*,#189,.F.);
#240=ORIENTED_EDGE('',*,*,#191,.F.);
#241=ORIENTED_EDGE('',*,*,#192,.F.);
#242=ORIENTED_EDGE('',*,*,#193,.F.);
#243=ORIENTED_EDGE('',*,*,#194,.T.);
#244=ORIENTED_EDGE('',*,*,#195,.F.);
#245=ORIENTED_EDGE('',*,*,#194,.F.);
#246=ORIENTED_EDGE('',*,*,#196,.F.);
#247=ORIENTED_EDGE('',*,*,#197,.T.);
#248=ORIENTED_EDGE('',*,*,#198,.T.);
#249=ORIENTED_EDGE('',*,*,#197,.F.);
#250=ORIENTED_EDGE('',*,*,#199,.F.);
#251=ORIENTED_EDGE('',*,*,#200,.T.);
#252=ORIENTED_EDGE('',*,*,#201,.T.);
#253=ORIENTED_EDGE('',*,*,#200,.F.);
#254=ORIENTED_EDGE('',*,*,#186,.T.);
#255=ORIENTED_EDGE('',*,*,#188,.T.);
#256=ORIENTED_EDGE('',*,*,#202,.T.);
#257=ORIENTED_EDGE('',*,*,#203,.T.);
#258=ORIENTED_EDGE('',*,*,#204,.T.);
#259=ORIENTED_EDGE('',*,*,#205,.T.);
#260=ORIENTED_EDGE('',*,*,#206,.T.);
#261=ORIENTED_EDGE('',*,*,#191,.T.);
#262=ORIENTED_EDGE('',*,*,#193,.T.);
#263=ORIENTED_EDGE('',*,*,#207,.T.);
#264=ORIENTED_EDGE('',*,*,#208,.T.);
#265=ORIENTED_EDGE('',*,*,#209,.F.);
#266=ORIENTED_EDGE('',*,*,#210,.T.);
#267=ORIENTED_EDGE('',*,*,#211,.T.);
#268=ORIENTED_EDGE('',*,*,#212,.F.);
#269=ORIENTED_EDGE('',*,*,#213,.T.);
#270=ORIENTED_EDGE('',*,*,#214,.T.);
#271=ORIENTED_EDGE('',*,*,#215,.T.);
#272=ORIENTED_EDGE('',*,*,#202,.F.);
#273=ORIENTED_EDGE('',*,*,#187,.T.);
#274=ORIENTED_EDGE('',*,*,#211,.F.);
#275=ORIENTED_EDGE('',*,*,#216,.T.);
#276=ORIENTED_EDGE('',*,*,#190,.T.);
#277=ORIENTED_EDGE('',*,*,#201,.F.);
#278=ORIENTED_EDGE('',*,*,#195,.T.);
#279=ORIENTED_EDGE('',*,*,#196,.T.);
#280=ORIENTED_EDGE('',*,*,#198,.F.);
#281=ORIENTED_EDGE('',*,*,#199,.T.);
#282=ORIENTED_EDGE('',*,*,#207,.F.);
#283=ORIENTED_EDGE('',*,*,#192,.T.);
#284=ORIENTED_EDGE('',*,*,#206,.F.);
#285=ORIENTED_EDGE('',*,*,#217,.T.);
#286=ORIENTED_EDGE('',*,*,#218,.T.);
#287=ORIENTED_EDGE('',*,*,#219,.F.);
#288=ORIENTED_EDGE('',*,*,#220,.F.);
#289=ORIENTED_EDGE('',*,*,#215,.F.);
#290=ORIENTED_EDGE('',*,*,#213,.F.);
#291=ORIENTED_EDGE('',*,*,#221,.F.);
#292=ORIENTED_EDGE('',*,*,#222,.T.);
#293=ORIENTED_EDGE('',*,*,#223,.T.);
#294=ORIENTED_EDGE('',*,*,#209,.T.);
#295=ORIENTED_EDGE('',*,*,#224,.T.);
#296=ORIENTED_EDGE('',*,*,#225,.T.);
#297=ORIENTED_EDGE('',*,*,#221,.T.);
#298=ORIENTED_EDGE('',*,*,#212,.T.);
#299=ORIENTED_EDGE('',*,*,#220,.T.);
#300=ORIENTED_EDGE('',*,*,#226,.T.);
#301=ORIENTED_EDGE('',*,*,#227,.T.);
#302=ORIENTED_EDGE('',*,*,#228,.F.);
#303=ORIENTED_EDGE('',*,*,#229,.F.);
#304=ORIENTED_EDGE('',*,*,#218,.F.);
#305=ORIENTED_EDGE('',*,*,#214,.F.);
#306=ORIENTED_EDGE('',*,*,#223,.F.);
#307=ORIENTED_EDGE('',*,*,#230,.F.);
#308=ORIENTED_EDGE('',*,*,#231,.F.);
#309=ORIENTED_EDGE('',*,*,#204,.F.);
#310=ORIENTED_EDGE('',*,*,#227,.F.);
#311=ORIENTED_EDGE('',*,*,#232,.T.);
#312=ORIENTED_EDGE('',*,*,#228,.T.);
#313=ORIENTED_EDGE('',*,*,#203,.F.);
#314=ORIENTED_EDGE('',*,*,#216,.F.);
#315=ORIENTED_EDGE('',*,*,#210,.F.);
#316=ORIENTED_EDGE('',*,*,#231,.T.);
#317=ORIENTED_EDGE('',*,*,#233,.F.);
#318=ORIENTED_EDGE('',*,*,#224,.F.);
#319=ORIENTED_EDGE('',*,*,#208,.F.);
#320=ORIENTED_EDGE('',*,*,#217,.F.);
#321=ORIENTED_EDGE('',*,*,#205,.F.);
#322=ORIENTED_EDGE('',*,*,#229,.T.);
#323=ORIENTED_EDGE('',*,*,#232,.F.);
#324=ORIENTED_EDGE('',*,*,#226,.F.);
#325=ORIENTED_EDGE('',*,*,#219,.T.);
#326=ORIENTED_EDGE('',*,*,#230,.T.);
#327=ORIENTED_EDGE('',*,*,#222,.F.);
#328=ORIENTED_EDGE('',*,*,#225,.F.);
#329=ORIENTED_EDGE('',*,*,#233,.T.);
#330=CONICAL_SURFACE('',#365,1.1575,0.785398163397453);
#331=CONICAL_SURFACE('',#369,1.22,0.785398163397447);
#332=ADVANCED_FACE('',(#37),#330,.T.);
#333=ADVANCED_FACE('',(#38),#331,.T.);
#334=ADVANCED_FACE('',(#39),#34,.F.);
#335=ADVANCED_FACE('',(#40),#35,.F.);
#336=ADVANCED_FACE('',(#41,#29),#36,.T.);
#337=ADVANCED_FACE('',(#42),#15,.F.);
#338=ADVANCED_FACE('',(#43,#30),#16,.T.);
#339=ADVANCED_FACE('',(#44),#17,.F.);
#340=ADVANCED_FACE('',(#45),#18,.T.);
#341=ADVANCED_FACE('',(#46,#31),#19,.F.);
#342=ADVANCED_FACE('',(#47),#20,.F.);
#343=ADVANCED_FACE('',(#48),#21,.F.);
#344=ADVANCED_FACE('',(#49),#22,.F.);
#345=ADVANCED_FACE('',(#50),#23,.T.);
#346=ADVANCED_FACE('',(#51),#24,.F.);
#347=ADVANCED_FACE('',(#52),#25,.F.);
#348=ADVANCED_FACE('',(#53),#26,.F.);
#349=ADVANCED_FACE('',(#54),#27,.F.);
#350=ADVANCED_FACE('',(#55),#28,.F.);
#351=CLOSED_SHELL('',(#332,#333,#334,#335,#336,#337,#338,#339,#340,#341,
#342,#343,#344,#345,#346,#347,#348,#349,#350));
#352=DERIVED_UNIT_ELEMENT(#354,1.);
#353=DERIVED_UNIT_ELEMENT(#613,-3.);
#354=(
MASS_UNIT()
NAMED_UNIT(*)
SI_UNIT(.KILO.,.GRAM.)
);
#355=DERIVED_UNIT((#352,#353));
#356=MEASURE_REPRESENTATION_ITEM('density measure',
POSITIVE_RATIO_MEASURE(7850.),#355);
#357=PROPERTY_DEFINITION_REPRESENTATION(#362,#359);
#358=PROPERTY_DEFINITION_REPRESENTATION(#363,#360);
#359=REPRESENTATION('material name',(#361),#608);
#360=REPRESENTATION('density',(#356),#608);
#361=DESCRIPTIVE_REPRESENTATION_ITEM('Steel','Steel');
#362=PROPERTY_DEFINITION('material property','material name',#621);
#363=PROPERTY_DEFINITION('material property','density of part',#621);
#364=AXIS2_PLACEMENT_3D('',#502,#400,#401);
#365=AXIS2_PLACEMENT_3D('',#503,#402,#403);
#366=AXIS2_PLACEMENT_3D('',#506,#404,#405);
#367=AXIS2_PLACEMENT_3D('',#511,#406,#407);
#368=AXIS2_PLACEMENT_3D('',#514,#409,#410);
#369=AXIS2_PLACEMENT_3D('',#515,#411,#412);
#370=AXIS2_PLACEMENT_3D('',#518,#413,#414);
#371=AXIS2_PLACEMENT_3D('',#523,#415,#416);
#372=AXIS2_PLACEMENT_3D('',#526,#418,#419);
#373=AXIS2_PLACEMENT_3D('',#527,#420,#421);
#374=AXIS2_PLACEMENT_3D('',#529,#422,#423);
#375=AXIS2_PLACEMENT_3D('',#532,#425,#426);
#376=AXIS2_PLACEMENT_3D('',#533,#427,#428);
#377=AXIS2_PLACEMENT_3D('',#535,#429,#430);
#378=AXIS2_PLACEMENT_3D('',#538,#432,#433);
#379=AXIS2_PLACEMENT_3D('',#539,#434,#435);
#380=AXIS2_PLACEMENT_3D('',#543,#437,#438);
#381=AXIS2_PLACEMENT_3D('',#547,#440,#441);
#382=AXIS2_PLACEMENT_3D('',#552,#444,#445);
#383=AXIS2_PLACEMENT_3D('',#556,#447,#448);
#384=AXIS2_PLACEMENT_3D('',#562,#451,#452);
#385=AXIS2_PLACEMENT_3D('',#565,#454,#455);
#386=AXIS2_PLACEMENT_3D('',#566,#456,#457);
#387=AXIS2_PLACEMENT_3D('',#568,#459,#460);
#388=AXIS2_PLACEMENT_3D('',#569,#461,#462);
#389=AXIS2_PLACEMENT_3D('',#570,#463,#464);
#390=AXIS2_PLACEMENT_3D('',#571,#465,#466);
#391=AXIS2_PLACEMENT_3D('',#572,#467,#468);
#392=AXIS2_PLACEMENT_3D('',#574,#470,#471);
#393=AXIS2_PLACEMENT_3D('',#580,#475,#476);
#394=AXIS2_PLACEMENT_3D('',#586,#480,#481);
#395=AXIS2_PLACEMENT_3D('',#593,#486,#487);
#396=AXIS2_PLACEMENT_3D('',#600,#492,#493);
#397=AXIS2_PLACEMENT_3D('',#602,#495,#496);
#398=AXIS2_PLACEMENT_3D('',#604,#498,#499);
#399=AXIS2_PLACEMENT_3D('',#605,#500,#501);
#400=DIRECTION('axis',(0.,0.,1.));
#401=DIRECTION('refdir',(1.,0.,0.));
#402=DIRECTION('center_axis',(-1.,0.,0.));
#403=DIRECTION('ref_axis',(0.,0.,1.));
#404=DIRECTION('center_axis',(-1.,0.,0.));
#405=DIRECTION('ref_axis',(0.,-8.88178419700125E-16,-1.));
#406=DIRECTION('center_axis',(-1.,0.,0.));
#407=DIRECTION('ref_axis',(0.,-8.88178419700125E-16,-1.));
#408=DIRECTION('',(0.707106781186544,8.65956056235497E-17,0.707106781186551));
#409=DIRECTION('center_axis',(1.,0.,0.));
#410=DIRECTION('ref_axis',(0.,0.,-1.));
#411=DIRECTION('center_axis',(1.,0.,0.));
#412=DIRECTION('ref_axis',(0.,0.,-1.));
#413=DIRECTION('center_axis',(1.,0.,0.));
#414=DIRECTION('ref_axis',(0.,0.,-1.));
#415=DIRECTION('center_axis',(1.,0.,0.));
#416=DIRECTION('ref_axis',(0.,0.,-1.));
#417=DIRECTION('',(-0.707106781186548,8.65956056235492E-17,-0.707106781186547));
#418=DIRECTION('center_axis',(-1.,0.,0.));
#419=DIRECTION('ref_axis',(0.,0.,-1.));
#420=DIRECTION('center_axis',(1.,0.,0.));
#421=DIRECTION('ref_axis',(0.,0.,-1.));
#422=DIRECTION('center_axis',(1.,0.,0.));
#423=DIRECTION('ref_axis',(0.,0.,-1.));
#424=DIRECTION('',(1.,0.,0.));
#425=DIRECTION('center_axis',(1.,0.,0.));
#426=DIRECTION('ref_axis',(0.,0.,-1.));
#427=DIRECTION('center_axis',(1.,0.,0.));
#428=DIRECTION('ref_axis',(0.,0.,-1.));
#429=DIRECTION('center_axis',(1.,0.,0.));
#430=DIRECTION('ref_axis',(0.,0.,-1.));
#431=DIRECTION('',(1.,0.,0.));
#432=DIRECTION('center_axis',(1.,0.,0.));
#433=DIRECTION('ref_axis',(0.,0.,-1.));
#434=DIRECTION('center_axis',(-1.,0.,0.));
#435=DIRECTION('ref_axis',(0.,-1.,-1.83697019872103E-16));
#436=DIRECTION('',(-1.,0.,0.));
#437=DIRECTION('center_axis',(1.,0.,0.));
#438=DIRECTION('ref_axis',(0.,0.,-1.));
#439=DIRECTION('',(-1.,0.,0.));
#440=DIRECTION('center_axis',(-1.,0.,0.));
#441=DIRECTION('ref_axis',(0.,0.,1.));
#442=DIRECTION('',(-1.,0.,0.));
#443=DIRECTION('',(1.,0.,0.));
#444=DIRECTION('center_axis',(-1.,0.,0.));
#445=DIRECTION('ref_axis',(0.,0.,1.));
#446=DIRECTION('',(-1.,0.,0.));
#447=DIRECTION('center_axis',(1.,0.,0.));
#448=DIRECTION('ref_axis',(0.,0.,-1.));
#449=DIRECTION('',(1.,0.,0.));
#450=DIRECTION('',(1.,0.,0.));
#451=DIRECTION('center_axis',(-0.629320391049834,0.777145961456974,0.));
#452=DIRECTION('ref_axis',(0.777145961456974,0.629320391049834,1.36039584315605E-15));
#453=DIRECTION('',(1.,0.,0.));
#454=DIRECTION('center_axis',(0.629320391049835,0.777145961456973,0.));
#455=DIRECTION('ref_axis',(0.777145961456973,-0.629320391049835,1.83949177052645E-15));
#456=DIRECTION('center_axis',(0.,-1.,0.));
#457=DIRECTION('ref_axis',(0.,0.,-1.));
#458=DIRECTION('',(0.,0.,1.));
#459=DIRECTION('center_axis',(1.,0.,0.));
#460=DIRECTION('ref_axis',(0.,0.,-1.));
#461=DIRECTION('center_axis',(1.,0.,0.));
#462=DIRECTION('ref_axis',(0.,0.,-1.));
#463=DIRECTION('center_axis',(1.,0.,0.));
#464=DIRECTION('ref_axis',(0.,0.,-1.));
#465=DIRECTION('center_axis',(1.,0.,0.));
#466=DIRECTION('ref_axis',(0.,0.,-1.));
#467=DIRECTION('center_axis',(0.,-1.,0.));
#468=DIRECTION('ref_axis',(0.,0.,-1.));
#469=DIRECTION('',(0.,0.,-1.));
#470=DIRECTION('center_axis',(0.629320391049836,0.777145961456972,0.));
#471=DIRECTION('ref_axis',(-0.777145961456972,0.629320391049836,0.));
#472=DIRECTION('',(-0.777145961456972,0.629320391049836,0.));
#473=DIRECTION('',(0.,0.,1.));
#474=DIRECTION('',(-0.777145961456972,0.629320391049836,0.));
#475=DIRECTION('center_axis',(-0.629320391049836,0.777145961456972,0.));
#476=DIRECTION('ref_axis',(-0.777145961456972,-0.629320391049836,0.));
#477=DIRECTION('',(-0.777145961456972,-0.629320391049836,0.));
#478=DIRECTION('',(0.,0.,1.));
#479=DIRECTION('',(-0.777145961456972,-0.629320391049836,0.));
#480=DIRECTION('center_axis',(0.,0.,1.));
#481=DIRECTION('ref_axis',(1.,0.,0.));
#482=DIRECTION('',(0.,-1.,0.));
#483=DIRECTION('',(-0.173648177666931,-0.984807753012208,0.));
#484=DIRECTION('',(-0.173648177666931,0.984807753012208,0.));
#485=DIRECTION('',(0.,1.,0.));
#486=DIRECTION('center_axis',(0.,0.,1.));
#487=DIRECTION('ref_axis',(1.,0.,0.));
#488=DIRECTION('',(0.,1.,0.));
#489=DIRECTION('',(-0.173648177666931,0.984807753012208,0.));
#490=DIRECTION('',(-0.173648177666931,-0.984807753012208,0.));
#491=DIRECTION('',(0.,-1.,0.));
#492=DIRECTION('center_axis',(1.,0.,0.));
#493=DIRECTION('ref_axis',(0.,0.,-1.));
#494=DIRECTION('',(0.,0.,1.));
#495=DIRECTION('center_axis',(-1.,0.,0.));
#496=DIRECTION('ref_axis',(0.,0.,1.));
#497=DIRECTION('',(0.,0.,1.));
#498=DIRECTION('center_axis',(0.984807753012208,0.173648177666931,0.));
#499=DIRECTION('ref_axis',(-0.173648177666931,0.984807753012208,0.));
#500=DIRECTION('center_axis',(-0.984807753012208,0.173648177666931,0.));
#501=DIRECTION('ref_axis',(-0.173648177666931,-0.984807753012208,0.));
#502=CARTESIAN_POINT('',(0.,0.,0.));
#503=CARTESIAN_POINT('Origin',(6.515,0.,0.));
#504=CARTESIAN_POINT('',(6.4525,1.175,-0.32829102942359));
#505=CARTESIAN_POINT('',(6.4525,-1.49406909495977E-16,-1.22));
#506=CARTESIAN_POINT('Origin',(6.4525,0.,0.));
#507=CARTESIAN_POINT('',(6.4525,1.175,0.32829102942359));
#508=CARTESIAN_POINT('Ctrl Pts',(6.45250000000002,1.175,0.328291029423521));
#509=CARTESIAN_POINT('Ctrl Pts',(6.54084016393441,1.175,8.60422844084496E-16));
#510=CARTESIAN_POINT('Ctrl Pts',(6.45250000000002,1.175,-0.328291029423519));
#511=CARTESIAN_POINT('Origin',(6.4525,0.,0.));
#512=CARTESIAN_POINT('',(6.515,-1.41752867001306E-16,-1.1575));
#513=CARTESIAN_POINT('',(6.515,-1.41752867001306E-16,-1.1575));
#514=CARTESIAN_POINT('Origin',(6.515,0.,0.));
#515=CARTESIAN_POINT('Origin',(0.0624999999999997,0.,0.));
#516=CARTESIAN_POINT('',(0.0624999999999997,1.175,0.32829102942359));
#517=CARTESIAN_POINT('',(0.0624999999999998,-1.49406909495977E-16,1.22));
#518=CARTESIAN_POINT('Origin',(0.0624999999999997,0.,0.));
#519=CARTESIAN_POINT('',(0.0624999999999997,1.175,-0.32829102942359));
#520=CARTESIAN_POINT('Ctrl Pts',(0.0624999999999981,1.175,-0.328291029423584));
#521=CARTESIAN_POINT('Ctrl Pts',(-0.0258401639344255,1.175,-3.33066907387547E-16));
#522=CARTESIAN_POINT('Ctrl Pts',(0.0624999999999979,1.175,0.328291029423583));
#523=CARTESIAN_POINT('Origin',(0.0624999999999997,0.,0.));
#524=CARTESIAN_POINT('',(-7.64917438225994E-17,-1.41752867001306E-16,1.1575));
#525=CARTESIAN_POINT('',(0.0624999999999997,-1.49406909495977E-16,1.22));
#526=CARTESIAN_POINT('Origin',(0.,0.,0.));
#527=CARTESIAN_POINT('Origin',(5.415,0.,0.));
#528=CARTESIAN_POINT('',(5.415,-6.12323399573677E-17,0.5));
#529=CARTESIAN_POINT('Origin',(5.415,0.,0.));
#530=CARTESIAN_POINT('',(5.6025,-6.12323399573677E-17,0.5));
#531=CARTESIAN_POINT('',(5.415,-6.12323399573677E-17,0.5));
#532=CARTESIAN_POINT('Origin',(5.6025,0.,0.));
#533=CARTESIAN_POINT('Origin',(5.6025,0.,0.));
#534=CARTESIAN_POINT('',(5.6025,-5.20474889637625E-17,0.425));
#535=CARTESIAN_POINT('Origin',(5.6025,0.,0.));
#536=CARTESIAN_POINT('',(6.515,-5.20474889637625E-17,0.425));
#537=CARTESIAN_POINT('',(5.6025,-5.20474889637625E-17,0.425));
#538=CARTESIAN_POINT('Origin',(6.515,0.,0.));
#539=CARTESIAN_POINT('Origin',(6.515,0.,0.));
#540=CARTESIAN_POINT('',(3.93,1.175,0.32829102942359));
#541=CARTESIAN_POINT('',(6.515,1.175,0.32829102942359));
#542=CARTESIAN_POINT('',(3.93,1.1205327973781,0.4825));
#543=CARTESIAN_POINT('Origin',(3.93,0.,0.));
#544=CARTESIAN_POINT('',(1.57,1.1205327973781,0.4825));
#545=CARTESIAN_POINT('',(6.515,1.1205327973781,0.4825));
#546=CARTESIAN_POINT('',(1.57,1.175,0.32829102942359));
#547=CARTESIAN_POINT('Origin',(1.57,0.,0.));
#548=CARTESIAN_POINT('',(6.515,1.175,0.32829102942359));
#549=CARTESIAN_POINT('',(1.57,1.175,-0.32829102942359));
#550=CARTESIAN_POINT('',(6.515,1.175,-0.32829102942359));
#551=CARTESIAN_POINT('',(1.57,1.1205327973781,-0.4825));
#552=CARTESIAN_POINT('Origin',(1.57,0.,0.));
#553=CARTESIAN_POINT('',(3.93,1.1205327973781,-0.4825));
#554=CARTESIAN_POINT('',(6.515,1.1205327973781,-0.4825));
#555=CARTESIAN_POINT('',(3.93,1.175,-0.32829102942359));
#556=CARTESIAN_POINT('Origin',(3.93,0.,0.));
#557=CARTESIAN_POINT('',(6.515,1.175,-0.32829102942359));
#558=CARTESIAN_POINT('',(0.902831765686275,-1.1205327973781,-0.4825));
#559=CARTESIAN_POINT('',(4.59716823431372,-1.1205327973781,-0.4825));
#560=CARTESIAN_POINT('',(6.515,-1.1205327973781,-0.4825));
#561=CARTESIAN_POINT('',(0.902831765686275,-1.1205327973781,0.4825));
#562=CARTESIAN_POINT('Origin',(2.28657453097254,-1.88650495050479E-13,1.48612530855336E-15));
#563=CARTESIAN_POINT('',(4.59716823431372,-1.1205327973781,0.4825));
#564=CARTESIAN_POINT('',(6.515,-1.1205327973781,0.4825));
#565=CARTESIAN_POINT('Origin',(3.2134254690265,5.87106916014374E-13,-1.92322098753964E-15));
#566=CARTESIAN_POINT('Origin',(0.,1.175,0.964532021746464));
#567=CARTESIAN_POINT('',(3.93,1.175,0.964532021746464));
#568=CARTESIAN_POINT('Origin',(6.515,0.,0.));
#569=CARTESIAN_POINT('Origin',(0.,0.,0.));
#570=CARTESIAN_POINT('Origin',(5.415,0.,0.));
#571=CARTESIAN_POINT('Origin',(5.6025,0.,0.));
#572=CARTESIAN_POINT('Origin',(0.,1.175,0.964532021746464));
#573=CARTESIAN_POINT('',(1.57,1.175,0.964532021746464));
#574=CARTESIAN_POINT('Origin',(4.72,-1.22,-0.4825));
#575=CARTESIAN_POINT('',(4.125,-0.738178500248973,0.4825));
#576=CARTESIAN_POINT('',(4.72,-1.22,0.4825));
#577=CARTESIAN_POINT('',(4.125,-0.738178500248973,-0.4825));
#578=CARTESIAN_POINT('',(4.125,-0.738178500248973,-0.4825));
#579=CARTESIAN_POINT('',(4.72,-1.22,-0.4825));
#580=CARTESIAN_POINT('Origin',(1.375,-0.738178500248973,-0.4825));
#581=CARTESIAN_POINT('',(1.375,-0.738178500248973,-0.4825));
#582=CARTESIAN_POINT('',(1.375,-0.738178500248973,-0.4825));
#583=CARTESIAN_POINT('',(1.375,-0.738178500248973,0.4825));
#584=CARTESIAN_POINT('',(1.375,-0.738178500248973,-0.4825));
#585=CARTESIAN_POINT('',(1.375,-0.738178500248973,0.4825));
#586=CARTESIAN_POINT('Origin',(0.,0.,-0.4825));
#587=CARTESIAN_POINT('',(1.57,0.367721454576479,-0.4825));
#588=CARTESIAN_POINT('',(1.57,1.175,-0.4825));
#589=CARTESIAN_POINT('',(1.57,0.367721454576479,-0.4825));
#590=CARTESIAN_POINT('',(3.93,0.367721454576479,-0.4825));
#591=CARTESIAN_POINT('',(4.125,-0.738178500248973,-0.4825));
#592=CARTESIAN_POINT('',(3.93,0.367721454576479,-0.4825));
#593=CARTESIAN_POINT('Origin',(0.,0.,0.4825));
#594=CARTESIAN_POINT('',(3.93,0.367721454576479,0.4825));
#595=CARTESIAN_POINT('',(3.93,0.367721454576479,0.4825));
#596=CARTESIAN_POINT('',(4.125,-0.738178500248973,0.4825));
#597=CARTESIAN_POINT('',(1.57,0.367721454576479,0.4825));
#598=CARTESIAN_POINT('',(1.57,0.367721454576479,0.4825));
#599=CARTESIAN_POINT('',(1.57,1.175,0.4825));
#600=CARTESIAN_POINT('Origin',(3.93,0.367721454576479,-0.4825));
#601=CARTESIAN_POINT('',(3.93,0.367721454576479,-0.4825));
#602=CARTESIAN_POINT('Origin',(1.57,1.175,-0.4825));
#603=CARTESIAN_POINT('',(1.57,0.367721454576479,-0.4825));
#604=CARTESIAN_POINT('Origin',(4.125,-0.738178500248973,-0.4825));
#605=CARTESIAN_POINT('Origin',(1.57,0.367721454576479,-0.4825));
#606=UNCERTAINTY_MEASURE_WITH_UNIT(LENGTH_MEASURE(0.000393700787401575),
#611,'DISTANCE_ACCURACY_VALUE',
'Maximum model space distance between geometric entities at asserted c
onnectivities');
#607=UNCERTAINTY_MEASURE_WITH_UNIT(LENGTH_MEASURE(0.000393700787401575),
#611,'DISTANCE_ACCURACY_VALUE',
'Maximum model space distance between geometric entities at asserted c
onnectivities');
#608=(
GEOMETRIC_REPRESENTATION_CONTEXT(3)
GLOBAL_UNCERTAINTY_ASSIGNED_CONTEXT((#606))
GLOBAL_UNIT_ASSIGNED_CONTEXT((#611,#615,#616))
REPRESENTATION_CONTEXT('','3D')
);
#609=(
GEOMETRIC_REPRESENTATION_CONTEXT(3)
GLOBAL_UNCERTAINTY_ASSIGNED_CONTEXT((#607))
GLOBAL_UNIT_ASSIGNED_CONTEXT((#611,#615,#616))
REPRESENTATION_CONTEXT('','3D')
);
#610=DIMENSIONAL_EXPONENTS(1.,0.,0.,0.,0.,0.,0.);
#611=(
CONVERSION_BASED_UNIT('inch',#614)
LENGTH_UNIT()
NAMED_UNIT(#610)
);
#612=(
LENGTH_UNIT()
NAMED_UNIT(*)
SI_UNIT(.MILLI.,.METRE.)
);
#613=(
LENGTH_UNIT()
NAMED_UNIT(*)
SI_UNIT($,.METRE.)
);
#614=LENGTH_MEASURE_WITH_UNIT(LENGTH_MEASURE(25.4),#612);
#615=(
NAMED_UNIT(*)
PLANE_ANGLE_UNIT()
SI_UNIT($,.RADIAN.)
);
#616=(
NAMED_UNIT(*)
SI_UNIT($,.STERADIAN.)
SOLID_ANGLE_UNIT()
);
#617=SHAPE_DEFINITION_REPRESENTATION(#618,#619);
#618=PRODUCT_DEFINITION_SHAPE('',$,#621);
#619=SHAPE_REPRESENTATION('',(#364),#608);
#620=PRODUCT_DEFINITION_CONTEXT('part definition',#625,'design');
#621=PRODUCT_DEFINITION('1816-01','1816-01 v1',#622,#620);
#622=PRODUCT_DEFINITION_FORMATION('',$,#627);
#623=PRODUCT_RELATED_PRODUCT_CATEGORY('1816-01 v1','1816-01 v1',(#627));
#624=APPLICATION_PROTOCOL_DEFINITION('international standard',
'automotive_design',2009,#625);
#625=APPLICATION_CONTEXT(
'Core Data for Automotive Mechanical Design Process');
#626=PRODUCT_CONTEXT('part definition',#625,'mechanical');
#627=PRODUCT('1816-01','1816-01 v1','STEP AP214',(#626));
#628=PRESENTATION_STYLE_ASSIGNMENT((#630));
#629=PRESENTATION_STYLE_ASSIGNMENT((#631));
#630=SURFACE_STYLE_USAGE(.BOTH.,#632);
#631=SURFACE_STYLE_USAGE(.BOTH.,#633);
#632=SURFACE_SIDE_STYLE('',(#634));
#633=SURFACE_SIDE_STYLE('',(#635));
#634=SURFACE_STYLE_FILL_AREA(#636);
#635=SURFACE_STYLE_FILL_AREA(#637);
#636=FILL_AREA_STYLE('Steel - Satin',(#638));
#637=FILL_AREA_STYLE('Opaque(202,209,238)',(#639));
#638=FILL_AREA_STYLE_COLOUR('Steel - Satin',#640);
#639=FILL_AREA_STYLE_COLOUR('Opaque(202,209,238)',#641);
#640=COLOUR_RGB('Steel - Satin',0.627450980392157,0.627450980392157,0.627450980392157);
#641=COLOUR_RGB('Opaque(202,209,238)',0.792156862745098,0.819607843137255,
0.933333333333333);
ENDSEC;
END-ISO-10303-21;
