ISO-10303-21;
HEADER;
/* Generated by software containing ST-Developer
 * from STEP Tools, Inc. (www.steptools.com) 
 */

FILE_DESCRIPTION(
/* description */ (''),
/* implementation_level */ '2;1');

FILE_NAME(
/* name */ '2633-M42-398 CORRECT DIMENSIONS - MARK - 9.03.2025.step',
/* time_stamp */ '2026-01-07T10:46:30-06:00',
/* author */ (''),
/* organization */ (''),
/* preprocessor_version */ 'ST-DEVELOPER v20.1',
/* originating_system */ 'Autodesk Translation Framework v14.24.0.0',
/* authorisation */ '');

FILE_SCHEMA (('AUTOMOTIVE_DESIGN { 1 0 10303 214 3 1 1 }'));
ENDSEC;

DATA;
#10=MECHANICAL_DESIGN_GEOMETRIC_PRESENTATION_REPRESENTATION('',(#13),#660);
#11=SHAPE_REPRESENTATION_RELATIONSHIP('SRR','None',#670,#12);
#12=ADVANCED_BREP_SHAPE_REPRESENTATION('',(#14),#659);
#13=STYLED_ITEM('',(#679),#14);
#14=MANIFOLD_SOLID_BREP('Body1',#299);
#15=PLANE('',#326);
#16=PLANE('',#336);
#17=PLANE('',#348);
#18=ELLIPSE('',#323,0.486159158999634,0.482);
#19=ELLIPSE('',#331,0.486159158999634,0.482);
#20=CONICAL_SURFACE('',#320,0.199124999999998,1.0471975511966);
#21=CONICAL_SURFACE('',#350,0.109999999999996,0.785398163397458);
#22=FACE_BOUND('',#83,.T.);
#23=FACE_BOUND('',#84,.T.);
#24=B_SPLINE_CURVE_WITH_KNOTS('',3,(#461,#462,#463,#464),.UNSPECIFIED.,
 .F.,.F.,(4,4),(1.48435882269805,1.54347118445665),.UNSPECIFIED.);
#25=B_SPLINE_CURVE_WITH_KNOTS('',3,(#466,#467,#468,#469,#470,#471,#472,
#473,#474,#475,#476,#477),.UNSPECIFIED.,.F.,.F.,(4,2,2,2,2,4),(0.727057011055764,
0.80445359008453,0.997785125893041,1.19111666170155,1.40001192093531,1.54728103704808),
 .UNSPECIFIED.);
#26=B_SPLINE_CURVE_WITH_KNOTS('',3,(#479,#480,#481,#482,#483,#484,#485,
#486,#487,#488),.UNSPECIFIED.,.F.,.F.,(4,2,2,2,4),(2.18970756558936,2.35948061825411,
2.52925367091886,2.82618540862941,3.08431492561028),.UNSPECIFIED.);
#27=B_SPLINE_CURVE_WITH_KNOTS('',3,(#492,#493,#494,#495),.UNSPECIFIED.,
 .F.,.F.,(4,4),(-0.0591123595166224,0.),.UNSPECIFIED.);
#28=B_SPLINE_CURVE_WITH_KNOTS('',3,(#497,#498,#499,#500,#501,#502,#503,
#504,#505,#506,#507,#508),.UNSPECIFIED.,.F.,.F.,(4,2,2,2,2,4),(2.25982225297417,
2.33721883200293,2.53055036781144,2.72388190361995,2.93277716285371,3.08004627896648),
 .UNSPECIFIED.);
#29=B_SPLINE_CURVE_WITH_KNOTS('',3,(#509,#510,#511,#512,#513,#514,#515,
#516,#517,#518),.UNSPECIFIED.,.F.,.F.,(4,2,2,2,4),(2.18970614141049,2.35947905754075,
2.52925197367101,2.82618335974309,3.08431350245196),.UNSPECIFIED.);
#30=B_SPLINE_CURVE_WITH_KNOTS('',3,(#521,#522,#523,#524,#525,#526,#527,
#528,#529,#530,#531,#532,#533,#534,#535,#536,#537,#538),.UNSPECIFIED.,.F.,
 .F.,(4,2,2,2,2,2,2,2,4),(0.,0.0617232537763865,0.123446507552773,0.18514514631168,
0.246843785070587,0.308542423829494,0.370241062588401,0.431964316364787,
0.493687570141174),.UNSPECIFIED.);
#31=B_SPLINE_CURVE_WITH_KNOTS('',3,(#539,#540,#541,#542,#543,#544,#545,
#546,#547,#548,#549,#550,#551,#552,#553,#554,#555,#556),.UNSPECIFIED.,.F.,
 .F.,(4,2,2,2,2,2,2,2,4),(0.493687570141174,0.55541082391756,0.617134077693947,
0.678832716452854,0.740531355211761,0.802229993970667,0.863928632729574,
0.925651886505961,0.987375140282347),.UNSPECIFIED.);
#32=B_SPLINE_CURVE_WITH_KNOTS('',3,(#559,#560,#561,#562,#563,#564,#565,
#566,#567,#568,#569,#570,#571,#572,#573,#574,#575,#576),.UNSPECIFIED.,.F.,
 .F.,(4,2,2,2,2,2,2,2,4),(0.,0.0617232537763865,0.123446507552773,0.18514514631168,
0.246843785070587,0.308542423829494,0.370241062588401,0.431964316364787,
0.493687570141174),.UNSPECIFIED.);
#33=B_SPLINE_CURVE_WITH_KNOTS('',3,(#577,#578,#579,#580,#581,#582,#583,
#584,#585,#586,#587,#588,#589,#590,#591,#592,#593,#594),.UNSPECIFIED.,.F.,
 .F.,(4,2,2,2,2,2,2,2,4),(0.493687570141174,0.55541082391756,0.617134077693947,
0.678832716452854,0.740531355211761,0.802229993970667,0.863928632729574,
0.925651886505961,0.987375140282347),.UNSPECIFIED.);
#34=B_SPLINE_CURVE_WITH_KNOTS('',3,(#602,#603,#604,#605,#606,#607),
 .UNSPECIFIED.,.F.,.F.,(4,2,4),(1.21742507554197,1.32589608335271,1.65038872918199),
 .UNSPECIFIED.);
#35=B_SPLINE_CURVE_WITH_KNOTS('',3,(#616,#617,#618,#619,#620,#621),
 .UNSPECIFIED.,.F.,.F.,(4,2,4),(1.22396001350999,1.32921324914114,1.65693690381753),
 .UNSPECIFIED.);
#36=LINE('',#457,#45);
#37=LINE('',#459,#46);
#38=LINE('',#490,#47);
#39=LINE('',#597,#48);
#40=LINE('',#611,#49);
#41=LINE('',#622,#50);
#42=LINE('',#624,#51);
#43=LINE('',#644,#52);
#44=LINE('',#654,#53);
#45=VECTOR('',#369,0.199);
#46=VECTOR('',#370,0.393700787401575);
#47=VECTOR('',#371,0.393700787401575);
#48=VECTOR('',#374,0.199124999999998);
#49=VECTOR('',#385,0.393700787401575);
#50=VECTOR('',#392,0.393700787401575);
#51=VECTOR('',#395,0.064);
#52=VECTOR('',#424,0.124999999999997);
#53=VECTOR('',#439,0.109999999999996);
#54=CYLINDRICAL_SURFACE('',#319,0.199);
#55=CYLINDRICAL_SURFACE('',#322,0.482);
#56=CYLINDRICAL_SURFACE('',#324,0.482);
#57=CYLINDRICAL_SURFACE('',#328,2.);
#58=CYLINDRICAL_SURFACE('',#329,0.064);
#59=CYLINDRICAL_SURFACE('',#330,0.482);
#60=CYLINDRICAL_SURFACE('',#332,0.482);
#61=CYLINDRICAL_SURFACE('',#334,2.);
#62=CYLINDRICAL_SURFACE('',#343,0.1234);
#63=FACE_OUTER_BOUND('',#81,.T.);
#64=FACE_OUTER_BOUND('',#82,.T.);
#65=FACE_OUTER_BOUND('',#85,.T.);
#66=FACE_OUTER_BOUND('',#86,.T.);
#67=FACE_OUTER_BOUND('',#87,.T.);
#68=FACE_OUTER_BOUND('',#88,.T.);
#69=FACE_OUTER_BOUND('',#89,.T.);
#70=FACE_OUTER_BOUND('',#90,.T.);
#71=FACE_OUTER_BOUND('',#91,.T.);
#72=FACE_OUTER_BOUND('',#92,.T.);
#73=FACE_OUTER_BOUND('',#93,.T.);
#74=FACE_OUTER_BOUND('',#94,.T.);
#75=FACE_OUTER_BOUND('',#95,.T.);
#76=FACE_OUTER_BOUND('',#96,.T.);
#77=FACE_OUTER_BOUND('',#97,.T.);
#78=FACE_OUTER_BOUND('',#98,.T.);
#79=FACE_OUTER_BOUND('',#99,.T.);
#80=FACE_OUTER_BOUND('',#100,.T.);
#81=EDGE_LOOP('',(#191,#192,#193,#194,#195,#196));
#82=EDGE_LOOP('',(#197,#198,#199,#200,#201,#202,#203,#204,#205,#206,#207,
#208));
#83=EDGE_LOOP('',(#209,#210));
#84=EDGE_LOOP('',(#211,#212));
#85=EDGE_LOOP('',(#213,#214,#215,#216,#217));
#86=EDGE_LOOP('',(#218,#219,#220));
#87=EDGE_LOOP('',(#221,#222,#223,#224));
#88=EDGE_LOOP('',(#225,#226,#227));
#89=EDGE_LOOP('',(#228,#229,#230,#231));
#90=EDGE_LOOP('',(#232,#233,#234,#235,#236,#237));
#91=EDGE_LOOP('',(#238,#239,#240));
#92=EDGE_LOOP('',(#241,#242,#243,#244));
#93=EDGE_LOOP('',(#245,#246,#247,#248));
#94=EDGE_LOOP('',(#249,#250,#251));
#95=EDGE_LOOP('',(#252,#253,#254,#255,#256,#257));
#96=EDGE_LOOP('',(#258,#259,#260,#261,#262));
#97=EDGE_LOOP('',(#263,#264,#265,#266));
#98=EDGE_LOOP('',(#267));
#99=EDGE_LOOP('',(#268,#269,#270,#271));
#100=EDGE_LOOP('',(#272,#273,#274,#275,#276));
#101=CIRCLE('',#314,0.1965);
#102=CIRCLE('',#315,0.005);
#103=CIRCLE('',#316,0.199);
#104=CIRCLE('',#317,0.199);
#105=CIRCLE('',#318,0.1965);
#106=CIRCLE('',#321,0.113749999999998);
#107=CIRCLE('',#325,0.482);
#108=CIRCLE('',#327,2.);
#109=CIRCLE('',#333,0.482);
#110=CIRCLE('',#335,2.);
#111=CIRCLE('',#338,0.1234);
#112=CIRCLE('',#339,0.00499999999999987);
#113=CIRCLE('',#340,0.11947);
#114=CIRCLE('',#341,0.11947);
#115=CIRCLE('',#342,0.1234);
#116=CIRCLE('',#344,0.1234);
#117=CIRCLE('',#346,0.103810685573959);
#118=CIRCLE('',#347,0.0199999999999998);
#119=CIRCLE('',#349,0.094999999999996);
#120=CIRCLE('',#352,0.02);
#121=VERTEX_POINT('',#446);
#122=VERTEX_POINT('',#447);
#123=VERTEX_POINT('',#449);
#124=VERTEX_POINT('',#451);
#125=VERTEX_POINT('',#456);
#126=VERTEX_POINT('',#458);
#127=VERTEX_POINT('',#460);
#128=VERTEX_POINT('',#465);
#129=VERTEX_POINT('',#478);
#130=VERTEX_POINT('',#489);
#131=VERTEX_POINT('',#491);
#132=VERTEX_POINT('',#496);
#133=VERTEX_POINT('',#519);
#134=VERTEX_POINT('',#520);
#135=VERTEX_POINT('',#557);
#136=VERTEX_POINT('',#558);
#137=VERTEX_POINT('',#596);
#138=VERTEX_POINT('',#600);
#139=VERTEX_POINT('',#609);
#140=VERTEX_POINT('',#615);
#141=VERTEX_POINT('',#633);
#142=VERTEX_POINT('',#634);
#143=VERTEX_POINT('',#636);
#144=VERTEX_POINT('',#638);
#145=VERTEX_POINT('',#643);
#146=VERTEX_POINT('',#647);
#147=VERTEX_POINT('',#651);
#148=EDGE_CURVE('',#121,#122,#101,.T.);
#149=EDGE_CURVE('',#122,#123,#102,.T.);
#150=EDGE_CURVE('',#123,#124,#103,.T.);
#151=EDGE_CURVE('',#124,#123,#104,.T.);
#152=EDGE_CURVE('',#122,#121,#105,.T.);
#153=EDGE_CURVE('',#124,#125,#36,.T.);
#154=EDGE_CURVE('',#126,#125,#37,.T.);
#155=EDGE_CURVE('',#127,#126,#24,.T.);
#156=EDGE_CURVE('',#128,#127,#25,.T.);
#157=EDGE_CURVE('',#129,#128,#26,.T.);
#158=EDGE_CURVE('',#130,#129,#38,.T.);
#159=EDGE_CURVE('',#131,#130,#27,.T.);
#160=EDGE_CURVE('',#132,#131,#28,.T.);
#161=EDGE_CURVE('',#125,#132,#29,.T.);
#162=EDGE_CURVE('',#133,#134,#30,.T.);
#163=EDGE_CURVE('',#134,#133,#31,.T.);
#164=EDGE_CURVE('',#135,#136,#32,.T.);
#165=EDGE_CURVE('',#136,#135,#33,.T.);
#166=EDGE_CURVE('',#121,#137,#39,.T.);
#167=EDGE_CURVE('',#137,#137,#106,.T.);
#168=EDGE_CURVE('',#138,#131,#18,.T.);
#169=EDGE_CURVE('',#132,#138,#34,.T.);
#170=EDGE_CURVE('',#130,#139,#107,.T.);
#171=EDGE_CURVE('',#139,#138,#40,.T.);
#172=EDGE_CURVE('',#129,#139,#108,.T.);
#173=EDGE_CURVE('',#128,#140,#35,.T.);
#174=EDGE_CURVE('',#139,#140,#41,.T.);
#175=EDGE_CURVE('',#134,#136,#42,.T.);
#176=EDGE_CURVE('',#140,#127,#19,.T.);
#177=EDGE_CURVE('',#126,#139,#109,.T.);
#178=EDGE_CURVE('',#139,#125,#110,.T.);
#179=EDGE_CURVE('',#141,#142,#111,.T.);
#180=EDGE_CURVE('',#142,#143,#112,.T.);
#181=EDGE_CURVE('',#143,#144,#113,.T.);
#182=EDGE_CURVE('',#144,#143,#114,.T.);
#183=EDGE_CURVE('',#142,#141,#115,.T.);
#184=EDGE_CURVE('',#141,#145,#43,.T.);
#185=EDGE_CURVE('',#145,#145,#116,.T.);
#186=EDGE_CURVE('',#146,#146,#117,.T.);
#187=EDGE_CURVE('',#146,#137,#118,.T.);
#188=EDGE_CURVE('',#147,#147,#119,.T.);
#189=EDGE_CURVE('',#145,#147,#44,.T.);
#190=EDGE_CURVE('',#144,#146,#120,.T.);
#191=ORIENTED_EDGE('',*,*,#148,.T.);
#192=ORIENTED_EDGE('',*,*,#149,.T.);
#193=ORIENTED_EDGE('',*,*,#150,.T.);
#194=ORIENTED_EDGE('',*,*,#151,.T.);
#195=ORIENTED_EDGE('',*,*,#149,.F.);
#196=ORIENTED_EDGE('',*,*,#152,.T.);
#197=ORIENTED_EDGE('',*,*,#151,.F.);
#198=ORIENTED_EDGE('',*,*,#153,.T.);
#199=ORIENTED_EDGE('',*,*,#154,.F.);
#200=ORIENTED_EDGE('',*,*,#155,.F.);
#201=ORIENTED_EDGE('',*,*,#156,.F.);
#202=ORIENTED_EDGE('',*,*,#157,.F.);
#203=ORIENTED_EDGE('',*,*,#158,.F.);
#204=ORIENTED_EDGE('',*,*,#159,.F.);
#205=ORIENTED_EDGE('',*,*,#160,.F.);
#206=ORIENTED_EDGE('',*,*,#161,.F.);
#207=ORIENTED_EDGE('',*,*,#153,.F.);
#208=ORIENTED_EDGE('',*,*,#150,.F.);
#209=ORIENTED_EDGE('',*,*,#162,.F.);
#210=ORIENTED_EDGE('',*,*,#163,.F.);
#211=ORIENTED_EDGE('',*,*,#164,.F.);
#212=ORIENTED_EDGE('',*,*,#165,.F.);
#213=ORIENTED_EDGE('',*,*,#148,.F.);
#214=ORIENTED_EDGE('',*,*,#166,.T.);
#215=ORIENTED_EDGE('',*,*,#167,.T.);
#216=ORIENTED_EDGE('',*,*,#166,.F.);
#217=ORIENTED_EDGE('',*,*,#152,.F.);
#218=ORIENTED_EDGE('',*,*,#160,.T.);
#219=ORIENTED_EDGE('',*,*,#168,.F.);
#220=ORIENTED_EDGE('',*,*,#169,.F.);
#221=ORIENTED_EDGE('',*,*,#159,.T.);
#222=ORIENTED_EDGE('',*,*,#170,.T.);
#223=ORIENTED_EDGE('',*,*,#171,.T.);
#224=ORIENTED_EDGE('',*,*,#168,.T.);
#225=ORIENTED_EDGE('',*,*,#158,.T.);
#226=ORIENTED_EDGE('',*,*,#172,.T.);
#227=ORIENTED_EDGE('',*,*,#170,.F.);
#228=ORIENTED_EDGE('',*,*,#157,.T.);
#229=ORIENTED_EDGE('',*,*,#173,.T.);
#230=ORIENTED_EDGE('',*,*,#174,.F.);
#231=ORIENTED_EDGE('',*,*,#172,.F.);
#232=ORIENTED_EDGE('',*,*,#162,.T.);
#233=ORIENTED_EDGE('',*,*,#175,.T.);
#234=ORIENTED_EDGE('',*,*,#165,.T.);
#235=ORIENTED_EDGE('',*,*,#164,.T.);
#236=ORIENTED_EDGE('',*,*,#175,.F.);
#237=ORIENTED_EDGE('',*,*,#163,.T.);
#238=ORIENTED_EDGE('',*,*,#156,.T.);
#239=ORIENTED_EDGE('',*,*,#176,.F.);
#240=ORIENTED_EDGE('',*,*,#173,.F.);
#241=ORIENTED_EDGE('',*,*,#155,.T.);
#242=ORIENTED_EDGE('',*,*,#177,.T.);
#243=ORIENTED_EDGE('',*,*,#174,.T.);
#244=ORIENTED_EDGE('',*,*,#176,.T.);
#245=ORIENTED_EDGE('',*,*,#161,.T.);
#246=ORIENTED_EDGE('',*,*,#169,.T.);
#247=ORIENTED_EDGE('',*,*,#171,.F.);
#248=ORIENTED_EDGE('',*,*,#178,.T.);
#249=ORIENTED_EDGE('',*,*,#154,.T.);
#250=ORIENTED_EDGE('',*,*,#178,.F.);
#251=ORIENTED_EDGE('',*,*,#177,.F.);
#252=ORIENTED_EDGE('',*,*,#179,.T.);
#253=ORIENTED_EDGE('',*,*,#180,.T.);
#254=ORIENTED_EDGE('',*,*,#181,.T.);
#255=ORIENTED_EDGE('',*,*,#182,.T.);
#256=ORIENTED_EDGE('',*,*,#180,.F.);
#257=ORIENTED_EDGE('',*,*,#183,.T.);
#258=ORIENTED_EDGE('',*,*,#179,.F.);
#259=ORIENTED_EDGE('',*,*,#184,.T.);
#260=ORIENTED_EDGE('',*,*,#185,.T.);
#261=ORIENTED_EDGE('',*,*,#184,.F.);
#262=ORIENTED_EDGE('',*,*,#183,.F.);
#263=ORIENTED_EDGE('',*,*,#186,.T.);
#264=ORIENTED_EDGE('',*,*,#187,.T.);
#265=ORIENTED_EDGE('',*,*,#167,.F.);
#266=ORIENTED_EDGE('',*,*,#187,.F.);
#267=ORIENTED_EDGE('',*,*,#188,.F.);
#268=ORIENTED_EDGE('',*,*,#185,.F.);
#269=ORIENTED_EDGE('',*,*,#189,.T.);
#270=ORIENTED_EDGE('',*,*,#188,.T.);
#271=ORIENTED_EDGE('',*,*,#189,.F.);
#272=ORIENTED_EDGE('',*,*,#182,.F.);
#273=ORIENTED_EDGE('',*,*,#190,.T.);
#274=ORIENTED_EDGE('',*,*,#186,.F.);
#275=ORIENTED_EDGE('',*,*,#190,.F.);
#276=ORIENTED_EDGE('',*,*,#181,.F.);
#277=TOROIDAL_SURFACE('',#313,0.194,0.005);
#278=TOROIDAL_SURFACE('',#337,0.1184,0.00499999999999987);
#279=TOROIDAL_SURFACE('',#345,0.123749999999998,0.0199999999999998);
#280=TOROIDAL_SURFACE('',#351,0.123749999999998,0.02);
#281=ADVANCED_FACE('',(#63),#277,.T.);
#282=ADVANCED_FACE('',(#64,#22,#23),#54,.T.);
#283=ADVANCED_FACE('',(#65),#20,.T.);
#284=ADVANCED_FACE('',(#66),#55,.F.);
#285=ADVANCED_FACE('',(#67),#56,.F.);
#286=ADVANCED_FACE('',(#68),#15,.T.);
#287=ADVANCED_FACE('',(#69),#57,.F.);
#288=ADVANCED_FACE('',(#70),#58,.F.);
#289=ADVANCED_FACE('',(#71),#59,.F.);
#290=ADVANCED_FACE('',(#72),#60,.F.);
#291=ADVANCED_FACE('',(#73),#61,.F.);
#292=ADVANCED_FACE('',(#74),#16,.F.);
#293=ADVANCED_FACE('',(#75),#278,.T.);
#294=ADVANCED_FACE('',(#76),#62,.T.);
#295=ADVANCED_FACE('',(#77),#279,.F.);
#296=ADVANCED_FACE('',(#78),#17,.T.);
#297=ADVANCED_FACE('',(#79),#21,.T.);
#298=ADVANCED_FACE('',(#80),#280,.F.);
#299=CLOSED_SHELL('',(#281,#282,#283,#284,#285,#286,#287,#288,#289,#290,
#291,#292,#293,#294,#295,#296,#297,#298));
#300=DERIVED_UNIT_ELEMENT(#302,1.);
#301=DERIVED_UNIT_ELEMENT(#664,-3.);
#302=(
MASS_UNIT()
NAMED_UNIT(*)
SI_UNIT(.KILO.,.GRAM.)
);
#303=DERIVED_UNIT((#300,#301));
#304=MEASURE_REPRESENTATION_ITEM('density measure',
POSITIVE_RATIO_MEASURE(7850.),#303);
#305=PROPERTY_DEFINITION_REPRESENTATION(#310,#307);
#306=PROPERTY_DEFINITION_REPRESENTATION(#311,#308);
#307=REPRESENTATION('material name',(#309),#659);
#308=REPRESENTATION('density',(#304),#659);
#309=DESCRIPTIVE_REPRESENTATION_ITEM('Steel','Steel');
#310=PROPERTY_DEFINITION('material property','material name',#672);
#311=PROPERTY_DEFINITION('material property','density of part',#672);
#312=AXIS2_PLACEMENT_3D('',#444,#353,#354);
#313=AXIS2_PLACEMENT_3D('',#445,#355,#356);
#314=AXIS2_PLACEMENT_3D('',#448,#357,#358);
#315=AXIS2_PLACEMENT_3D('',#450,#359,#360);
#316=AXIS2_PLACEMENT_3D('',#452,#361,#362);
#317=AXIS2_PLACEMENT_3D('',#453,#363,#364);
#318=AXIS2_PLACEMENT_3D('',#454,#365,#366);
#319=AXIS2_PLACEMENT_3D('',#455,#367,#368);
#320=AXIS2_PLACEMENT_3D('',#595,#372,#373);
#321=AXIS2_PLACEMENT_3D('',#598,#375,#376);
#322=AXIS2_PLACEMENT_3D('',#599,#377,#378);
#323=AXIS2_PLACEMENT_3D('',#601,#379,#380);
#324=AXIS2_PLACEMENT_3D('',#608,#381,#382);
#325=AXIS2_PLACEMENT_3D('',#610,#383,#384);
#326=AXIS2_PLACEMENT_3D('',#612,#386,#387);
#327=AXIS2_PLACEMENT_3D('',#613,#388,#389);
#328=AXIS2_PLACEMENT_3D('',#614,#390,#391);
#329=AXIS2_PLACEMENT_3D('',#623,#393,#394);
#330=AXIS2_PLACEMENT_3D('',#625,#396,#397);
#331=AXIS2_PLACEMENT_3D('',#626,#398,#399);
#332=AXIS2_PLACEMENT_3D('',#627,#400,#401);
#333=AXIS2_PLACEMENT_3D('',#628,#402,#403);
#334=AXIS2_PLACEMENT_3D('',#629,#404,#405);
#335=AXIS2_PLACEMENT_3D('',#630,#406,#407);
#336=AXIS2_PLACEMENT_3D('',#631,#408,#409);
#337=AXIS2_PLACEMENT_3D('',#632,#410,#411);
#338=AXIS2_PLACEMENT_3D('',#635,#412,#413);
#339=AXIS2_PLACEMENT_3D('',#637,#414,#415);
#340=AXIS2_PLACEMENT_3D('',#639,#416,#417);
#341=AXIS2_PLACEMENT_3D('',#640,#418,#419);
#342=AXIS2_PLACEMENT_3D('',#641,#420,#421);
#343=AXIS2_PLACEMENT_3D('',#642,#422,#423);
#344=AXIS2_PLACEMENT_3D('',#645,#425,#426);
#345=AXIS2_PLACEMENT_3D('',#646,#427,#428);
#346=AXIS2_PLACEMENT_3D('',#648,#429,#430);
#347=AXIS2_PLACEMENT_3D('',#649,#431,#432);
#348=AXIS2_PLACEMENT_3D('',#650,#433,#434);
#349=AXIS2_PLACEMENT_3D('',#652,#435,#436);
#350=AXIS2_PLACEMENT_3D('',#653,#437,#438);
#351=AXIS2_PLACEMENT_3D('',#655,#440,#441);
#352=AXIS2_PLACEMENT_3D('',#656,#442,#443);
#353=DIRECTION('axis',(0.,0.,1.));
#354=DIRECTION('refdir',(1.,0.,0.));
#355=DIRECTION('center_axis',(0.,0.,1.));
#356=DIRECTION('ref_axis',(1.,0.,0.));
#357=DIRECTION('center_axis',(-4.56003125659989E-15,-1.28587646253536E-29,
-1.));
#358=DIRECTION('ref_axis',(-1.,6.12323399573681E-17,4.56003125659989E-15));
#359=DIRECTION('center_axis',(1.22464679914735E-16,-1.,0.));
#360=DIRECTION('ref_axis',(-1.,-1.22464679914735E-16,0.));
#361=DIRECTION('center_axis',(0.,0.,1.));
#362=DIRECTION('ref_axis',(-1.,0.,0.));
#363=DIRECTION('center_axis',(0.,0.,1.));
#364=DIRECTION('ref_axis',(-1.,0.,0.));
#365=DIRECTION('center_axis',(-4.56003125659989E-15,-1.28587646253536E-29,
-1.));
#366=DIRECTION('ref_axis',(-1.,6.12323399573681E-17,4.56003125659989E-15));
#367=DIRECTION('center_axis',(0.,0.,-1.));
#368=DIRECTION('ref_axis',(-1.,0.,0.));
#369=DIRECTION('',(0.,0.,-1.));
#370=DIRECTION('',(0.,0.,1.));
#371=DIRECTION('',(0.,0.,1.));
#372=DIRECTION('center_axis',(1.44635165551498E-17,0.,-1.));
#373=DIRECTION('ref_axis',(-1.,0.,0.));
#374=DIRECTION('',(-0.866025403784438,1.06057523872491E-16,0.5));
#375=DIRECTION('center_axis',(1.44635165551498E-17,0.,-1.));
#376=DIRECTION('ref_axis',(1.,0.,1.44635165551498E-17));
#377=DIRECTION('center_axis',(0.,0.965925826289068,-0.258819045102521));
#378=DIRECTION('ref_axis',(0.,0.258819045102521,0.965925826289068));
#379=DIRECTION('center_axis',(0.,-0.99144486137381,0.130526192220052));
#380=DIRECTION('ref_axis',(0.,0.130526192220052,0.99144486137381));
#381=DIRECTION('center_axis',(0.,1.,0.));
#382=DIRECTION('ref_axis',(1.,0.,0.));
#383=DIRECTION('center_axis',(0.,1.,0.));
#384=DIRECTION('ref_axis',(1.,0.,0.));
#385=DIRECTION('',(0.,-1.,0.));
#386=DIRECTION('center_axis',(0.,1.,0.));
#387=DIRECTION('ref_axis',(1.,0.,0.));
#388=DIRECTION('center_axis',(0.,1.,0.));
#389=DIRECTION('ref_axis',(1.,0.,0.));
#390=DIRECTION('center_axis',(0.,1.,0.));
#391=DIRECTION('ref_axis',(1.,0.,0.));
#392=DIRECTION('',(0.,1.,0.));
#393=DIRECTION('center_axis',(0.,1.,0.));
#394=DIRECTION('ref_axis',(1.,0.,0.));
#395=DIRECTION('',(0.,1.,0.));
#396=DIRECTION('center_axis',(0.,0.965925826289068,0.258819045102521));
#397=DIRECTION('ref_axis',(0.,-0.258819045102521,0.965925826289068));
#398=DIRECTION('center_axis',(0.,0.99144486137381,0.130526192220054));
#399=DIRECTION('ref_axis',(0.,-0.130526192220054,0.99144486137381));
#400=DIRECTION('center_axis',(0.,1.,0.));
#401=DIRECTION('ref_axis',(1.,0.,0.));
#402=DIRECTION('center_axis',(0.,-1.,0.));
#403=DIRECTION('ref_axis',(1.,0.,0.));
#404=DIRECTION('center_axis',(0.,-1.,0.));
#405=DIRECTION('ref_axis',(1.,0.,0.));
#406=DIRECTION('center_axis',(0.,1.,0.));
#407=DIRECTION('ref_axis',(1.,0.,0.));
#408=DIRECTION('center_axis',(0.,1.,0.));
#409=DIRECTION('ref_axis',(1.,0.,0.));
#410=DIRECTION('center_axis',(-1.44635165551498E-17,0.,1.));
#411=DIRECTION('ref_axis',(1.,0.,0.));
#412=DIRECTION('center_axis',(1.44635165551498E-17,0.,-1.));
#413=DIRECTION('ref_axis',(-1.,0.,-1.66036142240535E-17));
#414=DIRECTION('center_axis',(1.22464679914735E-16,-1.,1.7712699253679E-33));
#415=DIRECTION('ref_axis',(-1.,-1.22464679914735E-16,0.));
#416=DIRECTION('center_axis',(-1.44635165551498E-17,0.,1.));
#417=DIRECTION('ref_axis',(-1.,0.,0.));
#418=DIRECTION('center_axis',(-1.44635165551498E-17,0.,1.));
#419=DIRECTION('ref_axis',(-1.,0.,0.));
#420=DIRECTION('center_axis',(1.44635165551498E-17,0.,-1.));
#421=DIRECTION('ref_axis',(-1.,0.,-1.66036142240535E-17));
#422=DIRECTION('center_axis',(1.44635165551498E-17,0.,-1.));
#423=DIRECTION('ref_axis',(-1.,0.,0.));
#424=DIRECTION('',(-1.44635165551498E-17,0.,1.));
#425=DIRECTION('center_axis',(1.44635165551498E-17,0.,-1.));
#426=DIRECTION('ref_axis',(-1.,0.,0.));
#427=DIRECTION('center_axis',(1.44635165551498E-17,0.,-1.));
#428=DIRECTION('ref_axis',(-1.,0.,0.));
#429=DIRECTION('center_axis',(1.44635165551498E-17,0.,-1.));
#430=DIRECTION('ref_axis',(1.,0.,1.44635165551498E-17));
#431=DIRECTION('center_axis',(-1.22464679914735E-16,-1.,-1.7712699253679E-33));
#432=DIRECTION('ref_axis',(1.,-1.22464679914735E-16,0.));
#433=DIRECTION('center_axis',(-1.44635165551498E-17,0.,1.));
#434=DIRECTION('ref_axis',(1.,0.,1.44635165551498E-17));
#435=DIRECTION('center_axis',(1.44635165551498E-17,0.,-1.));
#436=DIRECTION('ref_axis',(1.,0.,1.44635165551498E-17));
#437=DIRECTION('center_axis',(1.44635165551498E-17,0.,-1.));
#438=DIRECTION('ref_axis',(-1.,0.,0.));
#439=DIRECTION('',(-0.707106781186554,8.65956056235502E-17,0.70710678118654));
#440=DIRECTION('center_axis',(1.44635165551498E-17,0.,-1.));
#441=DIRECTION('ref_axis',(-1.,0.,0.));
#442=DIRECTION('center_axis',(-1.22464679914735E-16,-1.,-1.7712699253679E-33));
#443=DIRECTION('ref_axis',(1.,-1.22464679914735E-16,0.));
#444=CARTESIAN_POINT('',(0.,0.,0.));
#445=CARTESIAN_POINT('Origin',(-3.54356155601145E-19,0.,0.149620635513739));
#446=CARTESIAN_POINT('',(0.196499999999999,-4.81286192064912E-17,0.15395076253266));
#447=CARTESIAN_POINT('',(-0.196500000000001,-2.40643096032456E-17,0.153950762532662));
#448=CARTESIAN_POINT('Origin',(-5.13587422808881E-16,-1.20321548016228E-17,
0.153950762532661));
#449=CARTESIAN_POINT('',(-0.199,-2.43704713030323E-17,0.149620635513739));
#450=CARTESIAN_POINT('Origin',(-0.194,-2.37581479034587E-17,0.149620635513739));
#451=CARTESIAN_POINT('',(0.199,2.43704713030323E-17,0.149620635513739));
#452=CARTESIAN_POINT('Origin',(-3.54356155601145E-19,0.,0.149620635513739));
#453=CARTESIAN_POINT('Origin',(-3.54356155601145E-19,0.,0.149620635513739));
#454=CARTESIAN_POINT('Origin',(-5.13587422808881E-16,-1.20321548016228E-17,
0.153950762532661));
#455=CARTESIAN_POINT('Origin',(-3.54356155601145E-19,0.,0.512));
#456=CARTESIAN_POINT('',(0.199000000000001,0.,-0.157362777090216));
#457=CARTESIAN_POINT('',(0.199,-2.43704713030323E-17,0.512));
#458=CARTESIAN_POINT('',(0.199,0.,-0.462078369268719));
#459=CARTESIAN_POINT('',(0.199,0.,0.512));
#460=CARTESIAN_POINT('',(0.197598338085465,0.0235774635162987,-0.461445688609628));
#461=CARTESIAN_POINT('Ctrl Pts',(0.197598338085465,0.0235774635162988,-0.461445688609629));
#462=CARTESIAN_POINT('Ctrl Pts',(0.198543690345599,0.0156546419889204,-0.461870586657138));
#463=CARTESIAN_POINT('Ctrl Pts',(0.199,0.00775752778984197,-0.462078369268719));
#464=CARTESIAN_POINT('Ctrl Pts',(0.199,1.36592399683213E-18,-0.462078369268719));
#465=CARTESIAN_POINT('',(-0.0308076186686215,0.196600840872995,-0.372245023801824));
#466=CARTESIAN_POINT('Ctrl Pts',(-0.0308076186686215,0.196600840872995,
-0.372245023801824));
#467=CARTESIAN_POINT('Ctrl Pts',(-0.0205116694202012,0.198214230097926,
-0.371130028891695));
#468=CARTESIAN_POINT('Ctrl Pts',(-0.0101570313686045,0.199,-0.370581843337104));
#469=CARTESIAN_POINT('Ctrl Pts',(0.0253715926257888,0.199,-0.370581843337104));
#470=CARTESIAN_POINT('Ctrl Pts',(0.0519133087756913,0.193854119026221,-0.374226369439062));
#471=CARTESIAN_POINT('Ctrl Pts',(0.0998900978648011,0.174058541441377,-0.387450933619114));
#472=CARTESIAN_POINT('Ctrl Pts',(0.12137041146602,0.159441666432334,-0.396915664755825));
#473=CARTESIAN_POINT('Ctrl Pts',(0.156508493336173,0.125498481427649,-0.416903216083384));
#474=CARTESIAN_POINT('Ctrl Pts',(0.17222379243256,0.103270815163593,-0.429022215279506));
#475=CARTESIAN_POINT('Ctrl Pts',(0.190339340992409,0.0610917918166453,-0.44801345747866));
#476=CARTESIAN_POINT('Ctrl Pts',(0.195353175855631,0.0423937507322955,-0.455359171410771));
#477=CARTESIAN_POINT('Ctrl Pts',(0.197598338085465,0.0235774635162987,-0.461445688609628));
#478=CARTESIAN_POINT('',(-0.199000000000003,0.,-0.157362777090216));
#479=CARTESIAN_POINT('Ctrl Pts',(-0.199,1.09273919746571E-17,-0.15736277709022));
#480=CARTESIAN_POINT('Ctrl Pts',(-0.199,0.0222799281712274,-0.15736277709022));
#481=CARTESIAN_POINT('Ctrl Pts',(-0.194998331568089,0.0453757308460776,
-0.161780847415243));
#482=CARTESIAN_POINT('Ctrl Pts',(-0.18041099332841,0.0868053524480645,-0.178282487612523));
#483=CARTESIAN_POINT('Ctrl Pts',(-0.169905294177804,0.105180010099945,-0.190334082162117));
#484=CARTESIAN_POINT('Ctrl Pts',(-0.139887168111888,0.145054993001373,-0.22583246889835));
#485=CARTESIAN_POINT('Ctrl Pts',(-0.116317222585463,0.163728291175093,-0.254827752829354));
#486=CARTESIAN_POINT('Ctrl Pts',(-0.0713978043041751,0.187241268956232,
-0.314089653770262));
#487=CARTESIAN_POINT('Ctrl Pts',(-0.050160029270327,0.193568291859021,-0.343703726311334));
#488=CARTESIAN_POINT('Ctrl Pts',(-0.0308076186686215,0.196600840872995,
-0.372245023801824));
#489=CARTESIAN_POINT('',(-0.199,0.,-0.462078369268718));
#490=CARTESIAN_POINT('',(-0.199,0.,0.512));
#491=CARTESIAN_POINT('',(-0.197598338085465,-0.0235774635162981,-0.461445688609628));
#492=CARTESIAN_POINT('Ctrl Pts',(-0.197598338085465,-0.023577463516298,
-0.461445688609627));
#493=CARTESIAN_POINT('Ctrl Pts',(-0.198543690365421,-0.015654641822797,
-0.461870586666045));
#494=CARTESIAN_POINT('Ctrl Pts',(-0.199,-0.00775752749561974,-0.462078369268718));
#495=CARTESIAN_POINT('Ctrl Pts',(-0.199,-1.36592399683213E-18,-0.462078369268718));
#496=CARTESIAN_POINT('',(0.0308076186686181,-0.196600840872996,-0.372245023801824));
#497=CARTESIAN_POINT('Ctrl Pts',(0.0308076186686181,-0.196600840872996,
-0.372245023801824));
#498=CARTESIAN_POINT('Ctrl Pts',(0.0205116694201989,-0.198214230097926,
-0.371130028891695));
#499=CARTESIAN_POINT('Ctrl Pts',(0.0101570313686035,-0.199,-0.370581843337104));
#500=CARTESIAN_POINT('Ctrl Pts',(-0.0253715926257888,-0.199,-0.370581843337104));
#501=CARTESIAN_POINT('Ctrl Pts',(-0.0519133087756914,-0.193854119026221,
-0.374226369439062));
#502=CARTESIAN_POINT('Ctrl Pts',(-0.0998900978648012,-0.174058541441377,
-0.387450933619114));
#503=CARTESIAN_POINT('Ctrl Pts',(-0.12137041146602,-0.159441666432334,-0.396915664755825));
#504=CARTESIAN_POINT('Ctrl Pts',(-0.156508493336173,-0.125498481427649,
-0.416903216083384));
#505=CARTESIAN_POINT('Ctrl Pts',(-0.17222379243256,-0.103270815163593,-0.429022215279506));
#506=CARTESIAN_POINT('Ctrl Pts',(-0.190339340992409,-0.061091791816645,
-0.44801345747866));
#507=CARTESIAN_POINT('Ctrl Pts',(-0.195353175855631,-0.0423937507322951,
-0.455359171410771));
#508=CARTESIAN_POINT('Ctrl Pts',(-0.197598338085465,-0.0235774635162981,
-0.461445688609628));
#509=CARTESIAN_POINT('Ctrl Pts',(0.199,-2.18547839493141E-17,-0.157362777090217));
#510=CARTESIAN_POINT('Ctrl Pts',(0.199,-0.0222799102533151,-0.157362777090217));
#511=CARTESIAN_POINT('Ctrl Pts',(0.194998337871809,-0.0453756966988586,
-0.161780840488059));
#512=CARTESIAN_POINT('Ctrl Pts',(0.180411019494801,-0.0868052943764346,
-0.178282457808514));
#513=CARTESIAN_POINT('Ctrl Pts',(0.16990533379645,-0.105179944278131,-0.190334036371344));
#514=CARTESIAN_POINT('Ctrl Pts',(0.139887249874269,-0.145054907467057,-0.225832370353591));
#515=CARTESIAN_POINT('Ctrl Pts',(0.116317336609973,-0.163728206666381,-0.254827610189946));
#516=CARTESIAN_POINT('Ctrl Pts',(0.0713978970320643,-0.187241241996842,
-0.314089524660821));
#517=CARTESIAN_POINT('Ctrl Pts',(0.0501600672147545,-0.193568285913078,
-0.343703670350176));
#518=CARTESIAN_POINT('Ctrl Pts',(0.0308076186686181,-0.196600840872996,
-0.372245023801824));
#519=CARTESIAN_POINT('',(0.064,-0.188427704969306,0.08));
#520=CARTESIAN_POINT('',(-0.064,-0.188427704969306,0.08));
#521=CARTESIAN_POINT('Ctrl Pts',(0.064,-0.188427704969306,0.08));
#522=CARTESIAN_POINT('Ctrl Pts',(0.064,-0.188427704969306,0.0881001645375835));
#523=CARTESIAN_POINT('Ctrl Pts',(0.0623693365838268,-0.189004823296802,
0.0966971074591392));
#524=CARTESIAN_POINT('Ctrl Pts',(0.0558209623348067,-0.19104129659068,0.112446083742954));
#525=CARTESIAN_POINT('Ctrl Pts',(0.0509059853096789,-0.192466251103969,
0.119603682682199));
#526=CARTESIAN_POINT('Ctrl Pts',(0.0396059363415554,-0.195105151407048,
0.130903731650323));
#527=CARTESIAN_POINT('Ctrl Pts',(0.0324474331188756,-0.196497222016059,
0.135820447429859));
#528=CARTESIAN_POINT('Ctrl Pts',(0.0166951278637185,-0.198457216748809,
0.142370113530279));
#529=CARTESIAN_POINT('Ctrl Pts',(0.008096934220329,-0.199,0.144));
#530=CARTESIAN_POINT('Ctrl Pts',(-0.00809693422032899,-0.199,0.144));
#531=CARTESIAN_POINT('Ctrl Pts',(-0.0166951278637185,-0.198457216748809,
0.142370113530279));
#532=CARTESIAN_POINT('Ctrl Pts',(-0.0324474331188756,-0.196497222016059,
0.135820447429859));
#533=CARTESIAN_POINT('Ctrl Pts',(-0.0396059363415554,-0.195105151407048,
0.130903731650323));
#534=CARTESIAN_POINT('Ctrl Pts',(-0.0509059853096789,-0.192466251103969,
0.119603682682199));
#535=CARTESIAN_POINT('Ctrl Pts',(-0.0558209623348067,-0.19104129659068,
0.112446083742954));
#536=CARTESIAN_POINT('Ctrl Pts',(-0.0623693365838268,-0.189004823296802,
0.0966971074591392));
#537=CARTESIAN_POINT('Ctrl Pts',(-0.064,-0.188427704969306,0.0881001645375836));
#538=CARTESIAN_POINT('Ctrl Pts',(-0.064,-0.188427704969306,0.08));
#539=CARTESIAN_POINT('Ctrl Pts',(-0.064,-0.188427704969306,0.08));
#540=CARTESIAN_POINT('Ctrl Pts',(-0.064,-0.188427704969306,0.0718998354624165));
#541=CARTESIAN_POINT('Ctrl Pts',(-0.0623693365838268,-0.189004823296802,
0.0633028925408608));
#542=CARTESIAN_POINT('Ctrl Pts',(-0.0558209623348067,-0.19104129659068,
0.0475539162570461));
#543=CARTESIAN_POINT('Ctrl Pts',(-0.0509059853096789,-0.192466251103969,
0.0403963173178008));
#544=CARTESIAN_POINT('Ctrl Pts',(-0.0396059363415554,-0.195105151407048,
0.0290962683496773));
#545=CARTESIAN_POINT('Ctrl Pts',(-0.0324474331188756,-0.196497222016059,
0.0241795525701414));
#546=CARTESIAN_POINT('Ctrl Pts',(-0.0166951278637185,-0.198457216748809,
0.0176298864697208));
#547=CARTESIAN_POINT('Ctrl Pts',(-0.008096934220329,-0.199,0.016));
#548=CARTESIAN_POINT('Ctrl Pts',(0.00809693422032898,-0.199,0.016));
#549=CARTESIAN_POINT('Ctrl Pts',(0.0166951278637185,-0.198457216748809,
0.0176298864697208));
#550=CARTESIAN_POINT('Ctrl Pts',(0.0324474331188755,-0.196497222016059,
0.0241795525701414));
#551=CARTESIAN_POINT('Ctrl Pts',(0.0396059363415554,-0.195105151407048,
0.0290962683496773));
#552=CARTESIAN_POINT('Ctrl Pts',(0.0509059853096788,-0.192466251103969,
0.0403963173178008));
#553=CARTESIAN_POINT('Ctrl Pts',(0.0558209623348067,-0.19104129659068,0.047553916257046));
#554=CARTESIAN_POINT('Ctrl Pts',(0.0623693365838268,-0.189004823296802,
0.0633028925408608));
#555=CARTESIAN_POINT('Ctrl Pts',(0.064,-0.188427704969306,0.0718998354624165));
#556=CARTESIAN_POINT('Ctrl Pts',(0.064,-0.188427704969306,0.08));
#557=CARTESIAN_POINT('',(0.064,0.188427704969306,0.08));
#558=CARTESIAN_POINT('',(-0.064,0.188427704969306,0.08));
#559=CARTESIAN_POINT('Ctrl Pts',(0.064,0.188427704969306,0.08));
#560=CARTESIAN_POINT('Ctrl Pts',(0.064,0.188427704969306,0.0718998354624165));
#561=CARTESIAN_POINT('Ctrl Pts',(0.0623693365838268,0.189004823296802,0.0633028925408608));
#562=CARTESIAN_POINT('Ctrl Pts',(0.0558209623348067,0.19104129659068,0.047553916257046));
#563=CARTESIAN_POINT('Ctrl Pts',(0.0509059853096788,0.192466251103969,0.0403963173178008));
#564=CARTESIAN_POINT('Ctrl Pts',(0.0396059363415554,0.195105151407048,0.0290962683496773));
#565=CARTESIAN_POINT('Ctrl Pts',(0.0324474331188755,0.196497222016059,0.0241795525701414));
#566=CARTESIAN_POINT('Ctrl Pts',(0.0166951278637185,0.198457216748809,0.0176298864697208));
#567=CARTESIAN_POINT('Ctrl Pts',(0.00809693422032898,0.199,0.016));
#568=CARTESIAN_POINT('Ctrl Pts',(-0.00809693422032901,0.199,0.016));
#569=CARTESIAN_POINT('Ctrl Pts',(-0.0166951278637185,0.198457216748809,
0.0176298864697208));
#570=CARTESIAN_POINT('Ctrl Pts',(-0.0324474331188756,0.196497222016059,
0.0241795525701414));
#571=CARTESIAN_POINT('Ctrl Pts',(-0.0396059363415554,0.195105151407048,
0.0290962683496773));
#572=CARTESIAN_POINT('Ctrl Pts',(-0.0509059853096789,0.192466251103969,
0.0403963173178008));
#573=CARTESIAN_POINT('Ctrl Pts',(-0.0558209623348067,0.19104129659068,0.047553916257046));
#574=CARTESIAN_POINT('Ctrl Pts',(-0.0623693365838268,0.189004823296802,
0.0633028925408608));
#575=CARTESIAN_POINT('Ctrl Pts',(-0.064,0.188427704969306,0.0718998354624165));
#576=CARTESIAN_POINT('Ctrl Pts',(-0.064,0.188427704969306,0.08));
#577=CARTESIAN_POINT('Ctrl Pts',(-0.064,0.188427704969306,0.08));
#578=CARTESIAN_POINT('Ctrl Pts',(-0.064,0.188427704969306,0.0881001645375835));
#579=CARTESIAN_POINT('Ctrl Pts',(-0.0623693365838268,0.189004823296802,
0.0966971074591392));
#580=CARTESIAN_POINT('Ctrl Pts',(-0.0558209623348067,0.19104129659068,0.112446083742954));
#581=CARTESIAN_POINT('Ctrl Pts',(-0.0509059853096789,0.192466251103969,
0.119603682682199));
#582=CARTESIAN_POINT('Ctrl Pts',(-0.0396059363415554,0.195105151407048,
0.130903731650323));
#583=CARTESIAN_POINT('Ctrl Pts',(-0.0324474331188755,0.196497222016059,
0.135820447429859));
#584=CARTESIAN_POINT('Ctrl Pts',(-0.0166951278637185,0.198457216748809,
0.142370113530279));
#585=CARTESIAN_POINT('Ctrl Pts',(-0.00809693422032898,0.199,0.144));
#586=CARTESIAN_POINT('Ctrl Pts',(0.008096934220329,0.199,0.144));
#587=CARTESIAN_POINT('Ctrl Pts',(0.0166951278637185,0.198457216748809,0.142370113530279));
#588=CARTESIAN_POINT('Ctrl Pts',(0.0324474331188756,0.196497222016059,0.135820447429859));
#589=CARTESIAN_POINT('Ctrl Pts',(0.0396059363415554,0.195105151407048,0.130903731650323));
#590=CARTESIAN_POINT('Ctrl Pts',(0.0509059853096789,0.192466251103969,0.119603682682199));
#591=CARTESIAN_POINT('Ctrl Pts',(0.0558209623348067,0.19104129659068,0.112446083742954));
#592=CARTESIAN_POINT('Ctrl Pts',(0.0623693365838268,0.189004823296802,0.0966971074591392));
#593=CARTESIAN_POINT('Ctrl Pts',(0.064,0.188427704969306,0.0881001645375835));
#594=CARTESIAN_POINT('Ctrl Pts',(0.064,0.188427704969306,0.08));
#595=CARTESIAN_POINT('Origin',(-2.04175062090707E-15,0.,0.152435218076039));
#596=CARTESIAN_POINT('',(0.113749999999996,-1.39303573403009E-17,0.201726497308104));
#597=CARTESIAN_POINT('',(0.199124999999996,-2.43857793880214E-17,0.152435218076039));
#598=CARTESIAN_POINT('Origin',(-2.04246354614027E-15,0.,0.201726497308104));
#599=CARTESIAN_POINT('Origin',(0.,-0.315393334245321,-0.838397462379364));
#600=CARTESIAN_POINT('',(-1.87951141964101E-15,-0.0179999999999999,-0.419080647167137));
#601=CARTESIAN_POINT('Origin',(0.,-0.0814565038371255,-0.901080647167137));
#602=CARTESIAN_POINT('Ctrl Pts',(0.0308076186686181,-0.196600840872996,
-0.372245023801824));
#603=CARTESIAN_POINT('Ctrl Pts',(0.0282093193136175,-0.181656572185713,
-0.376077044338525));
#604=CARTESIAN_POINT('Ctrl Pts',(0.0256146115727174,-0.166707714738297,
-0.379932427674014));
#605=CARTESIAN_POINT('Ctrl Pts',(0.0152806296849998,-0.107056636680685,
-0.395404223047505));
#606=CARTESIAN_POINT('Ctrl Pts',(0.00758703287496346,-0.0623892225751412,
-0.407186590825482));
#607=CARTESIAN_POINT('Ctrl Pts',(-1.94780761948262E-15,-0.018,-0.419080647167137));
#608=CARTESIAN_POINT('Origin',(-1.9723942514256E-15,0.,-0.901080647167137));
#609=CARTESIAN_POINT('',(-1.87951141964101E-15,0.,-0.419080647167137));
#610=CARTESIAN_POINT('Origin',(-1.9723942514256E-15,0.,-0.901080647167137));
#611=CARTESIAN_POINT('',(-1.87951141964101E-15,0.,-0.419080647167137));
#612=CARTESIAN_POINT('Origin',(-1.68616054079648,0.,-1.49465613529474));
#613=CARTESIAN_POINT('Origin',(-1.68616054079648,0.,-1.49465613529474));
#614=CARTESIAN_POINT('Origin',(-1.68616054079648,0.,-1.49465613529474));
#615=CARTESIAN_POINT('',(-1.59539922829993E-15,0.0179999999999989,-0.419080647167137));
#616=CARTESIAN_POINT('Ctrl Pts',(-0.0308076186686215,0.196600840872995,
-0.372245023801824));
#617=CARTESIAN_POINT('Ctrl Pts',(-0.0282863041762282,0.182099355065769,
-0.375963505621765));
#618=CARTESIAN_POINT('Ctrl Pts',(-0.0257684228354834,0.167593843520653,
-0.379703910019732));
#619=CARTESIAN_POINT('Ctrl Pts',(-0.0154327873274897,0.107939983686591,
-0.395171238862618));
#620=CARTESIAN_POINT('Ctrl Pts',(-0.00766194492604631,0.0628275082348597,
-0.407069152536907));
#621=CARTESIAN_POINT('Ctrl Pts',(-1.70330722404967E-15,0.0179999999999988,
-0.419080647167137));
#622=CARTESIAN_POINT('',(-1.59539922829993E-15,0.,-0.419080647167137));
#623=CARTESIAN_POINT('Origin',(0.,0.,0.08));
#624=CARTESIAN_POINT('',(-0.064,0.,0.08));
#625=CARTESIAN_POINT('Origin',(0.,0.28797374117235,-0.845744520200057));
#626=CARTESIAN_POINT('Origin',(0.,0.081456503837127,-0.901080647167137));
#627=CARTESIAN_POINT('Origin',(-1.9723942514256E-15,0.,-0.901080647167137));
#628=CARTESIAN_POINT('Origin',(-1.9723942514256E-15,0.,-0.901080647167137));
#629=CARTESIAN_POINT('Origin',(1.68616054079647,0.,-1.49465613529475));
#630=CARTESIAN_POINT('Origin',(1.68616054079647,0.,-1.49465613529475));
#631=CARTESIAN_POINT('Origin',(1.68616054079647,0.,-1.49465613529475));
#632=CARTESIAN_POINT('Origin',(-2.04302223817695E-15,0.,0.240354173679499));
#633=CARTESIAN_POINT('',(0.123399999999998,-1.51121415014783E-17,0.240354173679499));
#634=CARTESIAN_POINT('',(-0.123400000000002,-1.51121415014783E-17,0.240354173679499));
#635=CARTESIAN_POINT('Origin',(-2.04302223817695E-15,0.,0.240354173679499));
#636=CARTESIAN_POINT('',(-0.119470000000002,-1.46308553094134E-17,0.23547000537773));
#637=CARTESIAN_POINT('Origin',(-0.118400000000002,-1.44998181019047E-17,
0.240354173679499));
#638=CARTESIAN_POINT('',(0.119469999999998,1.46308553094134E-17,0.23547000537773));
#639=CARTESIAN_POINT('Origin',(-2.04295159592786E-15,0.,0.23547000537773));
#640=CARTESIAN_POINT('Origin',(-2.04295159592786E-15,0.,0.23547000537773));
#641=CARTESIAN_POINT('Origin',(-2.04302223817695E-15,0.,0.240354173679499));
#642=CARTESIAN_POINT('Origin',(-2.04477190521247E-15,0.,0.361325241043632));
#643=CARTESIAN_POINT('',(0.123399999999998,-1.51121415014783E-17,0.483599999999996));
#644=CARTESIAN_POINT('',(0.123399999999998,-1.51121415014783E-17,0.361325241043632));
#645=CARTESIAN_POINT('Origin',(-2.04654042821291E-15,0.,0.483599999999996));
#646=CARTESIAN_POINT('Origin',(-2.04271406159556E-15,0.,0.219047005383793));
#647=CARTESIAN_POINT('',(0.103810685573957,-1.27131423805441E-17,0.217490168777225));
#648=CARTESIAN_POINT('Origin',(-2.04269154426353E-15,0.,0.217490168777225));
#649=CARTESIAN_POINT('Origin',(0.123749999999996,-1.51550041394482E-17,
0.219047005383793));
#650=CARTESIAN_POINT('Origin',(-0.094999999999998,0.,0.512));
#651=CARTESIAN_POINT('',(0.0949999999999939,-1.16341445918994E-17,0.512));
#652=CARTESIAN_POINT('Origin',(-2.04695119208307E-15,0.,0.512));
#653=CARTESIAN_POINT('Origin',(-2.04673423933475E-15,0.,0.497));
#654=CARTESIAN_POINT('',(0.109999999999994,-1.34711147906204E-17,0.497));
#655=CARTESIAN_POINT('Origin',(-2.0426690269315E-15,0.,0.215933332170656));
#656=CARTESIAN_POINT('Origin',(0.123749999999996,-1.51550041394482E-17,
0.215933332170656));
#657=UNCERTAINTY_MEASURE_WITH_UNIT(LENGTH_MEASURE(0.000393700787401575),
#662,'DISTANCE_ACCURACY_VALUE',
'Maximum model space distance between geometric entities at asserted c
onnectivities');
#658=UNCERTAINTY_MEASURE_WITH_UNIT(LENGTH_MEASURE(0.000393700787401575),
#662,'DISTANCE_ACCURACY_VALUE',
'Maximum model space distance between geometric entities at asserted c
onnectivities');
#659=(
GEOMETRIC_REPRESENTATION_CONTEXT(3)
GLOBAL_UNCERTAINTY_ASSIGNED_CONTEXT((#657))
GLOBAL_UNIT_ASSIGNED_CONTEXT((#662,#666,#667))
REPRESENTATION_CONTEXT('','3D')
);
#660=(
GEOMETRIC_REPRESENTATION_CONTEXT(3)
GLOBAL_UNCERTAINTY_ASSIGNED_CONTEXT((#658))
GLOBAL_UNIT_ASSIGNED_CONTEXT((#662,#666,#667))
REPRESENTATION_CONTEXT('','3D')
);
#661=DIMENSIONAL_EXPONENTS(1.,0.,0.,0.,0.,0.,0.);
#662=(
CONVERSION_BASED_UNIT('inch',#665)
LENGTH_UNIT()
NAMED_UNIT(#661)
);
#663=(
LENGTH_UNIT()
NAMED_UNIT(*)
SI_UNIT(.MILLI.,.METRE.)
);
#664=(
LENGTH_UNIT()
NAMED_UNIT(*)
SI_UNIT($,.METRE.)
);
#665=LENGTH_MEASURE_WITH_UNIT(LENGTH_MEASURE(25.4),#663);
#666=(
NAMED_UNIT(*)
PLANE_ANGLE_UNIT()
SI_UNIT($,.RADIAN.)
);
#667=(
NAMED_UNIT(*)
SI_UNIT($,.STERADIAN.)
SOLID_ANGLE_UNIT()
);
#668=SHAPE_DEFINITION_REPRESENTATION(#669,#670);
#669=PRODUCT_DEFINITION_SHAPE('',$,#672);
#670=SHAPE_REPRESENTATION('',(#312),#659);
#671=PRODUCT_DEFINITION_CONTEXT('part definition',#676,'design');
#672=PRODUCT_DEFINITION(
'2633-M42-398 CORRECT DIMENSIONS - MARK - 9.03.2025',
'2633-M42-398 CORRECT DIMENSIONS - MARK - 9.03.2025 v3',#673,#671);
#673=PRODUCT_DEFINITION_FORMATION('',$,#678);
#674=PRODUCT_RELATED_PRODUCT_CATEGORY(
'2633-M42-398 CORRECT DIMENSIONS - MARK - 9.03.2025 v3',
'2633-M42-398 CORRECT DIMENSIONS - MARK - 9.03.2025 v3',(#678));
#675=APPLICATION_PROTOCOL_DEFINITION('international standard',
'automotive_design',2009,#676);
#676=APPLICATION_CONTEXT(
'Core Data for Automotive Mechanical Design Process');
#677=PRODUCT_CONTEXT('part definition',#676,'mechanical');
#678=PRODUCT('2633-M42-398 CORRECT DIMENSIONS - MARK - 9.03.2025',
'2633-M42-398 CORRECT DIMENSIONS - MARK - 9.03.2025 v3',$,(#677));
#679=PRESENTATION_STYLE_ASSIGNMENT((#680));
#680=SURFACE_STYLE_USAGE(.BOTH.,#681);
#681=SURFACE_SIDE_STYLE('',(#682));
#682=SURFACE_STYLE_FILL_AREA(#683);
#683=FILL_AREA_STYLE('Steel - Satin',(#684));
#684=FILL_AREA_STYLE_COLOUR('Steel - Satin',#685);
#685=COLOUR_RGB('Steel - Satin',0.627450980392157,0.627450980392157,0.627450980392157);
ENDSEC;
END-ISO-10303-21;
