ISO-10303-21;
HEADER;
/* Generated by software containing ST-Developer
 * from STEP Tools, Inc. (www.steptools.com) 
 */

FILE_DESCRIPTION(
/* description */ (''),
/* implementation_level */ '2;1');

FILE_NAME(
/* name */ '3-16 HI-PRO KNIFE.step',
/* time_stamp */ '2026-01-07T10:37:09-06:00',
/* author */ (''),
/* organization */ (''),
/* preprocessor_version */ 'ST-DEVELOPER v20.1',
/* originating_system */ 'Autodesk Translation Framework v14.24.0.0',
/* authorisation */ '');

FILE_SCHEMA (('AUTOMOTIVE_DESIGN { 1 0 10303 214 3 1 1 }'));
ENDSEC;

DATA;
#10=MECHANICAL_DESIGN_GEOMETRIC_PRESENTATION_REPRESENTATION('',(#13),#555);
#11=SHAPE_REPRESENTATION_RELATIONSHIP('SRR','None',#565,#12);
#12=ADVANCED_BREP_SHAPE_REPRESENTATION('',(#14),#554);
#13=STYLED_ITEM('',(#574),#14);
#14=MANIFOLD_SOLID_BREP('Body1',#323);
#15=FACE_BOUND('',#53,.T.);
#16=FACE_BOUND('',#56,.T.);
#17=FACE_BOUND('',#58,.T.);
#18=FACE_BOUND('',#59,.T.);
#19=FACE_BOUND('',#61,.T.);
#20=FACE_BOUND('',#64,.T.);
#21=PLANE('',#340);
#22=PLANE('',#341);
#23=PLANE('',#346);
#24=PLANE('',#348);
#25=PLANE('',#351);
#26=PLANE('',#356);
#27=PLANE('',#360);
#28=PLANE('',#361);
#29=PLANE('',#363);
#30=PLANE('',#366);
#31=PLANE('',#367);
#32=FACE_OUTER_BOUND('',#50,.T.);
#33=FACE_OUTER_BOUND('',#51,.T.);
#34=FACE_OUTER_BOUND('',#52,.T.);
#35=FACE_OUTER_BOUND('',#54,.T.);
#36=FACE_OUTER_BOUND('',#55,.T.);
#37=FACE_OUTER_BOUND('',#57,.T.);
#38=FACE_OUTER_BOUND('',#60,.T.);
#39=FACE_OUTER_BOUND('',#62,.T.);
#40=FACE_OUTER_BOUND('',#63,.T.);
#41=FACE_OUTER_BOUND('',#65,.T.);
#42=FACE_OUTER_BOUND('',#66,.T.);
#43=FACE_OUTER_BOUND('',#67,.T.);
#44=FACE_OUTER_BOUND('',#68,.T.);
#45=FACE_OUTER_BOUND('',#69,.T.);
#46=FACE_OUTER_BOUND('',#70,.T.);
#47=FACE_OUTER_BOUND('',#71,.T.);
#48=FACE_OUTER_BOUND('',#72,.T.);
#49=FACE_OUTER_BOUND('',#73,.T.);
#50=EDGE_LOOP('',(#214,#215,#216,#217));
#51=EDGE_LOOP('',(#218,#219,#220,#221,#222,#223,#224,#225));
#52=EDGE_LOOP('',(#226,#227,#228,#229,#230,#231));
#53=EDGE_LOOP('',(#232));
#54=EDGE_LOOP('',(#233,#234,#235,#236));
#55=EDGE_LOOP('',(#237,#238,#239,#240));
#56=EDGE_LOOP('',(#241));
#57=EDGE_LOOP('',(#242,#243,#244,#245));
#58=EDGE_LOOP('',(#246));
#59=EDGE_LOOP('',(#247));
#60=EDGE_LOOP('',(#248,#249,#250,#251,#252,#253,#254,#255,#256,#257));
#61=EDGE_LOOP('',(#258));
#62=EDGE_LOOP('',(#259,#260,#261,#262));
#63=EDGE_LOOP('',(#263));
#64=EDGE_LOOP('',(#264));
#65=EDGE_LOOP('',(#265,#266,#267,#268));
#66=EDGE_LOOP('',(#269));
#67=EDGE_LOOP('',(#270,#271,#272,#273));
#68=EDGE_LOOP('',(#274,#275,#276,#277));
#69=EDGE_LOOP('',(#278,#279,#280,#281));
#70=EDGE_LOOP('',(#282,#283,#284,#285));
#71=EDGE_LOOP('',(#286,#287,#288,#289));
#72=EDGE_LOOP('',(#290,#291,#292,#293));
#73=EDGE_LOOP('',(#294,#295,#296,#297));
#74=LINE('',#469,#102);
#75=LINE('',#472,#103);
#76=LINE('',#475,#104);
#77=LINE('',#477,#105);
#78=LINE('',#479,#106);
#79=LINE('',#481,#107);
#80=LINE('',#483,#108);
#81=LINE('',#485,#109);
#82=LINE('',#486,#110);
#83=LINE('',#489,#111);
#84=LINE('',#491,#112);
#85=LINE('',#493,#113);
#86=LINE('',#500,#114);
#87=LINE('',#503,#115);
#88=LINE('',#504,#116);
#89=LINE('',#509,#117);
#90=LINE('',#510,#118);
#91=LINE('',#517,#119);
#92=LINE('',#520,#120);
#93=LINE('',#521,#121);
#94=LINE('',#526,#122);
#95=LINE('',#533,#123);
#96=LINE('',#538,#124);
#97=LINE('',#541,#125);
#98=LINE('',#542,#126);
#99=LINE('',#545,#127);
#100=LINE('',#548,#128);
#101=LINE('',#551,#129);
#102=VECTOR('',#375,0.393700787401575);
#103=VECTOR('',#378,0.393700787401575);
#104=VECTOR('',#381,0.393700787401575);
#105=VECTOR('',#382,0.393700787401575);
#106=VECTOR('',#383,0.393700787401575);
#107=VECTOR('',#384,0.393700787401575);
#108=VECTOR('',#385,0.393700787401575);
#109=VECTOR('',#386,0.393700787401575);
#110=VECTOR('',#387,0.393700787401575);
#111=VECTOR('',#390,0.393700787401575);
#112=VECTOR('',#391,0.393700787401575);
#113=VECTOR('',#392,0.393700787401575);
#114=VECTOR('',#401,0.393700787401575);
#115=VECTOR('',#404,0.393700787401575);
#116=VECTOR('',#405,0.393700787401575);
#117=VECTOR('',#410,0.393700787401575);
#118=VECTOR('',#411,0.393700787401575);
#119=VECTOR('',#418,0.393700787401575);
#120=VECTOR('',#421,0.393700787401575);
#121=VECTOR('',#422,0.393700787401575);
#122=VECTOR('',#427,0.0625);
#123=VECTOR('',#436,0.082);
#124=VECTOR('',#445,0.046875);
#125=VECTOR('',#448,0.393700787401575);
#126=VECTOR('',#449,0.393700787401575);
#127=VECTOR('',#452,0.393700787401575);
#128=VECTOR('',#457,0.393700787401575);
#129=VECTOR('',#462,0.156);
#130=CIRCLE('',#338,0.005);
#131=CIRCLE('',#339,0.005);
#132=CIRCLE('',#342,0.005);
#133=CIRCLE('',#343,0.156);
#134=CIRCLE('',#345,0.005);
#135=CIRCLE('',#347,0.046875);
#136=CIRCLE('',#349,0.0625);
#137=CIRCLE('',#350,0.082);
#138=CIRCLE('',#352,0.2625);
#139=CIRCLE('',#353,0.156);
#140=CIRCLE('',#355,0.0625);
#141=CIRCLE('',#357,0.046875);
#142=CIRCLE('',#359,0.082);
#143=CIRCLE('',#365,0.2625);
#144=VERTEX_POINT('',#465);
#145=VERTEX_POINT('',#466);
#146=VERTEX_POINT('',#468);
#147=VERTEX_POINT('',#470);
#148=VERTEX_POINT('',#474);
#149=VERTEX_POINT('',#476);
#150=VERTEX_POINT('',#478);
#151=VERTEX_POINT('',#480);
#152=VERTEX_POINT('',#482);
#153=VERTEX_POINT('',#484);
#154=VERTEX_POINT('',#488);
#155=VERTEX_POINT('',#490);
#156=VERTEX_POINT('',#492);
#157=VERTEX_POINT('',#495);
#158=VERTEX_POINT('',#498);
#159=VERTEX_POINT('',#502);
#160=VERTEX_POINT('',#505);
#161=VERTEX_POINT('',#508);
#162=VERTEX_POINT('',#511);
#163=VERTEX_POINT('',#513);
#164=VERTEX_POINT('',#516);
#165=VERTEX_POINT('',#518);
#166=VERTEX_POINT('',#522);
#167=VERTEX_POINT('',#525);
#168=VERTEX_POINT('',#529);
#169=VERTEX_POINT('',#532);
#170=VERTEX_POINT('',#540);
#171=VERTEX_POINT('',#544);
#172=EDGE_CURVE('',#144,#145,#130,.T.);
#173=EDGE_CURVE('',#145,#146,#74,.T.);
#174=EDGE_CURVE('',#146,#147,#131,.T.);
#175=EDGE_CURVE('',#147,#144,#75,.T.);
#176=EDGE_CURVE('',#145,#148,#76,.F.);
#177=EDGE_CURVE('',#149,#148,#77,.T.);
#178=EDGE_CURVE('',#150,#149,#78,.F.);
#179=EDGE_CURVE('',#150,#151,#79,.F.);
#180=EDGE_CURVE('',#151,#152,#80,.T.);
#181=EDGE_CURVE('',#152,#153,#81,.F.);
#182=EDGE_CURVE('',#146,#153,#82,.F.);
#183=EDGE_CURVE('',#154,#144,#83,.F.);
#184=EDGE_CURVE('',#155,#154,#84,.F.);
#185=EDGE_CURVE('',#156,#155,#85,.F.);
#186=EDGE_CURVE('',#148,#156,#132,.T.);
#187=EDGE_CURVE('',#157,#157,#133,.T.);
#188=EDGE_CURVE('',#158,#149,#134,.T.);
#189=EDGE_CURVE('',#156,#158,#86,.T.);
#190=EDGE_CURVE('',#155,#159,#87,.F.);
#191=EDGE_CURVE('',#158,#159,#88,.F.);
#192=EDGE_CURVE('',#160,#160,#135,.F.);
#193=EDGE_CURVE('',#161,#147,#89,.F.);
#194=EDGE_CURVE('',#161,#154,#90,.F.);
#195=EDGE_CURVE('',#162,#162,#136,.F.);
#196=EDGE_CURVE('',#163,#163,#137,.F.);
#197=EDGE_CURVE('',#153,#164,#91,.F.);
#198=EDGE_CURVE('',#164,#165,#138,.F.);
#199=EDGE_CURVE('',#165,#150,#92,.F.);
#200=EDGE_CURVE('',#159,#161,#93,.F.);
#201=EDGE_CURVE('',#166,#166,#139,.T.);
#202=EDGE_CURVE('',#162,#167,#94,.T.);
#203=EDGE_CURVE('',#167,#167,#140,.T.);
#204=EDGE_CURVE('',#168,#168,#141,.T.);
#205=EDGE_CURVE('',#163,#169,#95,.T.);
#206=EDGE_CURVE('',#169,#169,#142,.T.);
#207=EDGE_CURVE('',#168,#160,#96,.T.);
#208=EDGE_CURVE('',#165,#170,#97,.T.);
#209=EDGE_CURVE('',#170,#151,#98,.T.);
#210=EDGE_CURVE('',#164,#171,#99,.T.);
#211=EDGE_CURVE('',#171,#170,#143,.T.);
#212=EDGE_CURVE('',#152,#171,#100,.T.);
#213=EDGE_CURVE('',#166,#157,#101,.T.);
#214=ORIENTED_EDGE('',*,*,#172,.T.);
#215=ORIENTED_EDGE('',*,*,#173,.T.);
#216=ORIENTED_EDGE('',*,*,#174,.T.);
#217=ORIENTED_EDGE('',*,*,#175,.T.);
#218=ORIENTED_EDGE('',*,*,#173,.F.);
#219=ORIENTED_EDGE('',*,*,#176,.T.);
#220=ORIENTED_EDGE('',*,*,#177,.F.);
#221=ORIENTED_EDGE('',*,*,#178,.F.);
#222=ORIENTED_EDGE('',*,*,#179,.T.);
#223=ORIENTED_EDGE('',*,*,#180,.T.);
#224=ORIENTED_EDGE('',*,*,#181,.T.);
#225=ORIENTED_EDGE('',*,*,#182,.F.);
#226=ORIENTED_EDGE('',*,*,#172,.F.);
#227=ORIENTED_EDGE('',*,*,#183,.F.);
#228=ORIENTED_EDGE('',*,*,#184,.F.);
#229=ORIENTED_EDGE('',*,*,#185,.F.);
#230=ORIENTED_EDGE('',*,*,#186,.F.);
#231=ORIENTED_EDGE('',*,*,#176,.F.);
#232=ORIENTED_EDGE('',*,*,#187,.F.);
#233=ORIENTED_EDGE('',*,*,#188,.T.);
#234=ORIENTED_EDGE('',*,*,#177,.T.);
#235=ORIENTED_EDGE('',*,*,#186,.T.);
#236=ORIENTED_EDGE('',*,*,#189,.T.);
#237=ORIENTED_EDGE('',*,*,#189,.F.);
#238=ORIENTED_EDGE('',*,*,#185,.T.);
#239=ORIENTED_EDGE('',*,*,#190,.T.);
#240=ORIENTED_EDGE('',*,*,#191,.F.);
#241=ORIENTED_EDGE('',*,*,#192,.T.);
#242=ORIENTED_EDGE('',*,*,#175,.F.);
#243=ORIENTED_EDGE('',*,*,#193,.F.);
#244=ORIENTED_EDGE('',*,*,#194,.T.);
#245=ORIENTED_EDGE('',*,*,#183,.T.);
#246=ORIENTED_EDGE('',*,*,#195,.T.);
#247=ORIENTED_EDGE('',*,*,#196,.T.);
#248=ORIENTED_EDGE('',*,*,#174,.F.);
#249=ORIENTED_EDGE('',*,*,#182,.T.);
#250=ORIENTED_EDGE('',*,*,#197,.T.);
#251=ORIENTED_EDGE('',*,*,#198,.T.);
#252=ORIENTED_EDGE('',*,*,#199,.T.);
#253=ORIENTED_EDGE('',*,*,#178,.T.);
#254=ORIENTED_EDGE('',*,*,#188,.F.);
#255=ORIENTED_EDGE('',*,*,#191,.T.);
#256=ORIENTED_EDGE('',*,*,#200,.T.);
#257=ORIENTED_EDGE('',*,*,#193,.T.);
#258=ORIENTED_EDGE('',*,*,#201,.T.);
#259=ORIENTED_EDGE('',*,*,#195,.F.);
#260=ORIENTED_EDGE('',*,*,#202,.T.);
#261=ORIENTED_EDGE('',*,*,#203,.T.);
#262=ORIENTED_EDGE('',*,*,#202,.F.);
#263=ORIENTED_EDGE('',*,*,#203,.F.);
#264=ORIENTED_EDGE('',*,*,#204,.F.);
#265=ORIENTED_EDGE('',*,*,#196,.F.);
#266=ORIENTED_EDGE('',*,*,#205,.T.);
#267=ORIENTED_EDGE('',*,*,#206,.T.);
#268=ORIENTED_EDGE('',*,*,#205,.F.);
#269=ORIENTED_EDGE('',*,*,#206,.F.);
#270=ORIENTED_EDGE('',*,*,#190,.F.);
#271=ORIENTED_EDGE('',*,*,#184,.T.);
#272=ORIENTED_EDGE('',*,*,#194,.F.);
#273=ORIENTED_EDGE('',*,*,#200,.F.);
#274=ORIENTED_EDGE('',*,*,#204,.T.);
#275=ORIENTED_EDGE('',*,*,#207,.T.);
#276=ORIENTED_EDGE('',*,*,#192,.F.);
#277=ORIENTED_EDGE('',*,*,#207,.F.);
#278=ORIENTED_EDGE('',*,*,#199,.F.);
#279=ORIENTED_EDGE('',*,*,#208,.T.);
#280=ORIENTED_EDGE('',*,*,#209,.T.);
#281=ORIENTED_EDGE('',*,*,#179,.F.);
#282=ORIENTED_EDGE('',*,*,#198,.F.);
#283=ORIENTED_EDGE('',*,*,#210,.T.);
#284=ORIENTED_EDGE('',*,*,#211,.T.);
#285=ORIENTED_EDGE('',*,*,#208,.F.);
#286=ORIENTED_EDGE('',*,*,#197,.F.);
#287=ORIENTED_EDGE('',*,*,#181,.F.);
#288=ORIENTED_EDGE('',*,*,#212,.T.);
#289=ORIENTED_EDGE('',*,*,#210,.F.);
#290=ORIENTED_EDGE('',*,*,#212,.F.);
#291=ORIENTED_EDGE('',*,*,#180,.F.);
#292=ORIENTED_EDGE('',*,*,#209,.F.);
#293=ORIENTED_EDGE('',*,*,#211,.F.);
#294=ORIENTED_EDGE('',*,*,#201,.F.);
#295=ORIENTED_EDGE('',*,*,#213,.T.);
#296=ORIENTED_EDGE('',*,*,#187,.T.);
#297=ORIENTED_EDGE('',*,*,#213,.F.);
#298=CYLINDRICAL_SURFACE('',#337,0.005);
#299=CYLINDRICAL_SURFACE('',#344,0.005);
#300=CYLINDRICAL_SURFACE('',#354,0.0625);
#301=CYLINDRICAL_SURFACE('',#358,0.082);
#302=CYLINDRICAL_SURFACE('',#362,0.046875);
#303=CYLINDRICAL_SURFACE('',#364,0.2625);
#304=CYLINDRICAL_SURFACE('',#368,0.156);
#305=ADVANCED_FACE('',(#32),#298,.T.);
#306=ADVANCED_FACE('',(#33),#21,.T.);
#307=ADVANCED_FACE('',(#34,#15),#22,.F.);
#308=ADVANCED_FACE('',(#35),#299,.T.);
#309=ADVANCED_FACE('',(#36,#16),#23,.T.);
#310=ADVANCED_FACE('',(#37,#17,#18),#24,.T.);
#311=ADVANCED_FACE('',(#38,#19),#25,.T.);
#312=ADVANCED_FACE('',(#39),#300,.F.);
#313=ADVANCED_FACE('',(#40,#20),#26,.T.);
#314=ADVANCED_FACE('',(#41),#301,.F.);
#315=ADVANCED_FACE('',(#42),#27,.T.);
#316=ADVANCED_FACE('',(#43),#28,.F.);
#317=ADVANCED_FACE('',(#44),#302,.F.);
#318=ADVANCED_FACE('',(#45),#29,.F.);
#319=ADVANCED_FACE('',(#46),#303,.F.);
#320=ADVANCED_FACE('',(#47),#30,.F.);
#321=ADVANCED_FACE('',(#48),#31,.T.);
#322=ADVANCED_FACE('',(#49),#304,.F.);
#323=CLOSED_SHELL('',(#305,#306,#307,#308,#309,#310,#311,#312,#313,#314,
#315,#316,#317,#318,#319,#320,#321,#322));
#324=DERIVED_UNIT_ELEMENT(#326,1.);
#325=DERIVED_UNIT_ELEMENT(#559,-3.);
#326=(
MASS_UNIT()
NAMED_UNIT(*)
SI_UNIT(.KILO.,.GRAM.)
);
#327=DERIVED_UNIT((#324,#325));
#328=MEASURE_REPRESENTATION_ITEM('density measure',
POSITIVE_RATIO_MEASURE(1420.),#327);
#329=PROPERTY_DEFINITION_REPRESENTATION(#334,#331);
#330=PROPERTY_DEFINITION_REPRESENTATION(#335,#332);
#331=REPRESENTATION('material name',(#333),#554);
#332=REPRESENTATION('density',(#328),#554);
#333=DESCRIPTIVE_REPRESENTATION_ITEM('Polymide (Kapton)',
'Polymide (Kapton)');
#334=PROPERTY_DEFINITION('material property','material name',#567);
#335=PROPERTY_DEFINITION('material property','density of part',#567);
#336=AXIS2_PLACEMENT_3D('',#463,#369,#370);
#337=AXIS2_PLACEMENT_3D('',#464,#371,#372);
#338=AXIS2_PLACEMENT_3D('',#467,#373,#374);
#339=AXIS2_PLACEMENT_3D('',#471,#376,#377);
#340=AXIS2_PLACEMENT_3D('',#473,#379,#380);
#341=AXIS2_PLACEMENT_3D('',#487,#388,#389);
#342=AXIS2_PLACEMENT_3D('',#494,#393,#394);
#343=AXIS2_PLACEMENT_3D('',#496,#395,#396);
#344=AXIS2_PLACEMENT_3D('',#497,#397,#398);
#345=AXIS2_PLACEMENT_3D('',#499,#399,#400);
#346=AXIS2_PLACEMENT_3D('',#501,#402,#403);
#347=AXIS2_PLACEMENT_3D('',#506,#406,#407);
#348=AXIS2_PLACEMENT_3D('',#507,#408,#409);
#349=AXIS2_PLACEMENT_3D('',#512,#412,#413);
#350=AXIS2_PLACEMENT_3D('',#514,#414,#415);
#351=AXIS2_PLACEMENT_3D('',#515,#416,#417);
#352=AXIS2_PLACEMENT_3D('',#519,#419,#420);
#353=AXIS2_PLACEMENT_3D('',#523,#423,#424);
#354=AXIS2_PLACEMENT_3D('',#524,#425,#426);
#355=AXIS2_PLACEMENT_3D('',#527,#428,#429);
#356=AXIS2_PLACEMENT_3D('',#528,#430,#431);
#357=AXIS2_PLACEMENT_3D('',#530,#432,#433);
#358=AXIS2_PLACEMENT_3D('',#531,#434,#435);
#359=AXIS2_PLACEMENT_3D('',#534,#437,#438);
#360=AXIS2_PLACEMENT_3D('',#535,#439,#440);
#361=AXIS2_PLACEMENT_3D('',#536,#441,#442);
#362=AXIS2_PLACEMENT_3D('',#537,#443,#444);
#363=AXIS2_PLACEMENT_3D('',#539,#446,#447);
#364=AXIS2_PLACEMENT_3D('',#543,#450,#451);
#365=AXIS2_PLACEMENT_3D('',#546,#453,#454);
#366=AXIS2_PLACEMENT_3D('',#547,#455,#456);
#367=AXIS2_PLACEMENT_3D('',#549,#458,#459);
#368=AXIS2_PLACEMENT_3D('',#550,#460,#461);
#369=DIRECTION('axis',(0.,0.,1.));
#370=DIRECTION('refdir',(1.,0.,0.));
#371=DIRECTION('center_axis',(0.,0.,-1.));
#372=DIRECTION('ref_axis',(0.70710678118656,-0.707106781186535,0.));
#373=DIRECTION('center_axis',(0.,0.,1.));
#374=DIRECTION('ref_axis',(0.70710678118656,-0.707106781186535,0.));
#375=DIRECTION('',(0.,0.,1.));
#376=DIRECTION('center_axis',(0.,0.,-1.));
#377=DIRECTION('ref_axis',(0.70710678118656,-0.707106781186535,0.));
#378=DIRECTION('',(0.,0.,-1.));
#379=DIRECTION('center_axis',(1.,0.,0.));
#380=DIRECTION('ref_axis',(0.,1.,0.));
#381=DIRECTION('',(0.,-1.,0.));
#382=DIRECTION('',(0.,0.,-1.));
#383=DIRECTION('',(0.,-1.,0.));
#384=DIRECTION('',(0.,0.,1.));
#385=DIRECTION('',(0.,-1.,0.));
#386=DIRECTION('',(0.,0.,-1.));
#387=DIRECTION('',(0.,-1.,0.));
#388=DIRECTION('center_axis',(0.,0.,1.));
#389=DIRECTION('ref_axis',(1.,0.,0.));
#390=DIRECTION('',(-1.,0.,0.));
#391=DIRECTION('',(0.,1.,0.));
#392=DIRECTION('',(1.,0.,0.));
#393=DIRECTION('center_axis',(0.,0.,1.));
#394=DIRECTION('ref_axis',(0.70710678118656,0.707106781186535,0.));
#395=DIRECTION('center_axis',(0.,0.,-1.));
#396=DIRECTION('ref_axis',(1.,0.,0.));
#397=DIRECTION('center_axis',(0.,0.,1.));
#398=DIRECTION('ref_axis',(0.70710678118656,0.707106781186535,0.));
#399=DIRECTION('center_axis',(0.,0.,-1.));
#400=DIRECTION('ref_axis',(0.70710678118656,0.707106781186535,0.));
#401=DIRECTION('',(0.,0.,1.));
#402=DIRECTION('center_axis',(0.,1.,0.));
#403=DIRECTION('ref_axis',(-1.,0.,0.));
#404=DIRECTION('',(-0.17364817766693,0.,-0.984807753012208));
#405=DIRECTION('',(1.,0.,0.));
#406=DIRECTION('center_axis',(0.,1.,0.));
#407=DIRECTION('ref_axis',(1.,0.,0.));
#408=DIRECTION('center_axis',(0.,-1.,0.));
#409=DIRECTION('ref_axis',(1.,0.,0.));
#410=DIRECTION('',(-1.,0.,0.));
#411=DIRECTION('',(0.17364817766693,0.,0.984807753012208));
#412=DIRECTION('center_axis',(0.,-1.,0.));
#413=DIRECTION('ref_axis',(1.,0.,0.));
#414=DIRECTION('center_axis',(0.,-1.,0.));
#415=DIRECTION('ref_axis',(1.,0.,0.));
#416=DIRECTION('center_axis',(0.,0.,1.));
#417=DIRECTION('ref_axis',(1.,0.,0.));
#418=DIRECTION('',(1.,0.,0.));
#419=DIRECTION('center_axis',(0.,0.,1.));
#420=DIRECTION('ref_axis',(-1.,0.,0.));
#421=DIRECTION('',(-1.,0.,0.));
#422=DIRECTION('',(0.,1.,0.));
#423=DIRECTION('center_axis',(0.,0.,-1.));
#424=DIRECTION('ref_axis',(1.,0.,0.));
#425=DIRECTION('center_axis',(0.,1.,0.));
#426=DIRECTION('ref_axis',(1.,0.,0.));
#427=DIRECTION('',(0.,1.,0.));
#428=DIRECTION('center_axis',(0.,1.,0.));
#429=DIRECTION('ref_axis',(1.,0.,0.));
#430=DIRECTION('center_axis',(0.,-1.,0.));
#431=DIRECTION('ref_axis',(1.,0.,0.));
#432=DIRECTION('center_axis',(0.,-1.,0.));
#433=DIRECTION('ref_axis',(1.,0.,0.));
#434=DIRECTION('center_axis',(0.,1.,0.));
#435=DIRECTION('ref_axis',(1.,0.,0.));
#436=DIRECTION('',(0.,1.,0.));
#437=DIRECTION('center_axis',(0.,1.,0.));
#438=DIRECTION('ref_axis',(1.,0.,0.));
#439=DIRECTION('center_axis',(0.,-1.,0.));
#440=DIRECTION('ref_axis',(1.,0.,0.));
#441=DIRECTION('center_axis',(0.984807753012208,0.,-0.17364817766693));
#442=DIRECTION('ref_axis',(-0.17364817766693,0.,-0.984807753012208));
#443=DIRECTION('center_axis',(0.,1.,0.));
#444=DIRECTION('ref_axis',(1.,0.,0.));
#445=DIRECTION('',(0.,1.,0.));
#446=DIRECTION('center_axis',(0.,1.,0.));
#447=DIRECTION('ref_axis',(1.,0.,0.));
#448=DIRECTION('',(0.,0.,-1.));
#449=DIRECTION('',(1.,0.,0.));
#450=DIRECTION('center_axis',(0.,0.,-1.));
#451=DIRECTION('ref_axis',(-1.,0.,0.));
#452=DIRECTION('',(0.,0.,-1.));
#453=DIRECTION('center_axis',(0.,0.,-1.));
#454=DIRECTION('ref_axis',(-1.,0.,0.));
#455=DIRECTION('center_axis',(0.,-1.,0.));
#456=DIRECTION('ref_axis',(-1.,0.,0.));
#457=DIRECTION('',(-1.,0.,0.));
#458=DIRECTION('center_axis',(0.,0.,1.));
#459=DIRECTION('ref_axis',(-1.,0.,0.));
#460=DIRECTION('center_axis',(0.,0.,1.));
#461=DIRECTION('ref_axis',(1.,0.,0.));
#462=DIRECTION('',(0.,0.,-1.));
#463=CARTESIAN_POINT('',(0.,0.,0.));
#464=CARTESIAN_POINT('Origin',(1.125,-0.34475,0.));
#465=CARTESIAN_POINT('',(1.125,-0.34975,-0.005));
#466=CARTESIAN_POINT('',(1.13,-0.34475,-0.005));
#467=CARTESIAN_POINT('Origin',(1.125,-0.34475,-0.005));
#468=CARTESIAN_POINT('',(1.13,-0.34475,0.35));
#469=CARTESIAN_POINT('',(1.13,-0.34475,0.));
#470=CARTESIAN_POINT('',(1.125,-0.34975,0.35));
#471=CARTESIAN_POINT('Origin',(1.125,-0.34475,0.35));
#472=CARTESIAN_POINT('',(1.125,-0.34975,0.));
#473=CARTESIAN_POINT('Origin',(1.13,-0.34475,0.));
#474=CARTESIAN_POINT('',(1.13,0.34475,-0.005));
#475=CARTESIAN_POINT('',(1.13,-0.172375,-0.005));
#476=CARTESIAN_POINT('',(1.13,0.34475,0.35));
#477=CARTESIAN_POINT('',(1.13,0.34475,0.));
#478=CARTESIAN_POINT('',(1.13,0.2625,0.35));
#479=CARTESIAN_POINT('',(1.13,-0.172375,0.35));
#480=CARTESIAN_POINT('',(1.13,0.2625,0.148));
#481=CARTESIAN_POINT('',(1.13,0.2625,0.1725));
#482=CARTESIAN_POINT('',(1.13,-0.2625,0.148));
#483=CARTESIAN_POINT('',(1.13,-0.172375,0.148));
#484=CARTESIAN_POINT('',(1.13,-0.2625,0.35));
#485=CARTESIAN_POINT('',(1.13,-0.2625,0.1725));
#486=CARTESIAN_POINT('',(1.13,-0.172375,0.35));
#487=CARTESIAN_POINT('Origin',(0.,-4.37095678986282E-17,-0.005));
#488=CARTESIAN_POINT('',(-1.12588163490354,-0.34975,-0.00500000000000002));
#489=CARTESIAN_POINT('',(-0.5625,-0.34975,-0.005));
#490=CARTESIAN_POINT('',(-1.12588163490354,0.34975,-0.00500000000000002));
#491=CARTESIAN_POINT('',(-1.12588163490354,-0.172375,-0.00500000000000002));
#492=CARTESIAN_POINT('',(1.125,0.34975,-0.005));
#493=CARTESIAN_POINT('',(0.5625,0.34975,-0.005));
#494=CARTESIAN_POINT('Origin',(1.125,0.34475,-0.005));
#495=CARTESIAN_POINT('',(-0.656,1.91044900666987E-17,-0.005));
#496=CARTESIAN_POINT('Origin',(-0.5,0.,-0.005));
#497=CARTESIAN_POINT('Origin',(1.125,0.34475,0.));
#498=CARTESIAN_POINT('',(1.125,0.34975,0.35));
#499=CARTESIAN_POINT('Origin',(1.125,0.34475,0.35));
#500=CARTESIAN_POINT('',(1.125,0.34975,0.));
#501=CARTESIAN_POINT('Origin',(1.125,0.34975,0.));
#502=CARTESIAN_POINT('',(-1.06328555675204,0.34975,0.35));
#503=CARTESIAN_POINT('',(-1.06066069501986,0.34975,0.364886330620689));
#504=CARTESIAN_POINT('',(0.5625,0.34975,0.35));
#505=CARTESIAN_POINT('',(-0.828125,0.34975,0.1725));
#506=CARTESIAN_POINT('Origin',(-0.78125,0.34975,0.1725));
#507=CARTESIAN_POINT('Origin',(-1.125,-0.34975,0.));
#508=CARTESIAN_POINT('',(-1.06328555675204,-0.34975,0.35));
#509=CARTESIAN_POINT('',(-0.5625,-0.34975,0.35));
#510=CARTESIAN_POINT('',(-1.09458359582779,-0.34975,0.1725));
#511=CARTESIAN_POINT('',(-0.84375,-0.34975,0.1725));
#512=CARTESIAN_POINT('Origin',(-0.78125,-0.34975,0.1725));
#513=CARTESIAN_POINT('',(0.38675,-0.34975,0.1725));
#514=CARTESIAN_POINT('Origin',(0.46875,-0.34975,0.1725));
#515=CARTESIAN_POINT('Origin',(0.,-4.37095678986282E-17,0.35));
#516=CARTESIAN_POINT('',(0.8775,-0.2625,0.35));
#517=CARTESIAN_POINT('',(0.5625,-0.2625,0.35));
#518=CARTESIAN_POINT('',(0.8775,0.2625,0.35));
#519=CARTESIAN_POINT('Origin',(0.8775,0.,0.35));
#520=CARTESIAN_POINT('',(0.43875,0.2625,0.35));
#521=CARTESIAN_POINT('',(-1.06328555675204,-0.172375,0.35));
#522=CARTESIAN_POINT('',(-0.656,1.91044900666987E-17,0.35));
#523=CARTESIAN_POINT('Origin',(-0.5,0.,0.35));
#524=CARTESIAN_POINT('Origin',(-0.78125,-0.34475,0.1725));
#525=CARTESIAN_POINT('',(-0.84375,-0.09475,0.1725));
#526=CARTESIAN_POINT('',(-0.84375,-0.34475,0.1725));
#527=CARTESIAN_POINT('Origin',(-0.78125,-0.09475,0.1725));
#528=CARTESIAN_POINT('Origin',(-0.78125,-0.09475,0.1725));
#529=CARTESIAN_POINT('',(-0.828125,-0.09475,0.1725));
#530=CARTESIAN_POINT('Origin',(-0.78125,-0.09475,0.1725));
#531=CARTESIAN_POINT('Origin',(0.46875,-0.34475,0.1725));
#532=CARTESIAN_POINT('',(0.38675,-0.03175,0.1725));
#533=CARTESIAN_POINT('',(0.38675,-0.34475,0.1725));
#534=CARTESIAN_POINT('Origin',(0.46875,-0.03175,0.1725));
#535=CARTESIAN_POINT('Origin',(0.46875,-0.03175,0.1725));
#536=CARTESIAN_POINT('Origin',(-1.06416719165558,-0.34475,0.345));
#537=CARTESIAN_POINT('Origin',(-0.78125,-0.34475,0.1725));
#538=CARTESIAN_POINT('',(-0.828125,-0.34475,0.1725));
#539=CARTESIAN_POINT('Origin',(0.8775,0.2625,0.345));
#540=CARTESIAN_POINT('',(0.8775,0.2625,0.148));
#541=CARTESIAN_POINT('',(0.8775,0.2625,0.345));
#542=CARTESIAN_POINT('',(0.8775,0.2625,0.148));
#543=CARTESIAN_POINT('Origin',(0.8775,0.,0.345));
#544=CARTESIAN_POINT('',(0.8775,-0.2625,0.148));
#545=CARTESIAN_POINT('',(0.8775,-0.2625,0.345));
#546=CARTESIAN_POINT('Origin',(0.8775,0.,0.148));
#547=CARTESIAN_POINT('Origin',(1.125,-0.2625,0.345));
#548=CARTESIAN_POINT('',(0.8775,-0.2625,0.148));
#549=CARTESIAN_POINT('Origin',(0.8775,0.,0.148));
#550=CARTESIAN_POINT('Origin',(-0.5,0.,0.));
#551=CARTESIAN_POINT('',(-0.656,-1.91044900666987E-17,0.));
#552=UNCERTAINTY_MEASURE_WITH_UNIT(LENGTH_MEASURE(0.000393700787401575),
#557,'DISTANCE_ACCURACY_VALUE',
'Maximum model space distance between geometric entities at asserted c
onnectivities');
#553=UNCERTAINTY_MEASURE_WITH_UNIT(LENGTH_MEASURE(0.000393700787401575),
#557,'DISTANCE_ACCURACY_VALUE',
'Maximum model space distance between geometric entities at asserted c
onnectivities');
#554=(
GEOMETRIC_REPRESENTATION_CONTEXT(3)
GLOBAL_UNCERTAINTY_ASSIGNED_CONTEXT((#552))
GLOBAL_UNIT_ASSIGNED_CONTEXT((#557,#561,#562))
REPRESENTATION_CONTEXT('','3D')
);
#555=(
GEOMETRIC_REPRESENTATION_CONTEXT(3)
GLOBAL_UNCERTAINTY_ASSIGNED_CONTEXT((#553))
GLOBAL_UNIT_ASSIGNED_CONTEXT((#557,#561,#562))
REPRESENTATION_CONTEXT('','3D')
);
#556=DIMENSIONAL_EXPONENTS(1.,0.,0.,0.,0.,0.,0.);
#557=(
CONVERSION_BASED_UNIT('inch',#560)
LENGTH_UNIT()
NAMED_UNIT(#556)
);
#558=(
LENGTH_UNIT()
NAMED_UNIT(*)
SI_UNIT(.MILLI.,.METRE.)
);
#559=(
LENGTH_UNIT()
NAMED_UNIT(*)
SI_UNIT($,.METRE.)
);
#560=LENGTH_MEASURE_WITH_UNIT(LENGTH_MEASURE(25.4),#558);
#561=(
NAMED_UNIT(*)
PLANE_ANGLE_UNIT()
SI_UNIT($,.RADIAN.)
);
#562=(
NAMED_UNIT(*)
SI_UNIT($,.STERADIAN.)
SOLID_ANGLE_UNIT()
);
#563=SHAPE_DEFINITION_REPRESENTATION(#564,#565);
#564=PRODUCT_DEFINITION_SHAPE('',$,#567);
#565=SHAPE_REPRESENTATION('',(#336),#554);
#566=PRODUCT_DEFINITION_CONTEXT('part definition',#571,'design');
#567=PRODUCT_DEFINITION('3/16 HI-PRO KNIFE','3/16 HI-PRO KNIFE v17',#568,
#566);
#568=PRODUCT_DEFINITION_FORMATION('',$,#573);
#569=PRODUCT_RELATED_PRODUCT_CATEGORY('3/16 HI-PRO KNIFE v17',
'3/16 HI-PRO KNIFE v17',(#573));
#570=APPLICATION_PROTOCOL_DEFINITION('international standard',
'automotive_design',2009,#571);
#571=APPLICATION_CONTEXT(
'Core Data for Automotive Mechanical Design Process');
#572=PRODUCT_CONTEXT('part definition',#571,'mechanical');
#573=PRODUCT('3/16 HI-PRO KNIFE','3/16 HI-PRO KNIFE v17',$,(#572));
#574=PRESENTATION_STYLE_ASSIGNMENT((#575));
#575=SURFACE_STYLE_USAGE(.BOTH.,#576);
#576=SURFACE_SIDE_STYLE('',(#577));
#577=SURFACE_STYLE_FILL_AREA(#578);
#578=FILL_AREA_STYLE('Polymide (Kapton)',(#579));
#579=FILL_AREA_STYLE_COLOUR('Polymide (Kapton)',#580);
#580=COLOUR_RGB('Polymide (Kapton)',0.784313725490196,0.556862745098039,
0.0274509803921569);
ENDSEC;
END-ISO-10303-21;
