ISO-10303-21;
HEADER;
/* Generated by software containing ST-Developer
 * from STEP Tools, Inc. (www.steptools.com) 
 */

FILE_DESCRIPTION(
/* description */ (''),
/* implementation_level */ '2;1');

FILE_NAME(
/* name */ '3134-201356  - MACHINE 4.step',
/* time_stamp */ '2026-01-07T10:42:55-06:00',
/* author */ (''),
/* organization */ (''),
/* preprocessor_version */ 'ST-DEVELOPER v20.1',
/* originating_system */ 'Autodesk Translation Framework v14.24.0.0',
/* authorisation */ '');

FILE_SCHEMA (('AUTOMOTIVE_DESIGN { 1 0 10303 214 3 1 1 }'));
ENDSEC;

DATA;
#10=MECHANICAL_DESIGN_GEOMETRIC_PRESENTATION_REPRESENTATION('',(#13),#183);
#11=SHAPE_REPRESENTATION_RELATIONSHIP('SRR','None',#193,#12);
#12=ADVANCED_BREP_SHAPE_REPRESENTATION('',(#14),#182);
#13=STYLED_ITEM('',(#202),#14);
#14=MANIFOLD_SOLID_BREP('Body1',#93);
#15=LINE('',#169,#17);
#16=LINE('',#176,#18);
#17=VECTOR('',#140,0.313);
#18=VECTOR('',#149,0.623);
#19=CYLINDRICAL_SURFACE('',#113,0.313);
#20=CYLINDRICAL_SURFACE('',#118,0.623);
#21=FACE_BOUND('',#34,.T.);
#22=PLANE('',#111);
#23=PLANE('',#120);
#24=PLANE('',#121);
#25=FACE_OUTER_BOUND('',#32,.T.);
#26=FACE_OUTER_BOUND('',#33,.T.);
#27=FACE_OUTER_BOUND('',#35,.T.);
#28=FACE_OUTER_BOUND('',#36,.T.);
#29=FACE_OUTER_BOUND('',#37,.T.);
#30=FACE_OUTER_BOUND('',#38,.T.);
#31=FACE_OUTER_BOUND('',#39,.T.);
#32=EDGE_LOOP('',(#64,#65,#66,#67));
#33=EDGE_LOOP('',(#68));
#34=EDGE_LOOP('',(#69));
#35=EDGE_LOOP('',(#70,#71,#72,#73));
#36=EDGE_LOOP('',(#74,#75,#76,#77));
#37=EDGE_LOOP('',(#78,#79,#80,#81));
#38=EDGE_LOOP('',(#82));
#39=EDGE_LOOP('',(#83));
#40=CIRCLE('',#108,0.438);
#41=CIRCLE('',#109,0.125);
#42=CIRCLE('',#110,0.313);
#43=CIRCLE('',#112,0.583);
#44=CIRCLE('',#114,0.313);
#45=CIRCLE('',#116,0.04);
#46=CIRCLE('',#117,0.623);
#47=CIRCLE('',#119,0.623);
#48=VERTEX_POINT('',#158);
#49=VERTEX_POINT('',#160);
#50=VERTEX_POINT('',#164);
#51=VERTEX_POINT('',#167);
#52=VERTEX_POINT('',#171);
#53=VERTEX_POINT('',#175);
#54=EDGE_CURVE('',#48,#48,#40,.T.);
#55=EDGE_CURVE('',#48,#49,#41,.T.);
#56=EDGE_CURVE('',#49,#49,#42,.T.);
#57=EDGE_CURVE('',#50,#50,#43,.T.);
#58=EDGE_CURVE('',#51,#51,#44,.T.);
#59=EDGE_CURVE('',#51,#49,#15,.T.);
#60=EDGE_CURVE('',#50,#52,#45,.T.);
#61=EDGE_CURVE('',#52,#52,#46,.T.);
#62=EDGE_CURVE('',#52,#53,#16,.T.);
#63=EDGE_CURVE('',#53,#53,#47,.F.);
#64=ORIENTED_EDGE('',*,*,#54,.T.);
#65=ORIENTED_EDGE('',*,*,#55,.T.);
#66=ORIENTED_EDGE('',*,*,#56,.T.);
#67=ORIENTED_EDGE('',*,*,#55,.F.);
#68=ORIENTED_EDGE('',*,*,#57,.F.);
#69=ORIENTED_EDGE('',*,*,#54,.F.);
#70=ORIENTED_EDGE('',*,*,#58,.F.);
#71=ORIENTED_EDGE('',*,*,#59,.T.);
#72=ORIENTED_EDGE('',*,*,#56,.F.);
#73=ORIENTED_EDGE('',*,*,#59,.F.);
#74=ORIENTED_EDGE('',*,*,#57,.T.);
#75=ORIENTED_EDGE('',*,*,#60,.T.);
#76=ORIENTED_EDGE('',*,*,#61,.T.);
#77=ORIENTED_EDGE('',*,*,#60,.F.);
#78=ORIENTED_EDGE('',*,*,#61,.F.);
#79=ORIENTED_EDGE('',*,*,#62,.T.);
#80=ORIENTED_EDGE('',*,*,#63,.T.);
#81=ORIENTED_EDGE('',*,*,#62,.F.);
#82=ORIENTED_EDGE('',*,*,#58,.T.);
#83=ORIENTED_EDGE('',*,*,#63,.F.);
#84=TOROIDAL_SURFACE('',#107,0.438,0.125);
#85=TOROIDAL_SURFACE('',#115,0.583,0.04);
#86=ADVANCED_FACE('',(#25),#84,.F.);
#87=ADVANCED_FACE('',(#26,#21),#22,.T.);
#88=ADVANCED_FACE('',(#27),#19,.T.);
#89=ADVANCED_FACE('',(#28),#85,.T.);
#90=ADVANCED_FACE('',(#29),#20,.T.);
#91=ADVANCED_FACE('',(#30),#23,.T.);
#92=ADVANCED_FACE('',(#31),#24,.T.);
#93=CLOSED_SHELL('',(#86,#87,#88,#89,#90,#91,#92));
#94=DERIVED_UNIT_ELEMENT(#96,1.);
#95=DERIVED_UNIT_ELEMENT(#187,-3.);
#96=(
MASS_UNIT()
NAMED_UNIT(*)
SI_UNIT(.KILO.,.GRAM.)
);
#97=DERIVED_UNIT((#94,#95));
#98=MEASURE_REPRESENTATION_ITEM('density measure',
POSITIVE_RATIO_MEASURE(7850.),#97);
#99=PROPERTY_DEFINITION_REPRESENTATION(#104,#101);
#100=PROPERTY_DEFINITION_REPRESENTATION(#105,#102);
#101=REPRESENTATION('material name',(#103),#182);
#102=REPRESENTATION('density',(#98),#182);
#103=DESCRIPTIVE_REPRESENTATION_ITEM('Steel','Steel');
#104=PROPERTY_DEFINITION('material property','material name',#195);
#105=PROPERTY_DEFINITION('material property','density of part',#195);
#106=AXIS2_PLACEMENT_3D('',#156,#122,#123);
#107=AXIS2_PLACEMENT_3D('',#157,#124,#125);
#108=AXIS2_PLACEMENT_3D('',#159,#126,#127);
#109=AXIS2_PLACEMENT_3D('',#161,#128,#129);
#110=AXIS2_PLACEMENT_3D('',#162,#130,#131);
#111=AXIS2_PLACEMENT_3D('',#163,#132,#133);
#112=AXIS2_PLACEMENT_3D('',#165,#134,#135);
#113=AXIS2_PLACEMENT_3D('',#166,#136,#137);
#114=AXIS2_PLACEMENT_3D('',#168,#138,#139);
#115=AXIS2_PLACEMENT_3D('',#170,#141,#142);
#116=AXIS2_PLACEMENT_3D('',#172,#143,#144);
#117=AXIS2_PLACEMENT_3D('',#173,#145,#146);
#118=AXIS2_PLACEMENT_3D('',#174,#147,#148);
#119=AXIS2_PLACEMENT_3D('',#177,#150,#151);
#120=AXIS2_PLACEMENT_3D('',#178,#152,#153);
#121=AXIS2_PLACEMENT_3D('',#179,#154,#155);
#122=DIRECTION('axis',(0.,0.,1.));
#123=DIRECTION('refdir',(1.,0.,0.));
#124=DIRECTION('center_axis',(0.,0.,1.));
#125=DIRECTION('ref_axis',(1.,0.,0.));
#126=DIRECTION('center_axis',(0.,0.,1.));
#127=DIRECTION('ref_axis',(-1.,1.22464679914735E-16,0.));
#128=DIRECTION('center_axis',(1.22464679914735E-16,-1.,0.));
#129=DIRECTION('ref_axis',(-1.,-1.22464679914735E-16,0.));
#130=DIRECTION('center_axis',(0.,0.,-1.));
#131=DIRECTION('ref_axis',(-1.,1.22464679914735E-16,0.));
#132=DIRECTION('center_axis',(0.,0.,1.));
#133=DIRECTION('ref_axis',(1.,0.,0.));
#134=DIRECTION('center_axis',(0.,0.,-1.));
#135=DIRECTION('ref_axis',(-1.,1.22464679914735E-16,0.));
#136=DIRECTION('center_axis',(0.,0.,1.));
#137=DIRECTION('ref_axis',(1.,0.,0.));
#138=DIRECTION('center_axis',(0.,0.,1.));
#139=DIRECTION('ref_axis',(1.,0.,0.));
#140=DIRECTION('',(0.,0.,-1.));
#141=DIRECTION('center_axis',(0.,0.,1.));
#142=DIRECTION('ref_axis',(1.,0.,0.));
#143=DIRECTION('center_axis',(1.22464679914735E-16,-1.,0.));
#144=DIRECTION('ref_axis',(-1.,-1.22464679914735E-16,0.));
#145=DIRECTION('center_axis',(0.,0.,1.));
#146=DIRECTION('ref_axis',(-1.,1.22464679914735E-16,0.));
#147=DIRECTION('center_axis',(0.,0.,1.));
#148=DIRECTION('ref_axis',(1.,0.,0.));
#149=DIRECTION('',(0.,0.,-1.));
#150=DIRECTION('center_axis',(0.,0.,-1.));
#151=DIRECTION('ref_axis',(1.,0.,0.));
#152=DIRECTION('center_axis',(0.,0.,1.));
#153=DIRECTION('ref_axis',(1.,0.,0.));
#154=DIRECTION('center_axis',(0.,0.,-1.));
#155=DIRECTION('ref_axis',(-1.,0.,0.));
#156=CARTESIAN_POINT('',(0.,0.,0.));
#157=CARTESIAN_POINT('Origin',(0.,0.,-2.0602));
#158=CARTESIAN_POINT('',(-0.438,-5.36395298026541E-17,-2.1852));
#159=CARTESIAN_POINT('Origin',(0.,0.,-2.1852));
#160=CARTESIAN_POINT('',(-0.313,-3.83314448133122E-17,-2.0602));
#161=CARTESIAN_POINT('Origin',(-0.438,-5.36395298026541E-17,-2.0602));
#162=CARTESIAN_POINT('Origin',(0.,0.,-2.0602));
#163=CARTESIAN_POINT('Origin',(0.313,0.,-2.1852));
#164=CARTESIAN_POINT('',(-0.583,-7.13969083902907E-17,-2.1852));
#165=CARTESIAN_POINT('Origin',(0.,0.,-2.1852));
#166=CARTESIAN_POINT('Origin',(0.,0.,-1.0926));
#167=CARTESIAN_POINT('',(-0.313,-3.83314448133122E-17,0.));
#168=CARTESIAN_POINT('Origin',(0.,0.,0.));
#169=CARTESIAN_POINT('',(-0.313,-3.83314448133122E-17,-1.0926));
#170=CARTESIAN_POINT('Origin',(0.,0.,-2.2252));
#171=CARTESIAN_POINT('',(-0.623,-7.62954955868801E-17,-2.2252));
#172=CARTESIAN_POINT('Origin',(-0.583,-7.13969083902907E-17,-2.2252));
#173=CARTESIAN_POINT('Origin',(0.,0.,-2.2252));
#174=CARTESIAN_POINT('Origin',(0.,0.,-2.5926));
#175=CARTESIAN_POINT('',(-0.623,7.62954955868801E-17,-3.015));
#176=CARTESIAN_POINT('',(-0.623,-7.62954955868801E-17,-2.5926));
#177=CARTESIAN_POINT('Origin',(0.,0.,-3.015));
#178=CARTESIAN_POINT('Origin',(0.,0.,0.));
#179=CARTESIAN_POINT('Origin',(0.623,0.,-3.015));
#180=UNCERTAINTY_MEASURE_WITH_UNIT(LENGTH_MEASURE(0.000393700787401575),
#185,'DISTANCE_ACCURACY_VALUE',
'Maximum model space distance between geometric entities at asserted c
onnectivities');
#181=UNCERTAINTY_MEASURE_WITH_UNIT(LENGTH_MEASURE(0.000393700787401575),
#185,'DISTANCE_ACCURACY_VALUE',
'Maximum model space distance between geometric entities at asserted c
onnectivities');
#182=(
GEOMETRIC_REPRESENTATION_CONTEXT(3)
GLOBAL_UNCERTAINTY_ASSIGNED_CONTEXT((#180))
GLOBAL_UNIT_ASSIGNED_CONTEXT((#185,#189,#190))
REPRESENTATION_CONTEXT('','3D')
);
#183=(
GEOMETRIC_REPRESENTATION_CONTEXT(3)
GLOBAL_UNCERTAINTY_ASSIGNED_CONTEXT((#181))
GLOBAL_UNIT_ASSIGNED_CONTEXT((#185,#189,#190))
REPRESENTATION_CONTEXT('','3D')
);
#184=DIMENSIONAL_EXPONENTS(1.,0.,0.,0.,0.,0.,0.);
#185=(
CONVERSION_BASED_UNIT('inch',#188)
LENGTH_UNIT()
NAMED_UNIT(#184)
);
#186=(
LENGTH_UNIT()
NAMED_UNIT(*)
SI_UNIT(.MILLI.,.METRE.)
);
#187=(
LENGTH_UNIT()
NAMED_UNIT(*)
SI_UNIT($,.METRE.)
);
#188=LENGTH_MEASURE_WITH_UNIT(LENGTH_MEASURE(25.4),#186);
#189=(
NAMED_UNIT(*)
PLANE_ANGLE_UNIT()
SI_UNIT($,.RADIAN.)
);
#190=(
NAMED_UNIT(*)
SI_UNIT($,.STERADIAN.)
SOLID_ANGLE_UNIT()
);
#191=SHAPE_DEFINITION_REPRESENTATION(#192,#193);
#192=PRODUCT_DEFINITION_SHAPE('',$,#195);
#193=SHAPE_REPRESENTATION('',(#106),#182);
#194=PRODUCT_DEFINITION_CONTEXT('part definition',#199,'design');
#195=PRODUCT_DEFINITION('3134-201356  - MACHINE 4',
'3134-201356  - MACHINE 4 v1',#196,#194);
#196=PRODUCT_DEFINITION_FORMATION('',$,#201);
#197=PRODUCT_RELATED_PRODUCT_CATEGORY('3134-201356  - MACHINE 4 v1',
'3134-201356  - MACHINE 4 v1',(#201));
#198=APPLICATION_PROTOCOL_DEFINITION('international standard',
'automotive_design',2009,#199);
#199=APPLICATION_CONTEXT(
'Core Data for Automotive Mechanical Design Process');
#200=PRODUCT_CONTEXT('part definition',#199,'mechanical');
#201=PRODUCT('3134-201356  - MACHINE 4','3134-201356  - MACHINE 4 v1',$,
(#200));
#202=PRESENTATION_STYLE_ASSIGNMENT((#203));
#203=SURFACE_STYLE_USAGE(.BOTH.,#204);
#204=SURFACE_SIDE_STYLE('',(#205));
#205=SURFACE_STYLE_FILL_AREA(#206);
#206=FILL_AREA_STYLE('Steel - Satin',(#207));
#207=FILL_AREA_STYLE_COLOUR('Steel - Satin',#208);
#208=COLOUR_RGB('Steel - Satin',0.627450980392157,0.627450980392157,0.627450980392157);
ENDSEC;
END-ISO-10303-21;
