ISO-10303-21;
HEADER;
/* Generated by software containing ST-Developer
 * from STEP Tools, Inc. (www.steptools.com) 
 */

FILE_DESCRIPTION(
/* description */ (''),
/* implementation_level */ '2;1');

FILE_NAME(
/* name */ 'DIE CASE 2.360 X 5.160 X .742 - MULTUS.step',
/* time_stamp */ '2026-01-07T10:45:09-06:00',
/* author */ (''),
/* organization */ (''),
/* preprocessor_version */ 'ST-DEVELOPER v20.1',
/* originating_system */ 'Autodesk Translation Framework v14.24.0.0',
/* authorisation */ '');

FILE_SCHEMA (('AUTOMOTIVE_DESIGN { 1 0 10303 214 3 1 1 }'));
ENDSEC;

DATA;
#10=MECHANICAL_DESIGN_GEOMETRIC_PRESENTATION_REPRESENTATION('',(#13),#285);
#11=SHAPE_REPRESENTATION_RELATIONSHIP('SRR','None',#295,#12);
#12=ADVANCED_BREP_SHAPE_REPRESENTATION('',(#14),#284);
#13=STYLED_ITEM('',(#304),#14);
#14=MANIFOLD_SOLID_BREP('Body2',#153);
#15=CONICAL_SURFACE('',#180,1.1625,0.785398163397451);
#16=CONICAL_SURFACE('',#184,1.1625,0.785398163397446);
#17=FACE_BOUND('',#46,.T.);
#18=FACE_BOUND('',#47,.T.);
#19=FACE_BOUND('',#50,.T.);
#20=FACE_BOUND('',#53,.T.);
#21=CIRCLE('',#176,1.1825);
#22=CIRCLE('',#177,1.1825);
#23=CIRCLE('',#178,1.1825);
#24=CIRCLE('',#179,1.1825);
#25=CIRCLE('',#181,1.1425);
#26=CIRCLE('',#183,0.3695);
#27=CIRCLE('',#185,1.1425);
#28=CIRCLE('',#187,0.3695);
#29=CYLINDRICAL_SURFACE('',#175,1.1825);
#30=CYLINDRICAL_SURFACE('',#188,0.3695);
#31=FACE_OUTER_BOUND('',#41,.T.);
#32=FACE_OUTER_BOUND('',#42,.T.);
#33=FACE_OUTER_BOUND('',#43,.T.);
#34=FACE_OUTER_BOUND('',#44,.T.);
#35=FACE_OUTER_BOUND('',#45,.T.);
#36=FACE_OUTER_BOUND('',#48,.T.);
#37=FACE_OUTER_BOUND('',#49,.T.);
#38=FACE_OUTER_BOUND('',#51,.T.);
#39=FACE_OUTER_BOUND('',#52,.T.);
#40=FACE_OUTER_BOUND('',#54,.T.);
#41=EDGE_LOOP('',(#101,#102));
#42=EDGE_LOOP('',(#103,#104));
#43=EDGE_LOOP('',(#105,#106));
#44=EDGE_LOOP('',(#107,#108));
#45=EDGE_LOOP('',(#109,#110,#111,#112,#113,#114));
#46=EDGE_LOOP('',(#115,#116));
#47=EDGE_LOOP('',(#117,#118));
#48=EDGE_LOOP('',(#119,#120,#121,#122,#123));
#49=EDGE_LOOP('',(#124));
#50=EDGE_LOOP('',(#125));
#51=EDGE_LOOP('',(#126,#127,#128,#129,#130));
#52=EDGE_LOOP('',(#131));
#53=EDGE_LOOP('',(#132));
#54=EDGE_LOOP('',(#133,#134,#135,#136));
#55=LINE('',#246,#61);
#56=LINE('',#253,#62);
#57=LINE('',#262,#63);
#58=LINE('',#268,#64);
#59=LINE('',#276,#65);
#60=LINE('',#281,#66);
#61=VECTOR('',#195,0.393700787401575);
#62=VECTOR('',#204,0.393700787401575);
#63=VECTOR('',#215,1.1825);
#64=VECTOR('',#222,1.1625);
#65=VECTOR('',#233,1.1625);
#66=VECTOR('',#240,0.3695);
#67=ELLIPSE('',#168,1.2007419685549,1.1825);
#68=ELLIPSE('',#170,6.8097460963175,1.1825);
#69=ELLIPSE('',#172,1.2007419685549,1.1825);
#70=ELLIPSE('',#174,6.80974609631745,1.1825);
#71=VERTEX_POINT('',#243);
#72=VERTEX_POINT('',#244);
#73=VERTEX_POINT('',#250);
#74=VERTEX_POINT('',#251);
#75=VERTEX_POINT('',#257);
#76=VERTEX_POINT('',#258);
#77=VERTEX_POINT('',#261);
#78=VERTEX_POINT('',#263);
#79=VERTEX_POINT('',#267);
#80=VERTEX_POINT('',#271);
#81=VERTEX_POINT('',#274);
#82=VERTEX_POINT('',#278);
#83=EDGE_CURVE('',#71,#72,#67,.T.);
#84=EDGE_CURVE('',#71,#72,#55,.T.);
#85=EDGE_CURVE('',#72,#71,#68,.T.);
#86=EDGE_CURVE('',#73,#74,#69,.T.);
#87=EDGE_CURVE('',#73,#74,#56,.T.);
#88=EDGE_CURVE('',#74,#73,#70,.T.);
#89=EDGE_CURVE('',#75,#76,#21,.T.);
#90=EDGE_CURVE('',#76,#75,#22,.T.);
#91=EDGE_CURVE('',#76,#77,#57,.T.);
#92=EDGE_CURVE('',#78,#77,#23,.T.);
#93=EDGE_CURVE('',#77,#78,#24,.T.);
#94=EDGE_CURVE('',#78,#79,#58,.T.);
#95=EDGE_CURVE('',#79,#79,#25,.T.);
#96=EDGE_CURVE('',#80,#80,#26,.T.);
#97=EDGE_CURVE('',#81,#81,#27,.T.);
#98=EDGE_CURVE('',#81,#75,#59,.T.);
#99=EDGE_CURVE('',#82,#82,#28,.T.);
#100=EDGE_CURVE('',#82,#80,#60,.T.);
#101=ORIENTED_EDGE('',*,*,#83,.F.);
#102=ORIENTED_EDGE('',*,*,#84,.T.);
#103=ORIENTED_EDGE('',*,*,#85,.F.);
#104=ORIENTED_EDGE('',*,*,#84,.F.);
#105=ORIENTED_EDGE('',*,*,#86,.F.);
#106=ORIENTED_EDGE('',*,*,#87,.T.);
#107=ORIENTED_EDGE('',*,*,#88,.F.);
#108=ORIENTED_EDGE('',*,*,#87,.F.);
#109=ORIENTED_EDGE('',*,*,#89,.F.);
#110=ORIENTED_EDGE('',*,*,#90,.F.);
#111=ORIENTED_EDGE('',*,*,#91,.T.);
#112=ORIENTED_EDGE('',*,*,#92,.F.);
#113=ORIENTED_EDGE('',*,*,#93,.F.);
#114=ORIENTED_EDGE('',*,*,#91,.F.);
#115=ORIENTED_EDGE('',*,*,#83,.T.);
#116=ORIENTED_EDGE('',*,*,#85,.T.);
#117=ORIENTED_EDGE('',*,*,#86,.T.);
#118=ORIENTED_EDGE('',*,*,#88,.T.);
#119=ORIENTED_EDGE('',*,*,#92,.T.);
#120=ORIENTED_EDGE('',*,*,#93,.T.);
#121=ORIENTED_EDGE('',*,*,#94,.T.);
#122=ORIENTED_EDGE('',*,*,#95,.T.);
#123=ORIENTED_EDGE('',*,*,#94,.F.);
#124=ORIENTED_EDGE('',*,*,#95,.F.);
#125=ORIENTED_EDGE('',*,*,#96,.T.);
#126=ORIENTED_EDGE('',*,*,#97,.T.);
#127=ORIENTED_EDGE('',*,*,#98,.T.);
#128=ORIENTED_EDGE('',*,*,#89,.T.);
#129=ORIENTED_EDGE('',*,*,#90,.T.);
#130=ORIENTED_EDGE('',*,*,#98,.F.);
#131=ORIENTED_EDGE('',*,*,#97,.F.);
#132=ORIENTED_EDGE('',*,*,#99,.F.);
#133=ORIENTED_EDGE('',*,*,#99,.T.);
#134=ORIENTED_EDGE('',*,*,#100,.T.);
#135=ORIENTED_EDGE('',*,*,#96,.F.);
#136=ORIENTED_EDGE('',*,*,#100,.F.);
#137=PLANE('',#167);
#138=PLANE('',#169);
#139=PLANE('',#171);
#140=PLANE('',#173);
#141=PLANE('',#182);
#142=PLANE('',#186);
#143=ADVANCED_FACE('',(#31),#137,.F.);
#144=ADVANCED_FACE('',(#32),#138,.F.);
#145=ADVANCED_FACE('',(#33),#139,.F.);
#146=ADVANCED_FACE('',(#34),#140,.F.);
#147=ADVANCED_FACE('',(#35,#17,#18),#29,.T.);
#148=ADVANCED_FACE('',(#36),#15,.T.);
#149=ADVANCED_FACE('',(#37,#19),#141,.T.);
#150=ADVANCED_FACE('',(#38),#16,.T.);
#151=ADVANCED_FACE('',(#39,#20),#142,.T.);
#152=ADVANCED_FACE('',(#40),#30,.F.);
#153=CLOSED_SHELL('',(#143,#144,#145,#146,#147,#148,#149,#150,#151,#152));
#154=DERIVED_UNIT_ELEMENT(#156,1.);
#155=DERIVED_UNIT_ELEMENT(#289,-3.);
#156=(
MASS_UNIT()
NAMED_UNIT(*)
SI_UNIT(.KILO.,.GRAM.)
);
#157=DERIVED_UNIT((#154,#155));
#158=MEASURE_REPRESENTATION_ITEM('density measure',
POSITIVE_RATIO_MEASURE(7850.),#157);
#159=PROPERTY_DEFINITION_REPRESENTATION(#164,#161);
#160=PROPERTY_DEFINITION_REPRESENTATION(#165,#162);
#161=REPRESENTATION('material name',(#163),#284);
#162=REPRESENTATION('density',(#158),#284);
#163=DESCRIPTIVE_REPRESENTATION_ITEM('Steel','Steel');
#164=PROPERTY_DEFINITION('material property','material name',#297);
#165=PROPERTY_DEFINITION('material property','density of part',#297);
#166=AXIS2_PLACEMENT_3D('',#241,#189,#190);
#167=AXIS2_PLACEMENT_3D('',#242,#191,#192);
#168=AXIS2_PLACEMENT_3D('',#245,#193,#194);
#169=AXIS2_PLACEMENT_3D('',#247,#196,#197);
#170=AXIS2_PLACEMENT_3D('',#248,#198,#199);
#171=AXIS2_PLACEMENT_3D('',#249,#200,#201);
#172=AXIS2_PLACEMENT_3D('',#252,#202,#203);
#173=AXIS2_PLACEMENT_3D('',#254,#205,#206);
#174=AXIS2_PLACEMENT_3D('',#255,#207,#208);
#175=AXIS2_PLACEMENT_3D('',#256,#209,#210);
#176=AXIS2_PLACEMENT_3D('',#259,#211,#212);
#177=AXIS2_PLACEMENT_3D('',#260,#213,#214);
#178=AXIS2_PLACEMENT_3D('',#264,#216,#217);
#179=AXIS2_PLACEMENT_3D('',#265,#218,#219);
#180=AXIS2_PLACEMENT_3D('',#266,#220,#221);
#181=AXIS2_PLACEMENT_3D('',#269,#223,#224);
#182=AXIS2_PLACEMENT_3D('',#270,#225,#226);
#183=AXIS2_PLACEMENT_3D('',#272,#227,#228);
#184=AXIS2_PLACEMENT_3D('',#273,#229,#230);
#185=AXIS2_PLACEMENT_3D('',#275,#231,#232);
#186=AXIS2_PLACEMENT_3D('',#277,#234,#235);
#187=AXIS2_PLACEMENT_3D('',#279,#236,#237);
#188=AXIS2_PLACEMENT_3D('',#280,#238,#239);
#189=DIRECTION('axis',(0.,0.,1.));
#190=DIRECTION('refdir',(1.,0.,0.));
#191=DIRECTION('center_axis',(-0.173648177666938,0.,0.984807753012207));
#192=DIRECTION('ref_axis',(0.984807753012207,0.,0.173648177666938));
#193=DIRECTION('center_axis',(-0.173648177666938,0.,0.984807753012207));
#194=DIRECTION('ref_axis',(0.984807753012207,0.,0.173648177666938));
#195=DIRECTION('',(0.,1.,0.));
#196=DIRECTION('center_axis',(-0.984807753012209,0.,-0.173648177666926));
#197=DIRECTION('ref_axis',(-0.173648177666926,0.,0.984807753012209));
#198=DIRECTION('center_axis',(-0.984807753012209,0.,-0.173648177666926));
#199=DIRECTION('ref_axis',(0.173648177666926,0.,-0.984807753012209));
#200=DIRECTION('center_axis',(-0.173648177666947,0.,0.984807753012205));
#201=DIRECTION('ref_axis',(0.984807753012205,0.,0.173648177666947));
#202=DIRECTION('center_axis',(-0.173648177666947,0.,0.984807753012205));
#203=DIRECTION('ref_axis',(0.984807753012205,0.,0.173648177666947));
#204=DIRECTION('',(0.,1.,0.));
#205=DIRECTION('center_axis',(-0.984807753012209,0.,-0.173648177666928));
#206=DIRECTION('ref_axis',(-0.173648177666928,0.,0.984807753012208));
#207=DIRECTION('center_axis',(-0.984807753012209,0.,-0.173648177666928));
#208=DIRECTION('ref_axis',(0.173648177666928,0.,-0.984807753012208));
#209=DIRECTION('center_axis',(0.,0.,1.));
#210=DIRECTION('ref_axis',(1.,0.,0.));
#211=DIRECTION('center_axis',(0.,0.,1.));
#212=DIRECTION('ref_axis',(-1.,0.,0.));
#213=DIRECTION('center_axis',(0.,0.,1.));
#214=DIRECTION('ref_axis',(-1.,0.,0.));
#215=DIRECTION('',(0.,0.,-1.));
#216=DIRECTION('center_axis',(0.,0.,-1.));
#217=DIRECTION('ref_axis',(-1.,0.,0.));
#218=DIRECTION('center_axis',(0.,0.,-1.));
#219=DIRECTION('ref_axis',(-1.,0.,0.));
#220=DIRECTION('center_axis',(0.,0.,1.));
#221=DIRECTION('ref_axis',(-1.,0.,0.));
#222=DIRECTION('',(-0.707106781186549,-8.65956056235495E-17,-0.707106781186546));
#223=DIRECTION('center_axis',(0.,0.,1.));
#224=DIRECTION('ref_axis',(-1.,0.,0.));
#225=DIRECTION('center_axis',(0.,0.,-1.));
#226=DIRECTION('ref_axis',(-1.,0.,0.));
#227=DIRECTION('center_axis',(0.,0.,1.));
#228=DIRECTION('ref_axis',(1.,0.,0.));
#229=DIRECTION('center_axis',(0.,0.,-1.));
#230=DIRECTION('ref_axis',(-1.,0.,0.));
#231=DIRECTION('center_axis',(0.,0.,-1.));
#232=DIRECTION('ref_axis',(-1.,0.,0.));
#233=DIRECTION('',(0.707106781186546,8.65956056235491E-17,-0.707106781186549));
#234=DIRECTION('center_axis',(0.,0.,1.));
#235=DIRECTION('ref_axis',(1.,0.,0.));
#236=DIRECTION('center_axis',(0.,0.,1.));
#237=DIRECTION('ref_axis',(1.,0.,0.));
#238=DIRECTION('center_axis',(0.,0.,1.));
#239=DIRECTION('ref_axis',(1.,0.,0.));
#240=DIRECTION('',(0.,0.,-1.));
#241=CARTESIAN_POINT('',(0.,0.,0.));
#242=CARTESIAN_POINT('Origin',(1.0225,0.,-1.44621231691336));
#243=CARTESIAN_POINT('',(1.0225,-0.5939696961967,-1.44621231691336));
#244=CARTESIAN_POINT('',(1.0225,0.5939696961967,-1.44621231691336));
#245=CARTESIAN_POINT('Origin',(0.,0.,-1.62650665468777));
#246=CARTESIAN_POINT('',(1.0225,0.,-1.44621231691336));
#247=CARTESIAN_POINT('Origin',(1.1825,0.,-2.35361740805221));
#248=CARTESIAN_POINT('Origin',(0.,0.,4.35267334364589));
#249=CARTESIAN_POINT('Origin',(1.0225,0.,-2.50821231691336));
#250=CARTESIAN_POINT('',(1.0225,-0.5939696961967,-2.50821231691336));
#251=CARTESIAN_POINT('',(1.0225,0.5939696961967,-2.50821231691336));
#252=CARTESIAN_POINT('Origin',(0.,0.,-2.68850665468778));
#253=CARTESIAN_POINT('',(1.0225,0.,-2.50821231691336));
#254=CARTESIAN_POINT('Origin',(1.1825,0.,-3.41561740805221));
#255=CARTESIAN_POINT('Origin',(0.,0.,3.29067334364584));
#256=CARTESIAN_POINT('Origin',(0.,0.,-2.58));
#257=CARTESIAN_POINT('',(1.1825,1.44814483999175E-16,-0.0400000000000001));
#258=CARTESIAN_POINT('',(-1.1825,-1.44814483999175E-16,-0.0400000000000001));
#259=CARTESIAN_POINT('Origin',(0.,0.,-0.0400000000000001));
#260=CARTESIAN_POINT('Origin',(0.,0.,-0.0400000000000001));
#261=CARTESIAN_POINT('',(-1.1825,-1.44814483999175E-16,-5.12));
#262=CARTESIAN_POINT('',(-1.1825,-1.44814483999175E-16,-2.58));
#263=CARTESIAN_POINT('',(1.1825,-1.44814483999175E-16,-5.12));
#264=CARTESIAN_POINT('Origin',(0.,0.,-5.12));
#265=CARTESIAN_POINT('Origin',(0.,0.,-5.12));
#266=CARTESIAN_POINT('Origin',(0.,0.,-5.14));
#267=CARTESIAN_POINT('',(1.1425,1.39915896802585E-16,-5.16));
#268=CARTESIAN_POINT('',(1.1625,1.4236519040088E-16,-5.14));
#269=CARTESIAN_POINT('Origin',(0.,0.,-5.16));
#270=CARTESIAN_POINT('Origin',(1.1825,0.,-5.16));
#271=CARTESIAN_POINT('',(-0.3695,-4.52506992284947E-17,-5.16));
#272=CARTESIAN_POINT('Origin',(0.,0.,-5.16));
#273=CARTESIAN_POINT('Origin',(0.,0.,-0.0200000000000001));
#274=CARTESIAN_POINT('',(1.1425,-1.39915896802585E-16,0.));
#275=CARTESIAN_POINT('Origin',(0.,0.,0.));
#276=CARTESIAN_POINT('',(1.1625,1.4236519040088E-16,-0.0200000000000001));
#277=CARTESIAN_POINT('Origin',(0.3695,0.,0.));
#278=CARTESIAN_POINT('',(-0.3695,-4.52506992284947E-17,0.));
#279=CARTESIAN_POINT('Origin',(0.,0.,0.));
#280=CARTESIAN_POINT('Origin',(0.,0.,-2.58));
#281=CARTESIAN_POINT('',(-0.3695,-4.52506992284947E-17,-2.58));
#282=UNCERTAINTY_MEASURE_WITH_UNIT(LENGTH_MEASURE(0.000393700787401575),
#287,'DISTANCE_ACCURACY_VALUE',
'Maximum model space distance between geometric entities at asserted c
onnectivities');
#283=UNCERTAINTY_MEASURE_WITH_UNIT(LENGTH_MEASURE(0.000393700787401575),
#287,'DISTANCE_ACCURACY_VALUE',
'Maximum model space distance between geometric entities at asserted c
onnectivities');
#284=(
GEOMETRIC_REPRESENTATION_CONTEXT(3)
GLOBAL_UNCERTAINTY_ASSIGNED_CONTEXT((#282))
GLOBAL_UNIT_ASSIGNED_CONTEXT((#287,#291,#292))
REPRESENTATION_CONTEXT('','3D')
);
#285=(
GEOMETRIC_REPRESENTATION_CONTEXT(3)
GLOBAL_UNCERTAINTY_ASSIGNED_CONTEXT((#283))
GLOBAL_UNIT_ASSIGNED_CONTEXT((#287,#291,#292))
REPRESENTATION_CONTEXT('','3D')
);
#286=DIMENSIONAL_EXPONENTS(1.,0.,0.,0.,0.,0.,0.);
#287=(
CONVERSION_BASED_UNIT('inch',#290)
LENGTH_UNIT()
NAMED_UNIT(#286)
);
#288=(
LENGTH_UNIT()
NAMED_UNIT(*)
SI_UNIT(.MILLI.,.METRE.)
);
#289=(
LENGTH_UNIT()
NAMED_UNIT(*)
SI_UNIT($,.METRE.)
);
#290=LENGTH_MEASURE_WITH_UNIT(LENGTH_MEASURE(25.4),#288);
#291=(
NAMED_UNIT(*)
PLANE_ANGLE_UNIT()
SI_UNIT($,.RADIAN.)
);
#292=(
NAMED_UNIT(*)
SI_UNIT($,.STERADIAN.)
SOLID_ANGLE_UNIT()
);
#293=SHAPE_DEFINITION_REPRESENTATION(#294,#295);
#294=PRODUCT_DEFINITION_SHAPE('',$,#297);
#295=SHAPE_REPRESENTATION('',(#166),#284);
#296=PRODUCT_DEFINITION_CONTEXT('part definition',#301,'design');
#297=PRODUCT_DEFINITION('DIE CASE 2.360 X 5.160 X .742 - MULTUS',
'DIE CASE 2.360 X 5.160 X .742 - MULTUS v6',#298,#296);
#298=PRODUCT_DEFINITION_FORMATION('',$,#303);
#299=PRODUCT_RELATED_PRODUCT_CATEGORY(
'DIE CASE 2.360 X 5.160 X .742 - MULTUS v6',
'DIE CASE 2.360 X 5.160 X .742 - MULTUS v6',(#303));
#300=APPLICATION_PROTOCOL_DEFINITION('international standard',
'automotive_design',2009,#301);
#301=APPLICATION_CONTEXT(
'Core Data for Automotive Mechanical Design Process');
#302=PRODUCT_CONTEXT('part definition',#301,'mechanical');
#303=PRODUCT('DIE CASE 2.360 X 5.160 X .742 - MULTUS',
'DIE CASE 2.360 X 5.160 X .742 - MULTUS v6',$,(#302));
#304=PRESENTATION_STYLE_ASSIGNMENT((#305));
#305=SURFACE_STYLE_USAGE(.BOTH.,#306);
#306=SURFACE_SIDE_STYLE('',(#307));
#307=SURFACE_STYLE_FILL_AREA(#308);
#308=FILL_AREA_STYLE('Steel - Satin',(#309));
#309=FILL_AREA_STYLE_COLOUR('Steel - Satin',#310);
#310=COLOUR_RGB('Steel - Satin',0.627450980392157,0.627450980392157,0.627450980392157);
ENDSEC;
END-ISO-10303-21;
