ISO-10303-21;
HEADER;
/* Generated by software containing ST-Developer
 * from STEP Tools, Inc. (www.steptools.com) 
 */

FILE_DESCRIPTION(
/* description */ (''),
/* implementation_level */ '2;1');

FILE_NAME(
/* name */ 'FEED ROLL FACE GROOVES.step',
/* time_stamp */ '2026-01-07T10:43:09-06:00',
/* author */ (''),
/* organization */ (''),
/* preprocessor_version */ 'ST-DEVELOPER v20.1',
/* originating_system */ 'Autodesk Translation Framework v14.24.0.0',
/* authorisation */ '');

FILE_SCHEMA (('AUTOMOTIVE_DESIGN { 1 0 10303 214 3 1 1 }'));
ENDSEC;

DATA;
#10=MECHANICAL_DESIGN_GEOMETRIC_PRESENTATION_REPRESENTATION('',(#13),#305);
#11=SHAPE_REPRESENTATION_RELATIONSHIP('SRR','None',#315,#12);
#12=ADVANCED_BREP_SHAPE_REPRESENTATION('',(#14),#304);
#13=STYLED_ITEM('',(#324),#14);
#14=MANIFOLD_SOLID_BREP('Body1',#165);
#15=CYLINDRICAL_SURFACE('',#188,0.4905);
#16=CYLINDRICAL_SURFACE('',#200,2.255);
#17=FACE_BOUND('',#43,.T.);
#18=FACE_BOUND('',#46,.T.);
#19=FACE_BOUND('',#49,.T.);
#20=FACE_BOUND('',#52,.T.);
#21=FACE_BOUND('',#55,.T.);
#22=FACE_BOUND('',#58,.T.);
#23=PLANE('',#182);
#24=PLANE('',#186);
#25=PLANE('',#190);
#26=PLANE('',#194);
#27=PLANE('',#198);
#28=PLANE('',#202);
#29=FACE_OUTER_BOUND('',#41,.T.);
#30=FACE_OUTER_BOUND('',#42,.T.);
#31=FACE_OUTER_BOUND('',#44,.T.);
#32=FACE_OUTER_BOUND('',#45,.T.);
#33=FACE_OUTER_BOUND('',#47,.T.);
#34=FACE_OUTER_BOUND('',#48,.T.);
#35=FACE_OUTER_BOUND('',#50,.T.);
#36=FACE_OUTER_BOUND('',#51,.T.);
#37=FACE_OUTER_BOUND('',#53,.T.);
#38=FACE_OUTER_BOUND('',#54,.T.);
#39=FACE_OUTER_BOUND('',#56,.T.);
#40=FACE_OUTER_BOUND('',#57,.T.);
#41=EDGE_LOOP('',(#113,#114,#115,#116));
#42=EDGE_LOOP('',(#117));
#43=EDGE_LOOP('',(#118));
#44=EDGE_LOOP('',(#119,#120,#121,#122));
#45=EDGE_LOOP('',(#123));
#46=EDGE_LOOP('',(#124));
#47=EDGE_LOOP('',(#125,#126,#127,#128));
#48=EDGE_LOOP('',(#129));
#49=EDGE_LOOP('',(#130));
#50=EDGE_LOOP('',(#131,#132,#133,#134));
#51=EDGE_LOOP('',(#135));
#52=EDGE_LOOP('',(#136));
#53=EDGE_LOOP('',(#137,#138,#139,#140));
#54=EDGE_LOOP('',(#141));
#55=EDGE_LOOP('',(#142));
#56=EDGE_LOOP('',(#143,#144,#145,#146));
#57=EDGE_LOOP('',(#147));
#58=EDGE_LOOP('',(#148));
#59=LINE('',#264,#65);
#60=LINE('',#272,#66);
#61=LINE('',#278,#67);
#62=LINE('',#286,#68);
#63=LINE('',#292,#69);
#64=LINE('',#300,#70);
#65=VECTOR('',#209,1.673);
#66=VECTOR('',#220,1.0825);
#67=VECTOR('',#227,0.4905);
#68=VECTOR('',#238,1.0825);
#69=VECTOR('',#245,1.673);
#70=VECTOR('',#256,2.255);
#71=CIRCLE('',#180,1.7715);
#72=CIRCLE('',#181,1.5745);
#73=CIRCLE('',#183,1.181);
#74=CIRCLE('',#185,0.984);
#75=CIRCLE('',#187,0.4905);
#76=CIRCLE('',#189,0.4905);
#77=CIRCLE('',#191,0.984);
#78=CIRCLE('',#193,1.181);
#79=CIRCLE('',#195,1.5745);
#80=CIRCLE('',#197,1.7715);
#81=CIRCLE('',#199,2.255);
#82=CIRCLE('',#201,2.255);
#83=VERTEX_POINT('',#261);
#84=VERTEX_POINT('',#263);
#85=VERTEX_POINT('',#267);
#86=VERTEX_POINT('',#270);
#87=VERTEX_POINT('',#274);
#88=VERTEX_POINT('',#277);
#89=VERTEX_POINT('',#281);
#90=VERTEX_POINT('',#284);
#91=VERTEX_POINT('',#288);
#92=VERTEX_POINT('',#291);
#93=VERTEX_POINT('',#295);
#94=VERTEX_POINT('',#298);
#95=EDGE_CURVE('',#83,#83,#71,.T.);
#96=EDGE_CURVE('',#83,#84,#59,.T.);
#97=EDGE_CURVE('',#84,#84,#72,.T.);
#98=EDGE_CURVE('',#85,#85,#73,.T.);
#99=EDGE_CURVE('',#86,#86,#74,.T.);
#100=EDGE_CURVE('',#86,#85,#60,.T.);
#101=EDGE_CURVE('',#87,#87,#75,.T.);
#102=EDGE_CURVE('',#87,#88,#61,.T.);
#103=EDGE_CURVE('',#88,#88,#76,.T.);
#104=EDGE_CURVE('',#89,#89,#77,.T.);
#105=EDGE_CURVE('',#90,#90,#78,.T.);
#106=EDGE_CURVE('',#90,#89,#62,.T.);
#107=EDGE_CURVE('',#91,#91,#79,.T.);
#108=EDGE_CURVE('',#91,#92,#63,.T.);
#109=EDGE_CURVE('',#92,#92,#80,.T.);
#110=EDGE_CURVE('',#93,#93,#81,.T.);
#111=EDGE_CURVE('',#94,#94,#82,.T.);
#112=EDGE_CURVE('',#94,#93,#64,.T.);
#113=ORIENTED_EDGE('',*,*,#95,.T.);
#114=ORIENTED_EDGE('',*,*,#96,.T.);
#115=ORIENTED_EDGE('',*,*,#97,.F.);
#116=ORIENTED_EDGE('',*,*,#96,.F.);
#117=ORIENTED_EDGE('',*,*,#97,.T.);
#118=ORIENTED_EDGE('',*,*,#98,.F.);
#119=ORIENTED_EDGE('',*,*,#99,.F.);
#120=ORIENTED_EDGE('',*,*,#100,.T.);
#121=ORIENTED_EDGE('',*,*,#98,.T.);
#122=ORIENTED_EDGE('',*,*,#100,.F.);
#123=ORIENTED_EDGE('',*,*,#99,.T.);
#124=ORIENTED_EDGE('',*,*,#101,.F.);
#125=ORIENTED_EDGE('',*,*,#101,.T.);
#126=ORIENTED_EDGE('',*,*,#102,.T.);
#127=ORIENTED_EDGE('',*,*,#103,.F.);
#128=ORIENTED_EDGE('',*,*,#102,.F.);
#129=ORIENTED_EDGE('',*,*,#104,.F.);
#130=ORIENTED_EDGE('',*,*,#103,.T.);
#131=ORIENTED_EDGE('',*,*,#105,.F.);
#132=ORIENTED_EDGE('',*,*,#106,.T.);
#133=ORIENTED_EDGE('',*,*,#104,.T.);
#134=ORIENTED_EDGE('',*,*,#106,.F.);
#135=ORIENTED_EDGE('',*,*,#107,.F.);
#136=ORIENTED_EDGE('',*,*,#105,.T.);
#137=ORIENTED_EDGE('',*,*,#107,.T.);
#138=ORIENTED_EDGE('',*,*,#108,.T.);
#139=ORIENTED_EDGE('',*,*,#109,.F.);
#140=ORIENTED_EDGE('',*,*,#108,.F.);
#141=ORIENTED_EDGE('',*,*,#110,.F.);
#142=ORIENTED_EDGE('',*,*,#109,.T.);
#143=ORIENTED_EDGE('',*,*,#111,.F.);
#144=ORIENTED_EDGE('',*,*,#112,.T.);
#145=ORIENTED_EDGE('',*,*,#110,.T.);
#146=ORIENTED_EDGE('',*,*,#112,.F.);
#147=ORIENTED_EDGE('',*,*,#111,.T.);
#148=ORIENTED_EDGE('',*,*,#95,.F.);
#149=CONICAL_SURFACE('',#179,1.673,0.78539816339745);
#150=CONICAL_SURFACE('',#184,1.0825,0.785398163397448);
#151=CONICAL_SURFACE('',#192,1.0825,0.785398163397448);
#152=CONICAL_SURFACE('',#196,1.673,0.78539816339745);
#153=ADVANCED_FACE('',(#29),#149,.F.);
#154=ADVANCED_FACE('',(#30,#17),#23,.T.);
#155=ADVANCED_FACE('',(#31),#150,.T.);
#156=ADVANCED_FACE('',(#32,#18),#24,.T.);
#157=ADVANCED_FACE('',(#33),#15,.F.);
#158=ADVANCED_FACE('',(#34,#19),#25,.T.);
#159=ADVANCED_FACE('',(#35),#151,.T.);
#160=ADVANCED_FACE('',(#36,#20),#26,.T.);
#161=ADVANCED_FACE('',(#37),#152,.F.);
#162=ADVANCED_FACE('',(#38,#21),#27,.T.);
#163=ADVANCED_FACE('',(#39),#16,.T.);
#164=ADVANCED_FACE('',(#40,#22),#28,.T.);
#165=CLOSED_SHELL('',(#153,#154,#155,#156,#157,#158,#159,#160,#161,#162,
#163,#164));
#166=DERIVED_UNIT_ELEMENT(#168,1.);
#167=DERIVED_UNIT_ELEMENT(#309,-3.);
#168=(
MASS_UNIT()
NAMED_UNIT(*)
SI_UNIT(.KILO.,.GRAM.)
);
#169=DERIVED_UNIT((#166,#167));
#170=MEASURE_REPRESENTATION_ITEM('density measure',
POSITIVE_RATIO_MEASURE(7850.),#169);
#171=PROPERTY_DEFINITION_REPRESENTATION(#176,#173);
#172=PROPERTY_DEFINITION_REPRESENTATION(#177,#174);
#173=REPRESENTATION('material name',(#175),#304);
#174=REPRESENTATION('density',(#170),#304);
#175=DESCRIPTIVE_REPRESENTATION_ITEM('Steel','Steel');
#176=PROPERTY_DEFINITION('material property','material name',#317);
#177=PROPERTY_DEFINITION('material property','density of part',#317);
#178=AXIS2_PLACEMENT_3D('',#259,#203,#204);
#179=AXIS2_PLACEMENT_3D('',#260,#205,#206);
#180=AXIS2_PLACEMENT_3D('',#262,#207,#208);
#181=AXIS2_PLACEMENT_3D('',#265,#210,#211);
#182=AXIS2_PLACEMENT_3D('',#266,#212,#213);
#183=AXIS2_PLACEMENT_3D('',#268,#214,#215);
#184=AXIS2_PLACEMENT_3D('',#269,#216,#217);
#185=AXIS2_PLACEMENT_3D('',#271,#218,#219);
#186=AXIS2_PLACEMENT_3D('',#273,#221,#222);
#187=AXIS2_PLACEMENT_3D('',#275,#223,#224);
#188=AXIS2_PLACEMENT_3D('',#276,#225,#226);
#189=AXIS2_PLACEMENT_3D('',#279,#228,#229);
#190=AXIS2_PLACEMENT_3D('',#280,#230,#231);
#191=AXIS2_PLACEMENT_3D('',#282,#232,#233);
#192=AXIS2_PLACEMENT_3D('',#283,#234,#235);
#193=AXIS2_PLACEMENT_3D('',#285,#236,#237);
#194=AXIS2_PLACEMENT_3D('',#287,#239,#240);
#195=AXIS2_PLACEMENT_3D('',#289,#241,#242);
#196=AXIS2_PLACEMENT_3D('',#290,#243,#244);
#197=AXIS2_PLACEMENT_3D('',#293,#246,#247);
#198=AXIS2_PLACEMENT_3D('',#294,#248,#249);
#199=AXIS2_PLACEMENT_3D('',#296,#250,#251);
#200=AXIS2_PLACEMENT_3D('',#297,#252,#253);
#201=AXIS2_PLACEMENT_3D('',#299,#254,#255);
#202=AXIS2_PLACEMENT_3D('',#301,#257,#258);
#203=DIRECTION('axis',(0.,0.,1.));
#204=DIRECTION('refdir',(1.,0.,0.));
#205=DIRECTION('center_axis',(0.,0.,1.));
#206=DIRECTION('ref_axis',(1.,0.,0.));
#207=DIRECTION('center_axis',(0.,0.,1.));
#208=DIRECTION('ref_axis',(1.,0.,0.));
#209=DIRECTION('',(0.707106781186549,8.65956056235495E-17,-0.707106781186546));
#210=DIRECTION('center_axis',(0.,0.,1.));
#211=DIRECTION('ref_axis',(1.,0.,0.));
#212=DIRECTION('center_axis',(0.,0.,1.));
#213=DIRECTION('ref_axis',(1.,0.,0.));
#214=DIRECTION('center_axis',(0.,0.,1.));
#215=DIRECTION('ref_axis',(1.,0.,0.));
#216=DIRECTION('center_axis',(0.,0.,-1.));
#217=DIRECTION('ref_axis',(1.,0.,0.));
#218=DIRECTION('center_axis',(0.,0.,1.));
#219=DIRECTION('ref_axis',(1.,0.,0.));
#220=DIRECTION('',(-0.707106781186547,-8.65956056235493E-17,-0.707106781186548));
#221=DIRECTION('center_axis',(0.,0.,1.));
#222=DIRECTION('ref_axis',(1.,0.,0.));
#223=DIRECTION('center_axis',(0.,0.,1.));
#224=DIRECTION('ref_axis',(1.,0.,0.));
#225=DIRECTION('center_axis',(0.,0.,1.));
#226=DIRECTION('ref_axis',(1.,0.,0.));
#227=DIRECTION('',(0.,0.,-1.));
#228=DIRECTION('center_axis',(0.,0.,1.));
#229=DIRECTION('ref_axis',(1.,0.,0.));
#230=DIRECTION('center_axis',(0.,0.,-1.));
#231=DIRECTION('ref_axis',(-1.,0.,0.));
#232=DIRECTION('center_axis',(0.,0.,1.));
#233=DIRECTION('ref_axis',(1.,0.,0.));
#234=DIRECTION('center_axis',(0.,0.,1.));
#235=DIRECTION('ref_axis',(1.,0.,0.));
#236=DIRECTION('center_axis',(0.,0.,1.));
#237=DIRECTION('ref_axis',(1.,0.,0.));
#238=DIRECTION('',(0.707106781186547,8.65956056235493E-17,-0.707106781186548));
#239=DIRECTION('center_axis',(0.,0.,-1.));
#240=DIRECTION('ref_axis',(-1.,0.,0.));
#241=DIRECTION('center_axis',(0.,0.,1.));
#242=DIRECTION('ref_axis',(1.,0.,0.));
#243=DIRECTION('center_axis',(0.,0.,-1.));
#244=DIRECTION('ref_axis',(1.,0.,0.));
#245=DIRECTION('',(-0.707106781186549,-8.65956056235495E-17,-0.707106781186546));
#246=DIRECTION('center_axis',(0.,0.,1.));
#247=DIRECTION('ref_axis',(1.,0.,0.));
#248=DIRECTION('center_axis',(0.,0.,-1.));
#249=DIRECTION('ref_axis',(-1.,0.,0.));
#250=DIRECTION('center_axis',(0.,0.,1.));
#251=DIRECTION('ref_axis',(1.,0.,0.));
#252=DIRECTION('center_axis',(0.,0.,1.));
#253=DIRECTION('ref_axis',(1.,0.,0.));
#254=DIRECTION('center_axis',(0.,0.,1.));
#255=DIRECTION('ref_axis',(1.,0.,0.));
#256=DIRECTION('',(0.,0.,-1.));
#257=DIRECTION('center_axis',(0.,0.,1.));
#258=DIRECTION('ref_axis',(1.,0.,0.));
#259=CARTESIAN_POINT('',(0.,0.,0.));
#260=CARTESIAN_POINT('Origin',(0.,0.,0.3555));
#261=CARTESIAN_POINT('',(-1.7715,-2.16946180468954E-16,0.454));
#262=CARTESIAN_POINT('Origin',(0.,0.,0.454));
#263=CARTESIAN_POINT('',(-1.5745,-1.92820638525751E-16,0.257));
#264=CARTESIAN_POINT('',(-1.673,-2.04883409497352E-16,0.3555));
#265=CARTESIAN_POINT('Origin',(0.,0.,0.257));
#266=CARTESIAN_POINT('Origin',(1.181,0.,0.257));
#267=CARTESIAN_POINT('',(-1.181,-1.44630786979302E-16,0.257));
#268=CARTESIAN_POINT('Origin',(0.,0.,0.257));
#269=CARTESIAN_POINT('Origin',(0.,0.,0.3555));
#270=CARTESIAN_POINT('',(-0.984,-1.205052450361E-16,0.454));
#271=CARTESIAN_POINT('Origin',(0.,0.,0.454));
#272=CARTESIAN_POINT('',(-1.0825,-1.32568016007701E-16,0.3555));
#273=CARTESIAN_POINT('Origin',(0.4905,0.,0.454));
#274=CARTESIAN_POINT('',(-0.4905,-6.00689254981777E-17,0.454));
#275=CARTESIAN_POINT('Origin',(0.,0.,0.454));
#276=CARTESIAN_POINT('Origin',(0.,0.,0.));
#277=CARTESIAN_POINT('',(-0.4905,-6.00689254981777E-17,-0.454));
#278=CARTESIAN_POINT('',(-0.4905,-6.00689254981777E-17,0.));
#279=CARTESIAN_POINT('Origin',(0.,0.,-0.454));
#280=CARTESIAN_POINT('Origin',(0.984,0.,-0.454));
#281=CARTESIAN_POINT('',(-0.984,-1.205052450361E-16,-0.454));
#282=CARTESIAN_POINT('Origin',(0.,0.,-0.454));
#283=CARTESIAN_POINT('Origin',(0.,0.,-0.3555));
#284=CARTESIAN_POINT('',(-1.181,-1.44630786979302E-16,-0.257));
#285=CARTESIAN_POINT('Origin',(0.,0.,-0.257));
#286=CARTESIAN_POINT('',(-1.0825,-1.32568016007701E-16,-0.3555));
#287=CARTESIAN_POINT('Origin',(1.5745,0.,-0.257));
#288=CARTESIAN_POINT('',(-1.5745,-1.92820638525751E-16,-0.257));
#289=CARTESIAN_POINT('Origin',(0.,0.,-0.257));
#290=CARTESIAN_POINT('Origin',(0.,0.,-0.3555));
#291=CARTESIAN_POINT('',(-1.7715,-2.16946180468954E-16,-0.454));
#292=CARTESIAN_POINT('',(-1.673,-2.04883409497352E-16,-0.3555));
#293=CARTESIAN_POINT('Origin',(0.,0.,-0.454));
#294=CARTESIAN_POINT('Origin',(2.255,0.,-0.454));
#295=CARTESIAN_POINT('',(-2.255,-2.76157853207728E-16,-0.454));
#296=CARTESIAN_POINT('Origin',(0.,0.,-0.454));
#297=CARTESIAN_POINT('Origin',(0.,0.,0.));
#298=CARTESIAN_POINT('',(-2.255,-2.76157853207728E-16,0.454));
#299=CARTESIAN_POINT('Origin',(0.,0.,0.454));
#300=CARTESIAN_POINT('',(-2.255,-2.76157853207728E-16,0.));
#301=CARTESIAN_POINT('Origin',(1.7715,0.,0.454));
#302=UNCERTAINTY_MEASURE_WITH_UNIT(LENGTH_MEASURE(0.000393700787401575),
#307,'DISTANCE_ACCURACY_VALUE',
'Maximum model space distance between geometric entities at asserted c
onnectivities');
#303=UNCERTAINTY_MEASURE_WITH_UNIT(LENGTH_MEASURE(0.000393700787401575),
#307,'DISTANCE_ACCURACY_VALUE',
'Maximum model space distance between geometric entities at asserted c
onnectivities');
#304=(
GEOMETRIC_REPRESENTATION_CONTEXT(3)
GLOBAL_UNCERTAINTY_ASSIGNED_CONTEXT((#302))
GLOBAL_UNIT_ASSIGNED_CONTEXT((#307,#311,#312))
REPRESENTATION_CONTEXT('','3D')
);
#305=(
GEOMETRIC_REPRESENTATION_CONTEXT(3)
GLOBAL_UNCERTAINTY_ASSIGNED_CONTEXT((#303))
GLOBAL_UNIT_ASSIGNED_CONTEXT((#307,#311,#312))
REPRESENTATION_CONTEXT('','3D')
);
#306=DIMENSIONAL_EXPONENTS(1.,0.,0.,0.,0.,0.,0.);
#307=(
CONVERSION_BASED_UNIT('inch',#310)
LENGTH_UNIT()
NAMED_UNIT(#306)
);
#308=(
LENGTH_UNIT()
NAMED_UNIT(*)
SI_UNIT(.MILLI.,.METRE.)
);
#309=(
LENGTH_UNIT()
NAMED_UNIT(*)
SI_UNIT($,.METRE.)
);
#310=LENGTH_MEASURE_WITH_UNIT(LENGTH_MEASURE(25.4),#308);
#311=(
NAMED_UNIT(*)
PLANE_ANGLE_UNIT()
SI_UNIT($,.RADIAN.)
);
#312=(
NAMED_UNIT(*)
SI_UNIT($,.STERADIAN.)
SOLID_ANGLE_UNIT()
);
#313=SHAPE_DEFINITION_REPRESENTATION(#314,#315);
#314=PRODUCT_DEFINITION_SHAPE('',$,#317);
#315=SHAPE_REPRESENTATION('',(#178),#304);
#316=PRODUCT_DEFINITION_CONTEXT('part definition',#321,'design');
#317=PRODUCT_DEFINITION('FEED ROLL FACE GROOVES',
'FEED ROLL FACE GROOVES v1',#318,#316);
#318=PRODUCT_DEFINITION_FORMATION('',$,#323);
#319=PRODUCT_RELATED_PRODUCT_CATEGORY('FEED ROLL FACE GROOVES v1',
'FEED ROLL FACE GROOVES v1',(#323));
#320=APPLICATION_PROTOCOL_DEFINITION('international standard',
'automotive_design',2009,#321);
#321=APPLICATION_CONTEXT(
'Core Data for Automotive Mechanical Design Process');
#322=PRODUCT_CONTEXT('part definition',#321,'mechanical');
#323=PRODUCT('FEED ROLL FACE GROOVES','FEED ROLL FACE GROOVES v1',$,(#322));
#324=PRESENTATION_STYLE_ASSIGNMENT((#325));
#325=SURFACE_STYLE_USAGE(.BOTH.,#326);
#326=SURFACE_SIDE_STYLE('',(#327));
#327=SURFACE_STYLE_FILL_AREA(#328);
#328=FILL_AREA_STYLE('Steel - Satin',(#329));
#329=FILL_AREA_STYLE_COLOUR('Steel - Satin',#330);
#330=COLOUR_RGB('Steel - Satin',0.627450980392157,0.627450980392157,0.627450980392157);
ENDSEC;
END-ISO-10303-21;
