ISO-10303-21;
HEADER;
/* Generated by software containing ST-Developer
 * from STEP Tools, Inc. (www.steptools.com) 
 */

FILE_DESCRIPTION(
/* description */ (''),
/* implementation_level */ '2;1');

FILE_NAME(
/* name */ 'HDC-11-X-TT - MACHINE 5.step',
/* time_stamp */ '2026-01-07T10:42:21-06:00',
/* author */ (''),
/* organization */ (''),
/* preprocessor_version */ 'ST-DEVELOPER v20.1',
/* originating_system */ 'Autodesk Translation Framework v14.24.0.0',
/* authorisation */ '');

FILE_SCHEMA (('AUTOMOTIVE_DESIGN { 1 0 10303 214 3 1 1 }'));
ENDSEC;

DATA;
#10=MECHANICAL_DESIGN_GEOMETRIC_PRESENTATION_REPRESENTATION('',(#13),#235);
#11=SHAPE_REPRESENTATION_RELATIONSHIP('SRR','None',#245,#12);
#12=ADVANCED_BREP_SHAPE_REPRESENTATION('',(#14),#234);
#13=STYLED_ITEM('',(#254),#14);
#14=MANIFOLD_SOLID_BREP('Body1',#126);
#15=CYLINDRICAL_SURFACE('',#149,1.00074999513957);
#16=CYLINDRICAL_SURFACE('',#154,1.00074996685009);
#17=CYLINDRICAL_SURFACE('',#155,0.4945);
#18=LINE('',#211,#24);
#19=LINE('',#219,#25);
#20=LINE('',#224,#26);
#21=LINE('',#227,#27);
#22=LINE('',#229,#28);
#23=LINE('',#231,#29);
#24=VECTOR('',#171,0.983249997569782);
#25=VECTOR('',#182,1.00074999513957);
#26=VECTOR('',#187,0.907249964935424);
#27=VECTOR('',#192,1.00074996685009);
#28=VECTOR('',#195,0.4945);
#29=VECTOR('',#198,0.907249974935291);
#30=CONICAL_SURFACE('',#143,0.983249997569783,0.785398093962666);
#31=CONICAL_SURFACE('',#151,0.907249964935424,1.39626340159546);
#32=CONICAL_SURFACE('',#156,0.907249974935291,0.174532925199431);
#33=FACE_BOUND('',#44,.T.);
#34=FACE_BOUND('',#47,.T.);
#35=FACE_OUTER_BOUND('',#43,.T.);
#36=FACE_OUTER_BOUND('',#45,.T.);
#37=FACE_OUTER_BOUND('',#46,.T.);
#38=FACE_OUTER_BOUND('',#48,.T.);
#39=FACE_OUTER_BOUND('',#49,.T.);
#40=FACE_OUTER_BOUND('',#50,.T.);
#41=FACE_OUTER_BOUND('',#51,.T.);
#42=FACE_OUTER_BOUND('',#52,.T.);
#43=EDGE_LOOP('',(#86));
#44=EDGE_LOOP('',(#87));
#45=EDGE_LOOP('',(#88,#89,#90,#91,#92));
#46=EDGE_LOOP('',(#93));
#47=EDGE_LOOP('',(#94));
#48=EDGE_LOOP('',(#95,#96,#97,#98,#99));
#49=EDGE_LOOP('',(#100,#101,#102,#103));
#50=EDGE_LOOP('',(#104,#105,#106,#107));
#51=EDGE_LOOP('',(#108,#109,#110,#111));
#52=EDGE_LOOP('',(#112,#113,#114,#115));
#53=CIRCLE('',#141,1.00074996342079);
#54=CIRCLE('',#142,0.4945);
#55=CIRCLE('',#144,1.00074999513957);
#56=CIRCLE('',#145,1.00074999513957);
#57=CIRCLE('',#146,0.96575);
#58=CIRCLE('',#148,0.4945);
#59=CIRCLE('',#150,1.00074998644979);
#60=CIRCLE('',#152,1.00074996645005);
#61=CIRCLE('',#153,0.813749963420792);
#62=VERTEX_POINT('',#201);
#63=VERTEX_POINT('',#203);
#64=VERTEX_POINT('',#206);
#65=VERTEX_POINT('',#207);
#66=VERTEX_POINT('',#210);
#67=VERTEX_POINT('',#214);
#68=VERTEX_POINT('',#217);
#69=VERTEX_POINT('',#221);
#70=VERTEX_POINT('',#223);
#71=EDGE_CURVE('',#62,#62,#53,.T.);
#72=EDGE_CURVE('',#63,#63,#54,.T.);
#73=EDGE_CURVE('',#64,#65,#55,.T.);
#74=EDGE_CURVE('',#65,#64,#56,.T.);
#75=EDGE_CURVE('',#64,#66,#18,.T.);
#76=EDGE_CURVE('',#66,#66,#57,.T.);
#77=EDGE_CURVE('',#67,#67,#58,.T.);
#78=EDGE_CURVE('',#68,#68,#59,.T.);
#79=EDGE_CURVE('',#68,#65,#19,.T.);
#80=EDGE_CURVE('',#69,#69,#60,.T.);
#81=EDGE_CURVE('',#69,#70,#20,.T.);
#82=EDGE_CURVE('',#70,#70,#61,.T.);
#83=EDGE_CURVE('',#62,#69,#21,.T.);
#84=EDGE_CURVE('',#63,#67,#22,.T.);
#85=EDGE_CURVE('',#70,#68,#23,.T.);
#86=ORIENTED_EDGE('',*,*,#71,.T.);
#87=ORIENTED_EDGE('',*,*,#72,.T.);
#88=ORIENTED_EDGE('',*,*,#73,.T.);
#89=ORIENTED_EDGE('',*,*,#74,.T.);
#90=ORIENTED_EDGE('',*,*,#75,.T.);
#91=ORIENTED_EDGE('',*,*,#76,.T.);
#92=ORIENTED_EDGE('',*,*,#75,.F.);
#93=ORIENTED_EDGE('',*,*,#76,.F.);
#94=ORIENTED_EDGE('',*,*,#77,.T.);
#95=ORIENTED_EDGE('',*,*,#78,.F.);
#96=ORIENTED_EDGE('',*,*,#79,.T.);
#97=ORIENTED_EDGE('',*,*,#73,.F.);
#98=ORIENTED_EDGE('',*,*,#74,.F.);
#99=ORIENTED_EDGE('',*,*,#79,.F.);
#100=ORIENTED_EDGE('',*,*,#80,.F.);
#101=ORIENTED_EDGE('',*,*,#81,.T.);
#102=ORIENTED_EDGE('',*,*,#82,.T.);
#103=ORIENTED_EDGE('',*,*,#81,.F.);
#104=ORIENTED_EDGE('',*,*,#71,.F.);
#105=ORIENTED_EDGE('',*,*,#83,.T.);
#106=ORIENTED_EDGE('',*,*,#80,.T.);
#107=ORIENTED_EDGE('',*,*,#83,.F.);
#108=ORIENTED_EDGE('',*,*,#72,.F.);
#109=ORIENTED_EDGE('',*,*,#84,.T.);
#110=ORIENTED_EDGE('',*,*,#77,.F.);
#111=ORIENTED_EDGE('',*,*,#84,.F.);
#112=ORIENTED_EDGE('',*,*,#82,.F.);
#113=ORIENTED_EDGE('',*,*,#85,.T.);
#114=ORIENTED_EDGE('',*,*,#78,.T.);
#115=ORIENTED_EDGE('',*,*,#85,.F.);
#116=PLANE('',#140);
#117=PLANE('',#147);
#118=ADVANCED_FACE('',(#35,#33),#116,.T.);
#119=ADVANCED_FACE('',(#36),#30,.T.);
#120=ADVANCED_FACE('',(#37,#34),#117,.T.);
#121=ADVANCED_FACE('',(#38),#15,.T.);
#122=ADVANCED_FACE('',(#39),#31,.T.);
#123=ADVANCED_FACE('',(#40),#16,.T.);
#124=ADVANCED_FACE('',(#41),#17,.F.);
#125=ADVANCED_FACE('',(#42),#32,.T.);
#126=CLOSED_SHELL('',(#118,#119,#120,#121,#122,#123,#124,#125));
#127=DERIVED_UNIT_ELEMENT(#129,1.);
#128=DERIVED_UNIT_ELEMENT(#239,-3.);
#129=(
MASS_UNIT()
NAMED_UNIT(*)
SI_UNIT(.KILO.,.GRAM.)
);
#130=DERIVED_UNIT((#127,#128));
#131=MEASURE_REPRESENTATION_ITEM('density measure',
POSITIVE_RATIO_MEASURE(7850.),#130);
#132=PROPERTY_DEFINITION_REPRESENTATION(#137,#134);
#133=PROPERTY_DEFINITION_REPRESENTATION(#138,#135);
#134=REPRESENTATION('material name',(#136),#234);
#135=REPRESENTATION('density',(#131),#234);
#136=DESCRIPTIVE_REPRESENTATION_ITEM('Steel','Steel');
#137=PROPERTY_DEFINITION('material property','material name',#247);
#138=PROPERTY_DEFINITION('material property','density of part',#247);
#139=AXIS2_PLACEMENT_3D('',#199,#157,#158);
#140=AXIS2_PLACEMENT_3D('',#200,#159,#160);
#141=AXIS2_PLACEMENT_3D('',#202,#161,#162);
#142=AXIS2_PLACEMENT_3D('',#204,#163,#164);
#143=AXIS2_PLACEMENT_3D('',#205,#165,#166);
#144=AXIS2_PLACEMENT_3D('',#208,#167,#168);
#145=AXIS2_PLACEMENT_3D('',#209,#169,#170);
#146=AXIS2_PLACEMENT_3D('',#212,#172,#173);
#147=AXIS2_PLACEMENT_3D('',#213,#174,#175);
#148=AXIS2_PLACEMENT_3D('',#215,#176,#177);
#149=AXIS2_PLACEMENT_3D('',#216,#178,#179);
#150=AXIS2_PLACEMENT_3D('',#218,#180,#181);
#151=AXIS2_PLACEMENT_3D('',#220,#183,#184);
#152=AXIS2_PLACEMENT_3D('',#222,#185,#186);
#153=AXIS2_PLACEMENT_3D('',#225,#188,#189);
#154=AXIS2_PLACEMENT_3D('',#226,#190,#191);
#155=AXIS2_PLACEMENT_3D('',#228,#193,#194);
#156=AXIS2_PLACEMENT_3D('',#230,#196,#197);
#157=DIRECTION('axis',(0.,0.,1.));
#158=DIRECTION('refdir',(1.,0.,0.));
#159=DIRECTION('center_axis',(0.,0.,-1.));
#160=DIRECTION('ref_axis',(-1.,0.,0.));
#161=DIRECTION('center_axis',(0.,0.,-1.));
#162=DIRECTION('ref_axis',(1.,0.,0.));
#163=DIRECTION('center_axis',(0.,0.,1.));
#164=DIRECTION('ref_axis',(1.,0.,0.));
#165=DIRECTION('center_axis',(0.,0.,-1.));
#166=DIRECTION('ref_axis',(0.,-1.,0.));
#167=DIRECTION('center_axis',(0.,0.,1.));
#168=DIRECTION('ref_axis',(0.,-1.,0.));
#169=DIRECTION('center_axis',(0.,0.,1.));
#170=DIRECTION('ref_axis',(0.,-1.,0.));
#171=DIRECTION('',(-8.65955996108021E-17,-0.70710673208874,0.707106830284352));
#172=DIRECTION('center_axis',(0.,0.,-1.));
#173=DIRECTION('ref_axis',(0.,-1.,0.));
#174=DIRECTION('center_axis',(0.,0.,1.));
#175=DIRECTION('ref_axis',(1.,0.,0.));
#176=DIRECTION('center_axis',(0.,0.,-1.));
#177=DIRECTION('ref_axis',(1.,0.,0.));
#178=DIRECTION('center_axis',(0.,0.,-1.));
#179=DIRECTION('ref_axis',(0.,1.,0.));
#180=DIRECTION('center_axis',(0.,0.,-1.));
#181=DIRECTION('ref_axis',(1.,0.,0.));
#182=DIRECTION('',(0.,0.,1.));
#183=DIRECTION('center_axis',(0.,0.,-1.));
#184=DIRECTION('ref_axis',(0.,1.,0.));
#185=DIRECTION('center_axis',(0.,0.,-1.));
#186=DIRECTION('ref_axis',(1.,0.,0.));
#187=DIRECTION('',(1.2060416625019E-16,0.984807753012207,0.173648177666935));
#188=DIRECTION('center_axis',(0.,0.,-1.));
#189=DIRECTION('ref_axis',(1.,0.,0.));
#190=DIRECTION('center_axis',(0.,0.,-1.));
#191=DIRECTION('ref_axis',(0.,1.,0.));
#192=DIRECTION('',(0.,0.,1.));
#193=DIRECTION('center_axis',(0.,0.,-1.));
#194=DIRECTION('ref_axis',(0.,1.,0.));
#195=DIRECTION('',(0.,0.,1.));
#196=DIRECTION('center_axis',(0.,0.,1.));
#197=DIRECTION('ref_axis',(0.,1.,0.));
#198=DIRECTION('',(-2.12657684957575E-17,-0.173648177666929,0.984807753012208));
#199=CARTESIAN_POINT('',(0.,0.,0.));
#200=CARTESIAN_POINT('Origin',(0.,0.4945,-2.015));
#201=CARTESIAN_POINT('',(-1.22556524364979E-16,-1.00074996685009,-2.015));
#202=CARTESIAN_POINT('Origin',(0.,0.,-2.015));
#203=CARTESIAN_POINT('',(-6.05587842178366E-17,-0.4945,-2.015));
#204=CARTESIAN_POINT('Origin',(0.,0.,-2.015));
#205=CARTESIAN_POINT('Origin',(0.,0.,-0.0174999999999998));
#206=CARTESIAN_POINT('',(-1.2255652782944E-16,1.00074999513957,-0.0349999999999996));
#207=CARTESIAN_POINT('',(-1.2255652782944E-16,-1.00074999513957,-0.0349999999999996));
#208=CARTESIAN_POINT('Origin',(0.,0.,-0.0349999999999996));
#209=CARTESIAN_POINT('Origin',(0.,0.,-0.0349999999999996));
#210=CARTESIAN_POINT('',(1.18270264627656E-16,0.96575,0.));
#211=CARTESIAN_POINT('',(1.20413396228548E-16,0.983249997569783,-0.0174999999999998));
#212=CARTESIAN_POINT('Origin',(0.,0.,0.));
#213=CARTESIAN_POINT('Origin',(0.,1.00075,0.));
#214=CARTESIAN_POINT('',(-6.05587842178366E-17,-0.4945,0.));
#215=CARTESIAN_POINT('Origin',(0.,0.,0.));
#216=CARTESIAN_POINT('Origin',(0.,0.,-0.265748511600457));
#217=CARTESIAN_POINT('',(-1.2255652782944E-16,-1.00074999513957,-0.531497023200913));
#218=CARTESIAN_POINT('Origin',(0.,0.,-0.531497023200913));
#219=CARTESIAN_POINT('',(-1.2255652782944E-16,-1.00074999513957,-0.265748511600457));
#220=CARTESIAN_POINT('Origin',(0.,0.,-1.60851342703669));
#221=CARTESIAN_POINT('',(-1.22556524315988E-16,-1.00074996645005,-1.625));
#222=CARTESIAN_POINT('Origin',(0.,0.,-1.625));
#223=CARTESIAN_POINT('',(-9.96556288009549E-17,-0.813749963420792,-1.59202685407338));
#224=CARTESIAN_POINT('',(-1.11106076558471E-16,-0.907249964935424,-1.60851342703669));
#225=CARTESIAN_POINT('Origin',(0.,0.,-1.59202685407338));
#226=CARTESIAN_POINT('Origin',(0.,0.,-1.8125));
#227=CARTESIAN_POINT('',(-1.22556524364979E-16,-1.00074996685009,-1.8125));
#228=CARTESIAN_POINT('Origin',(0.,0.,-1.));
#229=CARTESIAN_POINT('',(-6.05587842178366E-17,-0.4945,-1.));
#230=CARTESIAN_POINT('Origin',(0.,0.,-1.06176193863714));
#231=CARTESIAN_POINT('',(-1.11106077783102E-16,-0.907249974935291,-1.06176193863714));
#232=UNCERTAINTY_MEASURE_WITH_UNIT(LENGTH_MEASURE(0.000393700787401575),
#237,'DISTANCE_ACCURACY_VALUE',
'Maximum model space distance between geometric entities at asserted c
onnectivities');
#233=UNCERTAINTY_MEASURE_WITH_UNIT(LENGTH_MEASURE(0.000393700787401575),
#237,'DISTANCE_ACCURACY_VALUE',
'Maximum model space distance between geometric entities at asserted c
onnectivities');
#234=(
GEOMETRIC_REPRESENTATION_CONTEXT(3)
GLOBAL_UNCERTAINTY_ASSIGNED_CONTEXT((#232))
GLOBAL_UNIT_ASSIGNED_CONTEXT((#237,#241,#242))
REPRESENTATION_CONTEXT('','3D')
);
#235=(
GEOMETRIC_REPRESENTATION_CONTEXT(3)
GLOBAL_UNCERTAINTY_ASSIGNED_CONTEXT((#233))
GLOBAL_UNIT_ASSIGNED_CONTEXT((#237,#241,#242))
REPRESENTATION_CONTEXT('','3D')
);
#236=DIMENSIONAL_EXPONENTS(1.,0.,0.,0.,0.,0.,0.);
#237=(
CONVERSION_BASED_UNIT('inch',#240)
LENGTH_UNIT()
NAMED_UNIT(#236)
);
#238=(
LENGTH_UNIT()
NAMED_UNIT(*)
SI_UNIT(.MILLI.,.METRE.)
);
#239=(
LENGTH_UNIT()
NAMED_UNIT(*)
SI_UNIT($,.METRE.)
);
#240=LENGTH_MEASURE_WITH_UNIT(LENGTH_MEASURE(25.4),#238);
#241=(
NAMED_UNIT(*)
PLANE_ANGLE_UNIT()
SI_UNIT($,.RADIAN.)
);
#242=(
NAMED_UNIT(*)
SI_UNIT($,.STERADIAN.)
SOLID_ANGLE_UNIT()
);
#243=SHAPE_DEFINITION_REPRESENTATION(#244,#245);
#244=PRODUCT_DEFINITION_SHAPE('',$,#247);
#245=SHAPE_REPRESENTATION('',(#139),#234);
#246=PRODUCT_DEFINITION_CONTEXT('part definition',#251,'design');
#247=PRODUCT_DEFINITION('HDC-11-X-TT - MACHINE 5',
'HDC-11-X-TT - MACHINE 5 v5',#248,#246);
#248=PRODUCT_DEFINITION_FORMATION('',$,#253);
#249=PRODUCT_RELATED_PRODUCT_CATEGORY('HDC-11-X-TT - MACHINE 5 v5',
'HDC-11-X-TT - MACHINE 5 v5',(#253));
#250=APPLICATION_PROTOCOL_DEFINITION('international standard',
'automotive_design',2009,#251);
#251=APPLICATION_CONTEXT(
'Core Data for Automotive Mechanical Design Process');
#252=PRODUCT_CONTEXT('part definition',#251,'mechanical');
#253=PRODUCT('HDC-11-X-TT - MACHINE 5','HDC-11-X-TT - MACHINE 5 v5',$,(#252));
#254=PRESENTATION_STYLE_ASSIGNMENT((#255));
#255=SURFACE_STYLE_USAGE(.BOTH.,#256);
#256=SURFACE_SIDE_STYLE('',(#257));
#257=SURFACE_STYLE_FILL_AREA(#258);
#258=FILL_AREA_STYLE('Steel - Satin',(#259));
#259=FILL_AREA_STYLE_COLOUR('Steel - Satin',#260);
#260=COLOUR_RGB('Steel - Satin',0.627450980392157,0.627450980392157,0.627450980392157);
ENDSEC;
END-ISO-10303-21;
