ISO-10303-21;
HEADER;
/* Generated by software containing ST-Developer
 * from STEP Tools, Inc. (www.steptools.com) 
 */

FILE_DESCRIPTION(
/* description */ (''),
/* implementation_level */ '2;1');

FILE_NAME(
/* name */ 'HF-20-10M-20-688 - MACHINE 5.step',
/* time_stamp */ '2026-01-07T10:38:10-06:00',
/* author */ (''),
/* organization */ (''),
/* preprocessor_version */ 'ST-DEVELOPER v20.1',
/* originating_system */ 'Autodesk Translation Framework v14.24.0.0',
/* authorisation */ '');

FILE_SCHEMA (('AUTOMOTIVE_DESIGN { 1 0 10303 214 3 1 1 }'));
ENDSEC;

DATA;
#10=MECHANICAL_DESIGN_GEOMETRIC_PRESENTATION_REPRESENTATION('',(#13),#221);
#11=SHAPE_REPRESENTATION_RELATIONSHIP('SRR','None',#231,#12);
#12=ADVANCED_BREP_SHAPE_REPRESENTATION('',(#14),#220);
#13=STYLED_ITEM('',(#240),#14);
#14=MANIFOLD_SOLID_BREP('Body1',#116);
#15=FACE_BOUND('',#33,.T.);
#16=FACE_BOUND('',#37,.T.);
#17=PLANE('',#139);
#18=PLANE('',#146);
#19=CYLINDRICAL_SURFACE('',#138,0.6075);
#20=CYLINDRICAL_SURFACE('',#144,0.125);
#21=TOROIDAL_SURFACE('',#134,0.6025,0.005);
#22=FACE_OUTER_BOUND('',#29,.T.);
#23=FACE_OUTER_BOUND('',#30,.T.);
#24=FACE_OUTER_BOUND('',#31,.T.);
#25=FACE_OUTER_BOUND('',#32,.T.);
#26=FACE_OUTER_BOUND('',#34,.T.);
#27=FACE_OUTER_BOUND('',#35,.T.);
#28=FACE_OUTER_BOUND('',#36,.T.);
#29=EDGE_LOOP('',(#79,#80,#81,#82,#83));
#30=EDGE_LOOP('',(#84,#85,#86,#87));
#31=EDGE_LOOP('',(#88,#89,#90,#91,#92));
#32=EDGE_LOOP('',(#93));
#33=EDGE_LOOP('',(#94));
#34=EDGE_LOOP('',(#95,#96,#97,#98,#99));
#35=EDGE_LOOP('',(#100,#101,#102,#103,#104));
#36=EDGE_LOOP('',(#105));
#37=EDGE_LOOP('',(#106));
#38=LINE('',#192,#42);
#39=LINE('',#203,#43);
#40=LINE('',#209,#44);
#41=LINE('',#215,#45);
#42=VECTOR('',#153,0.586340762314984);
#43=VECTOR('',#168,0.6075);
#44=VECTOR('',#175,0.5);
#45=VECTOR('',#182,0.125);
#46=CIRCLE('',#131,0.565181524629968);
#47=CIRCLE('',#132,0.6075);
#48=CIRCLE('',#133,0.6075);
#49=CIRCLE('',#135,0.6025);
#50=CIRCLE('',#136,0.005);
#51=CIRCLE('',#137,0.6075);
#52=CIRCLE('',#140,0.5);
#53=CIRCLE('',#142,0.125);
#54=CIRCLE('',#143,0.125);
#55=CIRCLE('',#145,0.125);
#56=VERTEX_POINT('',#189);
#57=VERTEX_POINT('',#191);
#58=VERTEX_POINT('',#193);
#59=VERTEX_POINT('',#197);
#60=VERTEX_POINT('',#199);
#61=VERTEX_POINT('',#205);
#62=VERTEX_POINT('',#208);
#63=VERTEX_POINT('',#210);
#64=VERTEX_POINT('',#214);
#65=EDGE_CURVE('',#56,#56,#46,.T.);
#66=EDGE_CURVE('',#56,#57,#38,.T.);
#67=EDGE_CURVE('',#58,#57,#47,.T.);
#68=EDGE_CURVE('',#57,#58,#48,.T.);
#69=EDGE_CURVE('',#59,#59,#49,.T.);
#70=EDGE_CURVE('',#59,#60,#50,.T.);
#71=EDGE_CURVE('',#60,#60,#51,.T.);
#72=EDGE_CURVE('',#60,#58,#39,.T.);
#73=EDGE_CURVE('',#61,#61,#52,.T.);
#74=EDGE_CURVE('',#61,#62,#40,.T.);
#75=EDGE_CURVE('',#63,#62,#53,.T.);
#76=EDGE_CURVE('',#62,#63,#54,.T.);
#77=EDGE_CURVE('',#63,#64,#41,.T.);
#78=EDGE_CURVE('',#64,#64,#55,.T.);
#79=ORIENTED_EDGE('',*,*,#65,.F.);
#80=ORIENTED_EDGE('',*,*,#66,.T.);
#81=ORIENTED_EDGE('',*,*,#67,.F.);
#82=ORIENTED_EDGE('',*,*,#68,.F.);
#83=ORIENTED_EDGE('',*,*,#66,.F.);
#84=ORIENTED_EDGE('',*,*,#69,.T.);
#85=ORIENTED_EDGE('',*,*,#70,.T.);
#86=ORIENTED_EDGE('',*,*,#71,.T.);
#87=ORIENTED_EDGE('',*,*,#70,.F.);
#88=ORIENTED_EDGE('',*,*,#71,.F.);
#89=ORIENTED_EDGE('',*,*,#72,.T.);
#90=ORIENTED_EDGE('',*,*,#67,.T.);
#91=ORIENTED_EDGE('',*,*,#68,.T.);
#92=ORIENTED_EDGE('',*,*,#72,.F.);
#93=ORIENTED_EDGE('',*,*,#69,.F.);
#94=ORIENTED_EDGE('',*,*,#73,.T.);
#95=ORIENTED_EDGE('',*,*,#73,.F.);
#96=ORIENTED_EDGE('',*,*,#74,.T.);
#97=ORIENTED_EDGE('',*,*,#75,.F.);
#98=ORIENTED_EDGE('',*,*,#76,.F.);
#99=ORIENTED_EDGE('',*,*,#74,.F.);
#100=ORIENTED_EDGE('',*,*,#75,.T.);
#101=ORIENTED_EDGE('',*,*,#76,.T.);
#102=ORIENTED_EDGE('',*,*,#77,.T.);
#103=ORIENTED_EDGE('',*,*,#78,.T.);
#104=ORIENTED_EDGE('',*,*,#77,.F.);
#105=ORIENTED_EDGE('',*,*,#65,.T.);
#106=ORIENTED_EDGE('',*,*,#78,.F.);
#107=CONICAL_SURFACE('',#130,0.586340762314984,0.174532925199433);
#108=CONICAL_SURFACE('',#141,0.5,1.22173047639603);
#109=ADVANCED_FACE('',(#22),#107,.T.);
#110=ADVANCED_FACE('',(#23),#21,.T.);
#111=ADVANCED_FACE('',(#24),#19,.T.);
#112=ADVANCED_FACE('',(#25,#15),#17,.T.);
#113=ADVANCED_FACE('',(#26),#108,.F.);
#114=ADVANCED_FACE('',(#27),#20,.F.);
#115=ADVANCED_FACE('',(#28,#16),#18,.F.);
#116=CLOSED_SHELL('',(#109,#110,#111,#112,#113,#114,#115));
#117=DERIVED_UNIT_ELEMENT(#119,1.);
#118=DERIVED_UNIT_ELEMENT(#225,-3.);
#119=(
MASS_UNIT()
NAMED_UNIT(*)
SI_UNIT(.KILO.,.GRAM.)
);
#120=DERIVED_UNIT((#117,#118));
#121=MEASURE_REPRESENTATION_ITEM('density measure',
POSITIVE_RATIO_MEASURE(7850.),#120);
#122=PROPERTY_DEFINITION_REPRESENTATION(#127,#124);
#123=PROPERTY_DEFINITION_REPRESENTATION(#128,#125);
#124=REPRESENTATION('material name',(#126),#220);
#125=REPRESENTATION('density',(#121),#220);
#126=DESCRIPTIVE_REPRESENTATION_ITEM('Steel','Steel');
#127=PROPERTY_DEFINITION('material property','material name',#233);
#128=PROPERTY_DEFINITION('material property','density of part',#233);
#129=AXIS2_PLACEMENT_3D('',#187,#147,#148);
#130=AXIS2_PLACEMENT_3D('',#188,#149,#150);
#131=AXIS2_PLACEMENT_3D('',#190,#151,#152);
#132=AXIS2_PLACEMENT_3D('',#194,#154,#155);
#133=AXIS2_PLACEMENT_3D('',#195,#156,#157);
#134=AXIS2_PLACEMENT_3D('',#196,#158,#159);
#135=AXIS2_PLACEMENT_3D('',#198,#160,#161);
#136=AXIS2_PLACEMENT_3D('',#200,#162,#163);
#137=AXIS2_PLACEMENT_3D('',#201,#164,#165);
#138=AXIS2_PLACEMENT_3D('',#202,#166,#167);
#139=AXIS2_PLACEMENT_3D('',#204,#169,#170);
#140=AXIS2_PLACEMENT_3D('',#206,#171,#172);
#141=AXIS2_PLACEMENT_3D('',#207,#173,#174);
#142=AXIS2_PLACEMENT_3D('',#211,#176,#177);
#143=AXIS2_PLACEMENT_3D('',#212,#178,#179);
#144=AXIS2_PLACEMENT_3D('',#213,#180,#181);
#145=AXIS2_PLACEMENT_3D('',#216,#183,#184);
#146=AXIS2_PLACEMENT_3D('',#217,#185,#186);
#147=DIRECTION('axis',(0.,0.,1.));
#148=DIRECTION('refdir',(1.,0.,0.));
#149=DIRECTION('center_axis',(0.,0.,1.));
#150=DIRECTION('ref_axis',(0.,-1.,0.));
#151=DIRECTION('center_axis',(0.,0.,-1.));
#152=DIRECTION('ref_axis',(0.,-1.,0.));
#153=DIRECTION('',(-2.12657684957577E-17,0.17364817766693,0.984807753012208));
#154=DIRECTION('center_axis',(0.,0.,1.));
#155=DIRECTION('ref_axis',(1.,0.,0.));
#156=DIRECTION('center_axis',(0.,0.,1.));
#157=DIRECTION('ref_axis',(1.,0.,0.));
#158=DIRECTION('center_axis',(0.,0.,1.));
#159=DIRECTION('ref_axis',(1.,0.,0.));
#160=DIRECTION('center_axis',(0.,0.,-1.));
#161=DIRECTION('ref_axis',(1.,0.,0.));
#162=DIRECTION('center_axis',(1.22464679914735E-16,-1.,0.));
#163=DIRECTION('ref_axis',(-1.,-1.22464679914735E-16,0.));
#164=DIRECTION('center_axis',(0.,0.,1.));
#165=DIRECTION('ref_axis',(1.,0.,0.));
#166=DIRECTION('center_axis',(0.,0.,1.));
#167=DIRECTION('ref_axis',(1.,0.,0.));
#168=DIRECTION('',(0.,0.,-1.));
#169=DIRECTION('center_axis',(0.,0.,1.));
#170=DIRECTION('ref_axis',(1.,0.,0.));
#171=DIRECTION('center_axis',(0.,0.,-1.));
#172=DIRECTION('ref_axis',(-1.,0.,0.));
#173=DIRECTION('center_axis',(2.66134346537616E-17,0.,1.));
#174=DIRECTION('ref_axis',(-1.,0.,0.));
#175=DIRECTION('',(-0.939692620785908,1.15079156022785E-16,-0.342020143325669));
#176=DIRECTION('center_axis',(0.,0.,1.));
#177=DIRECTION('ref_axis',(1.,0.,0.));
#178=DIRECTION('center_axis',(0.,0.,1.));
#179=DIRECTION('ref_axis',(1.,0.,0.));
#180=DIRECTION('center_axis',(0.,0.,1.));
#181=DIRECTION('ref_axis',(1.,0.,0.));
#182=DIRECTION('',(0.,0.,-1.));
#183=DIRECTION('center_axis',(0.,0.,-1.));
#184=DIRECTION('ref_axis',(1.,0.,0.));
#185=DIRECTION('center_axis',(0.,0.,1.));
#186=DIRECTION('ref_axis',(1.,0.,0.));
#187=CARTESIAN_POINT('',(0.,0.,0.));
#188=CARTESIAN_POINT('Origin',(0.,0.,0.12));
#189=CARTESIAN_POINT('',(-6.92147745075312E-17,0.565181524629968,-2.18547839493141E-17));
#190=CARTESIAN_POINT('Origin',(0.,0.,0.));
#191=CARTESIAN_POINT('',(-7.43972930482017E-17,0.6075,0.24));
#192=CARTESIAN_POINT('',(-7.18060337778664E-17,0.586340762314984,0.12));
#193=CARTESIAN_POINT('',(-0.6075,-7.43972930482017E-17,0.24));
#194=CARTESIAN_POINT('Origin',(0.,0.,0.24));
#195=CARTESIAN_POINT('Origin',(0.,0.,0.24));
#196=CARTESIAN_POINT('Origin',(0.,0.,0.635));
#197=CARTESIAN_POINT('',(-0.6025,7.3784969648628E-17,0.64));
#198=CARTESIAN_POINT('Origin',(0.,0.,0.64));
#199=CARTESIAN_POINT('',(-0.6075,-7.43972930482017E-17,0.635));
#200=CARTESIAN_POINT('Origin',(-0.6025,-7.3784969648628E-17,0.635));
#201=CARTESIAN_POINT('Origin',(0.,0.,0.635));
#202=CARTESIAN_POINT('Origin',(0.,0.,0.));
#203=CARTESIAN_POINT('',(-0.6075,-7.43972930482017E-17,0.));
#204=CARTESIAN_POINT('Origin',(0.,0.,0.64));
#205=CARTESIAN_POINT('',(0.5,-6.12323399573677E-17,0.64));
#206=CARTESIAN_POINT('Origin',(4.84324902277894E-18,0.,0.64));
#207=CARTESIAN_POINT('Origin',(4.84324902277894E-18,0.,0.64));
#208=CARTESIAN_POINT('',(0.125,-1.53080849893419E-17,0.503511162150174));
#209=CARTESIAN_POINT('',(0.5,-6.12323399573677E-17,0.64));
#210=CARTESIAN_POINT('',(-0.125,-1.53080849893419E-17,0.503511162150174));
#211=CARTESIAN_POINT('Origin',(0.,0.,0.503511162150174));
#212=CARTESIAN_POINT('Origin',(0.,0.,0.503511162150174));
#213=CARTESIAN_POINT('Origin',(0.,0.,0.));
#214=CARTESIAN_POINT('',(-0.125,-1.53080849893419E-17,0.));
#215=CARTESIAN_POINT('',(-0.125,-1.53080849893419E-17,0.));
#216=CARTESIAN_POINT('Origin',(0.,0.,0.));
#217=CARTESIAN_POINT('Origin',(0.,0.,0.));
#218=UNCERTAINTY_MEASURE_WITH_UNIT(LENGTH_MEASURE(0.000393700787401575),
#223,'DISTANCE_ACCURACY_VALUE',
'Maximum model space distance between geometric entities at asserted c
onnectivities');
#219=UNCERTAINTY_MEASURE_WITH_UNIT(LENGTH_MEASURE(0.000393700787401575),
#223,'DISTANCE_ACCURACY_VALUE',
'Maximum model space distance between geometric entities at asserted c
onnectivities');
#220=(
GEOMETRIC_REPRESENTATION_CONTEXT(3)
GLOBAL_UNCERTAINTY_ASSIGNED_CONTEXT((#218))
GLOBAL_UNIT_ASSIGNED_CONTEXT((#223,#227,#228))
REPRESENTATION_CONTEXT('','3D')
);
#221=(
GEOMETRIC_REPRESENTATION_CONTEXT(3)
GLOBAL_UNCERTAINTY_ASSIGNED_CONTEXT((#219))
GLOBAL_UNIT_ASSIGNED_CONTEXT((#223,#227,#228))
REPRESENTATION_CONTEXT('','3D')
);
#222=DIMENSIONAL_EXPONENTS(1.,0.,0.,0.,0.,0.,0.);
#223=(
CONVERSION_BASED_UNIT('inch',#226)
LENGTH_UNIT()
NAMED_UNIT(#222)
);
#224=(
LENGTH_UNIT()
NAMED_UNIT(*)
SI_UNIT(.MILLI.,.METRE.)
);
#225=(
LENGTH_UNIT()
NAMED_UNIT(*)
SI_UNIT($,.METRE.)
);
#226=LENGTH_MEASURE_WITH_UNIT(LENGTH_MEASURE(25.4),#224);
#227=(
NAMED_UNIT(*)
PLANE_ANGLE_UNIT()
SI_UNIT($,.RADIAN.)
);
#228=(
NAMED_UNIT(*)
SI_UNIT($,.STERADIAN.)
SOLID_ANGLE_UNIT()
);
#229=SHAPE_DEFINITION_REPRESENTATION(#230,#231);
#230=PRODUCT_DEFINITION_SHAPE('',$,#233);
#231=SHAPE_REPRESENTATION('',(#129),#220);
#232=PRODUCT_DEFINITION_CONTEXT('part definition',#237,'design');
#233=PRODUCT_DEFINITION('HF-20-10M-20-688 - MACHINE 5',
'HF-20-10M-20-688 - MACHINE 5 v10',#234,#232);
#234=PRODUCT_DEFINITION_FORMATION('',$,#239);
#235=PRODUCT_RELATED_PRODUCT_CATEGORY(
'HF-20-10M-20-688 - MACHINE 5 v10','HF-20-10M-20-688 - MACHINE 5 v10',(#239));
#236=APPLICATION_PROTOCOL_DEFINITION('international standard',
'automotive_design',2009,#237);
#237=APPLICATION_CONTEXT(
'Core Data for Automotive Mechanical Design Process');
#238=PRODUCT_CONTEXT('part definition',#237,'mechanical');
#239=PRODUCT('HF-20-10M-20-688 - MACHINE 5',
'HF-20-10M-20-688 - MACHINE 5 v10',$,(#238));
#240=PRESENTATION_STYLE_ASSIGNMENT((#241));
#241=SURFACE_STYLE_USAGE(.BOTH.,#242);
#242=SURFACE_SIDE_STYLE('',(#243));
#243=SURFACE_STYLE_FILL_AREA(#244);
#244=FILL_AREA_STYLE('Steel - Satin',(#245));
#245=FILL_AREA_STYLE_COLOUR('Steel - Satin',#246);
#246=COLOUR_RGB('Steel - Satin',0.627450980392157,0.627450980392157,0.627450980392157);
ENDSEC;
END-ISO-10303-21;
