ISO-10303-21;
HEADER;
/* Generated by software containing ST-Developer
 * from STEP Tools, Inc. (www.steptools.com) 
 */

FILE_DESCRIPTION(
/* description */ (''),
/* implementation_level */ '2;1');

FILE_NAME(
/* name */ 'HPS-12-M16 TIN COATED - MACHINE 4.step',
/* time_stamp */ '2026-01-07T10:39:59-06:00',
/* author */ (''),
/* organization */ (''),
/* preprocessor_version */ 'ST-DEVELOPER v20.1',
/* originating_system */ 'Autodesk Translation Framework v14.24.0.0',
/* authorisation */ '');

FILE_SCHEMA (('AUTOMOTIVE_DESIGN { 1 0 10303 214 3 1 1 }'));
ENDSEC;

DATA;
#10=MECHANICAL_DESIGN_GEOMETRIC_PRESENTATION_REPRESENTATION('',(#13),#569);
#11=SHAPE_REPRESENTATION_RELATIONSHIP('SRR','None',#579,#12);
#12=ADVANCED_BREP_SHAPE_REPRESENTATION('',(#14),#568);
#13=STYLED_ITEM('',(#588),#14);
#14=MANIFOLD_SOLID_BREP('Body1',#284);
#15=FACE_BOUND('',#115,.T.);
#16=B_SPLINE_CURVE_WITH_KNOTS('',3,(#427,#428,#429,#430,#431,#432,#433,
#434,#435,#436,#437,#438,#439,#440),.UNSPECIFIED.,.F.,.F.,(4,2,2,2,2,2,
4),(1.10440141333866,1.1223183334971,1.3202787432163,1.5182391529355,1.7161995626547,
1.91415997237391,1.93207689253234),.UNSPECIFIED.);
#17=B_SPLINE_CURVE_WITH_KNOTS('',3,(#449,#450,#451,#452,#453,#454,#455,
#456,#457,#458,#459,#460,#461,#462),.UNSPECIFIED.,.F.,.F.,(4,2,2,2,2,2,
4),(1.10440141333469,1.1223183334971,1.3202787432163,1.5182391529355,1.7161995626547,
1.9141599723739,1.93207689253631),.UNSPECIFIED.);
#18=B_SPLINE_CURVE_WITH_KNOTS('',3,(#468,#469,#470,#471,#472,#473,#474,
#475,#476,#477,#478,#479,#480,#481),.UNSPECIFIED.,.F.,.F.,(4,2,2,2,2,2,
4),(1.10440141333469,1.1223183334971,1.3202787432163,1.5182391529355,1.7161995626547,
1.91415997237391,1.93207689253234),.UNSPECIFIED.);
#19=B_SPLINE_CURVE_WITH_KNOTS('',3,(#483,#484,#485,#486,#487,#488,#489,
#490),.UNSPECIFIED.,.F.,.F.,(4,2,2,4),(1.10440141333469,1.1223183334971,
1.3202787432163,1.5182391529355),.UNSPECIFIED.);
#20=B_SPLINE_CURVE_WITH_KNOTS('',3,(#495,#496,#497,#498,#499,#500,#501,
#502),.UNSPECIFIED.,.F.,.F.,(4,2,2,4),(1.5182391529355,1.7161995626547,
1.9141599723739,1.93207689253234),.UNSPECIFIED.);
#21=B_SPLINE_CURVE_WITH_KNOTS('',3,(#504,#505,#506,#507,#508,#509,#510,
#511,#512,#513,#514,#515,#516,#517),.UNSPECIFIED.,.F.,.F.,(4,2,2,2,2,2,
4),(1.10440141333469,1.1223183334971,1.3202787432163,1.5182391529355,1.7161995626547,
1.91415997237391,1.93207689253234),.UNSPECIFIED.);
#22=B_SPLINE_CURVE_WITH_KNOTS('',3,(#518,#519,#520,#521,#522,#523,#524,
#525,#526,#527,#528,#529,#530,#531),.UNSPECIFIED.,.F.,.F.,(4,2,2,2,2,2,
4),(1.10440141333469,1.1223183334971,1.3202787432163,1.5182391529355,1.7161995626547,
1.9141599723739,1.93207689253234),.UNSPECIFIED.);
#23=ELLIPSE('',#306,0.21650635094611,0.1875);
#24=ELLIPSE('',#307,0.21650635094611,0.1875);
#25=ELLIPSE('',#310,0.21650635094611,0.1875);
#26=ELLIPSE('',#314,0.21650635094611,0.1875);
#27=ELLIPSE('',#319,0.21650635094611,0.1875);
#28=ELLIPSE('',#321,0.21650635094611,0.1875);
#29=CYLINDRICAL_SURFACE('',#305,0.1875);
#30=CYLINDRICAL_SURFACE('',#309,0.1875);
#31=CYLINDRICAL_SURFACE('',#311,0.3125);
#32=CYLINDRICAL_SURFACE('',#313,0.1875);
#33=CYLINDRICAL_SURFACE('',#318,0.1875);
#34=CYLINDRICAL_SURFACE('',#320,0.1875);
#35=CYLINDRICAL_SURFACE('',#324,0.1875);
#36=PLANE('',#304);
#37=PLANE('',#308);
#38=PLANE('',#315);
#39=PLANE('',#316);
#40=PLANE('',#317);
#41=PLANE('',#322);
#42=PLANE('',#323);
#43=PLANE('',#325);
#44=PLANE('',#326);
#45=LINE('',#416,#65);
#46=LINE('',#424,#66);
#47=LINE('',#443,#67);
#48=LINE('',#445,#68);
#49=LINE('',#446,#69);
#50=LINE('',#465,#70);
#51=LINE('',#492,#71);
#52=LINE('',#534,#72);
#53=LINE('',#538,#73);
#54=LINE('',#539,#74);
#55=LINE('',#542,#75);
#56=LINE('',#544,#76);
#57=LINE('',#545,#77);
#58=LINE('',#548,#78);
#59=LINE('',#550,#79);
#60=LINE('',#551,#80);
#61=LINE('',#556,#81);
#62=LINE('',#559,#82);
#63=LINE('',#561,#83);
#64=LINE('',#562,#84);
#65=VECTOR('',#339,0.197431505070667);
#66=VECTOR('',#348,0.393700787401575);
#67=VECTOR('',#353,0.393700787401575);
#68=VECTOR('',#354,0.393700787401575);
#69=VECTOR('',#355,0.393700787401575);
#70=VECTOR('',#360,0.393700787401575);
#71=VECTOR('',#363,0.3125);
#72=VECTOR('',#368,0.393700787401575);
#73=VECTOR('',#373,0.393700787401575);
#74=VECTOR('',#374,0.393700787401575);
#75=VECTOR('',#377,0.393700787401575);
#76=VECTOR('',#378,0.393700787401575);
#77=VECTOR('',#379,0.393700787401575);
#78=VECTOR('',#382,0.393700787401575);
#79=VECTOR('',#383,0.393700787401575);
#80=VECTOR('',#384,0.393700787401575);
#81=VECTOR('',#391,0.393700787401575);
#82=VECTOR('',#396,0.393700787401575);
#83=VECTOR('',#399,0.393700787401575);
#84=VECTOR('',#400,0.393700787401575);
#85=CONICAL_SURFACE('',#302,0.197431505070667,0.0872664625997152);
#86=FACE_OUTER_BOUND('',#104,.T.);
#87=FACE_OUTER_BOUND('',#105,.T.);
#88=FACE_OUTER_BOUND('',#106,.T.);
#89=FACE_OUTER_BOUND('',#107,.T.);
#90=FACE_OUTER_BOUND('',#108,.T.);
#91=FACE_OUTER_BOUND('',#109,.T.);
#92=FACE_OUTER_BOUND('',#110,.T.);
#93=FACE_OUTER_BOUND('',#111,.T.);
#94=FACE_OUTER_BOUND('',#112,.T.);
#95=FACE_OUTER_BOUND('',#113,.T.);
#96=FACE_OUTER_BOUND('',#114,.T.);
#97=FACE_OUTER_BOUND('',#116,.T.);
#98=FACE_OUTER_BOUND('',#117,.T.);
#99=FACE_OUTER_BOUND('',#118,.T.);
#100=FACE_OUTER_BOUND('',#119,.T.);
#101=FACE_OUTER_BOUND('',#120,.T.);
#102=FACE_OUTER_BOUND('',#121,.T.);
#103=FACE_OUTER_BOUND('',#122,.T.);
#104=EDGE_LOOP('',(#189,#190,#191,#192));
#105=EDGE_LOOP('',(#193,#194,#195,#196));
#106=EDGE_LOOP('',(#197));
#107=EDGE_LOOP('',(#198,#199,#200,#201));
#108=EDGE_LOOP('',(#202,#203,#204,#205));
#109=EDGE_LOOP('',(#206,#207,#208,#209));
#110=EDGE_LOOP('',(#210,#211,#212,#213,#214,#215,#216,#217,#218,#219));
#111=EDGE_LOOP('',(#220,#221,#222,#223));
#112=EDGE_LOOP('',(#224,#225,#226,#227));
#113=EDGE_LOOP('',(#228,#229,#230,#231));
#114=EDGE_LOOP('',(#232,#233,#234,#235,#236,#237));
#115=EDGE_LOOP('',(#238));
#116=EDGE_LOOP('',(#239,#240,#241,#242,#243));
#117=EDGE_LOOP('',(#244,#245,#246,#247));
#118=EDGE_LOOP('',(#248,#249,#250,#251));
#119=EDGE_LOOP('',(#252,#253,#254,#255));
#120=EDGE_LOOP('',(#256,#257,#258,#259));
#121=EDGE_LOOP('',(#260,#261,#262,#263));
#122=EDGE_LOOP('',(#264));
#123=CIRCLE('',#299,0.177136386660985);
#124=CIRCLE('',#300,0.02);
#125=CIRCLE('',#301,0.19706028062282);
#126=CIRCLE('',#303,0.1994);
#127=CIRCLE('',#312,0.3125);
#128=VERTEX_POINT('',#409);
#129=VERTEX_POINT('',#411);
#130=VERTEX_POINT('',#415);
#131=VERTEX_POINT('',#420);
#132=VERTEX_POINT('',#421);
#133=VERTEX_POINT('',#423);
#134=VERTEX_POINT('',#425);
#135=VERTEX_POINT('',#442);
#136=VERTEX_POINT('',#444);
#137=VERTEX_POINT('',#448);
#138=VERTEX_POINT('',#463);
#139=VERTEX_POINT('',#467);
#140=VERTEX_POINT('',#482);
#141=VERTEX_POINT('',#491);
#142=VERTEX_POINT('',#494);
#143=VERTEX_POINT('',#503);
#144=VERTEX_POINT('',#533);
#145=VERTEX_POINT('',#537);
#146=VERTEX_POINT('',#541);
#147=VERTEX_POINT('',#543);
#148=VERTEX_POINT('',#547);
#149=VERTEX_POINT('',#549);
#150=VERTEX_POINT('',#555);
#151=EDGE_CURVE('',#128,#128,#123,.T.);
#152=EDGE_CURVE('',#128,#129,#124,.T.);
#153=EDGE_CURVE('',#129,#129,#125,.T.);
#154=EDGE_CURVE('',#129,#130,#45,.T.);
#155=EDGE_CURVE('',#130,#130,#126,.T.);
#156=EDGE_CURVE('',#131,#132,#23,.T.);
#157=EDGE_CURVE('',#133,#131,#46,.T.);
#158=EDGE_CURVE('',#134,#133,#24,.T.);
#159=EDGE_CURVE('',#132,#134,#16,.T.);
#160=EDGE_CURVE('',#135,#131,#47,.T.);
#161=EDGE_CURVE('',#136,#135,#48,.T.);
#162=EDGE_CURVE('',#133,#136,#49,.T.);
#163=EDGE_CURVE('',#137,#132,#17,.T.);
#164=EDGE_CURVE('',#137,#138,#25,.T.);
#165=EDGE_CURVE('',#131,#138,#50,.T.);
#166=EDGE_CURVE('',#134,#139,#18,.T.);
#167=EDGE_CURVE('',#139,#140,#19,.T.);
#168=EDGE_CURVE('',#140,#141,#51,.T.);
#169=EDGE_CURVE('',#141,#141,#127,.F.);
#170=EDGE_CURVE('',#140,#142,#20,.T.);
#171=EDGE_CURVE('',#142,#143,#21,.T.);
#172=EDGE_CURVE('',#143,#137,#22,.T.);
#173=EDGE_CURVE('',#144,#133,#52,.T.);
#174=EDGE_CURVE('',#139,#144,#26,.T.);
#175=EDGE_CURVE('',#145,#136,#53,.T.);
#176=EDGE_CURVE('',#144,#145,#54,.T.);
#177=EDGE_CURVE('',#146,#145,#55,.T.);
#178=EDGE_CURVE('',#147,#146,#56,.T.);
#179=EDGE_CURVE('',#147,#144,#57,.T.);
#180=EDGE_CURVE('',#135,#148,#58,.T.);
#181=EDGE_CURVE('',#148,#149,#59,.T.);
#182=EDGE_CURVE('',#149,#146,#60,.T.);
#183=EDGE_CURVE('',#142,#147,#27,.T.);
#184=EDGE_CURVE('',#150,#147,#61,.T.);
#185=EDGE_CURVE('',#143,#150,#28,.T.);
#186=EDGE_CURVE('',#150,#149,#62,.T.);
#187=EDGE_CURVE('',#138,#148,#63,.T.);
#188=EDGE_CURVE('',#138,#150,#64,.T.);
#189=ORIENTED_EDGE('',*,*,#151,.T.);
#190=ORIENTED_EDGE('',*,*,#152,.T.);
#191=ORIENTED_EDGE('',*,*,#153,.T.);
#192=ORIENTED_EDGE('',*,*,#152,.F.);
#193=ORIENTED_EDGE('',*,*,#153,.F.);
#194=ORIENTED_EDGE('',*,*,#154,.T.);
#195=ORIENTED_EDGE('',*,*,#155,.T.);
#196=ORIENTED_EDGE('',*,*,#154,.F.);
#197=ORIENTED_EDGE('',*,*,#151,.F.);
#198=ORIENTED_EDGE('',*,*,#156,.F.);
#199=ORIENTED_EDGE('',*,*,#157,.F.);
#200=ORIENTED_EDGE('',*,*,#158,.F.);
#201=ORIENTED_EDGE('',*,*,#159,.F.);
#202=ORIENTED_EDGE('',*,*,#160,.F.);
#203=ORIENTED_EDGE('',*,*,#161,.F.);
#204=ORIENTED_EDGE('',*,*,#162,.F.);
#205=ORIENTED_EDGE('',*,*,#157,.T.);
#206=ORIENTED_EDGE('',*,*,#156,.T.);
#207=ORIENTED_EDGE('',*,*,#163,.F.);
#208=ORIENTED_EDGE('',*,*,#164,.T.);
#209=ORIENTED_EDGE('',*,*,#165,.F.);
#210=ORIENTED_EDGE('',*,*,#159,.T.);
#211=ORIENTED_EDGE('',*,*,#166,.T.);
#212=ORIENTED_EDGE('',*,*,#167,.T.);
#213=ORIENTED_EDGE('',*,*,#168,.T.);
#214=ORIENTED_EDGE('',*,*,#169,.T.);
#215=ORIENTED_EDGE('',*,*,#168,.F.);
#216=ORIENTED_EDGE('',*,*,#170,.T.);
#217=ORIENTED_EDGE('',*,*,#171,.T.);
#218=ORIENTED_EDGE('',*,*,#172,.T.);
#219=ORIENTED_EDGE('',*,*,#163,.T.);
#220=ORIENTED_EDGE('',*,*,#158,.T.);
#221=ORIENTED_EDGE('',*,*,#173,.F.);
#222=ORIENTED_EDGE('',*,*,#174,.F.);
#223=ORIENTED_EDGE('',*,*,#166,.F.);
#224=ORIENTED_EDGE('',*,*,#162,.T.);
#225=ORIENTED_EDGE('',*,*,#175,.F.);
#226=ORIENTED_EDGE('',*,*,#176,.F.);
#227=ORIENTED_EDGE('',*,*,#173,.T.);
#228=ORIENTED_EDGE('',*,*,#176,.T.);
#229=ORIENTED_EDGE('',*,*,#177,.F.);
#230=ORIENTED_EDGE('',*,*,#178,.F.);
#231=ORIENTED_EDGE('',*,*,#179,.T.);
#232=ORIENTED_EDGE('',*,*,#161,.T.);
#233=ORIENTED_EDGE('',*,*,#180,.T.);
#234=ORIENTED_EDGE('',*,*,#181,.T.);
#235=ORIENTED_EDGE('',*,*,#182,.T.);
#236=ORIENTED_EDGE('',*,*,#177,.T.);
#237=ORIENTED_EDGE('',*,*,#175,.T.);
#238=ORIENTED_EDGE('',*,*,#155,.F.);
#239=ORIENTED_EDGE('',*,*,#174,.T.);
#240=ORIENTED_EDGE('',*,*,#179,.F.);
#241=ORIENTED_EDGE('',*,*,#183,.F.);
#242=ORIENTED_EDGE('',*,*,#170,.F.);
#243=ORIENTED_EDGE('',*,*,#167,.F.);
#244=ORIENTED_EDGE('',*,*,#183,.T.);
#245=ORIENTED_EDGE('',*,*,#184,.F.);
#246=ORIENTED_EDGE('',*,*,#185,.F.);
#247=ORIENTED_EDGE('',*,*,#171,.F.);
#248=ORIENTED_EDGE('',*,*,#178,.T.);
#249=ORIENTED_EDGE('',*,*,#182,.F.);
#250=ORIENTED_EDGE('',*,*,#186,.F.);
#251=ORIENTED_EDGE('',*,*,#184,.T.);
#252=ORIENTED_EDGE('',*,*,#186,.T.);
#253=ORIENTED_EDGE('',*,*,#181,.F.);
#254=ORIENTED_EDGE('',*,*,#187,.F.);
#255=ORIENTED_EDGE('',*,*,#188,.T.);
#256=ORIENTED_EDGE('',*,*,#185,.T.);
#257=ORIENTED_EDGE('',*,*,#188,.F.);
#258=ORIENTED_EDGE('',*,*,#164,.F.);
#259=ORIENTED_EDGE('',*,*,#172,.F.);
#260=ORIENTED_EDGE('',*,*,#160,.T.);
#261=ORIENTED_EDGE('',*,*,#165,.T.);
#262=ORIENTED_EDGE('',*,*,#187,.T.);
#263=ORIENTED_EDGE('',*,*,#180,.F.);
#264=ORIENTED_EDGE('',*,*,#169,.F.);
#265=TOROIDAL_SURFACE('',#298,0.177136386660985,0.02);
#266=ADVANCED_FACE('',(#86),#265,.T.);
#267=ADVANCED_FACE('',(#87),#85,.T.);
#268=ADVANCED_FACE('',(#88),#36,.T.);
#269=ADVANCED_FACE('',(#89),#29,.F.);
#270=ADVANCED_FACE('',(#90),#37,.F.);
#271=ADVANCED_FACE('',(#91),#30,.F.);
#272=ADVANCED_FACE('',(#92),#31,.T.);
#273=ADVANCED_FACE('',(#93),#32,.F.);
#274=ADVANCED_FACE('',(#94),#38,.F.);
#275=ADVANCED_FACE('',(#95),#39,.F.);
#276=ADVANCED_FACE('',(#96,#15),#40,.T.);
#277=ADVANCED_FACE('',(#97),#33,.F.);
#278=ADVANCED_FACE('',(#98),#34,.F.);
#279=ADVANCED_FACE('',(#99),#41,.F.);
#280=ADVANCED_FACE('',(#100),#42,.F.);
#281=ADVANCED_FACE('',(#101),#35,.F.);
#282=ADVANCED_FACE('',(#102),#43,.F.);
#283=ADVANCED_FACE('',(#103),#44,.T.);
#284=CLOSED_SHELL('',(#266,#267,#268,#269,#270,#271,#272,#273,#274,#275,
#276,#277,#278,#279,#280,#281,#282,#283));
#285=DERIVED_UNIT_ELEMENT(#287,1.);
#286=DERIVED_UNIT_ELEMENT(#573,-3.);
#287=(
MASS_UNIT()
NAMED_UNIT(*)
SI_UNIT(.KILO.,.GRAM.)
);
#288=DERIVED_UNIT((#285,#286));
#289=MEASURE_REPRESENTATION_ITEM('density measure',
POSITIVE_RATIO_MEASURE(7850.),#288);
#290=PROPERTY_DEFINITION_REPRESENTATION(#295,#292);
#291=PROPERTY_DEFINITION_REPRESENTATION(#296,#293);
#292=REPRESENTATION('material name',(#294),#568);
#293=REPRESENTATION('density',(#289),#568);
#294=DESCRIPTIVE_REPRESENTATION_ITEM('Steel','Steel');
#295=PROPERTY_DEFINITION('material property','material name',#581);
#296=PROPERTY_DEFINITION('material property','density of part',#581);
#297=AXIS2_PLACEMENT_3D('',#407,#327,#328);
#298=AXIS2_PLACEMENT_3D('',#408,#329,#330);
#299=AXIS2_PLACEMENT_3D('',#410,#331,#332);
#300=AXIS2_PLACEMENT_3D('',#412,#333,#334);
#301=AXIS2_PLACEMENT_3D('',#413,#335,#336);
#302=AXIS2_PLACEMENT_3D('',#414,#337,#338);
#303=AXIS2_PLACEMENT_3D('',#417,#340,#341);
#304=AXIS2_PLACEMENT_3D('',#418,#342,#343);
#305=AXIS2_PLACEMENT_3D('',#419,#344,#345);
#306=AXIS2_PLACEMENT_3D('',#422,#346,#347);
#307=AXIS2_PLACEMENT_3D('',#426,#349,#350);
#308=AXIS2_PLACEMENT_3D('',#441,#351,#352);
#309=AXIS2_PLACEMENT_3D('',#447,#356,#357);
#310=AXIS2_PLACEMENT_3D('',#464,#358,#359);
#311=AXIS2_PLACEMENT_3D('',#466,#361,#362);
#312=AXIS2_PLACEMENT_3D('',#493,#364,#365);
#313=AXIS2_PLACEMENT_3D('',#532,#366,#367);
#314=AXIS2_PLACEMENT_3D('',#535,#369,#370);
#315=AXIS2_PLACEMENT_3D('',#536,#371,#372);
#316=AXIS2_PLACEMENT_3D('',#540,#375,#376);
#317=AXIS2_PLACEMENT_3D('',#546,#380,#381);
#318=AXIS2_PLACEMENT_3D('',#552,#385,#386);
#319=AXIS2_PLACEMENT_3D('',#553,#387,#388);
#320=AXIS2_PLACEMENT_3D('',#554,#389,#390);
#321=AXIS2_PLACEMENT_3D('',#557,#392,#393);
#322=AXIS2_PLACEMENT_3D('',#558,#394,#395);
#323=AXIS2_PLACEMENT_3D('',#560,#397,#398);
#324=AXIS2_PLACEMENT_3D('',#563,#401,#402);
#325=AXIS2_PLACEMENT_3D('',#564,#403,#404);
#326=AXIS2_PLACEMENT_3D('',#565,#405,#406);
#327=DIRECTION('axis',(0.,0.,1.));
#328=DIRECTION('refdir',(1.,0.,0.));
#329=DIRECTION('center_axis',(0.,0.,1.));
#330=DIRECTION('ref_axis',(1.,0.,0.));
#331=DIRECTION('center_axis',(0.,0.,-1.));
#332=DIRECTION('ref_axis',(-1.,1.22464679914735E-16,0.));
#333=DIRECTION('center_axis',(1.22464679914735E-16,-1.,0.));
#334=DIRECTION('ref_axis',(-1.,-1.22464679914735E-16,0.));
#335=DIRECTION('center_axis',(0.,0.,1.));
#336=DIRECTION('ref_axis',(-1.,0.,0.));
#337=DIRECTION('center_axis',(0.,0.,-1.));
#338=DIRECTION('ref_axis',(1.,0.,0.));
#339=DIRECTION('',(-0.0871557427476569,-1.06735001383228E-17,-0.996194698091746));
#340=DIRECTION('center_axis',(0.,0.,1.));
#341=DIRECTION('ref_axis',(1.,0.,0.));
#342=DIRECTION('center_axis',(0.,0.,1.));
#343=DIRECTION('ref_axis',(1.,0.,0.));
#344=DIRECTION('center_axis',(-0.866025403784439,-0.499999999999999,0.));
#345=DIRECTION('ref_axis',(0.499999999999999,-0.866025403784439,0.));
#346=DIRECTION('center_axis',(-0.5,-0.866025403784439,0.));
#347=DIRECTION('ref_axis',(0.866025403784438,-0.5,0.));
#348=DIRECTION('',(0.866025403784439,0.499999999999999,0.));
#349=DIRECTION('center_axis',(1.,-6.05657539018445E-16,0.));
#350=DIRECTION('ref_axis',(-6.56129000603316E-16,-1.,0.));
#351=DIRECTION('center_axis',(-0.499999999999999,0.866025403784439,0.));
#352=DIRECTION('ref_axis',(0.,0.,-1.));
#353=DIRECTION('',(0.,0.,-1.));
#354=DIRECTION('',(0.866025403784439,0.499999999999999,0.));
#355=DIRECTION('',(0.,0.,1.));
#356=DIRECTION('center_axis',(0.,-1.,0.));
#357=DIRECTION('ref_axis',(1.,0.,0.));
#358=DIRECTION('center_axis',(-0.5,0.866025403784439,0.));
#359=DIRECTION('ref_axis',(0.866025403784439,0.5,0.));
#360=DIRECTION('',(0.,1.,0.));
#361=DIRECTION('center_axis',(0.,0.,1.));
#362=DIRECTION('ref_axis',(1.,0.,0.));
#363=DIRECTION('',(0.,0.,-1.));
#364=DIRECTION('center_axis',(0.,0.,-1.));
#365=DIRECTION('ref_axis',(1.,0.,0.));
#366=DIRECTION('center_axis',(-0.866025403784438,0.5,0.));
#367=DIRECTION('ref_axis',(-0.500000000000001,-0.866025403784438,0.));
#368=DIRECTION('',(0.866025403784438,-0.5,0.));
#369=DIRECTION('center_axis',(0.5,-0.866025403784439,0.));
#370=DIRECTION('ref_axis',(-0.866025403784439,-0.5,0.));
#371=DIRECTION('center_axis',(0.5,0.866025403784438,0.));
#372=DIRECTION('ref_axis',(0.,0.,-1.));
#373=DIRECTION('',(0.866025403784438,-0.5,0.));
#374=DIRECTION('',(0.,0.,1.));
#375=DIRECTION('center_axis',(1.,-1.22464679914735E-16,0.));
#376=DIRECTION('ref_axis',(0.,0.,-1.));
#377=DIRECTION('',(-1.22464679914735E-16,-1.,0.));
#378=DIRECTION('',(0.,0.,1.));
#379=DIRECTION('',(-1.22464679914735E-16,-1.,0.));
#380=DIRECTION('center_axis',(0.,0.,1.));
#381=DIRECTION('ref_axis',(1.,0.,0.));
#382=DIRECTION('',(0.,1.,0.));
#383=DIRECTION('',(-0.866025403784439,0.5,0.));
#384=DIRECTION('',(-0.866025403784439,-0.5,0.));
#385=DIRECTION('center_axis',(1.22464679914735E-16,1.,0.));
#386=DIRECTION('ref_axis',(-1.,1.22464679914735E-16,0.));
#387=DIRECTION('center_axis',(-0.5,-0.866025403784439,0.));
#388=DIRECTION('ref_axis',(-0.866025403784439,0.5,0.));
#389=DIRECTION('center_axis',(0.866025403784439,0.5,0.));
#390=DIRECTION('ref_axis',(-0.5,0.866025403784439,0.));
#391=DIRECTION('',(-0.866025403784439,-0.5,0.));
#392=DIRECTION('center_axis',(-1.,3.02828769509223E-16,0.));
#393=DIRECTION('ref_axis',(2.52357307924352E-16,1.,0.));
#394=DIRECTION('center_axis',(0.5,-0.866025403784439,0.));
#395=DIRECTION('ref_axis',(0.,0.,-1.));
#396=DIRECTION('',(0.,0.,1.));
#397=DIRECTION('center_axis',(-0.5,-0.866025403784439,0.));
#398=DIRECTION('ref_axis',(0.,0.,-1.));
#399=DIRECTION('',(0.,0.,1.));
#400=DIRECTION('',(-0.866025403784439,0.5,0.));
#401=DIRECTION('center_axis',(0.866025403784439,-0.5,0.));
#402=DIRECTION('ref_axis',(0.5,0.866025403784439,0.));
#403=DIRECTION('center_axis',(-1.,0.,0.));
#404=DIRECTION('ref_axis',(0.,0.,-1.));
#405=DIRECTION('center_axis',(0.,0.,-1.));
#406=DIRECTION('ref_axis',(-1.,0.,0.));
#407=CARTESIAN_POINT('',(0.,0.,0.));
#408=CARTESIAN_POINT('Origin',(0.,0.,-0.02));
#409=CARTESIAN_POINT('',(-0.177136386660985,-2.16929508936903E-17,0.));
#410=CARTESIAN_POINT('Origin',(0.,0.,0.));
#411=CARTESIAN_POINT('',(-0.19706028062282,-2.41329241903816E-17,-0.0182568851450468));
#412=CARTESIAN_POINT('Origin',(-0.177136386660985,-2.16929508936903E-17,
-0.02));
#413=CARTESIAN_POINT('Origin',(0.,-2.41329241903816E-17,-0.0182568851450468));
#414=CARTESIAN_POINT('Origin',(0.,0.,-0.0225));
#415=CARTESIAN_POINT('',(-0.1994,-2.44194571749982E-17,-0.045));
#416=CARTESIAN_POINT('',(-0.197431505070667,-2.41783860735637E-17,-0.0225));
#417=CARTESIAN_POINT('Origin',(0.,0.,-0.045));
#418=CARTESIAN_POINT('Origin',(0.,0.,0.));
#419=CARTESIAN_POINT('Origin',(0.20825,-0.360699580676219,-0.8735));
#420=CARTESIAN_POINT('',(0.229,-0.132213211644424,-0.8735));
#421=CARTESIAN_POINT('',(0.270632938682013,-0.156250000000578,-0.991309381725532));
#422=CARTESIAN_POINT('Origin',(0.4165,-0.240466387117479,-0.8735));
#423=CARTESIAN_POINT('',(-1.96693055543827E-16,-0.264426423288849,-0.8735));
#424=CARTESIAN_POINT('',(0.1145,-0.198319817466637,-0.8735));
#425=CARTESIAN_POINT('',(8.12390126735894E-13,-0.312499999999749,-0.991309381725532));
#426=CARTESIAN_POINT('Origin',(-3.49676543189026E-16,-0.480932774234958,
-0.8735));
#427=CARTESIAN_POINT('Ctrl Pts',(0.270632938682423,-0.15625000000037,-0.991309381726155));
#428=CARTESIAN_POINT('Ctrl Pts',(0.269593447054025,-0.158050452314792,-0.992596440421106));
#429=CARTESIAN_POINT('Ctrl Pts',(0.268540015252285,-0.159833325361722,-0.993821141142875));
#430=CARTESIAN_POINT('Ctrl Pts',(0.255800089133359,-0.180922767373639,-1.00780466418886));
#431=CARTESIAN_POINT('Ctrl Pts',(0.239804898060838,-0.202210826920772,-1.01659867369539));
#432=CARTESIAN_POINT('Ctrl Pts',(0.20127568420025,-0.240590392536143,-1.02737264995583));
#433=CARTESIAN_POINT('Ctrl Pts',(0.178748522803203,-0.257643410485839,-1.0295136212002));
#434=CARTESIAN_POINT('Ctrl Pts',(0.133751477196797,-0.283622466879435,-1.0295136212002));
#435=CARTESIAN_POINT('Ctrl Pts',(0.107719549742644,-0.294605051949582,-1.02737264995583));
#436=CARTESIAN_POINT('Ctrl Pts',(0.0552172640032274,-0.30878254713301,-1.01659867369539));
#437=CARTESIAN_POINT('Ctrl Pts',(0.0287836681018742,-0.311990759166632,
-1.00780466418886));
#438=CARTESIAN_POINT('Ctrl Pts',(0.00414971250845177,-0.312479137822001,
-0.993821141142875));
#439=CARTESIAN_POINT('Ctrl Pts',(0.00207898325721804,-0.312499999999997,
-0.992596440421107));
#440=CARTESIAN_POINT('Ctrl Pts',(4.26620396738202E-13,-0.3125,-0.991309381726155));
#441=CARTESIAN_POINT('Origin',(0.1145,-0.198319817466637,-0.045));
#442=CARTESIAN_POINT('',(0.229,-0.132213211644424,-0.045));
#443=CARTESIAN_POINT('',(0.229,-0.132213211644424,-0.045));
#444=CARTESIAN_POINT('',(-1.96693055543827E-16,-0.264426423288849,-0.045));
#445=CARTESIAN_POINT('',(0.189275,-0.155148451087982,-0.045));
#446=CARTESIAN_POINT('',(-2.45866319429784E-16,-0.264426423288849,-0.045));
#447=CARTESIAN_POINT('Origin',(0.4165,0.,-0.8735));
#448=CARTESIAN_POINT('',(0.270632938682014,0.156250000000578,-0.991309381725532));
#449=CARTESIAN_POINT('Ctrl Pts',(0.270632938682158,0.156250000000829,-0.991309381725298));
#450=CARTESIAN_POINT('Ctrl Pts',(0.271672430310792,0.154449547686005,-0.992596440420563));
#451=CARTESIAN_POINT('Ctrl Pts',(0.272689727760519,0.152645812460676,-0.993821141142618));
#452=CARTESIAN_POINT('Ctrl Pts',(0.284583757235233,0.131067991792993,-1.00780466418886));
#453=CARTESIAN_POINT('Ctrl Pts',(0.295022162064066,0.106571720212238,-1.01659867369539));
#454=CARTESIAN_POINT('Ctrl Pts',(0.308995233942895,0.0540146594134399,-1.02737264995583));
#455=CARTESIAN_POINT('Ctrl Pts',(0.3125,0.0259790563935961,-1.0295136212002));
#456=CARTESIAN_POINT('Ctrl Pts',(0.3125,-0.0259790563935961,-1.0295136212002));
#457=CARTESIAN_POINT('Ctrl Pts',(0.308995233942895,-0.0540146594134399,
-1.02737264995583));
#458=CARTESIAN_POINT('Ctrl Pts',(0.295022162064066,-0.106571720212238,-1.01659867369539));
#459=CARTESIAN_POINT('Ctrl Pts',(0.284583757235233,-0.131067991792993,-1.00780466418886));
#460=CARTESIAN_POINT('Ctrl Pts',(0.272689727760518,-0.152645812460676,-0.993821141142618));
#461=CARTESIAN_POINT('Ctrl Pts',(0.271672430310792,-0.154449547686006,-0.992596440420563));
#462=CARTESIAN_POINT('Ctrl Pts',(0.270632938682158,-0.156250000000829,-0.991309381725298));
#463=CARTESIAN_POINT('',(0.229,0.132213211644424,-0.8735));
#464=CARTESIAN_POINT('Origin',(0.4165,0.240466387117479,-0.8735));
#465=CARTESIAN_POINT('',(0.229,0.,-0.8735));
#466=CARTESIAN_POINT('Origin',(0.,0.,-1.05675));
#467=CARTESIAN_POINT('',(-0.270632938682013,-0.156250000000578,-0.991309381725532));
#468=CARTESIAN_POINT('Ctrl Pts',(9.57204609522328E-13,-0.3125,-0.991309381725298));
#469=CARTESIAN_POINT('Ctrl Pts',(-0.00207898325629919,-0.312500000000006,
-0.992596440420563));
#470=CARTESIAN_POINT('Ctrl Pts',(-0.00414971250799836,-0.31247913782201,
-0.993821141142618));
#471=CARTESIAN_POINT('Ctrl Pts',(-0.0287836681018745,-0.311990759166632,
-1.00780466418886));
#472=CARTESIAN_POINT('Ctrl Pts',(-0.0552172640032277,-0.30878254713301,
-1.01659867369539));
#473=CARTESIAN_POINT('Ctrl Pts',(-0.107719549742644,-0.294605051949582,
-1.02737264995583));
#474=CARTESIAN_POINT('Ctrl Pts',(-0.133751477196797,-0.283622466879435,
-1.0295136212002));
#475=CARTESIAN_POINT('Ctrl Pts',(-0.178748522803203,-0.257643410485839,
-1.0295136212002));
#476=CARTESIAN_POINT('Ctrl Pts',(-0.201275684200251,-0.240590392536142,
-1.02737264995583));
#477=CARTESIAN_POINT('Ctrl Pts',(-0.239804898060839,-0.202210826920772,
-1.01659867369539));
#478=CARTESIAN_POINT('Ctrl Pts',(-0.255800089133359,-0.180922767373639,
-1.00780466418886));
#479=CARTESIAN_POINT('Ctrl Pts',(-0.268540015252286,-0.159833325361722,
-0.993821141142875));
#480=CARTESIAN_POINT('Ctrl Pts',(-0.269593447054026,-0.158050452314792,
-0.992596440421106));
#481=CARTESIAN_POINT('Ctrl Pts',(-0.270632938682424,-0.15625000000037,-0.991309381726155));
#482=CARTESIAN_POINT('',(-0.3125,5.45152570630098E-18,-1.0295136212002));
#483=CARTESIAN_POINT('Ctrl Pts',(-0.270632938682158,-0.156250000000829,
-0.991309381725298));
#484=CARTESIAN_POINT('Ctrl Pts',(-0.271672430310792,-0.154449547686006,
-0.992596440420563));
#485=CARTESIAN_POINT('Ctrl Pts',(-0.272689727760519,-0.152645812460676,
-0.993821141142618));
#486=CARTESIAN_POINT('Ctrl Pts',(-0.284583757235233,-0.131067991792993,
-1.00780466418886));
#487=CARTESIAN_POINT('Ctrl Pts',(-0.295022162064066,-0.106571720212238,
-1.01659867369539));
#488=CARTESIAN_POINT('Ctrl Pts',(-0.308995233942895,-0.0540146594134398,
-1.02737264995583));
#489=CARTESIAN_POINT('Ctrl Pts',(-0.3125,-0.025979056393596,-1.0295136212002));
#490=CARTESIAN_POINT('Ctrl Pts',(-0.3125,4.91732638859567E-17,-1.0295136212002));
#491=CARTESIAN_POINT('',(-0.3125,3.82702124733548E-17,-1.255));
#492=CARTESIAN_POINT('',(-0.3125,-3.82702124733548E-17,-1.05675));
#493=CARTESIAN_POINT('Origin',(0.,0.,-1.255));
#494=CARTESIAN_POINT('',(-0.270632938682826,0.156249999999171,-0.991309381725532));
#495=CARTESIAN_POINT('Ctrl Pts',(-0.3125,3.82458719112997E-17,-1.0295136212002));
#496=CARTESIAN_POINT('Ctrl Pts',(-0.3125,0.0259790563935961,-1.0295136212002));
#497=CARTESIAN_POINT('Ctrl Pts',(-0.308995233942895,0.0540146594134399,
-1.02737264995583));
#498=CARTESIAN_POINT('Ctrl Pts',(-0.295022162064066,0.106571720212238,-1.01659867369539));
#499=CARTESIAN_POINT('Ctrl Pts',(-0.284583757235233,0.131067991792993,-1.00780466418886));
#500=CARTESIAN_POINT('Ctrl Pts',(-0.272689727760738,0.152645812460279,-0.993821141142875));
#501=CARTESIAN_POINT('Ctrl Pts',(-0.271672430311244,0.154449547685205,-0.992596440421106));
#502=CARTESIAN_POINT('Ctrl Pts',(-0.270632938682851,0.15624999999963,-0.991309381726155));
#503=CARTESIAN_POINT('',(-8.12405151899859E-13,0.312499999999749,-0.991309381725532));
#504=CARTESIAN_POINT('Ctrl Pts',(-0.270632938683116,0.156249999999171,-0.991309381725298));
#505=CARTESIAN_POINT('Ctrl Pts',(-0.269593447054493,0.158050452314001,-0.992596440420563));
#506=CARTESIAN_POINT('Ctrl Pts',(-0.26854001525252,0.159833325361334,-0.993821141142618));
#507=CARTESIAN_POINT('Ctrl Pts',(-0.255800089133359,0.180922767373639,-1.00780466418886));
#508=CARTESIAN_POINT('Ctrl Pts',(-0.239804898060838,0.202210826920772,-1.01659867369539));
#509=CARTESIAN_POINT('Ctrl Pts',(-0.20127568420025,0.240590392536142,-1.02737264995583));
#510=CARTESIAN_POINT('Ctrl Pts',(-0.178748522803203,0.257643410485839,-1.0295136212002));
#511=CARTESIAN_POINT('Ctrl Pts',(-0.133751477196797,0.283622466879435,-1.0295136212002));
#512=CARTESIAN_POINT('Ctrl Pts',(-0.107719549742644,0.294605051949582,-1.02737264995583));
#513=CARTESIAN_POINT('Ctrl Pts',(-0.0552172640032276,0.30878254713301,-1.01659867369539));
#514=CARTESIAN_POINT('Ctrl Pts',(-0.0287836681018745,0.311990759166632,
-1.00780466418886));
#515=CARTESIAN_POINT('Ctrl Pts',(-0.00414971250845199,0.312479137822001,
-0.993821141142875));
#516=CARTESIAN_POINT('Ctrl Pts',(-0.00207898325721808,0.312499999999997,
-0.992596440421107));
#517=CARTESIAN_POINT('Ctrl Pts',(-4.26622175890209E-13,0.3125,-0.991309381726155));
#518=CARTESIAN_POINT('Ctrl Pts',(-9.57277804906915E-13,0.3125,-0.991309381725298));
#519=CARTESIAN_POINT('Ctrl Pts',(0.00207898325629928,0.312500000000006,
-0.992596440420563));
#520=CARTESIAN_POINT('Ctrl Pts',(0.00414971250799839,0.31247913782201,-0.993821141142618));
#521=CARTESIAN_POINT('Ctrl Pts',(0.0287836681018746,0.311990759166632,-1.00780466418886));
#522=CARTESIAN_POINT('Ctrl Pts',(0.0552172640032277,0.30878254713301,-1.01659867369539));
#523=CARTESIAN_POINT('Ctrl Pts',(0.107719549742644,0.294605051949582,-1.02737264995583));
#524=CARTESIAN_POINT('Ctrl Pts',(0.133751477196797,0.283622466879435,-1.0295136212002));
#525=CARTESIAN_POINT('Ctrl Pts',(0.178748522803203,0.257643410485839,-1.0295136212002));
#526=CARTESIAN_POINT('Ctrl Pts',(0.201275684200251,0.240590392536142,-1.02737264995583));
#527=CARTESIAN_POINT('Ctrl Pts',(0.239804898060838,0.202210826920772,-1.01659867369539));
#528=CARTESIAN_POINT('Ctrl Pts',(0.255800089133359,0.180922767373639,-1.00780466418886));
#529=CARTESIAN_POINT('Ctrl Pts',(0.268540015252286,0.159833325361722,-0.993821141142875));
#530=CARTESIAN_POINT('Ctrl Pts',(0.269593447054025,0.158050452314792,-0.992596440421106));
#531=CARTESIAN_POINT('Ctrl Pts',(0.270632938682424,0.15625000000037,-0.991309381726155));
#532=CARTESIAN_POINT('Origin',(-0.20825,-0.360699580676219,-0.8735));
#533=CARTESIAN_POINT('',(-0.229,-0.132213211644424,-0.8735));
#534=CARTESIAN_POINT('',(-0.1145,-0.198319817466636,-0.8735));
#535=CARTESIAN_POINT('Origin',(-0.4165,-0.240466387117479,-0.8735));
#536=CARTESIAN_POINT('Origin',(-0.1145,-0.198319817466636,-0.045));
#537=CARTESIAN_POINT('',(-0.229,-0.132213211644424,-0.045));
#538=CARTESIAN_POINT('',(-0.0397250000000001,-0.241491183845291,-0.045));
#539=CARTESIAN_POINT('',(-0.229,-0.132213211644424,-0.045));
#540=CARTESIAN_POINT('Origin',(-0.229,2.80444117004744E-17,-0.045));
#541=CARTESIAN_POINT('',(-0.229,0.132213211644424,-0.045));
#542=CARTESIAN_POINT('',(-0.229,4.02541402879735E-17,-0.045));
#543=CARTESIAN_POINT('',(-0.229,0.132213211644424,-0.8735));
#544=CARTESIAN_POINT('',(-0.229,0.132213211644424,-0.045));
#545=CARTESIAN_POINT('',(-0.229,2.80444117004744E-17,-0.8735));
#546=CARTESIAN_POINT('Origin',(0.1994,0.,-0.045));
#547=CARTESIAN_POINT('',(0.229,0.132213211644424,-0.045));
#548=CARTESIAN_POINT('',(0.229,0.,-0.045));
#549=CARTESIAN_POINT('',(6.55643518479423E-17,0.264426423288849,-0.045));
#550=CARTESIAN_POINT('',(0.189275,0.155148451087982,-0.045));
#551=CARTESIAN_POINT('',(-0.0397249999999999,0.241491183845291,-0.045));
#552=CARTESIAN_POINT('Origin',(-0.4165,5.10065391844873E-17,-0.8735));
#553=CARTESIAN_POINT('Origin',(-0.4165,0.240466387117479,-0.8735));
#554=CARTESIAN_POINT('Origin',(-0.20825,0.360699580676219,-0.8735));
#555=CARTESIAN_POINT('',(2.18547839493141E-17,0.264426423288849,-0.8735));
#556=CARTESIAN_POINT('',(-0.1145,0.198319817466636,-0.8735));
#557=CARTESIAN_POINT('Origin',(8.74191357972564E-17,0.480932774234958,-0.8735));
#558=CARTESIAN_POINT('Origin',(-0.1145,0.198319817466636,-0.045));
#559=CARTESIAN_POINT('',(3.27821759239712E-17,0.264426423288849,-0.045));
#560=CARTESIAN_POINT('Origin',(0.1145,0.198319817466636,-0.045));
#561=CARTESIAN_POINT('',(0.229,0.132213211644424,-0.045));
#562=CARTESIAN_POINT('',(0.1145,0.198319817466636,-0.8735));
#563=CARTESIAN_POINT('Origin',(0.20825,0.360699580676219,-0.8735));
#564=CARTESIAN_POINT('Origin',(0.229,0.,-0.045));
#565=CARTESIAN_POINT('Origin',(0.3125,0.,-1.255));
#566=UNCERTAINTY_MEASURE_WITH_UNIT(LENGTH_MEASURE(0.000393700787401575),
#571,'DISTANCE_ACCURACY_VALUE',
'Maximum model space distance between geometric entities at asserted c
onnectivities');
#567=UNCERTAINTY_MEASURE_WITH_UNIT(LENGTH_MEASURE(0.000393700787401575),
#571,'DISTANCE_ACCURACY_VALUE',
'Maximum model space distance between geometric entities at asserted c
onnectivities');
#568=(
GEOMETRIC_REPRESENTATION_CONTEXT(3)
GLOBAL_UNCERTAINTY_ASSIGNED_CONTEXT((#566))
GLOBAL_UNIT_ASSIGNED_CONTEXT((#571,#575,#576))
REPRESENTATION_CONTEXT('','3D')
);
#569=(
GEOMETRIC_REPRESENTATION_CONTEXT(3)
GLOBAL_UNCERTAINTY_ASSIGNED_CONTEXT((#567))
GLOBAL_UNIT_ASSIGNED_CONTEXT((#571,#575,#576))
REPRESENTATION_CONTEXT('','3D')
);
#570=DIMENSIONAL_EXPONENTS(1.,0.,0.,0.,0.,0.,0.);
#571=(
CONVERSION_BASED_UNIT('inch',#574)
LENGTH_UNIT()
NAMED_UNIT(#570)
);
#572=(
LENGTH_UNIT()
NAMED_UNIT(*)
SI_UNIT(.MILLI.,.METRE.)
);
#573=(
LENGTH_UNIT()
NAMED_UNIT(*)
SI_UNIT($,.METRE.)
);
#574=LENGTH_MEASURE_WITH_UNIT(LENGTH_MEASURE(25.4),#572);
#575=(
NAMED_UNIT(*)
PLANE_ANGLE_UNIT()
SI_UNIT($,.RADIAN.)
);
#576=(
NAMED_UNIT(*)
SI_UNIT($,.STERADIAN.)
SOLID_ANGLE_UNIT()
);
#577=SHAPE_DEFINITION_REPRESENTATION(#578,#579);
#578=PRODUCT_DEFINITION_SHAPE('',$,#581);
#579=SHAPE_REPRESENTATION('',(#297),#568);
#580=PRODUCT_DEFINITION_CONTEXT('part definition',#585,'design');
#581=PRODUCT_DEFINITION('HPS-12-M16 TIN COATED - MACHINE 4',
'HPS-12-M16 TIN COATED - MACHINE 4 v10',#582,#580);
#582=PRODUCT_DEFINITION_FORMATION('',$,#587);
#583=PRODUCT_RELATED_PRODUCT_CATEGORY(
'HPS-12-M16 TIN COATED - MACHINE 4 v10',
'HPS-12-M16 TIN COATED - MACHINE 4 v10',(#587));
#584=APPLICATION_PROTOCOL_DEFINITION('international standard',
'automotive_design',2009,#585);
#585=APPLICATION_CONTEXT(
'Core Data for Automotive Mechanical Design Process');
#586=PRODUCT_CONTEXT('part definition',#585,'mechanical');
#587=PRODUCT('HPS-12-M16 TIN COATED - MACHINE 4',
'HPS-12-M16 TIN COATED - MACHINE 4 v10',$,(#586));
#588=PRESENTATION_STYLE_ASSIGNMENT((#589));
#589=SURFACE_STYLE_USAGE(.BOTH.,#590);
#590=SURFACE_SIDE_STYLE('',(#591));
#591=SURFACE_STYLE_FILL_AREA(#592);
#592=FILL_AREA_STYLE('Steel - Satin',(#593));
#593=FILL_AREA_STYLE_COLOUR('Steel - Satin',#594);
#594=COLOUR_RGB('Steel - Satin',0.627450980392157,0.627450980392157,0.627450980392157);
ENDSEC;
END-ISO-10303-21;
