ISO-10303-21;
HEADER;
/* Generated by software containing ST-Developer
 * from STEP Tools, Inc. (www.steptools.com) 
 */

FILE_DESCRIPTION(
/* description */ (''),
/* implementation_level */ '2;1');

FILE_NAME(
/* name */ 'PC1058.step',
/* time_stamp */ '2026-01-07T10:41:26-06:00',
/* author */ (''),
/* organization */ (''),
/* preprocessor_version */ 'ST-DEVELOPER v20.1',
/* originating_system */ 'Autodesk Translation Framework v14.24.0.0',
/* authorisation */ '');

FILE_SCHEMA (('AUTOMOTIVE_DESIGN { 1 0 10303 214 3 1 1 }'));
ENDSEC;

DATA;
#10=MECHANICAL_DESIGN_GEOMETRIC_PRESENTATION_REPRESENTATION('',(#13),#772);
#11=SHAPE_REPRESENTATION_RELATIONSHIP('SRR','None',#782,#12);
#12=ADVANCED_BREP_SHAPE_REPRESENTATION('',(#14),#771);
#13=STYLED_ITEM('',(#791),#14);
#14=MANIFOLD_SOLID_BREP('Body1',#432);
#15=(
BOUNDED_CURVE()
B_SPLINE_CURVE(2,(#657,#658,#659),.UNSPECIFIED.,.F.,.F.)
B_SPLINE_CURVE_WITH_KNOTS((3,3),(0.,2.2909016498),.UNSPECIFIED.)
CURVE()
GEOMETRIC_REPRESENTATION_ITEM()
RATIONAL_B_SPLINE_CURVE((1.,1.11208791208791,1.))
REPRESENTATION_ITEM('')
);
#16=(
BOUNDED_CURVE()
B_SPLINE_CURVE(2,(#668,#669,#670),.UNSPECIFIED.,.F.,.F.)
B_SPLINE_CURVE_WITH_KNOTS((3,3),(0.,2.2909016498),.UNSPECIFIED.)
CURVE()
GEOMETRIC_REPRESENTATION_ITEM()
RATIONAL_B_SPLINE_CURVE((1.,1.1120879120879,1.))
REPRESENTATION_ITEM('')
);
#17=(
BOUNDED_CURVE()
B_SPLINE_CURVE(2,(#684,#685,#686),.UNSPECIFIED.,.F.,.F.)
B_SPLINE_CURVE_WITH_KNOTS((3,3),(0.,2.29090164979999),.UNSPECIFIED.)
CURVE()
GEOMETRIC_REPRESENTATION_ITEM()
RATIONAL_B_SPLINE_CURVE((1.,1.11208791208791,1.))
REPRESENTATION_ITEM('')
);
#18=(
BOUNDED_CURVE()
B_SPLINE_CURVE(2,(#690,#691,#692),.UNSPECIFIED.,.F.,.F.)
B_SPLINE_CURVE_WITH_KNOTS((3,3),(0.,2.29090164979999),.UNSPECIFIED.)
CURVE()
GEOMETRIC_REPRESENTATION_ITEM()
RATIONAL_B_SPLINE_CURVE((1.,1.11208791208791,1.))
REPRESENTATION_ITEM('')
);
#19=(
BOUNDED_CURVE()
B_SPLINE_CURVE(2,(#697,#698,#699),.UNSPECIFIED.,.F.,.F.)
B_SPLINE_CURVE_WITH_KNOTS((3,3),(0.,1.14545082489999),.UNSPECIFIED.)
CURVE()
GEOMETRIC_REPRESENTATION_ITEM()
RATIONAL_B_SPLINE_CURVE((1.,1.05604395604395,1.05604395604395))
REPRESENTATION_ITEM('')
);
#20=(
BOUNDED_CURVE()
B_SPLINE_CURVE(2,(#704,#705,#706),.UNSPECIFIED.,.F.,.F.)
B_SPLINE_CURVE_WITH_KNOTS((3,3),(1.14545082489999,2.29090164979999),
 .UNSPECIFIED.)
CURVE()
GEOMETRIC_REPRESENTATION_ITEM()
RATIONAL_B_SPLINE_CURVE((1.05604395604395,1.05604395604395,1.))
REPRESENTATION_ITEM('')
);
#21=(
BOUNDED_CURVE()
B_SPLINE_CURVE(2,(#710,#711,#712),.UNSPECIFIED.,.F.,.F.)
B_SPLINE_CURVE_WITH_KNOTS((3,3),(0.,2.29090164979999),.UNSPECIFIED.)
CURVE()
GEOMETRIC_REPRESENTATION_ITEM()
RATIONAL_B_SPLINE_CURVE((1.,1.11208791208791,1.))
REPRESENTATION_ITEM('')
);
#22=CYLINDRICAL_SURFACE('',#451,0.669734251968504);
#23=CYLINDRICAL_SURFACE('',#456,0.835);
#24=CYLINDRICAL_SURFACE('',#460,1.012);
#25=CYLINDRICAL_SURFACE('',#470,1.012);
#26=CYLINDRICAL_SURFACE('',#474,1.012);
#27=CYLINDRICAL_SURFACE('',#476,1.012);
#28=CYLINDRICAL_SURFACE('',#478,1.012);
#29=CYLINDRICAL_SURFACE('',#484,0.69);
#30=CYLINDRICAL_SURFACE('',#489,0.63);
#31=CYLINDRICAL_SURFACE('',#496,1.012);
#32=FACE_BOUND('',#78,.T.);
#33=FACE_BOUND('',#95,.T.);
#34=FACE_BOUND('',#98,.T.);
#35=FACE_BOUND('',#101,.T.);
#36=FACE_BOUND('',#104,.T.);
#37=FACE_BOUND('',#107,.T.);
#38=PLANE('',#449);
#39=PLANE('',#458);
#40=PLANE('',#459);
#41=PLANE('',#472);
#42=PLANE('',#473);
#43=PLANE('',#480);
#44=PLANE('',#481);
#45=PLANE('',#482);
#46=PLANE('',#487);
#47=PLANE('',#491);
#48=PLANE('',#495);
#49=PLANE('',#497);
#50=FACE_OUTER_BOUND('',#76,.T.);
#51=FACE_OUTER_BOUND('',#77,.T.);
#52=FACE_OUTER_BOUND('',#79,.T.);
#53=FACE_OUTER_BOUND('',#80,.T.);
#54=FACE_OUTER_BOUND('',#81,.T.);
#55=FACE_OUTER_BOUND('',#82,.T.);
#56=FACE_OUTER_BOUND('',#83,.T.);
#57=FACE_OUTER_BOUND('',#84,.T.);
#58=FACE_OUTER_BOUND('',#85,.T.);
#59=FACE_OUTER_BOUND('',#86,.T.);
#60=FACE_OUTER_BOUND('',#87,.T.);
#61=FACE_OUTER_BOUND('',#88,.T.);
#62=FACE_OUTER_BOUND('',#89,.T.);
#63=FACE_OUTER_BOUND('',#90,.T.);
#64=FACE_OUTER_BOUND('',#91,.T.);
#65=FACE_OUTER_BOUND('',#92,.T.);
#66=FACE_OUTER_BOUND('',#93,.T.);
#67=FACE_OUTER_BOUND('',#94,.T.);
#68=FACE_OUTER_BOUND('',#96,.T.);
#69=FACE_OUTER_BOUND('',#97,.T.);
#70=FACE_OUTER_BOUND('',#99,.T.);
#71=FACE_OUTER_BOUND('',#100,.T.);
#72=FACE_OUTER_BOUND('',#102,.T.);
#73=FACE_OUTER_BOUND('',#103,.T.);
#74=FACE_OUTER_BOUND('',#105,.T.);
#75=FACE_OUTER_BOUND('',#106,.T.);
#76=EDGE_LOOP('',(#284,#285,#286,#287));
#77=EDGE_LOOP('',(#288));
#78=EDGE_LOOP('',(#289));
#79=EDGE_LOOP('',(#290,#291,#292,#293));
#80=EDGE_LOOP('',(#294,#295,#296,#297,#298));
#81=EDGE_LOOP('',(#299,#300,#301,#302,#303));
#82=EDGE_LOOP('',(#304,#305,#306,#307));
#83=EDGE_LOOP('',(#308,#309,#310,#311));
#84=EDGE_LOOP('',(#312,#313,#314,#315));
#85=EDGE_LOOP('',(#316,#317,#318,#319,#320,#321,#322,#323,#324,#325,#326,
#327,#328,#329,#330,#331));
#86=EDGE_LOOP('',(#332,#333,#334,#335));
#87=EDGE_LOOP('',(#336,#337,#338,#339));
#88=EDGE_LOOP('',(#340,#341,#342,#343));
#89=EDGE_LOOP('',(#344,#345,#346,#347));
#90=EDGE_LOOP('',(#348,#349,#350,#351));
#91=EDGE_LOOP('',(#352,#353,#354,#355));
#92=EDGE_LOOP('',(#356,#357,#358,#359,#360));
#93=EDGE_LOOP('',(#361,#362,#363,#364));
#94=EDGE_LOOP('',(#365,#366,#367,#368,#369,#370,#371,#372,#373,#374,#375,
#376));
#95=EDGE_LOOP('',(#377));
#96=EDGE_LOOP('',(#378,#379,#380,#381));
#97=EDGE_LOOP('',(#382));
#98=EDGE_LOOP('',(#383));
#99=EDGE_LOOP('',(#384,#385,#386,#387));
#100=EDGE_LOOP('',(#388));
#101=EDGE_LOOP('',(#389));
#102=EDGE_LOOP('',(#390,#391,#392,#393));
#103=EDGE_LOOP('',(#394));
#104=EDGE_LOOP('',(#395));
#105=EDGE_LOOP('',(#396,#397,#398,#399));
#106=EDGE_LOOP('',(#400));
#107=EDGE_LOOP('',(#401));
#108=LINE('',#635,#134);
#109=LINE('',#642,#135);
#110=LINE('',#646,#136);
#111=LINE('',#652,#137);
#112=LINE('',#661,#138);
#113=LINE('',#663,#139);
#114=LINE('',#664,#140);
#115=LINE('',#672,#141);
#116=LINE('',#674,#142);
#117=LINE('',#675,#143);
#118=LINE('',#680,#144);
#119=LINE('',#701,#145);
#120=LINE('',#717,#146);
#121=LINE('',#721,#147);
#122=LINE('',#722,#148);
#123=LINE('',#723,#149);
#124=LINE('',#727,#150);
#125=LINE('',#728,#151);
#126=LINE('',#729,#152);
#127=LINE('',#734,#153);
#128=LINE('',#738,#154);
#129=LINE('',#741,#155);
#130=LINE('',#743,#156);
#131=LINE('',#750,#157);
#132=LINE('',#757,#158);
#133=LINE('',#764,#159);
#134=VECTOR('',#504,0.699734251968504);
#135=VECTOR('',#513,0.666043307086614);
#136=VECTOR('',#518,0.831);
#137=VECTOR('',#525,0.835);
#138=VECTOR('',#530,0.393700787401575);
#139=VECTOR('',#531,0.393700787401575);
#140=VECTOR('',#532,0.393700787401575);
#141=VECTOR('',#535,0.393700787401575);
#142=VECTOR('',#536,0.393700787401575);
#143=VECTOR('',#537,0.393700787401575);
#144=VECTOR('',#542,0.393700787401575);
#145=VECTOR('',#553,0.8365);
#146=VECTOR('',#564,0.393700787401575);
#147=VECTOR('',#567,0.393700787401575);
#148=VECTOR('',#568,0.393700787401575);
#149=VECTOR('',#569,0.393700787401575);
#150=VECTOR('',#572,0.393700787401575);
#151=VECTOR('',#573,0.393700787401575);
#152=VECTOR('',#574,0.393700787401575);
#153=VECTOR('',#581,0.393700787401575);
#154=VECTOR('',#586,0.393700787401575);
#155=VECTOR('',#591,0.393700787401575);
#156=VECTOR('',#594,0.393700787401575);
#157=VECTOR('',#603,0.69);
#158=VECTOR('',#612,0.63);
#159=VECTOR('',#621,0.530051396851782);
#160=CIRCLE('',#447,0.669734251968504);
#161=CIRCLE('',#448,0.729734251968504);
#162=CIRCLE('',#450,0.827);
#163=CIRCLE('',#452,0.669734251968504);
#164=CIRCLE('',#454,0.835);
#165=CIRCLE('',#455,0.835);
#166=CIRCLE('',#457,0.835);
#167=CIRCLE('',#461,1.012);
#168=CIRCLE('',#462,1.012);
#169=CIRCLE('',#464,1.012);
#170=CIRCLE('',#465,1.012);
#171=CIRCLE('',#466,1.012);
#172=CIRCLE('',#467,0.643123696111087);
#173=CIRCLE('',#468,1.012);
#174=CIRCLE('',#469,1.012);
#175=CIRCLE('',#471,1.012);
#176=CIRCLE('',#475,1.012);
#177=CIRCLE('',#477,1.012);
#178=CIRCLE('',#479,1.012);
#179=CIRCLE('',#483,1.012);
#180=CIRCLE('',#485,0.69);
#181=CIRCLE('',#486,0.69);
#182=CIRCLE('',#488,0.63);
#183=CIRCLE('',#490,0.63);
#184=CIRCLE('',#492,0.552602793703564);
#185=CIRCLE('',#494,0.506451097820847);
#186=VERTEX_POINT('',#632);
#187=VERTEX_POINT('',#634);
#188=VERTEX_POINT('',#638);
#189=VERTEX_POINT('',#641);
#190=VERTEX_POINT('',#645);
#191=VERTEX_POINT('',#647);
#192=VERTEX_POINT('',#651);
#193=VERTEX_POINT('',#655);
#194=VERTEX_POINT('',#656);
#195=VERTEX_POINT('',#660);
#196=VERTEX_POINT('',#662);
#197=VERTEX_POINT('',#666);
#198=VERTEX_POINT('',#667);
#199=VERTEX_POINT('',#671);
#200=VERTEX_POINT('',#673);
#201=VERTEX_POINT('',#677);
#202=VERTEX_POINT('',#679);
#203=VERTEX_POINT('',#683);
#204=VERTEX_POINT('',#687);
#205=VERTEX_POINT('',#689);
#206=VERTEX_POINT('',#694);
#207=VERTEX_POINT('',#696);
#208=VERTEX_POINT('',#700);
#209=VERTEX_POINT('',#703);
#210=VERTEX_POINT('',#707);
#211=VERTEX_POINT('',#709);
#212=VERTEX_POINT('',#715);
#213=VERTEX_POINT('',#719);
#214=VERTEX_POINT('',#720);
#215=VERTEX_POINT('',#725);
#216=VERTEX_POINT('',#726);
#217=VERTEX_POINT('',#733);
#218=VERTEX_POINT('',#737);
#219=VERTEX_POINT('',#747);
#220=VERTEX_POINT('',#749);
#221=VERTEX_POINT('',#753);
#222=VERTEX_POINT('',#756);
#223=VERTEX_POINT('',#760);
#224=VERTEX_POINT('',#763);
#225=EDGE_CURVE('',#186,#186,#160,.T.);
#226=EDGE_CURVE('',#186,#187,#108,.T.);
#227=EDGE_CURVE('',#187,#187,#161,.T.);
#228=EDGE_CURVE('',#188,#188,#162,.T.);
#229=EDGE_CURVE('',#186,#189,#109,.T.);
#230=EDGE_CURVE('',#189,#189,#163,.F.);
#231=EDGE_CURVE('',#188,#190,#110,.T.);
#232=EDGE_CURVE('',#190,#191,#164,.T.);
#233=EDGE_CURVE('',#191,#190,#165,.T.);
#234=EDGE_CURVE('',#191,#192,#111,.T.);
#235=EDGE_CURVE('',#192,#192,#166,.T.);
#236=EDGE_CURVE('',#193,#194,#15,.T.);
#237=EDGE_CURVE('',#195,#193,#112,.T.);
#238=EDGE_CURVE('',#196,#195,#113,.T.);
#239=EDGE_CURVE('',#194,#196,#114,.T.);
#240=EDGE_CURVE('',#197,#198,#16,.T.);
#241=EDGE_CURVE('',#199,#197,#115,.T.);
#242=EDGE_CURVE('',#200,#199,#116,.T.);
#243=EDGE_CURVE('',#198,#200,#117,.T.);
#244=EDGE_CURVE('',#201,#196,#167,.T.);
#245=EDGE_CURVE('',#201,#202,#118,.T.);
#246=EDGE_CURVE('',#202,#194,#168,.T.);
#247=EDGE_CURVE('',#202,#203,#17,.T.);
#248=EDGE_CURVE('',#204,#203,#169,.T.);
#249=EDGE_CURVE('',#204,#205,#18,.T.);
#250=EDGE_CURVE('',#197,#205,#170,.T.);
#251=EDGE_CURVE('',#206,#198,#171,.T.);
#252=EDGE_CURVE('',#206,#207,#19,.T.);
#253=EDGE_CURVE('',#207,#208,#119,.T.);
#254=EDGE_CURVE('',#208,#208,#172,.F.);
#255=EDGE_CURVE('',#207,#209,#20,.T.);
#256=EDGE_CURVE('',#210,#209,#173,.T.);
#257=EDGE_CURVE('',#210,#211,#21,.T.);
#258=EDGE_CURVE('',#193,#211,#174,.T.);
#259=EDGE_CURVE('',#212,#200,#175,.T.);
#260=EDGE_CURVE('',#212,#206,#120,.T.);
#261=EDGE_CURVE('',#213,#214,#121,.T.);
#262=EDGE_CURVE('',#205,#213,#122,.T.);
#263=EDGE_CURVE('',#214,#204,#123,.T.);
#264=EDGE_CURVE('',#215,#216,#124,.T.);
#265=EDGE_CURVE('',#211,#215,#125,.T.);
#266=EDGE_CURVE('',#216,#210,#126,.T.);
#267=EDGE_CURVE('',#199,#213,#176,.T.);
#268=EDGE_CURVE('',#203,#217,#127,.T.);
#269=EDGE_CURVE('',#214,#217,#177,.T.);
#270=EDGE_CURVE('',#209,#218,#128,.T.);
#271=EDGE_CURVE('',#216,#218,#178,.T.);
#272=EDGE_CURVE('',#218,#212,#129,.T.);
#273=EDGE_CURVE('',#217,#201,#130,.T.);
#274=EDGE_CURVE('',#195,#215,#179,.T.);
#275=EDGE_CURVE('',#219,#219,#180,.T.);
#276=EDGE_CURVE('',#219,#220,#131,.T.);
#277=EDGE_CURVE('',#220,#220,#181,.T.);
#278=EDGE_CURVE('',#221,#221,#182,.T.);
#279=EDGE_CURVE('',#221,#222,#132,.T.);
#280=EDGE_CURVE('',#222,#222,#183,.T.);
#281=EDGE_CURVE('',#223,#223,#184,.T.);
#282=EDGE_CURVE('',#223,#224,#133,.T.);
#283=EDGE_CURVE('',#224,#224,#185,.T.);
#284=ORIENTED_EDGE('',*,*,#225,.T.);
#285=ORIENTED_EDGE('',*,*,#226,.T.);
#286=ORIENTED_EDGE('',*,*,#227,.T.);
#287=ORIENTED_EDGE('',*,*,#226,.F.);
#288=ORIENTED_EDGE('',*,*,#228,.F.);
#289=ORIENTED_EDGE('',*,*,#227,.F.);
#290=ORIENTED_EDGE('',*,*,#225,.F.);
#291=ORIENTED_EDGE('',*,*,#229,.T.);
#292=ORIENTED_EDGE('',*,*,#230,.F.);
#293=ORIENTED_EDGE('',*,*,#229,.F.);
#294=ORIENTED_EDGE('',*,*,#228,.T.);
#295=ORIENTED_EDGE('',*,*,#231,.T.);
#296=ORIENTED_EDGE('',*,*,#232,.T.);
#297=ORIENTED_EDGE('',*,*,#233,.T.);
#298=ORIENTED_EDGE('',*,*,#231,.F.);
#299=ORIENTED_EDGE('',*,*,#232,.F.);
#300=ORIENTED_EDGE('',*,*,#233,.F.);
#301=ORIENTED_EDGE('',*,*,#234,.T.);
#302=ORIENTED_EDGE('',*,*,#235,.T.);
#303=ORIENTED_EDGE('',*,*,#234,.F.);
#304=ORIENTED_EDGE('',*,*,#236,.F.);
#305=ORIENTED_EDGE('',*,*,#237,.F.);
#306=ORIENTED_EDGE('',*,*,#238,.F.);
#307=ORIENTED_EDGE('',*,*,#239,.F.);
#308=ORIENTED_EDGE('',*,*,#240,.F.);
#309=ORIENTED_EDGE('',*,*,#241,.F.);
#310=ORIENTED_EDGE('',*,*,#242,.F.);
#311=ORIENTED_EDGE('',*,*,#243,.F.);
#312=ORIENTED_EDGE('',*,*,#239,.T.);
#313=ORIENTED_EDGE('',*,*,#244,.F.);
#314=ORIENTED_EDGE('',*,*,#245,.T.);
#315=ORIENTED_EDGE('',*,*,#246,.T.);
#316=ORIENTED_EDGE('',*,*,#236,.T.);
#317=ORIENTED_EDGE('',*,*,#246,.F.);
#318=ORIENTED_EDGE('',*,*,#247,.T.);
#319=ORIENTED_EDGE('',*,*,#248,.F.);
#320=ORIENTED_EDGE('',*,*,#249,.T.);
#321=ORIENTED_EDGE('',*,*,#250,.F.);
#322=ORIENTED_EDGE('',*,*,#240,.T.);
#323=ORIENTED_EDGE('',*,*,#251,.F.);
#324=ORIENTED_EDGE('',*,*,#252,.T.);
#325=ORIENTED_EDGE('',*,*,#253,.T.);
#326=ORIENTED_EDGE('',*,*,#254,.T.);
#327=ORIENTED_EDGE('',*,*,#253,.F.);
#328=ORIENTED_EDGE('',*,*,#255,.T.);
#329=ORIENTED_EDGE('',*,*,#256,.F.);
#330=ORIENTED_EDGE('',*,*,#257,.T.);
#331=ORIENTED_EDGE('',*,*,#258,.F.);
#332=ORIENTED_EDGE('',*,*,#243,.T.);
#333=ORIENTED_EDGE('',*,*,#259,.F.);
#334=ORIENTED_EDGE('',*,*,#260,.T.);
#335=ORIENTED_EDGE('',*,*,#251,.T.);
#336=ORIENTED_EDGE('',*,*,#261,.F.);
#337=ORIENTED_EDGE('',*,*,#262,.F.);
#338=ORIENTED_EDGE('',*,*,#249,.F.);
#339=ORIENTED_EDGE('',*,*,#263,.F.);
#340=ORIENTED_EDGE('',*,*,#264,.F.);
#341=ORIENTED_EDGE('',*,*,#265,.F.);
#342=ORIENTED_EDGE('',*,*,#257,.F.);
#343=ORIENTED_EDGE('',*,*,#266,.F.);
#344=ORIENTED_EDGE('',*,*,#241,.T.);
#345=ORIENTED_EDGE('',*,*,#250,.T.);
#346=ORIENTED_EDGE('',*,*,#262,.T.);
#347=ORIENTED_EDGE('',*,*,#267,.F.);
#348=ORIENTED_EDGE('',*,*,#263,.T.);
#349=ORIENTED_EDGE('',*,*,#248,.T.);
#350=ORIENTED_EDGE('',*,*,#268,.T.);
#351=ORIENTED_EDGE('',*,*,#269,.F.);
#352=ORIENTED_EDGE('',*,*,#266,.T.);
#353=ORIENTED_EDGE('',*,*,#256,.T.);
#354=ORIENTED_EDGE('',*,*,#270,.T.);
#355=ORIENTED_EDGE('',*,*,#271,.F.);
#356=ORIENTED_EDGE('',*,*,#272,.F.);
#357=ORIENTED_EDGE('',*,*,#270,.F.);
#358=ORIENTED_EDGE('',*,*,#255,.F.);
#359=ORIENTED_EDGE('',*,*,#252,.F.);
#360=ORIENTED_EDGE('',*,*,#260,.F.);
#361=ORIENTED_EDGE('',*,*,#247,.F.);
#362=ORIENTED_EDGE('',*,*,#245,.F.);
#363=ORIENTED_EDGE('',*,*,#273,.F.);
#364=ORIENTED_EDGE('',*,*,#268,.F.);
#365=ORIENTED_EDGE('',*,*,#238,.T.);
#366=ORIENTED_EDGE('',*,*,#274,.T.);
#367=ORIENTED_EDGE('',*,*,#264,.T.);
#368=ORIENTED_EDGE('',*,*,#271,.T.);
#369=ORIENTED_EDGE('',*,*,#272,.T.);
#370=ORIENTED_EDGE('',*,*,#259,.T.);
#371=ORIENTED_EDGE('',*,*,#242,.T.);
#372=ORIENTED_EDGE('',*,*,#267,.T.);
#373=ORIENTED_EDGE('',*,*,#261,.T.);
#374=ORIENTED_EDGE('',*,*,#269,.T.);
#375=ORIENTED_EDGE('',*,*,#273,.T.);
#376=ORIENTED_EDGE('',*,*,#244,.T.);
#377=ORIENTED_EDGE('',*,*,#235,.F.);
#378=ORIENTED_EDGE('',*,*,#275,.T.);
#379=ORIENTED_EDGE('',*,*,#276,.T.);
#380=ORIENTED_EDGE('',*,*,#277,.F.);
#381=ORIENTED_EDGE('',*,*,#276,.F.);
#382=ORIENTED_EDGE('',*,*,#277,.T.);
#383=ORIENTED_EDGE('',*,*,#278,.F.);
#384=ORIENTED_EDGE('',*,*,#278,.T.);
#385=ORIENTED_EDGE('',*,*,#279,.T.);
#386=ORIENTED_EDGE('',*,*,#280,.F.);
#387=ORIENTED_EDGE('',*,*,#279,.F.);
#388=ORIENTED_EDGE('',*,*,#280,.T.);
#389=ORIENTED_EDGE('',*,*,#281,.F.);
#390=ORIENTED_EDGE('',*,*,#281,.T.);
#391=ORIENTED_EDGE('',*,*,#282,.T.);
#392=ORIENTED_EDGE('',*,*,#283,.F.);
#393=ORIENTED_EDGE('',*,*,#282,.F.);
#394=ORIENTED_EDGE('',*,*,#254,.F.);
#395=ORIENTED_EDGE('',*,*,#283,.T.);
#396=ORIENTED_EDGE('',*,*,#237,.T.);
#397=ORIENTED_EDGE('',*,*,#258,.T.);
#398=ORIENTED_EDGE('',*,*,#265,.T.);
#399=ORIENTED_EDGE('',*,*,#274,.F.);
#400=ORIENTED_EDGE('',*,*,#275,.F.);
#401=ORIENTED_EDGE('',*,*,#230,.T.);
#402=CONICAL_SURFACE('',#446,0.699734251968504,0.785398163397449);
#403=CONICAL_SURFACE('',#453,0.831,0.785398163397446);
#404=CONICAL_SURFACE('',#463,0.8365,0.872664625997164);
#405=CONICAL_SURFACE('',#493,0.530051396851782,0.0698131700797734);
#406=ADVANCED_FACE('',(#50),#402,.F.);
#407=ADVANCED_FACE('',(#51,#32),#38,.T.);
#408=ADVANCED_FACE('',(#52),#22,.F.);
#409=ADVANCED_FACE('',(#53),#403,.T.);
#410=ADVANCED_FACE('',(#54),#23,.T.);
#411=ADVANCED_FACE('',(#55),#39,.F.);
#412=ADVANCED_FACE('',(#56),#40,.F.);
#413=ADVANCED_FACE('',(#57),#24,.T.);
#414=ADVANCED_FACE('',(#58),#404,.T.);
#415=ADVANCED_FACE('',(#59),#25,.T.);
#416=ADVANCED_FACE('',(#60),#41,.F.);
#417=ADVANCED_FACE('',(#61),#42,.F.);
#418=ADVANCED_FACE('',(#62),#26,.T.);
#419=ADVANCED_FACE('',(#63),#27,.T.);
#420=ADVANCED_FACE('',(#64),#28,.T.);
#421=ADVANCED_FACE('',(#65),#43,.F.);
#422=ADVANCED_FACE('',(#66),#44,.F.);
#423=ADVANCED_FACE('',(#67,#33),#45,.T.);
#424=ADVANCED_FACE('',(#68),#29,.F.);
#425=ADVANCED_FACE('',(#69,#34),#46,.T.);
#426=ADVANCED_FACE('',(#70),#30,.F.);
#427=ADVANCED_FACE('',(#71,#35),#47,.T.);
#428=ADVANCED_FACE('',(#72),#405,.F.);
#429=ADVANCED_FACE('',(#73,#36),#48,.T.);
#430=ADVANCED_FACE('',(#74),#31,.T.);
#431=ADVANCED_FACE('',(#75,#37),#49,.T.);
#432=CLOSED_SHELL('',(#406,#407,#408,#409,#410,#411,#412,#413,#414,#415,
#416,#417,#418,#419,#420,#421,#422,#423,#424,#425,#426,#427,#428,#429,#430,
#431));
#433=DERIVED_UNIT_ELEMENT(#435,1.);
#434=DERIVED_UNIT_ELEMENT(#776,-3.);
#435=(
MASS_UNIT()
NAMED_UNIT(*)
SI_UNIT(.KILO.,.GRAM.)
);
#436=DERIVED_UNIT((#433,#434));
#437=MEASURE_REPRESENTATION_ITEM('density measure',
POSITIVE_RATIO_MEASURE(7850.),#436);
#438=PROPERTY_DEFINITION_REPRESENTATION(#443,#440);
#439=PROPERTY_DEFINITION_REPRESENTATION(#444,#441);
#440=REPRESENTATION('material name',(#442),#771);
#441=REPRESENTATION('density',(#437),#771);
#442=DESCRIPTIVE_REPRESENTATION_ITEM('Steel','Steel');
#443=PROPERTY_DEFINITION('material property','material name',#784);
#444=PROPERTY_DEFINITION('material property','density of part',#784);
#445=AXIS2_PLACEMENT_3D('',#630,#498,#499);
#446=AXIS2_PLACEMENT_3D('',#631,#500,#501);
#447=AXIS2_PLACEMENT_3D('',#633,#502,#503);
#448=AXIS2_PLACEMENT_3D('',#636,#505,#506);
#449=AXIS2_PLACEMENT_3D('',#637,#507,#508);
#450=AXIS2_PLACEMENT_3D('',#639,#509,#510);
#451=AXIS2_PLACEMENT_3D('',#640,#511,#512);
#452=AXIS2_PLACEMENT_3D('',#643,#514,#515);
#453=AXIS2_PLACEMENT_3D('',#644,#516,#517);
#454=AXIS2_PLACEMENT_3D('',#648,#519,#520);
#455=AXIS2_PLACEMENT_3D('',#649,#521,#522);
#456=AXIS2_PLACEMENT_3D('',#650,#523,#524);
#457=AXIS2_PLACEMENT_3D('',#653,#526,#527);
#458=AXIS2_PLACEMENT_3D('',#654,#528,#529);
#459=AXIS2_PLACEMENT_3D('',#665,#533,#534);
#460=AXIS2_PLACEMENT_3D('',#676,#538,#539);
#461=AXIS2_PLACEMENT_3D('',#678,#540,#541);
#462=AXIS2_PLACEMENT_3D('',#681,#543,#544);
#463=AXIS2_PLACEMENT_3D('',#682,#545,#546);
#464=AXIS2_PLACEMENT_3D('',#688,#547,#548);
#465=AXIS2_PLACEMENT_3D('',#693,#549,#550);
#466=AXIS2_PLACEMENT_3D('',#695,#551,#552);
#467=AXIS2_PLACEMENT_3D('',#702,#554,#555);
#468=AXIS2_PLACEMENT_3D('',#708,#556,#557);
#469=AXIS2_PLACEMENT_3D('',#713,#558,#559);
#470=AXIS2_PLACEMENT_3D('',#714,#560,#561);
#471=AXIS2_PLACEMENT_3D('',#716,#562,#563);
#472=AXIS2_PLACEMENT_3D('',#718,#565,#566);
#473=AXIS2_PLACEMENT_3D('',#724,#570,#571);
#474=AXIS2_PLACEMENT_3D('',#730,#575,#576);
#475=AXIS2_PLACEMENT_3D('',#731,#577,#578);
#476=AXIS2_PLACEMENT_3D('',#732,#579,#580);
#477=AXIS2_PLACEMENT_3D('',#735,#582,#583);
#478=AXIS2_PLACEMENT_3D('',#736,#584,#585);
#479=AXIS2_PLACEMENT_3D('',#739,#587,#588);
#480=AXIS2_PLACEMENT_3D('',#740,#589,#590);
#481=AXIS2_PLACEMENT_3D('',#742,#592,#593);
#482=AXIS2_PLACEMENT_3D('',#744,#595,#596);
#483=AXIS2_PLACEMENT_3D('',#745,#597,#598);
#484=AXIS2_PLACEMENT_3D('',#746,#599,#600);
#485=AXIS2_PLACEMENT_3D('',#748,#601,#602);
#486=AXIS2_PLACEMENT_3D('',#751,#604,#605);
#487=AXIS2_PLACEMENT_3D('',#752,#606,#607);
#488=AXIS2_PLACEMENT_3D('',#754,#608,#609);
#489=AXIS2_PLACEMENT_3D('',#755,#610,#611);
#490=AXIS2_PLACEMENT_3D('',#758,#613,#614);
#491=AXIS2_PLACEMENT_3D('',#759,#615,#616);
#492=AXIS2_PLACEMENT_3D('',#761,#617,#618);
#493=AXIS2_PLACEMENT_3D('',#762,#619,#620);
#494=AXIS2_PLACEMENT_3D('',#765,#622,#623);
#495=AXIS2_PLACEMENT_3D('',#766,#624,#625);
#496=AXIS2_PLACEMENT_3D('',#767,#626,#627);
#497=AXIS2_PLACEMENT_3D('',#768,#628,#629);
#498=DIRECTION('axis',(0.,0.,1.));
#499=DIRECTION('refdir',(1.,0.,0.));
#500=DIRECTION('center_axis',(0.,0.,1.));
#501=DIRECTION('ref_axis',(1.,0.,0.));
#502=DIRECTION('center_axis',(0.,0.,-1.));
#503=DIRECTION('ref_axis',(1.,0.,0.));
#504=DIRECTION('',(-0.707106781186548,8.65956056235494E-17,0.707106781186547));
#505=DIRECTION('center_axis',(0.,0.,1.));
#506=DIRECTION('ref_axis',(1.,0.,0.));
#507=DIRECTION('center_axis',(0.,0.,1.));
#508=DIRECTION('ref_axis',(1.,0.,0.));
#509=DIRECTION('center_axis',(0.,0.,-1.));
#510=DIRECTION('ref_axis',(-1.,0.,0.));
#511=DIRECTION('center_axis',(0.,0.,1.));
#512=DIRECTION('ref_axis',(1.,0.,0.));
#513=DIRECTION('',(0.,0.,-1.));
#514=DIRECTION('center_axis',(0.,0.,-1.));
#515=DIRECTION('ref_axis',(1.,0.,0.));
#516=DIRECTION('center_axis',(0.,0.,-1.));
#517=DIRECTION('ref_axis',(-1.,0.,0.));
#518=DIRECTION('',(0.707106781186546,8.65956056235491E-17,-0.707106781186549));
#519=DIRECTION('center_axis',(0.,0.,1.));
#520=DIRECTION('ref_axis',(-1.,0.,0.));
#521=DIRECTION('center_axis',(0.,0.,1.));
#522=DIRECTION('ref_axis',(-1.,0.,0.));
#523=DIRECTION('center_axis',(0.,0.,1.));
#524=DIRECTION('ref_axis',(1.,0.,0.));
#525=DIRECTION('',(0.,0.,-1.));
#526=DIRECTION('center_axis',(0.,0.,1.));
#527=DIRECTION('ref_axis',(1.,0.,0.));
#528=DIRECTION('center_axis',(-0.5,-0.866025403784438,0.));
#529=DIRECTION('ref_axis',(0.866025403784438,-0.5,0.));
#530=DIRECTION('',(0.,0.,-1.));
#531=DIRECTION('',(-0.866025403784438,0.5,0.));
#532=DIRECTION('',(0.,0.,1.));
#533=DIRECTION('center_axis',(0.5,0.866025403784438,0.));
#534=DIRECTION('ref_axis',(-0.866025403784438,0.5,0.));
#535=DIRECTION('',(0.,0.,-1.));
#536=DIRECTION('',(0.866025403784438,-0.5,0.));
#537=DIRECTION('',(0.,0.,1.));
#538=DIRECTION('center_axis',(0.,0.,1.));
#539=DIRECTION('ref_axis',(1.,0.,0.));
#540=DIRECTION('center_axis',(0.,0.,1.));
#541=DIRECTION('ref_axis',(1.,0.,0.));
#542=DIRECTION('',(0.,0.,-1.));
#543=DIRECTION('center_axis',(0.,0.,1.));
#544=DIRECTION('ref_axis',(1.,0.,0.));
#545=DIRECTION('center_axis',(0.,0.,1.));
#546=DIRECTION('ref_axis',(1.,0.,0.));
#547=DIRECTION('center_axis',(0.,0.,1.));
#548=DIRECTION('ref_axis',(1.,0.,0.));
#549=DIRECTION('center_axis',(0.,0.,1.));
#550=DIRECTION('ref_axis',(1.,0.,0.));
#551=DIRECTION('center_axis',(0.,0.,1.));
#552=DIRECTION('ref_axis',(1.,0.,0.));
#553=DIRECTION('',(0.766044443118978,9.38133875270273E-17,-0.64278760968654));
#554=DIRECTION('center_axis',(0.,0.,-1.));
#555=DIRECTION('ref_axis',(1.,0.,0.));
#556=DIRECTION('center_axis',(0.,0.,1.));
#557=DIRECTION('ref_axis',(1.,0.,0.));
#558=DIRECTION('center_axis',(0.,0.,1.));
#559=DIRECTION('ref_axis',(1.,0.,0.));
#560=DIRECTION('center_axis',(0.,0.,1.));
#561=DIRECTION('ref_axis',(1.,0.,0.));
#562=DIRECTION('center_axis',(0.,0.,1.));
#563=DIRECTION('ref_axis',(1.,0.,0.));
#564=DIRECTION('',(0.,0.,-1.));
#565=DIRECTION('center_axis',(-0.5,0.866025403784439,0.));
#566=DIRECTION('ref_axis',(-0.866025403784439,-0.5,0.));
#567=DIRECTION('',(0.866025403784439,0.5,0.));
#568=DIRECTION('',(0.,0.,1.));
#569=DIRECTION('',(0.,0.,-1.));
#570=DIRECTION('center_axis',(0.5,-0.866025403784439,0.));
#571=DIRECTION('ref_axis',(0.866025403784439,0.5,0.));
#572=DIRECTION('',(-0.866025403784439,-0.5,0.));
#573=DIRECTION('',(0.,0.,1.));
#574=DIRECTION('',(0.,0.,-1.));
#575=DIRECTION('center_axis',(0.,0.,1.));
#576=DIRECTION('ref_axis',(1.,0.,0.));
#577=DIRECTION('center_axis',(0.,0.,1.));
#578=DIRECTION('ref_axis',(1.,0.,0.));
#579=DIRECTION('center_axis',(0.,0.,1.));
#580=DIRECTION('ref_axis',(1.,0.,0.));
#581=DIRECTION('',(0.,0.,1.));
#582=DIRECTION('center_axis',(0.,0.,1.));
#583=DIRECTION('ref_axis',(1.,0.,0.));
#584=DIRECTION('center_axis',(0.,0.,1.));
#585=DIRECTION('ref_axis',(1.,0.,0.));
#586=DIRECTION('',(0.,0.,1.));
#587=DIRECTION('center_axis',(0.,0.,1.));
#588=DIRECTION('ref_axis',(1.,0.,0.));
#589=DIRECTION('center_axis',(1.,0.,0.));
#590=DIRECTION('ref_axis',(0.,1.,0.));
#591=DIRECTION('',(0.,-1.,0.));
#592=DIRECTION('center_axis',(-1.,0.,0.));
#593=DIRECTION('ref_axis',(0.,-1.,0.));
#594=DIRECTION('',(0.,1.,0.));
#595=DIRECTION('center_axis',(0.,0.,1.));
#596=DIRECTION('ref_axis',(1.,0.,0.));
#597=DIRECTION('center_axis',(0.,0.,1.));
#598=DIRECTION('ref_axis',(1.,0.,0.));
#599=DIRECTION('center_axis',(0.,0.,1.));
#600=DIRECTION('ref_axis',(1.,0.,0.));
#601=DIRECTION('center_axis',(0.,0.,1.));
#602=DIRECTION('ref_axis',(1.,0.,0.));
#603=DIRECTION('',(0.,0.,-1.));
#604=DIRECTION('center_axis',(0.,0.,1.));
#605=DIRECTION('ref_axis',(1.,0.,0.));
#606=DIRECTION('center_axis',(0.,0.,1.));
#607=DIRECTION('ref_axis',(1.,0.,0.));
#608=DIRECTION('center_axis',(0.,0.,1.));
#609=DIRECTION('ref_axis',(1.,0.,0.));
#610=DIRECTION('center_axis',(0.,0.,1.));
#611=DIRECTION('ref_axis',(1.,0.,0.));
#612=DIRECTION('',(0.,0.,-1.));
#613=DIRECTION('center_axis',(0.,0.,1.));
#614=DIRECTION('ref_axis',(1.,0.,0.));
#615=DIRECTION('center_axis',(0.,0.,1.));
#616=DIRECTION('ref_axis',(1.,0.,0.));
#617=DIRECTION('center_axis',(0.,0.,1.));
#618=DIRECTION('ref_axis',(1.,0.,0.));
#619=DIRECTION('center_axis',(0.,0.,1.));
#620=DIRECTION('ref_axis',(1.,0.,0.));
#621=DIRECTION('',(0.0697564737441255,8.54270422905497E-18,-0.997564050259824));
#622=DIRECTION('center_axis',(0.,0.,1.));
#623=DIRECTION('ref_axis',(1.,0.,0.));
#624=DIRECTION('center_axis',(0.,0.,-1.));
#625=DIRECTION('ref_axis',(-1.,0.,0.));
#626=DIRECTION('center_axis',(0.,0.,1.));
#627=DIRECTION('ref_axis',(1.,0.,0.));
#628=DIRECTION('center_axis',(0.,0.,-1.));
#629=DIRECTION('ref_axis',(-1.,0.,0.));
#630=CARTESIAN_POINT('',(0.,0.,0.));
#631=CARTESIAN_POINT('Origin',(0.,0.,-0.03));
#632=CARTESIAN_POINT('',(-0.669734251968504,8.20187907952575E-17,-0.06));
#633=CARTESIAN_POINT('Origin',(0.,0.,-0.06));
#634=CARTESIAN_POINT('',(-0.729734251968504,-8.93666715901416E-17,0.));
#635=CARTESIAN_POINT('',(-0.699734251968504,8.56927311926996E-17,-0.03));
#636=CARTESIAN_POINT('Origin',(0.,0.,0.));
#637=CARTESIAN_POINT('Origin',(0.666043307086614,0.,0.));
#638=CARTESIAN_POINT('',(0.827,-1.01278290289486E-16,0.));
#639=CARTESIAN_POINT('Origin',(0.,0.,0.));
#640=CARTESIAN_POINT('Origin',(0.,0.,-0.275));
#641=CARTESIAN_POINT('',(-0.669734251968504,8.20187907952575E-17,-0.55));
#642=CARTESIAN_POINT('',(-0.669734251968504,-8.20187907952575E-17,-0.275));
#643=CARTESIAN_POINT('Origin',(0.,0.,-0.55));
#644=CARTESIAN_POINT('Origin',(0.,0.,-0.004));
#645=CARTESIAN_POINT('',(0.835,1.02258007728804E-16,-0.008));
#646=CARTESIAN_POINT('',(0.831,1.01768149009145E-16,-0.004));
#647=CARTESIAN_POINT('',(-0.835,-1.02258007728804E-16,-0.008));
#648=CARTESIAN_POINT('Origin',(0.,0.,-0.008));
#649=CARTESIAN_POINT('Origin',(0.,0.,-0.008));
#650=CARTESIAN_POINT('Origin',(0.,0.,-0.1525));
#651=CARTESIAN_POINT('',(-0.835,-1.02258007728804E-16,-0.305));
#652=CARTESIAN_POINT('',(-0.835,-1.02258007728804E-16,-0.1525));
#653=CARTESIAN_POINT('Origin',(0.,0.,-0.305));
#654=CARTESIAN_POINT('Origin',(0.0715511768175586,1.00946739872867,-1.61));
#655=CARTESIAN_POINT('',(0.0715511768175586,1.00946739872867,-1.31547602945677));
#656=CARTESIAN_POINT('',(0.838448823182442,0.566698836159011,-1.31547602945677));
#657=CARTESIAN_POINT('Ctrl Pts',(0.0715511768175572,1.00946739872867,-1.31547602945677));
#658=CARTESIAN_POINT('Ctrl Pts',(0.455,0.788083117443839,-1.47802587935254));
#659=CARTESIAN_POINT('Ctrl Pts',(0.838448823182444,0.56669883615901,-1.31547602945677));
#660=CARTESIAN_POINT('',(0.0715511768175586,1.00946739872867,-0.305));
#661=CARTESIAN_POINT('',(0.0715511768175582,1.00946739872867,-0.810238014728387));
#662=CARTESIAN_POINT('',(0.838448823182442,0.56669883615901,-0.305));
#663=CARTESIAN_POINT('',(0.576400588408779,0.717992455046251,-0.305));
#664=CARTESIAN_POINT('',(0.838448823182443,0.56669883615901,-0.810238014728387));
#665=CARTESIAN_POINT('Origin',(-0.0715511768175582,-1.00946739872867,-1.61));
#666=CARTESIAN_POINT('',(-0.0715511768175582,-1.00946739872867,-1.31547602945677));
#667=CARTESIAN_POINT('',(-0.838448823182442,-0.566698836159011,-1.31547602945677));
#668=CARTESIAN_POINT('Ctrl Pts',(-0.0715511768175572,-1.00946739872867,
-1.31547602945677));
#669=CARTESIAN_POINT('Ctrl Pts',(-0.455,-0.788083117443839,-1.47802587935254));
#670=CARTESIAN_POINT('Ctrl Pts',(-0.838448823182444,-0.56669883615901,-1.31547602945677));
#671=CARTESIAN_POINT('',(-0.0715511768175582,-1.00946739872867,-0.305));
#672=CARTESIAN_POINT('',(-0.0715511768175582,-1.00946739872867,-0.810238014728387));
#673=CARTESIAN_POINT('',(-0.838448823182442,-0.566698836159011,-0.305));
#674=CARTESIAN_POINT('',(0.0498494115912204,-1.07955806112625,-0.305));
#675=CARTESIAN_POINT('',(-0.838448823182443,-0.56669883615901,-0.810238014728387));
#676=CARTESIAN_POINT('Origin',(0.,0.,-0.810238014728387));
#677=CARTESIAN_POINT('',(0.91,0.442768562569657,-0.305));
#678=CARTESIAN_POINT('Origin',(0.,0.,-0.305));
#679=CARTESIAN_POINT('',(0.91,0.442768562569657,-1.31547602945677));
#680=CARTESIAN_POINT('',(0.91,0.442768562569657,-0.810238014728387));
#681=CARTESIAN_POINT('Origin',(0.,0.,-1.31547602945677));
#682=CARTESIAN_POINT('Origin',(0.,0.,-1.46273801472839));
#683=CARTESIAN_POINT('',(0.91,-0.442768562569656,-1.31547602945677));
#684=CARTESIAN_POINT('Ctrl Pts',(0.91,0.442768562569656,-1.31547602945677));
#685=CARTESIAN_POINT('Ctrl Pts',(0.91,0.,-1.47802587935254));
#686=CARTESIAN_POINT('Ctrl Pts',(0.91,-0.442768562569656,-1.31547602945677));
#687=CARTESIAN_POINT('',(0.838448823182442,-0.566698836159011,-1.31547602945677));
#688=CARTESIAN_POINT('Origin',(0.,0.,-1.31547602945677));
#689=CARTESIAN_POINT('',(0.0715511768175573,-1.00946739872867,-1.31547602945677));
#690=CARTESIAN_POINT('Ctrl Pts',(0.838448823182442,-0.566698836159011,-1.31547602945677));
#691=CARTESIAN_POINT('Ctrl Pts',(0.455,-0.788083117443839,-1.47802587935254));
#692=CARTESIAN_POINT('Ctrl Pts',(0.0715511768175581,-1.00946739872867,-1.31547602945677));
#693=CARTESIAN_POINT('Origin',(0.,0.,-1.31547602945677));
#694=CARTESIAN_POINT('',(-0.91,-0.442768562569656,-1.31547602945677));
#695=CARTESIAN_POINT('Origin',(0.,0.,-1.31547602945677));
#696=CARTESIAN_POINT('',(-0.91,-9.71113427719764E-17,-1.40106419183686));
#697=CARTESIAN_POINT('Ctrl Pts',(-0.91,-0.442768562569656,-1.31547602945677));
#698=CARTESIAN_POINT('Ctrl Pts',(-0.91,-0.20963547967658,-1.40106419183686));
#699=CARTESIAN_POINT('Ctrl Pts',(-0.91,-8.27798268215436E-17,-1.40106419183686));
#700=CARTESIAN_POINT('',(-0.643123696111087,7.87599375898258E-17,-1.625));
#701=CARTESIAN_POINT('',(-0.8365,-1.02441704748676E-16,-1.46273801472839));
#702=CARTESIAN_POINT('Origin',(0.,0.,-1.625));
#703=CARTESIAN_POINT('',(-0.91,0.442768562569656,-1.31547602945677));
#704=CARTESIAN_POINT('Ctrl Pts',(-0.91,-8.27798268215436E-17,-1.40106419183686));
#705=CARTESIAN_POINT('Ctrl Pts',(-0.91,0.20963547967658,-1.40106419183686));
#706=CARTESIAN_POINT('Ctrl Pts',(-0.91,0.442768562569656,-1.31547602945677));
#707=CARTESIAN_POINT('',(-0.838448823182442,0.566698836159011,-1.31547602945677));
#708=CARTESIAN_POINT('Origin',(0.,0.,-1.31547602945677));
#709=CARTESIAN_POINT('',(-0.0715511768175579,1.00946739872867,-1.31547602945677));
#710=CARTESIAN_POINT('Ctrl Pts',(-0.838448823182442,0.566698836159011,-1.31547602945677));
#711=CARTESIAN_POINT('Ctrl Pts',(-0.455,0.788083117443839,-1.47802587935254));
#712=CARTESIAN_POINT('Ctrl Pts',(-0.0715511768175578,1.00946739872867,-1.31547602945677));
#713=CARTESIAN_POINT('Origin',(0.,0.,-1.31547602945677));
#714=CARTESIAN_POINT('Origin',(0.,0.,-0.810238014728387));
#715=CARTESIAN_POINT('',(-0.91,-0.442768562569657,-0.305));
#716=CARTESIAN_POINT('Origin',(0.,0.,-0.305));
#717=CARTESIAN_POINT('',(-0.91,-0.442768562569657,-0.810238014728387));
#718=CARTESIAN_POINT('Origin',(0.838448823182442,-0.566698836159011,-1.61));
#719=CARTESIAN_POINT('',(0.0715511768175573,-1.00946739872867,-0.305));
#720=CARTESIAN_POINT('',(0.838448823182442,-0.566698836159011,-0.305));
#721=CARTESIAN_POINT('',(0.959849411591221,-0.496608173761424,-0.305));
#722=CARTESIAN_POINT('',(0.0715511768175573,-1.00946739872867,-0.810238014728387));
#723=CARTESIAN_POINT('',(0.838448823182442,-0.566698836159011,-0.810238014728387));
#724=CARTESIAN_POINT('Origin',(-0.838448823182442,0.566698836159011,-1.61));
#725=CARTESIAN_POINT('',(-0.0715511768175578,1.00946739872867,-0.305));
#726=CARTESIAN_POINT('',(-0.838448823182442,0.566698836159011,-0.305));
#727=CARTESIAN_POINT('',(-0.333599411591221,0.858173779841427,-0.305));
#728=CARTESIAN_POINT('',(-0.0715511768175574,1.00946739872867,-0.810238014728387));
#729=CARTESIAN_POINT('',(-0.838448823182442,0.566698836159011,-0.810238014728387));
#730=CARTESIAN_POINT('Origin',(0.,0.,-0.810238014728387));
#731=CARTESIAN_POINT('Origin',(0.,0.,-0.305));
#732=CARTESIAN_POINT('Origin',(0.,0.,-0.810238014728387));
#733=CARTESIAN_POINT('',(0.91,-0.442768562569656,-0.305));
#734=CARTESIAN_POINT('',(0.91,-0.442768562569657,-0.810238014728387));
#735=CARTESIAN_POINT('Origin',(0.,0.,-0.305));
#736=CARTESIAN_POINT('Origin',(0.,0.,-0.810238014728387));
#737=CARTESIAN_POINT('',(-0.91,0.442768562569657,-0.305));
#738=CARTESIAN_POINT('',(-0.91,0.442768562569657,-0.810238014728387));
#739=CARTESIAN_POINT('Origin',(0.,0.,-0.305));
#740=CARTESIAN_POINT('Origin',(-0.91,-0.442768562569656,-1.61));
#741=CARTESIAN_POINT('',(-0.91,-0.221384281284828,-0.305));
#742=CARTESIAN_POINT('Origin',(0.91,0.442768562569657,-1.61));
#743=CARTESIAN_POINT('',(0.91,0.221384281284828,-0.305));
#744=CARTESIAN_POINT('Origin',(0.835,0.,-0.305));
#745=CARTESIAN_POINT('Origin',(0.,0.,-0.305));
#746=CARTESIAN_POINT('Origin',(0.,0.,-0.6075));
#747=CARTESIAN_POINT('',(-0.69,-8.45006291411674E-17,-0.55));
#748=CARTESIAN_POINT('Origin',(0.,0.,-0.55));
#749=CARTESIAN_POINT('',(-0.69,-8.45006291411674E-17,-0.665));
#750=CARTESIAN_POINT('',(-0.69,-8.45006291411674E-17,-0.6075));
#751=CARTESIAN_POINT('Origin',(0.,0.,-0.665));
#752=CARTESIAN_POINT('Origin',(0.63,0.,-0.665));
#753=CARTESIAN_POINT('',(-0.63,-7.71527483462832E-17,-0.665));
#754=CARTESIAN_POINT('Origin',(0.,0.,-0.665));
#755=CARTESIAN_POINT('Origin',(0.,0.,-0.815));
#756=CARTESIAN_POINT('',(-0.63,-7.71527483462832E-17,-0.965));
#757=CARTESIAN_POINT('',(-0.63,-7.71527483462832E-17,-0.815));
#758=CARTESIAN_POINT('Origin',(0.,0.,-0.965));
#759=CARTESIAN_POINT('Origin',(0.552602793703564,0.,-0.965));
#760=CARTESIAN_POINT('',(-0.552602793703564,-6.76743242508955E-17,-0.965));
#761=CARTESIAN_POINT('Origin',(0.,0.,-0.965));
#762=CARTESIAN_POINT('Origin',(0.,0.,-1.2875));
#763=CARTESIAN_POINT('',(-0.506451097820847,-6.20223715870964E-17,-1.625));
#764=CARTESIAN_POINT('',(-0.530051396851782,-6.49125746538118E-17,-1.2875));
#765=CARTESIAN_POINT('Origin',(0.,0.,-1.625));
#766=CARTESIAN_POINT('Origin',(0.661,0.,-1.625));
#767=CARTESIAN_POINT('Origin',(0.,0.,-0.810238014728387));
#768=CARTESIAN_POINT('Origin',(0.69,0.,-0.55));
#769=UNCERTAINTY_MEASURE_WITH_UNIT(LENGTH_MEASURE(0.000393700787401575),
#774,'DISTANCE_ACCURACY_VALUE',
'Maximum model space distance between geometric entities at asserted c
onnectivities');
#770=UNCERTAINTY_MEASURE_WITH_UNIT(LENGTH_MEASURE(0.000393700787401575),
#774,'DISTANCE_ACCURACY_VALUE',
'Maximum model space distance between geometric entities at asserted c
onnectivities');
#771=(
GEOMETRIC_REPRESENTATION_CONTEXT(3)
GLOBAL_UNCERTAINTY_ASSIGNED_CONTEXT((#769))
GLOBAL_UNIT_ASSIGNED_CONTEXT((#774,#778,#779))
REPRESENTATION_CONTEXT('','3D')
);
#772=(
GEOMETRIC_REPRESENTATION_CONTEXT(3)
GLOBAL_UNCERTAINTY_ASSIGNED_CONTEXT((#770))
GLOBAL_UNIT_ASSIGNED_CONTEXT((#774,#778,#779))
REPRESENTATION_CONTEXT('','3D')
);
#773=DIMENSIONAL_EXPONENTS(1.,0.,0.,0.,0.,0.,0.);
#774=(
CONVERSION_BASED_UNIT('inch',#777)
LENGTH_UNIT()
NAMED_UNIT(#773)
);
#775=(
LENGTH_UNIT()
NAMED_UNIT(*)
SI_UNIT(.MILLI.,.METRE.)
);
#776=(
LENGTH_UNIT()
NAMED_UNIT(*)
SI_UNIT($,.METRE.)
);
#777=LENGTH_MEASURE_WITH_UNIT(LENGTH_MEASURE(25.4),#775);
#778=(
NAMED_UNIT(*)
PLANE_ANGLE_UNIT()
SI_UNIT($,.RADIAN.)
);
#779=(
NAMED_UNIT(*)
SI_UNIT($,.STERADIAN.)
SOLID_ANGLE_UNIT()
);
#780=SHAPE_DEFINITION_REPRESENTATION(#781,#782);
#781=PRODUCT_DEFINITION_SHAPE('',$,#784);
#782=SHAPE_REPRESENTATION('',(#445),#771);
#783=PRODUCT_DEFINITION_CONTEXT('part definition',#788,'design');
#784=PRODUCT_DEFINITION('PC1058','PC1058 v25',#785,#783);
#785=PRODUCT_DEFINITION_FORMATION('',$,#790);
#786=PRODUCT_RELATED_PRODUCT_CATEGORY('PC1058 v25','PC1058 v25',(#790));
#787=APPLICATION_PROTOCOL_DEFINITION('international standard',
'automotive_design',2009,#788);
#788=APPLICATION_CONTEXT(
'Core Data for Automotive Mechanical Design Process');
#789=PRODUCT_CONTEXT('part definition',#788,'mechanical');
#790=PRODUCT('PC1058','PC1058 v25',$,(#789));
#791=PRESENTATION_STYLE_ASSIGNMENT((#792));
#792=SURFACE_STYLE_USAGE(.BOTH.,#793);
#793=SURFACE_SIDE_STYLE('',(#794));
#794=SURFACE_STYLE_FILL_AREA(#795);
#795=FILL_AREA_STYLE('Steel - Satin',(#796));
#796=FILL_AREA_STYLE_COLOUR('Steel - Satin',#797);
#797=COLOUR_RGB('Steel - Satin',0.627450980392157,0.627450980392157,0.627450980392157);
ENDSEC;
END-ISO-10303-21;
