ISO-10303-21;
HEADER;
/* Generated by software containing ST-Developer
 * from STEP Tools, Inc. (www.steptools.com) 
 */

FILE_DESCRIPTION(
/* description */ (''),
/* implementation_level */ '2;1');

FILE_NAME(
/* name */ 'PSV-30381A-32 - MACHINE 5.step',
/* time_stamp */ '2026-01-07T10:43:26-06:00',
/* author */ (''),
/* organization */ (''),
/* preprocessor_version */ 'ST-DEVELOPER v20.1',
/* originating_system */ 'Autodesk Translation Framework v14.24.0.0',
/* authorisation */ '');

FILE_SCHEMA (('AUTOMOTIVE_DESIGN { 1 0 10303 214 3 1 1 }'));
ENDSEC;

DATA;
#10=MECHANICAL_DESIGN_GEOMETRIC_PRESENTATION_REPRESENTATION('',(#13),#328);
#11=SHAPE_REPRESENTATION_RELATIONSHIP('SRR','None',#338,#12);
#12=ADVANCED_BREP_SHAPE_REPRESENTATION('',(#14),#327);
#13=STYLED_ITEM('',(#347),#14);
#14=MANIFOLD_SOLID_BREP('Body2',#174);
#15=FACE_BOUND('',#57,.T.);
#16=FACE_BOUND('',#59,.T.);
#17=PLANE('',#199);
#18=PLANE('',#201);
#19=CONICAL_SURFACE('',#194,0.258325,1.0471975511966);
#20=CONICAL_SURFACE('',#212,0.150725,0.523598775598301);
#21=LINE('',#288,#28);
#22=LINE('',#291,#29);
#23=LINE('',#308,#30);
#24=LINE('',#314,#31);
#25=LINE('',#317,#32);
#26=LINE('',#321,#33);
#27=LINE('',#324,#34);
#28=VECTOR('',#229,0.2452);
#29=VECTOR('',#232,0.258325);
#30=VECTOR('',#255,0.3566);
#31=VECTOR('',#264,0.27145);
#32=VECTOR('',#267,0.142);
#33=VECTOR('',#272,0.150725);
#34=VECTOR('',#277,0.15945);
#35=CYLINDRICAL_SURFACE('',#192,0.2452);
#36=CYLINDRICAL_SURFACE('',#204,0.3566);
#37=CYLINDRICAL_SURFACE('',#209,0.27145);
#38=CYLINDRICAL_SURFACE('',#210,0.142);
#39=CYLINDRICAL_SURFACE('',#214,0.15945);
#40=FACE_OUTER_BOUND('',#52,.T.);
#41=FACE_OUTER_BOUND('',#53,.T.);
#42=FACE_OUTER_BOUND('',#54,.T.);
#43=FACE_OUTER_BOUND('',#55,.T.);
#44=FACE_OUTER_BOUND('',#56,.T.);
#45=FACE_OUTER_BOUND('',#58,.T.);
#46=FACE_OUTER_BOUND('',#60,.T.);
#47=FACE_OUTER_BOUND('',#61,.T.);
#48=FACE_OUTER_BOUND('',#62,.T.);
#49=FACE_OUTER_BOUND('',#63,.T.);
#50=FACE_OUTER_BOUND('',#64,.T.);
#51=FACE_OUTER_BOUND('',#65,.T.);
#52=EDGE_LOOP('',(#115,#116,#117,#118));
#53=EDGE_LOOP('',(#119,#120,#121,#122));
#54=EDGE_LOOP('',(#123,#124,#125,#126));
#55=EDGE_LOOP('',(#127,#128,#129,#130));
#56=EDGE_LOOP('',(#131));
#57=EDGE_LOOP('',(#132));
#58=EDGE_LOOP('',(#133));
#59=EDGE_LOOP('',(#134));
#60=EDGE_LOOP('',(#135,#136,#137,#138));
#61=EDGE_LOOP('',(#139,#140,#141,#142));
#62=EDGE_LOOP('',(#143,#144,#145,#146));
#63=EDGE_LOOP('',(#147,#148,#149,#150));
#64=EDGE_LOOP('',(#151,#152,#153,#154));
#65=EDGE_LOOP('',(#155,#156,#157,#158));
#66=CIRCLE('',#189,0.2542);
#67=CIRCLE('',#190,0.018);
#68=CIRCLE('',#191,0.2452);
#69=CIRCLE('',#193,0.2452);
#70=CIRCLE('',#195,0.27145);
#71=CIRCLE('',#197,0.2352);
#72=CIRCLE('',#198,0.01);
#73=CIRCLE('',#200,0.142);
#74=CIRCLE('',#202,0.3566);
#75=CIRCLE('',#203,0.15945);
#76=CIRCLE('',#205,0.3566);
#77=CIRCLE('',#207,0.591);
#78=CIRCLE('',#208,0.27145);
#79=CIRCLE('',#211,0.142);
#80=CIRCLE('',#213,0.15945);
#81=VERTEX_POINT('',#280);
#82=VERTEX_POINT('',#282);
#83=VERTEX_POINT('',#286);
#84=VERTEX_POINT('',#290);
#85=VERTEX_POINT('',#294);
#86=VERTEX_POINT('',#298);
#87=VERTEX_POINT('',#301);
#88=VERTEX_POINT('',#303);
#89=VERTEX_POINT('',#306);
#90=VERTEX_POINT('',#310);
#91=VERTEX_POINT('',#316);
#92=VERTEX_POINT('',#320);
#93=EDGE_CURVE('',#81,#81,#66,.T.);
#94=EDGE_CURVE('',#81,#82,#67,.T.);
#95=EDGE_CURVE('',#82,#82,#68,.T.);
#96=EDGE_CURVE('',#83,#83,#69,.T.);
#97=EDGE_CURVE('',#83,#82,#21,.T.);
#98=EDGE_CURVE('',#81,#84,#22,.T.);
#99=EDGE_CURVE('',#84,#84,#70,.T.);
#100=EDGE_CURVE('',#85,#85,#71,.T.);
#101=EDGE_CURVE('',#85,#83,#72,.T.);
#102=EDGE_CURVE('',#86,#86,#73,.T.);
#103=EDGE_CURVE('',#87,#87,#74,.T.);
#104=EDGE_CURVE('',#88,#88,#75,.T.);
#105=EDGE_CURVE('',#89,#89,#76,.T.);
#106=EDGE_CURVE('',#89,#87,#23,.T.);
#107=EDGE_CURVE('',#89,#90,#77,.T.);
#108=EDGE_CURVE('',#90,#90,#78,.T.);
#109=EDGE_CURVE('',#84,#90,#24,.T.);
#110=EDGE_CURVE('',#86,#91,#25,.T.);
#111=EDGE_CURVE('',#91,#91,#79,.T.);
#112=EDGE_CURVE('',#91,#92,#26,.T.);
#113=EDGE_CURVE('',#92,#92,#80,.T.);
#114=EDGE_CURVE('',#92,#88,#27,.T.);
#115=ORIENTED_EDGE('',*,*,#93,.T.);
#116=ORIENTED_EDGE('',*,*,#94,.T.);
#117=ORIENTED_EDGE('',*,*,#95,.T.);
#118=ORIENTED_EDGE('',*,*,#94,.F.);
#119=ORIENTED_EDGE('',*,*,#96,.F.);
#120=ORIENTED_EDGE('',*,*,#97,.T.);
#121=ORIENTED_EDGE('',*,*,#95,.F.);
#122=ORIENTED_EDGE('',*,*,#97,.F.);
#123=ORIENTED_EDGE('',*,*,#93,.F.);
#124=ORIENTED_EDGE('',*,*,#98,.T.);
#125=ORIENTED_EDGE('',*,*,#99,.T.);
#126=ORIENTED_EDGE('',*,*,#98,.F.);
#127=ORIENTED_EDGE('',*,*,#100,.T.);
#128=ORIENTED_EDGE('',*,*,#101,.T.);
#129=ORIENTED_EDGE('',*,*,#96,.T.);
#130=ORIENTED_EDGE('',*,*,#101,.F.);
#131=ORIENTED_EDGE('',*,*,#100,.F.);
#132=ORIENTED_EDGE('',*,*,#102,.F.);
#133=ORIENTED_EDGE('',*,*,#103,.F.);
#134=ORIENTED_EDGE('',*,*,#104,.T.);
#135=ORIENTED_EDGE('',*,*,#105,.F.);
#136=ORIENTED_EDGE('',*,*,#106,.T.);
#137=ORIENTED_EDGE('',*,*,#103,.T.);
#138=ORIENTED_EDGE('',*,*,#106,.F.);
#139=ORIENTED_EDGE('',*,*,#105,.T.);
#140=ORIENTED_EDGE('',*,*,#107,.T.);
#141=ORIENTED_EDGE('',*,*,#108,.F.);
#142=ORIENTED_EDGE('',*,*,#107,.F.);
#143=ORIENTED_EDGE('',*,*,#99,.F.);
#144=ORIENTED_EDGE('',*,*,#109,.T.);
#145=ORIENTED_EDGE('',*,*,#108,.T.);
#146=ORIENTED_EDGE('',*,*,#109,.F.);
#147=ORIENTED_EDGE('',*,*,#102,.T.);
#148=ORIENTED_EDGE('',*,*,#110,.T.);
#149=ORIENTED_EDGE('',*,*,#111,.F.);
#150=ORIENTED_EDGE('',*,*,#110,.F.);
#151=ORIENTED_EDGE('',*,*,#111,.T.);
#152=ORIENTED_EDGE('',*,*,#112,.T.);
#153=ORIENTED_EDGE('',*,*,#113,.F.);
#154=ORIENTED_EDGE('',*,*,#112,.F.);
#155=ORIENTED_EDGE('',*,*,#113,.T.);
#156=ORIENTED_EDGE('',*,*,#114,.T.);
#157=ORIENTED_EDGE('',*,*,#104,.F.);
#158=ORIENTED_EDGE('',*,*,#114,.F.);
#159=TOROIDAL_SURFACE('',#188,0.2632,0.018);
#160=TOROIDAL_SURFACE('',#196,0.2352,0.01);
#161=TOROIDAL_SURFACE('',#206,0.86245,0.591);
#162=ADVANCED_FACE('',(#40),#159,.F.);
#163=ADVANCED_FACE('',(#41),#35,.T.);
#164=ADVANCED_FACE('',(#42),#19,.T.);
#165=ADVANCED_FACE('',(#43),#160,.T.);
#166=ADVANCED_FACE('',(#44,#15),#17,.T.);
#167=ADVANCED_FACE('',(#45,#16),#18,.T.);
#168=ADVANCED_FACE('',(#46),#36,.T.);
#169=ADVANCED_FACE('',(#47),#161,.F.);
#170=ADVANCED_FACE('',(#48),#37,.T.);
#171=ADVANCED_FACE('',(#49),#38,.F.);
#172=ADVANCED_FACE('',(#50),#20,.F.);
#173=ADVANCED_FACE('',(#51),#39,.F.);
#174=CLOSED_SHELL('',(#162,#163,#164,#165,#166,#167,#168,#169,#170,#171,
#172,#173));
#175=DERIVED_UNIT_ELEMENT(#177,1.);
#176=DERIVED_UNIT_ELEMENT(#332,-3.);
#177=(
MASS_UNIT()
NAMED_UNIT(*)
SI_UNIT(.KILO.,.GRAM.)
);
#178=DERIVED_UNIT((#175,#176));
#179=MEASURE_REPRESENTATION_ITEM('density measure',
POSITIVE_RATIO_MEASURE(7850.),#178);
#180=PROPERTY_DEFINITION_REPRESENTATION(#185,#182);
#181=PROPERTY_DEFINITION_REPRESENTATION(#186,#183);
#182=REPRESENTATION('material name',(#184),#327);
#183=REPRESENTATION('density',(#179),#327);
#184=DESCRIPTIVE_REPRESENTATION_ITEM('Steel','Steel');
#185=PROPERTY_DEFINITION('material property','material name',#340);
#186=PROPERTY_DEFINITION('material property','density of part',#340);
#187=AXIS2_PLACEMENT_3D('',#278,#215,#216);
#188=AXIS2_PLACEMENT_3D('',#279,#217,#218);
#189=AXIS2_PLACEMENT_3D('',#281,#219,#220);
#190=AXIS2_PLACEMENT_3D('',#283,#221,#222);
#191=AXIS2_PLACEMENT_3D('',#284,#223,#224);
#192=AXIS2_PLACEMENT_3D('',#285,#225,#226);
#193=AXIS2_PLACEMENT_3D('',#287,#227,#228);
#194=AXIS2_PLACEMENT_3D('',#289,#230,#231);
#195=AXIS2_PLACEMENT_3D('',#292,#233,#234);
#196=AXIS2_PLACEMENT_3D('',#293,#235,#236);
#197=AXIS2_PLACEMENT_3D('',#295,#237,#238);
#198=AXIS2_PLACEMENT_3D('',#296,#239,#240);
#199=AXIS2_PLACEMENT_3D('',#297,#241,#242);
#200=AXIS2_PLACEMENT_3D('',#299,#243,#244);
#201=AXIS2_PLACEMENT_3D('',#300,#245,#246);
#202=AXIS2_PLACEMENT_3D('',#302,#247,#248);
#203=AXIS2_PLACEMENT_3D('',#304,#249,#250);
#204=AXIS2_PLACEMENT_3D('',#305,#251,#252);
#205=AXIS2_PLACEMENT_3D('',#307,#253,#254);
#206=AXIS2_PLACEMENT_3D('',#309,#256,#257);
#207=AXIS2_PLACEMENT_3D('',#311,#258,#259);
#208=AXIS2_PLACEMENT_3D('',#312,#260,#261);
#209=AXIS2_PLACEMENT_3D('',#313,#262,#263);
#210=AXIS2_PLACEMENT_3D('',#315,#265,#266);
#211=AXIS2_PLACEMENT_3D('',#318,#268,#269);
#212=AXIS2_PLACEMENT_3D('',#319,#270,#271);
#213=AXIS2_PLACEMENT_3D('',#322,#273,#274);
#214=AXIS2_PLACEMENT_3D('',#323,#275,#276);
#215=DIRECTION('axis',(0.,0.,1.));
#216=DIRECTION('refdir',(1.,0.,0.));
#217=DIRECTION('center_axis',(0.,0.,1.));
#218=DIRECTION('ref_axis',(1.,0.,0.));
#219=DIRECTION('center_axis',(0.,0.,1.));
#220=DIRECTION('ref_axis',(-1.,0.,0.));
#221=DIRECTION('center_axis',(1.22464679914735E-16,-1.,0.));
#222=DIRECTION('ref_axis',(-1.,-1.22464679914735E-16,0.));
#223=DIRECTION('center_axis',(0.,0.,-1.));
#224=DIRECTION('ref_axis',(-1.,1.22464679914735E-16,0.));
#225=DIRECTION('center_axis',(0.,0.,1.));
#226=DIRECTION('ref_axis',(1.,0.,0.));
#227=DIRECTION('center_axis',(0.,0.,1.));
#228=DIRECTION('ref_axis',(-1.,1.22464679914735E-16,0.));
#229=DIRECTION('',(0.,0.,-1.));
#230=DIRECTION('center_axis',(0.,0.,-1.));
#231=DIRECTION('ref_axis',(1.,0.,0.));
#232=DIRECTION('',(-0.86602540378444,-1.06057523872491E-16,-0.499999999999997));
#233=DIRECTION('center_axis',(0.,0.,1.));
#234=DIRECTION('ref_axis',(1.,0.,0.));
#235=DIRECTION('center_axis',(0.,0.,1.));
#236=DIRECTION('ref_axis',(1.,0.,0.));
#237=DIRECTION('center_axis',(0.,0.,-1.));
#238=DIRECTION('ref_axis',(-1.,1.22464679914735E-16,0.));
#239=DIRECTION('center_axis',(1.22464679914735E-16,-1.,0.));
#240=DIRECTION('ref_axis',(-1.,-1.22464679914735E-16,0.));
#241=DIRECTION('center_axis',(0.,0.,1.));
#242=DIRECTION('ref_axis',(1.,0.,0.));
#243=DIRECTION('center_axis',(0.,0.,1.));
#244=DIRECTION('ref_axis',(1.,0.,0.));
#245=DIRECTION('center_axis',(0.,0.,-1.));
#246=DIRECTION('ref_axis',(-1.,0.,0.));
#247=DIRECTION('center_axis',(0.,0.,1.));
#248=DIRECTION('ref_axis',(1.,0.,0.));
#249=DIRECTION('center_axis',(0.,0.,1.));
#250=DIRECTION('ref_axis',(1.,0.,0.));
#251=DIRECTION('center_axis',(0.,0.,1.));
#252=DIRECTION('ref_axis',(1.,0.,0.));
#253=DIRECTION('center_axis',(0.,0.,1.));
#254=DIRECTION('ref_axis',(1.,0.,0.));
#255=DIRECTION('',(0.,0.,-1.));
#256=DIRECTION('center_axis',(0.,0.,1.));
#257=DIRECTION('ref_axis',(1.,0.,0.));
#258=DIRECTION('center_axis',(1.22464679914735E-16,-1.,0.));
#259=DIRECTION('ref_axis',(-1.,-1.22464679914735E-16,0.));
#260=DIRECTION('center_axis',(0.,0.,1.));
#261=DIRECTION('ref_axis',(1.,0.,0.));
#262=DIRECTION('center_axis',(0.,0.,1.));
#263=DIRECTION('ref_axis',(1.,0.,0.));
#264=DIRECTION('',(0.,0.,-1.));
#265=DIRECTION('center_axis',(0.,0.,1.));
#266=DIRECTION('ref_axis',(1.,0.,0.));
#267=DIRECTION('',(0.,0.,-1.));
#268=DIRECTION('center_axis',(0.,0.,1.));
#269=DIRECTION('ref_axis',(1.,0.,0.));
#270=DIRECTION('center_axis',(0.,0.,-1.));
#271=DIRECTION('ref_axis',(1.,0.,0.));
#272=DIRECTION('',(-0.500000000000001,-6.12323399573679E-17,-0.866025403784438));
#273=DIRECTION('center_axis',(0.,0.,1.));
#274=DIRECTION('ref_axis',(1.,0.,0.));
#275=DIRECTION('center_axis',(0.,0.,1.));
#276=DIRECTION('ref_axis',(1.,0.,0.));
#277=DIRECTION('',(0.,0.,-1.));
#278=CARTESIAN_POINT('',(0.,0.,0.));
#279=CARTESIAN_POINT('Origin',(0.,0.,-0.0316076951545867));
#280=CARTESIAN_POINT('',(-0.2542,-3.11305216343257E-17,-0.0471961524227067));
#281=CARTESIAN_POINT('Origin',(0.,-3.11305216343257E-17,-0.0471961524227067));
#282=CARTESIAN_POINT('',(-0.2452,-3.00283395150931E-17,-0.0316076951545867));
#283=CARTESIAN_POINT('Origin',(-0.2632,-3.22327037535583E-17,-0.0316076951545867));
#284=CARTESIAN_POINT('Origin',(0.,0.,-0.0316076951545867));
#285=CARTESIAN_POINT('Origin',(0.,0.,-0.021));
#286=CARTESIAN_POINT('',(-0.2452,-3.00283395150931E-17,-0.01));
#287=CARTESIAN_POINT('Origin',(0.,0.,-0.01));
#288=CARTESIAN_POINT('',(-0.2452,-3.00283395150931E-17,-0.021));
#289=CARTESIAN_POINT('Origin',(0.,0.,-0.0495777222831138));
#290=CARTESIAN_POINT('',(-0.27145,-3.32430373628549E-17,-0.0571554445662276));
#291=CARTESIAN_POINT('',(-0.258325,-3.1635688438974E-17,-0.0495777222831138));
#292=CARTESIAN_POINT('Origin',(0.,0.,-0.0571554445662276));
#293=CARTESIAN_POINT('Origin',(0.,0.,-0.01));
#294=CARTESIAN_POINT('',(-0.2352,-2.88036927159457E-17,0.));
#295=CARTESIAN_POINT('Origin',(0.,0.,0.));
#296=CARTESIAN_POINT('Origin',(-0.2352,-2.88036927159457E-17,-0.01));
#297=CARTESIAN_POINT('Origin',(0.142,0.,0.));
#298=CARTESIAN_POINT('',(-0.142,-1.73899845478924E-17,0.));
#299=CARTESIAN_POINT('Origin',(0.,0.,0.));
#300=CARTESIAN_POINT('Origin',(0.3566,0.,-2.127));
#301=CARTESIAN_POINT('',(-0.3566,-4.36709048575946E-17,-2.127));
#302=CARTESIAN_POINT('Origin',(0.,0.,-2.127));
#303=CARTESIAN_POINT('',(-0.15945,-1.95269932124045E-17,-2.127));
#304=CARTESIAN_POINT('Origin',(0.,0.,-2.127));
#305=CARTESIAN_POINT('Origin',(0.,0.,-1.4918044317911));
#306=CARTESIAN_POINT('',(-0.3566,-4.36709048575946E-17,-0.856608863582194));
#307=CARTESIAN_POINT('Origin',(0.,0.,-0.856608863582194));
#308=CARTESIAN_POINT('',(-0.3566,-4.36709048575946E-17,-1.4918044317911));
#309=CARTESIAN_POINT('Origin',(0.,0.,-0.551));
#310=CARTESIAN_POINT('',(-0.27145,-3.32430373628549E-17,-0.551));
#311=CARTESIAN_POINT('Origin',(-0.86245,-1.05619663192463E-16,-0.551));
#312=CARTESIAN_POINT('Origin',(0.,0.,-0.551));
#313=CARTESIAN_POINT('Origin',(0.,0.,-0.304077722283114));
#314=CARTESIAN_POINT('',(-0.27145,-3.32430373628549E-17,-0.304077722283114));
#315=CARTESIAN_POINT('Origin',(0.,0.,-0.457887856703961));
#316=CARTESIAN_POINT('',(-0.142,-1.73899845478924E-17,-0.915775713407923));
#317=CARTESIAN_POINT('',(-0.142,-1.73899845478924E-17,-0.457887856703961));
#318=CARTESIAN_POINT('Origin',(0.,0.,-0.915775713407923));
#319=CARTESIAN_POINT('Origin',(0.,0.,-0.930887856703961));
#320=CARTESIAN_POINT('',(-0.15945,-1.95269932124045E-17,-0.946));
#321=CARTESIAN_POINT('',(-0.150725,-1.84584888801485E-17,-0.930887856703961));
#322=CARTESIAN_POINT('Origin',(0.,0.,-0.946));
#323=CARTESIAN_POINT('Origin',(0.,0.,-1.5365));
#324=CARTESIAN_POINT('',(-0.15945,-1.95269932124045E-17,-1.5365));
#325=UNCERTAINTY_MEASURE_WITH_UNIT(LENGTH_MEASURE(0.000393700787401575),
#330,'DISTANCE_ACCURACY_VALUE',
'Maximum model space distance between geometric entities at asserted c
onnectivities');
#326=UNCERTAINTY_MEASURE_WITH_UNIT(LENGTH_MEASURE(0.000393700787401575),
#330,'DISTANCE_ACCURACY_VALUE',
'Maximum model space distance between geometric entities at asserted c
onnectivities');
#327=(
GEOMETRIC_REPRESENTATION_CONTEXT(3)
GLOBAL_UNCERTAINTY_ASSIGNED_CONTEXT((#325))
GLOBAL_UNIT_ASSIGNED_CONTEXT((#330,#334,#335))
REPRESENTATION_CONTEXT('','3D')
);
#328=(
GEOMETRIC_REPRESENTATION_CONTEXT(3)
GLOBAL_UNCERTAINTY_ASSIGNED_CONTEXT((#326))
GLOBAL_UNIT_ASSIGNED_CONTEXT((#330,#334,#335))
REPRESENTATION_CONTEXT('','3D')
);
#329=DIMENSIONAL_EXPONENTS(1.,0.,0.,0.,0.,0.,0.);
#330=(
CONVERSION_BASED_UNIT('inch',#333)
LENGTH_UNIT()
NAMED_UNIT(#329)
);
#331=(
LENGTH_UNIT()
NAMED_UNIT(*)
SI_UNIT(.MILLI.,.METRE.)
);
#332=(
LENGTH_UNIT()
NAMED_UNIT(*)
SI_UNIT($,.METRE.)
);
#333=LENGTH_MEASURE_WITH_UNIT(LENGTH_MEASURE(25.4),#331);
#334=(
NAMED_UNIT(*)
PLANE_ANGLE_UNIT()
SI_UNIT($,.RADIAN.)
);
#335=(
NAMED_UNIT(*)
SI_UNIT($,.STERADIAN.)
SOLID_ANGLE_UNIT()
);
#336=SHAPE_DEFINITION_REPRESENTATION(#337,#338);
#337=PRODUCT_DEFINITION_SHAPE('',$,#340);
#338=SHAPE_REPRESENTATION('',(#187),#327);
#339=PRODUCT_DEFINITION_CONTEXT('part definition',#344,'design');
#340=PRODUCT_DEFINITION('PSV-30381A-32 - MACHINE 5',
'PSV-30381A-32 - MACHINE 5 v6',#341,#339);
#341=PRODUCT_DEFINITION_FORMATION('',$,#346);
#342=PRODUCT_RELATED_PRODUCT_CATEGORY('PSV-30381A-32 - MACHINE 5 v6',
'PSV-30381A-32 - MACHINE 5 v6',(#346));
#343=APPLICATION_PROTOCOL_DEFINITION('international standard',
'automotive_design',2009,#344);
#344=APPLICATION_CONTEXT(
'Core Data for Automotive Mechanical Design Process');
#345=PRODUCT_CONTEXT('part definition',#344,'mechanical');
#346=PRODUCT('PSV-30381A-32 - MACHINE 5','PSV-30381A-32 - MACHINE 5 v6',
$,(#345));
#347=PRESENTATION_STYLE_ASSIGNMENT((#348));
#348=SURFACE_STYLE_USAGE(.BOTH.,#349);
#349=SURFACE_SIDE_STYLE('',(#350));
#350=SURFACE_STYLE_FILL_AREA(#351);
#351=FILL_AREA_STYLE('Steel - Satin',(#352));
#352=FILL_AREA_STYLE_COLOUR('Steel - Satin',#353);
#353=COLOUR_RGB('Steel - Satin',0.627450980392157,0.627450980392157,0.627450980392157);
ENDSEC;
END-ISO-10303-21;
