ISO-10303-21;
HEADER;
/* Generated by software containing ST-Developer
 * from STEP Tools, Inc. (www.steptools.com) 
 */

FILE_DESCRIPTION(
/* description */ (''),
/* implementation_level */ '2;1');

FILE_NAME(
/* name */ 'PUL-30256A-1 - MULTUS.step',
/* time_stamp */ '2026-01-07T10:42:03-06:00',
/* author */ (''),
/* organization */ (''),
/* preprocessor_version */ 'ST-DEVELOPER v20.1',
/* originating_system */ 'Autodesk Translation Framework v14.24.0.0',
/* authorisation */ '');

FILE_SCHEMA (('AUTOMOTIVE_DESIGN { 1 0 10303 214 3 1 1 }'));
ENDSEC;

DATA;
#10=MECHANICAL_DESIGN_GEOMETRIC_PRESENTATION_REPRESENTATION('',(#13),#526);
#11=SHAPE_REPRESENTATION_RELATIONSHIP('SRR','None',#536,#12);
#12=ADVANCED_BREP_SHAPE_REPRESENTATION('',(#14),#525);
#13=STYLED_ITEM('',(#545),#14);
#14=MANIFOLD_SOLID_BREP('Body2',#285);
#15=CONICAL_SURFACE('',#307,0.3895,0.785398163397451);
#16=CONICAL_SURFACE('',#315,0.639,0.785398163397448);
#17=CONICAL_SURFACE('',#320,0.91875,0.785398163397448);
#18=CONICAL_SURFACE('',#328,0.87125,0.785398163397448);
#19=CONICAL_SURFACE('',#332,0.3795,0.0698131700797049);
#20=CONICAL_SURFACE('',#333,0.4765,0.0698131700797803);
#21=LINE('',#455,#34);
#22=LINE('',#461,#35);
#23=LINE('',#471,#36);
#24=LINE('',#477,#37);
#25=LINE('',#481,#38);
#26=LINE('',#488,#39);
#27=LINE('',#495,#40);
#28=LINE('',#498,#41);
#29=LINE('',#503,#42);
#30=LINE('',#506,#43);
#31=LINE('',#509,#44);
#32=LINE('',#513,#45);
#33=LINE('',#520,#46);
#34=VECTOR('',#358,0.4715);
#35=VECTOR('',#365,0.3895);
#36=VECTOR('',#378,0.3745);
#37=VECTOR('',#385,0.639);
#38=VECTOR('',#390,0.654);
#39=VECTOR('',#397,0.91875);
#40=VECTOR('',#406,0.93375);
#41=VECTOR('',#411,0.87125);
#42=VECTOR('',#416,0.3845);
#43=VECTOR('',#421,0.3795);
#44=VECTOR('',#424,0.4765);
#45=VECTOR('',#429,0.4815);
#46=VECTOR('',#438,0.3165);
#47=CYLINDRICAL_SURFACE('',#305,0.4715);
#48=CYLINDRICAL_SURFACE('',#313,0.3745);
#49=CYLINDRICAL_SURFACE('',#318,0.654);
#50=CYLINDRICAL_SURFACE('',#324,0.93375);
#51=CYLINDRICAL_SURFACE('',#329,0.3845);
#52=CYLINDRICAL_SURFACE('',#335,0.4815);
#53=CYLINDRICAL_SURFACE('',#339,0.3165);
#54=FACE_BOUND('',#85,.T.);
#55=FACE_BOUND('',#89,.T.);
#56=FACE_BOUND('',#96,.T.);
#57=FACE_BOUND('',#103,.T.);
#58=FACE_BOUND('',#106,.T.);
#59=PLANE('',#303);
#60=PLANE('',#311);
#61=PLANE('',#327);
#62=PLANE('',#337);
#63=PLANE('',#341);
#64=FACE_OUTER_BOUND('',#83,.T.);
#65=FACE_OUTER_BOUND('',#84,.T.);
#66=FACE_OUTER_BOUND('',#86,.T.);
#67=FACE_OUTER_BOUND('',#87,.T.);
#68=FACE_OUTER_BOUND('',#88,.T.);
#69=FACE_OUTER_BOUND('',#90,.T.);
#70=FACE_OUTER_BOUND('',#91,.T.);
#71=FACE_OUTER_BOUND('',#92,.T.);
#72=FACE_OUTER_BOUND('',#93,.T.);
#73=FACE_OUTER_BOUND('',#94,.T.);
#74=FACE_OUTER_BOUND('',#95,.T.);
#75=FACE_OUTER_BOUND('',#97,.T.);
#76=FACE_OUTER_BOUND('',#98,.T.);
#77=FACE_OUTER_BOUND('',#99,.T.);
#78=FACE_OUTER_BOUND('',#100,.T.);
#79=FACE_OUTER_BOUND('',#101,.T.);
#80=FACE_OUTER_BOUND('',#102,.T.);
#81=FACE_OUTER_BOUND('',#104,.T.);
#82=FACE_OUTER_BOUND('',#105,.T.);
#83=EDGE_LOOP('',(#191,#192,#193,#194));
#84=EDGE_LOOP('',(#195));
#85=EDGE_LOOP('',(#196));
#86=EDGE_LOOP('',(#197,#198,#199,#200));
#87=EDGE_LOOP('',(#201,#202,#203,#204,#205));
#88=EDGE_LOOP('',(#206));
#89=EDGE_LOOP('',(#207));
#90=EDGE_LOOP('',(#208,#209,#210,#211,#212));
#91=EDGE_LOOP('',(#213,#214,#215,#216,#217));
#92=EDGE_LOOP('',(#218,#219,#220,#221,#222));
#93=EDGE_LOOP('',(#223,#224,#225,#226,#227));
#94=EDGE_LOOP('',(#228,#229,#230,#231,#232,#233));
#95=EDGE_LOOP('',(#234));
#96=EDGE_LOOP('',(#235));
#97=EDGE_LOOP('',(#236,#237,#238,#239,#240));
#98=EDGE_LOOP('',(#241,#242,#243,#244));
#99=EDGE_LOOP('',(#245,#246,#247,#248));
#100=EDGE_LOOP('',(#249,#250,#251,#252));
#101=EDGE_LOOP('',(#253,#254,#255,#256));
#102=EDGE_LOOP('',(#257));
#103=EDGE_LOOP('',(#258));
#104=EDGE_LOOP('',(#259,#260,#261,#262));
#105=EDGE_LOOP('',(#263));
#106=EDGE_LOOP('',(#264));
#107=CIRCLE('',#300,0.4715);
#108=CIRCLE('',#301,0.01);
#109=CIRCLE('',#302,0.4815);
#110=CIRCLE('',#304,0.80875);
#111=CIRCLE('',#306,0.4715);
#112=CIRCLE('',#308,0.4045);
#113=CIRCLE('',#309,0.3745);
#114=CIRCLE('',#310,0.3745);
#115=CIRCLE('',#312,0.624);
#116=CIRCLE('',#314,0.3745);
#117=CIRCLE('',#316,0.654);
#118=CIRCLE('',#317,0.654);
#119=CIRCLE('',#319,0.654);
#120=CIRCLE('',#321,0.93375);
#121=CIRCLE('',#322,0.93375);
#122=CIRCLE('',#323,0.90375);
#123=CIRCLE('',#325,0.93375);
#124=CIRCLE('',#326,0.93375);
#125=CIRCLE('',#330,0.3845);
#126=CIRCLE('',#331,0.3845);
#127=CIRCLE('',#334,0.4815);
#128=CIRCLE('',#336,0.4815);
#129=CIRCLE('',#338,0.3165);
#130=CIRCLE('',#340,0.3165);
#131=VERTEX_POINT('',#445);
#132=VERTEX_POINT('',#447);
#133=VERTEX_POINT('',#451);
#134=VERTEX_POINT('',#454);
#135=VERTEX_POINT('',#458);
#136=VERTEX_POINT('',#460);
#137=VERTEX_POINT('',#462);
#138=VERTEX_POINT('',#466);
#139=VERTEX_POINT('',#469);
#140=VERTEX_POINT('',#473);
#141=VERTEX_POINT('',#474);
#142=VERTEX_POINT('',#479);
#143=VERTEX_POINT('',#483);
#144=VERTEX_POINT('',#484);
#145=VERTEX_POINT('',#487);
#146=VERTEX_POINT('',#491);
#147=VERTEX_POINT('',#492);
#148=VERTEX_POINT('',#500);
#149=VERTEX_POINT('',#502);
#150=VERTEX_POINT('',#508);
#151=VERTEX_POINT('',#512);
#152=VERTEX_POINT('',#516);
#153=VERTEX_POINT('',#519);
#154=EDGE_CURVE('',#131,#131,#107,.T.);
#155=EDGE_CURVE('',#131,#132,#108,.T.);
#156=EDGE_CURVE('',#132,#132,#109,.T.);
#157=EDGE_CURVE('',#133,#133,#110,.T.);
#158=EDGE_CURVE('',#131,#134,#21,.T.);
#159=EDGE_CURVE('',#134,#134,#111,.T.);
#160=EDGE_CURVE('',#135,#135,#112,.T.);
#161=EDGE_CURVE('',#135,#136,#22,.T.);
#162=EDGE_CURVE('',#136,#137,#113,.T.);
#163=EDGE_CURVE('',#137,#136,#114,.T.);
#164=EDGE_CURVE('',#138,#138,#115,.T.);
#165=EDGE_CURVE('',#139,#139,#116,.T.);
#166=EDGE_CURVE('',#139,#137,#23,.T.);
#167=EDGE_CURVE('',#140,#141,#117,.T.);
#168=EDGE_CURVE('',#141,#140,#118,.T.);
#169=EDGE_CURVE('',#140,#138,#24,.T.);
#170=EDGE_CURVE('',#142,#142,#119,.T.);
#171=EDGE_CURVE('',#142,#141,#25,.T.);
#172=EDGE_CURVE('',#143,#144,#120,.T.);
#173=EDGE_CURVE('',#144,#143,#121,.T.);
#174=EDGE_CURVE('',#143,#145,#26,.T.);
#175=EDGE_CURVE('',#145,#145,#122,.T.);
#176=EDGE_CURVE('',#146,#147,#123,.T.);
#177=EDGE_CURVE('',#147,#146,#124,.T.);
#178=EDGE_CURVE('',#147,#144,#27,.T.);
#179=EDGE_CURVE('',#133,#146,#28,.T.);
#180=EDGE_CURVE('',#148,#148,#125,.T.);
#181=EDGE_CURVE('',#148,#149,#29,.T.);
#182=EDGE_CURVE('',#149,#149,#126,.T.);
#183=EDGE_CURVE('',#149,#139,#30,.T.);
#184=EDGE_CURVE('',#134,#150,#31,.T.);
#185=EDGE_CURVE('',#150,#150,#127,.T.);
#186=EDGE_CURVE('',#150,#151,#32,.T.);
#187=EDGE_CURVE('',#151,#151,#128,.T.);
#188=EDGE_CURVE('',#152,#152,#129,.T.);
#189=EDGE_CURVE('',#152,#153,#33,.T.);
#190=EDGE_CURVE('',#153,#153,#130,.T.);
#191=ORIENTED_EDGE('',*,*,#154,.T.);
#192=ORIENTED_EDGE('',*,*,#155,.T.);
#193=ORIENTED_EDGE('',*,*,#156,.T.);
#194=ORIENTED_EDGE('',*,*,#155,.F.);
#195=ORIENTED_EDGE('',*,*,#157,.F.);
#196=ORIENTED_EDGE('',*,*,#156,.F.);
#197=ORIENTED_EDGE('',*,*,#154,.F.);
#198=ORIENTED_EDGE('',*,*,#158,.T.);
#199=ORIENTED_EDGE('',*,*,#159,.F.);
#200=ORIENTED_EDGE('',*,*,#158,.F.);
#201=ORIENTED_EDGE('',*,*,#160,.T.);
#202=ORIENTED_EDGE('',*,*,#161,.T.);
#203=ORIENTED_EDGE('',*,*,#162,.T.);
#204=ORIENTED_EDGE('',*,*,#163,.T.);
#205=ORIENTED_EDGE('',*,*,#161,.F.);
#206=ORIENTED_EDGE('',*,*,#164,.F.);
#207=ORIENTED_EDGE('',*,*,#160,.F.);
#208=ORIENTED_EDGE('',*,*,#165,.T.);
#209=ORIENTED_EDGE('',*,*,#166,.T.);
#210=ORIENTED_EDGE('',*,*,#162,.F.);
#211=ORIENTED_EDGE('',*,*,#163,.F.);
#212=ORIENTED_EDGE('',*,*,#166,.F.);
#213=ORIENTED_EDGE('',*,*,#167,.T.);
#214=ORIENTED_EDGE('',*,*,#168,.T.);
#215=ORIENTED_EDGE('',*,*,#169,.T.);
#216=ORIENTED_EDGE('',*,*,#164,.T.);
#217=ORIENTED_EDGE('',*,*,#169,.F.);
#218=ORIENTED_EDGE('',*,*,#170,.F.);
#219=ORIENTED_EDGE('',*,*,#171,.T.);
#220=ORIENTED_EDGE('',*,*,#167,.F.);
#221=ORIENTED_EDGE('',*,*,#168,.F.);
#222=ORIENTED_EDGE('',*,*,#171,.F.);
#223=ORIENTED_EDGE('',*,*,#172,.T.);
#224=ORIENTED_EDGE('',*,*,#173,.T.);
#225=ORIENTED_EDGE('',*,*,#174,.T.);
#226=ORIENTED_EDGE('',*,*,#175,.T.);
#227=ORIENTED_EDGE('',*,*,#174,.F.);
#228=ORIENTED_EDGE('',*,*,#176,.F.);
#229=ORIENTED_EDGE('',*,*,#177,.F.);
#230=ORIENTED_EDGE('',*,*,#178,.T.);
#231=ORIENTED_EDGE('',*,*,#172,.F.);
#232=ORIENTED_EDGE('',*,*,#173,.F.);
#233=ORIENTED_EDGE('',*,*,#178,.F.);
#234=ORIENTED_EDGE('',*,*,#175,.F.);
#235=ORIENTED_EDGE('',*,*,#170,.T.);
#236=ORIENTED_EDGE('',*,*,#157,.T.);
#237=ORIENTED_EDGE('',*,*,#179,.T.);
#238=ORIENTED_EDGE('',*,*,#176,.T.);
#239=ORIENTED_EDGE('',*,*,#177,.T.);
#240=ORIENTED_EDGE('',*,*,#179,.F.);
#241=ORIENTED_EDGE('',*,*,#180,.T.);
#242=ORIENTED_EDGE('',*,*,#181,.T.);
#243=ORIENTED_EDGE('',*,*,#182,.F.);
#244=ORIENTED_EDGE('',*,*,#181,.F.);
#245=ORIENTED_EDGE('',*,*,#182,.T.);
#246=ORIENTED_EDGE('',*,*,#183,.T.);
#247=ORIENTED_EDGE('',*,*,#165,.F.);
#248=ORIENTED_EDGE('',*,*,#183,.F.);
#249=ORIENTED_EDGE('',*,*,#159,.T.);
#250=ORIENTED_EDGE('',*,*,#184,.T.);
#251=ORIENTED_EDGE('',*,*,#185,.F.);
#252=ORIENTED_EDGE('',*,*,#184,.F.);
#253=ORIENTED_EDGE('',*,*,#185,.T.);
#254=ORIENTED_EDGE('',*,*,#186,.T.);
#255=ORIENTED_EDGE('',*,*,#187,.F.);
#256=ORIENTED_EDGE('',*,*,#186,.F.);
#257=ORIENTED_EDGE('',*,*,#187,.T.);
#258=ORIENTED_EDGE('',*,*,#188,.F.);
#259=ORIENTED_EDGE('',*,*,#188,.T.);
#260=ORIENTED_EDGE('',*,*,#189,.T.);
#261=ORIENTED_EDGE('',*,*,#190,.F.);
#262=ORIENTED_EDGE('',*,*,#189,.F.);
#263=ORIENTED_EDGE('',*,*,#180,.F.);
#264=ORIENTED_EDGE('',*,*,#190,.T.);
#265=TOROIDAL_SURFACE('',#299,0.4815,0.01);
#266=ADVANCED_FACE('',(#64),#265,.T.);
#267=ADVANCED_FACE('',(#65,#54),#59,.T.);
#268=ADVANCED_FACE('',(#66),#47,.F.);
#269=ADVANCED_FACE('',(#67),#15,.F.);
#270=ADVANCED_FACE('',(#68,#55),#60,.T.);
#271=ADVANCED_FACE('',(#69),#48,.F.);
#272=ADVANCED_FACE('',(#70),#16,.T.);
#273=ADVANCED_FACE('',(#71),#49,.T.);
#274=ADVANCED_FACE('',(#72),#17,.T.);
#275=ADVANCED_FACE('',(#73),#50,.T.);
#276=ADVANCED_FACE('',(#74,#56),#61,.T.);
#277=ADVANCED_FACE('',(#75),#18,.T.);
#278=ADVANCED_FACE('',(#76),#51,.F.);
#279=ADVANCED_FACE('',(#77),#19,.F.);
#280=ADVANCED_FACE('',(#78),#20,.F.);
#281=ADVANCED_FACE('',(#79),#52,.F.);
#282=ADVANCED_FACE('',(#80,#57),#62,.T.);
#283=ADVANCED_FACE('',(#81),#53,.F.);
#284=ADVANCED_FACE('',(#82,#58),#63,.T.);
#285=CLOSED_SHELL('',(#266,#267,#268,#269,#270,#271,#272,#273,#274,#275,
#276,#277,#278,#279,#280,#281,#282,#283,#284));
#286=DERIVED_UNIT_ELEMENT(#288,1.);
#287=DERIVED_UNIT_ELEMENT(#530,-3.);
#288=(
MASS_UNIT()
NAMED_UNIT(*)
SI_UNIT(.KILO.,.GRAM.)
);
#289=DERIVED_UNIT((#286,#287));
#290=MEASURE_REPRESENTATION_ITEM('density measure',
POSITIVE_RATIO_MEASURE(7850.),#289);
#291=PROPERTY_DEFINITION_REPRESENTATION(#296,#293);
#292=PROPERTY_DEFINITION_REPRESENTATION(#297,#294);
#293=REPRESENTATION('material name',(#295),#525);
#294=REPRESENTATION('density',(#290),#525);
#295=DESCRIPTIVE_REPRESENTATION_ITEM('Steel','Steel');
#296=PROPERTY_DEFINITION('material property','material name',#538);
#297=PROPERTY_DEFINITION('material property','density of part',#538);
#298=AXIS2_PLACEMENT_3D('',#443,#342,#343);
#299=AXIS2_PLACEMENT_3D('',#444,#344,#345);
#300=AXIS2_PLACEMENT_3D('',#446,#346,#347);
#301=AXIS2_PLACEMENT_3D('',#448,#348,#349);
#302=AXIS2_PLACEMENT_3D('',#449,#350,#351);
#303=AXIS2_PLACEMENT_3D('',#450,#352,#353);
#304=AXIS2_PLACEMENT_3D('',#452,#354,#355);
#305=AXIS2_PLACEMENT_3D('',#453,#356,#357);
#306=AXIS2_PLACEMENT_3D('',#456,#359,#360);
#307=AXIS2_PLACEMENT_3D('',#457,#361,#362);
#308=AXIS2_PLACEMENT_3D('',#459,#363,#364);
#309=AXIS2_PLACEMENT_3D('',#463,#366,#367);
#310=AXIS2_PLACEMENT_3D('',#464,#368,#369);
#311=AXIS2_PLACEMENT_3D('',#465,#370,#371);
#312=AXIS2_PLACEMENT_3D('',#467,#372,#373);
#313=AXIS2_PLACEMENT_3D('',#468,#374,#375);
#314=AXIS2_PLACEMENT_3D('',#470,#376,#377);
#315=AXIS2_PLACEMENT_3D('',#472,#379,#380);
#316=AXIS2_PLACEMENT_3D('',#475,#381,#382);
#317=AXIS2_PLACEMENT_3D('',#476,#383,#384);
#318=AXIS2_PLACEMENT_3D('',#478,#386,#387);
#319=AXIS2_PLACEMENT_3D('',#480,#388,#389);
#320=AXIS2_PLACEMENT_3D('',#482,#391,#392);
#321=AXIS2_PLACEMENT_3D('',#485,#393,#394);
#322=AXIS2_PLACEMENT_3D('',#486,#395,#396);
#323=AXIS2_PLACEMENT_3D('',#489,#398,#399);
#324=AXIS2_PLACEMENT_3D('',#490,#400,#401);
#325=AXIS2_PLACEMENT_3D('',#493,#402,#403);
#326=AXIS2_PLACEMENT_3D('',#494,#404,#405);
#327=AXIS2_PLACEMENT_3D('',#496,#407,#408);
#328=AXIS2_PLACEMENT_3D('',#497,#409,#410);
#329=AXIS2_PLACEMENT_3D('',#499,#412,#413);
#330=AXIS2_PLACEMENT_3D('',#501,#414,#415);
#331=AXIS2_PLACEMENT_3D('',#504,#417,#418);
#332=AXIS2_PLACEMENT_3D('',#505,#419,#420);
#333=AXIS2_PLACEMENT_3D('',#507,#422,#423);
#334=AXIS2_PLACEMENT_3D('',#510,#425,#426);
#335=AXIS2_PLACEMENT_3D('',#511,#427,#428);
#336=AXIS2_PLACEMENT_3D('',#514,#430,#431);
#337=AXIS2_PLACEMENT_3D('',#515,#432,#433);
#338=AXIS2_PLACEMENT_3D('',#517,#434,#435);
#339=AXIS2_PLACEMENT_3D('',#518,#436,#437);
#340=AXIS2_PLACEMENT_3D('',#521,#439,#440);
#341=AXIS2_PLACEMENT_3D('',#522,#441,#442);
#342=DIRECTION('axis',(0.,0.,1.));
#343=DIRECTION('refdir',(1.,0.,0.));
#344=DIRECTION('center_axis',(0.,0.,1.));
#345=DIRECTION('ref_axis',(1.,0.,0.));
#346=DIRECTION('center_axis',(0.,0.,-1.));
#347=DIRECTION('ref_axis',(-1.,1.22464679914735E-16,0.));
#348=DIRECTION('center_axis',(1.22464679914735E-16,-1.,0.));
#349=DIRECTION('ref_axis',(-1.,-1.22464679914735E-16,0.));
#350=DIRECTION('center_axis',(0.,0.,1.));
#351=DIRECTION('ref_axis',(-1.,1.22464679914735E-16,0.));
#352=DIRECTION('center_axis',(0.,0.,1.));
#353=DIRECTION('ref_axis',(1.,0.,0.));
#354=DIRECTION('center_axis',(0.,0.,-1.));
#355=DIRECTION('ref_axis',(-1.,0.,0.));
#356=DIRECTION('center_axis',(0.,0.,1.));
#357=DIRECTION('ref_axis',(1.,0.,0.));
#358=DIRECTION('',(0.,0.,-1.));
#359=DIRECTION('center_axis',(0.,0.,1.));
#360=DIRECTION('ref_axis',(1.,0.,0.));
#361=DIRECTION('center_axis',(0.,0.,-1.));
#362=DIRECTION('ref_axis',(-1.,0.,0.));
#363=DIRECTION('center_axis',(0.,0.,-1.));
#364=DIRECTION('ref_axis',(-1.,0.,0.));
#365=DIRECTION('',(-0.70710678118655,8.65956056235496E-17,0.707106781186545));
#366=DIRECTION('center_axis',(0.,0.,1.));
#367=DIRECTION('ref_axis',(-1.,0.,0.));
#368=DIRECTION('center_axis',(0.,0.,1.));
#369=DIRECTION('ref_axis',(-1.,0.,0.));
#370=DIRECTION('center_axis',(0.,0.,-1.));
#371=DIRECTION('ref_axis',(-1.,0.,0.));
#372=DIRECTION('center_axis',(0.,0.,1.));
#373=DIRECTION('ref_axis',(-1.,0.,0.));
#374=DIRECTION('center_axis',(0.,0.,1.));
#375=DIRECTION('ref_axis',(1.,0.,0.));
#376=DIRECTION('center_axis',(0.,0.,1.));
#377=DIRECTION('ref_axis',(1.,0.,0.));
#378=DIRECTION('',(0.,0.,-1.));
#379=DIRECTION('center_axis',(0.,0.,1.));
#380=DIRECTION('ref_axis',(-1.,0.,0.));
#381=DIRECTION('center_axis',(0.,0.,-1.));
#382=DIRECTION('ref_axis',(-1.,0.,0.));
#383=DIRECTION('center_axis',(0.,0.,-1.));
#384=DIRECTION('ref_axis',(-1.,0.,0.));
#385=DIRECTION('',(-0.707106781186548,-8.65956056235493E-17,-0.707106781186548));
#386=DIRECTION('center_axis',(0.,0.,1.));
#387=DIRECTION('ref_axis',(1.,0.,0.));
#388=DIRECTION('center_axis',(0.,0.,1.));
#389=DIRECTION('ref_axis',(1.,0.,0.));
#390=DIRECTION('',(0.,0.,-1.));
#391=DIRECTION('center_axis',(0.,0.,1.));
#392=DIRECTION('ref_axis',(-1.,0.,0.));
#393=DIRECTION('center_axis',(0.,0.,-1.));
#394=DIRECTION('ref_axis',(-1.,0.,0.));
#395=DIRECTION('center_axis',(0.,0.,-1.));
#396=DIRECTION('ref_axis',(-1.,0.,0.));
#397=DIRECTION('',(-0.707106781186548,-8.65956056235493E-17,-0.707106781186548));
#398=DIRECTION('center_axis',(0.,0.,1.));
#399=DIRECTION('ref_axis',(-1.,0.,0.));
#400=DIRECTION('center_axis',(0.,0.,1.));
#401=DIRECTION('ref_axis',(1.,0.,0.));
#402=DIRECTION('center_axis',(0.,0.,1.));
#403=DIRECTION('ref_axis',(-1.,0.,0.));
#404=DIRECTION('center_axis',(0.,0.,1.));
#405=DIRECTION('ref_axis',(-1.,0.,0.));
#406=DIRECTION('',(0.,0.,-1.));
#407=DIRECTION('center_axis',(0.,0.,-1.));
#408=DIRECTION('ref_axis',(-1.,0.,0.));
#409=DIRECTION('center_axis',(0.,0.,-1.));
#410=DIRECTION('ref_axis',(-1.,0.,0.));
#411=DIRECTION('',(0.707106781186548,8.65956056235493E-17,-0.707106781186548));
#412=DIRECTION('center_axis',(0.,0.,1.));
#413=DIRECTION('ref_axis',(1.,0.,0.));
#414=DIRECTION('center_axis',(0.,0.,1.));
#415=DIRECTION('ref_axis',(1.,0.,0.));
#416=DIRECTION('',(0.,0.,-1.));
#417=DIRECTION('center_axis',(0.,0.,1.));
#418=DIRECTION('ref_axis',(1.,0.,0.));
#419=DIRECTION('center_axis',(0.,0.,1.));
#420=DIRECTION('ref_axis',(1.,0.,0.));
#421=DIRECTION('',(0.0697564737440572,8.5427042290466E-18,-0.997564050259829));
#422=DIRECTION('center_axis',(0.,0.,-1.));
#423=DIRECTION('ref_axis',(1.,0.,0.));
#424=DIRECTION('',(-0.0697564737441324,-8.54270422905582E-18,-0.997564050259824));
#425=DIRECTION('center_axis',(0.,0.,1.));
#426=DIRECTION('ref_axis',(1.,0.,0.));
#427=DIRECTION('center_axis',(0.,0.,1.));
#428=DIRECTION('ref_axis',(1.,0.,0.));
#429=DIRECTION('',(0.,0.,-1.));
#430=DIRECTION('center_axis',(0.,0.,1.));
#431=DIRECTION('ref_axis',(1.,0.,0.));
#432=DIRECTION('center_axis',(0.,0.,1.));
#433=DIRECTION('ref_axis',(1.,0.,0.));
#434=DIRECTION('center_axis',(0.,0.,1.));
#435=DIRECTION('ref_axis',(1.,0.,0.));
#436=DIRECTION('center_axis',(0.,0.,1.));
#437=DIRECTION('ref_axis',(1.,0.,0.));
#438=DIRECTION('',(0.,0.,-1.));
#439=DIRECTION('center_axis',(0.,0.,1.));
#440=DIRECTION('ref_axis',(1.,0.,0.));
#441=DIRECTION('center_axis',(0.,0.,-1.));
#442=DIRECTION('ref_axis',(-1.,0.,0.));
#443=CARTESIAN_POINT('',(0.,0.,0.));
#444=CARTESIAN_POINT('Origin',(0.,0.,-0.01));
#445=CARTESIAN_POINT('',(-0.4715,-5.77420965797977E-17,-0.01));
#446=CARTESIAN_POINT('Origin',(0.,0.,-0.01));
#447=CARTESIAN_POINT('',(-0.4815,-5.89667433789451E-17,0.));
#448=CARTESIAN_POINT('Origin',(-0.4815,-5.89667433789451E-17,-0.01));
#449=CARTESIAN_POINT('Origin',(0.,0.,0.));
#450=CARTESIAN_POINT('Origin',(0.4715,0.,0.));
#451=CARTESIAN_POINT('',(0.80875,-9.90433098810422E-17,0.));
#452=CARTESIAN_POINT('Origin',(0.,0.,0.));
#453=CARTESIAN_POINT('Origin',(0.,0.,-0.503246668716447));
#454=CARTESIAN_POINT('',(-0.4715,-5.77420965797977E-17,-1.0064933374329));
#455=CARTESIAN_POINT('',(-0.4715,-5.77420965797977E-17,-0.503246668716447));
#456=CARTESIAN_POINT('Origin',(0.,0.,-1.0064933374329));
#457=CARTESIAN_POINT('Origin',(0.,0.,-4.294));
#458=CARTESIAN_POINT('',(0.4045,-4.95369630255105E-17,-4.309));
#459=CARTESIAN_POINT('Origin',(0.,0.,-4.309));
#460=CARTESIAN_POINT('',(0.3745,4.58630226280684E-17,-4.279));
#461=CARTESIAN_POINT('',(0.3895,-4.76999928267894E-17,-4.294));
#462=CARTESIAN_POINT('',(-0.3745,-4.58630226280684E-17,-4.279));
#463=CARTESIAN_POINT('Origin',(0.,0.,-4.279));
#464=CARTESIAN_POINT('Origin',(0.,0.,-4.279));
#465=CARTESIAN_POINT('Origin',(0.654,0.,-4.309));
#466=CARTESIAN_POINT('',(0.624,7.64179602667948E-17,-4.309));
#467=CARTESIAN_POINT('Origin',(0.,0.,-4.309));
#468=CARTESIAN_POINT('Origin',(0.,0.,-3.27425333128363));
#469=CARTESIAN_POINT('',(-0.3745,-4.58630226280684E-17,-2.23950666256727));
#470=CARTESIAN_POINT('Origin',(0.,0.,-2.23950666256727));
#471=CARTESIAN_POINT('',(-0.3745,-4.58630226280684E-17,-3.27425333128363));
#472=CARTESIAN_POINT('Origin',(0.,0.,-4.294));
#473=CARTESIAN_POINT('',(0.654,-8.00919006642369E-17,-4.279));
#474=CARTESIAN_POINT('',(-0.654,-8.00919006642369E-17,-4.279));
#475=CARTESIAN_POINT('Origin',(0.,0.,-4.279));
#476=CARTESIAN_POINT('Origin',(0.,0.,-4.279));
#477=CARTESIAN_POINT('',(0.639,7.82549304655158E-17,-4.294));
#478=CARTESIAN_POINT('Origin',(0.,0.,-3.559));
#479=CARTESIAN_POINT('',(-0.654,-8.00919006642369E-17,-2.809));
#480=CARTESIAN_POINT('Origin',(0.,0.,-2.809));
#481=CARTESIAN_POINT('',(-0.654,-8.00919006642369E-17,-3.559));
#482=CARTESIAN_POINT('Origin',(0.,0.,-2.794));
#483=CARTESIAN_POINT('',(0.93375,-1.14351394870384E-16,-2.779));
#484=CARTESIAN_POINT('',(-0.93375,-1.14351394870384E-16,-2.779));
#485=CARTESIAN_POINT('Origin',(0.,0.,-2.779));
#486=CARTESIAN_POINT('Origin',(0.,0.,-2.779));
#487=CARTESIAN_POINT('',(0.90375,1.10677454472942E-16,-2.809));
#488=CARTESIAN_POINT('',(0.91875,1.12514424671663E-16,-2.794));
#489=CARTESIAN_POINT('Origin',(0.,0.,-2.809));
#490=CARTESIAN_POINT('Origin',(0.,0.,-1.4045));
#491=CARTESIAN_POINT('',(0.93375,1.14351394870384E-16,-0.125));
#492=CARTESIAN_POINT('',(-0.93375,-1.14351394870384E-16,-0.125));
#493=CARTESIAN_POINT('Origin',(0.,0.,-0.125));
#494=CARTESIAN_POINT('Origin',(0.,0.,-0.125));
#495=CARTESIAN_POINT('',(-0.93375,-1.14351394870384E-16,-1.4045));
#496=CARTESIAN_POINT('Origin',(0.93375,0.,-2.809));
#497=CARTESIAN_POINT('Origin',(0.,0.,-0.0625));
#498=CARTESIAN_POINT('',(0.87125,1.06697352375713E-16,-0.0625));
#499=CARTESIAN_POINT('Origin',(0.,0.,-2.0465));
#500=CARTESIAN_POINT('',(-0.3845,-4.70876694272158E-17,-1.9965));
#501=CARTESIAN_POINT('Origin',(0.,0.,-1.9965));
#502=CARTESIAN_POINT('',(-0.3845,-4.70876694272158E-17,-2.0965));
#503=CARTESIAN_POINT('',(-0.3845,-4.70876694272158E-17,-2.0465));
#504=CARTESIAN_POINT('Origin',(0.,0.,-2.0965));
#505=CARTESIAN_POINT('Origin',(0.,0.,-2.16800333128363));
#506=CARTESIAN_POINT('',(-0.3795,-4.6475346027642E-17,-2.16800333128363));
#507=CARTESIAN_POINT('Origin',(0.,0.,-1.07799666871645));
#508=CARTESIAN_POINT('',(-0.4815,-5.89667433789451E-17,-1.1495));
#509=CARTESIAN_POINT('',(-0.4765,-5.83544199793714E-17,-1.07799666871645));
#510=CARTESIAN_POINT('Origin',(0.,0.,-1.1495));
#511=CARTESIAN_POINT('Origin',(0.,0.,-1.1995));
#512=CARTESIAN_POINT('',(-0.4815,-5.89667433789451E-17,-1.2495));
#513=CARTESIAN_POINT('',(-0.4815,-5.89667433789451E-17,-1.1995));
#514=CARTESIAN_POINT('Origin',(0.,0.,-1.2495));
#515=CARTESIAN_POINT('Origin',(0.3165,0.,-1.2495));
#516=CARTESIAN_POINT('',(-0.3165,-3.87600711930137E-17,-1.2495));
#517=CARTESIAN_POINT('Origin',(0.,0.,-1.2495));
#518=CARTESIAN_POINT('Origin',(0.,0.,-1.623));
#519=CARTESIAN_POINT('',(-0.3165,-3.87600711930137E-17,-1.9965));
#520=CARTESIAN_POINT('',(-0.3165,-3.87600711930137E-17,-1.623));
#521=CARTESIAN_POINT('Origin',(0.,0.,-1.9965));
#522=CARTESIAN_POINT('Origin',(0.3845,0.,-1.9965));
#523=UNCERTAINTY_MEASURE_WITH_UNIT(LENGTH_MEASURE(0.000393700787401575),
#528,'DISTANCE_ACCURACY_VALUE',
'Maximum model space distance between geometric entities at asserted c
onnectivities');
#524=UNCERTAINTY_MEASURE_WITH_UNIT(LENGTH_MEASURE(0.000393700787401575),
#528,'DISTANCE_ACCURACY_VALUE',
'Maximum model space distance between geometric entities at asserted c
onnectivities');
#525=(
GEOMETRIC_REPRESENTATION_CONTEXT(3)
GLOBAL_UNCERTAINTY_ASSIGNED_CONTEXT((#523))
GLOBAL_UNIT_ASSIGNED_CONTEXT((#528,#532,#533))
REPRESENTATION_CONTEXT('','3D')
);
#526=(
GEOMETRIC_REPRESENTATION_CONTEXT(3)
GLOBAL_UNCERTAINTY_ASSIGNED_CONTEXT((#524))
GLOBAL_UNIT_ASSIGNED_CONTEXT((#528,#532,#533))
REPRESENTATION_CONTEXT('','3D')
);
#527=DIMENSIONAL_EXPONENTS(1.,0.,0.,0.,0.,0.,0.);
#528=(
CONVERSION_BASED_UNIT('inch',#531)
LENGTH_UNIT()
NAMED_UNIT(#527)
);
#529=(
LENGTH_UNIT()
NAMED_UNIT(*)
SI_UNIT(.MILLI.,.METRE.)
);
#530=(
LENGTH_UNIT()
NAMED_UNIT(*)
SI_UNIT($,.METRE.)
);
#531=LENGTH_MEASURE_WITH_UNIT(LENGTH_MEASURE(25.4),#529);
#532=(
NAMED_UNIT(*)
PLANE_ANGLE_UNIT()
SI_UNIT($,.RADIAN.)
);
#533=(
NAMED_UNIT(*)
SI_UNIT($,.STERADIAN.)
SOLID_ANGLE_UNIT()
);
#534=SHAPE_DEFINITION_REPRESENTATION(#535,#536);
#535=PRODUCT_DEFINITION_SHAPE('',$,#538);
#536=SHAPE_REPRESENTATION('',(#298),#525);
#537=PRODUCT_DEFINITION_CONTEXT('part definition',#542,'design');
#538=PRODUCT_DEFINITION('PUL-30256A-1 - MULTUS',
'PUL-30256A-1 - MULTUS v11',#539,#537);
#539=PRODUCT_DEFINITION_FORMATION('',$,#544);
#540=PRODUCT_RELATED_PRODUCT_CATEGORY('PUL-30256A-1 - MULTUS v11',
'PUL-30256A-1 - MULTUS v11',(#544));
#541=APPLICATION_PROTOCOL_DEFINITION('international standard',
'automotive_design',2009,#542);
#542=APPLICATION_CONTEXT(
'Core Data for Automotive Mechanical Design Process');
#543=PRODUCT_CONTEXT('part definition',#542,'mechanical');
#544=PRODUCT('PUL-30256A-1 - MULTUS','PUL-30256A-1 - MULTUS v11',$,(#543));
#545=PRESENTATION_STYLE_ASSIGNMENT((#546));
#546=SURFACE_STYLE_USAGE(.BOTH.,#547);
#547=SURFACE_SIDE_STYLE('',(#548));
#548=SURFACE_STYLE_FILL_AREA(#549);
#549=FILL_AREA_STYLE('Steel - Satin',(#550));
#550=FILL_AREA_STYLE_COLOUR('Steel - Satin',#551);
#551=COLOUR_RGB('Steel - Satin',0.627450980392157,0.627450980392157,0.627450980392157);
ENDSEC;
END-ISO-10303-21;
