ISO-10303-21;
HEADER;
/* Generated by software containing ST-Developer
 * from STEP Tools, Inc. (www.steptools.com) 
 */

FILE_DESCRIPTION(
/* description */ (''),
/* implementation_level */ '2;1');

FILE_NAME(
/* name */ 'S1067  - MACHINE 4.step',
/* time_stamp */ '2026-01-07T10:44:51-06:00',
/* author */ (''),
/* organization */ (''),
/* preprocessor_version */ 'ST-DEVELOPER v20.1',
/* originating_system */ 'Autodesk Translation Framework v14.24.0.0',
/* authorisation */ '');

FILE_SCHEMA (('AUTOMOTIVE_DESIGN { 1 0 10303 214 3 1 1 }'));
ENDSEC;

DATA;
#10=MECHANICAL_DESIGN_GEOMETRIC_PRESENTATION_REPRESENTATION('',(#13),#313);
#11=SHAPE_REPRESENTATION_RELATIONSHIP('SRR','None',#323,#12);
#12=ADVANCED_BREP_SHAPE_REPRESENTATION('',(#14),#312);
#13=STYLED_ITEM('',(#332),#14);
#14=MANIFOLD_SOLID_BREP('Body1',#165);
#15=FACE_BOUND('',#54,.T.);
#16=FACE_BOUND('',#60,.T.);
#17=PLANE('',#194);
#18=PLANE('',#204);
#19=CONICAL_SURFACE('',#192,0.4205,0.785398163397456);
#20=CONICAL_SURFACE('',#198,0.1105,0.785398163397449);
#21=CONICAL_SURFACE('',#202,0.1105,0.785398163397451);
#22=LINE('',#274,#28);
#23=LINE('',#287,#29);
#24=LINE('',#291,#30);
#25=LINE('',#299,#31);
#26=LINE('',#303,#32);
#27=LINE('',#307,#33);
#28=VECTOR('',#217,0.4305);
#29=VECTOR('',#234,0.4305);
#30=VECTOR('',#239,0.4205);
#31=VECTOR('',#250,0.1105);
#32=VECTOR('',#255,0.1005);
#33=VECTOR('',#260,0.1105);
#34=CYLINDRICAL_SURFACE('',#183,0.4305);
#35=CYLINDRICAL_SURFACE('',#189,0.4305);
#36=CYLINDRICAL_SURFACE('',#200,0.1005);
#37=FACE_OUTER_BOUND('',#48,.T.);
#38=FACE_OUTER_BOUND('',#49,.T.);
#39=FACE_OUTER_BOUND('',#50,.T.);
#40=FACE_OUTER_BOUND('',#51,.T.);
#41=FACE_OUTER_BOUND('',#52,.T.);
#42=FACE_OUTER_BOUND('',#53,.T.);
#43=FACE_OUTER_BOUND('',#55,.T.);
#44=FACE_OUTER_BOUND('',#56,.T.);
#45=FACE_OUTER_BOUND('',#57,.T.);
#46=FACE_OUTER_BOUND('',#58,.T.);
#47=FACE_OUTER_BOUND('',#59,.T.);
#48=EDGE_LOOP('',(#109,#110,#111,#112));
#49=EDGE_LOOP('',(#113,#114,#115,#116));
#50=EDGE_LOOP('',(#117,#118,#119,#120));
#51=EDGE_LOOP('',(#121,#122,#123,#124,#125));
#52=EDGE_LOOP('',(#126,#127,#128,#129,#130));
#53=EDGE_LOOP('',(#131));
#54=EDGE_LOOP('',(#132));
#55=EDGE_LOOP('',(#133,#134,#135,#136));
#56=EDGE_LOOP('',(#137,#138,#139,#140));
#57=EDGE_LOOP('',(#141,#142,#143,#144));
#58=EDGE_LOOP('',(#145,#146,#147,#148));
#59=EDGE_LOOP('',(#149));
#60=EDGE_LOOP('',(#150));
#61=CIRCLE('',#180,0.425870370370371);
#62=CIRCLE('',#181,0.005);
#63=CIRCLE('',#182,0.4305);
#64=CIRCLE('',#184,0.4305);
#65=CIRCLE('',#186,0.4305);
#66=CIRCLE('',#187,0.005);
#67=CIRCLE('',#188,0.42587037037037);
#68=CIRCLE('',#190,0.4305);
#69=CIRCLE('',#191,0.4305);
#70=CIRCLE('',#193,0.4105);
#71=CIRCLE('',#195,0.1205);
#72=CIRCLE('',#197,0.0625);
#73=CIRCLE('',#199,0.1005);
#74=CIRCLE('',#201,0.1005);
#75=CIRCLE('',#203,0.1205);
#76=VERTEX_POINT('',#267);
#77=VERTEX_POINT('',#269);
#78=VERTEX_POINT('',#273);
#79=VERTEX_POINT('',#277);
#80=VERTEX_POINT('',#279);
#81=VERTEX_POINT('',#283);
#82=VERTEX_POINT('',#284);
#83=VERTEX_POINT('',#289);
#84=VERTEX_POINT('',#293);
#85=VERTEX_POINT('',#298);
#86=VERTEX_POINT('',#302);
#87=VERTEX_POINT('',#306);
#88=EDGE_CURVE('',#76,#76,#61,.T.);
#89=EDGE_CURVE('',#76,#77,#62,.T.);
#90=EDGE_CURVE('',#77,#77,#63,.T.);
#91=EDGE_CURVE('',#77,#78,#22,.T.);
#92=EDGE_CURVE('',#78,#78,#64,.T.);
#93=EDGE_CURVE('',#79,#79,#65,.T.);
#94=EDGE_CURVE('',#79,#80,#66,.T.);
#95=EDGE_CURVE('',#80,#80,#67,.T.);
#96=EDGE_CURVE('',#81,#82,#68,.T.);
#97=EDGE_CURVE('',#82,#81,#69,.T.);
#98=EDGE_CURVE('',#82,#79,#23,.T.);
#99=EDGE_CURVE('',#83,#83,#70,.T.);
#100=EDGE_CURVE('',#83,#81,#24,.T.);
#101=EDGE_CURVE('',#84,#84,#71,.T.);
#102=EDGE_CURVE('',#76,#80,#72,.T.);
#103=EDGE_CURVE('',#84,#85,#25,.T.);
#104=EDGE_CURVE('',#85,#85,#73,.T.);
#105=EDGE_CURVE('',#85,#86,#26,.T.);
#106=EDGE_CURVE('',#86,#86,#74,.T.);
#107=EDGE_CURVE('',#86,#87,#27,.T.);
#108=EDGE_CURVE('',#87,#87,#75,.T.);
#109=ORIENTED_EDGE('',*,*,#88,.T.);
#110=ORIENTED_EDGE('',*,*,#89,.T.);
#111=ORIENTED_EDGE('',*,*,#90,.T.);
#112=ORIENTED_EDGE('',*,*,#89,.F.);
#113=ORIENTED_EDGE('',*,*,#90,.F.);
#114=ORIENTED_EDGE('',*,*,#91,.T.);
#115=ORIENTED_EDGE('',*,*,#92,.T.);
#116=ORIENTED_EDGE('',*,*,#91,.F.);
#117=ORIENTED_EDGE('',*,*,#93,.T.);
#118=ORIENTED_EDGE('',*,*,#94,.T.);
#119=ORIENTED_EDGE('',*,*,#95,.T.);
#120=ORIENTED_EDGE('',*,*,#94,.F.);
#121=ORIENTED_EDGE('',*,*,#96,.F.);
#122=ORIENTED_EDGE('',*,*,#97,.F.);
#123=ORIENTED_EDGE('',*,*,#98,.T.);
#124=ORIENTED_EDGE('',*,*,#93,.F.);
#125=ORIENTED_EDGE('',*,*,#98,.F.);
#126=ORIENTED_EDGE('',*,*,#99,.T.);
#127=ORIENTED_EDGE('',*,*,#100,.T.);
#128=ORIENTED_EDGE('',*,*,#96,.T.);
#129=ORIENTED_EDGE('',*,*,#97,.T.);
#130=ORIENTED_EDGE('',*,*,#100,.F.);
#131=ORIENTED_EDGE('',*,*,#99,.F.);
#132=ORIENTED_EDGE('',*,*,#101,.F.);
#133=ORIENTED_EDGE('',*,*,#88,.F.);
#134=ORIENTED_EDGE('',*,*,#102,.T.);
#135=ORIENTED_EDGE('',*,*,#95,.F.);
#136=ORIENTED_EDGE('',*,*,#102,.F.);
#137=ORIENTED_EDGE('',*,*,#101,.T.);
#138=ORIENTED_EDGE('',*,*,#103,.T.);
#139=ORIENTED_EDGE('',*,*,#104,.F.);
#140=ORIENTED_EDGE('',*,*,#103,.F.);
#141=ORIENTED_EDGE('',*,*,#104,.T.);
#142=ORIENTED_EDGE('',*,*,#105,.T.);
#143=ORIENTED_EDGE('',*,*,#106,.F.);
#144=ORIENTED_EDGE('',*,*,#105,.F.);
#145=ORIENTED_EDGE('',*,*,#106,.T.);
#146=ORIENTED_EDGE('',*,*,#107,.T.);
#147=ORIENTED_EDGE('',*,*,#108,.F.);
#148=ORIENTED_EDGE('',*,*,#107,.F.);
#149=ORIENTED_EDGE('',*,*,#92,.F.);
#150=ORIENTED_EDGE('',*,*,#108,.T.);
#151=TOROIDAL_SURFACE('',#179,0.4255,0.005);
#152=TOROIDAL_SURFACE('',#185,0.4255,0.005);
#153=TOROIDAL_SURFACE('',#196,0.4305,0.0625);
#154=ADVANCED_FACE('',(#37),#151,.T.);
#155=ADVANCED_FACE('',(#38),#34,.T.);
#156=ADVANCED_FACE('',(#39),#152,.T.);
#157=ADVANCED_FACE('',(#40),#35,.T.);
#158=ADVANCED_FACE('',(#41),#19,.T.);
#159=ADVANCED_FACE('',(#42,#15),#17,.T.);
#160=ADVANCED_FACE('',(#43),#153,.F.);
#161=ADVANCED_FACE('',(#44),#20,.F.);
#162=ADVANCED_FACE('',(#45),#36,.F.);
#163=ADVANCED_FACE('',(#46),#21,.F.);
#164=ADVANCED_FACE('',(#47,#16),#18,.T.);
#165=CLOSED_SHELL('',(#154,#155,#156,#157,#158,#159,#160,#161,#162,#163,
#164));
#166=DERIVED_UNIT_ELEMENT(#168,1.);
#167=DERIVED_UNIT_ELEMENT(#317,-3.);
#168=(
MASS_UNIT()
NAMED_UNIT(*)
SI_UNIT(.KILO.,.GRAM.)
);
#169=DERIVED_UNIT((#166,#167));
#170=MEASURE_REPRESENTATION_ITEM('density measure',
POSITIVE_RATIO_MEASURE(7850.),#169);
#171=PROPERTY_DEFINITION_REPRESENTATION(#176,#173);
#172=PROPERTY_DEFINITION_REPRESENTATION(#177,#174);
#173=REPRESENTATION('material name',(#175),#312);
#174=REPRESENTATION('density',(#170),#312);
#175=DESCRIPTIVE_REPRESENTATION_ITEM('Steel','Steel');
#176=PROPERTY_DEFINITION('material property','material name',#325);
#177=PROPERTY_DEFINITION('material property','density of part',#325);
#178=AXIS2_PLACEMENT_3D('',#265,#205,#206);
#179=AXIS2_PLACEMENT_3D('',#266,#207,#208);
#180=AXIS2_PLACEMENT_3D('',#268,#209,#210);
#181=AXIS2_PLACEMENT_3D('',#270,#211,#212);
#182=AXIS2_PLACEMENT_3D('',#271,#213,#214);
#183=AXIS2_PLACEMENT_3D('',#272,#215,#216);
#184=AXIS2_PLACEMENT_3D('',#275,#218,#219);
#185=AXIS2_PLACEMENT_3D('',#276,#220,#221);
#186=AXIS2_PLACEMENT_3D('',#278,#222,#223);
#187=AXIS2_PLACEMENT_3D('',#280,#224,#225);
#188=AXIS2_PLACEMENT_3D('',#281,#226,#227);
#189=AXIS2_PLACEMENT_3D('',#282,#228,#229);
#190=AXIS2_PLACEMENT_3D('',#285,#230,#231);
#191=AXIS2_PLACEMENT_3D('',#286,#232,#233);
#192=AXIS2_PLACEMENT_3D('',#288,#235,#236);
#193=AXIS2_PLACEMENT_3D('',#290,#237,#238);
#194=AXIS2_PLACEMENT_3D('',#292,#240,#241);
#195=AXIS2_PLACEMENT_3D('',#294,#242,#243);
#196=AXIS2_PLACEMENT_3D('',#295,#244,#245);
#197=AXIS2_PLACEMENT_3D('',#296,#246,#247);
#198=AXIS2_PLACEMENT_3D('',#297,#248,#249);
#199=AXIS2_PLACEMENT_3D('',#300,#251,#252);
#200=AXIS2_PLACEMENT_3D('',#301,#253,#254);
#201=AXIS2_PLACEMENT_3D('',#304,#256,#257);
#202=AXIS2_PLACEMENT_3D('',#305,#258,#259);
#203=AXIS2_PLACEMENT_3D('',#308,#261,#262);
#204=AXIS2_PLACEMENT_3D('',#309,#263,#264);
#205=DIRECTION('axis',(0.,0.,1.));
#206=DIRECTION('refdir',(1.,0.,0.));
#207=DIRECTION('center_axis',(0.,0.,1.));
#208=DIRECTION('ref_axis',(1.,0.,0.));
#209=DIRECTION('center_axis',(0.,0.,-1.));
#210=DIRECTION('ref_axis',(-1.,1.22464679914735E-16,0.));
#211=DIRECTION('center_axis',(1.22464679914735E-16,-1.,0.));
#212=DIRECTION('ref_axis',(-1.,-1.22464679914735E-16,0.));
#213=DIRECTION('center_axis',(0.,0.,1.));
#214=DIRECTION('ref_axis',(-1.,1.22464679914735E-16,0.));
#215=DIRECTION('center_axis',(0.,0.,1.));
#216=DIRECTION('ref_axis',(1.,0.,0.));
#217=DIRECTION('',(0.,0.,-1.));
#218=DIRECTION('center_axis',(0.,0.,1.));
#219=DIRECTION('ref_axis',(1.,0.,0.));
#220=DIRECTION('center_axis',(0.,0.,1.));
#221=DIRECTION('ref_axis',(1.,0.,0.));
#222=DIRECTION('center_axis',(0.,0.,-1.));
#223=DIRECTION('ref_axis',(-1.,1.22464679914735E-16,0.));
#224=DIRECTION('center_axis',(1.22464679914735E-16,-1.,0.));
#225=DIRECTION('ref_axis',(-1.,-1.22464679914735E-16,0.));
#226=DIRECTION('center_axis',(0.,0.,1.));
#227=DIRECTION('ref_axis',(-1.,1.22464679914735E-16,0.));
#228=DIRECTION('center_axis',(0.,0.,1.));
#229=DIRECTION('ref_axis',(1.,0.,0.));
#230=DIRECTION('center_axis',(0.,0.,1.));
#231=DIRECTION('ref_axis',(-1.,0.,0.));
#232=DIRECTION('center_axis',(0.,0.,1.));
#233=DIRECTION('ref_axis',(-1.,0.,0.));
#234=DIRECTION('',(0.,0.,-1.));
#235=DIRECTION('center_axis',(0.,0.,-1.));
#236=DIRECTION('ref_axis',(-1.,0.,0.));
#237=DIRECTION('center_axis',(0.,0.,-1.));
#238=DIRECTION('ref_axis',(-1.,0.,0.));
#239=DIRECTION('',(0.707106781186553,8.659560562355E-17,-0.707106781186542));
#240=DIRECTION('center_axis',(0.,0.,1.));
#241=DIRECTION('ref_axis',(1.,0.,0.));
#242=DIRECTION('center_axis',(0.,0.,1.));
#243=DIRECTION('ref_axis',(1.,0.,0.));
#244=DIRECTION('center_axis',(0.,0.,1.));
#245=DIRECTION('ref_axis',(1.,0.,0.));
#246=DIRECTION('center_axis',(1.22464679914735E-16,-1.,0.));
#247=DIRECTION('ref_axis',(-1.,-1.22464679914735E-16,0.));
#248=DIRECTION('center_axis',(0.,0.,1.));
#249=DIRECTION('ref_axis',(1.,0.,0.));
#250=DIRECTION('',(0.707106781186548,8.65956056235494E-17,-0.707106781186547));
#251=DIRECTION('center_axis',(0.,0.,1.));
#252=DIRECTION('ref_axis',(1.,0.,0.));
#253=DIRECTION('center_axis',(0.,0.,1.));
#254=DIRECTION('ref_axis',(1.,0.,0.));
#255=DIRECTION('',(0.,0.,-1.));
#256=DIRECTION('center_axis',(0.,0.,1.));
#257=DIRECTION('ref_axis',(1.,0.,0.));
#258=DIRECTION('center_axis',(0.,0.,-1.));
#259=DIRECTION('ref_axis',(1.,0.,0.));
#260=DIRECTION('',(-0.707106781186549,-8.65956056235496E-17,-0.707106781186545));
#261=DIRECTION('center_axis',(0.,0.,1.));
#262=DIRECTION('ref_axis',(1.,0.,0.));
#263=DIRECTION('center_axis',(0.,0.,-1.));
#264=DIRECTION('ref_axis',(-1.,0.,0.));
#265=CARTESIAN_POINT('',(0.,0.,0.));
#266=CARTESIAN_POINT('Origin',(0.,0.,-0.264164953789969));
#267=CARTESIAN_POINT('',(-0.425870370370371,-5.21540785925772E-17,-0.259178690079659));
#268=CARTESIAN_POINT('Origin',(0.,0.,-0.259178690079659));
#269=CARTESIAN_POINT('',(-0.4305,-5.27210447032936E-17,-0.264164953789969));
#270=CARTESIAN_POINT('Origin',(-0.4255,-5.21087213037199E-17,-0.264164953789969));
#271=CARTESIAN_POINT('Origin',(0.,0.,-0.264164953789969));
#272=CARTESIAN_POINT('Origin',(0.,0.,-0.326525590551181));
#273=CARTESIAN_POINT('',(-0.4305,-5.27210447032936E-17,-0.393700787401575));
#274=CARTESIAN_POINT('',(-0.4305,-5.27210447032936E-17,-0.326525590551181));
#275=CARTESIAN_POINT('Origin',(0.,0.,-0.393700787401575));
#276=CARTESIAN_POINT('Origin',(0.,0.,-0.129535833611606));
#277=CARTESIAN_POINT('',(-0.4305,-5.27210447032935E-17,-0.129535833611606));
#278=CARTESIAN_POINT('Origin',(0.,0.,-0.129535833611606));
#279=CARTESIAN_POINT('',(-0.42587037037037,-5.21540785925772E-17,-0.134522097321916));
#280=CARTESIAN_POINT('Origin',(-0.4255,-5.21087213037199E-17,-0.129535833611606));
#281=CARTESIAN_POINT('Origin',(0.,0.,-0.134522097321916));
#282=CARTESIAN_POINT('Origin',(0.,0.,-0.0671751968503937));
#283=CARTESIAN_POINT('',(0.4305,5.27210447032935E-17,-0.0199999999999999));
#284=CARTESIAN_POINT('',(-0.4305,-5.27210447032935E-17,-0.0199999999999999));
#285=CARTESIAN_POINT('Origin',(0.,0.,-0.0199999999999999));
#286=CARTESIAN_POINT('Origin',(0.,0.,-0.0199999999999999));
#287=CARTESIAN_POINT('',(-0.4305,-5.27210447032935E-17,-0.0671751968503937));
#288=CARTESIAN_POINT('Origin',(0.,0.,-0.00999999999999996));
#289=CARTESIAN_POINT('',(0.4105,-5.02717511049988E-17,0.));
#290=CARTESIAN_POINT('Origin',(0.,0.,0.));
#291=CARTESIAN_POINT('',(0.4205,5.14963979041462E-17,-0.00999999999999996));
#292=CARTESIAN_POINT('Origin',(0.1205,0.,0.));
#293=CARTESIAN_POINT('',(-0.1205,-1.47569939297256E-17,-6.82961998416066E-18));
#294=CARTESIAN_POINT('Origin',(0.,0.,0.));
#295=CARTESIAN_POINT('Origin',(0.,0.,-0.196850393700787));
#296=CARTESIAN_POINT('Origin',(-0.4305,-5.27210447032936E-17,-0.196850393700787));
#297=CARTESIAN_POINT('Origin',(0.,0.,-0.00999999999999999));
#298=CARTESIAN_POINT('',(-0.1005,-1.23077003314309E-17,-0.02));
#299=CARTESIAN_POINT('',(-0.1105,-1.35323471305782E-17,-0.00999999999999999));
#300=CARTESIAN_POINT('Origin',(0.,0.,-0.02));
#301=CARTESIAN_POINT('Origin',(0.,0.,-0.196850393700787));
#302=CARTESIAN_POINT('',(-0.1005,-1.23077003314309E-17,-0.373700787401575));
#303=CARTESIAN_POINT('',(-0.1005,-1.23077003314309E-17,-0.196850393700787));
#304=CARTESIAN_POINT('Origin',(0.,0.,-0.373700787401575));
#305=CARTESIAN_POINT('Origin',(0.,0.,-0.383700787401575));
#306=CARTESIAN_POINT('',(-0.1205,-1.47569939297256E-17,-0.393700787401575));
#307=CARTESIAN_POINT('',(-0.1105,-1.35323471305782E-17,-0.383700787401575));
#308=CARTESIAN_POINT('Origin',(0.,0.,-0.393700787401575));
#309=CARTESIAN_POINT('Origin',(0.4305,0.,-0.393700787401575));
#310=UNCERTAINTY_MEASURE_WITH_UNIT(LENGTH_MEASURE(0.000393700787401575),
#315,'DISTANCE_ACCURACY_VALUE',
'Maximum model space distance between geometric entities at asserted c
onnectivities');
#311=UNCERTAINTY_MEASURE_WITH_UNIT(LENGTH_MEASURE(0.000393700787401575),
#315,'DISTANCE_ACCURACY_VALUE',
'Maximum model space distance between geometric entities at asserted c
onnectivities');
#312=(
GEOMETRIC_REPRESENTATION_CONTEXT(3)
GLOBAL_UNCERTAINTY_ASSIGNED_CONTEXT((#310))
GLOBAL_UNIT_ASSIGNED_CONTEXT((#315,#319,#320))
REPRESENTATION_CONTEXT('','3D')
);
#313=(
GEOMETRIC_REPRESENTATION_CONTEXT(3)
GLOBAL_UNCERTAINTY_ASSIGNED_CONTEXT((#311))
GLOBAL_UNIT_ASSIGNED_CONTEXT((#315,#319,#320))
REPRESENTATION_CONTEXT('','3D')
);
#314=DIMENSIONAL_EXPONENTS(1.,0.,0.,0.,0.,0.,0.);
#315=(
CONVERSION_BASED_UNIT('inch',#318)
LENGTH_UNIT()
NAMED_UNIT(#314)
);
#316=(
LENGTH_UNIT()
NAMED_UNIT(*)
SI_UNIT(.MILLI.,.METRE.)
);
#317=(
LENGTH_UNIT()
NAMED_UNIT(*)
SI_UNIT($,.METRE.)
);
#318=LENGTH_MEASURE_WITH_UNIT(LENGTH_MEASURE(25.4),#316);
#319=(
NAMED_UNIT(*)
PLANE_ANGLE_UNIT()
SI_UNIT($,.RADIAN.)
);
#320=(
NAMED_UNIT(*)
SI_UNIT($,.STERADIAN.)
SOLID_ANGLE_UNIT()
);
#321=SHAPE_DEFINITION_REPRESENTATION(#322,#323);
#322=PRODUCT_DEFINITION_SHAPE('',$,#325);
#323=SHAPE_REPRESENTATION('',(#178),#312);
#324=PRODUCT_DEFINITION_CONTEXT('part definition',#329,'design');
#325=PRODUCT_DEFINITION('S1067  - MACHINE 4','S1067  - MACHINE 4 v4',#326,
#324);
#326=PRODUCT_DEFINITION_FORMATION('',$,#331);
#327=PRODUCT_RELATED_PRODUCT_CATEGORY('S1067  - MACHINE 4 v4',
'S1067  - MACHINE 4 v4',(#331));
#328=APPLICATION_PROTOCOL_DEFINITION('international standard',
'automotive_design',2009,#329);
#329=APPLICATION_CONTEXT(
'Core Data for Automotive Mechanical Design Process');
#330=PRODUCT_CONTEXT('part definition',#329,'mechanical');
#331=PRODUCT('S1067  - MACHINE 4','S1067  - MACHINE 4 v4',$,(#330));
#332=PRESENTATION_STYLE_ASSIGNMENT((#333));
#333=SURFACE_STYLE_USAGE(.BOTH.,#334);
#334=SURFACE_SIDE_STYLE('',(#335));
#335=SURFACE_STYLE_FILL_AREA(#336);
#336=FILL_AREA_STYLE('Steel - Satin',(#337));
#337=FILL_AREA_STYLE_COLOUR('Steel - Satin',#338);
#338=COLOUR_RGB('Steel - Satin',0.627450980392157,0.627450980392157,0.627450980392157);
ENDSEC;
END-ISO-10303-21;
