ISO-10303-21;
HEADER;
/* Generated by software containing ST-Developer
 * from STEP Tools, Inc. (www.steptools.com) 
 */

FILE_DESCRIPTION(
/* description */ (''),
/* implementation_level */ '2;1');

FILE_NAME(
/* name */ 'T-D6-TB-113092 - MARK.step',
/* time_stamp */ '2026-01-07T10:39:19-06:00',
/* author */ (''),
/* organization */ (''),
/* preprocessor_version */ 'ST-DEVELOPER v20.1',
/* originating_system */ 'Autodesk Translation Framework v14.24.0.0',
/* authorisation */ '');

FILE_SCHEMA (('AUTOMOTIVE_DESIGN { 1 0 10303 214 3 1 1 }'));
ENDSEC;

DATA;
#10=MECHANICAL_DESIGN_GEOMETRIC_PRESENTATION_REPRESENTATION('',(#13),#1052);
#11=SHAPE_REPRESENTATION_RELATIONSHIP('SRR','None',#1062,#12);
#12=ADVANCED_BREP_SHAPE_REPRESENTATION('',(#14),#1051);
#13=STYLED_ITEM('',(#1071),#14);
#14=MANIFOLD_SOLID_BREP('Body1',#504);
#15=FACE_BOUND('',#115,.T.);
#16=FACE_BOUND('',#118,.T.);
#17=PLANE('',#524);
#18=PLANE('',#528);
#19=PLANE('',#529);
#20=PLANE('',#539);
#21=PLANE('',#540);
#22=PLANE('',#550);
#23=PLANE('',#551);
#24=PLANE('',#562);
#25=PLANE('',#567);
#26=PLANE('',#568);
#27=PLANE('',#569);
#28=PLANE('',#570);
#29=PLANE('',#571);
#30=PLANE('',#574);
#31=PLANE('',#579);
#32=PLANE('',#582);
#33=B_SPLINE_CURVE_WITH_KNOTS('',3,(#750,#751,#752,#753,#754,#755),
 .UNSPECIFIED.,.F.,.F.,(4,2,4),(6.16526603894559,6.23169948066461,6.34984612353292),
 .UNSPECIFIED.);
#34=B_SPLINE_CURVE_WITH_KNOTS('',3,(#759,#760,#761,#762,#763,#764,#765,
#766,#767,#768,#769,#770,#771,#772,#773,#774),.UNSPECIFIED.,.F.,.F.,(4,
2,2,2,2,2,2,4),(-1.27523181519993,-1.24705933002031,-0.95792134942844,-0.827488935329535,
-0.680245725371884,-0.49206626568135,-0.253847006169289,-0.000365775547769176),
 .UNSPECIFIED.);
#35=B_SPLINE_CURVE_WITH_KNOTS('',3,(#776,#777,#778,#779,#780,#781,#782,
#783,#784,#785,#786,#787,#788,#789,#790,#791),.UNSPECIFIED.,.F.,.F.,(4,
2,2,2,2,2,2,4),(-2.59338298953432,-2.45439748307523,-2.30578031466228,-2.09684703770466,
-1.93190716557896,-1.75246775839919,-1.62255873931232,-1.27523181519993),
 .UNSPECIFIED.);
#36=B_SPLINE_CURVE_WITH_KNOTS('',3,(#794,#795,#796,#797,#798,#799),
 .UNSPECIFIED.,.F.,.F.,(4,2,4),(2.11661537451097,2.23476201737929,2.3011954590983),
 .UNSPECIFIED.);
#37=B_SPLINE_CURVE_WITH_KNOTS('',3,(#820,#821,#822,#823,#824,#825),
 .UNSPECIFIED.,.F.,.F.,(4,2,4),(6.1652341120269,6.2284841684912,6.34986633659898),
 .UNSPECIFIED.);
#38=B_SPLINE_CURVE_WITH_KNOTS('',3,(#833,#834,#835,#836,#837,#838,#839,
#840,#841,#842,#843,#844,#845,#846,#847,#848),.UNSPECIFIED.,.F.,.F.,(4,
2,2,2,2,2,2,4),(-1.27523180811922,-1.24705932889842,-0.957921345620565,
-0.827488931158822,-0.680245723089296,-0.492066263327465,-0.253847007686263,
-0.000365768773376518),.UNSPECIFIED.);
#39=B_SPLINE_CURVE_WITH_KNOTS('',3,(#857,#858,#859,#860,#861,#862,#863,
#864,#865,#866,#867,#868,#869,#870,#871,#872),.UNSPECIFIED.,.F.,.F.,(4,
2,2,2,2,2,2,4),(-2.59338298426619,-2.45439747180248,-2.30578030484969,-2.09684702881408,
-1.93190715698032,-1.75246775077144,-1.62255873177615,-1.27523180811922),
 .UNSPECIFIED.);
#40=B_SPLINE_CURVE_WITH_KNOTS('',3,(#875,#876,#877,#878,#879,#880),
 .UNSPECIFIED.,.F.,.F.,(4,2,4),(2.11661537451097,2.23476201737929,2.3011954590983),
 .UNSPECIFIED.);
#41=B_SPLINE_CURVE_WITH_KNOTS('',3,(#887,#888,#889,#890,#891,#892),
 .UNSPECIFIED.,.F.,.F.,(4,2,4),(6.1652341120269,6.2284841684912,6.34986633659898),
 .UNSPECIFIED.);
#42=B_SPLINE_CURVE_WITH_KNOTS('',3,(#900,#901,#902,#903,#904,#905,#906,
#907,#908,#909,#910,#911,#912,#913,#914,#915),.UNSPECIFIED.,.F.,.F.,(4,
2,2,2,2,2,2,4),(-1.2752301662268,-1.24705906876522,-0.957920462639598,-0.827487964044766,
-0.680245193806546,-0.492065717520955,-0.253847359462684,-0.000364197905684704),
 .UNSPECIFIED.);
#43=B_SPLINE_CURVE_WITH_KNOTS('',3,(#924,#925,#926,#927,#928,#929,#930,
#931,#932,#933,#934,#935,#936,#937,#938,#939),.UNSPECIFIED.,.F.,.F.,(4,
2,2,2,2,2,2,4),(-2.59338176266497,-2.45439485782768,-2.30577802945733,-2.09684496722457,
-1.93190516309372,-1.75246598203357,-1.62255698427942,-1.2752301662268),
 .UNSPECIFIED.);
#44=B_SPLINE_CURVE_WITH_KNOTS('',3,(#942,#943,#944,#945,#946,#947),
 .UNSPECIFIED.,.F.,.F.,(4,2,4),(2.11661537451097,2.23476201737929,2.3011954590983),
 .UNSPECIFIED.);
#45=B_SPLINE_CURVE_WITH_KNOTS('',3,(#954,#955,#956,#957,#958,#959),
 .UNSPECIFIED.,.F.,.F.,(4,2,4),(6.16526603894559,6.23169948066461,6.34984612353292),
 .UNSPECIFIED.);
#46=B_SPLINE_CURVE_WITH_KNOTS('',3,(#969,#970,#971,#972,#973,#974,#975,
#976,#977,#978,#979,#980,#981,#982,#983,#984),.UNSPECIFIED.,.F.,.F.,(4,
2,2,2,2,2,2,4),(-1.27484930542474,-1.24699911936995,-0.957715800411516,
-0.827263736371822,-0.680122460008393,-0.491939116284754,-0.253928979692589,
0.),.UNSPECIFIED.);
#47=B_SPLINE_CURVE_WITH_KNOTS('',3,(#992,#993,#994,#995,#996,#997),
 .UNSPECIFIED.,.F.,.F.,(4,2,4),(2.11661537451097,2.23476201737929,2.3011954590983),
 .UNSPECIFIED.);
#48=B_SPLINE_CURVE_WITH_KNOTS('',3,(#1000,#1001,#1002,#1003,#1004,#1005,
#1006,#1007,#1008,#1009,#1010,#1011,#1012,#1013,#1014,#1015),
 .UNSPECIFIED.,.F.,.F.,(4,2,2,2,2,2,2,4),(-2.59309802725298,-2.45378806584965,
-2.30524951760293,-2.09636622026298,-1.93144219578702,-1.7520554495046,
-1.62215139277936,-1.27484930542474),.UNSPECIFIED.);
#49=TOROIDAL_SURFACE('',#521,0.499625,0.258875);
#50=TOROIDAL_SURFACE('',#531,0.733125,0.25);
#51=TOROIDAL_SURFACE('',#536,0.499625,0.258875);
#52=TOROIDAL_SURFACE('',#542,0.733125,0.25);
#53=TOROIDAL_SURFACE('',#547,0.499625,0.258875);
#54=TOROIDAL_SURFACE('',#553,0.733125,0.25);
#55=TOROIDAL_SURFACE('',#559,0.499625,0.258875);
#56=TOROIDAL_SURFACE('',#563,0.733125,0.25);
#57=FACE_OUTER_BOUND('',#88,.T.);
#58=FACE_OUTER_BOUND('',#89,.T.);
#59=FACE_OUTER_BOUND('',#90,.T.);
#60=FACE_OUTER_BOUND('',#91,.T.);
#61=FACE_OUTER_BOUND('',#92,.T.);
#62=FACE_OUTER_BOUND('',#93,.T.);
#63=FACE_OUTER_BOUND('',#94,.T.);
#64=FACE_OUTER_BOUND('',#95,.T.);
#65=FACE_OUTER_BOUND('',#96,.T.);
#66=FACE_OUTER_BOUND('',#97,.T.);
#67=FACE_OUTER_BOUND('',#98,.T.);
#68=FACE_OUTER_BOUND('',#99,.T.);
#69=FACE_OUTER_BOUND('',#100,.T.);
#70=FACE_OUTER_BOUND('',#101,.T.);
#71=FACE_OUTER_BOUND('',#102,.T.);
#72=FACE_OUTER_BOUND('',#103,.T.);
#73=FACE_OUTER_BOUND('',#104,.T.);
#74=FACE_OUTER_BOUND('',#105,.T.);
#75=FACE_OUTER_BOUND('',#106,.T.);
#76=FACE_OUTER_BOUND('',#107,.T.);
#77=FACE_OUTER_BOUND('',#108,.T.);
#78=FACE_OUTER_BOUND('',#109,.T.);
#79=FACE_OUTER_BOUND('',#110,.T.);
#80=FACE_OUTER_BOUND('',#111,.T.);
#81=FACE_OUTER_BOUND('',#112,.T.);
#82=FACE_OUTER_BOUND('',#113,.T.);
#83=FACE_OUTER_BOUND('',#114,.T.);
#84=FACE_OUTER_BOUND('',#116,.T.);
#85=FACE_OUTER_BOUND('',#117,.T.);
#86=FACE_OUTER_BOUND('',#119,.T.);
#87=FACE_OUTER_BOUND('',#120,.T.);
#88=EDGE_LOOP('',(#320,#321,#322,#323));
#89=EDGE_LOOP('',(#324,#325,#326,#327,#328,#329,#330));
#90=EDGE_LOOP('',(#331,#332,#333,#334,#335,#336,#337,#338));
#91=EDGE_LOOP('',(#339,#340,#341,#342,#343,#344,#345));
#92=EDGE_LOOP('',(#346,#347,#348));
#93=EDGE_LOOP('',(#349,#350,#351,#352,#353));
#94=EDGE_LOOP('',(#354,#355,#356,#357));
#95=EDGE_LOOP('',(#358,#359,#360,#361,#362,#363,#364));
#96=EDGE_LOOP('',(#365,#366,#367,#368,#369,#370,#371));
#97=EDGE_LOOP('',(#372,#373,#374));
#98=EDGE_LOOP('',(#375,#376,#377,#378,#379));
#99=EDGE_LOOP('',(#380,#381,#382,#383));
#100=EDGE_LOOP('',(#384,#385,#386,#387,#388,#389,#390));
#101=EDGE_LOOP('',(#391,#392,#393,#394,#395,#396,#397));
#102=EDGE_LOOP('',(#398,#399,#400));
#103=EDGE_LOOP('',(#401,#402,#403,#404,#405,#406));
#104=EDGE_LOOP('',(#407,#408,#409,#410));
#105=EDGE_LOOP('',(#411,#412,#413,#414,#415,#416,#417));
#106=EDGE_LOOP('',(#418,#419,#420,#421,#422,#423,#424));
#107=EDGE_LOOP('',(#425,#426,#427,#428,#429));
#108=EDGE_LOOP('',(#430,#431,#432));
#109=EDGE_LOOP('',(#433,#434,#435));
#110=EDGE_LOOP('',(#436,#437,#438));
#111=EDGE_LOOP('',(#439,#440,#441));
#112=EDGE_LOOP('',(#442,#443,#444));
#113=EDGE_LOOP('',(#445,#446,#447,#448,#449,#450,#451,#452));
#114=EDGE_LOOP('',(#453));
#115=EDGE_LOOP('',(#454));
#116=EDGE_LOOP('',(#455,#456,#457,#458));
#117=EDGE_LOOP('',(#459));
#118=EDGE_LOOP('',(#460));
#119=EDGE_LOOP('',(#461,#462,#463,#464));
#120=EDGE_LOOP('',(#465));
#121=CIRCLE('',#519,0.7585);
#122=CIRCLE('',#520,0.7585);
#123=CIRCLE('',#522,0.747009499694736);
#124=CIRCLE('',#523,0.747009499694736);
#125=CIRCLE('',#525,0.7585);
#126=CIRCLE('',#526,0.7585);
#127=CIRCLE('',#527,0.7585);
#128=CIRCLE('',#530,0.483125);
#129=CIRCLE('',#532,0.562375);
#130=CIRCLE('',#533,0.483125);
#131=CIRCLE('',#535,0.7585);
#132=CIRCLE('',#537,0.747009499694736);
#133=CIRCLE('',#538,0.747009499694736);
#134=CIRCLE('',#541,0.483125);
#135=CIRCLE('',#543,0.562375);
#136=CIRCLE('',#544,0.483125);
#137=CIRCLE('',#546,0.7585);
#138=CIRCLE('',#548,0.747009499694736);
#139=CIRCLE('',#549,0.747009499694736);
#140=CIRCLE('',#552,0.483125);
#141=CIRCLE('',#554,0.562375);
#142=CIRCLE('',#555,0.562375);
#143=CIRCLE('',#556,0.483125);
#144=CIRCLE('',#558,0.7585);
#145=CIRCLE('',#560,0.747009499694736);
#146=CIRCLE('',#561,0.747009499694736);
#147=CIRCLE('',#564,0.483125);
#148=CIRCLE('',#565,0.483125);
#149=CIRCLE('',#566,0.562375);
#150=CIRCLE('',#573,0.562375);
#151=CIRCLE('',#575,0.62);
#152=CIRCLE('',#576,0.54675);
#153=CIRCLE('',#578,0.54675);
#154=CIRCLE('',#581,0.62);
#155=LINE('',#742,#178);
#156=LINE('',#746,#179);
#157=LINE('',#802,#180);
#158=LINE('',#806,#181);
#159=LINE('',#810,#182);
#160=LINE('',#813,#183);
#161=LINE('',#816,#184);
#162=LINE('',#818,#185);
#163=LINE('',#826,#186);
#164=LINE('',#853,#187);
#165=LINE('',#883,#188);
#166=LINE('',#885,#189);
#167=LINE('',#893,#190);
#168=LINE('',#920,#191);
#169=LINE('',#950,#192);
#170=LINE('',#952,#193);
#171=LINE('',#960,#194);
#172=LINE('',#988,#195);
#173=LINE('',#1019,#196);
#174=LINE('',#1020,#197);
#175=LINE('',#1032,#198);
#176=LINE('',#1042,#199);
#177=LINE('',#1046,#200);
#178=VECTOR('',#587,0.393700787401575);
#179=VECTOR('',#590,0.393700787401575);
#180=VECTOR('',#601,0.393700787401575);
#181=VECTOR('',#604,0.393700787401575);
#182=VECTOR('',#607,0.393700787401575);
#183=VECTOR('',#610,0.393700787401575);
#184=VECTOR('',#613,0.393700787401575);
#185=VECTOR('',#614,0.393700787401575);
#186=VECTOR('',#615,0.393700787401575);
#187=VECTOR('',#630,0.393700787401575);
#188=VECTOR('',#639,0.393700787401575);
#189=VECTOR('',#640,0.393700787401575);
#190=VECTOR('',#641,0.393700787401575);
#191=VECTOR('',#656,0.393700787401575);
#192=VECTOR('',#665,0.393700787401575);
#193=VECTOR('',#666,0.393700787401575);
#194=VECTOR('',#667,0.393700787401575);
#195=VECTOR('',#682,0.393700787401575);
#196=VECTOR('',#693,0.393700787401575);
#197=VECTOR('',#694,0.393700787401575);
#198=VECTOR('',#715,0.562375);
#199=VECTOR('',#728,0.54675);
#200=VECTOR('',#733,0.62);
#201=VERTEX_POINT('',#740);
#202=VERTEX_POINT('',#741);
#203=VERTEX_POINT('',#743);
#204=VERTEX_POINT('',#745);
#205=VERTEX_POINT('',#749);
#206=VERTEX_POINT('',#756);
#207=VERTEX_POINT('',#758);
#208=VERTEX_POINT('',#775);
#209=VERTEX_POINT('',#792);
#210=VERTEX_POINT('',#801);
#211=VERTEX_POINT('',#803);
#212=VERTEX_POINT('',#805);
#213=VERTEX_POINT('',#807);
#214=VERTEX_POINT('',#809);
#215=VERTEX_POINT('',#811);
#216=VERTEX_POINT('',#815);
#217=VERTEX_POINT('',#817);
#218=VERTEX_POINT('',#819);
#219=VERTEX_POINT('',#830);
#220=VERTEX_POINT('',#832);
#221=VERTEX_POINT('',#851);
#222=VERTEX_POINT('',#856);
#223=VERTEX_POINT('',#873);
#224=VERTEX_POINT('',#882);
#225=VERTEX_POINT('',#884);
#226=VERTEX_POINT('',#886);
#227=VERTEX_POINT('',#897);
#228=VERTEX_POINT('',#899);
#229=VERTEX_POINT('',#918);
#230=VERTEX_POINT('',#923);
#231=VERTEX_POINT('',#940);
#232=VERTEX_POINT('',#949);
#233=VERTEX_POINT('',#951);
#234=VERTEX_POINT('',#953);
#235=VERTEX_POINT('',#964);
#236=VERTEX_POINT('',#966);
#237=VERTEX_POINT('',#968);
#238=VERTEX_POINT('',#987);
#239=VERTEX_POINT('',#991);
#240=VERTEX_POINT('',#999);
#241=VERTEX_POINT('',#1018);
#242=VERTEX_POINT('',#1031);
#243=VERTEX_POINT('',#1035);
#244=VERTEX_POINT('',#1037);
#245=VERTEX_POINT('',#1040);
#246=VERTEX_POINT('',#1045);
#247=EDGE_CURVE('',#201,#202,#155,.T.);
#248=EDGE_CURVE('',#201,#203,#121,.T.);
#249=EDGE_CURVE('',#204,#203,#156,.T.);
#250=EDGE_CURVE('',#202,#204,#122,.T.);
#251=EDGE_CURVE('',#205,#201,#33,.T.);
#252=EDGE_CURVE('',#206,#205,#123,.T.);
#253=EDGE_CURVE('',#207,#206,#34,.T.);
#254=EDGE_CURVE('',#208,#207,#35,.T.);
#255=EDGE_CURVE('',#209,#208,#124,.T.);
#256=EDGE_CURVE('',#203,#209,#36,.T.);
#257=EDGE_CURVE('',#204,#210,#157,.T.);
#258=EDGE_CURVE('',#210,#211,#125,.T.);
#259=EDGE_CURVE('',#211,#212,#158,.T.);
#260=EDGE_CURVE('',#212,#213,#126,.T.);
#261=EDGE_CURVE('',#213,#214,#159,.T.);
#262=EDGE_CURVE('',#214,#215,#127,.T.);
#263=EDGE_CURVE('',#215,#202,#160,.T.);
#264=EDGE_CURVE('',#209,#216,#161,.T.);
#265=EDGE_CURVE('',#216,#217,#162,.T.);
#266=EDGE_CURVE('',#217,#218,#37,.T.);
#267=EDGE_CURVE('',#218,#210,#163,.T.);
#268=EDGE_CURVE('',#216,#208,#128,.T.);
#269=EDGE_CURVE('',#219,#207,#129,.T.);
#270=EDGE_CURVE('',#219,#220,#38,.T.);
#271=EDGE_CURVE('',#220,#216,#130,.T.);
#272=EDGE_CURVE('',#218,#221,#131,.T.);
#273=EDGE_CURVE('',#211,#221,#164,.T.);
#274=EDGE_CURVE('',#220,#217,#132,.T.);
#275=EDGE_CURVE('',#222,#219,#39,.T.);
#276=EDGE_CURVE('',#223,#222,#133,.T.);
#277=EDGE_CURVE('',#221,#223,#40,.T.);
#278=EDGE_CURVE('',#223,#224,#165,.T.);
#279=EDGE_CURVE('',#224,#225,#166,.T.);
#280=EDGE_CURVE('',#225,#226,#41,.T.);
#281=EDGE_CURVE('',#226,#212,#167,.T.);
#282=EDGE_CURVE('',#224,#222,#134,.T.);
#283=EDGE_CURVE('',#227,#219,#135,.T.);
#284=EDGE_CURVE('',#227,#228,#42,.T.);
#285=EDGE_CURVE('',#228,#224,#136,.T.);
#286=EDGE_CURVE('',#226,#229,#137,.T.);
#287=EDGE_CURVE('',#213,#229,#168,.T.);
#288=EDGE_CURVE('',#228,#225,#138,.T.);
#289=EDGE_CURVE('',#230,#227,#43,.T.);
#290=EDGE_CURVE('',#231,#230,#139,.T.);
#291=EDGE_CURVE('',#229,#231,#44,.T.);
#292=EDGE_CURVE('',#231,#232,#169,.T.);
#293=EDGE_CURVE('',#232,#233,#170,.T.);
#294=EDGE_CURVE('',#233,#234,#45,.T.);
#295=EDGE_CURVE('',#234,#214,#171,.T.);
#296=EDGE_CURVE('',#232,#230,#140,.T.);
#297=EDGE_CURVE('',#235,#227,#141,.T.);
#298=EDGE_CURVE('',#236,#235,#142,.T.);
#299=EDGE_CURVE('',#236,#237,#46,.T.);
#300=EDGE_CURVE('',#237,#232,#143,.T.);
#301=EDGE_CURVE('',#215,#238,#172,.T.);
#302=EDGE_CURVE('',#234,#238,#144,.T.);
#303=EDGE_CURVE('',#238,#239,#47,.T.);
#304=EDGE_CURVE('',#237,#233,#145,.T.);
#305=EDGE_CURVE('',#240,#236,#48,.T.);
#306=EDGE_CURVE('',#239,#240,#146,.T.);
#307=EDGE_CURVE('',#239,#241,#173,.T.);
#308=EDGE_CURVE('',#241,#205,#174,.T.);
#309=EDGE_CURVE('',#206,#241,#147,.T.);
#310=EDGE_CURVE('',#241,#240,#148,.T.);
#311=EDGE_CURVE('',#207,#236,#149,.T.);
#312=EDGE_CURVE('',#235,#242,#175,.T.);
#313=EDGE_CURVE('',#242,#242,#150,.T.);
#314=EDGE_CURVE('',#243,#243,#151,.T.);
#315=EDGE_CURVE('',#244,#244,#152,.T.);
#316=EDGE_CURVE('',#245,#245,#153,.T.);
#317=EDGE_CURVE('',#245,#244,#176,.T.);
#318=EDGE_CURVE('',#243,#246,#177,.T.);
#319=EDGE_CURVE('',#246,#246,#154,.T.);
#320=ORIENTED_EDGE('',*,*,#247,.F.);
#321=ORIENTED_EDGE('',*,*,#248,.T.);
#322=ORIENTED_EDGE('',*,*,#249,.F.);
#323=ORIENTED_EDGE('',*,*,#250,.F.);
#324=ORIENTED_EDGE('',*,*,#251,.F.);
#325=ORIENTED_EDGE('',*,*,#252,.F.);
#326=ORIENTED_EDGE('',*,*,#253,.F.);
#327=ORIENTED_EDGE('',*,*,#254,.F.);
#328=ORIENTED_EDGE('',*,*,#255,.F.);
#329=ORIENTED_EDGE('',*,*,#256,.F.);
#330=ORIENTED_EDGE('',*,*,#248,.F.);
#331=ORIENTED_EDGE('',*,*,#250,.T.);
#332=ORIENTED_EDGE('',*,*,#257,.T.);
#333=ORIENTED_EDGE('',*,*,#258,.T.);
#334=ORIENTED_EDGE('',*,*,#259,.T.);
#335=ORIENTED_EDGE('',*,*,#260,.T.);
#336=ORIENTED_EDGE('',*,*,#261,.T.);
#337=ORIENTED_EDGE('',*,*,#262,.T.);
#338=ORIENTED_EDGE('',*,*,#263,.T.);
#339=ORIENTED_EDGE('',*,*,#249,.T.);
#340=ORIENTED_EDGE('',*,*,#256,.T.);
#341=ORIENTED_EDGE('',*,*,#264,.T.);
#342=ORIENTED_EDGE('',*,*,#265,.T.);
#343=ORIENTED_EDGE('',*,*,#266,.T.);
#344=ORIENTED_EDGE('',*,*,#267,.T.);
#345=ORIENTED_EDGE('',*,*,#257,.F.);
#346=ORIENTED_EDGE('',*,*,#255,.T.);
#347=ORIENTED_EDGE('',*,*,#268,.F.);
#348=ORIENTED_EDGE('',*,*,#264,.F.);
#349=ORIENTED_EDGE('',*,*,#254,.T.);
#350=ORIENTED_EDGE('',*,*,#269,.F.);
#351=ORIENTED_EDGE('',*,*,#270,.T.);
#352=ORIENTED_EDGE('',*,*,#271,.T.);
#353=ORIENTED_EDGE('',*,*,#268,.T.);
#354=ORIENTED_EDGE('',*,*,#267,.F.);
#355=ORIENTED_EDGE('',*,*,#272,.T.);
#356=ORIENTED_EDGE('',*,*,#273,.F.);
#357=ORIENTED_EDGE('',*,*,#258,.F.);
#358=ORIENTED_EDGE('',*,*,#266,.F.);
#359=ORIENTED_EDGE('',*,*,#274,.F.);
#360=ORIENTED_EDGE('',*,*,#270,.F.);
#361=ORIENTED_EDGE('',*,*,#275,.F.);
#362=ORIENTED_EDGE('',*,*,#276,.F.);
#363=ORIENTED_EDGE('',*,*,#277,.F.);
#364=ORIENTED_EDGE('',*,*,#272,.F.);
#365=ORIENTED_EDGE('',*,*,#273,.T.);
#366=ORIENTED_EDGE('',*,*,#277,.T.);
#367=ORIENTED_EDGE('',*,*,#278,.T.);
#368=ORIENTED_EDGE('',*,*,#279,.T.);
#369=ORIENTED_EDGE('',*,*,#280,.T.);
#370=ORIENTED_EDGE('',*,*,#281,.T.);
#371=ORIENTED_EDGE('',*,*,#259,.F.);
#372=ORIENTED_EDGE('',*,*,#276,.T.);
#373=ORIENTED_EDGE('',*,*,#282,.F.);
#374=ORIENTED_EDGE('',*,*,#278,.F.);
#375=ORIENTED_EDGE('',*,*,#275,.T.);
#376=ORIENTED_EDGE('',*,*,#283,.F.);
#377=ORIENTED_EDGE('',*,*,#284,.T.);
#378=ORIENTED_EDGE('',*,*,#285,.T.);
#379=ORIENTED_EDGE('',*,*,#282,.T.);
#380=ORIENTED_EDGE('',*,*,#281,.F.);
#381=ORIENTED_EDGE('',*,*,#286,.T.);
#382=ORIENTED_EDGE('',*,*,#287,.F.);
#383=ORIENTED_EDGE('',*,*,#260,.F.);
#384=ORIENTED_EDGE('',*,*,#280,.F.);
#385=ORIENTED_EDGE('',*,*,#288,.F.);
#386=ORIENTED_EDGE('',*,*,#284,.F.);
#387=ORIENTED_EDGE('',*,*,#289,.F.);
#388=ORIENTED_EDGE('',*,*,#290,.F.);
#389=ORIENTED_EDGE('',*,*,#291,.F.);
#390=ORIENTED_EDGE('',*,*,#286,.F.);
#391=ORIENTED_EDGE('',*,*,#287,.T.);
#392=ORIENTED_EDGE('',*,*,#291,.T.);
#393=ORIENTED_EDGE('',*,*,#292,.T.);
#394=ORIENTED_EDGE('',*,*,#293,.T.);
#395=ORIENTED_EDGE('',*,*,#294,.T.);
#396=ORIENTED_EDGE('',*,*,#295,.T.);
#397=ORIENTED_EDGE('',*,*,#261,.F.);
#398=ORIENTED_EDGE('',*,*,#290,.T.);
#399=ORIENTED_EDGE('',*,*,#296,.F.);
#400=ORIENTED_EDGE('',*,*,#292,.F.);
#401=ORIENTED_EDGE('',*,*,#289,.T.);
#402=ORIENTED_EDGE('',*,*,#297,.F.);
#403=ORIENTED_EDGE('',*,*,#298,.F.);
#404=ORIENTED_EDGE('',*,*,#299,.T.);
#405=ORIENTED_EDGE('',*,*,#300,.T.);
#406=ORIENTED_EDGE('',*,*,#296,.T.);
#407=ORIENTED_EDGE('',*,*,#301,.F.);
#408=ORIENTED_EDGE('',*,*,#262,.F.);
#409=ORIENTED_EDGE('',*,*,#295,.F.);
#410=ORIENTED_EDGE('',*,*,#302,.T.);
#411=ORIENTED_EDGE('',*,*,#303,.F.);
#412=ORIENTED_EDGE('',*,*,#302,.F.);
#413=ORIENTED_EDGE('',*,*,#294,.F.);
#414=ORIENTED_EDGE('',*,*,#304,.F.);
#415=ORIENTED_EDGE('',*,*,#299,.F.);
#416=ORIENTED_EDGE('',*,*,#305,.F.);
#417=ORIENTED_EDGE('',*,*,#306,.F.);
#418=ORIENTED_EDGE('',*,*,#247,.T.);
#419=ORIENTED_EDGE('',*,*,#263,.F.);
#420=ORIENTED_EDGE('',*,*,#301,.T.);
#421=ORIENTED_EDGE('',*,*,#303,.T.);
#422=ORIENTED_EDGE('',*,*,#307,.T.);
#423=ORIENTED_EDGE('',*,*,#308,.T.);
#424=ORIENTED_EDGE('',*,*,#251,.T.);
#425=ORIENTED_EDGE('',*,*,#253,.T.);
#426=ORIENTED_EDGE('',*,*,#309,.T.);
#427=ORIENTED_EDGE('',*,*,#310,.T.);
#428=ORIENTED_EDGE('',*,*,#305,.T.);
#429=ORIENTED_EDGE('',*,*,#311,.F.);
#430=ORIENTED_EDGE('',*,*,#304,.T.);
#431=ORIENTED_EDGE('',*,*,#293,.F.);
#432=ORIENTED_EDGE('',*,*,#300,.F.);
#433=ORIENTED_EDGE('',*,*,#306,.T.);
#434=ORIENTED_EDGE('',*,*,#310,.F.);
#435=ORIENTED_EDGE('',*,*,#307,.F.);
#436=ORIENTED_EDGE('',*,*,#274,.T.);
#437=ORIENTED_EDGE('',*,*,#265,.F.);
#438=ORIENTED_EDGE('',*,*,#271,.F.);
#439=ORIENTED_EDGE('',*,*,#288,.T.);
#440=ORIENTED_EDGE('',*,*,#279,.F.);
#441=ORIENTED_EDGE('',*,*,#285,.F.);
#442=ORIENTED_EDGE('',*,*,#252,.T.);
#443=ORIENTED_EDGE('',*,*,#308,.F.);
#444=ORIENTED_EDGE('',*,*,#309,.F.);
#445=ORIENTED_EDGE('',*,*,#298,.T.);
#446=ORIENTED_EDGE('',*,*,#312,.T.);
#447=ORIENTED_EDGE('',*,*,#313,.F.);
#448=ORIENTED_EDGE('',*,*,#312,.F.);
#449=ORIENTED_EDGE('',*,*,#297,.T.);
#450=ORIENTED_EDGE('',*,*,#283,.T.);
#451=ORIENTED_EDGE('',*,*,#269,.T.);
#452=ORIENTED_EDGE('',*,*,#311,.T.);
#453=ORIENTED_EDGE('',*,*,#314,.F.);
#454=ORIENTED_EDGE('',*,*,#315,.T.);
#455=ORIENTED_EDGE('',*,*,#316,.T.);
#456=ORIENTED_EDGE('',*,*,#317,.T.);
#457=ORIENTED_EDGE('',*,*,#315,.F.);
#458=ORIENTED_EDGE('',*,*,#317,.F.);
#459=ORIENTED_EDGE('',*,*,#313,.T.);
#460=ORIENTED_EDGE('',*,*,#316,.F.);
#461=ORIENTED_EDGE('',*,*,#314,.T.);
#462=ORIENTED_EDGE('',*,*,#318,.T.);
#463=ORIENTED_EDGE('',*,*,#319,.T.);
#464=ORIENTED_EDGE('',*,*,#318,.F.);
#465=ORIENTED_EDGE('',*,*,#319,.F.);
#466=CYLINDRICAL_SURFACE('',#518,0.7585);
#467=CYLINDRICAL_SURFACE('',#534,0.7585);
#468=CYLINDRICAL_SURFACE('',#545,0.7585);
#469=CYLINDRICAL_SURFACE('',#557,0.7585);
#470=CYLINDRICAL_SURFACE('',#572,0.562375);
#471=CYLINDRICAL_SURFACE('',#577,0.54675);
#472=CYLINDRICAL_SURFACE('',#580,0.62);
#473=ADVANCED_FACE('',(#57),#466,.F.);
#474=ADVANCED_FACE('',(#58),#49,.F.);
#475=ADVANCED_FACE('',(#59),#17,.T.);
#476=ADVANCED_FACE('',(#60),#18,.F.);
#477=ADVANCED_FACE('',(#61),#19,.F.);
#478=ADVANCED_FACE('',(#62),#50,.F.);
#479=ADVANCED_FACE('',(#63),#467,.F.);
#480=ADVANCED_FACE('',(#64),#51,.F.);
#481=ADVANCED_FACE('',(#65),#20,.F.);
#482=ADVANCED_FACE('',(#66),#21,.F.);
#483=ADVANCED_FACE('',(#67),#52,.F.);
#484=ADVANCED_FACE('',(#68),#468,.F.);
#485=ADVANCED_FACE('',(#69),#53,.F.);
#486=ADVANCED_FACE('',(#70),#22,.F.);
#487=ADVANCED_FACE('',(#71),#23,.F.);
#488=ADVANCED_FACE('',(#72),#54,.F.);
#489=ADVANCED_FACE('',(#73),#469,.F.);
#490=ADVANCED_FACE('',(#74),#55,.F.);
#491=ADVANCED_FACE('',(#75),#24,.F.);
#492=ADVANCED_FACE('',(#76),#56,.F.);
#493=ADVANCED_FACE('',(#77),#25,.F.);
#494=ADVANCED_FACE('',(#78),#26,.F.);
#495=ADVANCED_FACE('',(#79),#27,.F.);
#496=ADVANCED_FACE('',(#80),#28,.F.);
#497=ADVANCED_FACE('',(#81),#29,.F.);
#498=ADVANCED_FACE('',(#82),#470,.T.);
#499=ADVANCED_FACE('',(#83,#15),#30,.F.);
#500=ADVANCED_FACE('',(#84),#471,.T.);
#501=ADVANCED_FACE('',(#85,#16),#31,.F.);
#502=ADVANCED_FACE('',(#86),#472,.T.);
#503=ADVANCED_FACE('',(#87),#32,.F.);
#504=CLOSED_SHELL('',(#473,#474,#475,#476,#477,#478,#479,#480,#481,#482,
#483,#484,#485,#486,#487,#488,#489,#490,#491,#492,#493,#494,#495,#496,#497,
#498,#499,#500,#501,#502,#503));
#505=DERIVED_UNIT_ELEMENT(#507,1.);
#506=DERIVED_UNIT_ELEMENT(#1056,-3.);
#507=(
MASS_UNIT()
NAMED_UNIT(*)
SI_UNIT(.KILO.,.GRAM.)
);
#508=DERIVED_UNIT((#505,#506));
#509=MEASURE_REPRESENTATION_ITEM('density measure',
POSITIVE_RATIO_MEASURE(7850.),#508);
#510=PROPERTY_DEFINITION_REPRESENTATION(#515,#512);
#511=PROPERTY_DEFINITION_REPRESENTATION(#516,#513);
#512=REPRESENTATION('material name',(#514),#1051);
#513=REPRESENTATION('density',(#509),#1051);
#514=DESCRIPTIVE_REPRESENTATION_ITEM('Steel','Steel');
#515=PROPERTY_DEFINITION('material property','material name',#1064);
#516=PROPERTY_DEFINITION('material property','density of part',#1064);
#517=AXIS2_PLACEMENT_3D('',#738,#583,#584);
#518=AXIS2_PLACEMENT_3D('',#739,#585,#586);
#519=AXIS2_PLACEMENT_3D('',#744,#588,#589);
#520=AXIS2_PLACEMENT_3D('',#747,#591,#592);
#521=AXIS2_PLACEMENT_3D('',#748,#593,#594);
#522=AXIS2_PLACEMENT_3D('',#757,#595,#596);
#523=AXIS2_PLACEMENT_3D('',#793,#597,#598);
#524=AXIS2_PLACEMENT_3D('',#800,#599,#600);
#525=AXIS2_PLACEMENT_3D('',#804,#602,#603);
#526=AXIS2_PLACEMENT_3D('',#808,#605,#606);
#527=AXIS2_PLACEMENT_3D('',#812,#608,#609);
#528=AXIS2_PLACEMENT_3D('',#814,#611,#612);
#529=AXIS2_PLACEMENT_3D('',#827,#616,#617);
#530=AXIS2_PLACEMENT_3D('',#828,#618,#619);
#531=AXIS2_PLACEMENT_3D('',#829,#620,#621);
#532=AXIS2_PLACEMENT_3D('',#831,#622,#623);
#533=AXIS2_PLACEMENT_3D('',#849,#624,#625);
#534=AXIS2_PLACEMENT_3D('',#850,#626,#627);
#535=AXIS2_PLACEMENT_3D('',#852,#628,#629);
#536=AXIS2_PLACEMENT_3D('',#854,#631,#632);
#537=AXIS2_PLACEMENT_3D('',#855,#633,#634);
#538=AXIS2_PLACEMENT_3D('',#874,#635,#636);
#539=AXIS2_PLACEMENT_3D('',#881,#637,#638);
#540=AXIS2_PLACEMENT_3D('',#894,#642,#643);
#541=AXIS2_PLACEMENT_3D('',#895,#644,#645);
#542=AXIS2_PLACEMENT_3D('',#896,#646,#647);
#543=AXIS2_PLACEMENT_3D('',#898,#648,#649);
#544=AXIS2_PLACEMENT_3D('',#916,#650,#651);
#545=AXIS2_PLACEMENT_3D('',#917,#652,#653);
#546=AXIS2_PLACEMENT_3D('',#919,#654,#655);
#547=AXIS2_PLACEMENT_3D('',#921,#657,#658);
#548=AXIS2_PLACEMENT_3D('',#922,#659,#660);
#549=AXIS2_PLACEMENT_3D('',#941,#661,#662);
#550=AXIS2_PLACEMENT_3D('',#948,#663,#664);
#551=AXIS2_PLACEMENT_3D('',#961,#668,#669);
#552=AXIS2_PLACEMENT_3D('',#962,#670,#671);
#553=AXIS2_PLACEMENT_3D('',#963,#672,#673);
#554=AXIS2_PLACEMENT_3D('',#965,#674,#675);
#555=AXIS2_PLACEMENT_3D('',#967,#676,#677);
#556=AXIS2_PLACEMENT_3D('',#985,#678,#679);
#557=AXIS2_PLACEMENT_3D('',#986,#680,#681);
#558=AXIS2_PLACEMENT_3D('',#989,#683,#684);
#559=AXIS2_PLACEMENT_3D('',#990,#685,#686);
#560=AXIS2_PLACEMENT_3D('',#998,#687,#688);
#561=AXIS2_PLACEMENT_3D('',#1016,#689,#690);
#562=AXIS2_PLACEMENT_3D('',#1017,#691,#692);
#563=AXIS2_PLACEMENT_3D('',#1021,#695,#696);
#564=AXIS2_PLACEMENT_3D('',#1022,#697,#698);
#565=AXIS2_PLACEMENT_3D('',#1023,#699,#700);
#566=AXIS2_PLACEMENT_3D('',#1024,#701,#702);
#567=AXIS2_PLACEMENT_3D('',#1025,#703,#704);
#568=AXIS2_PLACEMENT_3D('',#1026,#705,#706);
#569=AXIS2_PLACEMENT_3D('',#1027,#707,#708);
#570=AXIS2_PLACEMENT_3D('',#1028,#709,#710);
#571=AXIS2_PLACEMENT_3D('',#1029,#711,#712);
#572=AXIS2_PLACEMENT_3D('',#1030,#713,#714);
#573=AXIS2_PLACEMENT_3D('',#1033,#716,#717);
#574=AXIS2_PLACEMENT_3D('',#1034,#718,#719);
#575=AXIS2_PLACEMENT_3D('',#1036,#720,#721);
#576=AXIS2_PLACEMENT_3D('',#1038,#722,#723);
#577=AXIS2_PLACEMENT_3D('',#1039,#724,#725);
#578=AXIS2_PLACEMENT_3D('',#1041,#726,#727);
#579=AXIS2_PLACEMENT_3D('',#1043,#729,#730);
#580=AXIS2_PLACEMENT_3D('',#1044,#731,#732);
#581=AXIS2_PLACEMENT_3D('',#1047,#734,#735);
#582=AXIS2_PLACEMENT_3D('',#1048,#736,#737);
#583=DIRECTION('axis',(0.,0.,1.));
#584=DIRECTION('refdir',(1.,0.,0.));
#585=DIRECTION('center_axis',(-7.20408845139825E-17,-1.,7.20408845139825E-17));
#586=DIRECTION('ref_axis',(-0.707106781186547,0.,-0.707106781186548));
#587=DIRECTION('',(7.20408845139825E-17,1.,-7.20408845139825E-17));
#588=DIRECTION('center_axis',(-7.20408845139825E-17,-1.,7.20408845139825E-17));
#589=DIRECTION('ref_axis',(-1.83697019872103E-16,-7.20408845139825E-17,
-1.));
#590=DIRECTION('',(-7.20408845139825E-17,-1.,7.20408845139825E-17));
#591=DIRECTION('center_axis',(0.,-1.,0.));
#592=DIRECTION('ref_axis',(-0.707106781186547,0.,-0.707106781186548));
#593=DIRECTION('center_axis',(-7.20408845139825E-17,-1.,7.20408845139825E-17));
#594=DIRECTION('ref_axis',(-1.,0.,1.46370866793033E-16));
#595=DIRECTION('center_axis',(3.60204422569913E-17,1.,-3.60204422569913E-17));
#596=DIRECTION('ref_axis',(0.,-3.60204422569913E-17,-1.));
#597=DIRECTION('center_axis',(3.60204422569913E-17,1.,-3.60204422569913E-17));
#598=DIRECTION('ref_axis',(0.,-3.60204422569913E-17,-1.));
#599=DIRECTION('center_axis',(0.,1.,0.));
#600=DIRECTION('ref_axis',(1.,0.,0.));
#601=DIRECTION('',(-9.04725855599032E-17,0.,-1.));
#602=DIRECTION('center_axis',(0.,-1.,0.));
#603=DIRECTION('ref_axis',(-0.707106781186548,0.,0.707106781186547));
#604=DIRECTION('',(-1.,0.,0.));
#605=DIRECTION('center_axis',(0.,-1.,0.));
#606=DIRECTION('ref_axis',(0.707106781186547,0.,0.707106781186548));
#607=DIRECTION('',(0.,0.,1.));
#608=DIRECTION('center_axis',(0.,-1.,0.));
#609=DIRECTION('ref_axis',(0.707106781186548,0.,-0.707106781186547));
#610=DIRECTION('',(1.,0.,0.));
#611=DIRECTION('center_axis',(-1.,0.,9.04725855599032E-17));
#612=DIRECTION('ref_axis',(-9.04725855599032E-17,0.,-1.));
#613=DIRECTION('',(-9.04725855599032E-17,0.,-1.));
#614=DIRECTION('',(-9.04725855599032E-17,0.,-1.));
#615=DIRECTION('',(-7.20408845139825E-17,1.,-7.20408845139825E-17));
#616=DIRECTION('center_axis',(0.,1.,0.));
#617=DIRECTION('ref_axis',(0.,0.,1.));
#618=DIRECTION('center_axis',(0.,-1.,0.));
#619=DIRECTION('ref_axis',(1.,0.,0.));
#620=DIRECTION('center_axis',(0.,-1.,0.));
#621=DIRECTION('ref_axis',(0.,0.,-1.));
#622=DIRECTION('center_axis',(0.,-1.,0.));
#623=DIRECTION('ref_axis',(1.,0.,0.));
#624=DIRECTION('center_axis',(0.,-1.,0.));
#625=DIRECTION('ref_axis',(1.,0.,0.));
#626=DIRECTION('center_axis',(7.20408845139825E-17,-1.,7.20408845139825E-17));
#627=DIRECTION('ref_axis',(-0.707106781186548,0.,0.707106781186547));
#628=DIRECTION('center_axis',(7.20408845139825E-17,-1.,7.20408845139825E-17));
#629=DIRECTION('ref_axis',(-1.,-7.20408845139825E-17,1.22464679914735E-16));
#630=DIRECTION('',(7.20408845139825E-17,-1.,7.20408845139825E-17));
#631=DIRECTION('center_axis',(7.20408845139825E-17,-1.,7.20408845139825E-17));
#632=DIRECTION('ref_axis',(1.46370866793033E-16,0.,1.));
#633=DIRECTION('center_axis',(-3.60204422569913E-17,1.,-3.60204422569913E-17));
#634=DIRECTION('ref_axis',(0.,-3.60204422569913E-17,-1.));
#635=DIRECTION('center_axis',(-3.60204422569913E-17,1.,-3.60204422569913E-17));
#636=DIRECTION('ref_axis',(0.,-3.60204422569913E-17,-1.));
#637=DIRECTION('center_axis',(0.,0.,1.));
#638=DIRECTION('ref_axis',(-1.,0.,0.));
#639=DIRECTION('',(-1.,0.,0.));
#640=DIRECTION('',(-1.,0.,0.));
#641=DIRECTION('',(-7.20408845139825E-17,1.,7.20408845139825E-17));
#642=DIRECTION('center_axis',(0.,1.,0.));
#643=DIRECTION('ref_axis',(0.,0.,1.));
#644=DIRECTION('center_axis',(0.,-1.,0.));
#645=DIRECTION('ref_axis',(1.,0.,0.));
#646=DIRECTION('center_axis',(0.,-1.,0.));
#647=DIRECTION('ref_axis',(0.,0.,-1.));
#648=DIRECTION('center_axis',(0.,-1.,0.));
#649=DIRECTION('ref_axis',(1.,0.,0.));
#650=DIRECTION('center_axis',(0.,-1.,0.));
#651=DIRECTION('ref_axis',(1.,0.,0.));
#652=DIRECTION('center_axis',(7.20408845139825E-17,-1.,-7.20408845139825E-17));
#653=DIRECTION('ref_axis',(0.707106781186547,0.,0.707106781186548));
#654=DIRECTION('center_axis',(7.20408845139825E-17,-1.,-7.20408845139825E-17));
#655=DIRECTION('ref_axis',(6.12323399573677E-17,-7.20408845139825E-17,1.));
#656=DIRECTION('',(7.20408845139825E-17,-1.,-7.20408845139825E-17));
#657=DIRECTION('center_axis',(7.20408845139825E-17,-1.,-7.20408845139825E-17));
#658=DIRECTION('ref_axis',(1.,0.,0.));
#659=DIRECTION('center_axis',(-3.60204422569913E-17,1.,3.60204422569913E-17));
#660=DIRECTION('ref_axis',(0.,3.60204422569913E-17,-1.));
#661=DIRECTION('center_axis',(-3.60204422569913E-17,1.,3.60204422569913E-17));
#662=DIRECTION('ref_axis',(0.,3.60204422569913E-17,-1.));
#663=DIRECTION('center_axis',(1.,0.,0.));
#664=DIRECTION('ref_axis',(0.,0.,1.));
#665=DIRECTION('',(0.,0.,1.));
#666=DIRECTION('',(0.,0.,1.));
#667=DIRECTION('',(7.20408845139825E-17,1.,7.20408845139825E-17));
#668=DIRECTION('center_axis',(0.,1.,0.));
#669=DIRECTION('ref_axis',(0.,0.,1.));
#670=DIRECTION('center_axis',(0.,-1.,0.));
#671=DIRECTION('ref_axis',(1.,0.,0.));
#672=DIRECTION('center_axis',(0.,-1.,0.));
#673=DIRECTION('ref_axis',(0.,0.,-1.));
#674=DIRECTION('center_axis',(0.,-1.,0.));
#675=DIRECTION('ref_axis',(1.,0.,0.));
#676=DIRECTION('center_axis',(0.,-1.,0.));
#677=DIRECTION('ref_axis',(1.,0.,0.));
#678=DIRECTION('center_axis',(0.,-1.,0.));
#679=DIRECTION('ref_axis',(1.,0.,0.));
#680=DIRECTION('center_axis',(-7.20408845139825E-17,-1.,-7.20408845139825E-17));
#681=DIRECTION('ref_axis',(0.707106781186548,0.,-0.707106781186547));
#682=DIRECTION('',(-7.20408845139825E-17,-1.,-7.20408845139825E-17));
#683=DIRECTION('center_axis',(-7.20408845139825E-17,-1.,-7.20408845139825E-17));
#684=DIRECTION('ref_axis',(1.,-7.20408845139825E-17,-5.18988904155697E-33));
#685=DIRECTION('center_axis',(-7.20408845139825E-17,-1.,-7.20408845139825E-17));
#686=DIRECTION('ref_axis',(0.,0.,-1.));
#687=DIRECTION('center_axis',(3.60204422569913E-17,1.,3.60204422569913E-17));
#688=DIRECTION('ref_axis',(0.,3.60204422569913E-17,-1.));
#689=DIRECTION('center_axis',(3.60204422569913E-17,1.,3.60204422569913E-17));
#690=DIRECTION('ref_axis',(0.,3.60204422569913E-17,-1.));
#691=DIRECTION('center_axis',(0.,0.,-1.));
#692=DIRECTION('ref_axis',(1.,0.,0.));
#693=DIRECTION('',(1.,0.,0.));
#694=DIRECTION('',(1.,0.,0.));
#695=DIRECTION('center_axis',(0.,-1.,0.));
#696=DIRECTION('ref_axis',(1.22464679914735E-16,0.,1.));
#697=DIRECTION('center_axis',(0.,-1.,0.));
#698=DIRECTION('ref_axis',(1.,0.,0.));
#699=DIRECTION('center_axis',(0.,-1.,0.));
#700=DIRECTION('ref_axis',(1.,0.,0.));
#701=DIRECTION('center_axis',(0.,-1.,0.));
#702=DIRECTION('ref_axis',(1.,0.,0.));
#703=DIRECTION('center_axis',(0.,1.,0.));
#704=DIRECTION('ref_axis',(0.,0.,1.));
#705=DIRECTION('center_axis',(0.,1.,0.));
#706=DIRECTION('ref_axis',(0.,0.,1.));
#707=DIRECTION('center_axis',(0.,1.,0.));
#708=DIRECTION('ref_axis',(0.,0.,1.));
#709=DIRECTION('center_axis',(0.,1.,0.));
#710=DIRECTION('ref_axis',(0.,0.,1.));
#711=DIRECTION('center_axis',(0.,1.,0.));
#712=DIRECTION('ref_axis',(0.,0.,1.));
#713=DIRECTION('center_axis',(0.,-1.,0.));
#714=DIRECTION('ref_axis',(1.,0.,0.));
#715=DIRECTION('',(0.,-1.,0.));
#716=DIRECTION('center_axis',(0.,-1.,0.));
#717=DIRECTION('ref_axis',(1.,0.,0.));
#718=DIRECTION('center_axis',(0.,-1.,0.));
#719=DIRECTION('ref_axis',(0.,0.,-1.));
#720=DIRECTION('center_axis',(0.,-1.,0.));
#721=DIRECTION('ref_axis',(1.,0.,0.));
#722=DIRECTION('center_axis',(0.,-1.,0.));
#723=DIRECTION('ref_axis',(1.,0.,0.));
#724=DIRECTION('center_axis',(0.,-1.,0.));
#725=DIRECTION('ref_axis',(1.,0.,0.));
#726=DIRECTION('center_axis',(0.,-1.,0.));
#727=DIRECTION('ref_axis',(1.,0.,0.));
#728=DIRECTION('',(0.,-1.,0.));
#729=DIRECTION('center_axis',(0.,1.,0.));
#730=DIRECTION('ref_axis',(0.,0.,1.));
#731=DIRECTION('center_axis',(0.,1.,0.));
#732=DIRECTION('ref_axis',(1.,0.,0.));
#733=DIRECTION('',(0.,-1.,0.));
#734=DIRECTION('center_axis',(0.,1.,0.));
#735=DIRECTION('ref_axis',(1.,0.,0.));
#736=DIRECTION('center_axis',(0.,1.,0.));
#737=DIRECTION('ref_axis',(1.,0.,0.));
#738=CARTESIAN_POINT('',(0.,0.,0.));
#739=CARTESIAN_POINT('Origin',(0.750947401620114,1.06716008376063,0.750947401620113));
#740=CARTESIAN_POINT('',(0.0413042439764746,0.676270406684279,0.483125));
#741=CARTESIAN_POINT('',(0.0413042439764748,1.455,0.483125));
#742=CARTESIAN_POINT('',(0.0413042439764747,1.06716008376063,0.483125));
#743=CARTESIAN_POINT('',(0.483125,0.676270406684279,0.0413042439764745));
#744=CARTESIAN_POINT('Origin',(0.750947401620114,0.676270406684279,0.750947401620113));
#745=CARTESIAN_POINT('',(0.483125,1.455,0.0413042439764745));
#746=CARTESIAN_POINT('',(0.483125,1.06716008376063,0.0413042439764746));
#747=CARTESIAN_POINT('Origin',(0.750947401620114,1.455,0.750947401620113));
#748=CARTESIAN_POINT('Origin',(0.750947401620114,0.676270406684279,0.750947401620113));
#749=CARTESIAN_POINT('',(0.0535993150631818,0.6,0.483125));
#750=CARTESIAN_POINT('Ctrl Pts',(0.0535993150631818,0.6,0.483125));
#751=CARTESIAN_POINT('Ctrl Pts',(0.0506953380895097,0.608792919148375,0.483125));
#752=CARTESIAN_POINT('Ctrl Pts',(0.0482217945186562,0.617987120839988,0.483125));
#753=CARTESIAN_POINT('Ctrl Pts',(0.0428925169161792,0.643842128853297,0.483125));
#754=CARTESIAN_POINT('Ctrl Pts',(0.0413042439764748,0.66076559790891,0.483125));
#755=CARTESIAN_POINT('Ctrl Pts',(0.0413042439764748,0.676270406684279,0.483125));
#756=CARTESIAN_POINT('',(0.054805043682349,0.6,0.480006429969408));
#757=CARTESIAN_POINT('Origin',(0.750947401620114,0.6,0.750947401620113));
#758=CARTESIAN_POINT('',(0.397659176069785,0.417395406684279,0.397659176069785));
#759=CARTESIAN_POINT('Ctrl Pts',(0.397659176069785,0.417395406684279,0.397659176069785));
#760=CARTESIAN_POINT('Ctrl Pts',(0.395305282430121,0.417395406684279,0.400013069709449));
#761=CARTESIAN_POINT('Ctrl Pts',(0.39294148556389,0.417395384740381,0.402335066223358));
#762=CARTESIAN_POINT('Ctrl Pts',(0.366248212242437,0.417396389429265,0.428099885017539));
#763=CARTESIAN_POINT('Ctrl Pts',(0.338282561884358,0.417140840558066,0.45083381934019));
#764=CARTESIAN_POINT('Ctrl Pts',(0.296406751025381,0.419228489269697,0.475875730712451));
#765=CARTESIAN_POINT('Ctrl Pts',(0.282825261318368,0.420275062974716,0.482782694269071));
#766=CARTESIAN_POINT('Ctrl Pts',(0.252983954318017,0.424271183074102,0.494591916231534));
#767=CARTESIAN_POINT('Ctrl Pts',(0.23699925918072,0.427388427257343,0.498962353696543));
#768=CARTESIAN_POINT('Ctrl Pts',(0.199957826278559,0.438443898738132,0.504339335775182));
#769=CARTESIAN_POINT('Ctrl Pts',(0.18035005702495,0.447045698663325,0.503843408416214));
#770=CARTESIAN_POINT('Ctrl Pts',(0.138652822327734,0.473065421305393,0.498541785895209));
#771=CARTESIAN_POINT('Ctrl Pts',(0.117778354072594,0.491935536743783,0.492729190694956));
#772=CARTESIAN_POINT('Ctrl Pts',(0.0807207766105544,0.53990575570444,0.482651055868871));
#773=CARTESIAN_POINT('Ctrl Pts',(0.0656794176208635,0.56859117451439,0.478764841312446));
#774=CARTESIAN_POINT('Ctrl Pts',(0.054805043682349,0.6,0.480006429969408));
#775=CARTESIAN_POINT('',(0.480006429969408,0.6,0.0548050436823488));
#776=CARTESIAN_POINT('Ctrl Pts',(0.480006429969408,0.6,0.0548050436823489));
#777=CARTESIAN_POINT('Ctrl Pts',(0.479384860862329,0.584275987460077,0.0602490164998409));
#778=CARTESIAN_POINT('Ctrl Pts',(0.480038309457902,0.568991615379929,0.0668246255520366));
#779=CARTESIAN_POINT('Ctrl Pts',(0.48322737370395,0.538722227396678,0.0829466844388711));
#780=CARTESIAN_POINT('Ctrl Pts',(0.485881301359389,0.523971961687587,0.092594825813051));
#781=CARTESIAN_POINT('Ctrl Pts',(0.493097135931447,0.491261380104216,0.11913174928498));
#782=CARTESIAN_POINT('Ctrl Pts',(0.497785853358192,0.475270946153407,0.136688157127057));
#783=CARTESIAN_POINT('Ctrl Pts',(0.50296145870163,0.452195353811901,0.171230533732127));
#784=CARTESIAN_POINT('Ctrl Pts',(0.50411644445277,0.443965673819579,0.187526508731869));
#785=CARTESIAN_POINT('Ctrl Pts',(0.501765607237085,0.430571243198972,0.223659702837984));
#786=CARTESIAN_POINT('Ctrl Pts',(0.497901156921488,0.426175404709143,0.242348601525291));
#787=CARTESIAN_POINT('Ctrl Pts',(0.486362990629122,0.421145782478879,0.274761393719131));
#788=CARTESIAN_POINT('Ctrl Pts',(0.480202785301923,0.419888634417544,0.287974352315504));
#789=CARTESIAN_POINT('Ctrl Pts',(0.454185060425656,0.416895857179957,0.334760072727883));
#790=CARTESIAN_POINT('Ctrl Pts',(0.426679357723602,0.417395406684279,0.368638994415967));
#791=CARTESIAN_POINT('Ctrl Pts',(0.397659176069785,0.417395406684279,0.397659176069785));
#792=CARTESIAN_POINT('',(0.483125,0.6,0.0535993150631817));
#793=CARTESIAN_POINT('Origin',(0.750947401620114,0.6,0.750947401620113));
#794=CARTESIAN_POINT('Ctrl Pts',(0.483125,0.676270406684279,0.0413042439764746));
#795=CARTESIAN_POINT('Ctrl Pts',(0.483125,0.660765597908909,0.0413042439764747));
#796=CARTESIAN_POINT('Ctrl Pts',(0.483125,0.643842128853297,0.0428925169161792));
#797=CARTESIAN_POINT('Ctrl Pts',(0.483125,0.617987120839988,0.0482217945186561));
#798=CARTESIAN_POINT('Ctrl Pts',(0.483125,0.608792919148375,0.0506953380895096));
#799=CARTESIAN_POINT('Ctrl Pts',(0.483125,0.6,0.0535993150631817));
#800=CARTESIAN_POINT('Origin',(0.,1.455,0.));
#801=CARTESIAN_POINT('',(0.483125,1.455,-0.0413042439764747));
#802=CARTESIAN_POINT('',(0.483125,1.455,0.143923482274436));
#803=CARTESIAN_POINT('',(0.0413042439764745,1.455,-0.483125));
#804=CARTESIAN_POINT('Origin',(0.750947401620113,1.455,-0.750947401620114));
#805=CARTESIAN_POINT('',(-0.0413042439764747,1.455,-0.483125));
#806=CARTESIAN_POINT('',(0.143923482274436,1.455,-0.483125));
#807=CARTESIAN_POINT('',(-0.483125,1.455,-0.0413042439764745));
#808=CARTESIAN_POINT('Origin',(-0.750947401620114,1.455,-0.750947401620113));
#809=CARTESIAN_POINT('',(-0.483125,1.455,0.0413042439764746));
#810=CARTESIAN_POINT('',(-0.483125,1.455,-0.143923482274436));
#811=CARTESIAN_POINT('',(-0.0413042439764746,1.455,0.483125));
#812=CARTESIAN_POINT('Origin',(-0.750947401620113,1.455,0.750947401620113));
#813=CARTESIAN_POINT('',(-0.143923482274436,1.455,0.483125));
#814=CARTESIAN_POINT('Origin',(0.483125,1.455,0.287846964548872));
#815=CARTESIAN_POINT('',(0.483125,0.6,-4.37095678986282E-17));
#816=CARTESIAN_POINT('',(0.483125,0.6,0.483125));
#817=CARTESIAN_POINT('',(0.483125,0.6,-0.0535993150631818));
#818=CARTESIAN_POINT('',(0.483125,0.6,0.483125));
#819=CARTESIAN_POINT('',(0.483125,0.676270406684279,-0.0413042439764746));
#820=CARTESIAN_POINT('Ctrl Pts',(0.483125,0.6,-0.0535993150631817));
#821=CARTESIAN_POINT('Ctrl Pts',(0.483125,0.608400121491885,-0.0508250646718326));
#822=CARTESIAN_POINT('Ctrl Pts',(0.483125,0.617141965882471,-0.0484503044025037));
#823=CARTESIAN_POINT('Ctrl Pts',(0.483125,0.642961671752734,-0.042980672533811));
#824=CARTESIAN_POINT('Ctrl Pts',(0.483125,0.660340988297431,-0.0413042439764747));
#825=CARTESIAN_POINT('Ctrl Pts',(0.483125,0.676270406684279,-0.0413042439764747));
#826=CARTESIAN_POINT('',(0.483125,1.06716008376063,-0.0413042439764747));
#827=CARTESIAN_POINT('Origin',(0.,0.6,-0.562375));
#828=CARTESIAN_POINT('Origin',(0.,0.6,0.));
#829=CARTESIAN_POINT('Origin',(0.,0.6,0.));
#830=CARTESIAN_POINT('',(0.397659176069785,0.417395406684279,-0.397659176069785));
#831=CARTESIAN_POINT('Origin',(0.,0.417395406684279,0.));
#832=CARTESIAN_POINT('',(0.480006429969408,0.6,-0.0548050436823489));
#833=CARTESIAN_POINT('Ctrl Pts',(0.397659176069785,0.417395406684279,-0.397659176069785));
#834=CARTESIAN_POINT('Ctrl Pts',(0.400013069205723,0.417395406684279,-0.395305282933847));
#835=CARTESIAN_POINT('Ctrl Pts',(0.402335065229538,0.417395384740399,-0.3929414865756));
#836=CARTESIAN_POINT('Ctrl Pts',(0.428099883859695,0.417396389428631,-0.366248213625946));
#837=CARTESIAN_POINT('Ctrl Pts',(0.450833818510535,0.41714084054161,-0.338282563050897));
#838=CARTESIAN_POINT('Ctrl Pts',(0.475875730201255,0.419228489203303,-0.296406751979837));
#839=CARTESIAN_POINT('Ctrl Pts',(0.482782693830464,0.420275062883299,-0.282825262257849));
#840=CARTESIAN_POINT('Ctrl Pts',(0.494591915851929,0.424271182881298,-0.252983955467877));
#841=CARTESIAN_POINT('Ctrl Pts',(0.4989623533697,0.427388426959326,-0.236999260538542));
#842=CARTESIAN_POINT('Ctrl Pts',(0.504339335718035,0.438443898142659,-0.199957827814486));
#843=CARTESIAN_POINT('Ctrl Pts',(0.503843408504735,0.447045697920967,-0.180350058508795));
#844=CARTESIAN_POINT('Ctrl Pts',(0.498541786233341,0.473065420035671,-0.138652823990064));
#845=CARTESIAN_POINT('Ctrl Pts',(0.49272919120412,0.491935534936834,-0.117778355913672));
#846=CARTESIAN_POINT('Ctrl Pts',(0.482651056139816,0.539905753758702,-0.0807207776399496));
#847=CARTESIAN_POINT('Ctrl Pts',(0.478764841269041,0.568591173416356,-0.065679418001025));
#848=CARTESIAN_POINT('Ctrl Pts',(0.480006429969408,0.6,-0.054805043682349));
#849=CARTESIAN_POINT('Origin',(0.,0.6,0.));
#850=CARTESIAN_POINT('Origin',(0.750947401620113,1.06716008376063,-0.750947401620114));
#851=CARTESIAN_POINT('',(0.0413042439764746,0.676270406684279,-0.483125));
#852=CARTESIAN_POINT('Origin',(0.750947401620113,0.676270406684279,-0.750947401620113));
#853=CARTESIAN_POINT('',(0.0413042439764746,1.06716008376063,-0.483125));
#854=CARTESIAN_POINT('Origin',(0.750947401620113,0.676270406684279,-0.750947401620113));
#855=CARTESIAN_POINT('Origin',(0.750947401620113,0.6,-0.750947401620113));
#856=CARTESIAN_POINT('',(0.0548050436823489,0.6,-0.480006429969408));
#857=CARTESIAN_POINT('Ctrl Pts',(0.054805043682349,0.6,-0.480006429969408));
#858=CARTESIAN_POINT('Ctrl Pts',(0.0602490167288708,0.584275986798563,-0.479384860836179));
#859=CARTESIAN_POINT('Ctrl Pts',(0.0668246261022665,0.568991614101742,-0.480038309513559));
#860=CARTESIAN_POINT('Ctrl Pts',(0.0829466854196352,0.538722225817388,-0.483227373954821));
#861=CARTESIAN_POINT('Ctrl Pts',(0.0925948267738092,0.523971960346242,-0.485881301623224));
#862=CARTESIAN_POINT('Ctrl Pts',(0.119131750202715,0.491261379193795,-0.493097136177356));
#863=CARTESIAN_POINT('Ctrl Pts',(0.136688158025074,0.475270945427854,-0.49778585355382));
#864=CARTESIAN_POINT('Ctrl Pts',(0.171230534591926,0.45219535333671,-0.502961458782242));
#865=CARTESIAN_POINT('Ctrl Pts',(0.187526509578,0.443965673437375,-0.504116444467278));
#866=CARTESIAN_POINT('Ctrl Pts',(0.223659703551388,0.430571243009089,-0.501765607114998));
#867=CARTESIAN_POINT('Ctrl Pts',(0.242348602124018,0.426175404590971,-0.497901156753868));
#868=CARTESIAN_POINT('Ctrl Pts',(0.27476139415042,0.421145782430246,-0.486362990442643));
#869=CARTESIAN_POINT('Ctrl Pts',(0.287974352714384,0.419888634383929,-0.480202785102742));
#870=CARTESIAN_POINT('Ctrl Pts',(0.334760072984744,0.416895857185181,-0.454185060222288));
#871=CARTESIAN_POINT('Ctrl Pts',(0.368638994526121,0.417395406684279,-0.426679357613448));
#872=CARTESIAN_POINT('Ctrl Pts',(0.397659176069785,0.417395406684279,-0.397659176069785));
#873=CARTESIAN_POINT('',(0.0535993150631818,0.6,-0.483125));
#874=CARTESIAN_POINT('Origin',(0.750947401620113,0.6,-0.750947401620113));
#875=CARTESIAN_POINT('Ctrl Pts',(0.0413042439764748,0.676270406684279,-0.483125));
#876=CARTESIAN_POINT('Ctrl Pts',(0.0413042439764748,0.660765597908909,-0.483125));
#877=CARTESIAN_POINT('Ctrl Pts',(0.0428925169161791,0.643842128853297,-0.483125));
#878=CARTESIAN_POINT('Ctrl Pts',(0.0482217945186561,0.617987120839988,-0.483125));
#879=CARTESIAN_POINT('Ctrl Pts',(0.0506953380895097,0.608792919148375,-0.483125));
#880=CARTESIAN_POINT('Ctrl Pts',(0.0535993150631818,0.6,-0.483125));
#881=CARTESIAN_POINT('Origin',(0.287846964548873,1.455,-0.483125));
#882=CARTESIAN_POINT('',(0.,0.6,-0.483125));
#883=CARTESIAN_POINT('',(0.483125,0.6,-0.483125));
#884=CARTESIAN_POINT('',(-0.0535993150631818,0.6,-0.483125));
#885=CARTESIAN_POINT('',(0.483125,0.6,-0.483125));
#886=CARTESIAN_POINT('',(-0.0413042439764746,0.676270406684279,-0.483125));
#887=CARTESIAN_POINT('Ctrl Pts',(-0.0535993150631818,0.6,-0.483125));
#888=CARTESIAN_POINT('Ctrl Pts',(-0.0508250646718326,0.608400121491885,
-0.483125));
#889=CARTESIAN_POINT('Ctrl Pts',(-0.0484503044025036,0.617141965882471,
-0.483125));
#890=CARTESIAN_POINT('Ctrl Pts',(-0.0429806725338109,0.642961671752734,
-0.483125));
#891=CARTESIAN_POINT('Ctrl Pts',(-0.0413042439764747,0.660340988297431,
-0.483125));
#892=CARTESIAN_POINT('Ctrl Pts',(-0.0413042439764747,0.676270406684279,
-0.483125));
#893=CARTESIAN_POINT('',(-0.0413042439764746,1.06716008376063,-0.483125));
#894=CARTESIAN_POINT('Origin',(0.,0.6,-0.562375));
#895=CARTESIAN_POINT('Origin',(0.,0.6,0.));
#896=CARTESIAN_POINT('Origin',(0.,0.6,0.));
#897=CARTESIAN_POINT('',(-0.397659176069785,0.417395406684279,-0.397659176069785));
#898=CARTESIAN_POINT('Origin',(0.,0.417395406684279,0.));
#899=CARTESIAN_POINT('',(-0.0548050436823489,0.6,-0.480006429969408));
#900=CARTESIAN_POINT('Ctrl Pts',(-0.397659176069785,0.417395406684279,-0.397659176069785));
#901=CARTESIAN_POINT('Ctrl Pts',(-0.395305399739945,0.417395406684279,-0.400012952399625));
#902=CARTESIAN_POINT('Ctrl Pts',(-0.392941721175245,0.417395384744706,-0.402334834778302));
#903=CARTESIAN_POINT('Ctrl Pts',(-0.366248534439498,0.417396389281748,-0.428099615374242));
#904=CARTESIAN_POINT('Ctrl Pts',(-0.338282833552405,0.417140836725837,-0.450833626126808));
#905=CARTESIAN_POINT('Ctrl Pts',(-0.296406973303357,0.419228473807604,-0.475875611662797));
#906=CARTESIAN_POINT('Ctrl Pts',(-0.282825480108236,0.420275041685221,-0.482782592124584));
#907=CARTESIAN_POINT('Ctrl Pts',(-0.252984222100865,0.424271138173392,-0.494591827827995));
#908=CARTESIAN_POINT('Ctrl Pts',(-0.236999575394627,0.427388357854367,-0.498962277580056));
#909=CARTESIAN_POINT('Ctrl Pts',(-0.199958183970185,0.438443760062759,-0.50433932246619));
#910=CARTESIAN_POINT('Ctrl Pts',(-0.180350402587971,0.44704552578076,-0.50384342903092));
#911=CARTESIAN_POINT('Ctrl Pts',(-0.138653209454666,0.473065125610121,-0.498541864639986));
#912=CARTESIAN_POINT('Ctrl Pts',(-0.117778782827901,0.491935115938228,-0.492729309270189));
#913=CARTESIAN_POINT('Ctrl Pts',(-0.080721016341227,0.539905302573044,-0.482651118968015));
#914=CARTESIAN_POINT('Ctrl Pts',(-0.0656795061548411,0.56859091879868,-0.478764831204022));
#915=CARTESIAN_POINT('Ctrl Pts',(-0.0548050436823489,0.6,-0.480006429969408));
#916=CARTESIAN_POINT('Origin',(0.,0.6,0.));
#917=CARTESIAN_POINT('Origin',(-0.750947401620114,1.06716008376063,-0.750947401620113));
#918=CARTESIAN_POINT('',(-0.483125,0.676270406684279,-0.0413042439764745));
#919=CARTESIAN_POINT('Origin',(-0.750947401620113,0.676270406684279,-0.750947401620113));
#920=CARTESIAN_POINT('',(-0.483125,1.06716008376063,-0.0413042439764746));
#921=CARTESIAN_POINT('Origin',(-0.750947401620113,0.676270406684279,-0.750947401620113));
#922=CARTESIAN_POINT('Origin',(-0.750947401620113,0.6,-0.750947401620113));
#923=CARTESIAN_POINT('',(-0.480006429969408,0.6,-0.0548050436823489));
#924=CARTESIAN_POINT('Ctrl Pts',(-0.480006429969408,0.6,-0.054805043682349));
#925=CARTESIAN_POINT('Ctrl Pts',(-0.479384854772501,0.584275833403956,-0.0602490698372022));
#926=CARTESIAN_POINT('Ctrl Pts',(-0.480038322419532,0.568991317710672,-0.0668247536919307));
#927=CARTESIAN_POINT('Ctrl Pts',(-0.483227432127981,0.538721859605949,-0.0829469128433144));
#928=CARTESIAN_POINT('Ctrl Pts',(-0.485881362802375,0.523971649309685,-0.0925950495585934));
#929=CARTESIAN_POINT('Ctrl Pts',(-0.493097193199729,0.49126116808159,-0.119131963011298));
#930=CARTESIAN_POINT('Ctrl Pts',(-0.497785898916859,0.475270777183639,-0.136688366261419));
#931=CARTESIAN_POINT('Ctrl Pts',(-0.50296147747476,0.452195243147808,-0.171230733965766));
#932=CARTESIAN_POINT('Ctrl Pts',(-0.504116447831494,0.443965584810154,-0.187526705782553));
#933=CARTESIAN_POINT('Ctrl Pts',(-0.501765578804825,0.430571198978273,-0.223659868978739));
#934=CARTESIAN_POINT('Ctrl Pts',(-0.497901117885567,0.426175377188631,-0.242348740959238));
#935=CARTESIAN_POINT('Ctrl Pts',(-0.486362947200975,0.421145771152911,-0.274761494160213));
#936=CARTESIAN_POINT('Ctrl Pts',(-0.480202738915058,0.419888626589029,-0.287974445209983));
#937=CARTESIAN_POINT('Ctrl Pts',(-0.454185013064455,0.41689585839665,-0.334760132546729));
#938=CARTESIAN_POINT('Ctrl Pts',(-0.426679332070659,0.417395406684279,-0.36863902006891));
#939=CARTESIAN_POINT('Ctrl Pts',(-0.397659176069785,0.417395406684279,-0.397659176069785));
#940=CARTESIAN_POINT('',(-0.483125,0.6,-0.0535993150631817));
#941=CARTESIAN_POINT('Origin',(-0.750947401620113,0.6,-0.750947401620113));
#942=CARTESIAN_POINT('Ctrl Pts',(-0.483125,0.676270406684279,-0.0413042439764747));
#943=CARTESIAN_POINT('Ctrl Pts',(-0.483125,0.660765597908909,-0.0413042439764747));
#944=CARTESIAN_POINT('Ctrl Pts',(-0.483125,0.643842128853297,-0.0428925169161792));
#945=CARTESIAN_POINT('Ctrl Pts',(-0.483125,0.617987120839988,-0.0482217945186562));
#946=CARTESIAN_POINT('Ctrl Pts',(-0.483125,0.608792919148375,-0.0506953380895097));
#947=CARTESIAN_POINT('Ctrl Pts',(-0.483125,0.6,-0.0535993150631818));
#948=CARTESIAN_POINT('Origin',(-0.483125,1.455,-0.287846964548872));
#949=CARTESIAN_POINT('',(-0.483125,0.6,0.));
#950=CARTESIAN_POINT('',(-0.483125,0.6,-0.483125));
#951=CARTESIAN_POINT('',(-0.483125,0.6,0.0535993150631817));
#952=CARTESIAN_POINT('',(-0.483125,0.6,-0.483125));
#953=CARTESIAN_POINT('',(-0.483125,0.676270406684279,0.0413042439764745));
#954=CARTESIAN_POINT('Ctrl Pts',(-0.483125,0.6,0.0535993150631817));
#955=CARTESIAN_POINT('Ctrl Pts',(-0.483125,0.608792919148375,0.0506953380895095));
#956=CARTESIAN_POINT('Ctrl Pts',(-0.483125,0.617987120839988,0.0482217945186561));
#957=CARTESIAN_POINT('Ctrl Pts',(-0.483125,0.643842128853297,0.0428925169161791));
#958=CARTESIAN_POINT('Ctrl Pts',(-0.483125,0.660765597908909,0.0413042439764746));
#959=CARTESIAN_POINT('Ctrl Pts',(-0.483125,0.676270406684279,0.0413042439764746));
#960=CARTESIAN_POINT('',(-0.483125,1.06716008376063,0.0413042439764746));
#961=CARTESIAN_POINT('Origin',(0.,0.6,-0.562375));
#962=CARTESIAN_POINT('Origin',(0.,0.6,0.));
#963=CARTESIAN_POINT('Origin',(0.,0.6,0.));
#964=CARTESIAN_POINT('',(-0.562375,0.417395406684279,-6.88710743670493E-17));
#965=CARTESIAN_POINT('Origin',(0.,0.417395406684279,0.));
#966=CARTESIAN_POINT('',(-0.397659176069785,0.417395406684279,0.397659176069785));
#967=CARTESIAN_POINT('Origin',(0.,0.417395406684279,0.));
#968=CARTESIAN_POINT('',(-0.480006429969408,0.6,0.0548050436823488));
#969=CARTESIAN_POINT('Ctrl Pts',(-0.397659176069785,0.417395406684279,0.397659176069785));
#970=CARTESIAN_POINT('Ctrl Pts',(-0.399985828792469,0.417395406684279,0.3953325233471));
#971=CARTESIAN_POINT('Ctrl Pts',(-0.402281317336895,0.417395385727745,0.392996196346319));
#972=CARTESIAN_POINT('Ctrl Pts',(-0.428037268811787,0.417396355570524,0.366323020547781));
#973=CARTESIAN_POINT('Ctrl Pts',(-0.450788964021136,0.417139952086207,0.338345622039399));
#974=CARTESIAN_POINT('Ctrl Pts',(-0.475848103315274,0.419224904169216,0.296458322800735));
#975=CARTESIAN_POINT('Ctrl Pts',(-0.482758992314077,0.420270126769265,0.282876017195169));
#976=CARTESIAN_POINT('Ctrl Pts',(-0.494571404877378,0.424260775005063,0.253046057774385));
#977=CARTESIAN_POINT('Ctrl Pts',(-0.498944688585908,0.427372341494215,0.237072589154564));
#978=CARTESIAN_POINT('Ctrl Pts',(-0.504336233137099,0.43841175929543,0.200040768590296));
#979=CARTESIAN_POINT('Ctrl Pts',(-0.503848174538091,0.447005630481411,0.180430183624981));
#980=CARTESIAN_POINT('Ctrl Pts',(-0.498560032447942,0.472996884746637,0.138742596586501));
#981=CARTESIAN_POINT('Ctrl Pts',(-0.492756680485582,0.491837993419802,0.117877798209132));
#982=CARTESIAN_POINT('Ctrl Pts',(-0.482665707751543,0.539800680885696,0.0807763882724071));
#983=CARTESIAN_POINT('Ctrl Pts',(-0.4787624968477,0.568531865915153,0.0656999514636892));
#984=CARTESIAN_POINT('Ctrl Pts',(-0.480006429969408,0.6,0.0548050436823489));
#985=CARTESIAN_POINT('Origin',(0.,0.6,0.));
#986=CARTESIAN_POINT('Origin',(-0.750947401620113,1.06716008376063,0.750947401620113));
#987=CARTESIAN_POINT('',(-0.0413042439764746,0.676270406684279,0.483125));
#988=CARTESIAN_POINT('',(-0.0413042439764746,1.06716008376063,0.483125));
#989=CARTESIAN_POINT('Origin',(-0.750947401620114,0.676270406684279,0.750947401620113));
#990=CARTESIAN_POINT('Origin',(-0.750947401620114,0.676270406684279,0.750947401620113));
#991=CARTESIAN_POINT('',(-0.0535993150631818,0.6,0.483125));
#992=CARTESIAN_POINT('Ctrl Pts',(-0.0413042439764748,0.676270406684279,
0.483125));
#993=CARTESIAN_POINT('Ctrl Pts',(-0.0413042439764748,0.660765597908909,
0.483125));
#994=CARTESIAN_POINT('Ctrl Pts',(-0.0428925169161792,0.643842128853297,
0.483125));
#995=CARTESIAN_POINT('Ctrl Pts',(-0.0482217945186562,0.617987120839988,
0.483125));
#996=CARTESIAN_POINT('Ctrl Pts',(-0.0506953380895098,0.608792919148375,
0.483125));
#997=CARTESIAN_POINT('Ctrl Pts',(-0.0535993150631819,0.6,0.483125));
#998=CARTESIAN_POINT('Origin',(-0.750947401620114,0.6,0.750947401620113));
#999=CARTESIAN_POINT('',(-0.054805043682349,0.6,0.480006429969408));
#1000=CARTESIAN_POINT('Ctrl Pts',(-0.054805043682349,0.6,0.480006429969408));
#1001=CARTESIAN_POINT('Ctrl Pts',(-0.0602613927338096,0.584240240760995,
0.479383447797834));
#1002=CARTESIAN_POINT('Ctrl Pts',(-0.0668543639282184,0.568922548943018,
0.48004132376009));
#1003=CARTESIAN_POINT('Ctrl Pts',(-0.0829997135665001,0.538636865509606,
0.483240941436776));
#1004=CARTESIAN_POINT('Ctrl Pts',(-0.0926467948125638,0.523899425886223,
0.485895574002961));
#1005=CARTESIAN_POINT('Ctrl Pts',(-0.119181419860417,0.491212119686583,
0.493110442591035));
#1006=CARTESIAN_POINT('Ctrl Pts',(-0.136736759389875,0.475231688656849,
0.49779643744721));
#1007=CARTESIAN_POINT('Ctrl Pts',(-0.171277068670649,0.452169641870765,
0.502965817138025));
#1008=CARTESIAN_POINT('Ctrl Pts',(-0.18757230556536,0.443944992607292,0.504117224993101));
#1009=CARTESIAN_POINT('Ctrl Pts',(-0.223698313754864,0.430560969531975,
0.501758995343014));
#1010=CARTESIAN_POINT('Ctrl Pts',(-0.24238100224442,0.426169011498387,0.497892083039558));
#1011=CARTESIAN_POINT('Ctrl Pts',(-0.274784735119515,0.421143150883754,
0.486352897405279));
#1012=CARTESIAN_POINT('Ctrl Pts',(-0.287995945134592,0.419886815074129,
0.480192002103578));
#1013=CARTESIAN_POINT('Ctrl Pts',(-0.33477397973769,0.416896140103478,0.454174049033711));
#1014=CARTESIAN_POINT('Ctrl Pts',(-0.368644958873959,0.417395406684279,
0.42667339326561));
#1015=CARTESIAN_POINT('Ctrl Pts',(-0.397659176069785,0.417395406684279,
0.397659176069785));
#1016=CARTESIAN_POINT('Origin',(-0.750947401620114,0.6,0.750947401620113));
#1017=CARTESIAN_POINT('Origin',(-0.287846964548873,1.455,0.483125));
#1018=CARTESIAN_POINT('',(0.,0.6,0.483125));
#1019=CARTESIAN_POINT('',(-0.483125,0.6,0.483125));
#1020=CARTESIAN_POINT('',(-0.483125,0.6,0.483125));
#1021=CARTESIAN_POINT('Origin',(0.,0.6,0.));
#1022=CARTESIAN_POINT('Origin',(0.,0.6,0.));
#1023=CARTESIAN_POINT('Origin',(0.,0.6,0.));
#1024=CARTESIAN_POINT('Origin',(0.,0.417395406684279,0.));
#1025=CARTESIAN_POINT('Origin',(0.,0.6,-0.562375));
#1026=CARTESIAN_POINT('Origin',(0.,0.6,-0.562375));
#1027=CARTESIAN_POINT('Origin',(0.,0.6,-0.562375));
#1028=CARTESIAN_POINT('Origin',(0.,0.6,-0.562375));
#1029=CARTESIAN_POINT('Origin',(0.,0.6,-0.562375));
#1030=CARTESIAN_POINT('Origin',(0.,0.82125,0.));
#1031=CARTESIAN_POINT('',(-0.562375,0.1875,-6.88710743670493E-17));
#1032=CARTESIAN_POINT('',(-0.562375,0.82125,-6.88710743670493E-17));
#1033=CARTESIAN_POINT('Origin',(0.,0.1875,0.));
#1034=CARTESIAN_POINT('Origin',(0.54675,0.125,0.));
#1035=CARTESIAN_POINT('',(-0.62,0.125,7.59281015471359E-17));
#1036=CARTESIAN_POINT('Origin',(0.,0.125,0.));
#1037=CARTESIAN_POINT('',(-0.54675,0.125,-6.69575637433815E-17));
#1038=CARTESIAN_POINT('Origin',(0.,0.125,0.));
#1039=CARTESIAN_POINT('Origin',(0.,0.15625,0.));
#1040=CARTESIAN_POINT('',(-0.54675,0.1875,-6.69575637433815E-17));
#1041=CARTESIAN_POINT('Origin',(0.,0.1875,0.));
#1042=CARTESIAN_POINT('',(-0.54675,0.15625,-6.69575637433815E-17));
#1043=CARTESIAN_POINT('Origin',(0.562375,0.1875,0.));
#1044=CARTESIAN_POINT('Origin',(0.,0.,0.));
#1045=CARTESIAN_POINT('',(-0.62,0.,7.59281015471359E-17));
#1046=CARTESIAN_POINT('',(-0.62,0.,7.59281015471359E-17));
#1047=CARTESIAN_POINT('Origin',(0.,0.,0.));
#1048=CARTESIAN_POINT('Origin',(0.,0.,0.));
#1049=UNCERTAINTY_MEASURE_WITH_UNIT(LENGTH_MEASURE(0.000393700787401575),
#1054,'DISTANCE_ACCURACY_VALUE',
'Maximum model space distance between geometric entities at asserted c
onnectivities');
#1050=UNCERTAINTY_MEASURE_WITH_UNIT(LENGTH_MEASURE(0.000393700787401575),
#1054,'DISTANCE_ACCURACY_VALUE',
'Maximum model space distance between geometric entities at asserted c
onnectivities');
#1051=(
GEOMETRIC_REPRESENTATION_CONTEXT(3)
GLOBAL_UNCERTAINTY_ASSIGNED_CONTEXT((#1049))
GLOBAL_UNIT_ASSIGNED_CONTEXT((#1054,#1058,#1059))
REPRESENTATION_CONTEXT('','3D')
);
#1052=(
GEOMETRIC_REPRESENTATION_CONTEXT(3)
GLOBAL_UNCERTAINTY_ASSIGNED_CONTEXT((#1050))
GLOBAL_UNIT_ASSIGNED_CONTEXT((#1054,#1058,#1059))
REPRESENTATION_CONTEXT('','3D')
);
#1053=DIMENSIONAL_EXPONENTS(1.,0.,0.,0.,0.,0.,0.);
#1054=(
CONVERSION_BASED_UNIT('inch',#1057)
LENGTH_UNIT()
NAMED_UNIT(#1053)
);
#1055=(
LENGTH_UNIT()
NAMED_UNIT(*)
SI_UNIT(.MILLI.,.METRE.)
);
#1056=(
LENGTH_UNIT()
NAMED_UNIT(*)
SI_UNIT($,.METRE.)
);
#1057=LENGTH_MEASURE_WITH_UNIT(LENGTH_MEASURE(25.4),#1055);
#1058=(
NAMED_UNIT(*)
PLANE_ANGLE_UNIT()
SI_UNIT($,.RADIAN.)
);
#1059=(
NAMED_UNIT(*)
SI_UNIT($,.STERADIAN.)
SOLID_ANGLE_UNIT()
);
#1060=SHAPE_DEFINITION_REPRESENTATION(#1061,#1062);
#1061=PRODUCT_DEFINITION_SHAPE('',$,#1064);
#1062=SHAPE_REPRESENTATION('',(#517),#1051);
#1063=PRODUCT_DEFINITION_CONTEXT('part definition',#1068,'design');
#1064=PRODUCT_DEFINITION('T-D6-TB-113092 - MARK',
'T-D6-TB-113092 - MARK v10',#1065,#1063);
#1065=PRODUCT_DEFINITION_FORMATION('',$,#1070);
#1066=PRODUCT_RELATED_PRODUCT_CATEGORY('T-D6-TB-113092 - MARK v10',
'T-D6-TB-113092 - MARK v10',(#1070));
#1067=APPLICATION_PROTOCOL_DEFINITION('international standard',
'automotive_design',2009,#1068);
#1068=APPLICATION_CONTEXT(
'Core Data for Automotive Mechanical Design Process');
#1069=PRODUCT_CONTEXT('part definition',#1068,'mechanical');
#1070=PRODUCT('T-D6-TB-113092 - MARK','T-D6-TB-113092 - MARK v10',$,(#1069));
#1071=PRESENTATION_STYLE_ASSIGNMENT((#1072));
#1072=SURFACE_STYLE_USAGE(.BOTH.,#1073);
#1073=SURFACE_SIDE_STYLE('',(#1074));
#1074=SURFACE_STYLE_FILL_AREA(#1075);
#1075=FILL_AREA_STYLE('Steel - Satin',(#1076));
#1076=FILL_AREA_STYLE_COLOUR('Steel - Satin',#1077);
#1077=COLOUR_RGB('Steel - Satin',0.627450980392157,0.627450980392157,0.627450980392157);
ENDSEC;
END-ISO-10303-21;
